<svg width="382" height="26" viewBox="0 0 382 26" fill="none" xmlns="http://www.w3.org/2000/svg">
<g opacity="0.4">
<path d="M196.79 0.819049C201.801 1.11596 208.289 2.22165 213.251 2.00713C214.586 2.87498 216.028 3.31763 217.485 3.30675L217.653 2.00765L218.969 2.44217C219.51 2.05314 217.958 2.1886 218.907 1.70176L219.403 2.51797C219.51 2.05314 222.794 2.26492 220.585 1.28637L225.722 1.39074C226.858 1.33162 226.378 2.45014 227.634 2.19887C227.889 1.82471 227.187 1.92686 227.287 1.46241C231.052 0.588432 231.625 4.09071 235.134 3.57997L234.837 3.39863C235.432 3.76131 236.569 3.74588 236.581 3.93118C236.127 5.23423 235.955 3.20921 234.879 3.95413C234.963 5.04329 236.207 4.58487 236.139 5.41953C236.959 5.03784 237.443 5.67968 238.157 5.76282C239.381 5.09765 241.131 5.60797 242.051 4.78369C242.802 5.60017 243.676 6.12921 244.596 6.32432C245.523 5.48873 244.386 5.49324 245.64 5.17643L245.839 5.82222C246.865 5.76882 246.706 5.56931 246.669 5.26502C247.77 5.27334 247.578 6.16909 248.956 5.80211L248.207 5.15216C249.153 5.36541 250.111 5.42188 251.065 5.32053C251.056 4.94918 250.462 4.95823 250.046 5.0455C250.824 4.11924 251.363 5.50187 251.779 5.4146C251.661 5.69413 250.673 5.78931 251.15 6.43153C251.881 6.33878 252.638 7.34916 253.149 6.61176L252.401 5.97273C253.881 6.51901 253.154 6.79744 254.866 6.60989C254.777 6.55986 254.817 6.40466 254.785 6.2642C255.846 7.11657 257.246 6.4204 258.823 6.41485L258.525 6.23351C259.162 6.47376 259.505 7.05731 259.849 7.01754C258.948 7.35973 259.194 7.55467 259.106 8.1498C260.299 7.12534 260.911 9.43368 262.857 8.87312C262.848 8.50177 262.368 8.0456 261.826 8.41279C261.178 7.35301 261.096 6.37307 259.917 5.833C260.657 6.1116 261.512 6.2858 261.34 5.82454L261.562 6.84092C262.01 6.88318 262.361 6.79934 262.699 6.84733C262.883 7.49388 261.791 7.86783 262.822 8.31723C263.982 8.68331 263.451 7.3003 263.63 7.76118C265.225 8.21398 264.279 8.82097 265.85 8.58605C265.694 8.49577 265.396 8.31442 265.267 8.40867C266.373 8.03395 267.98 8.68297 268.319 7.48431C268.158 7.20835 268.128 6.83814 267.711 6.92541L267.716 7.11109C266.513 6.17859 268.727 7.3865 268.357 6.27945C268.262 6.92957 269.837 6.84757 270.525 6.75711L270.3 7.49055C272.606 9.82001 270.192 6.00896 272.475 6.39314C273.955 6.95034 271.921 6.57504 272.808 7.14129C273.72 6.75975 274.674 6.63963 275.616 6.78731C276.021 6.50382 276.848 6.1436 276.924 5.30856C277.799 5.6786 279.596 5.03828 280.092 5.87634C278.581 6.5127 278.603 4.93687 276.837 5.95831L277.318 6.7862C278.518 6.98214 279.726 7.05446 280.933 7.00266C280.76 7.1538 280.684 7.36552 280.791 7.54585C282.056 8.15294 283.369 8.50028 284.696 8.57829C284.929 7.84446 283.948 7.92833 283.212 7.83541C284.307 7.28632 284.349 7.84182 286.04 7.68819C286.135 7.03806 284.903 7.68177 284.719 7.03522L286.582 7.321C286.577 7.27761 286.576 7.23365 286.579 7.18993C286.839 8.26993 288 7.11594 289.139 7.52685C291.842 7.64862 292.236 9.13718 293.726 10.0876C294.13 9.81501 294.256 9.54601 294.088 9.25951C293.416 9.71002 293.538 9.28811 293.312 9.03743C294.226 9.19765 295.322 8.06893 294.819 7.60299C296.295 7.98544 294.289 8.15548 295.171 8.53605L297.16 8.56375C296.916 9.11228 296.214 9.19259 297.237 9.65329C298.039 9.79122 298.847 9.83326 299.653 9.77902C299.493 9.50305 300.023 8.95057 299.171 8.9402C299.46 8.80928 299.766 8.77647 300.064 8.84419C300.363 8.9119 300.647 9.07842 300.897 9.33152C299.653 9.77902 302.921 9.91511 301.986 10.7292L303.23 10.2817C302.945 10.2966 302.921 9.90419 302.49 9.99222C302.852 9.16416 303.502 10.2786 303.966 10.3856C304.403 10.2426 305.54 10.2271 305.635 9.90505C305.89 10.0302 306.16 10.0674 306.426 10.0138C306.691 9.9602 306.945 9.81719 307.168 9.59559C307.745 9.79521 307.181 10.1526 307.371 10.4271L309.353 10.4551C309.466 9.98993 309.649 8.70099 309.358 8.50834C310.103 8.98354 309.604 9.90623 310.741 9.91264C310.103 8.97262 312.252 9.28721 311.324 8.16546C312.466 7.62882 313.684 7.5654 314.848 7.982C315.467 8.73712 313.741 8.32395 313.788 9.06513C316.652 9.49563 316.78 11.5448 318.902 11.314L318.356 11.4846C319.038 11.6178 319.692 11.9801 320.266 12.5443C319.922 11.6109 321.795 10.1683 323.952 10.4935C324.125 10.9656 322.731 11.3006 323.072 12.0484L324.5 12.2693C324.609 12.2089 324.451 12.0422 324.264 11.9098C325.543 12.3134 326.675 10.8548 327.024 11.952L328.351 10.691L327.828 11.2321C328.001 11.6934 329.436 11.9139 329.727 12.1066C330.184 12.3593 330.672 12.4624 331.158 12.4088C331.644 12.3552 332.117 12.1461 332.544 11.7959C332.281 12.1595 331.624 12.9373 332.782 13.1942C332.799 11.7061 335.216 12.7941 335.196 11.9749C335.66 12.0274 336.501 11.6227 336.538 12.2332L336.479 11.3067C336.561 12.6038 338.264 12.6573 339.563 12.9724C339.301 11.2036 340.991 13.2042 341.601 11.6525C341.819 12.8549 343.904 12.2762 344.111 13.3043C345.112 13.4272 345.035 12.3158 345.298 11.9522L345.756 12.4313C346.913 11.9953 348.097 11.7323 349.289 11.646L350.305 12.7632L350.705 12.3158C350.866 12.5918 351.729 12.8093 351.18 13.166L351.744 13.1366C351.771 14.2834 352.53 13.5003 353.644 14.0656C353.912 13.8986 353.846 13.6177 353.63 13.4431C354.188 13.4687 353.961 12.8681 354.275 12.5018C353.871 12.7744 356.256 14.6952 354.725 15.1029C354.611 15.5681 355.479 15.9604 356.047 15.7996L356.405 14.7967L357.04 15.9338C357.904 16.1403 358.285 15.519 358.988 15.4387C358.251 15.324 357.471 13.3306 359.287 13.4985C358.615 13.2852 357.966 12.9285 357.362 12.4396C357.743 12.4197 357.939 12.333 357.349 11.8607C358.781 12.2782 357.819 12.5251 359.24 12.7573C359.182 11.8309 359.586 11.5583 360.835 11.3292L359.896 11.9468C359.936 12.0585 359.997 12.1504 360.071 12.2111C359.713 12.2844 359.614 12.4317 359.534 12.7748C359.812 12.7604 361.163 14.0242 361.406 13.4757C359.971 14.8298 363.886 14.7354 362.923 15.5838C363.084 15.8598 364.077 15.9721 364.183 15.5182C363.006 14.7593 365.091 14.5086 364.878 13.8527C365.317 14.136 363.939 14.492 364.528 14.866C365.106 14.8633 365.671 14.6097 366.154 14.1362L365.863 13.9545L366.955 13.5805C367.134 14.0414 365.894 14.3247 366.898 14.6005C367.165 14.4116 368.169 14.6765 368.138 14.3063C367.661 13.664 368.016 12.8254 367.161 12.6512C367.896 12.7442 370.1 12.87 369.203 13.7259L370.046 13.6821C369.519 14.0703 368.031 14.7492 369.729 14.8905L369.725 14.7048L370.908 15.3978L371.417 14.912C371.423 15.1414 371.596 15.362 372.029 15.3394C372.14 15.0603 372.555 14.9403 372.51 14.5708C373.794 14.5914 373.592 15.0503 373.781 15.3138C374.406 15.3579 374.599 15.151 374.293 14.6201C374.936 14.4773 376.052 14.5286 376.238 13.7097C377.147 13.6624 376.157 14.0201 376.853 14.29C376.829 13.2634 377.307 12.6917 377.755 11.7608C378.269 10.8502 378.631 9.77075 378.811 8.61107C379.827 9.4002 378.966 8.03435 379.879 7.54941C379.739 7.84101 379.49 7.21973 379.262 6.89259C379.034 6.56545 378.842 6.47707 378.769 7.44317C378.784 7.04589 378.775 6.64741 378.741 6.25266C378.389 5.96477 378.379 6.46833 378.308 6.87664C378.237 7.28495 378.069 7.61085 377.648 7.1844C377.636 6.69291 377.837 6.16851 377.904 5.58544C377.977 5.28624 377.976 4.95817 377.902 4.65965C377.828 4.36112 377.685 4.11152 377.499 3.95528C377.132 4.91479 377.19 2.99809 376.766 3.99342C376.688 4.43488 376.904 4.55488 376.992 4.86743L376.794 4.87773C376.258 4.22764 376.283 4.02952 376.465 3.65917C376.647 3.28883 376.984 2.96508 376.72 2.32272C375.755 1.55277 375.587 2.51291 375.412 2.89379C374.99 2.8391 374.595 2.56562 374.294 2.12093C374.903 3.05156 375.933 2.26524 375.747 1.52039C374.825 2.2573 373.731 0.641141 373.386 0.0139018C375.658 -0.104334 374.808 0.574152 377.064 0.445756C377.165 0.965439 376.753 1.55551 377.772 2.1695C377.464 1.22323 378.093 1.75914 378.337 1.85578C377.858 2.06663 378.785 2.80572 378.807 3.41698C379.302 3.59894 379.206 1.69025 380.093 3.20786L379.708 3.69811L379.301 4.16765C379.629 4.70828 379.893 3.44791 380.098 5.01191C380.331 3.97189 381.012 4.87686 380.395 2.65628C380.756 3.01309 381.037 3.52033 381.205 4.11455C381.373 4.70878 381.42 5.3636 381.339 5.99712C381.142 7.03805 380.889 8.05333 380.581 9.03287C380.65 8.83246 380.782 8.82559 380.858 8.6248C380.641 9.17405 380.486 9.77339 380.401 10.3983C380.435 11.8509 380.988 9.49284 381.218 9.89644L381.062 11.0746L380.802 12.1817C380.803 12.2473 380.804 12.2691 380.856 12.2773C380.582 12.7946 380.29 13.1925 380.461 13.5992C380.883 13.3871 381.287 13.1056 381.667 12.76C381.265 13.5051 380.785 14.147 380.244 14.6603C380.656 14.7045 379.767 16.8722 380.719 15.5432L380.452 16.0383C380.275 16.3208 380.011 16.6298 379.74 16.9611C379.388 17.3601 379.014 17.7126 378.62 18.0145L378.767 18.9473C378.09 19.1685 378.036 19.0401 378.698 18.4916C377.97 18.9634 377.172 19.1407 376.384 19.0057C375.548 18.9946 374.915 18.9291 375.26 19.8516C373.11 19.2199 372.538 19.5231 370.186 19.0222C371.974 19.8805 368.142 20.1018 370.037 20.5062C368.924 20.9032 368.695 19.8981 367.818 19.725C366.998 20.1067 367.357 21.0285 368.246 21.3868L367.201 20.9382L367.205 21.1239L366.304 20.5693C365.34 21.0351 366.091 21.4989 365.103 21.5832L364.9 20.7517L364.221 21.2026C364.477 20.8394 363.893 20.6402 363.179 20.5461L363.183 20.7318L362.313 20.5256C363.169 21.0715 361.516 20.6654 361.897 21.2689C361.192 21.269 360.489 21.185 359.793 21.0176L360.037 20.4691C358.292 19.871 359.947 21.3048 358.522 21.2587L358.625 20.6191C356.556 21.5688 355.17 19.7054 353.652 20.364C354.508 20.571 354.276 21.3048 354.264 21.1195C352.659 20.9965 351.067 20.6062 349.52 19.9558C349.013 20.8679 348.886 21.0823 347.494 21.461C346.493 21.3381 346.344 21.2365 346.008 20.6744C345.032 20.9767 343.219 20.3056 343.154 20.987C342.936 20.4297 342.275 21.0328 341.75 20.5461L341.632 20.8147L341.734 20.1752C339.983 21.513 338.842 19.1556 337.072 20.3085L337.37 20.5008L336.629 20.2003C336.511 20.4799 336.801 20.6725 336.832 21.0427L333.426 20.9357L334.105 20.4958C333.369 20.381 332.92 19.7263 332.092 20.0756C333.437 21.0992 330.962 20.047 330.73 20.7808L331.47 21.0812C330.477 20.9689 330.477 20.9689 330.565 20.3192C329.274 20.0146 329.652 21.4602 328.476 20.7341L329.328 20.7554C329.583 20.3921 328.983 19.8219 328.418 19.8076C328.281 19.9022 327.876 20.1639 328.304 20.2728C327.292 19.9646 325.75 20.2089 325.31 19.9256C324.757 20.0966 324.929 20.5688 325.22 20.7614C323.054 20.0649 324.231 20.8129 322.058 20.1387L322.067 20.51L321.322 20.0239L320.238 20.7473L320.631 20.2895C319.975 20.0684 319.301 19.9893 318.63 20.0546L318.959 20.6171C316.946 20.197 316.608 21.3956 314.702 20.5216C314.572 20.6158 314.862 20.8085 315.019 20.8988C313.249 19.8973 313.66 21.7896 311.888 20.6462C311.995 20.8375 311.794 21.0557 311.864 21.2161L311.055 20.8098L311.073 21.5525L310.423 20.4272L309.912 21.1646L309.602 20.798C308.71 22.1676 307.495 21.0498 306.294 22.0637L306.515 21.1446C303.533 19.1127 299.636 21.8854 296.024 20.8159L296.078 21.5567L294.589 20.6172C293.78 21.1623 295.059 21.2707 294.803 21.6339C293.207 21.1484 294.153 20.5086 292.29 20.2119C291.333 20.6664 292.612 20.7748 293.044 21.0585C291.22 20.4739 289.352 20.2657 287.491 20.4399C287.488 20.3416 287.39 20.2046 287.484 20.1669C286.162 19.9557 284.832 19.8861 283.503 19.9585C283.511 20.2971 283.85 20.367 284.167 20.4489C283.678 20.5978 283.171 20.5525 282.697 20.3176L283.175 20.9708C282.186 21.0222 280.3 20.3986 280.075 21.1321C280.193 20.8526 280.151 20.2971 279.322 20.2965C278.842 21.415 277.013 19.7278 275.654 20.2796C275.814 20.5556 276.814 20.6567 276.528 20.6606C275.865 20.7692 275.198 20.5378 274.635 20.0046L274.814 20.4655L271.642 19.712C271.162 20.8306 268.642 19.4199 268.853 20.2509C267.715 20.2445 269.81 19.7965 268.375 19.6087C267.99 20.0662 267.078 19.3263 267.132 20.0671L267.28 20.1578L266.281 20.0677L266.907 20.8115C266.044 20.6268 265.418 19.883 265.405 19.3368C264.585 19.7185 263.425 19.3415 263.044 19.9956L263.349 20.1766C261.051 19.815 259.527 22.0486 257.728 20.7535C257.591 20.8481 257.61 21.033 257.889 21.0294L256.466 21.027L256.801 21.5781L254.462 20.6611L254.47 21.0324C252.917 21.1133 250.49 20.8678 248.498 20.6872L248.796 20.8685C246.624 20.227 246.69 21.1531 245.124 20.6988C245.165 20.78 245.223 20.8386 245.289 20.8651L243.82 20.8104L244.137 21.1766C243.084 20.3566 241.093 22.1443 241.753 21.4866C241.15 21.1243 240.12 20.6749 239.948 20.2137C238.383 20.1311 239.563 20.6821 238.594 20.9731C237.465 21.0318 237.266 20.3423 235.732 20.6409L235.741 21.0122C235.005 20.9302 234.581 20.6571 233.581 20.5779L233.879 20.7592C232.253 19.9471 231.842 21.7948 230.571 20.155C229.888 20.4421 228.591 20.1706 228.652 20.9219C226.622 20.3933 225.046 20.1364 223.028 19.7931C222.705 21.0019 222.594 19.7064 221.37 20.3825L221.464 19.7323C218.615 19.5964 215.335 21.1449 212.196 20.8491L212.108 21.4988L211.482 20.7768C208.099 21.0404 203.723 21.1807 201.024 21.19C199.864 20.5411 198.631 20.2339 197.393 20.2855L197.542 20.3762C194.99 19.8904 192.412 19.7829 189.846 20.055C190.014 20.3306 189.747 20.5195 190.045 20.7008C189.412 19.9792 188.481 20.651 187.909 20.6698L188.58 20.1865C188.215 19.9697 187.818 19.8967 187.428 19.9744C187.038 20.0522 186.668 20.2781 186.353 20.6305L185.148 19.9278C185.069 19.9975 184.947 20.0914 184.935 20.2013L184.824 19.8681L184.191 20.7212C183.893 20.5399 182.304 20.3164 181.807 19.4893C181.689 19.7688 180.572 19.991 181.442 20.1535L177.045 20.3824L177.728 20.0735C177.808 19.4241 176.493 19.0442 175.817 19.3199C176.71 19.8421 175.898 20.2453 175.513 20.7246C174.918 20.3728 176.027 20.151 175.711 19.7957C174.836 19.3352 173.897 19.2111 172.981 19.4348L173.427 19.6959C172.409 19.4536 171.981 20.5913 170.945 20.5359C170.045 20.0141 169.382 20.5079 169.561 19.3832C168.257 19.1558 169.065 20.1416 168.642 20.2511C168.206 20.0259 167.743 19.9441 167.283 20.0114C166.824 20.0788 166.38 20.2936 165.981 20.6412C165.261 19.0056 162.481 21.2389 162.214 19.864L161.154 20.6409C161.103 20.2569 160.963 19.9117 160.759 19.6648C160.555 19.418 160.299 19.2848 160.037 19.2884C159.225 19.6916 159.423 20.3374 159.175 20.7111L158.615 19.3406C153.925 20.8095 147.719 19.9077 142.585 21.2029C139.971 20.7176 137.339 20.4893 134.705 20.5196L135.002 20.69L132.342 21.1128L134.27 20.4438C133.748 20.2307 133.211 20.1046 132.67 20.0678C129.23 20.9819 125.726 21.2452 122.242 20.8512C119.888 19.3225 120.705 22.2872 118.464 21.1791C118.658 21.3221 118.729 21.548 118.901 21.6922C116.831 21.3559 114.778 20.8236 112.753 20.0985C113.054 21.6576 111.183 20.0928 111.415 20.9118L111.202 20.2777C110.669 20.6772 109.411 20.8521 109.597 21.3016L108.523 20.5374L108.443 21.1977C107.036 21.2709 104.033 20.8367 103.28 22.1882C98.8279 21.5384 94.3445 21.5228 89.8905 22.1416C88.9551 21.6865 87.9692 21.5075 86.9878 21.6147L85.936 22.4349C84.9189 22.2363 83.8186 21.2985 82.8846 21.8283C82.8897 21.8729 82.9032 21.9145 82.9234 21.9483C82.9437 21.9821 82.9699 22.0066 82.9991 22.0191C81.9978 22.186 80.9844 22.0681 80.0126 21.6716C78.8842 21.7303 77.8244 22.212 78.1491 22.9168C78.0163 21.6333 75.7567 23.1944 75.7567 23.1944L66.4645 23.9296C60.8042 24.3774 53.0995 24.9206 44.9568 25.246C31.0917 26.7244 17.1609 26.0274 3.3935 23.1667C2.89533 22.5693 1.56699 22.2338 2.04732 21.4433C1.02348 21.267 0.603141 22.4262 0.375815 21.8037C1.75014 21.2838 -0.102447 20.1774 1.2268 19.299L0.351554 19.2024C0.157886 18.7641 1.55031 19.643 1.31131 18.8353L1.58806 20.0019C2.08325 19.9252 2.54635 19.6004 2.90164 19.0806C3.57915 19.5046 4.04173 21.088 5.60017 20.2851L5.16633 20.2421C6.4559 20.175 5.93217 19.4258 6.19134 19.2155L5.90558 19.2304L6.97566 18.5623C6.16475 19.0201 4.765 18.1415 5.49898 18.158C7.02216 17.7288 5.11023 18.4735 6.24167 18.5458C6.97438 18.5077 6.74101 17.9403 6.69567 17.5708L7.97791 17.5041C7.9209 16.9493 7.12797 17.5483 7.63566 16.9861L9.26825 17.4697C9.52832 16.0455 11.0421 18.0335 11.7436 16.6629C10.5712 16.4068 11.8352 16.1879 11.6342 15.75L14.4844 15.6016C14.7509 15.3909 13.7417 15.2138 14.1609 15.2576C14.6866 14.8366 15.0552 15.5391 15.3407 15.5133C15.5735 15.1184 17.4655 15.4027 17.3629 14.4676C19.2822 13.7225 18.2109 15.5935 19.993 14.9431C20.2142 14.3629 18.5248 14.8992 19.3462 14.2659L21.219 14.3544C21.1088 14.083 20.9454 13.8685 20.7509 13.7398C20.5563 13.6112 20.34 13.5744 20.1311 13.6346C24.1319 11.7264 28.2647 10.4988 32.4506 9.97511C33.0868 9.264 31.9711 9.55172 31.4993 9.13886C34.8683 9.83833 36.1685 7.4086 39.0203 7.32576L39.0846 7.88012C43.4424 6.63326 47.8631 5.93855 52.2995 5.80343L51.7736 6.21354C52.5393 6.61107 53.3368 6.85635 54.1455 6.94304C54.2488 6.65334 53.583 5.79129 54.8926 5.95277C54.6261 6.16348 54.0814 6.3996 54.2488 6.65334C60.3032 5.26417 66.4065 4.39877 72.5281 4.06151C81.1136 4.16137 90.3962 2.70492 98.8284 2.83463C97.5443 2.82492 98.1264 4.18342 99.072 3.83894C101.686 1.45016 103.67 4.09167 106.375 2.43085C110.992 1.94182 115.627 2.00403 120.237 2.61691L120.317 1.95663C120.992 1.6481 121.186 2.0973 121.899 2.14768L121.894 1.962C123.582 1.6773 125.636 2.30305 126.604 1.96834L126.673 2.70838C127.679 2.75442 127.187 2.12389 128.224 2.52922L128.215 2.15787L129.427 2.82748C129.294 1.53309 132.262 2.67987 133.077 2.06883C134.979 2.4943 136.903 2.64678 138.824 2.52419C139.183 1.86033 141.603 1.83277 143.143 1.47924C146.146 1.60722 150.442 1.77729 154.265 1.49082L154.203 2.32509L155.202 2.37152C155.198 2.18584 155.32 2.09198 155.193 2.00017C155.963 1.04152 157.496 2.2849 158.297 1.68554C157.794 2.4444 157.566 1.81106 157.031 1.82798C156.211 2.23151 157 3.03246 158.106 2.61406L158.101 2.42838L158.845 2.87081C158.925 2.22145 159.608 1.91255 159.695 1.26281C162.655 1.81417 165.633 2.13005 168.616 2.20911C168.262 1.48395 171.056 2.3883 170.366 1.1229C172.402 1.5965 170.038 2.14604 170.968 3.03804C171.532 3.00867 172.135 3.36005 172.234 2.8956C171.963 2.59259 172.693 2.12811 172.213 2.01091L173.573 2.10419C173.702 2.00994 173.405 1.8286 173.249 1.74924C176.024 2.46867 178.159 0.903137 180.649 1.65929C180.836 2.11979 179.661 1.77631 179.848 2.24773C182.35 3.21102 182.03 1.4343 184.393 2.10956L183.909 1.47864C184.248 1.80893 184.633 2.02329 185.034 2.10637C185.436 2.18945 185.844 2.1392 186.231 1.95921C186.449 1.21523 185.175 1.34713 184.579 0.951678C185.429 0.907435 187.584 1.13427 186.932 1.80246C187.95 2.05564 188.323 1.39102 188.869 1.18766C188.873 1.37334 187.919 1.68543 188.514 2.02627C190.247 1.68982 191.995 1.54404 193.742 1.59011C193.738 1.40444 193.841 1.12567 193.729 1.03309C195.064 2.26493 194.915 0.599568 196.79 0.819049Z" fill="#519BCC"/>
<path d="M196.79 0.819049C201.801 1.11596 208.289 2.22165 213.251 2.00713C214.586 2.87498 216.028 3.31763 217.485 3.30675L217.653 2.00765L218.969 2.44217C219.51 2.05314 217.958 2.1886 218.907 1.70176L219.403 2.51797C219.51 2.05314 222.794 2.26492 220.585 1.28637L225.722 1.39074C226.858 1.33162 226.378 2.45014 227.634 2.19887C227.889 1.82471 227.187 1.92686 227.287 1.46241C231.052 0.588432 231.625 4.09071 235.134 3.57997L234.837 3.39863C235.432 3.76131 236.569 3.74588 236.581 3.93118C236.127 5.23423 235.955 3.20921 234.879 3.95413C234.963 5.04329 236.207 4.58487 236.139 5.41953C236.959 5.03784 237.443 5.67968 238.157 5.76282C239.381 5.09765 241.131 5.60797 242.051 4.78369C242.802 5.60017 243.676 6.12921 244.596 6.32432C245.523 5.48873 244.386 5.49324 245.64 5.17643L245.839 5.82222C246.865 5.76882 246.706 5.56931 246.669 5.26502C247.77 5.27334 247.578 6.16909 248.956 5.80211L248.207 5.15216C249.153 5.36541 250.111 5.42188 251.065 5.32053C251.056 4.94918 250.462 4.95823 250.046 5.0455C250.824 4.11924 251.363 5.50187 251.779 5.4146C251.661 5.69413 250.673 5.78931 251.15 6.43153C251.881 6.33878 252.638 7.34916 253.149 6.61176L252.401 5.97273C253.881 6.51901 253.154 6.79744 254.866 6.60989C254.777 6.55986 254.817 6.40466 254.785 6.2642C255.846 7.11657 257.246 6.4204 258.823 6.41485L258.525 6.23351C259.162 6.47376 259.505 7.05731 259.849 7.01754C258.948 7.35973 259.194 7.55467 259.106 8.1498C260.299 7.12534 260.911 9.43368 262.857 8.87312C262.848 8.50177 262.368 8.0456 261.826 8.41279C261.178 7.35301 261.096 6.37307 259.917 5.833C260.657 6.1116 261.512 6.2858 261.34 5.82454L261.562 6.84092C262.01 6.88318 262.361 6.79934 262.699 6.84733C262.883 7.49388 261.791 7.86783 262.822 8.31723C263.982 8.68331 263.451 7.3003 263.63 7.76118C265.225 8.21398 264.279 8.82097 265.85 8.58605C265.694 8.49577 265.396 8.31442 265.267 8.40867C266.373 8.03395 267.98 8.68297 268.319 7.48431C268.158 7.20835 268.128 6.83814 267.711 6.92541L267.716 7.11109C266.513 6.17859 268.727 7.3865 268.357 6.27945C268.262 6.92957 269.837 6.84757 270.525 6.75711L270.3 7.49055C272.606 9.82001 270.192 6.00896 272.475 6.39314C273.955 6.95034 271.921 6.57504 272.808 7.14129C273.72 6.75975 274.674 6.63963 275.616 6.78731C276.021 6.50382 276.848 6.1436 276.924 5.30856C277.799 5.6786 279.596 5.03828 280.092 5.87634C278.581 6.5127 278.603 4.93687 276.837 5.95831L277.318 6.7862C278.518 6.98214 279.726 7.05446 280.933 7.00266C280.76 7.1538 280.684 7.36552 280.791 7.54585C282.056 8.15294 283.369 8.50028 284.696 8.57829C284.929 7.84446 283.948 7.92833 283.212 7.83541C284.307 7.28632 284.349 7.84182 286.04 7.68819C286.135 7.03806 284.903 7.68177 284.719 7.03522L286.582 7.321C286.577 7.27761 286.576 7.23365 286.579 7.18993C286.839 8.26993 288 7.11594 289.139 7.52685C291.842 7.64862 292.236 9.13718 293.726 10.0876C294.13 9.81501 294.256 9.54601 294.088 9.25951C293.416 9.71002 293.538 9.28811 293.312 9.03743C294.226 9.19765 295.322 8.06893 294.819 7.60299C296.295 7.98544 294.289 8.15548 295.171 8.53605L297.16 8.56375C296.916 9.11228 296.214 9.19259 297.237 9.65329C298.039 9.79122 298.847 9.83326 299.653 9.77902C299.493 9.50305 300.023 8.95057 299.171 8.9402C299.46 8.80928 299.766 8.77647 300.064 8.84419C300.363 8.9119 300.647 9.07842 300.897 9.33152C299.653 9.77902 302.921 9.91511 301.986 10.7292L303.23 10.2817C302.945 10.2966 302.921 9.90419 302.49 9.99222C302.852 9.16416 303.502 10.2786 303.966 10.3856C304.403 10.2426 305.54 10.2271 305.635 9.90505C305.89 10.0302 306.16 10.0674 306.426 10.0138C306.691 9.9602 306.945 9.81719 307.168 9.59559C307.745 9.79521 307.181 10.1526 307.371 10.4271L309.353 10.4551C309.466 9.98993 309.649 8.70099 309.358 8.50834C310.103 8.98354 309.604 9.90623 310.741 9.91264C310.103 8.97262 312.252 9.28721 311.324 8.16546C312.466 7.62882 313.684 7.5654 314.848 7.982C315.467 8.73712 313.741 8.32395 313.788 9.06513C316.652 9.49563 316.78 11.5448 318.902 11.314L318.356 11.4846C319.038 11.6178 319.692 11.9801 320.266 12.5443C319.922 11.6109 321.795 10.1683 323.952 10.4935C324.125 10.9656 322.731 11.3006 323.072 12.0484L324.5 12.2693C324.609 12.2089 324.451 12.0422 324.264 11.9098C325.543 12.3134 326.675 10.8548 327.024 11.952L328.351 10.691L327.828 11.2321C328.001 11.6934 329.436 11.9139 329.727 12.1066C330.184 12.3593 330.672 12.4624 331.158 12.4088C331.644 12.3552 332.117 12.1461 332.544 11.7959C332.281 12.1595 331.624 12.9373 332.782 13.1942C332.799 11.7061 335.216 12.7941 335.196 11.9749C335.66 12.0274 336.501 11.6227 336.538 12.2332L336.479 11.3067C336.561 12.6038 338.264 12.6573 339.563 12.9724C339.301 11.2036 340.991 13.2042 341.601 11.6525C341.819 12.8549 343.904 12.2762 344.111 13.3043C345.112 13.4272 345.035 12.3158 345.298 11.9522L345.756 12.4313C346.913 11.9953 348.097 11.7323 349.289 11.646L350.305 12.7632L350.705 12.3158C350.866 12.5918 351.729 12.8093 351.18 13.166L351.744 13.1366C351.771 14.2834 352.53 13.5003 353.644 14.0656C353.912 13.8986 353.846 13.6177 353.63 13.4431C354.188 13.4687 353.961 12.8681 354.275 12.5018C353.871 12.7744 356.256 14.6952 354.725 15.1029C354.611 15.5681 355.479 15.9604 356.047 15.7996L356.405 14.7967L357.04 15.9338C357.904 16.1403 358.285 15.519 358.988 15.4387C358.251 15.324 357.471 13.3306 359.287 13.4985C358.615 13.2852 357.966 12.9285 357.362 12.4396C357.743 12.4197 357.939 12.333 357.349 11.8607C358.781 12.2782 357.819 12.5251 359.24 12.7573C359.182 11.8309 359.586 11.5583 360.835 11.3292L359.896 11.9468C359.936 12.0585 359.997 12.1504 360.071 12.2111C359.713 12.2844 359.614 12.4317 359.534 12.7748C359.812 12.7604 361.163 14.0242 361.406 13.4757C359.971 14.8298 363.886 14.7354 362.923 15.5838C363.084 15.8598 364.077 15.9721 364.183 15.5182C363.006 14.7593 365.091 14.5086 364.878 13.8527C365.317 14.136 363.939 14.492 364.528 14.866C365.106 14.8633 365.671 14.6097 366.154 14.1362L365.863 13.9545L366.955 13.5805C367.134 14.0414 365.894 14.3247 366.898 14.6005C367.165 14.4116 368.169 14.6765 368.138 14.3063C367.661 13.664 368.016 12.8254 367.161 12.6512C367.896 12.7442 370.1 12.87 369.203 13.7259L370.046 13.6821C369.519 14.0703 368.031 14.7492 369.729 14.8905L369.725 14.7048L370.908 15.3978L371.417 14.912C371.423 15.1414 371.596 15.362 372.029 15.3394C372.14 15.0603 372.555 14.9403 372.51 14.5708C373.794 14.5914 373.592 15.0503 373.781 15.3138C374.406 15.3579 374.599 15.151 374.293 14.6201C374.936 14.4773 376.052 14.5286 376.238 13.7097C377.147 13.6624 376.157 14.0201 376.853 14.29C376.829 13.2634 377.307 12.6917 377.755 11.7608C378.269 10.8502 378.631 9.77075 378.811 8.61107C379.827 9.4002 378.966 8.03435 379.879 7.54941C379.739 7.84101 379.49 7.21973 379.262 6.89259C379.034 6.56545 378.842 6.47707 378.769 7.44317C378.784 7.04589 378.775 6.64741 378.741 6.25266C378.389 5.96477 378.379 6.46833 378.308 6.87664C378.237 7.28495 378.069 7.61085 377.648 7.1844C377.636 6.69291 377.837 6.16851 377.904 5.58544C377.977 5.28624 377.976 4.95817 377.902 4.65965C377.828 4.36112 377.685 4.11152 377.499 3.95528C377.132 4.91479 377.19 2.99809 376.766 3.99342C376.688 4.43488 376.904 4.55488 376.992 4.86743L376.794 4.87773C376.258 4.22764 376.283 4.02952 376.465 3.65917C376.647 3.28883 376.984 2.96508 376.72 2.32272C375.755 1.55277 375.587 2.51291 375.412 2.89379C374.99 2.8391 374.595 2.56562 374.294 2.12093C374.903 3.05156 375.933 2.26524 375.747 1.52039C374.825 2.2573 373.731 0.641141 373.386 0.0139018C375.658 -0.104334 374.808 0.574152 377.064 0.445756C377.165 0.965439 376.753 1.55551 377.772 2.1695C377.464 1.22323 378.093 1.75914 378.337 1.85578C377.858 2.06663 378.785 2.80572 378.807 3.41698C379.302 3.59894 379.206 1.69025 380.093 3.20786L379.708 3.69811L379.301 4.16765C379.629 4.70828 379.893 3.44791 380.098 5.01191C380.331 3.97189 381.012 4.87686 380.395 2.65628C380.756 3.01309 381.037 3.52033 381.205 4.11455C381.373 4.70878 381.42 5.3636 381.339 5.99712C381.142 7.03805 380.889 8.05333 380.581 9.03287C380.65 8.83246 380.782 8.82559 380.858 8.6248C380.641 9.17405 380.486 9.77339 380.401 10.3983C380.435 11.8509 380.988 9.49284 381.218 9.89644L381.062 11.0746L380.802 12.1817C380.803 12.2473 380.804 12.2691 380.856 12.2773C380.582 12.7946 380.29 13.1925 380.461 13.5992C380.883 13.3871 381.287 13.1056 381.667 12.76C381.265 13.5051 380.785 14.147 380.244 14.6603C380.656 14.7045 379.767 16.8722 380.719 15.5432L380.452 16.0383C380.275 16.3208 380.011 16.6298 379.74 16.9611C379.388 17.3601 379.014 17.7126 378.62 18.0145L378.767 18.9473C378.09 19.1685 378.036 19.0401 378.698 18.4916C377.97 18.9634 377.172 19.1407 376.384 19.0057C375.548 18.9946 374.915 18.9291 375.26 19.8516C373.11 19.2199 372.538 19.5231 370.186 19.0222C371.974 19.8805 368.142 20.1018 370.037 20.5062C368.924 20.9032 368.695 19.8981 367.818 19.725C366.998 20.1067 367.357 21.0285 368.246 21.3868L367.201 20.9382L367.205 21.1239L366.304 20.5693C365.34 21.0351 366.091 21.4989 365.103 21.5832L364.9 20.7517L364.221 21.2026C364.477 20.8394 363.893 20.6402 363.179 20.5461L363.183 20.7318L362.313 20.5256C363.169 21.0715 361.516 20.6654 361.897 21.2689C361.192 21.269 360.489 21.185 359.793 21.0176L360.037 20.4691C358.292 19.871 359.947 21.3048 358.522 21.2587L358.625 20.6191C356.556 21.5688 355.17 19.7054 353.652 20.364C354.508 20.571 354.276 21.3048 354.264 21.1195C352.659 20.9965 351.067 20.6062 349.52 19.9558C349.013 20.8679 348.886 21.0823 347.494 21.461C346.493 21.3381 346.344 21.2365 346.008 20.6744C345.032 20.9767 343.219 20.3056 343.154 20.987C342.936 20.4297 342.275 21.0328 341.75 20.5461L341.632 20.8147L341.734 20.1752C339.983 21.513 338.842 19.1556 337.072 20.3085L337.37 20.5008L336.629 20.2003C336.511 20.4799 336.801 20.6725 336.832 21.0427L333.426 20.9357L334.105 20.4958C333.369 20.381 332.92 19.7263 332.092 20.0756C333.437 21.0992 330.962 20.047 330.73 20.7808L331.47 21.0812C330.477 20.9689 330.477 20.9689 330.565 20.3192C329.274 20.0146 329.652 21.4602 328.476 20.7341L329.328 20.7554C329.583 20.3921 328.983 19.8219 328.418 19.8076C328.281 19.9022 327.876 20.1639 328.304 20.2728C327.292 19.9646 325.75 20.2089 325.31 19.9256C324.757 20.0966 324.929 20.5688 325.22 20.7614C323.054 20.0649 324.231 20.8129 322.058 20.1387L322.067 20.51L321.322 20.0239L320.238 20.7473L320.631 20.2895C319.975 20.0684 319.301 19.9893 318.63 20.0546L318.959 20.6171C316.946 20.197 316.608 21.3956 314.702 20.5216C314.572 20.6158 314.862 20.8085 315.019 20.8988C313.249 19.8973 313.66 21.7896 311.888 20.6462C311.995 20.8375 311.794 21.0557 311.864 21.2161L311.055 20.8098L311.073 21.5525L310.423 20.4272L309.912 21.1646L309.602 20.798C308.71 22.1676 307.495 21.0498 306.294 22.0637L306.515 21.1446C303.533 19.1127 299.636 21.8854 296.024 20.8159L296.078 21.5567L294.589 20.6172C293.78 21.1623 295.059 21.2707 294.803 21.6339C293.207 21.1484 294.153 20.5086 292.29 20.2119C291.333 20.6664 292.612 20.7748 293.044 21.0585C291.22 20.4739 289.352 20.2657 287.491 20.4399C287.488 20.3416 287.39 20.2046 287.484 20.1669C286.162 19.9557 284.832 19.8861 283.503 19.9585C283.511 20.2971 283.85 20.367 284.167 20.4489C283.678 20.5978 283.171 20.5525 282.697 20.3176L283.175 20.9708C282.186 21.0222 280.3 20.3986 280.075 21.1321C280.193 20.8526 280.151 20.2971 279.322 20.2965C278.842 21.415 277.013 19.7278 275.654 20.2796C275.814 20.5556 276.814 20.6567 276.528 20.6606C275.865 20.7692 275.198 20.5378 274.635 20.0046L274.814 20.4655L271.642 19.712C271.162 20.8306 268.642 19.4199 268.853 20.2509C267.715 20.2445 269.81 19.7965 268.375 19.6087C267.99 20.0662 267.078 19.3263 267.132 20.0671L267.28 20.1578L266.281 20.0677L266.907 20.8115C266.044 20.6268 265.418 19.883 265.405 19.3368C264.585 19.7185 263.425 19.3415 263.044 19.9956L263.349 20.1766C261.051 19.815 259.527 22.0486 257.728 20.7535C257.591 20.8481 257.61 21.033 257.889 21.0294L256.466 21.027L256.801 21.5781L254.462 20.6611L254.47 21.0324C252.917 21.1133 250.49 20.8678 248.498 20.6872L248.796 20.8685C246.624 20.227 246.69 21.1531 245.124 20.6988C245.165 20.78 245.223 20.8386 245.289 20.8651L243.82 20.8104L244.137 21.1766C243.084 20.3566 241.093 22.1443 241.753 21.4866C241.15 21.1243 240.12 20.6749 239.948 20.2137C238.383 20.1311 239.563 20.6821 238.594 20.9731C237.465 21.0318 237.266 20.3423 235.732 20.6409L235.741 21.0122C235.005 20.9302 234.581 20.6571 233.581 20.5779L233.879 20.7592C232.253 19.9471 231.842 21.7948 230.571 20.155C229.888 20.4421 228.591 20.1706 228.652 20.9219C226.622 20.3933 225.046 20.1364 223.028 19.7931C222.705 21.0019 222.594 19.7064 221.37 20.3825L221.464 19.7323C218.615 19.5964 215.335 21.1449 212.196 20.8491L212.108 21.4988L211.482 20.7768C208.099 21.0404 203.723 21.1807 201.024 21.19C199.864 20.5411 198.631 20.2339 197.393 20.2855L197.542 20.3762C194.99 19.8904 192.412 19.7829 189.846 20.055C190.014 20.3306 189.747 20.5195 190.045 20.7008C189.412 19.9792 188.481 20.651 187.909 20.6698L188.58 20.1865C188.215 19.9697 187.818 19.8967 187.428 19.9744C187.038 20.0522 186.668 20.2781 186.353 20.6305L185.148 19.9278C185.069 19.9975 184.947 20.0914 184.935 20.2013L184.824 19.8681L184.191 20.7212C183.893 20.5399 182.304 20.3164 181.807 19.4893C181.689 19.7688 180.572 19.991 181.442 20.1535L177.045 20.3824L177.728 20.0735C177.808 19.4241 176.493 19.0442 175.817 19.3199C176.71 19.8421 175.898 20.2453 175.513 20.7246C174.918 20.3728 176.027 20.151 175.711 19.7957C174.836 19.3352 173.897 19.2111 172.981 19.4348L173.427 19.6959C172.409 19.4536 171.981 20.5913 170.945 20.5359C170.045 20.0141 169.382 20.5079 169.561 19.3832C168.257 19.1558 169.065 20.1416 168.642 20.2511C168.206 20.0259 167.743 19.9441 167.283 20.0114C166.824 20.0788 166.38 20.2936 165.981 20.6412C165.261 19.0056 162.481 21.2389 162.214 19.864L161.154 20.6409C161.103 20.2569 160.963 19.9117 160.759 19.6648C160.555 19.418 160.299 19.2848 160.037 19.2884C159.225 19.6916 159.423 20.3374 159.175 20.7111L158.615 19.3406C153.925 20.8095 147.719 19.9077 142.585 21.2029C139.971 20.7176 137.339 20.4893 134.705 20.5196L135.002 20.69L132.342 21.1128L134.27 20.4438C133.748 20.2307 133.211 20.1046 132.67 20.0678C129.23 20.9819 125.726 21.2452 122.242 20.8512C119.888 19.3225 120.705 22.2872 118.464 21.1791C118.658 21.3221 118.729 21.548 118.901 21.6922C116.831 21.3559 114.778 20.8236 112.753 20.0985C113.054 21.6576 111.183 20.0928 111.415 20.9118L111.202 20.2777C110.669 20.6772 109.411 20.8521 109.597 21.3016L108.523 20.5374L108.443 21.1977C107.036 21.2709 104.033 20.8367 103.28 22.1882C98.8279 21.5384 94.3445 21.5228 89.8905 22.1416C88.9551 21.6865 87.9692 21.5075 86.9878 21.6147L85.936 22.4349C84.9189 22.2363 83.8186 21.2985 82.8846 21.8283C82.8897 21.8729 82.9032 21.9145 82.9234 21.9483C82.9437 21.9821 82.9699 22.0066 82.9991 22.0191C81.9978 22.186 80.9844 22.0681 80.0126 21.6716C78.8842 21.7303 77.8244 22.212 78.1491 22.9168C78.0163 21.6333 75.7567 23.1944 75.7567 23.1944L66.4645 23.9296C60.8042 24.3774 53.0995 24.9206 44.9568 25.246C31.0917 26.7244 17.1609 26.0274 3.3935 23.1667C2.89533 22.5693 1.56699 22.2338 2.04732 21.4433C1.02348 21.267 0.603141 22.4262 0.375815 21.8037C1.75014 21.2838 -0.102447 20.1774 1.2268 19.299L0.351554 19.2024C0.157886 18.7641 1.55031 19.643 1.31131 18.8353L1.58806 20.0019C2.08325 19.9252 2.54635 19.6004 2.90164 19.0806C3.57915 19.5046 4.04173 21.088 5.60017 20.2851L5.16633 20.2421C6.4559 20.175 5.93217 19.4258 6.19134 19.2155L5.90558 19.2304L6.97566 18.5623C6.16475 19.0201 4.765 18.1415 5.49898 18.158C7.02216 17.7288 5.11023 18.4735 6.24167 18.5458C6.97438 18.5077 6.74101 17.9403 6.69567 17.5708L7.97791 17.5041C7.9209 16.9493 7.12797 17.5483 7.63566 16.9861L9.26825 17.4697C9.52832 16.0455 11.0421 18.0335 11.7436 16.6629C10.5712 16.4068 11.8352 16.1879 11.6342 15.75L14.4844 15.6016C14.7509 15.3909 13.7417 15.2138 14.1609 15.2576C14.6866 14.8366 15.0552 15.5391 15.3407 15.5133C15.5735 15.1184 17.4655 15.4027 17.3629 14.4676C19.2822 13.7225 18.2109 15.5935 19.993 14.9431C20.2142 14.3629 18.5248 14.8992 19.3462 14.2659L21.219 14.3544C21.1088 14.083 20.9454 13.8685 20.7509 13.7398C20.5563 13.6112 20.34 13.5744 20.1311 13.6346C24.1319 11.7264 28.2647 10.4988 32.4506 9.97511C33.0868 9.264 31.9711 9.55172 31.4993 9.13886C34.8683 9.83833 36.1685 7.4086 39.0203 7.32576L39.0846 7.88012C43.4424 6.63326 47.8631 5.93855 52.2995 5.80343L51.7736 6.21354C52.5393 6.61107 53.3368 6.85635 54.1455 6.94304C54.2488 6.65334 53.583 5.79129 54.8926 5.95277C54.6261 6.16348 54.0814 6.3996 54.2488 6.65334C60.3032 5.26417 66.4065 4.39877 72.5281 4.06151C81.1136 4.16137 90.3962 2.70492 98.8284 2.83463C97.5443 2.82492 98.1264 4.18342 99.072 3.83894C101.686 1.45016 103.67 4.09167 106.375 2.43085C110.992 1.94182 115.627 2.00403 120.237 2.61691L120.317 1.95663C120.992 1.6481 121.186 2.0973 121.899 2.14768L121.894 1.962C123.582 1.6773 125.636 2.30305 126.604 1.96834L126.673 2.70838C127.679 2.75442 127.187 2.12389 128.224 2.52922L128.215 2.15787L129.427 2.82748C129.294 1.53309 132.262 2.67987 133.077 2.06883C134.979 2.4943 136.903 2.64678 138.824 2.52419C139.183 1.86033 141.603 1.83277 143.143 1.47924C146.146 1.60722 150.442 1.77729 154.265 1.49082L154.203 2.32509L155.202 2.37152C155.198 2.18584 155.32 2.09198 155.193 2.00017C155.963 1.04152 157.496 2.2849 158.297 1.68554C157.794 2.4444 157.566 1.81106 157.031 1.82798C156.211 2.23151 157 3.03246 158.106 2.61406L158.101 2.42838L158.845 2.87081C158.925 2.22145 159.608 1.91255 159.695 1.26281C162.655 1.81417 165.633 2.13005 168.616 2.20911C168.262 1.48395 171.056 2.3883 170.366 1.1229C172.402 1.5965 170.038 2.14604 170.968 3.03804C171.532 3.00867 172.135 3.36005 172.234 2.8956C171.963 2.59259 172.693 2.12811 172.213 2.01091L173.573 2.10419C173.702 2.00994 173.405 1.8286 173.249 1.74924C176.024 2.46867 178.159 0.903137 180.649 1.65929C180.836 2.11979 179.661 1.77631 179.848 2.24773C182.35 3.21102 182.03 1.4343 184.393 2.10956L183.909 1.47864C184.248 1.80893 184.633 2.02329 185.034 2.10637C185.436 2.18945 185.844 2.1392 186.231 1.95921C186.449 1.21523 185.175 1.34713 184.579 0.951678C185.429 0.907435 187.584 1.13427 186.932 1.80246C187.95 2.05564 188.323 1.39102 188.869 1.18766C188.873 1.37334 187.919 1.68543 188.514 2.02627C190.247 1.68982 191.995 1.54404 193.742 1.59011C193.738 1.40444 193.841 1.12567 193.729 1.03309C195.064 2.26493 194.915 0.599568 196.79 0.819049Z" fill="#19A675"/>
</g>
</svg>
