<svg width="315" height="21" viewBox="0 0 315 21" fill="none" xmlns="http://www.w3.org/2000/svg">
<g opacity="0.4">
<path d="M162.283 1.13004C166.422 1.35843 171.782 2.20896 175.881 2.04394C176.984 2.71152 178.175 3.05203 179.378 3.04365L179.517 2.04434L180.604 2.37859C181.051 2.07934 179.768 2.18354 180.553 1.80904L180.963 2.4369C181.051 2.07934 183.763 2.24225 181.939 1.48952L186.183 1.5698C187.121 1.52432 186.724 2.38473 187.762 2.19144C187.973 1.90362 187.393 1.9822 187.475 1.62493C190.585 0.95264 191.059 3.6467 193.957 3.25382L193.712 3.11433C194.203 3.39332 195.142 3.38145 195.152 3.52398C194.777 4.52633 194.635 2.96862 193.747 3.54164C193.816 4.37945 194.843 4.02682 194.787 4.66887C195.464 4.37526 195.865 4.86898 196.454 4.93294C197.465 4.42127 198.911 4.81383 199.671 4.17976C200.291 4.80782 201.013 5.21478 201.773 5.36486C202.539 4.7221 201.6 4.72557 202.636 4.48187L202.8 4.97863C203.647 4.93755 203.516 4.78409 203.486 4.55002C204.395 4.55642 204.237 5.24545 205.375 4.96316L204.756 4.4632C205.537 4.62724 206.329 4.67068 207.117 4.59272C207.11 4.30706 206.619 4.31402 206.275 4.38116C206.918 3.66865 207.363 4.73221 207.707 4.66508C207.609 4.8801 206.793 4.95332 207.187 5.44733C207.791 5.37598 208.417 6.1532 208.839 5.58597L208.22 5.09441C209.443 5.51462 208.842 5.7288 210.257 5.58453C210.183 5.54604 210.216 5.42666 210.189 5.31861C211.066 5.97428 212.222 5.43877 213.525 5.4345L213.279 5.29501C213.805 5.47982 214.089 5.9287 214.373 5.89811C213.628 6.16133 213.832 6.31128 213.759 6.76907C214.745 5.98103 215.25 7.75668 216.857 7.32547C216.85 7.03982 216.453 6.68893 216.006 6.97138C215.47 6.15616 215.403 5.40236 214.429 4.98692C215.04 5.20123 215.747 5.33523 215.604 4.98041L215.788 5.76224C216.158 5.79476 216.447 5.73026 216.727 5.76718C216.879 6.26453 215.977 6.55218 216.828 6.89787C217.787 7.17947 217.348 6.11562 217.496 6.47014C218.814 6.81844 218.032 7.28536 219.33 7.10466C219.201 7.0352 218.955 6.89571 218.848 6.9682C219.762 6.67996 221.089 7.17921 221.369 6.25716C221.237 6.04488 221.211 5.76011 220.868 5.82724L220.871 5.97007C219.877 5.25276 221.707 6.18192 221.4 5.33035C221.322 5.83044 222.623 5.76736 223.191 5.69778L223.006 6.26196C224.911 8.05385 222.916 5.12228 224.802 5.4178C226.025 5.84642 224.345 5.55772 225.077 5.9933C225.831 5.6998 226.619 5.60741 227.397 5.72101C227.731 5.50294 228.415 5.22585 228.478 4.58351C229.2 4.86815 230.684 4.3756 231.095 5.02026C229.846 5.50977 229.864 4.29759 228.406 5.08331L228.803 5.72015C229.795 5.87087 230.792 5.92651 231.789 5.88666C231.647 6.00293 231.584 6.16578 231.672 6.3045C232.717 6.77149 233.802 7.03868 234.898 7.09868C235.09 6.5342 234.279 6.59872 233.672 6.52724C234.576 6.10486 234.611 6.53217 236.008 6.41399C236.086 5.91389 235.068 6.40906 234.917 5.91171L236.455 6.13154C236.452 6.09817 236.451 6.06435 236.453 6.03072C236.668 6.86149 237.627 5.9738 238.568 6.28989C240.801 6.38356 241.126 7.5286 242.357 8.25967C242.691 8.05001 242.795 7.84309 242.656 7.6227C242.101 7.96925 242.202 7.6447 242.015 7.45187C242.77 7.57512 243.675 6.70687 243.26 6.34846C244.479 6.64265 242.822 6.77344 243.551 7.06619L245.193 7.0875C244.992 7.50945 244.412 7.57122 245.257 7.92561C245.919 8.03171 246.587 8.06405 247.253 8.02232C247.121 7.81004 247.558 7.38505 246.855 7.37708C247.094 7.27637 247.346 7.25113 247.593 7.30322C247.839 7.35531 248.074 7.4834 248.281 7.6781C247.253 8.02232 249.952 8.12701 249.18 8.75326L250.208 8.40903C249.972 8.42048 249.952 8.11861 249.596 8.18633C249.895 7.54935 250.432 8.40658 250.816 8.48892C251.177 8.37889 252.116 8.36703 252.194 8.11927C252.405 8.21557 252.628 8.24418 252.847 8.20294C253.067 8.1617 253.277 8.05168 253.461 7.88123C253.938 8.03478 253.472 8.30971 253.629 8.52081L255.265 8.54242C255.359 8.18456 255.51 7.19307 255.27 7.04488C255.885 7.41042 255.473 8.12018 256.412 8.12511C255.885 7.40201 257.661 7.64401 256.894 6.78112C257.837 6.36832 258.843 6.31954 259.805 6.64C260.316 7.22086 258.89 6.90304 258.929 7.47317C261.295 7.80433 261.401 9.3806 263.154 9.2031L262.703 9.33433C263.266 9.43675 263.806 9.71548 264.28 10.1495C263.996 9.43147 265.543 8.32179 267.325 8.57189C267.468 8.93511 266.317 9.19278 266.598 9.76798L267.778 9.93791C267.867 9.8915 267.737 9.76323 267.583 9.66135C268.639 9.97186 269.574 8.84981 269.862 9.69386L270.959 8.72381L270.527 9.1401C270.669 9.49492 271.855 9.66455 272.095 9.81274C272.473 10.0072 272.876 10.0865 273.278 10.0452C273.679 10.004 274.07 9.84318 274.422 9.57376C274.205 9.85346 273.663 10.4518 274.619 10.6493C274.633 9.50468 276.629 10.3416 276.613 9.71149C276.996 9.75182 277.691 9.44053 277.721 9.91014L277.673 9.19747C277.741 10.1952 279.148 10.2364 280.22 10.4788C280.004 9.11812 281.4 10.6571 281.904 9.46347C282.084 10.3884 283.806 9.94324 283.978 10.7341C284.804 10.8286 284.74 9.97367 284.958 9.69396L285.336 10.0625C286.292 9.72719 287.27 9.52483 288.254 9.45845L289.094 10.3178L289.425 9.97373C289.557 10.186 290.27 10.3533 289.817 10.6277L290.283 10.6051C290.305 11.4872 290.932 10.8848 291.852 11.3197C292.073 11.1912 292.019 10.9751 291.84 10.8408C292.301 10.8605 292.114 10.3986 292.373 10.1168C292.039 10.3265 294.01 11.804 292.745 12.1176C292.651 12.4755 293.367 12.7772 293.837 12.6535L294.133 11.8821L294.658 12.7567C295.371 12.9156 295.686 12.4377 296.266 12.3759C295.658 12.2877 295.013 10.7543 296.513 10.8835C295.958 10.7194 295.422 10.445 294.923 10.0689C295.238 10.0536 295.4 9.9869 294.912 9.6236C296.096 9.94476 295.301 10.1347 296.475 10.3133C296.427 9.60067 296.761 9.391 297.792 9.2148L297.017 9.68983C297.049 9.77579 297.1 9.84649 297.161 9.89312C296.866 9.94951 296.784 10.0628 296.718 10.3268C296.948 10.3157 298.063 11.2878 298.264 10.8659C297.078 11.9076 300.313 11.8349 299.517 12.4875C299.65 12.6998 300.47 12.7862 300.558 12.4371C299.586 11.8533 301.308 11.6605 301.132 11.1559C301.495 11.3738 300.356 11.6477 300.842 11.9354C301.32 11.9333 301.787 11.7382 302.186 11.374L301.946 11.2342L302.848 10.9465C302.996 11.3011 301.971 11.519 302.801 11.7311C303.021 11.5858 303.85 11.7896 303.825 11.5048C303.431 11.0108 303.724 10.3657 303.017 10.2317C303.625 10.3032 305.446 10.4 304.705 11.0584L305.401 11.0247C304.966 11.3233 303.737 11.8456 305.139 11.9542L305.136 11.8114L306.113 12.3445L306.534 11.9708C306.538 12.1472 306.682 12.3169 307.039 12.2996C307.13 12.0848 307.473 11.9925 307.436 11.7083C308.497 11.7242 308.33 12.0772 308.487 12.2799C309.003 12.3137 309.162 12.1546 308.909 11.7462C309.44 11.6364 310.362 11.6758 310.516 11.0459C311.266 11.0095 310.449 11.2847 311.024 11.4923C311.004 10.7026 311.399 10.2628 311.769 9.54673C312.194 8.84634 312.493 8.01596 312.641 7.1239C313.481 7.73092 312.769 6.68027 313.524 6.30723C313.408 6.53154 313.202 6.05364 313.014 5.80199C312.826 5.55034 312.667 5.48236 312.606 6.22551C312.619 5.91992 312.611 5.61339 312.583 5.30974C312.293 5.08828 312.285 5.47564 312.226 5.78972C312.167 6.10381 312.028 6.3545 311.68 6.02646C311.671 5.64839 311.836 5.24501 311.892 4.79649C311.952 4.56634 311.951 4.31398 311.89 4.08434C311.829 3.85471 311.711 3.66271 311.557 3.54252C311.255 4.28061 311.302 2.80622 310.952 3.57186C310.888 3.91145 311.066 4.00376 311.139 4.24418L310.975 4.2521C310.532 3.75203 310.553 3.59963 310.703 3.31475C310.854 3.02987 311.132 2.78083 310.914 2.28671C310.117 1.69444 309.978 2.43301 309.834 2.72599C309.485 2.68392 309.158 2.47356 308.91 2.13148C309.413 2.84735 310.264 2.24249 310.11 1.66953C309.349 2.23638 308.445 0.993186 308.16 0.510694C310.036 0.419743 309.335 0.941655 311.198 0.84289C311.281 1.24265 310.941 1.69655 311.783 2.16885C311.529 1.44095 312.048 1.85319 312.25 1.92752C311.854 2.08971 312.62 2.65825 312.638 3.12844C313.047 3.26842 312.968 1.80019 313.7 2.96759L313.382 3.3447L313.046 3.70589C313.317 4.12175 313.535 3.15224 313.705 4.35532C313.897 3.5553 314.46 4.25143 313.95 2.54329C314.248 2.81776 314.48 3.20794 314.619 3.66504C314.758 4.12213 314.796 4.62585 314.73 5.11317C314.567 5.91388 314.358 6.69487 314.104 7.44836C314.16 7.2942 314.269 7.28892 314.332 7.13446C314.153 7.55696 314.025 8.01799 313.954 8.49867C313.983 9.61608 314.44 7.80219 314.63 8.11265L314.501 9.01895L314.286 9.87055C314.287 9.92096 314.288 9.93777 314.33 9.94411C314.104 10.342 313.863 10.6481 314.004 10.9609C314.352 10.7977 314.686 10.5812 315 10.3154C314.668 10.8885 314.271 11.3823 313.825 11.7772C314.165 11.8111 313.431 13.4786 314.218 12.4563L313.997 12.8371C313.851 13.0545 313.633 13.2922 313.409 13.547C313.118 13.854 312.809 14.1251 312.484 14.3573L312.605 15.0749C312.046 15.245 312.001 15.1462 312.548 14.7243C311.947 15.0872 311.288 15.2236 310.637 15.1198C309.945 15.1112 309.423 15.0608 309.708 15.7705C307.932 15.2845 307.459 15.5178 305.516 15.1325C306.993 15.7927 303.828 15.9629 305.393 16.274C304.474 16.5794 304.285 15.8062 303.56 15.6731C302.883 15.9667 303.18 16.6757 303.914 16.9514L303.051 16.6063L303.054 16.7491L302.31 16.3225C301.513 16.6808 302.134 17.0377 301.318 17.1025L301.15 16.4629L300.589 16.8097C300.8 16.5303 300.318 16.377 299.728 16.3047L299.732 16.4475L299.013 16.2889C299.72 16.7088 298.355 16.3965 298.67 16.8607C298.087 16.8608 297.506 16.7961 296.932 16.6674L297.133 16.2454C295.691 15.7854 297.058 16.8883 295.882 16.8528L295.966 16.3609C294.258 17.0914 293.113 15.658 291.859 16.1646C292.566 16.3238 292.374 16.8883 292.364 16.7458C291.038 16.6512 289.724 16.3509 288.445 15.8506C288.027 16.5523 287.922 16.7172 286.772 17.0084C285.945 16.9139 285.822 16.8358 285.544 16.4034C284.738 16.636 283.241 16.1197 283.187 16.6438C283.007 16.2152 282.461 16.6791 282.027 16.3047L281.929 16.5113L282.014 16.0194C280.567 17.0484 279.625 15.2351 278.162 16.1219L278.409 16.2698L277.797 16.0387C277.699 16.2537 277.939 16.4019 277.965 16.6867L275.151 16.6044L275.712 16.266C275.104 16.1777 274.733 15.6741 274.049 15.9428C275.16 16.7301 273.116 15.9208 272.924 16.4852L273.535 16.7163C272.715 16.6299 272.715 16.6299 272.788 16.1301C271.721 15.8958 272.034 17.0078 271.062 16.4493L271.766 16.4657C271.977 16.1862 271.481 15.7476 271.014 15.7366C270.901 15.8094 270.567 16.0107 270.92 16.0945C270.084 15.8574 268.81 16.0453 268.447 15.8274C267.99 15.9589 268.132 16.3221 268.372 16.4703C266.583 15.9346 267.555 16.5099 265.761 15.9913L265.768 16.2769L265.152 15.903L264.257 16.4595L264.582 16.1073C264.04 15.9372 263.483 15.8764 262.929 15.9266L263.2 16.3593C261.538 16.0361 261.258 16.9582 259.684 16.2858C259.577 16.3583 259.817 16.5065 259.946 16.576C258.484 15.8056 258.824 17.2612 257.359 16.3817C257.448 16.5288 257.282 16.6967 257.34 16.82L256.672 16.5076L256.686 17.0789L256.149 16.2132L255.727 16.7805L255.472 16.4984C254.734 17.552 253.731 16.6922 252.739 17.4721L252.921 16.7651C250.458 15.2021 247.239 17.3349 244.255 16.5122L244.3 17.082L243.069 16.3594C242.401 16.7787 243.458 16.8621 243.247 17.1415C241.928 16.768 242.71 16.2759 241.171 16.0476C240.38 16.3972 241.436 16.4806 241.793 16.6988C240.287 16.2491 238.744 16.089 237.206 16.223C237.204 16.1474 237.123 16.042 237.201 16.013C236.109 15.8505 235.01 15.797 233.912 15.8527C233.919 16.1132 234.199 16.1669 234.461 16.2299C234.057 16.3444 233.638 16.3096 233.247 16.1289L233.641 16.6313C232.824 16.671 231.267 16.1913 231.081 16.7555C231.178 16.5404 231.143 16.1131 230.459 16.1127C230.062 16.9731 228.551 15.6752 227.428 16.0997C227.561 16.312 228.387 16.3897 228.151 16.3928C227.603 16.4763 227.052 16.2983 226.587 15.8882L226.735 16.2427L224.115 15.6631C223.718 16.5235 221.637 15.4383 221.81 16.0776C220.871 16.0727 222.601 15.7281 221.416 15.5836C221.098 15.9355 220.344 15.3664 220.389 15.9363L220.512 16.006L219.686 15.9367L220.203 16.5088C219.491 16.3667 218.973 15.7946 218.963 15.3745C218.285 15.6681 217.326 15.3781 217.012 15.8812L217.264 16.0204C215.366 15.7423 214.107 17.4605 212.621 16.4642C212.508 16.537 212.523 16.6792 212.754 16.6765L211.578 16.6746L211.855 17.0986L209.923 16.3931L209.93 16.6788C208.647 16.741 206.642 16.5521 204.996 16.4132L205.242 16.5527C203.448 16.0592 203.503 16.7716 202.209 16.4221C202.243 16.4846 202.291 16.5297 202.346 16.5501L201.133 16.508L201.394 16.7897C200.524 16.1589 198.88 17.5341 199.425 17.0282C198.927 16.7495 198.076 16.4038 197.933 16.049C196.641 15.9854 197.615 16.4093 196.815 16.6331C195.883 16.6783 195.718 16.148 194.451 16.3776L194.458 16.6633C193.851 16.6002 193.5 16.3901 192.674 16.3291L192.92 16.4686C191.577 15.844 191.238 17.2652 190.188 16.0038C189.624 16.2247 188.552 16.0159 188.603 16.5938C186.926 16.1872 185.624 15.9895 183.957 15.7255C183.69 16.6553 183.598 15.6587 182.587 16.1788L182.665 15.6787C180.311 15.5741 177.602 16.7653 175.009 16.5377L174.937 17.0375L174.42 16.4822C171.625 16.6849 168.01 16.7929 165.78 16.8C164.822 16.3008 163.804 16.0645 162.781 16.1042L162.904 16.174C160.796 15.8003 158.667 15.7176 156.547 15.9269C156.686 16.1389 156.465 16.2842 156.711 16.4237C156.188 15.8686 155.42 16.3854 154.947 16.3999L155.501 16.0281C155.199 15.8613 154.872 15.8051 154.549 15.8649C154.227 15.9247 153.922 16.0985 153.662 16.3696L152.666 15.829C152.601 15.8827 152.5 15.9549 152.49 16.0395L152.399 15.7831L151.876 16.4394C151.63 16.2999 150.317 16.128 149.907 15.4918C149.809 15.7068 148.886 15.8777 149.604 16.0027L145.973 16.1787L146.537 15.9411C146.603 15.4416 145.517 15.1494 144.959 15.3615C145.696 15.7632 145.025 16.0733 144.707 16.442C144.215 16.1714 145.132 16.0008 144.871 15.7275C144.148 15.3732 143.372 15.2778 142.616 15.4498L142.984 15.6507C142.143 15.4643 141.79 16.3395 140.934 16.2968C140.191 15.8954 139.643 16.2753 139.791 15.4101C138.714 15.2352 139.381 15.9936 139.032 16.0778C138.672 15.9045 138.288 15.8416 137.909 15.8934C137.53 15.9452 137.163 16.1105 136.834 16.3778C136.238 15.1197 133.942 16.8376 133.722 15.78L132.846 16.3776C132.804 16.0822 132.688 15.8167 132.52 15.6268C132.351 15.4369 132.14 15.3345 131.923 15.3373C131.252 15.6474 131.416 16.1441 131.211 16.4316L130.748 15.3774C126.874 16.5073 121.748 15.8136 117.507 16.8099C115.348 16.4366 113.174 16.261 110.998 16.2843L111.243 16.4154L109.046 16.7406L110.639 16.226C110.207 16.0621 109.764 15.9651 109.317 15.9368C106.475 16.64 103.581 16.8424 100.702 16.5394C98.7579 15.3635 99.4333 17.644 97.5818 16.7916C97.7421 16.9016 97.801 17.0754 97.9432 17.1863C96.2333 16.9276 94.5369 16.5182 92.8645 15.9604C93.1128 17.1597 91.5675 15.956 91.7591 16.586L91.5832 16.0982C91.1425 16.4056 90.1036 16.5401 90.2578 16.8859L89.3703 16.298L89.3043 16.8059C88.1422 16.8622 85.6614 16.5283 85.0391 17.5678C81.3616 17.068 77.6581 17.056 73.9789 17.532C73.2062 17.1819 72.3917 17.0443 71.5811 17.1267L70.7122 17.7576C69.8721 17.6049 68.9632 16.8835 68.1917 17.291C68.1959 17.3253 68.207 17.3573 68.2237 17.3833C68.2405 17.4093 68.2621 17.4282 68.2863 17.4378C67.4591 17.5662 66.622 17.4754 65.8192 17.1704C64.8871 17.2156 64.0117 17.5861 64.2799 18.1283C64.1702 17.141 62.3036 18.3419 62.3036 18.3419L54.6278 18.9074C49.9522 19.2518 43.5877 19.6697 36.8614 19.92C25.4082 21.0572 13.9006 20.5211 2.52814 18.3205C2.11663 17.861 1.01935 17.6029 1.41613 16.9949C0.570391 16.8592 0.223168 17.7509 0.0353857 17.2721C1.17065 16.8722 -0.359681 16.0211 0.738344 15.3454L0.0153449 15.2711C-0.144634 14.9339 1.00558 15.61 0.808149 14.9887L1.03676 15.8861C1.44581 15.8271 1.82835 15.5773 2.12184 15.1774C2.68149 15.5035 3.06361 16.7215 4.35096 16.104L3.99259 16.0709C5.05783 16.0192 4.6252 15.443 4.83929 15.2812L4.60324 15.2926L5.48718 14.7787C4.81733 15.1308 3.66106 14.455 4.26737 14.4677C5.52559 14.1375 3.94624 14.7104 4.88087 14.766C5.48612 14.7367 5.29334 14.3002 5.2559 14.016L6.31509 13.9647C6.26799 13.5379 5.61299 13.9987 6.03237 13.5662L7.38097 13.9382C7.5958 12.8427 8.84626 14.3719 9.42572 13.3176C8.45724 13.1206 9.50137 12.9522 9.33534 12.6154L11.6898 12.5012C11.9099 12.3392 11.0763 12.2029 11.4225 12.2366C11.8568 11.9127 12.1612 12.4532 12.3971 12.4333C12.5894 12.1296 14.1523 12.3482 14.0676 11.6289C15.653 11.0558 14.7681 12.495 16.2401 11.9947C16.4228 11.5484 15.0273 11.9609 15.7059 11.4738L17.2529 11.5418C17.1618 11.3331 17.0268 11.1681 16.8662 11.0691C16.7055 10.9701 16.5268 10.9419 16.3542 10.9881C19.6591 9.52033 23.0729 8.57601 26.5307 8.17316C27.0563 7.62615 26.1347 7.84748 25.7449 7.5299C28.5278 8.06794 29.6019 6.19892 31.9576 6.1352L32.0107 6.56163C35.6104 5.60251 39.2622 5.06811 42.9269 4.96418L42.4924 5.27965C43.1249 5.58544 43.7837 5.77411 44.4518 5.8408C44.5371 5.61795 43.9871 4.95484 45.0689 5.07905C44.8488 5.24114 44.3988 5.42277 44.5371 5.61795C49.5383 4.54936 54.58 3.88367 59.6367 3.62424C66.7287 3.70105 74.3966 2.5807 81.362 2.68048C80.3013 2.67301 80.7821 3.71801 81.5632 3.45303C83.7228 1.61551 85.3616 3.64744 87.5959 2.36989C91.4094 1.9937 95.2386 2.04156 99.0466 2.51301L99.1126 2.0051C99.6702 1.76777 99.8304 2.1133 100.419 2.15206L100.416 2.00923C101.81 1.79023 103.507 2.27157 104.306 2.01411L104.363 2.58337C105.194 2.61879 104.788 2.13376 105.644 2.44555L105.637 2.1599L106.638 2.67498C106.528 1.6793 108.98 2.56144 109.653 2.0914C111.224 2.41869 112.814 2.53599 114.401 2.44168C114.697 1.93103 116.696 1.90982 117.968 1.63788C120.449 1.73632 123.997 1.86715 127.155 1.64678L127.104 2.28853L127.929 2.32425C127.926 2.18142 128.027 2.10922 127.922 2.03859C128.558 1.30117 129.825 2.25762 130.486 1.79657C130.07 2.38031 129.882 1.89312 129.44 1.90614C128.763 2.21655 129.415 2.83266 130.328 2.51081L130.324 2.36799L130.939 2.70832C131.005 2.20881 131.569 1.97119 131.641 1.47139C134.086 1.89552 136.546 2.1385 139.01 2.19931C138.717 1.6415 141.025 2.33715 140.455 1.36377C142.137 1.72808 140.184 2.1508 140.953 2.83695C141.419 2.81436 141.917 3.08465 141.999 2.72739C141.775 2.4943 142.378 2.13701 141.982 2.04686L143.104 2.1186C143.212 2.04611 142.966 1.90662 142.837 1.84557C145.129 2.39898 146.893 1.19472 148.95 1.77638C149.104 2.13061 148.134 1.86639 148.288 2.22902C150.355 2.97002 150.091 1.6033 152.043 2.12274L151.643 1.63742C151.923 1.89148 152.24 2.05637 152.572 2.12028C152.904 2.18419 153.241 2.14554 153.561 2.00709C153.741 1.43479 152.689 1.53625 152.196 1.23206C152.898 1.19803 154.678 1.37251 154.14 1.8865C154.981 2.08126 155.289 1.57002 155.74 1.41359C155.743 1.55641 154.956 1.79649 155.447 2.05867C156.878 1.79986 158.322 1.68772 159.765 1.72317C159.762 1.58034 159.847 1.3659 159.754 1.29468C160.857 2.24225 160.734 0.961206 162.283 1.13004Z" fill="#519BCC"/>
<path d="M162.283 1.13004C166.422 1.35843 171.782 2.20896 175.881 2.04394C176.984 2.71152 178.175 3.05203 179.378 3.04365L179.517 2.04434L180.604 2.37859C181.051 2.07934 179.768 2.18354 180.553 1.80904L180.963 2.4369C181.051 2.07934 183.763 2.24225 181.939 1.48952L186.183 1.5698C187.121 1.52432 186.724 2.38473 187.762 2.19144C187.973 1.90362 187.393 1.9822 187.475 1.62493C190.585 0.95264 191.059 3.6467 193.957 3.25382L193.712 3.11433C194.203 3.39332 195.142 3.38145 195.152 3.52398C194.777 4.52633 194.635 2.96862 193.747 3.54164C193.816 4.37945 194.843 4.02682 194.787 4.66887C195.464 4.37526 195.865 4.86898 196.454 4.93294C197.465 4.42127 198.911 4.81383 199.671 4.17976C200.291 4.80782 201.013 5.21478 201.773 5.36486C202.539 4.7221 201.6 4.72557 202.636 4.48187L202.8 4.97863C203.647 4.93755 203.516 4.78409 203.486 4.55002C204.395 4.55642 204.237 5.24545 205.375 4.96316L204.756 4.4632C205.537 4.62724 206.329 4.67068 207.117 4.59272C207.11 4.30706 206.619 4.31402 206.275 4.38116C206.918 3.66865 207.363 4.73221 207.707 4.66508C207.609 4.8801 206.793 4.95332 207.187 5.44733C207.791 5.37598 208.417 6.1532 208.839 5.58597L208.22 5.09441C209.443 5.51462 208.842 5.7288 210.257 5.58453C210.183 5.54604 210.216 5.42666 210.189 5.31861C211.066 5.97428 212.222 5.43877 213.525 5.4345L213.279 5.29501C213.805 5.47982 214.089 5.9287 214.373 5.89811C213.628 6.16133 213.832 6.31128 213.759 6.76907C214.745 5.98103 215.25 7.75668 216.857 7.32547C216.85 7.03982 216.453 6.68893 216.006 6.97138C215.47 6.15616 215.403 5.40236 214.429 4.98692C215.04 5.20123 215.747 5.33523 215.604 4.98041L215.788 5.76224C216.158 5.79476 216.447 5.73026 216.727 5.76718C216.879 6.26453 215.977 6.55218 216.828 6.89787C217.787 7.17947 217.348 6.11562 217.496 6.47014C218.814 6.81844 218.032 7.28536 219.33 7.10466C219.201 7.0352 218.955 6.89571 218.848 6.9682C219.762 6.67996 221.089 7.17921 221.369 6.25716C221.237 6.04488 221.211 5.76011 220.868 5.82724L220.871 5.97007C219.877 5.25276 221.707 6.18192 221.4 5.33035C221.322 5.83044 222.623 5.76736 223.191 5.69778L223.006 6.26196C224.911 8.05385 222.916 5.12228 224.802 5.4178C226.025 5.84642 224.345 5.55772 225.077 5.9933C225.831 5.6998 226.619 5.60741 227.397 5.72101C227.731 5.50294 228.415 5.22585 228.478 4.58351C229.2 4.86815 230.684 4.3756 231.095 5.02026C229.846 5.50977 229.864 4.29759 228.406 5.08331L228.803 5.72015C229.795 5.87087 230.792 5.92651 231.789 5.88666C231.647 6.00293 231.584 6.16578 231.672 6.3045C232.717 6.77149 233.802 7.03868 234.898 7.09868C235.09 6.5342 234.279 6.59872 233.672 6.52724C234.576 6.10486 234.611 6.53217 236.008 6.41399C236.086 5.91389 235.068 6.40906 234.917 5.91171L236.455 6.13154C236.452 6.09817 236.451 6.06435 236.453 6.03072C236.668 6.86149 237.627 5.9738 238.568 6.28989C240.801 6.38356 241.126 7.5286 242.357 8.25967C242.691 8.05001 242.795 7.84309 242.656 7.6227C242.101 7.96925 242.202 7.6447 242.015 7.45187C242.77 7.57512 243.675 6.70687 243.26 6.34846C244.479 6.64265 242.822 6.77344 243.551 7.06619L245.193 7.0875C244.992 7.50945 244.412 7.57122 245.257 7.92561C245.919 8.03171 246.587 8.06405 247.253 8.02232C247.121 7.81004 247.558 7.38505 246.855 7.37708C247.094 7.27637 247.346 7.25113 247.593 7.30322C247.839 7.35531 248.074 7.4834 248.281 7.6781C247.253 8.02232 249.952 8.12701 249.18 8.75326L250.208 8.40903C249.972 8.42048 249.952 8.11861 249.596 8.18633C249.895 7.54935 250.432 8.40658 250.816 8.48892C251.177 8.37889 252.116 8.36703 252.194 8.11927C252.405 8.21557 252.628 8.24418 252.847 8.20294C253.067 8.1617 253.277 8.05168 253.461 7.88123C253.938 8.03478 253.472 8.30971 253.629 8.52081L255.265 8.54242C255.359 8.18456 255.51 7.19307 255.27 7.04488C255.885 7.41042 255.473 8.12018 256.412 8.12511C255.885 7.40201 257.661 7.64401 256.894 6.78112C257.837 6.36832 258.843 6.31954 259.805 6.64C260.316 7.22086 258.89 6.90304 258.929 7.47317C261.295 7.80433 261.401 9.3806 263.154 9.2031L262.703 9.33433C263.266 9.43675 263.806 9.71548 264.28 10.1495C263.996 9.43147 265.543 8.32179 267.325 8.57189C267.468 8.93511 266.317 9.19278 266.598 9.76798L267.778 9.93791C267.867 9.8915 267.737 9.76323 267.583 9.66135C268.639 9.97186 269.574 8.84981 269.862 9.69386L270.959 8.72381L270.527 9.1401C270.669 9.49492 271.855 9.66455 272.095 9.81274C272.473 10.0072 272.876 10.0865 273.278 10.0452C273.679 10.004 274.07 9.84318 274.422 9.57376C274.205 9.85346 273.663 10.4518 274.619 10.6493C274.633 9.50468 276.629 10.3416 276.613 9.71149C276.996 9.75182 277.691 9.44053 277.721 9.91014L277.673 9.19747C277.741 10.1952 279.148 10.2364 280.22 10.4788C280.004 9.11812 281.4 10.6571 281.904 9.46347C282.084 10.3884 283.806 9.94324 283.978 10.7341C284.804 10.8286 284.74 9.97367 284.958 9.69396L285.336 10.0625C286.292 9.72719 287.27 9.52483 288.254 9.45845L289.094 10.3178L289.425 9.97373C289.557 10.186 290.27 10.3533 289.817 10.6277L290.283 10.6051C290.305 11.4872 290.932 10.8848 291.852 11.3197C292.073 11.1912 292.019 10.9751 291.84 10.8408C292.301 10.8605 292.114 10.3986 292.373 10.1168C292.039 10.3265 294.01 11.804 292.745 12.1176C292.651 12.4755 293.367 12.7772 293.837 12.6535L294.133 11.8821L294.658 12.7567C295.371 12.9156 295.686 12.4377 296.266 12.3759C295.658 12.2877 295.013 10.7543 296.513 10.8835C295.958 10.7194 295.422 10.445 294.923 10.0689C295.238 10.0536 295.4 9.9869 294.912 9.6236C296.096 9.94476 295.301 10.1347 296.475 10.3133C296.427 9.60067 296.761 9.391 297.792 9.2148L297.017 9.68983C297.049 9.77579 297.1 9.84649 297.161 9.89312C296.866 9.94951 296.784 10.0628 296.718 10.3268C296.948 10.3157 298.063 11.2878 298.264 10.8659C297.078 11.9076 300.313 11.8349 299.517 12.4875C299.65 12.6998 300.47 12.7862 300.558 12.4371C299.586 11.8533 301.308 11.6605 301.132 11.1559C301.495 11.3738 300.356 11.6477 300.842 11.9354C301.32 11.9333 301.787 11.7382 302.186 11.374L301.946 11.2342L302.848 10.9465C302.996 11.3011 301.971 11.519 302.801 11.7311C303.021 11.5858 303.85 11.7896 303.825 11.5048C303.431 11.0108 303.724 10.3657 303.017 10.2317C303.625 10.3032 305.446 10.4 304.705 11.0584L305.401 11.0247C304.966 11.3233 303.737 11.8456 305.139 11.9542L305.136 11.8114L306.113 12.3445L306.534 11.9708C306.538 12.1472 306.682 12.3169 307.039 12.2996C307.13 12.0848 307.473 11.9925 307.436 11.7083C308.497 11.7242 308.33 12.0772 308.487 12.2799C309.003 12.3137 309.162 12.1546 308.909 11.7462C309.44 11.6364 310.362 11.6758 310.516 11.0459C311.266 11.0095 310.449 11.2847 311.024 11.4923C311.004 10.7026 311.399 10.2628 311.769 9.54673C312.194 8.84634 312.493 8.01596 312.641 7.1239C313.481 7.73092 312.769 6.68027 313.524 6.30723C313.408 6.53154 313.202 6.05364 313.014 5.80199C312.826 5.55034 312.667 5.48236 312.606 6.22551C312.619 5.91992 312.611 5.61339 312.583 5.30974C312.293 5.08828 312.285 5.47564 312.226 5.78972C312.167 6.10381 312.028 6.3545 311.68 6.02646C311.671 5.64839 311.836 5.24501 311.892 4.79649C311.952 4.56634 311.951 4.31398 311.89 4.08434C311.829 3.85471 311.711 3.66271 311.557 3.54252C311.255 4.28061 311.302 2.80622 310.952 3.57186C310.888 3.91145 311.066 4.00376 311.139 4.24418L310.975 4.2521C310.532 3.75203 310.553 3.59963 310.703 3.31475C310.854 3.02987 311.132 2.78083 310.914 2.28671C310.117 1.69444 309.978 2.43301 309.834 2.72599C309.485 2.68392 309.158 2.47356 308.91 2.13148C309.413 2.84735 310.264 2.24249 310.11 1.66953C309.349 2.23638 308.445 0.993186 308.16 0.510694C310.036 0.419743 309.335 0.941655 311.198 0.84289C311.281 1.24265 310.941 1.69655 311.783 2.16885C311.529 1.44095 312.048 1.85319 312.25 1.92752C311.854 2.08971 312.62 2.65825 312.638 3.12844C313.047 3.26842 312.968 1.80019 313.7 2.96759L313.382 3.3447L313.046 3.70589C313.317 4.12175 313.535 3.15224 313.705 4.35532C313.897 3.5553 314.46 4.25143 313.95 2.54329C314.248 2.81776 314.48 3.20794 314.619 3.66504C314.758 4.12213 314.796 4.62585 314.73 5.11317C314.567 5.91388 314.358 6.69487 314.104 7.44836C314.16 7.2942 314.269 7.28892 314.332 7.13446C314.153 7.55696 314.025 8.01799 313.954 8.49867C313.983 9.61608 314.44 7.80219 314.63 8.11265L314.501 9.01895L314.286 9.87055C314.287 9.92096 314.288 9.93777 314.33 9.94411C314.104 10.342 313.863 10.6481 314.004 10.9609C314.352 10.7977 314.686 10.5812 315 10.3154C314.668 10.8885 314.271 11.3823 313.825 11.7772C314.165 11.8111 313.431 13.4786 314.218 12.4563L313.997 12.8371C313.851 13.0545 313.633 13.2922 313.409 13.547C313.118 13.854 312.809 14.1251 312.484 14.3573L312.605 15.0749C312.046 15.245 312.001 15.1462 312.548 14.7243C311.947 15.0872 311.288 15.2236 310.637 15.1198C309.945 15.1112 309.423 15.0608 309.708 15.7705C307.932 15.2845 307.459 15.5178 305.516 15.1325C306.993 15.7927 303.828 15.9629 305.393 16.274C304.474 16.5794 304.285 15.8062 303.56 15.6731C302.883 15.9667 303.18 16.6757 303.914 16.9514L303.051 16.6063L303.054 16.7491L302.31 16.3225C301.513 16.6808 302.134 17.0377 301.318 17.1025L301.15 16.4629L300.589 16.8097C300.8 16.5303 300.318 16.377 299.728 16.3047L299.732 16.4475L299.013 16.2889C299.72 16.7088 298.355 16.3965 298.67 16.8607C298.087 16.8608 297.506 16.7961 296.932 16.6674L297.133 16.2454C295.691 15.7854 297.058 16.8883 295.882 16.8528L295.966 16.3609C294.258 17.0914 293.113 15.658 291.859 16.1646C292.566 16.3238 292.374 16.8883 292.364 16.7458C291.038 16.6512 289.724 16.3509 288.445 15.8506C288.027 16.5523 287.922 16.7172 286.772 17.0084C285.945 16.9139 285.822 16.8358 285.544 16.4034C284.738 16.636 283.241 16.1197 283.187 16.6438C283.007 16.2152 282.461 16.6791 282.027 16.3047L281.929 16.5113L282.014 16.0194C280.567 17.0484 279.625 15.2351 278.162 16.1219L278.409 16.2698L277.797 16.0387C277.699 16.2537 277.939 16.4019 277.965 16.6867L275.151 16.6044L275.712 16.266C275.104 16.1777 274.733 15.6741 274.049 15.9428C275.16 16.7301 273.116 15.9208 272.924 16.4852L273.535 16.7163C272.715 16.6299 272.715 16.6299 272.788 16.1301C271.721 15.8958 272.034 17.0078 271.062 16.4493L271.766 16.4657C271.977 16.1862 271.481 15.7476 271.014 15.7366C270.901 15.8094 270.567 16.0107 270.92 16.0945C270.084 15.8574 268.81 16.0453 268.447 15.8274C267.99 15.9589 268.132 16.3221 268.372 16.4703C266.583 15.9346 267.555 16.5099 265.761 15.9913L265.768 16.2769L265.152 15.903L264.257 16.4595L264.582 16.1073C264.04 15.9372 263.483 15.8764 262.929 15.9266L263.2 16.3593C261.538 16.0361 261.258 16.9582 259.684 16.2858C259.577 16.3583 259.817 16.5065 259.946 16.576C258.484 15.8056 258.824 17.2612 257.359 16.3817C257.448 16.5288 257.282 16.6967 257.34 16.82L256.672 16.5076L256.686 17.0789L256.149 16.2132L255.727 16.7805L255.472 16.4984C254.734 17.552 253.731 16.6922 252.739 17.4721L252.921 16.7651C250.458 15.2021 247.239 17.3349 244.255 16.5122L244.3 17.082L243.069 16.3594C242.401 16.7787 243.458 16.8621 243.247 17.1415C241.928 16.768 242.71 16.2759 241.171 16.0476C240.38 16.3972 241.436 16.4806 241.793 16.6988C240.287 16.2491 238.744 16.089 237.206 16.223C237.204 16.1474 237.123 16.042 237.201 16.013C236.109 15.8505 235.01 15.797 233.912 15.8527C233.919 16.1132 234.199 16.1669 234.461 16.2299C234.057 16.3444 233.638 16.3096 233.247 16.1289L233.641 16.6313C232.824 16.671 231.267 16.1913 231.081 16.7555C231.178 16.5404 231.143 16.1131 230.459 16.1127C230.062 16.9731 228.551 15.6752 227.428 16.0997C227.561 16.312 228.387 16.3897 228.151 16.3928C227.603 16.4763 227.052 16.2983 226.587 15.8882L226.735 16.2427L224.115 15.6631C223.718 16.5235 221.637 15.4383 221.81 16.0776C220.871 16.0727 222.601 15.7281 221.416 15.5836C221.098 15.9355 220.344 15.3664 220.389 15.9363L220.512 16.006L219.686 15.9367L220.203 16.5088C219.491 16.3667 218.973 15.7946 218.963 15.3745C218.285 15.6681 217.326 15.3781 217.012 15.8812L217.264 16.0204C215.366 15.7423 214.107 17.4605 212.621 16.4642C212.508 16.537 212.523 16.6792 212.754 16.6765L211.578 16.6746L211.855 17.0986L209.923 16.3931L209.93 16.6788C208.647 16.741 206.642 16.5521 204.996 16.4132L205.242 16.5527C203.448 16.0592 203.503 16.7716 202.209 16.4221C202.243 16.4846 202.291 16.5297 202.346 16.5501L201.133 16.508L201.394 16.7897C200.524 16.1589 198.88 17.5341 199.425 17.0282C198.927 16.7495 198.076 16.4038 197.933 16.049C196.641 15.9854 197.615 16.4093 196.815 16.6331C195.883 16.6783 195.718 16.148 194.451 16.3776L194.458 16.6633C193.851 16.6002 193.5 16.3901 192.674 16.3291L192.92 16.4686C191.577 15.844 191.238 17.2652 190.188 16.0038C189.624 16.2247 188.552 16.0159 188.603 16.5938C186.926 16.1872 185.624 15.9895 183.957 15.7255C183.69 16.6553 183.598 15.6587 182.587 16.1788L182.665 15.6787C180.311 15.5741 177.602 16.7653 175.009 16.5377L174.937 17.0375L174.42 16.4822C171.625 16.6849 168.01 16.7929 165.78 16.8C164.822 16.3008 163.804 16.0645 162.781 16.1042L162.904 16.174C160.796 15.8003 158.667 15.7176 156.547 15.9269C156.686 16.1389 156.465 16.2842 156.711 16.4237C156.188 15.8686 155.42 16.3854 154.947 16.3999L155.501 16.0281C155.199 15.8613 154.872 15.8051 154.549 15.8649C154.227 15.9247 153.922 16.0985 153.662 16.3696L152.666 15.829C152.601 15.8827 152.5 15.9549 152.49 16.0395L152.399 15.7831L151.876 16.4394C151.63 16.2999 150.317 16.128 149.907 15.4918C149.809 15.7068 148.886 15.8777 149.604 16.0027L145.973 16.1787L146.537 15.9411C146.603 15.4416 145.517 15.1494 144.959 15.3615C145.696 15.7632 145.025 16.0733 144.707 16.442C144.215 16.1714 145.132 16.0008 144.871 15.7275C144.148 15.3732 143.372 15.2778 142.616 15.4498L142.984 15.6507C142.143 15.4643 141.79 16.3395 140.934 16.2968C140.191 15.8954 139.643 16.2753 139.791 15.4101C138.714 15.2352 139.381 15.9936 139.032 16.0778C138.672 15.9045 138.288 15.8416 137.909 15.8934C137.53 15.9452 137.163 16.1105 136.834 16.3778C136.238 15.1197 133.942 16.8376 133.722 15.78L132.846 16.3776C132.804 16.0822 132.688 15.8167 132.52 15.6268C132.351 15.4369 132.14 15.3345 131.923 15.3373C131.252 15.6474 131.416 16.1441 131.211 16.4316L130.748 15.3774C126.874 16.5073 121.748 15.8136 117.507 16.8099C115.348 16.4366 113.174 16.261 110.998 16.2843L111.243 16.4154L109.046 16.7406L110.639 16.226C110.207 16.0621 109.764 15.9651 109.317 15.9368C106.475 16.64 103.581 16.8424 100.702 16.5394C98.7579 15.3635 99.4333 17.644 97.5818 16.7916C97.7421 16.9016 97.801 17.0754 97.9432 17.1863C96.2333 16.9276 94.5369 16.5182 92.8645 15.9604C93.1128 17.1597 91.5675 15.956 91.7591 16.586L91.5832 16.0982C91.1425 16.4056 90.1036 16.5401 90.2578 16.8859L89.3703 16.298L89.3043 16.8059C88.1422 16.8622 85.6614 16.5283 85.0391 17.5678C81.3616 17.068 77.6581 17.056 73.9789 17.532C73.2062 17.1819 72.3917 17.0443 71.5811 17.1267L70.7122 17.7576C69.8721 17.6049 68.9632 16.8835 68.1917 17.291C68.1959 17.3253 68.207 17.3573 68.2237 17.3833C68.2405 17.4093 68.2621 17.4282 68.2863 17.4378C67.4591 17.5662 66.622 17.4754 65.8192 17.1704C64.8871 17.2156 64.0117 17.5861 64.2799 18.1283C64.1702 17.141 62.3036 18.3419 62.3036 18.3419L54.6278 18.9074C49.9522 19.2518 43.5877 19.6697 36.8614 19.92C25.4082 21.0572 13.9006 20.5211 2.52814 18.3205C2.11663 17.861 1.01935 17.6029 1.41613 16.9949C0.570391 16.8592 0.223168 17.7509 0.0353857 17.2721C1.17065 16.8722 -0.359681 16.0211 0.738344 15.3454L0.0153449 15.2711C-0.144634 14.9339 1.00558 15.61 0.808149 14.9887L1.03676 15.8861C1.44581 15.8271 1.82835 15.5773 2.12184 15.1774C2.68149 15.5035 3.06361 16.7215 4.35096 16.104L3.99259 16.0709C5.05783 16.0192 4.6252 15.443 4.83929 15.2812L4.60324 15.2926L5.48718 14.7787C4.81733 15.1308 3.66106 14.455 4.26737 14.4677C5.52559 14.1375 3.94624 14.7104 4.88087 14.766C5.48612 14.7367 5.29334 14.3002 5.2559 14.016L6.31509 13.9647C6.26799 13.5379 5.61299 13.9987 6.03237 13.5662L7.38097 13.9382C7.5958 12.8427 8.84626 14.3719 9.42572 13.3176C8.45724 13.1206 9.50137 12.9522 9.33534 12.6154L11.6898 12.5012C11.9099 12.3392 11.0763 12.2029 11.4225 12.2366C11.8568 11.9127 12.1612 12.4532 12.3971 12.4333C12.5894 12.1296 14.1523 12.3482 14.0676 11.6289C15.653 11.0558 14.7681 12.495 16.2401 11.9947C16.4228 11.5484 15.0273 11.9609 15.7059 11.4738L17.2529 11.5418C17.1618 11.3331 17.0268 11.1681 16.8662 11.0691C16.7055 10.9701 16.5268 10.9419 16.3542 10.9881C19.6591 9.52033 23.0729 8.57601 26.5307 8.17316C27.0563 7.62615 26.1347 7.84748 25.7449 7.5299C28.5278 8.06794 29.6019 6.19892 31.9576 6.1352L32.0107 6.56163C35.6104 5.60251 39.2622 5.06811 42.9269 4.96418L42.4924 5.27965C43.1249 5.58544 43.7837 5.77411 44.4518 5.8408C44.5371 5.61795 43.9871 4.95484 45.0689 5.07905C44.8488 5.24114 44.3988 5.42277 44.5371 5.61795C49.5383 4.54936 54.58 3.88367 59.6367 3.62424C66.7287 3.70105 74.3966 2.5807 81.362 2.68048C80.3013 2.67301 80.7821 3.71801 81.5632 3.45303C83.7228 1.61551 85.3616 3.64744 87.5959 2.36989C91.4094 1.9937 95.2386 2.04156 99.0466 2.51301L99.1126 2.0051C99.6702 1.76777 99.8304 2.1133 100.419 2.15206L100.416 2.00923C101.81 1.79023 103.507 2.27157 104.306 2.01411L104.363 2.58337C105.194 2.61879 104.788 2.13376 105.644 2.44555L105.637 2.1599L106.638 2.67498C106.528 1.6793 108.98 2.56144 109.653 2.0914C111.224 2.41869 112.814 2.53599 114.401 2.44168C114.697 1.93103 116.696 1.90982 117.968 1.63788C120.449 1.73632 123.997 1.86715 127.155 1.64678L127.104 2.28853L127.929 2.32425C127.926 2.18142 128.027 2.10922 127.922 2.03859C128.558 1.30117 129.825 2.25762 130.486 1.79657C130.07 2.38031 129.882 1.89312 129.44 1.90614C128.763 2.21655 129.415 2.83266 130.328 2.51081L130.324 2.36799L130.939 2.70832C131.005 2.20881 131.569 1.97119 131.641 1.47139C134.086 1.89552 136.546 2.1385 139.01 2.19931C138.717 1.6415 141.025 2.33715 140.455 1.36377C142.137 1.72808 140.184 2.1508 140.953 2.83695C141.419 2.81436 141.917 3.08465 141.999 2.72739C141.775 2.4943 142.378 2.13701 141.982 2.04686L143.104 2.1186C143.212 2.04611 142.966 1.90662 142.837 1.84557C145.129 2.39898 146.893 1.19472 148.95 1.77638C149.104 2.13061 148.134 1.86639 148.288 2.22902C150.355 2.97002 150.091 1.6033 152.043 2.12274L151.643 1.63742C151.923 1.89148 152.24 2.05637 152.572 2.12028C152.904 2.18419 153.241 2.14554 153.561 2.00709C153.741 1.43479 152.689 1.53625 152.196 1.23206C152.898 1.19803 154.678 1.37251 154.14 1.8865C154.981 2.08126 155.289 1.57002 155.74 1.41359C155.743 1.55641 154.956 1.79649 155.447 2.05867C156.878 1.79986 158.322 1.68772 159.765 1.72317C159.762 1.58034 159.847 1.3659 159.754 1.29468C160.857 2.24225 160.734 0.961206 162.283 1.13004Z" fill="url(#paint0_linear_2008_180)"/>
</g>
<defs>
<linearGradient id="paint0_linear_2008_180" x1="13.6822" y1="13.3176" x2="328.682" y2="13.3176" gradientUnits="userSpaceOnUse">
<stop stop-color="#19A675" stop-opacity="0"/>
<stop offset="1" stop-color="#38F8D5"/>
</linearGradient>
</defs>
</svg>
