<svg width="203" height="73" viewBox="0 0 203 73" fill="none" xmlns="http://www.w3.org/2000/svg">
<path d="M201.618 36.4995C201.618 41.1358 199.024 45.6837 194.038 49.947C189.057 54.2071 181.79 58.0888 172.723 61.3685C154.598 67.9249 129.491 71.9995 101.711 71.9995C73.9316 71.9995 48.8253 67.9249 30.6997 61.3685C21.6328 58.0888 14.3658 54.2071 9.38438 49.947C4.39931 45.6837 1.80469 41.1358 1.80469 36.4995C1.80469 31.8632 4.39931 27.3153 9.38438 23.052C14.3658 18.7919 21.6328 14.9102 30.6997 11.6305C48.8253 5.07412 73.9316 0.999512 101.711 0.999512C129.491 0.999512 154.598 5.07412 172.723 11.6305C181.79 14.9102 189.057 18.7919 194.038 23.052C199.024 27.3153 201.618 31.8632 201.618 36.4995Z" stroke="#4DD371" stroke-width="2"/>
</svg>
