<svg width="202" height="77" viewBox="0 0 202 77" fill="none" xmlns="http://www.w3.org/2000/svg">
<path opacity="0.15" d="M200.318 29.1612C200.617 33.7822 198.324 38.5585 193.628 43.2751C188.937 47.9882 181.942 52.5376 173.113 56.655C155.465 64.8861 130.696 71.2953 103 73.892C75.3038 76.4888 50.0101 74.7733 31.5162 69.9308C22.2649 67.5085 14.7693 64.3177 9.52813 60.5359C4.28291 56.7513 1.40362 52.46 1.10478 47.839C0.805944 43.218 3.09885 38.4417 7.7943 33.7251C12.4862 29.012 19.4812 24.4626 28.3095 20.3452C45.958 12.1141 70.7262 5.70491 98.4226 3.10817C126.119 0.51142 151.413 2.22693 169.907 7.06934C179.158 9.49167 186.653 12.6825 191.895 16.4642C197.14 20.2489 200.019 24.5402 200.318 29.1612Z" stroke="#010812" stroke-width="2"/>
</svg>
