<svg width="382" height="26" fill="none" xmlns="http://www.w3.org/2000/svg"><g opacity=".4"><path d="M196.79.819c5.011.297 11.499 1.403 16.461 1.188 1.335.868 2.777 1.31 4.234 1.3l.168-1.3 1.316.435c.541-.389-1.011-.253-.062-.74l.496.816c.107-.465 3.391-.253 1.182-1.232l5.137.105c1.136-.06.656 1.06 1.912.808.255-.374-.447-.272-.347-.737 3.765-.874 4.338 2.629 7.847 2.118l-.297-.181c.595.362 1.732.347 1.744.532-.454 1.303-.626-.722-1.702.023.084 1.09 1.328.63 1.26 1.466.82-.382 1.304.26 2.018.343 1.224-.665 2.974-.155 3.894-.98.751.817 1.625 1.346 2.545 1.541.927-.835-.21-.83 1.044-1.148l.199.646c1.026-.053.867-.253.83-.557 1.101.008.909.904 2.287.537l-.749-.65c.946.213 1.904.27 2.858.169-.009-.372-.603-.363-1.019-.276.778-.926 1.317.457 1.733.37-.118.28-1.106.374-.629 1.017.731-.093 1.488.917 1.999.18l-.748-.64c1.48.547.753.825 2.465.638-.089-.05-.049-.205-.081-.346 1.061.853 2.461.156 4.038.15l-.298-.18c.637.24.98.823 1.324.784-.901.342-.655.537-.743 1.132 1.193-1.025 1.805 1.284 3.751.723a.64.64 0 0 0-1.031-.46c-.648-1.06-.73-2.04-1.909-2.58.74.279 1.595.453 1.423-.008l.222 1.016c.448.042.799-.042 1.137.006.184.647-.908 1.02.123 1.47 1.16.366.629-1.017.808-.556 1.595.453.649 1.06 2.22.825-.156-.09-.454-.272-.583-.177 1.106-.375 2.713.274 3.052-.925-.161-.276-.191-.646-.608-.559l.005.186c-1.203-.932 1.011.276.641-.832-.095.65 1.48.569 2.168.478l-.225.734c2.306 2.329-.108-1.482 2.175-1.098 1.48.557-.554.182.333.748a5.148 5.148 0 0 1 2.808-.354c.405-.283 1.232-.643 1.308-1.478.875.37 2.672-.27 3.168.567-1.511.637-1.489-.94-3.255.082l.481.828c1.2.196 2.408.268 3.615.217-.173.15-.249.363-.142.543a10.41 10.41 0 0 0 3.905 1.032c.233-.734-.748-.65-1.484-.743 1.095-.549 1.137.007 2.828-.147.095-.65-1.137-.006-1.321-.653l1.863.286a.717.717 0 0 1-.003-.131c.26 1.08 1.421-.074 2.56.337 2.703.122 3.097 1.61 4.587 2.56.404-.272.53-.541.362-.827-.672.45-.55.028-.776-.223.914.16 2.01-.968 1.507-1.434 1.476.382-.53.552.352.933l1.989.028c-.244.548-.946.629.077 1.09.802.137 1.61.18 2.416.125-.16-.276.37-.828-.482-.839.289-.13.595-.164.893-.096.299.068.583.234.833.488-1.244.447 2.024.583 1.089 1.397l1.244-.447c-.285.015-.309-.378-.74-.29.362-.828 1.012.287 1.476.394.437-.143 1.574-.159 1.669-.481.255.125.525.162.791.109.265-.054.519-.197.742-.418.577.2.013.557.203.831l1.982.028c.113-.465.296-1.754.005-1.947.745.476.246 1.398 1.383 1.405-.638-.94 1.511-.626.583-1.748 1.142-.536 2.36-.6 3.524-.183.619.755-1.107.342-1.06 1.083 2.864.43 2.992 2.48 5.114 2.249l-.546.17c.682.134 1.336.496 1.91 1.06-.344-.933 1.529-2.376 3.686-2.05.173.472-1.221.807-.88 1.554l1.428.221c.109-.06-.049-.227-.236-.36 1.279.404 2.411-1.054 2.76.043l1.327-1.261-.523.541c.173.461 1.608.682 1.899.875a2.39 2.39 0 0 0 1.431.302c.486-.054.959-.263 1.386-.613-.263.364-.92 1.141.238 1.398.017-1.488 2.434-.4 2.414-1.22.464.053 1.305-.351 1.342.26l-.059-.927c.082 1.297 1.785 1.35 3.084 1.665-.262-1.768 1.428.232 2.038-1.32.218 1.203 2.303.624 2.51 1.652 1.001.123.924-.988 1.187-1.352l.458.48a12.577 12.577 0 0 1 3.533-.786l1.016 1.117.4-.447c.161.276 1.024.493.475.85l.564-.03c.027 1.147.786.364 1.9.93.268-.167.202-.448-.014-.623.558.026.331-.575.645-.941-.404.272 1.981 2.193.45 2.6-.114.466.754.858 1.322.698l.358-1.003.635 1.137c.864.206 1.245-.415 1.948-.495-.737-.115-1.517-2.108.299-1.94a5.915 5.915 0 0 1-1.925-1.06c.381-.02.577-.106-.013-.578 1.432.417.47.664 1.891.896-.058-.926.346-1.199 1.595-1.428l-.939.618c.04.112.101.203.175.264-.358.073-.457.22-.537.564.278-.015 1.629 1.25 1.872.7-1.435 1.355 2.48 1.26 1.517 2.109.161.276 1.154.388 1.26-.066-1.177-.759.908-1.01.695-1.665.439.283-.939.639-.35 1.013.578-.003 1.143-.256 1.626-.73l-.291-.181 1.092-.374c.179.46-1.061.744-.057 1.02.267-.19 1.271.075 1.24-.295-.477-.642-.122-1.48-.977-1.655.735.093 2.939.219 2.042 1.075l.843-.044c-.527.388-2.015 1.067-.317 1.208l-.004-.185 1.183.693.509-.486c.006.23.179.45.612.427.111-.279.526-.399.481-.768 1.284.02 1.082.48 1.271.743.625.044.818-.163.512-.694.643-.143 1.759-.091 1.945-.91.909-.048-.081.31.615.58-.024-1.027.454-1.598.902-2.53.514-.91.876-1.99 1.056-3.149 1.016.79.155-.577 1.068-1.062-.14.292-.389-.33-.617-.656-.228-.328-.42-.416-.493.55a9.647 9.647 0 0 0-.028-1.19c-.352-.288-.362.215-.433.624-.071.408-.239.734-.66.307-.012-.491.189-1.015.256-1.599.073-.299.072-.627-.002-.925-.074-.299-.217-.548-.403-.705-.367.96-.309-.957-.733.038-.078.442.138.562.226.874l-.198.01c-.536-.65-.511-.847-.329-1.218.182-.37.519-.694.255-1.336-.965-.77-1.133.19-1.308.57-.422-.054-.817-.327-1.118-.772.609.93 1.639.144 1.453-.6-.922.736-2.016-.88-2.361-1.507 2.272-.118 1.422.56 3.678.432.101.52-.311 1.11.708 1.724-.308-.947.321-.41.565-.314-.479.21.448.95.47 1.561.495.182.399-1.727 1.286-.21l-.385.491-.407.47c.328.54.592-.72.797.844.233-1.04.914-.135.297-2.356.361.357.642.864.81 1.459.168.594.215 1.249.134 1.882a26.647 26.647 0 0 1-.758 3.036c.069-.2.201-.207.277-.408a7.647 7.647 0 0 0-.457 1.773c.034 1.453.587-.905.817-.502l-.156 1.179-.26 1.107c.001.065.002.087.054.095-.274.518-.566.916-.395 1.322a5.41 5.41 0 0 0 1.206-.839 7.548 7.548 0 0 1-1.423 1.9c.412.044-.477 2.212.475.883l-.267.495c-.177.283-.441.592-.712.923a7.936 7.936 0 0 1-1.12 1.054l.147.932c-.677.222-.731.093-.069-.455-.728.471-1.526.649-2.314.514-.836-.011-1.469-.077-1.124.846-2.15-.632-2.722-.329-5.074-.83 1.788.859-2.044 1.08-.149 1.484-1.113.397-1.342-.608-2.219-.781-.82.382-.461 1.303.428 1.662l-1.045-.449.004.186-.901-.555c-.964.466-.213.93-1.201 1.014l-.203-.831-.679.45c.256-.363-.328-.562-1.042-.656l.004.186-.87-.206c.856.546-.797.14-.416.743a8.973 8.973 0 0 1-2.104-.251l.244-.549c-1.745-.598-.09.836-1.515.79l.103-.64c-2.069.95-3.455-.914-4.973-.255.856.207.624.94.612.755a15.216 15.216 0 0 1-4.744-1.163c-.507.912-.634 1.126-2.026 1.505-1.001-.123-1.15-.224-1.486-.787-.976.303-2.789-.368-2.854.313-.218-.557-.879.046-1.404-.44l-.118.268.102-.64c-1.751 1.338-2.892-1.02-4.662.133l.298.193-.741-.3c-.118.279.172.471.203.842l-3.406-.107.679-.44c-.736-.115-1.185-.77-2.013-.42 1.345 1.023-1.13-.029-1.362.705l.74.3c-.993-.112-.993-.112-.905-.762-1.291-.304-.913 1.141-2.089.415l.852.021c.255-.363-.345-.933-.91-.947-.137.094-.542.356-.114.465-1.012-.308-2.554-.064-2.994-.347-.553.17-.381.643-.09.835-2.166-.696-.989.052-3.162-.622l.009.371-.745-.486-1.084.723.393-.457a4.781 4.781 0 0 0-2.001-.235l.329.562c-2.013-.42-2.351.779-4.257-.095-.13.094.16.287.317.377-1.77-1.002-1.359.89-3.131-.253.107.191-.094.41-.024.57l-.809-.406.018.742-.65-1.125-.511.738-.31-.367c-.892 1.37-2.107.252-3.308 1.266l.221-.92c-2.982-2.031-6.879.741-10.491-.328l.054.74-1.489-.939c-.809.545.47.654.214 1.017-1.596-.486-.65-1.125-2.513-1.422-.957.454.322.563.754.846a13.866 13.866 0 0 0-5.553-.618c-.003-.098-.101-.235-.007-.273a18.733 18.733 0 0 0-3.981-.209c.008.34.347.409.664.49a1.964 1.964 0 0 1-1.47-.13l.478.653c-.989.051-2.875-.572-3.1.161.118-.28.076-.835-.753-.835-.48 1.118-2.309-.57-3.668-.017.16.276 1.16.377.874.38-.663.11-1.33-.122-1.893-.655l.179.46-3.172-.753c-.48 1.119-3-.292-2.789.539-1.138-.007.957-.454-.478-.642-.385.457-1.297-.283-1.243.458l.148.09-.999-.09.626.744c-.863-.184-1.489-.928-1.502-1.474-.82.381-1.98.005-2.361.659l.305.18c-2.298-.361-3.822 1.873-5.621.578-.137.094-.118.279.161.275l-1.423-.002.335.551-2.339-.917.008.371c-1.553.081-3.98-.164-5.972-.345l.298.181c-2.172-.641-2.106.285-3.672-.17.041.082.099.14.165.167l-1.469-.055.317.367c-1.053-.82-3.044.967-2.384.31-.603-.363-1.633-.812-1.805-1.273-1.565-.083-.385.468-1.354.76-1.129.058-1.328-.632-2.862-.333l.009.371c-.736-.082-1.16-.355-2.16-.434l.298.181c-1.626-.812-2.037 1.036-3.308-.604-.683.287-1.98.016-1.919.767-2.03-.529-3.606-.786-5.624-1.129-.323 1.209-.434-.087-1.658.59l.094-.65c-2.849-.137-6.129 1.412-9.268 1.116l-.088.65-.626-.722c-3.383.263-7.759.404-10.458.413-1.16-.649-2.393-.956-3.631-.905l.149.091a26.24 26.24 0 0 0-7.696-.321c.168.276-.099.465.199.646-.633-.722-1.564-.05-2.136-.031l.671-.484a1.61 1.61 0 0 0-1.152-.212c-.39.078-.76.304-1.075.657l-1.205-.703c-.079.07-.201.163-.213.273l-.111-.333-.633.853c-.298-.181-1.887-.405-2.384-1.232-.118.28-1.235.502-.365.665l-4.397.228.683-.309c.08-.649-1.235-1.029-1.911-.753.893.522.081.925-.304 1.405-.595-.352.514-.574.198-.93-.875-.46-1.814-.584-2.73-.36l.446.26c-1.018-.241-1.446.896-2.482.84-.9-.52-1.563-.027-1.384-1.152-1.304-.227-.496.759-.919.868a2.227 2.227 0 0 0-1.359-.24c-.459.068-.903.283-1.302.63-.72-1.635-3.5.598-3.767-.777l-1.06.777c-.051-.384-.191-.73-.395-.976-.204-.247-.46-.38-.722-.377-.812.404-.614 1.05-.862 1.423l-.56-1.37c-4.69 1.468-10.896.567-16.03 1.862a40.558 40.558 0 0 0-7.88-.683l.297.17-2.66.423 1.928-.67a5.15 5.15 0 0 0-1.6-.375 28.12 28.12 0 0 1-10.428.783c-2.354-1.528-1.537 1.436-3.778.328.194.143.265.369.437.513a34.757 34.757 0 0 1-6.148-1.593c.301 1.559-1.57-.006-1.338.813l-.213-.634c-.533.4-1.791.574-1.605 1.024l-1.074-.765-.08.66c-1.407.074-4.41-.36-5.163.991a47.345 47.345 0 0 0-13.39-.046c-.935-.456-1.92-.634-2.902-.527l-1.052.82c-1.017-.199-2.117-1.136-3.051-.607a.303.303 0 0 0 .038.12c.02.034.047.059.076.071a5.457 5.457 0 0 1-2.986-.347c-1.129.058-2.189.54-1.864 1.245-.133-1.284-2.392.277-2.392.277l-9.293.736c-5.66.447-13.364.99-21.507 1.316-13.865 1.478-27.796.781-41.563-2.08-.499-.597-1.827-.932-1.347-1.723-1.024-.176-1.444.983-1.671.36 1.374-.52-.478-1.626.85-2.504l-.874-.097c-.194-.438 1.198.441.96-.367l.276 1.167c.495-.077.958-.402 1.314-.921.677.424 1.14 2.007 2.698 1.204l-.434-.043c1.29-.067.766-.816 1.025-1.027l-.285.015 1.07-.668c-.811.458-2.211-.42-1.477-.404 1.523-.43-.389.316.743.388.732-.038.499-.606.454-.975l1.282-.067c-.057-.555-.85.044-.342-.518l1.632.484c.26-1.424 1.774.564 2.476-.807-1.173-.256.091-.475-.11-.913l2.85-.148c.267-.211-.742-.388-.323-.344.526-.421.894.281 1.18.255.232-.395 2.124-.11 2.022-1.045 1.92-.745.848 1.126 2.63.475.221-.58-1.468-.044-.647-.677l1.873.088c-.11-.271-.274-.486-.468-.614a.734.734 0 0 0-.62-.105c4-1.909 8.134-3.136 12.32-3.66.636-.711-.48-.423-.952-.836 3.37.7 4.67-1.73 7.521-1.813l.065.554A53.922 53.922 0 0 1 52.3 5.803l-.526.41a6.684 6.684 0 0 0 2.371.73c.104-.29-.562-1.152.748-.99-.267.21-.812.447-.644.7a108.307 108.307 0 0 1 18.28-2.591c8.585.1 17.867-1.357 26.3-1.227-1.285-.01-.703 1.348.243 1.004 2.614-2.389 4.598.253 7.303-1.408a58.345 58.345 0 0 1 13.862.186l.08-.66c.675-.309.869.14 1.582.19l-.005-.185c1.688-.285 3.742.341 4.71.006l.069.74c1.006.046.514-.584 1.551-.179l-.009-.371 1.212.67c-.133-1.295 2.835-.148 3.65-.76 1.902.426 3.826.579 5.747.456.359-.664 2.779-.691 4.319-1.045 3.003.128 7.299.298 11.122.012l-.062.834.999.047c-.004-.186.118-.28-.009-.372.77-.958 2.303.285 3.104-.314-.503.758-.731.125-1.266.142-.82.404-.031 1.204 1.075.786l-.005-.186.744.443c.08-.65.763-.958.85-1.608 2.96.551 5.938.867 8.921.946-.354-.725 2.44.18 1.75-1.086 2.036.474-.328 1.023.602 1.915.564-.03 1.167.322 1.266-.142-.271-.303.459-.768-.021-.885l1.36.093c.129-.094-.168-.275-.324-.355 2.775.72 4.91-.846 7.4-.09.187.46-.988.117-.801.589 2.502.963 2.182-.814 4.545-.138l-.484-.631c.339.33.724.544 1.125.627.402.083.81.033 1.197-.147.218-.744-1.056-.612-1.652-1.007.85-.045 3.005.182 2.353.85 1.018.254 1.391-.411 1.937-.614.004.185-.95.497-.355.838a24.065 24.065 0 0 1 5.228-.436c-.004-.186.099-.464-.013-.557 1.335 1.232 1.186-.433 3.061-.214Z" fill="#519BCC"/><path d="M196.79.819c5.011.297 11.499 1.403 16.461 1.188 1.335.868 2.777 1.31 4.234 1.3l.168-1.3 1.316.435c.541-.389-1.011-.253-.062-.74l.496.816c.107-.465 3.391-.253 1.182-1.232l5.137.105c1.136-.06.656 1.06 1.912.808.255-.374-.447-.272-.347-.737 3.765-.874 4.338 2.629 7.847 2.118l-.297-.181c.595.362 1.732.347 1.744.532-.454 1.303-.626-.722-1.702.023.084 1.09 1.328.63 1.26 1.466.82-.382 1.304.26 2.018.343 1.224-.665 2.974-.155 3.894-.98.751.817 1.625 1.346 2.545 1.541.927-.835-.21-.83 1.044-1.148l.199.646c1.026-.053.867-.253.83-.557 1.101.008.909.904 2.287.537l-.749-.65c.946.213 1.904.27 2.858.169-.009-.372-.603-.363-1.019-.276.778-.926 1.317.457 1.733.37-.118.28-1.106.374-.629 1.017.731-.093 1.488.917 1.999.18l-.748-.64c1.48.547.753.825 2.465.638-.089-.05-.049-.205-.081-.346 1.061.853 2.461.156 4.038.15l-.298-.18c.637.24.98.823 1.324.784-.901.342-.655.537-.743 1.132 1.193-1.025 1.805 1.284 3.751.723a.64.64 0 0 0-1.031-.46c-.648-1.06-.73-2.04-1.909-2.58.74.279 1.595.453 1.423-.008l.222 1.016c.448.042.799-.042 1.137.006.184.647-.908 1.02.123 1.47 1.16.366.629-1.017.808-.556 1.595.453.649 1.06 2.22.825-.156-.09-.454-.272-.583-.177 1.106-.375 2.713.274 3.052-.925-.161-.276-.191-.646-.608-.559l.005.186c-1.203-.932 1.011.276.641-.832-.095.65 1.48.569 2.168.478l-.225.734c2.306 2.329-.108-1.482 2.175-1.098 1.48.557-.554.182.333.748a5.148 5.148 0 0 1 2.808-.354c.405-.283 1.232-.643 1.308-1.478.875.37 2.672-.27 3.168.567-1.511.637-1.489-.94-3.255.082l.481.828c1.2.196 2.408.268 3.615.217-.173.15-.249.363-.142.543a10.41 10.41 0 0 0 3.905 1.032c.233-.734-.748-.65-1.484-.743 1.095-.549 1.137.007 2.828-.147.095-.65-1.137-.006-1.321-.653l1.863.286a.717.717 0 0 1-.003-.131c.26 1.08 1.421-.074 2.56.337 2.703.122 3.097 1.61 4.587 2.56.404-.272.53-.541.362-.827-.672.45-.55.028-.776-.223.914.16 2.01-.968 1.507-1.434 1.476.382-.53.552.352.933l1.989.028c-.244.548-.946.629.077 1.09.802.137 1.61.18 2.416.125-.16-.276.37-.828-.482-.839.289-.13.595-.164.893-.096.299.068.583.234.833.488-1.244.447 2.024.583 1.089 1.397l1.244-.447c-.285.015-.309-.378-.74-.29.362-.828 1.012.287 1.476.394.437-.143 1.574-.159 1.669-.481.255.125.525.162.791.109.265-.054.519-.197.742-.418.577.2.013.557.203.831l1.982.028c.113-.465.296-1.754.005-1.947.745.476.246 1.398 1.383 1.405-.638-.94 1.511-.626.583-1.748 1.142-.536 2.36-.6 3.524-.183.619.755-1.107.342-1.06 1.083 2.864.43 2.992 2.48 5.114 2.249l-.546.17c.682.134 1.336.496 1.91 1.06-.344-.933 1.529-2.376 3.686-2.05.173.472-1.221.807-.88 1.554l1.428.221c.109-.06-.049-.227-.236-.36 1.279.404 2.411-1.054 2.76.043l1.327-1.261-.523.541c.173.461 1.608.682 1.899.875a2.39 2.39 0 0 0 1.431.302c.486-.054.959-.263 1.386-.613-.263.364-.92 1.141.238 1.398.017-1.488 2.434-.4 2.414-1.22.464.053 1.305-.351 1.342.26l-.059-.927c.082 1.297 1.785 1.35 3.084 1.665-.262-1.768 1.428.232 2.038-1.32.218 1.203 2.303.624 2.51 1.652 1.001.123.924-.988 1.187-1.352l.458.48a12.577 12.577 0 0 1 3.533-.786l1.016 1.117.4-.447c.161.276 1.024.493.475.85l.564-.03c.027 1.147.786.364 1.9.93.268-.167.202-.448-.014-.623.558.026.331-.575.645-.941-.404.272 1.981 2.193.45 2.6-.114.466.754.858 1.322.698l.358-1.003.635 1.137c.864.206 1.245-.415 1.948-.495-.737-.115-1.517-2.108.299-1.94a5.915 5.915 0 0 1-1.925-1.06c.381-.02.577-.106-.013-.578 1.432.417.47.664 1.891.896-.058-.926.346-1.199 1.595-1.428l-.939.618c.04.112.101.203.175.264-.358.073-.457.22-.537.564.278-.015 1.629 1.25 1.872.7-1.435 1.355 2.48 1.26 1.517 2.109.161.276 1.154.388 1.26-.066-1.177-.759.908-1.01.695-1.665.439.283-.939.639-.35 1.013.578-.003 1.143-.256 1.626-.73l-.291-.181 1.092-.374c.179.46-1.061.744-.057 1.02.267-.19 1.271.075 1.24-.295-.477-.642-.122-1.48-.977-1.655.735.093 2.939.219 2.042 1.075l.843-.044c-.527.388-2.015 1.067-.317 1.208l-.004-.185 1.183.693.509-.486c.006.23.179.45.612.427.111-.279.526-.399.481-.768 1.284.02 1.082.48 1.271.743.625.044.818-.163.512-.694.643-.143 1.759-.091 1.945-.91.909-.048-.081.31.615.58-.024-1.027.454-1.598.902-2.53.514-.91.876-1.99 1.056-3.149 1.016.79.155-.577 1.068-1.062-.14.292-.389-.33-.617-.656-.228-.328-.42-.416-.493.55a9.647 9.647 0 0 0-.028-1.19c-.352-.288-.362.215-.433.624-.071.408-.239.734-.66.307-.012-.491.189-1.015.256-1.599.073-.299.072-.627-.002-.925-.074-.299-.217-.548-.403-.705-.367.96-.309-.957-.733.038-.078.442.138.562.226.874l-.198.01c-.536-.65-.511-.847-.329-1.218.182-.37.519-.694.255-1.336-.965-.77-1.133.19-1.308.57-.422-.054-.817-.327-1.118-.772.609.93 1.639.144 1.453-.6-.922.736-2.016-.88-2.361-1.507 2.272-.118 1.422.56 3.678.432.101.52-.311 1.11.708 1.724-.308-.947.321-.41.565-.314-.479.21.448.95.47 1.561.495.182.399-1.727 1.286-.21l-.385.491-.407.47c.328.54.592-.72.797.844.233-1.04.914-.135.297-2.356.361.357.642.864.81 1.459.168.594.215 1.249.134 1.882a26.647 26.647 0 0 1-.758 3.036c.069-.2.201-.207.277-.408a7.647 7.647 0 0 0-.457 1.773c.034 1.453.587-.905.817-.502l-.156 1.179-.26 1.107c.001.065.002.087.054.095-.274.518-.566.916-.395 1.322a5.41 5.41 0 0 0 1.206-.839 7.548 7.548 0 0 1-1.423 1.9c.412.044-.477 2.212.475.883l-.267.495c-.177.283-.441.592-.712.923a7.936 7.936 0 0 1-1.12 1.054l.147.932c-.677.222-.731.093-.069-.455-.728.471-1.526.649-2.314.514-.836-.011-1.469-.077-1.124.846-2.15-.632-2.722-.329-5.074-.83 1.788.859-2.044 1.08-.149 1.484-1.113.397-1.342-.608-2.219-.781-.82.382-.461 1.303.428 1.662l-1.045-.449.004.186-.901-.555c-.964.466-.213.93-1.201 1.014l-.203-.831-.679.45c.256-.363-.328-.562-1.042-.656l.004.186-.87-.206c.856.546-.797.14-.416.743a8.973 8.973 0 0 1-2.104-.251l.244-.549c-1.745-.598-.09.836-1.515.79l.103-.64c-2.069.95-3.455-.914-4.973-.255.856.207.624.94.612.755a15.216 15.216 0 0 1-4.744-1.163c-.507.912-.634 1.126-2.026 1.505-1.001-.123-1.15-.224-1.486-.787-.976.303-2.789-.368-2.854.313-.218-.557-.879.046-1.404-.44l-.118.268.102-.64c-1.751 1.338-2.892-1.02-4.662.133l.298.193-.741-.3c-.118.279.172.471.203.842l-3.406-.107.679-.44c-.736-.115-1.185-.77-2.013-.42 1.345 1.023-1.13-.029-1.362.705l.74.3c-.993-.112-.993-.112-.905-.762-1.291-.304-.913 1.141-2.089.415l.852.021c.255-.363-.345-.933-.91-.947-.137.094-.542.356-.114.465-1.012-.308-2.554-.064-2.994-.347-.553.17-.381.643-.09.835-2.166-.696-.989.052-3.162-.622l.009.371-.745-.486-1.084.723.393-.457a4.781 4.781 0 0 0-2.001-.235l.329.562c-2.013-.42-2.351.779-4.257-.095-.13.094.16.287.317.377-1.77-1.002-1.359.89-3.131-.253.107.191-.094.41-.024.57l-.809-.406.018.742-.65-1.125-.511.738-.31-.367c-.892 1.37-2.107.252-3.308 1.266l.221-.92c-2.982-2.031-6.879.741-10.491-.328l.054.74-1.489-.939c-.809.545.47.654.214 1.017-1.596-.486-.65-1.125-2.513-1.422-.957.454.322.563.754.846a13.866 13.866 0 0 0-5.553-.618c-.003-.098-.101-.235-.007-.273a18.733 18.733 0 0 0-3.981-.209c.008.34.347.409.664.49a1.964 1.964 0 0 1-1.47-.13l.478.653c-.989.051-2.875-.572-3.1.161.118-.28.076-.835-.753-.835-.48 1.118-2.309-.57-3.668-.017.16.276 1.16.377.874.38-.663.11-1.33-.122-1.893-.655l.179.46-3.172-.753c-.48 1.119-3-.292-2.789.539-1.138-.007.957-.454-.478-.642-.385.457-1.297-.283-1.243.458l.148.09-.999-.09.626.744c-.863-.184-1.489-.928-1.502-1.474-.82.381-1.98.005-2.361.659l.305.18c-2.298-.361-3.822 1.873-5.621.578-.137.094-.118.279.161.275l-1.423-.002.335.551-2.339-.917.008.371c-1.553.081-3.98-.164-5.972-.345l.298.181c-2.172-.641-2.106.285-3.672-.17.041.082.099.14.165.167l-1.469-.055.317.367c-1.053-.82-3.044.967-2.384.31-.603-.363-1.633-.812-1.805-1.273-1.565-.083-.385.468-1.354.76-1.129.058-1.328-.632-2.862-.333l.009.371c-.736-.082-1.16-.355-2.16-.434l.298.181c-1.626-.812-2.037 1.036-3.308-.604-.683.287-1.98.016-1.919.767-2.03-.529-3.606-.786-5.624-1.129-.323 1.209-.434-.087-1.658.59l.094-.65c-2.849-.137-6.129 1.412-9.268 1.116l-.088.65-.626-.722c-3.383.263-7.759.404-10.458.413-1.16-.649-2.393-.956-3.631-.905l.149.091a26.24 26.24 0 0 0-7.696-.321c.168.276-.099.465.199.646-.633-.722-1.564-.05-2.136-.031l.671-.484a1.61 1.61 0 0 0-1.152-.212c-.39.078-.76.304-1.075.657l-1.205-.703c-.079.07-.201.163-.213.273l-.111-.333-.633.853c-.298-.181-1.887-.405-2.384-1.232-.118.28-1.235.502-.365.665l-4.397.228.683-.309c.08-.649-1.235-1.029-1.911-.753.893.522.081.925-.304 1.405-.595-.352.514-.574.198-.93-.875-.46-1.814-.584-2.73-.36l.446.26c-1.018-.241-1.446.896-2.482.84-.9-.52-1.563-.027-1.384-1.152-1.304-.227-.496.759-.919.868a2.227 2.227 0 0 0-1.359-.24c-.459.068-.903.283-1.302.63-.72-1.635-3.5.598-3.767-.777l-1.06.777c-.051-.384-.191-.73-.395-.976-.204-.247-.46-.38-.722-.377-.812.404-.614 1.05-.862 1.423l-.56-1.37c-4.69 1.468-10.896.567-16.03 1.862a40.558 40.558 0 0 0-7.88-.683l.297.17-2.66.423 1.928-.67a5.15 5.15 0 0 0-1.6-.375 28.12 28.12 0 0 1-10.428.783c-2.354-1.528-1.537 1.436-3.778.328.194.143.265.369.437.513a34.757 34.757 0 0 1-6.148-1.593c.301 1.559-1.57-.006-1.338.813l-.213-.634c-.533.4-1.791.574-1.605 1.024l-1.074-.765-.08.66c-1.407.074-4.41-.36-5.163.991a47.345 47.345 0 0 0-13.39-.046c-.935-.456-1.92-.634-2.902-.527l-1.052.82c-1.017-.199-2.117-1.136-3.051-.607a.303.303 0 0 0 .038.12c.02.034.047.059.076.071a5.457 5.457 0 0 1-2.986-.347c-1.129.058-2.189.54-1.864 1.245-.133-1.284-2.392.277-2.392.277l-9.293.736c-5.66.447-13.364.99-21.507 1.316-13.865 1.478-27.796.781-41.563-2.08-.499-.597-1.827-.932-1.347-1.723-1.024-.176-1.444.983-1.671.36 1.374-.52-.478-1.626.85-2.504l-.874-.097c-.194-.438 1.198.441.96-.367l.276 1.167c.495-.077.958-.402 1.314-.921.677.424 1.14 2.007 2.698 1.204l-.434-.043c1.29-.067.766-.816 1.025-1.027l-.285.015 1.07-.668c-.811.458-2.211-.42-1.477-.404 1.523-.43-.389.316.743.388.732-.038.499-.606.454-.975l1.282-.067c-.057-.555-.85.044-.342-.518l1.632.484c.26-1.424 1.774.564 2.476-.807-1.173-.256.091-.475-.11-.913l2.85-.148c.267-.211-.742-.388-.323-.344.526-.421.894.281 1.18.255.232-.395 2.124-.11 2.022-1.045 1.92-.745.848 1.126 2.63.475.221-.58-1.468-.044-.647-.677l1.873.088c-.11-.271-.274-.486-.468-.614a.734.734 0 0 0-.62-.105c4-1.909 8.134-3.136 12.32-3.66.636-.711-.48-.423-.952-.836 3.37.7 4.67-1.73 7.521-1.813l.065.554A53.922 53.922 0 0 1 52.3 5.803l-.526.41a6.684 6.684 0 0 0 2.371.73c.104-.29-.562-1.152.748-.99-.267.21-.812.447-.644.7a108.307 108.307 0 0 1 18.28-2.591c8.585.1 17.867-1.357 26.3-1.227-1.285-.01-.703 1.348.243 1.004 2.614-2.389 4.598.253 7.303-1.408a58.345 58.345 0 0 1 13.862.186l.08-.66c.675-.309.869.14 1.582.19l-.005-.185c1.688-.285 3.742.341 4.71.006l.069.74c1.006.046.514-.584 1.551-.179l-.009-.371 1.212.67c-.133-1.295 2.835-.148 3.65-.76 1.902.426 3.826.579 5.747.456.359-.664 2.779-.691 4.319-1.045 3.003.128 7.299.298 11.122.012l-.062.834.999.047c-.004-.186.118-.28-.009-.372.77-.958 2.303.285 3.104-.314-.503.758-.731.125-1.266.142-.82.404-.031 1.204 1.075.786l-.005-.186.744.443c.08-.65.763-.958.85-1.608 2.96.551 5.938.867 8.921.946-.354-.725 2.44.18 1.75-1.086 2.036.474-.328 1.023.602 1.915.564-.03 1.167.322 1.266-.142-.271-.303.459-.768-.021-.885l1.36.093c.129-.094-.168-.275-.324-.355 2.775.72 4.91-.846 7.4-.09.187.46-.988.117-.801.589 2.502.963 2.182-.814 4.545-.138l-.484-.631c.339.33.724.544 1.125.627.402.083.81.033 1.197-.147.218-.744-1.056-.612-1.652-1.007.85-.045 3.005.182 2.353.85 1.018.254 1.391-.411 1.937-.614.004.185-.95.497-.355.838a24.065 24.065 0 0 1 5.228-.436c-.004-.186.099-.464-.013-.557 1.335 1.232 1.186-.433 3.061-.214Z" fill="#19A675"/></g></svg>