<svg width="35" height="36" viewBox="0 0 35 36" fill="none" xmlns="http://www.w3.org/2000/svg">
<path fill-rule="evenodd" clip-rule="evenodd" d="M10.2083 6.96334C10.2083 6.73729 10.2083 6.62354 10.1354 6.55792C10.0596 6.49229 9.94875 6.50688 9.72708 6.53604C8.09375 6.74459 6.95333 7.17188 6.08417 8.0425C4.375 9.75021 4.375 12.5006 4.375 18C4.375 23.4994 4.375 26.2498 6.08417 27.9575C7.79187 29.6667 10.5423 29.6667 16.0417 29.6667H18.9583C24.4577 29.6667 27.2081 29.6667 28.9158 27.9575C30.625 26.2498 30.625 23.4994 30.625 18C30.625 12.5006 30.625 9.75021 28.9158 8.0425C28.0467 7.17188 26.9063 6.74459 25.2715 6.53604C25.0513 6.50688 24.9404 6.49229 24.866 6.55792C24.7917 6.625 24.7917 6.73729 24.7917 6.96334V9.97917C24.7917 10.5593 24.5612 11.1157 24.151 11.526C23.7407 11.9362 23.1843 12.1667 22.6042 12.1667C22.024 12.1667 21.4676 11.9362 21.0574 11.526C20.6471 11.1157 20.4167 10.5593 20.4167 9.97917V6.77084C20.4167 6.56521 20.4167 6.46167 20.3525 6.39896C20.2883 6.33334 20.1863 6.33334 19.9806 6.33334H15.0208C14.8138 6.33334 14.7117 6.33334 14.6475 6.39896C14.5833 6.46167 14.5833 6.56521 14.5833 6.77084V9.97917C14.5833 10.5593 14.3529 11.1157 13.9426 11.526C13.5324 11.9362 12.976 12.1667 12.3958 12.1667C11.8157 12.1667 11.2593 11.9362 10.849 11.526C10.4388 11.1157 10.2083 10.5593 10.2083 9.97917V6.96334Z" fill="#62E130" fill-opacity="0.25"/>
<path d="M12.3958 4.14584V9.97917M22.6042 4.14584V9.97917" stroke="#62E130" stroke-width="1.25" stroke-linecap="round"/>
<path d="M10.9375 16.5417C11.3402 16.5417 11.6667 16.2152 11.6667 15.8125C11.6667 15.4098 11.3402 15.0833 10.9375 15.0833C10.5348 15.0833 10.2083 15.4098 10.2083 15.8125C10.2083 16.2152 10.5348 16.5417 10.9375 16.5417Z" fill="#62E130"/>
<path d="M15.3125 16.5417C15.7152 16.5417 16.0417 16.2152 16.0417 15.8125C16.0417 15.4098 15.7152 15.0833 15.3125 15.0833C14.9098 15.0833 14.5833 15.4098 14.5833 15.8125C14.5833 16.2152 14.9098 16.5417 15.3125 16.5417Z" fill="#62E130"/>
<path d="M19.6875 16.5417C20.0902 16.5417 20.4167 16.2152 20.4167 15.8125C20.4167 15.4098 20.0902 15.0833 19.6875 15.0833C19.2848 15.0833 18.9583 15.4098 18.9583 15.8125C18.9583 16.2152 19.2848 16.5417 19.6875 16.5417Z" fill="#62E130"/>
<path d="M24.0625 16.5417C24.4652 16.5417 24.7917 16.2152 24.7917 15.8125C24.7917 15.4098 24.4652 15.0833 24.0625 15.0833C23.6598 15.0833 23.3333 15.4098 23.3333 15.8125C23.3333 16.2152 23.6598 16.5417 24.0625 16.5417Z" fill="#62E130"/>
<path d="M10.9375 20.9167C11.3402 20.9167 11.6667 20.5902 11.6667 20.1875C11.6667 19.7848 11.3402 19.4583 10.9375 19.4583C10.5348 19.4583 10.2083 19.7848 10.2083 20.1875C10.2083 20.5902 10.5348 20.9167 10.9375 20.9167Z" fill="#62E130"/>
<path d="M15.3125 20.9167C15.7152 20.9167 16.0417 20.5902 16.0417 20.1875C16.0417 19.7848 15.7152 19.4583 15.3125 19.4583C14.9098 19.4583 14.5833 19.7848 14.5833 20.1875C14.5833 20.5902 14.9098 20.9167 15.3125 20.9167Z" fill="#62E130"/>
<path d="M19.6875 20.9167C20.0902 20.9167 20.4167 20.5902 20.4167 20.1875C20.4167 19.7848 20.0902 19.4583 19.6875 19.4583C19.2848 19.4583 18.9583 19.7848 18.9583 20.1875C18.9583 20.5902 19.2848 20.9167 19.6875 20.9167Z" fill="#62E130"/>
<path d="M24.0625 20.9167C24.4652 20.9167 24.7917 20.5902 24.7917 20.1875C24.7917 19.7848 24.4652 19.4583 24.0625 19.4583C23.6598 19.4583 23.3333 19.7848 23.3333 20.1875C23.3333 20.5902 23.6598 20.9167 24.0625 20.9167Z" fill="#62E130"/>
<path d="M10.9375 25.2917C11.3402 25.2917 11.6667 24.9652 11.6667 24.5625C11.6667 24.1598 11.3402 23.8333 10.9375 23.8333C10.5348 23.8333 10.2083 24.1598 10.2083 24.5625C10.2083 24.9652 10.5348 25.2917 10.9375 25.2917Z" fill="#62E130"/>
<path d="M15.3125 25.2917C15.7152 25.2917 16.0417 24.9652 16.0417 24.5625C16.0417 24.1598 15.7152 23.8333 15.3125 23.8333C14.9098 23.8333 14.5833 24.1598 14.5833 24.5625C14.5833 24.9652 14.9098 25.2917 15.3125 25.2917Z" fill="#62E130"/>
<path d="M19.6875 25.2917C20.0902 25.2917 20.4167 24.9652 20.4167 24.5625C20.4167 24.1598 20.0902 23.8333 19.6875 23.8333C19.2848 23.8333 18.9583 24.1598 18.9583 24.5625C18.9583 24.9652 19.2848 25.2917 19.6875 25.2917Z" fill="#62E130"/>
<path d="M24.0625 25.2917C24.4652 25.2917 24.7917 24.9652 24.7917 24.5625C24.7917 24.1598 24.4652 23.8333 24.0625 23.8333C23.6598 23.8333 23.3333 24.1598 23.3333 24.5625C23.3333 24.9652 23.6598 25.2917 24.0625 25.2917Z" fill="#62E130"/>
</svg>
