<svg width="35" height="36" viewBox="0 0 35 36" fill="none" xmlns="http://www.w3.org/2000/svg">
<path d="M4.375 15.0833C4.375 12.3329 4.375 10.9592 5.22958 10.1046C6.08417 9.25 7.45792 9.25 10.2083 9.25H24.7917C27.5421 9.25 28.9158 9.25 29.7704 10.1046C30.625 10.9592 30.625 12.3329 30.625 15.0833V20.9167C30.625 23.6671 30.625 25.0408 29.7704 25.8954C28.9158 26.75 27.5421 26.75 24.7917 26.75H10.2083C7.45792 26.75 6.08417 26.75 5.22958 25.8954C4.375 25.0408 4.375 23.6671 4.375 20.9167V15.0833Z" fill="#62E130" fill-opacity="0.25"/>
<path d="M8.74999 23.8333C9.55541 23.8333 10.2083 23.1804 10.2083 22.375C10.2083 21.5696 9.55541 20.9167 8.74999 20.9167C7.94457 20.9167 7.29166 21.5696 7.29166 22.375C7.29166 23.1804 7.94457 23.8333 8.74999 23.8333Z" fill="#62E130" fill-opacity="0.6"/>
<path d="M4.375 13.625H30.625V16.5417H4.375V13.625Z" fill="#62E130" fill-opacity="0.6"/>
</svg>
