<svg width="146" height="30" viewBox="0 0 146 30" fill="none" xmlns="http://www.w3.org/2000/svg">
<path d="M12.8125 3.75H7.8125C6.73506 3.75 5.70175 4.17801 4.93988 4.93988C4.17801 5.70175 3.75 6.73506 3.75 7.8125V10.3125C3.75 10.5611 3.84877 10.7996 4.02459 10.9754C4.2004 11.1512 4.43886 11.25 4.6875 11.25C4.93614 11.25 5.1746 11.1512 5.35041 10.9754C5.52623 10.7996 5.625 10.5611 5.625 10.3125V7.8125C5.625 6.605 6.605 5.625 7.8125 5.625H12.8125C13.0611 5.625 13.2996 5.52623 13.4754 5.35041C13.6512 5.1746 13.75 4.93614 13.75 4.6875C13.75 4.43886 13.6512 4.2004 13.4754 4.02459C13.2996 3.84877 13.0611 3.75 12.8125 3.75ZM13.4375 26.25C13.971 26.25 14.4993 26.1449 14.9922 25.9408C15.485 25.7366 15.9329 25.4374 16.3101 25.0601C16.6874 24.6829 16.9866 24.235 17.1908 23.7422C17.3949 23.2493 17.5 22.721 17.5 22.1875V16.5625C17.5 16.029 17.3949 15.5007 17.1908 15.0078C16.9866 14.515 16.6874 14.0671 16.3101 13.6899C15.9329 13.3126 15.485 13.0134 14.9922 12.8092C14.4993 12.6051 13.971 12.5 13.4375 12.5H7.8125C6.73506 12.5 5.70175 12.928 4.93988 13.6899C4.17801 14.4517 3.75 15.4851 3.75 16.5625V22.1875C3.75 23.2649 4.17801 24.2983 4.93988 25.0601C5.70175 25.822 6.73506 26.25 7.8125 26.25H13.4375ZM19.6875 26.25C19.4389 26.25 19.2004 26.1512 19.0246 25.9754C18.8488 25.7996 18.75 25.5611 18.75 25.3125C18.75 25.0639 18.8488 24.8254 19.0246 24.6496C19.2004 24.4738 19.4389 24.375 19.6875 24.375H22.1875C22.7677 24.375 23.3241 24.1445 23.7343 23.7343C24.1445 23.3241 24.375 22.7677 24.375 22.1875V17.1875C24.375 16.9389 24.4738 16.7004 24.6496 16.5246C24.8254 16.3488 25.0639 16.25 25.3125 16.25C25.5611 16.25 25.7996 16.3488 25.9754 16.5246C26.1512 16.7004 26.25 16.9389 26.25 17.1875V22.1875C26.25 23.2649 25.822 24.2983 25.0601 25.0601C24.2983 25.822 23.2649 26.25 22.1875 26.25H19.6875ZM26.25 12.8125V7.8125C26.25 6.73506 25.822 5.70175 25.0601 4.93988C24.2983 4.17801 23.2649 3.75 22.1875 3.75H17.1875C16.9389 3.75 16.7004 3.84877 16.5246 4.02459C16.3488 4.2004 16.25 4.43886 16.25 4.6875C16.25 4.93614 16.3488 5.1746 16.5246 5.35041C16.7004 5.52623 16.9389 5.625 17.1875 5.625H22.1875C23.395 5.625 24.375 6.605 24.375 7.8125V12.8125C24.375 13.0611 24.4738 13.2996 24.6496 13.4754C24.8254 13.6512 25.0639 13.75 25.3125 13.75C25.5611 13.75 25.7996 13.6512 25.9754 13.4754C26.1512 13.2996 26.25 13.0611 26.25 12.8125Z" fill="#62E130" fill-opacity="0.6"/>
<path d="M45.0137 25.5605C39.4766 25.5605 36.1406 21.6094 36.1406 15.1562V15.1289C36.1406 8.64844 39.5723 4.73828 44.8906 4.73828C49.2109 4.73828 52.4238 7.30859 52.9707 10.5762L52.9844 10.6582H47.3789L47.3379 10.5625C46.9961 9.75586 46.1348 9.11328 44.9453 9.11328C42.8125 9.11328 41.7734 11.2188 41.623 14.2812C41.623 14.418 41.6094 14.5547 41.6094 14.7051H41.9102C42.6074 13.2695 44.043 11.9844 46.832 11.9844C50.8105 11.9844 53.2305 14.6367 53.2305 18.3145V18.3418C53.2305 22.4707 49.9219 25.5605 45.0137 25.5605ZM42.2656 18.4922C42.2656 20.0371 43.4688 21.1855 44.9863 21.1855C46.5039 21.1855 47.7207 20.0508 47.7207 18.5742V18.5469C47.7207 17.0293 46.5723 15.9219 45 15.9219C43.4824 15.9219 42.2656 16.9609 42.2656 18.4648V18.4922ZM59.2871 25.5469C57.4551 25.5469 56.252 24.3164 56.252 22.5801C56.252 20.8574 57.4551 19.6133 59.2871 19.6133C61.1191 19.6133 62.3223 20.8574 62.3223 22.5801C62.3223 24.3164 61.1191 25.5469 59.2871 25.5469ZM73.7246 25.5469C68.3379 25.5469 65.0156 21.5547 65.0156 15.1426V15.1152C65.0156 8.70312 68.3379 4.72461 73.7246 4.72461C79.1113 4.72461 82.4062 8.70312 82.4062 15.1152V15.1426C82.4062 21.5547 79.1113 25.5469 73.7246 25.5469ZM73.7246 21.1719C75.5566 21.1719 76.541 19.0391 76.541 15.1426V15.1152C76.541 11.2188 75.5566 9.09961 73.7246 9.09961C71.8926 9.09961 70.8945 11.2188 70.8945 15.1152V15.1426C70.8945 19.0391 71.8926 21.1719 73.7246 21.1719ZM93.9863 4.71094C99.5234 4.71094 102.859 8.66211 102.859 15.1152V15.1426C102.859 21.623 99.4277 25.5332 94.1094 25.5332C89.7891 25.5332 86.5762 22.9629 86.0293 19.6953L86.0156 19.6133H91.6211L91.6621 19.709C92.0039 20.5156 92.8652 21.1582 94.0547 21.1582C96.1875 21.1582 97.2266 19.0527 97.377 15.9902C97.377 15.8535 97.3906 15.7168 97.3906 15.5664H97.0898C96.3926 17.002 94.957 18.2871 92.168 18.2871C88.1895 18.2871 85.7695 15.6348 85.7695 11.957V11.9297C85.7695 7.80078 89.0781 4.71094 93.9863 4.71094ZM94 14.3496C95.5176 14.3496 96.7344 13.3105 96.7344 11.8066V11.7793C96.7344 10.2344 95.5312 9.08594 94.0137 9.08594C92.4961 9.08594 91.2793 10.2207 91.2793 11.6973V11.7246C91.2793 13.2422 92.4277 14.3496 94 14.3496Z" fill="#62E130"/>
<path d="M109.996 14V5.54492H112.146V9.17773H112.258L115.07 5.54492H117.379L114.455 9.27734L117.549 14H115.023L112.891 10.666L112.146 11.6094V14H109.996ZM119.688 6.60547C119.084 6.60547 118.586 6.13086 118.586 5.52734C118.586 4.92383 119.084 4.44336 119.688 4.44336C120.291 4.44336 120.789 4.92383 120.789 5.52734C120.789 6.13086 120.291 6.60547 119.688 6.60547ZM118.645 14V7.47852H120.725V14H118.645ZM122.406 14V5.03516H124.48V14H122.406ZM129.156 14.1523C127.07 14.1523 125.834 12.8809 125.834 10.7422V10.7305C125.834 8.62695 127.105 7.32617 129.156 7.32617C131.219 7.32617 132.479 8.61523 132.479 10.7305V10.7422C132.479 12.8867 131.248 14.1523 129.156 14.1523ZM129.156 12.5762C129.918 12.5762 130.352 11.8965 130.352 10.7422V10.7305C130.352 9.59961 129.906 8.90234 129.156 8.90234C128.406 8.90234 127.961 9.59961 127.961 10.7305V10.7422C127.961 11.9023 128.395 12.5762 129.156 12.5762ZM111.713 24L109.504 15.5449H111.736L112.861 21.1523H112.967L114.32 15.5449H116.043L117.443 21.1523H117.549L118.656 15.5449H120.871L118.662 24H116.646L115.234 18.8203H115.129L113.74 24H111.713ZM123.145 24.0996C121.896 24.0996 121.041 23.3203 121.041 22.1309V22.1191C121.041 20.9355 121.967 20.25 123.648 20.1445L125.072 20.0625V19.5527C125.072 19.1133 124.744 18.8496 124.17 18.8496C123.625 18.8496 123.291 19.0312 123.168 19.3594L123.156 19.3887H121.275L121.281 19.3184C121.398 18.1172 122.523 17.3262 124.287 17.3262C126.086 17.3262 127.111 18.1465 127.111 19.5527V24H125.072V23.1914H124.961C124.674 23.748 123.977 24.0996 123.145 24.0996ZM123.039 21.9844C123.039 22.3945 123.385 22.6523 123.906 22.6523C124.562 22.6523 125.072 22.2188 125.072 21.6562V21.2285L123.977 21.2988C123.361 21.3398 123.039 21.5859 123.039 21.9727V21.9844ZM131.594 24.0117C129.877 24.0117 129.197 23.4902 129.197 22.2129V19.002H128.201V17.4785H129.197V15.9844H131.277V17.4785H132.584V19.002H131.277V21.7441C131.277 22.2363 131.523 22.4707 132.062 22.4707C132.303 22.4707 132.432 22.4648 132.584 22.4473V23.9297C132.367 23.9766 131.986 24.0117 131.594 24.0117ZM136.949 24.0117C135.232 24.0117 134.553 23.4902 134.553 22.2129V19.002H133.557V17.4785H134.553V15.9844H136.633V17.4785H137.939V19.002H136.633V21.7441C136.633 22.2363 136.879 22.4707 137.418 22.4707C137.658 22.4707 137.787 22.4648 137.939 22.4473V23.9297C137.723 23.9766 137.342 24.0117 136.949 24.0117ZM142.041 24.1523C140.107 24.1523 139.094 23.3086 138.965 22.1719V22.1309H140.98L140.992 22.166C141.115 22.5 141.443 22.752 142.047 22.752C142.604 22.752 142.961 22.5352 142.961 22.1836V22.1777C142.961 21.873 142.738 21.6973 142.146 21.5742L141.021 21.3516C139.762 21.0996 139.117 20.4434 139.117 19.4473V19.4414C139.117 18.1406 140.23 17.3262 141.982 17.3262C143.869 17.3262 144.818 18.2637 144.854 19.3066V19.3359H142.955L142.943 19.2949C142.879 19.0254 142.557 18.7207 141.982 18.7207C141.467 18.7207 141.121 18.9375 141.121 19.3008V19.3125C141.121 19.6055 141.32 19.7754 141.941 19.9043L143.066 20.127C144.414 20.3965 145.029 20.9473 145.029 21.9258V21.9316C145.029 23.2852 143.811 24.1523 142.041 24.1523Z" fill="#62E130" fill-opacity="0.6"/>
</svg>
