<svg width="30" height="30" viewBox="0 0 30 30" fill="none" xmlns="http://www.w3.org/2000/svg">
<path opacity="0.3" d="M8.75 21.25H15.95L8.75 14.05V21.25Z" fill="#62E130" fill-opacity="0.6"/>
<path d="M22.075 22.075L20.75 23.4L19.8625 22.5125L21.1875 21.1875L18.7625 18.7625L17.4375 20.0875L16.55 19.2L17.875 17.875L15.45 15.45L14.125 16.775L13.2375 15.8875L14.5625 14.5625L12.125 12.125L10.8 13.45L9.9125 12.5625L11.2375 11.2375L8.8125 8.8125L7.4875 10.1375L6.6 9.25L7.925 7.925L5 5V22.5C5 23.875 6.125 25 7.5 25H25L22.075 22.075ZM8.75 21.25V14.05L15.95 21.25H8.75Z" fill="#62E130" fill-opacity="0.6"/>
</svg>
