<svg width="30" height="30" viewBox="0 0 30 30" fill="none" xmlns="http://www.w3.org/2000/svg">
<path opacity="0.2" d="M27.1875 15C27.1875 16.466 25.0992 17.5723 24.5297 18.948C23.9813 20.2746 24.6961 22.5398 23.618 23.618C22.5398 24.6961 20.2746 23.9813 18.948 24.5297C17.5781 25.0992 16.4648 27.1875 15 27.1875C13.5352 27.1875 12.4219 25.0992 11.052 24.5297C9.72539 23.9813 7.46133 24.6961 6.38203 23.618C5.30273 22.5398 6.01875 20.2746 5.47031 18.948C4.90078 17.5781 2.8125 16.4648 2.8125 15C2.8125 13.5352 4.90078 12.4219 5.47031 11.052C6.01875 9.72656 5.30391 7.46016 6.38203 6.38203C7.46016 5.30391 9.72656 6.01875 11.052 5.47031C12.4277 4.90078 13.5352 2.8125 15 2.8125C16.4648 2.8125 17.5781 4.90078 18.948 5.47031C20.2746 6.01875 22.5387 5.30391 23.618 6.38203C24.6973 7.46016 23.9813 9.72539 24.5297 11.052C25.0992 12.4277 27.1875 13.5352 27.1875 15Z" fill="#62E130" fill-opacity="0.6"/>
<path d="M26.468 12.0492C26.0262 11.5875 25.5691 11.1117 25.3969 10.6934C25.2375 10.3102 25.2281 9.675 25.2188 9.05977C25.2012 7.91602 25.1824 6.61992 24.2812 5.71875C23.3801 4.81758 22.084 4.79883 20.9402 4.78125C20.325 4.77187 19.6898 4.7625 19.3066 4.60312C18.8895 4.43086 18.4125 3.97383 17.9508 3.53203C17.1422 2.75508 16.2234 1.875 15 1.875C13.7766 1.875 12.859 2.75508 12.0492 3.53203C11.5875 3.97383 11.1117 4.43086 10.6934 4.60312C10.3125 4.7625 9.675 4.77187 9.05977 4.78125C7.91602 4.79883 6.61992 4.81758 5.71875 5.71875C4.81758 6.61992 4.80469 7.91602 4.78125 9.05977C4.77187 9.675 4.7625 10.3102 4.60312 10.6934C4.43086 11.1105 3.97383 11.5875 3.53203 12.0492C2.75508 12.859 1.875 13.7766 1.875 15C1.875 16.2234 2.75508 17.141 3.53203 17.9508C3.97383 18.4125 4.43086 18.8883 4.60312 19.3066C4.7625 19.6898 4.77187 20.325 4.78125 20.9402C4.79883 22.084 4.81758 23.3801 5.71875 24.2812C6.61992 25.1824 7.91602 25.2012 9.05977 25.2188C9.675 25.2281 10.3102 25.2375 10.6934 25.3969C11.1105 25.5691 11.5875 26.0262 12.0492 26.468C12.8578 27.2449 13.7766 28.125 15 28.125C16.2234 28.125 17.141 27.2449 17.9508 26.468C18.4125 26.0262 18.8883 25.5691 19.3066 25.3969C19.6898 25.2375 20.325 25.2281 20.9402 25.2188C22.084 25.2012 23.3801 25.1824 24.2812 24.2812C25.1824 23.3801 25.2012 22.084 25.2188 20.9402C25.2281 20.325 25.2375 19.6898 25.3969 19.3066C25.5691 18.8895 26.0262 18.4125 26.468 17.9508C27.2449 17.141 28.125 16.2234 28.125 15C28.125 13.7766 27.2449 12.859 26.468 12.0492ZM25.1145 16.6535C24.5531 17.2395 23.9719 17.8453 23.6637 18.5895C23.3684 19.3043 23.3555 20.1211 23.3438 20.9121C23.332 21.7324 23.3191 22.5914 22.9547 22.9547C22.5902 23.318 21.7371 23.332 20.9121 23.3438C20.1211 23.3555 19.3043 23.3684 18.5895 23.6637C17.8453 23.9719 17.2395 24.5531 16.6535 25.1145C16.0676 25.6758 15.4688 26.25 15 26.25C14.5312 26.25 13.9277 25.6734 13.3465 25.1145C12.7652 24.5555 12.1547 23.9719 11.4105 23.6637C10.6957 23.3684 9.87891 23.3555 9.08789 23.3438C8.26758 23.332 7.40859 23.3191 7.04531 22.9547C6.68203 22.5902 6.66797 21.7371 6.65625 20.9121C6.64453 20.1211 6.63164 19.3043 6.33633 18.5895C6.02812 17.8453 5.44687 17.2395 4.88555 16.6535C4.32422 16.0676 3.75 15.4688 3.75 15C3.75 14.5312 4.32656 13.9289 4.88555 13.3465C5.44453 12.7641 6.02812 12.1547 6.33633 11.4105C6.63164 10.6957 6.64453 9.87891 6.65625 9.08789C6.66797 8.26758 6.68086 7.40859 7.04531 7.04531C7.40977 6.68203 8.26289 6.66797 9.08789 6.65625C9.87891 6.64453 10.6957 6.63164 11.4105 6.33633C12.1547 6.02812 12.7605 5.44687 13.3465 4.88555C13.9324 4.32422 14.5312 3.75 15 3.75C15.4688 3.75 16.0723 4.32656 16.6535 4.88555C17.2348 5.44453 17.8453 6.02812 18.5895 6.33633C19.3043 6.63164 20.1211 6.64453 20.9121 6.65625C21.7324 6.66797 22.5914 6.68086 22.9547 7.04531C23.318 7.40977 23.332 8.26289 23.3438 9.08789C23.3555 9.87891 23.3684 10.6957 23.6637 11.4105C23.9719 12.1547 24.5531 12.7605 25.1145 13.3465C25.6758 13.9324 26.25 14.5312 26.25 15C26.25 15.4688 25.6734 16.0711 25.1145 16.6535ZM14.0625 11.25C14.0625 10.6937 13.8975 10.15 13.5885 9.68746C13.2795 9.22495 12.8402 8.86446 12.3263 8.65159C11.8124 8.43872 11.2469 8.38302 10.7013 8.49154C10.1557 8.60006 9.6546 8.86793 9.26126 9.26126C8.86793 9.6546 8.60006 10.1557 8.49154 10.7013C8.38302 11.2469 8.43872 11.8124 8.65159 12.3263C8.86446 12.8402 9.22495 13.2795 9.68746 13.5885C10.15 13.8975 10.6937 14.0625 11.25 14.0625C11.9959 14.0625 12.7113 13.7662 13.2387 13.2387C13.7662 12.7113 14.0625 11.9959 14.0625 11.25ZM10.3125 11.25C10.3125 11.0646 10.3675 10.8833 10.4705 10.7292C10.5735 10.575 10.7199 10.4548 10.8912 10.3839C11.0625 10.3129 11.251 10.2943 11.4329 10.3305C11.6148 10.3667 11.7818 10.456 11.9129 10.5871C12.044 10.7182 12.1333 10.8852 12.1695 11.0671C12.2057 11.249 12.1871 11.4375 12.1161 11.6088C12.0452 11.7801 11.925 11.9265 11.7708 12.0295C11.6167 12.1325 11.4354 12.1875 11.25 12.1875C11.0014 12.1875 10.7629 12.0887 10.5871 11.9129C10.4113 11.7371 10.3125 11.4986 10.3125 11.25ZM18.75 15.9375C18.1937 15.9375 17.65 16.1024 17.1875 16.4115C16.7249 16.7205 16.3645 17.1598 16.1516 17.6737C15.9387 18.1876 15.883 18.7531 15.9915 19.2987C16.1001 19.8443 16.3679 20.3454 16.7613 20.7387C17.1546 21.1321 17.6557 21.3999 18.2013 21.5085C18.7469 21.617 19.3124 21.5613 19.8263 21.3484C20.3402 21.1355 20.7795 20.7751 21.0885 20.3125C21.3976 19.85 21.5625 19.3063 21.5625 18.75C21.5625 18.0041 21.2662 17.2887 20.7387 16.7613C20.2113 16.2338 19.4959 15.9375 18.75 15.9375ZM18.75 19.6875C18.5646 19.6875 18.3833 19.6325 18.2292 19.5295C18.075 19.4265 17.9548 19.2801 17.8839 19.1088C17.8129 18.9375 17.7943 18.749 17.8305 18.5671C17.8667 18.3852 17.956 18.2182 18.0871 18.0871C18.2182 17.956 18.3852 17.8667 18.5671 17.8305C18.749 17.7943 18.9375 17.8129 19.1088 17.8839C19.2801 17.9548 19.4265 18.075 19.5295 18.2292C19.6325 18.3833 19.6875 18.5646 19.6875 18.75C19.6875 18.9986 19.5887 19.2371 19.4129 19.4129C19.2371 19.5887 18.9986 19.6875 18.75 19.6875ZM20.3508 10.9758L10.9758 20.3508C10.8887 20.4379 10.7853 20.507 10.6715 20.5541C10.5577 20.6013 10.4357 20.6255 10.3125 20.6255C10.1893 20.6255 10.0673 20.6013 9.95354 20.5541C9.83973 20.507 9.73632 20.4379 9.64922 20.3508C9.56212 20.2637 9.49302 20.1603 9.44588 20.0465C9.39874 19.9327 9.37448 19.8107 9.37448 19.6875C9.37448 19.5643 9.39874 19.4423 9.44588 19.3285C9.49302 19.2147 9.56212 19.1113 9.64922 19.0242L19.0242 9.64922C19.1113 9.56212 19.2147 9.49302 19.3285 9.44588C19.4423 9.39874 19.5643 9.37448 19.6875 9.37448C19.8107 9.37448 19.9327 9.39874 20.0465 9.44588C20.1603 9.49302 20.2637 9.56212 20.3508 9.64922C20.4379 9.73632 20.507 9.83973 20.5541 9.95354C20.6013 10.0673 20.6255 10.1893 20.6255 10.3125C20.6255 10.4357 20.6013 10.5577 20.5541 10.6715C20.507 10.7853 20.4379 10.8887 20.3508 10.9758Z" fill="#62E130" fill-opacity="0.6"/>
</svg>
