<svg width="29" height="29" viewBox="0 0 29 29" fill="none" xmlns="http://www.w3.org/2000/svg">
<path opacity="0.2" d="M20.625 14.0625C20.625 15.3604 20.2401 16.6292 19.519 17.7084C18.7979 18.7876 17.773 19.6288 16.5739 20.1255C15.3747 20.6222 14.0552 20.7521 12.7822 20.4989C11.5092 20.2457 10.3399 19.6207 9.42211 18.7029C8.50433 17.7851 7.87932 16.6158 7.6261 15.3428C7.37288 14.0698 7.50284 12.7503 7.99954 11.5511C8.49624 10.352 9.33738 9.32708 10.4166 8.60598C11.4958 7.88488 12.7646 7.5 14.0625 7.5C15.803 7.5 17.4722 8.1914 18.7029 9.42211C19.9336 10.6528 20.625 12.322 20.625 14.0625Z" fill="#62E130" fill-opacity="0.6"/>
<path d="M13.125 3.75V0.9375C13.125 0.68886 13.2238 0.450403 13.3996 0.274587C13.5754 0.098772 13.8139 0 14.0625 0C14.3111 0 14.5496 0.098772 14.7254 0.274587C14.9012 0.450403 15 0.68886 15 0.9375V3.75C15 3.99864 14.9012 4.2371 14.7254 4.41291C14.5496 4.58873 14.3111 4.6875 14.0625 4.6875C13.8139 4.6875 13.5754 4.58873 13.3996 4.41291C13.2238 4.2371 13.125 3.99864 13.125 3.75ZM21.5625 14.0625C21.5625 15.5459 21.1226 16.9959 20.2985 18.2293C19.4744 19.4626 18.3031 20.4239 16.9326 20.9916C15.5622 21.5593 14.0542 21.7078 12.5993 21.4184C11.1445 21.129 9.80809 20.4147 8.7592 19.3658C7.7103 18.3169 6.996 16.9805 6.70661 15.5257C6.41722 14.0708 6.56575 12.5628 7.1334 11.1924C7.70106 9.82193 8.66235 8.65059 9.89572 7.82648C11.1291 7.00237 12.5791 6.5625 14.0625 6.5625C16.051 6.56467 17.9574 7.35555 19.3634 8.7616C20.7695 10.1676 21.5603 12.074 21.5625 14.0625ZM19.6875 14.0625C19.6875 12.95 19.3576 11.8624 18.7395 10.9374C18.1214 10.0124 17.2429 9.29142 16.2151 8.86568C15.1873 8.43994 14.0563 8.32854 12.9651 8.54558C11.874 8.76263 10.8717 9.29835 10.085 10.085C9.29835 10.8717 8.76263 11.874 8.54558 12.9651C8.32854 14.0563 8.43994 15.1873 8.86568 16.2151C9.29142 17.2429 10.0124 18.1214 10.9374 18.7395C11.8624 19.3576 12.95 19.6875 14.0625 19.6875C15.5539 19.6859 16.9837 19.0928 18.0383 18.0383C19.0928 16.9837 19.6859 15.5539 19.6875 14.0625ZM5.89922 7.22578C6.07513 7.40169 6.31372 7.50052 6.5625 7.50052C6.81128 7.50052 7.04987 7.40169 7.22578 7.22578C7.40169 7.04987 7.50052 6.81128 7.50052 6.5625C7.50052 6.31372 7.40169 6.07513 7.22578 5.89922L5.35078 4.02422C5.17487 3.84831 4.93628 3.74948 4.6875 3.74948C4.43872 3.74948 4.20013 3.84831 4.02422 4.02422C3.84831 4.20013 3.74948 4.43872 3.74948 4.6875C3.74948 4.93628 3.84831 5.17487 4.02422 5.35078L5.89922 7.22578ZM5.89922 20.8992L4.02422 22.7742C3.84831 22.9501 3.74948 23.1887 3.74948 23.4375C3.74948 23.6863 3.84831 23.9249 4.02422 24.1008C4.20013 24.2767 4.43872 24.3755 4.6875 24.3755C4.93628 24.3755 5.17487 24.2767 5.35078 24.1008L7.22578 22.2258C7.31289 22.1387 7.38198 22.0353 7.42912 21.9215C7.47626 21.8077 7.50052 21.6857 7.50052 21.5625C7.50052 21.4393 7.47626 21.3173 7.42912 21.2035C7.38198 21.0897 7.31289 20.9863 7.22578 20.8992C7.13868 20.8121 7.03527 20.743 6.92147 20.6959C6.80766 20.6487 6.68568 20.6245 6.5625 20.6245C6.43932 20.6245 6.31734 20.6487 6.20353 20.6959C6.08973 20.743 5.98632 20.8121 5.89922 20.8992ZM21.5625 7.5C21.6857 7.5001 21.8076 7.47593 21.9214 7.42888C22.0352 7.38183 22.1387 7.31281 22.2258 7.22578L24.1008 5.35078C24.2767 5.17487 24.3755 4.93628 24.3755 4.6875C24.3755 4.43872 24.2767 4.20013 24.1008 4.02422C23.9249 3.84831 23.6863 3.74948 23.4375 3.74948C23.1887 3.74948 22.9501 3.84831 22.7742 4.02422L20.8992 5.89922C20.768 6.03033 20.6786 6.19745 20.6423 6.3794C20.6061 6.56135 20.6246 6.74997 20.6957 6.92137C20.7667 7.09276 20.887 7.23923 21.0413 7.34224C21.1956 7.44524 21.377 7.50015 21.5625 7.5ZM22.2258 20.8992C22.0499 20.7233 21.8113 20.6245 21.5625 20.6245C21.3137 20.6245 21.0751 20.7233 20.8992 20.8992C20.7233 21.0751 20.6245 21.3137 20.6245 21.5625C20.6245 21.8113 20.7233 22.0499 20.8992 22.2258L22.7742 24.1008C22.8613 24.1879 22.9647 24.257 23.0785 24.3041C23.1923 24.3513 23.3143 24.3755 23.4375 24.3755C23.5607 24.3755 23.6827 24.3513 23.7965 24.3041C23.9103 24.257 24.0137 24.1879 24.1008 24.1008C24.1879 24.0137 24.257 23.9103 24.3041 23.7965C24.3513 23.6827 24.3755 23.5607 24.3755 23.4375C24.3755 23.3143 24.3513 23.1923 24.3041 23.0785C24.257 22.9647 24.1879 22.8613 24.1008 22.7742L22.2258 20.8992ZM4.6875 14.0625C4.6875 13.8139 4.58873 13.5754 4.41291 13.3996C4.2371 13.2238 3.99864 13.125 3.75 13.125H0.9375C0.68886 13.125 0.450403 13.2238 0.274587 13.3996C0.098772 13.5754 0 13.8139 0 14.0625C0 14.3111 0.098772 14.5496 0.274587 14.7254C0.450403 14.9012 0.68886 15 0.9375 15H3.75C3.99864 15 4.2371 14.9012 4.41291 14.7254C4.58873 14.5496 4.6875 14.3111 4.6875 14.0625ZM14.0625 23.4375C13.8139 23.4375 13.5754 23.5363 13.3996 23.7121C13.2238 23.8879 13.125 24.1264 13.125 24.375V27.1875C13.125 27.4361 13.2238 27.6746 13.3996 27.8504C13.5754 28.0262 13.8139 28.125 14.0625 28.125C14.3111 28.125 14.5496 28.0262 14.7254 27.8504C14.9012 27.6746 15 27.4361 15 27.1875V24.375C15 24.1264 14.9012 23.8879 14.7254 23.7121C14.5496 23.5363 14.3111 23.4375 14.0625 23.4375ZM27.1875 13.125H24.375C24.1264 13.125 23.8879 13.2238 23.7121 13.3996C23.5363 13.5754 23.4375 13.8139 23.4375 14.0625C23.4375 14.3111 23.5363 14.5496 23.7121 14.7254C23.8879 14.9012 24.1264 15 24.375 15H27.1875C27.4361 15 27.6746 14.9012 27.8504 14.7254C28.0262 14.5496 28.125 14.3111 28.125 14.0625C28.125 13.8139 28.0262 13.5754 27.8504 13.3996C27.6746 13.2238 27.4361 13.125 27.1875 13.125Z" fill="#62E130" fill-opacity="0.6"/>
</svg>
