<svg width="30" height="30" viewBox="0 0 30 30" fill="none" xmlns="http://www.w3.org/2000/svg">
<path opacity="0.2" d="M27.1875 15C27.1875 16.466 25.0992 17.5723 24.5297 18.948C23.9813 20.2746 24.6961 22.5398 23.618 23.618C22.5398 24.6961 20.2746 23.9813 18.948 24.5297C17.5781 25.0992 16.4648 27.1875 15 27.1875C13.5352 27.1875 12.4219 25.0992 11.052 24.5297C9.72539 23.9813 7.46016 24.6961 6.38203 23.618C5.30391 22.5398 6.01875 20.2746 5.47031 18.948C4.90078 17.5781 2.8125 16.4648 2.8125 15C2.8125 13.5352 4.90078 12.4219 5.47031 11.052C6.01875 9.72656 5.30391 7.46016 6.38203 6.38203C7.46016 5.30391 9.72656 6.01875 11.052 5.47031C12.4277 4.90078 13.5352 2.8125 15 2.8125C16.4648 2.8125 17.5781 4.90078 18.948 5.47031C20.2746 6.01875 22.5398 5.30391 23.618 6.38203C24.6961 7.46016 23.9813 9.72539 24.5297 11.052C25.0992 12.4277 27.1875 13.5352 27.1875 15Z" fill="#62E130" fill-opacity="0.6"/>
<path d="M26.468 12.0492C26.0262 11.5875 25.5691 11.1117 25.3969 10.6934C25.2375 10.3102 25.2281 9.675 25.2188 9.05977C25.2012 7.91602 25.1824 6.61992 24.2812 5.71875C23.3801 4.81758 22.084 4.79883 20.9402 4.78125C20.325 4.77187 19.6898 4.7625 19.3066 4.60312C18.8895 4.43086 18.4125 3.97383 17.9508 3.53203C17.1422 2.75508 16.2234 1.875 15 1.875C13.7766 1.875 12.859 2.75508 12.0492 3.53203C11.5875 3.97383 11.1117 4.43086 10.6934 4.60312C10.3125 4.7625 9.675 4.77187 9.05977 4.78125C7.91602 4.79883 6.61992 4.81758 5.71875 5.71875C4.81758 6.61992 4.80469 7.91602 4.78125 9.05977C4.77187 9.675 4.7625 10.3102 4.60312 10.6934C4.43086 11.1105 3.97383 11.5875 3.53203 12.0492C2.75508 12.8578 1.875 13.7766 1.875 15C1.875 16.2234 2.75508 17.141 3.53203 17.9508C3.97383 18.4125 4.43086 18.8883 4.60312 19.3066C4.7625 19.6898 4.77187 20.325 4.78125 20.9402C4.79883 22.084 4.81758 23.3801 5.71875 24.2812C6.61992 25.1824 7.91602 25.2012 9.05977 25.2188C9.675 25.2281 10.3102 25.2375 10.6934 25.3969C11.1105 25.5691 11.5875 26.0262 12.0492 26.468C12.8578 27.2449 13.7766 28.125 15 28.125C16.2234 28.125 17.141 27.2449 17.9508 26.468C18.4125 26.0262 18.8883 25.5691 19.3066 25.3969C19.6898 25.2375 20.325 25.2281 20.9402 25.2188C22.084 25.2012 23.3801 25.1824 24.2812 24.2812C25.1824 23.3801 25.2012 22.084 25.2188 20.9402C25.2281 20.325 25.2375 19.6898 25.3969 19.3066C25.5691 18.8895 26.0262 18.4125 26.468 17.9508C27.2449 17.1422 28.125 16.2234 28.125 15C28.125 13.7766 27.2449 12.859 26.468 12.0492ZM25.1145 16.6535C24.5531 17.2395 23.9719 17.8453 23.6637 18.5895C23.3684 19.3043 23.3555 20.1211 23.3438 20.9121C23.332 21.7324 23.3191 22.5914 22.9547 22.9547C22.5902 23.318 21.7371 23.332 20.9121 23.3438C20.1211 23.3555 19.3043 23.3684 18.5895 23.6637C17.8453 23.9719 17.2395 24.5531 16.6535 25.1145C16.0676 25.6758 15.4688 26.25 15 26.25C14.5312 26.25 13.9277 25.6734 13.3465 25.1145C12.7652 24.5555 12.1547 23.9719 11.4105 23.6637C10.6957 23.3684 9.87891 23.3555 9.08789 23.3438C8.26758 23.332 7.40859 23.3191 7.04531 22.9547C6.68203 22.5902 6.66797 21.7371 6.65625 20.9121C6.64453 20.1211 6.63164 19.3043 6.33633 18.5895C6.02812 17.8453 5.44687 17.2395 4.88555 16.6535C4.32422 16.0676 3.75 15.4688 3.75 15C3.75 14.5312 4.32656 13.9277 4.88555 13.3465C5.44453 12.7652 6.02812 12.1547 6.33633 11.4105C6.63164 10.6957 6.64453 9.87891 6.65625 9.08789C6.66797 8.26758 6.68086 7.40859 7.04531 7.04531C7.40977 6.68203 8.26289 6.66797 9.08789 6.65625C9.87891 6.64453 10.6957 6.63164 11.4105 6.33633C12.1547 6.02812 12.7605 5.44687 13.3465 4.88555C13.9324 4.32422 14.5312 3.75 15 3.75C15.4688 3.75 16.0723 4.32656 16.6535 4.88555C17.2348 5.44453 17.8453 6.02812 18.5895 6.33633C19.3043 6.63164 20.1211 6.64453 20.9121 6.65625C21.7324 6.66797 22.5914 6.68086 22.9547 7.04531C23.318 7.40977 23.332 8.26289 23.3438 9.08789C23.3555 9.87891 23.3684 10.6957 23.6637 11.4105C23.9719 12.1547 24.5531 12.7605 25.1145 13.3465C25.6758 13.9324 26.25 14.5312 26.25 15C26.25 15.4688 25.6734 16.0723 25.1145 16.6535ZM20.3508 11.5242C20.4379 11.6113 20.5071 11.7147 20.5543 11.8285C20.6015 11.9423 20.6257 12.0643 20.6257 12.1875C20.6257 12.3107 20.6015 12.4327 20.5543 12.5465C20.5071 12.6603 20.4379 12.7637 20.3508 12.8508L13.7883 19.4133C13.7012 19.5004 13.5978 19.5696 13.484 19.6168C13.3702 19.664 13.2482 19.6882 13.125 19.6882C13.0018 19.6882 12.8798 19.664 12.766 19.6168C12.6522 19.5696 12.5488 19.5004 12.4617 19.4133L9.64922 16.6008C9.47331 16.4249 9.37448 16.1863 9.37448 15.9375C9.37448 15.6887 9.47331 15.4501 9.64922 15.2742C9.82513 15.0983 10.0637 14.9995 10.3125 14.9995C10.5613 14.9995 10.7999 15.0983 10.9758 15.2742L13.125 17.4246L19.0242 11.5242C19.1113 11.4371 19.2147 11.3679 19.3285 11.3207C19.4423 11.2735 19.5643 11.2493 19.6875 11.2493C19.8107 11.2493 19.9327 11.2735 20.0465 11.3207C20.1603 11.3679 20.2637 11.4371 20.3508 11.5242Z" fill="#62E130" fill-opacity="0.6"/>
</svg>
