<svg width="56" height="56" viewBox="0 0 56 56" fill="none" xmlns="http://www.w3.org/2000/svg">
<path fill-rule="evenodd" clip-rule="evenodd" d="M16.332 6.41504C15.3655 6.41504 14.582 7.19854 14.582 8.16504V47.8317C14.582 48.7982 15.3655 49.5817 16.332 49.5817H39.6654C40.6319 49.5817 41.4154 48.7982 41.4154 47.8317V8.16504C41.4154 7.19854 40.6319 6.41504 39.6654 6.41504H16.332ZM11.082 8.16504C11.082 5.26554 13.4325 2.91504 16.332 2.91504H39.6654C42.5649 2.91504 44.9154 5.26554 44.9154 8.16504V47.8317C44.9154 50.7312 42.5649 53.0817 39.6654 53.0817H16.332C13.4325 53.0817 11.082 50.7312 11.082 47.8317V8.16504Z" fill="#21606A"/>
<path fill-rule="evenodd" clip-rule="evenodd" d="M23.9154 11.665C23.9154 10.6985 24.6989 9.91504 25.6654 9.91504H30.332C31.2985 9.91504 32.082 10.6985 32.082 11.665C32.082 12.6315 31.2985 13.415 30.332 13.415H25.6654C24.6989 13.415 23.9154 12.6315 23.9154 11.665Z" fill="#21606A"/>
<path fill-rule="evenodd" clip-rule="evenodd" d="M32.7362 22.0954C33.4197 22.7788 33.4198 23.8868 32.7365 24.5703L26.3903 30.9177H33.8374C34.5453 30.9177 35.1834 31.3442 35.4543 31.9982C35.7251 32.6522 35.5752 33.405 35.0746 33.9054L25.7369 43.2395C25.0534 43.9227 23.9454 43.9225 23.2621 43.239C22.5788 42.5554 22.579 41.4474 23.2626 40.7641L29.6114 34.4177H22.1661C21.4583 34.4177 20.8202 33.9914 20.5493 33.3375C20.2784 32.6836 20.4281 31.931 20.9285 31.4304L30.2614 22.0957C30.9447 21.4122 32.0528 21.4121 32.7362 22.0954Z" fill="#21606A"/>
</svg>
