<svg width="56" height="56" viewBox="0 0 56 56" fill="none" xmlns="http://www.w3.org/2000/svg">
<path fill-rule="evenodd" clip-rule="evenodd" d="M15.75 15.75V28C15.75 34.7655 21.2345 40.25 28 40.25C34.7655 40.25 40.25 34.7655 40.25 28V15.75H15.75ZM12.25 14.3269C12.25 13.1798 13.1798 12.25 14.3269 12.25H41.6731C42.8202 12.25 43.75 13.1798 43.75 14.3269V28C43.75 36.6985 36.6985 43.75 28 43.75C19.3015 43.75 12.25 36.6985 12.25 28V14.3269Z" fill="#21606A"/>
<path fill-rule="evenodd" clip-rule="evenodd" d="M23.3333 2.91667C24.2998 2.91667 25.0833 3.70017 25.0833 4.66667V14C25.0833 14.9665 24.2998 15.75 23.3333 15.75C22.3668 15.75 21.5833 14.9665 21.5833 14V4.66667C21.5833 3.70017 22.3668 2.91667 23.3333 2.91667Z" fill="#21606A"/>
<path fill-rule="evenodd" clip-rule="evenodd" d="M32.6667 2.91667C33.6332 2.91667 34.4167 3.70017 34.4167 4.66667V14C34.4167 14.9665 33.6332 15.75 32.6667 15.75C31.7002 15.75 30.9167 14.9665 30.9167 14V4.66667C30.9167 3.70017 31.7002 2.91667 32.6667 2.91667Z" fill="#21606A"/>
<path fill-rule="evenodd" clip-rule="evenodd" d="M23.9167 31.5C23.9167 30.5335 24.7002 29.75 25.6667 29.75H30.3333C31.2998 29.75 32.0833 30.5335 32.0833 31.5C32.0833 32.4665 31.2998 33.25 30.3333 33.25H25.6667C24.7002 33.25 23.9167 32.4665 23.9167 31.5Z" fill="#21606A"/>
<path fill-rule="evenodd" clip-rule="evenodd" d="M28 40.25C28.9665 40.25 29.75 41.0335 29.75 42V47.8333C29.75 48.7999 30.5334 49.5833 31.5 49.5833H44.3333C45.2998 49.5833 46.0833 50.3668 46.0833 51.3333C46.0833 52.2998 45.2998 53.0833 44.3333 53.0833H31.5C28.6005 53.0833 26.25 50.7329 26.25 47.8333V42C26.25 41.0335 27.0335 40.25 28 40.25Z" fill="#21606A"/>
</svg>
