<svg width="56" height="56" viewBox="0 0 56 56" fill="none" xmlns="http://www.w3.org/2000/svg">
<path fill-rule="evenodd" clip-rule="evenodd" d="M8.16634 11.0833C7.84417 11.0833 7.58301 11.3445 7.58301 11.6667V44.3333C7.58301 44.6555 7.84417 44.9167 8.16634 44.9167H47.833C48.1552 44.9167 48.4163 44.6555 48.4163 44.3333V11.6667C48.4163 11.3445 48.1552 11.0833 47.833 11.0833H8.16634ZM4.08301 11.6667C4.08301 9.4115 5.91118 7.58333 8.16634 7.58333H47.833C50.0882 7.58333 51.9163 9.4115 51.9163 11.6667V44.3333C51.9163 46.5885 50.0882 48.4167 47.833 48.4167H8.16634C5.91118 48.4167 4.08301 46.5885 4.08301 44.3333V11.6667Z" fill="#21606A"/>
<path fill-rule="evenodd" clip-rule="evenodd" d="M15.1663 7.58333C16.1328 7.58333 16.9163 8.36683 16.9163 9.33333V46.6667C16.9163 47.6332 16.1328 48.4167 15.1663 48.4167C14.1998 48.4167 13.4163 47.6332 13.4163 46.6667V9.33333C13.4163 8.36683 14.1998 7.58333 15.1663 7.58333Z" fill="#21606A"/>
<path fill-rule="evenodd" clip-rule="evenodd" d="M32.6663 19.25C27.8338 19.25 23.9163 23.1675 23.9163 28C23.9163 32.8325 27.8338 36.75 32.6663 36.75C37.4988 36.75 41.4163 32.8325 41.4163 28C41.4163 23.1675 37.4988 19.25 32.6663 19.25ZM20.4163 28C20.4163 21.2345 25.9009 15.75 32.6663 15.75C39.4318 15.75 44.9163 21.2345 44.9163 28C44.9163 34.7655 39.4318 40.25 32.6663 40.25C25.9009 40.25 20.4163 34.7655 20.4163 28Z" fill="#21606A"/>
<path d="M32.6663 31.5C34.5993 31.5 36.1663 29.933 36.1663 28C36.1663 26.067 34.5993 24.5 32.6663 24.5C30.7333 24.5 29.1663 26.067 29.1663 28C29.1663 29.933 30.7333 31.5 32.6663 31.5Z" fill="#21606A"/>
<path fill-rule="evenodd" clip-rule="evenodd" d="M4.08301 18.6667C4.08301 17.7002 4.86651 16.9167 5.83301 16.9167H15.1663C16.1328 16.9167 16.9163 17.7002 16.9163 18.6667C16.9163 19.6332 16.1328 20.4167 15.1663 20.4167H5.83301C4.86651 20.4167 4.08301 19.6332 4.08301 18.6667Z" fill="#21606A"/>
<path fill-rule="evenodd" clip-rule="evenodd" d="M4.08301 28C4.08301 27.0335 4.86651 26.25 5.83301 26.25H15.1663C16.1328 26.25 16.9163 27.0335 16.9163 28C16.9163 28.9665 16.1328 29.75 15.1663 29.75H5.83301C4.86651 29.75 4.08301 28.9665 4.08301 28Z" fill="#21606A"/>
<path fill-rule="evenodd" clip-rule="evenodd" d="M4.08301 37.3333C4.08301 36.3668 4.86651 35.5833 5.83301 35.5833H15.1663C16.1328 35.5833 16.9163 36.3668 16.9163 37.3333C16.9163 38.2998 16.1328 39.0833 15.1663 39.0833H5.83301C4.86651 39.0833 4.08301 38.2998 4.08301 37.3333Z" fill="#21606A"/>
</svg>
