<svg width="57" height="56" viewBox="0 0 57 56" fill="none" xmlns="http://www.w3.org/2000/svg">
<path fill-rule="evenodd" clip-rule="evenodd" d="M14.6602 6.41667C13.6936 6.41667 12.9102 7.20016 12.9102 8.16667V47.8333C12.9102 48.7999 13.6936 49.5833 14.6602 49.5833H42.6602C43.6267 49.5833 44.4102 48.7999 44.4102 47.8333V8.16667C44.4102 7.20016 43.6267 6.41667 42.6602 6.41667H14.6602ZM9.41016 8.16667C9.41016 5.2672 11.7606 2.91667 14.6602 2.91667H42.6602C45.5597 2.91667 47.9102 5.2672 47.9102 8.16667V47.8333C47.9102 50.7329 45.5597 53.0833 42.6602 53.0833H14.6602C11.7606 53.0833 9.41016 50.7329 9.41016 47.8333V8.16667Z" fill="#21606A"/>
<path fill-rule="evenodd" clip-rule="evenodd" d="M18.7435 25.6667C18.7435 20.1898 23.1833 15.75 28.6602 15.75C34.137 15.75 38.5768 20.1898 38.5768 25.6667C38.5768 31.1435 34.137 35.5833 28.6602 35.5833C23.1833 35.5833 18.7435 31.1435 18.7435 25.6667ZM28.6602 19.25C25.1163 19.25 22.2435 22.1228 22.2435 25.6667C22.2435 29.2105 25.1163 32.0833 28.6602 32.0833C32.204 32.0833 35.0768 29.2105 35.0768 25.6667C35.0768 22.1228 32.204 19.25 28.6602 19.25Z" fill="#21606A"/>
<path d="M40.3268 11.6667C40.3268 10.378 39.2822 9.33334 37.9935 9.33334C36.7048 9.33334 35.6602 10.378 35.6602 11.6667C35.6602 12.9553 36.7048 14 37.9935 14C39.2822 14 40.3268 12.9553 40.3268 11.6667Z" fill="#21606A"/>
<path fill-rule="evenodd" clip-rule="evenodd" d="M30.4102 42C30.4102 41.0335 31.1937 40.25 32.1602 40.25H34.4935C35.46 40.25 36.2435 41.0335 36.2435 42C36.2435 42.9665 35.46 43.75 34.4935 43.75H32.1602C31.1937 43.75 30.4102 42.9665 30.4102 42Z" fill="#21606A"/>
<path fill-rule="evenodd" clip-rule="evenodd" d="M21.0768 42C21.0768 41.0335 21.8603 40.25 22.8268 40.25H25.1602C26.1267 40.25 26.9102 41.0335 26.9102 42C26.9102 42.9665 26.1267 43.75 25.1602 43.75H22.8268C21.8603 43.75 21.0768 42.9665 21.0768 42Z" fill="#21606A"/>
</svg>
