<svg width="33" height="32" viewBox="0 0 33 32" fill="none" xmlns="http://www.w3.org/2000/svg">
<path d="M16.4993 1.66699C17.0516 1.66699 17.4993 2.11471 17.4993 2.66699V4.00033C17.4993 4.55261 17.0516 5.00033 16.4993 5.00033C15.9471 5.00033 15.4993 4.55261 15.4993 4.00033V2.66699C15.4993 2.11471 15.9471 1.66699 16.4993 1.66699Z" fill="#21606A"/>
<path d="M7.77838 5.86516C7.38786 5.47463 6.75469 5.47463 6.36417 5.86516C5.97365 6.25568 5.97365 6.88885 6.36417 7.27937L7.30698 8.22218C7.6975 8.61271 8.33067 8.61271 8.72119 8.22218C9.11172 7.83166 9.11172 7.19849 8.72119 6.80797L7.77838 5.86516Z" fill="#21606A"/>
<path d="M30.8327 16.0003C30.8327 16.5526 30.385 17.0003 29.8327 17.0003H28.4993C27.9471 17.0003 27.4993 16.5526 27.4993 16.0003C27.4993 15.448 27.9471 15.0003 28.4993 15.0003H29.8327C30.385 15.0003 30.8327 15.448 30.8327 16.0003Z" fill="#21606A"/>
<path d="M26.6345 7.27936C27.025 6.88884 27.025 6.25567 26.6345 5.86515C26.244 5.47462 25.6108 5.47462 25.2203 5.86515L24.2775 6.80796C23.887 7.19848 23.887 7.83165 24.2775 8.22217C24.668 8.61269 25.3012 8.61269 25.6917 8.22217L26.6345 7.27936Z" fill="#21606A"/>
<path d="M16.4993 27.0003C17.0516 27.0003 17.4993 27.448 17.4993 28.0003V29.3337C17.4993 29.8859 17.0516 30.3337 16.4993 30.3337C15.9471 30.3337 15.4993 29.8859 15.4993 29.3337V28.0003C15.4993 27.448 15.9471 27.0003 16.4993 27.0003Z" fill="#21606A"/>
<path d="M25.6918 23.7785C25.3013 23.388 24.6681 23.388 24.2776 23.7785C23.8871 24.169 23.8871 24.8022 24.2776 25.1927L25.2204 26.1355C25.6109 26.526 26.2441 26.526 26.6346 26.1355C27.0251 25.745 27.0251 25.1118 26.6346 24.7213L25.6918 23.7785Z" fill="#21606A"/>
<path d="M5.49935 16.0003C5.49935 16.5526 5.05163 17.0003 4.49935 17.0003H3.16602C2.61373 17.0003 2.16602 16.5526 2.16602 16.0003C2.16602 15.448 2.61373 15.0003 3.16602 15.0003H4.49935C5.05163 15.0003 5.49935 15.448 5.49935 16.0003Z" fill="#21606A"/>
<path d="M8.7211 25.1927C9.11163 24.8022 9.11163 24.169 8.7211 23.7785C8.33058 23.388 7.69741 23.388 7.30689 23.7785L6.36408 24.7213C5.97356 25.1118 5.97356 25.745 6.36408 26.1355C6.75461 26.526 7.38777 26.526 7.77829 26.1355L8.7211 25.1927Z" fill="#21606A"/>
<circle cx="16.4993" cy="16.0003" r="8" stroke="#21606A" stroke-width="2.66667"/>
</svg>
