<svg width="57" height="56" viewBox="0 0 57 56" fill="none" xmlns="http://www.w3.org/2000/svg">
<path fill-rule="evenodd" clip-rule="evenodd" d="M50.4612 3.3314C50.8537 3.66391 51.0801 4.15227 51.0801 4.66668V12.8334C51.0801 13.6888 50.4616 14.4189 49.6178 14.5595L7.61778 21.5595C7.11036 21.6441 6.59143 21.5011 6.19892 21.1686C5.80641 20.8361 5.58008 20.3478 5.58008 19.8334V11.6667C5.58008 10.8112 6.19855 10.0811 7.04238 9.9405L49.0424 2.9405C49.5498 2.85593 50.0687 2.99889 50.4612 3.3314ZM9.08008 13.1492V17.7675L47.5801 11.3509V6.73249L9.08008 13.1492Z" fill="#21606A"/>
<path fill-rule="evenodd" clip-rule="evenodd" d="M50.4612 19.6647C50.8537 19.9972 51.0801 20.4856 51.0801 21V29.1667C51.0801 30.0222 50.4616 30.7522 49.6178 30.8929L7.61778 37.8929C7.11036 37.9774 6.59143 37.8345 6.19892 37.502C5.80641 37.1695 5.58008 36.6811 5.58008 36.1667V28C5.58008 27.1445 6.19855 26.4145 7.04238 26.2738L49.0424 19.2738C49.5498 19.1893 50.0687 19.3322 50.4612 19.6647ZM9.08008 29.4825V34.1009L47.5801 27.6842V23.0658L9.08008 29.4825Z" fill="#21606A"/>
<path fill-rule="evenodd" clip-rule="evenodd" d="M50.4612 35.9981C50.8537 36.3306 51.0801 36.8189 51.0801 37.3334V45.5C51.0801 46.3555 50.4616 47.0856 49.6178 47.2262L7.61778 54.2262C7.11036 54.3108 6.59143 54.1678 6.19892 53.8353C5.80641 53.5028 5.58008 53.0144 5.58008 52.5V44.3334C5.58008 43.4779 6.19855 42.7478 7.04238 42.6072L49.0424 35.6072C49.5498 35.5226 50.0687 35.6656 50.4612 35.9981ZM9.08008 45.8158V50.4342L47.5801 44.0175V39.3992L9.08008 45.8158Z" fill="#21606A"/>
</svg>
