<svg width="148" height="148" viewBox="0 0 148 148" fill="none" xmlns="http://www.w3.org/2000/svg">
<rect x="0.59668" y="60.8445" width="6.68085" height="6.68085" rx="3.34042" fill="#E7ECF9"/>
<rect x="0.59668" y="0.716919" width="6.68085" height="6.68085" rx="3.34042" fill="#E7ECF9"/>
<rect x="20.6396" y="60.8445" width="6.68085" height="6.68085" rx="3.34042" fill="#E7ECF9"/>
<rect x="20.6396" y="0.716919" width="6.68085" height="6.68085" rx="3.34042" fill="#E7ECF9"/>
<rect x="40.6816" y="60.8445" width="6.68085" height="6.68085" rx="3.34042" fill="#E7ECF9"/>
<rect x="40.6816" y="0.716919" width="6.68085" height="6.68085" rx="3.34042" fill="#E7ECF9"/>
<rect x="60.7246" y="60.8445" width="6.68085" height="6.68085" rx="3.34042" fill="#E7ECF9"/>
<rect x="60.7246" y="0.716919" width="6.68085" height="6.68085" rx="3.34042" fill="#E7ECF9"/>
<rect x="80.7666" y="60.8445" width="6.68085" height="6.68085" rx="3.34042" fill="#E7ECF9"/>
<rect x="80.7666" y="0.716919" width="6.68085" height="6.68085" rx="3.34042" fill="#E7ECF9"/>
<rect x="100.81" y="60.8445" width="6.68085" height="6.68085" rx="3.34042" fill="#E7ECF9"/>
<rect x="100.81" y="0.716919" width="6.68085" height="6.68085" rx="3.34042" fill="#E7ECF9"/>
<rect x="120.852" y="60.8445" width="6.68085" height="6.68085" rx="3.34042" fill="#E7ECF9"/>
<rect x="120.852" y="0.716919" width="6.68085" height="6.68085" rx="3.34042" fill="#E7ECF9"/>
<rect x="140.895" y="60.8445" width="6.68085" height="6.68085" rx="3.34042" fill="#E7ECF9"/>
<rect x="140.895" y="0.716919" width="6.68085" height="6.68085" rx="3.34042" fill="#E7ECF9"/>
<rect x="0.59668" y="80.8871" width="6.68085" height="6.68085" rx="3.34042" fill="#E7ECF9"/>
<rect x="0.59668" y="20.7595" width="6.68085" height="6.68085" rx="3.34042" fill="#E7ECF9"/>
<rect x="20.6396" y="80.8871" width="6.68085" height="6.68085" rx="3.34042" fill="#E7ECF9"/>
<rect x="20.6396" y="20.7595" width="6.68085" height="6.68085" rx="3.34042" fill="#E7ECF9"/>
<rect x="40.6816" y="80.8871" width="6.68085" height="6.68085" rx="3.34042" fill="#E7ECF9"/>
<rect x="40.6816" y="20.7595" width="6.68085" height="6.68085" rx="3.34042" fill="#E7ECF9"/>
<rect x="60.7246" y="80.8871" width="6.68085" height="6.68085" rx="3.34042" fill="#E7ECF9"/>
<rect x="60.7246" y="20.7595" width="6.68085" height="6.68085" rx="3.34042" fill="#E7ECF9"/>
<rect x="80.7666" y="80.8871" width="6.68085" height="6.68085" rx="3.34042" fill="#E7ECF9"/>
<rect x="80.7666" y="20.7595" width="6.68085" height="6.68085" rx="3.34042" fill="#E7ECF9"/>
<rect x="100.81" y="80.8871" width="6.68085" height="6.68085" rx="3.34042" fill="#E7ECF9"/>
<rect x="100.81" y="20.7595" width="6.68085" height="6.68085" rx="3.34042" fill="#E7ECF9"/>
<rect x="120.852" y="80.8871" width="6.68085" height="6.68085" rx="3.34042" fill="#E7ECF9"/>
<rect x="120.852" y="20.7595" width="6.68085" height="6.68085" rx="3.34042" fill="#E7ECF9"/>
<rect x="140.895" y="80.8871" width="6.68085" height="6.68085" rx="3.34042" fill="#E7ECF9"/>
<rect x="140.895" y="20.7595" width="6.68085" height="6.68085" rx="3.34042" fill="#E7ECF9"/>
<rect x="0.59668" y="100.93" width="6.68085" height="6.68085" rx="3.34042" fill="#E7ECF9"/>
<rect x="0.59668" y="40.802" width="6.68085" height="6.68085" rx="3.34042" fill="#E7ECF9"/>
<rect x="20.6396" y="100.93" width="6.68085" height="6.68085" rx="3.34042" fill="#E7ECF9"/>
<rect x="20.6396" y="40.802" width="6.68085" height="6.68085" rx="3.34042" fill="#E7ECF9"/>
<rect x="40.6816" y="100.93" width="6.68085" height="6.68085" rx="3.34042" fill="#E7ECF9"/>
<rect x="40.6816" y="40.802" width="6.68085" height="6.68085" rx="3.34042" fill="#E7ECF9"/>
<rect x="60.7246" y="100.93" width="6.68085" height="6.68085" rx="3.34042" fill="#E7ECF9"/>
<rect x="60.7246" y="40.802" width="6.68085" height="6.68085" rx="3.34042" fill="#E7ECF9"/>
<rect x="80.7666" y="100.93" width="6.68085" height="6.68085" rx="3.34042" fill="#E7ECF9"/>
<rect x="80.7666" y="40.802" width="6.68085" height="6.68085" rx="3.34042" fill="#E7ECF9"/>
<rect x="100.81" y="100.93" width="6.68085" height="6.68085" rx="3.34042" fill="#E7ECF9"/>
<rect x="100.81" y="40.802" width="6.68085" height="6.68085" rx="3.34042" fill="#E7ECF9"/>
<rect x="120.852" y="100.93" width="6.68085" height="6.68085" rx="3.34042" fill="#E7ECF9"/>
<rect x="120.852" y="40.802" width="6.68085" height="6.68085" rx="3.34042" fill="#E7ECF9"/>
<rect x="140.895" y="100.93" width="6.68085" height="6.68085" rx="3.34042" fill="#E7ECF9"/>
<rect x="140.895" y="40.802" width="6.68085" height="6.68085" rx="3.34042" fill="#E7ECF9"/>
<rect x="0.59668" y="120.972" width="6.68085" height="6.68085" rx="3.34042" fill="#E7ECF9"/>
<rect x="20.6396" y="120.972" width="6.68085" height="6.68085" rx="3.34042" fill="#E7ECF9"/>
<rect x="40.6816" y="120.972" width="6.68085" height="6.68085" rx="3.34042" fill="#E7ECF9"/>
<rect x="60.7246" y="120.972" width="6.68085" height="6.68085" rx="3.34042" fill="#E7ECF9"/>
<rect x="80.7666" y="120.972" width="6.68085" height="6.68085" rx="3.34042" fill="#E7ECF9"/>
<rect x="100.81" y="120.972" width="6.68085" height="6.68085" rx="3.34042" fill="#E7ECF9"/>
<rect x="120.852" y="120.972" width="6.68085" height="6.68085" rx="3.34042" fill="#E7ECF9"/>
<rect x="140.895" y="120.972" width="6.68085" height="6.68085" rx="3.34042" fill="#E7ECF9"/>
<rect x="0.59668" y="141.015" width="6.68085" height="6.68085" rx="3.34042" fill="#E7ECF9"/>
<rect x="20.6396" y="141.015" width="6.68085" height="6.68085" rx="3.34042" fill="#E7ECF9"/>
<rect x="40.6816" y="141.015" width="6.68085" height="6.68085" rx="3.34042" fill="#E7ECF9"/>
<rect x="60.7246" y="141.015" width="6.68085" height="6.68085" rx="3.34042" fill="#E7ECF9"/>
<rect x="80.7666" y="141.015" width="6.68085" height="6.68085" rx="3.34042" fill="#E7ECF9"/>
<rect x="100.81" y="141.015" width="6.68085" height="6.68085" rx="3.34042" fill="#E7ECF9"/>
<rect x="120.852" y="141.015" width="6.68085" height="6.68085" rx="3.34042" fill="#E7ECF9"/>
<rect x="140.895" y="141.015" width="6.68085" height="6.68085" rx="3.34042" fill="#E7ECF9"/>
</svg>
