<svg width="40" height="40" viewBox="0 0 40 40" fill="none" xmlns="http://www.w3.org/2000/svg">
<path d="M37.3008 16.5466C37.624 16.5466 37.934 16.4182 38.1626 16.1897C38.3911 15.9611 38.5195 15.6511 38.5195 15.3279C38.5195 15.0046 38.3911 14.6947 38.1626 14.4661C37.934 14.2375 37.624 14.1091 37.3008 14.1091L34.8633 14.1091L34.8633 12.281L37.3008 12.281C37.624 12.281 37.934 12.1526 38.1626 11.924C38.3911 11.6955 38.5195 11.3855 38.5195 11.0623C38.5195 10.739 38.3911 10.429 38.1626 10.2005C37.934 9.97191 37.624 9.84351 37.3008 9.84351L34.7475 9.84351C34.5093 8.67049 33.9309 7.5936 33.0846 6.74723C32.2382 5.90085 31.1613 5.32248 29.9883 5.08429L29.9883 2.53101C29.9883 2.20777 29.8599 1.89778 29.6313 1.66922C29.4028 1.44066 29.0928 1.31226 28.7695 1.31226C28.4463 1.31226 28.1363 1.44066 27.9077 1.66922C27.6792 1.89778 27.5508 2.20777 27.5508 2.53101L27.5508 4.96851L25.7227 4.96851L25.7227 2.53101C25.7227 2.20777 25.5943 1.89778 25.3657 1.66922C25.1371 1.44066 24.8271 1.31226 24.5039 1.31226C24.1807 1.31226 23.8707 1.44066 23.6421 1.66922C23.4136 1.89778 23.2852 2.20777 23.2852 2.53101L23.2852 4.96851L21.457 4.96851L21.457 2.53101C21.457 2.20777 21.3286 1.89778 21.1001 1.66922C20.8715 1.44066 20.5615 1.31226 20.2383 1.31226C19.915 1.31226 19.6051 1.44066 19.3765 1.66922C19.1479 1.89778 19.0195 2.20777 19.0195 2.53101L19.0195 4.96851L17.1914 4.96851L17.1914 2.53101C17.1914 2.20777 17.063 1.89778 16.8344 1.66922C16.6059 1.44066 16.2959 1.31226 15.9727 1.31226C15.6494 1.31226 15.3394 1.44066 15.1109 1.66922C14.8823 1.89778 14.7539 2.20777 14.7539 2.53101L14.7539 4.96851L12.9258 4.96851L12.9258 2.53101C12.9258 2.20777 12.7974 1.89778 12.5688 1.66922C12.3403 1.44066 12.0303 1.31226 11.707 1.31226C11.3838 1.31226 11.0738 1.44066 10.8452 1.66922C10.6167 1.89778 10.4883 2.20777 10.4883 2.53101L10.4883 5.08429C9.31527 5.32248 8.23838 5.90085 7.392 6.74723C6.54563 7.5936 5.96726 8.67049 5.72906 9.84351L3.17578 9.84351C2.85255 9.84351 2.54255 9.97191 2.31399 10.2005C2.08543 10.429 1.95703 10.739 1.95703 11.0623C1.95703 11.3855 2.08543 11.6955 2.31399 11.924C2.54255 12.1526 2.85255 12.281 3.17578 12.281L5.61328 12.281L5.61328 14.1091L3.17578 14.1091C2.85255 14.1091 2.54255 14.2375 2.31399 14.4661C2.08543 14.6947 1.95703 15.0046 1.95703 15.3279C1.95703 15.6511 2.08543 15.9611 2.31399 16.1897C2.54255 16.4182 2.85255 16.5466 3.17578 16.5466L5.61328 16.5466L5.61328 18.3748L3.17578 18.3748C2.85255 18.3748 2.54255 18.5032 2.31399 18.7317C2.08543 18.9603 1.95703 19.2703 1.95703 19.5935C1.95703 19.9167 2.08543 20.2267 2.31399 20.4553C2.54255 20.6839 2.85255 20.8123 3.17578 20.8123L5.61328 20.8123L5.61328 22.6404L3.17578 22.6404C2.85255 22.6404 2.54255 22.7688 2.31399 22.9973C2.08543 23.2259 1.95703 23.5359 1.95703 23.8591C1.95703 24.1824 2.08543 24.4924 2.31399 24.7209C2.54255 24.9495 2.85255 25.0779 3.17578 25.0779L5.61328 25.0779L5.61328 26.906L3.17578 26.906C2.85255 26.906 2.54255 27.0344 2.31399 27.263C2.08543 27.4915 1.95703 27.8015 1.95703 28.1248C1.95703 28.448 2.08543 28.758 2.31399 28.9865C2.54255 29.2151 2.85255 29.3435 3.17578 29.3435L5.72906 29.3435C5.96726 30.5165 6.54563 31.5934 7.392 32.4398C8.23838 33.2862 9.31527 33.8645 10.4883 34.1027L10.4883 36.656C10.4883 36.9792 10.6167 37.2892 10.8452 37.5178C11.0738 37.7464 11.3838 37.8748 11.707 37.8748C12.0303 37.8748 12.3403 37.7464 12.5688 37.5178C12.7974 37.2892 12.9258 36.9792 12.9258 36.656L12.9258 34.2185L14.7539 34.2185L14.7539 36.656C14.7539 36.9792 14.8823 37.2892 15.1109 37.5178C15.3394 37.7464 15.6494 37.8748 15.9727 37.8748C16.2959 37.8748 16.6059 37.7464 16.8344 37.5178C17.063 37.2892 17.1914 36.9792 17.1914 36.656L17.1914 34.2185L19.0195 34.2185L19.0195 36.656C19.0195 36.9792 19.1479 37.2892 19.3765 37.5178C19.6051 37.7464 19.915 37.8748 20.2383 37.8748C20.5615 37.8748 20.8715 37.7464 21.1001 37.5178C21.3286 37.2892 21.457 36.9792 21.457 36.656L21.457 34.2185L23.2852 34.2185L23.2852 36.656C23.2852 36.9792 23.4136 37.2892 23.6421 37.5178C23.8707 37.7464 24.1807 37.8748 24.5039 37.8748C24.8271 37.8748 25.1371 37.7464 25.3657 37.5178C25.5943 37.2892 25.7227 36.9792 25.7227 36.656L25.7227 34.2185L27.5508 34.2185L27.5508 36.656C27.5508 36.9792 27.6792 37.2892 27.9077 37.5178C28.1363 37.7464 28.4463 37.8748 28.7695 37.8748C29.0928 37.8748 29.4028 37.7464 29.6313 37.5178C29.8599 37.2892 29.9883 36.9792 29.9883 36.656L29.9883 34.1027C31.1613 33.8645 32.2382 33.2862 33.0846 32.4398C33.9309 31.5934 34.5093 30.5165 34.7475 29.3435L37.3008 29.3435C37.624 29.3435 37.934 29.2151 38.1626 28.9865C38.3911 28.758 38.5195 28.448 38.5195 28.1248C38.5195 27.8015 38.3911 27.4915 38.1626 27.263C37.934 27.0344 37.624 26.906 37.3008 26.906L34.8633 26.906L34.8633 25.0779L37.3008 25.0779C37.624 25.0779 37.934 24.9495 38.1626 24.7209C38.3911 24.4924 38.5195 24.1824 38.5195 23.8591C38.5195 23.5359 38.3911 23.2259 38.1626 22.9973C37.934 22.7688 37.624 22.6404 37.3008 22.6404L33.6445 22.6404C33.3213 22.6404 33.0113 22.7688 32.7827 22.9973C32.5542 23.2259 32.4258 23.5359 32.4258 23.8591L32.4258 28.1674C32.4242 29.1253 32.0429 30.0435 31.3656 30.7208C30.6883 31.3982 29.7701 31.7794 28.8122 31.781L11.6644 31.781C10.7065 31.7794 9.78829 31.3982 9.11096 30.7208C8.43363 30.0435 8.05239 29.1253 8.05078 28.1674L8.05078 11.0196C8.05239 10.0617 8.43363 9.14351 9.11096 8.46618C9.78829 7.78885 10.7065 7.40762 11.6644 7.40601L28.8122 7.40601C29.7701 7.40762 30.6883 7.78885 31.3656 8.46618C32.0429 9.14351 32.4242 10.0617 32.4258 11.0196L32.4258 19.5935C32.4258 19.9167 32.5542 20.2267 32.7827 20.4553C33.0113 20.6839 33.3213 20.8123 33.6445 20.8123L37.3008 20.8123C37.624 20.8123 37.934 20.6839 38.1626 20.4553C38.3911 20.2267 38.5195 19.9167 38.5195 19.5935C38.5195 19.2703 38.3911 18.9603 38.1626 18.7317C37.934 18.5032 37.624 18.3748 37.3008 18.3748L34.8633 18.3748L34.8633 16.5466L37.3008 16.5466Z" fill="white"/>
<path d="M17.3076 20.6538L19.6415 20.6538L18.4776 17.3145L17.3076 20.6538Z" fill="white"/>
<path d="M28.7695 9.84351L11.707 9.84351C11.3838 9.84351 11.0738 9.97191 10.8452 10.2005C10.6167 10.429 10.4883 10.739 10.4883 11.0623L10.4883 28.1248C10.4883 28.448 10.6167 28.758 10.8452 28.9865C11.0738 29.2151 11.3838 29.3435 11.707 29.3435L28.7695 29.3435C29.0928 29.3435 29.4028 29.2151 29.6313 28.9865C29.8599 28.758 29.9883 28.448 29.9883 28.1248L29.9883 11.0623C29.9883 10.739 29.8599 10.429 29.6313 10.2005C29.4028 9.97191 29.0928 9.84351 28.7695 9.84351ZM23.0048 24.0968C22.9806 24.1228 22.9514 24.1438 22.919 24.1584C22.8865 24.1731 22.8515 24.1811 22.8159 24.1821L21.1097 24.1821C21.015 24.1864 20.9213 24.1611 20.8416 24.1098C20.7619 24.0585 20.7001 23.9837 20.6648 23.8957L20.1895 22.6404L16.7588 22.6404L16.2834 23.914C16.2489 24.0025 16.1873 24.0778 16.1074 24.1293C16.0275 24.1807 15.9335 24.2056 15.8386 24.2004L14.1445 24.2004C14.1089 24.1998 14.0738 24.1919 14.0413 24.1772C14.0088 24.1625 13.9797 24.1414 13.9556 24.1151C13.9287 24.0915 13.9072 24.0625 13.8925 24.0299C13.8777 23.9973 13.8702 23.9619 13.8703 23.9262C13.863 23.8859 13.863 23.8446 13.8703 23.8043L16.9172 15.401C16.9478 15.2874 17.0166 15.1878 17.1121 15.119C17.2075 15.0502 17.3238 15.0163 17.4412 15.0232L19.4827 15.0232C19.6007 15.0172 19.7173 15.0512 19.8135 15.1198C19.9098 15.1884 19.98 15.2875 20.0128 15.401L23.0597 23.8043C23.0638 23.8448 23.0638 23.8856 23.0597 23.9262C23.0615 23.9876 23.0422 24.0479 23.0048 24.0968ZM26.6123 23.853C26.6127 23.9391 26.58 24.022 26.5209 24.0846C26.4908 24.1155 26.4548 24.14 26.415 24.1568C26.3753 24.1735 26.3325 24.1821 26.2894 24.1821L24.4125 24.1821C24.3257 24.1805 24.2429 24.1454 24.1815 24.084C24.1202 24.0226 24.085 23.9398 24.0834 23.853L24.0834 15.3279C24.0826 15.2837 24.0908 15.2398 24.1075 15.1989C24.1243 15.1581 24.1493 15.1211 24.1809 15.0902C24.2435 15.0312 24.3264 14.9984 24.4125 14.9988L26.2894 14.9988C26.3321 14.9976 26.3747 15.0051 26.4145 15.0208C26.4543 15.0365 26.4905 15.0601 26.5209 15.0902C26.5515 15.1216 26.5753 15.1588 26.591 15.1997C26.6068 15.2405 26.614 15.2841 26.6123 15.3279L26.6123 23.853Z" fill="white"/>
</svg>
