<svg width="39" height="39" viewBox="0 0 39 39" fill="none" xmlns="http://www.w3.org/2000/svg">
<path d="M13.5548 9.15608C13.5076 9.13306 13.4656 9.10076 13.4312 9.06111C13.3968 9.02147 13.3708 8.97529 13.3547 8.92535C13.3386 8.87541 13.3327 8.82274 13.3375 8.77048C13.3422 8.71822 13.3574 8.66746 13.3822 8.62122C13.4071 8.57499 13.4409 8.53424 13.4819 8.5014C13.5228 8.46857 13.5699 8.44434 13.6205 8.43015C13.671 8.41597 13.7238 8.41212 13.7759 8.41885C13.8279 8.42557 13.8781 8.44273 13.9233 8.46929C16.8093 10.0203 19.2394 12.9445 20.4999 14.657C21.0069 13.5549 22.1457 10.3452 19.6489 7.89443C16.5862 4.8887 9.21484 4.16174 9.21484 4.16174C9.21484 4.16174 10.0803 11.5179 13.1433 14.524C15.6705 17.0041 18.904 15.7479 19.9562 15.2335C18.762 13.5943 16.371 10.6705 13.5548 9.15608Z" fill="white"/>
<path d="M23.4733 8.68524C22.7386 9.09045 22.1473 9.62514 21.709 10.2761C21.8701 11.0249 21.8872 11.8279 21.7566 12.671C21.6909 13.089 21.594 13.5015 21.4668 13.905C23.3942 12.5907 26.1027 11.1543 28.7333 10.5631C28.7833 10.5519 28.835 10.5506 28.8855 10.5593C28.9359 10.5681 28.9842 10.5867 29.0275 10.614C29.0708 10.6414 29.1083 10.6771 29.1378 10.719C29.1673 10.7609 29.1883 10.8081 29.1995 10.8581C29.2108 10.9081 29.2121 10.9598 29.2033 11.0103C29.1946 11.0608 29.176 11.1091 29.1486 11.1524C29.1212 11.1956 29.0855 11.2331 29.0436 11.2626C29.0018 11.2922 28.9545 11.3131 28.9045 11.3244C26.2634 11.9176 23.5326 13.4046 21.6622 14.7174C21.7889 14.9869 21.9773 15.4155 22.1715 15.9595C23.6485 16.8928 25.7794 17.7087 27.8265 16.5816C31.0577 14.8012 33.6617 9.42546 34.3836 7.82061C32.6395 7.57452 26.7045 6.90489 23.4733 8.68524Z" fill="white"/>
<path d="M8.79469 33.0093C8.79419 33.2439 8.7045 33.4696 8.54381 33.6405C8.38312 33.8115 8.16344 33.915 7.92929 33.93L5.46682 34.086C5.34576 34.0937 5.22438 34.0774 5.10961 34.0382C4.99484 33.9989 4.88894 33.9374 4.79795 33.8572C4.70697 33.7769 4.63269 33.6796 4.57936 33.5706C4.52603 33.4617 4.49469 33.3433 4.48714 33.2222L3.90214 23.9429C3.88708 23.6986 3.96951 23.4583 4.13138 23.2746C4.29324 23.091 4.52132 22.979 4.7656 22.9632L7.22807 22.8072C7.24757 22.8072 7.26707 22.8053 7.28735 22.8053C7.52232 22.8058 7.74827 22.8959 7.91924 23.0571C8.09021 23.2183 8.19337 23.4385 8.20775 23.673L8.26898 24.648L8.26898 24.6629L8.72839 31.9317L8.73074 31.9707L8.79275 32.9515C8.79391 32.9703 8.79469 32.9898 8.79469 33.0093Z" fill="white"/>
<path d="M34.9829 27.2247C34.9252 27.4478 34.5863 27.8448 34.3441 28.0246C33.3301 28.7796 30.7724 30.5007 28.2698 31.9636C24.0832 34.4089 22.5555 34.6971 22.0177 34.6511C20.3189 34.504 16.307 33.1176 13.7669 31.7971C12.443 31.1127 10.9055 30.9674 9.47688 31.3918L9.06738 24.9143C11.6453 24.1784 12.5364 24.0653 12.8395 24.0653C13.0345 24.0653 13.3894 24.0871 13.7891 24.1242C15.4382 24.2824 17.0748 24.551 18.6879 24.9284C20.7736 25.4194 22.497 26.0352 23.8094 26.7594C24.263 27.009 24.5586 27.3967 24.642 27.8514C24.7232 28.2937 24.5902 28.7484 24.268 29.1263C24.2489 29.149 24.229 29.1716 24.2064 29.1961C23.9995 29.4206 23.7307 29.5789 23.4341 29.6509C23.1374 29.723 22.826 29.7056 22.5392 29.601L18.5397 28.1747C18.4425 28.1411 18.336 28.1472 18.2433 28.1917C18.1505 28.2362 18.0792 28.3155 18.0447 28.4124C18.0102 28.5093 18.0153 28.6159 18.059 28.709C18.1027 28.8021 18.1814 28.8742 18.278 28.9095L22.2775 30.3338C22.5332 30.4252 22.8027 30.4721 23.0742 30.4722C23.395 30.473 23.7125 30.4068 24.0063 30.278C24.3001 30.1491 24.5638 29.9604 24.7805 29.7238C24.809 29.693 24.8359 29.6622 24.8624 29.631C25.0372 29.427 25.1783 29.1965 25.2805 28.9481L30.3863 26.6397L30.3899 26.6397L33.0968 25.4155C33.7598 25.1152 34.6143 25.3843 34.9599 26.0005C35.1588 26.3581 35.1284 26.6674 34.9829 27.2247Z" fill="white"/>
<path d="M21.7095 19.4778C21.8608 19.478 22.0118 19.4872 22.1619 19.5055C22.0254 17.6725 21.4135 16.07 21.0629 15.2814C21.015 15.3742 20.4662 15.8582 20.1074 16.0224C20.4237 16.7856 20.8765 18.0929 20.9919 19.548C21.2283 19.5013 21.4686 19.4778 21.7095 19.4778Z" fill="white"/>
<path d="M29.8226 26.0387L25.444 28.0184C25.4396 27.9149 25.428 27.8118 25.4093 27.7099C25.2845 27.0313 24.8388 26.4357 24.1863 26.0762C22.8115 25.318 21.0218 24.6765 18.8667 24.1691C17.2998 23.8032 15.7112 23.5368 14.1106 23.3715C14.063 23.2018 14.0392 23.0263 14.0401 22.8501C14.0401 21.6411 15.1777 20.6575 16.5751 20.6575C16.8573 20.657 17.1381 20.6979 17.4085 20.7788C18.4307 21.0824 19.5296 20.9933 20.4895 20.5288C20.8713 20.3485 21.2884 20.2552 21.7106 20.2558C22.2426 20.2521 22.7645 20.401 23.2144 20.6848C24.1247 21.2663 25.1878 21.4983 26.2077 21.3377C26.3586 21.3141 26.5112 21.3022 26.664 21.3022C28.0625 21.3022 29.199 22.2858 29.199 23.4948C29.199 23.5408 29.199 23.5876 29.1939 23.6332C29.1473 24.2027 29.2758 24.7728 29.5621 25.2673C29.7026 25.5031 29.7914 25.766 29.8226 26.0387Z" fill="white"/>
</svg>
