<svg width="24" height="24" viewBox="0 0 24 24" fill="none" xmlns="http://www.w3.org/2000/svg">
<path d="M17.5184 12.282C17.5184 15.2698 15.093 17.694 12.0986 17.694C9.10412 17.694 6.67871 15.2698 6.67871 12.282C6.67871 9.29408 9.10412 6.86987 12.0986 6.86987C15.093 6.86987 17.5184 9.29408 17.5184 12.282Z" fill="#F9FCF8" stroke="#348E2B" stroke-width="2"/>
<path d="M14.6625 12.2822C14.6625 13.6962 13.5145 14.8445 12.0959 14.8445C10.6773 14.8445 9.5293 13.6962 9.5293 12.2822C9.5293 10.8683 10.6773 9.71997 12.0959 9.71997C13.5145 9.71997 14.6625 10.8683 14.6625 12.2822Z" fill="#F9FCF8" stroke="#74C9A9" stroke-width="2"/>
<path d="M5.18281 5.88784C5.54857 6.14885 5.80164 6.51547 5.92749 6.92195C5.51936 6.93631 5.10387 6.82047 4.74315 6.56305C4.37739 6.30204 4.12432 5.93542 3.99847 5.52894C4.4066 5.51458 4.82209 5.63042 5.18281 5.88784Z" fill="#74C9A9" stroke="#74C9A9" stroke-width="1.45455"/>
<path d="M3.30735 9.04751C3.72831 9.20509 4.06779 9.49384 4.2947 9.85401C3.90424 9.97336 3.47294 9.96887 3.05783 9.81349C2.63686 9.65591 2.29738 9.36716 2.07047 9.00699C2.46093 8.88764 2.89224 8.89213 3.30735 9.04751Z" fill="#74C9A9" stroke="#74C9A9" stroke-width="1.45455"/>
<path d="M2.90695 12.7045C3.35431 12.6584 3.78729 12.7661 4.15127 12.988C3.85501 13.2683 3.46702 13.456 3.02623 13.5014C2.57888 13.5475 2.14589 13.4398 1.78191 13.2179C2.07817 12.9376 2.46617 12.7499 2.90695 12.7045Z" fill="#74C9A9" stroke="#74C9A9" stroke-width="1.45455"/>
<path d="M3.28123 16.3044C3.68152 16.0993 4.12443 16.0428 4.54453 16.1179C4.37031 16.4862 4.07703 16.8015 3.6829 17.0035C3.28261 17.2086 2.8397 17.265 2.41959 17.1899C2.59382 16.8216 2.8871 16.5063 3.28123 16.3044Z" fill="#74C9A9" stroke="#74C9A9" stroke-width="1.45455"/>
<path d="M5.42478 19.1545C5.82507 18.9494 6.26799 18.8929 6.68809 18.968C6.51386 19.3363 6.22058 19.6516 5.82646 19.8535C5.42617 20.0587 4.98325 20.1151 4.56315 20.04C4.73737 19.6717 5.03065 19.3564 5.42478 19.1545Z" fill="#74C9A9" stroke="#74C9A9" stroke-width="1.45455"/>
<path d="M8.99214 21.56C8.8994 21.9995 8.96133 22.4409 9.14421 22.8257C9.45431 22.5607 9.68177 22.195 9.77314 21.7619C9.86589 21.3224 9.80395 20.881 9.62107 20.4962C9.31097 20.7612 9.08351 21.1269 8.99214 21.56Z" fill="#74C9A9" stroke="#74C9A9" stroke-width="1.45455"/>
<path d="M12.8336 21.6151C12.9948 22.0347 13.287 22.372 13.6503 22.5961C13.7665 22.2057 13.7587 21.7755 13.6 21.3625C13.4389 20.9429 13.1466 20.6056 12.7833 20.3816C12.6671 20.7719 12.675 21.2021 12.8336 21.6151Z" fill="#74C9A9" stroke="#74C9A9" stroke-width="1.45455"/>
<path d="M16.7666 20.7023C17.0249 21.0703 17.3905 21.3268 17.7973 21.4561C17.8153 21.0493 17.7032 20.6339 17.449 20.2717C17.1907 19.9036 16.8251 19.6472 16.4183 19.5179C16.4003 19.9247 16.5124 20.3401 16.7666 20.7023Z" fill="#74C9A9" stroke="#74C9A9" stroke-width="1.45455"/>
<path d="M19.5629 18.3585C19.9427 18.5995 20.3786 18.6963 20.8039 18.66C20.6643 18.2773 20.4012 17.9365 20.0273 17.6993C19.6475 17.4584 19.2116 17.3615 18.7863 17.3979C18.926 17.7806 19.189 18.1213 19.5629 18.3585Z" fill="#74C9A9" stroke="#74C9A9" stroke-width="1.45455"/>
<path d="M21.3772 15.6598C21.816 15.7582 22.2588 15.7022 22.6465 15.5245C22.3854 15.2114 22.0223 14.9794 21.59 14.8825C21.1511 14.784 20.7084 14.8401 20.3207 15.0177C20.5818 15.3308 20.9448 15.5628 21.3772 15.6598Z" fill="#74C9A9" stroke="#74C9A9" stroke-width="1.45455"/>
<path d="M21.5107 11.948C21.9576 11.8992 22.3581 11.7031 22.6672 11.4099C22.3185 11.198 21.8995 11.0959 21.4589 11.144C21.012 11.1928 20.6115 11.3889 20.3024 11.6821C20.6511 11.894 21.0701 11.9961 21.5107 11.948Z" fill="#74C9A9" stroke="#74C9A9" stroke-width="1.45455"/>
<path d="M20.7397 8.82345C21.1629 8.67204 21.5066 8.38828 21.7388 8.03146C21.3501 7.90641 20.9188 7.9046 20.5015 8.0539C20.0782 8.20531 19.7345 8.48907 19.5024 8.84589C19.891 8.97094 20.3224 8.97275 20.7397 8.82345Z" fill="#74C9A9" stroke="#74C9A9" stroke-width="1.45455"/>
<path d="M8.47532 3.46214C8.761 3.80883 8.91045 4.22843 8.92666 4.65367C8.52876 4.56203 8.15749 4.34275 7.87578 4.00088C7.5901 3.65419 7.44065 3.23459 7.42444 2.80935C7.82234 2.90099 8.19362 3.12027 8.47532 3.46214Z" fill="#74C9A9" stroke="#74C9A9" stroke-width="1.45455"/>
<path d="M11.9094 2.34262C11.9898 2.78458 11.9155 3.22408 11.722 3.60364C11.4194 3.33018 11.2023 2.95826 11.123 2.52282C11.0426 2.08086 11.1168 1.64136 11.3104 1.2618C11.613 1.53526 11.8301 1.90718 11.9094 2.34262Z" fill="#74C9A9" stroke="#74C9A9" stroke-width="1.45455"/>
<path d="M15.8363 3.12205C15.7044 3.5517 15.436 3.90826 15.0891 4.1567C14.9462 3.77521 14.9245 3.34549 15.0543 2.92255C15.1862 2.4929 15.4546 2.13634 15.8015 1.8879C15.9443 2.26939 15.9661 2.69911 15.8363 3.12205Z" fill="#74C9A9" stroke="#74C9A9" stroke-width="1.45455"/>
<path d="M18.8165 5.78357C18.4993 6.10228 18.0954 6.29278 17.6724 6.351C17.7241 5.94705 17.9054 5.55679 18.2177 5.24311C18.5349 4.9244 18.9388 4.7339 19.3618 4.67568C19.3101 5.07963 19.1288 5.46989 18.8165 5.78357Z" fill="#74C9A9" stroke="#74C9A9" stroke-width="1.45455"/>
</svg>
