<svg width="42" height="42" viewBox="0 0 42 42" fill="none" xmlns="http://www.w3.org/2000/svg">
<g clip-path="url(#clip0_115_603)">
<path d="M20.0974 22.674C19.5505 22.5376 19.0801 22.1896 18.7898 21.7064C18.4995 21.2232 18.413 20.6445 18.5493 20.0975C18.6857 19.5506 19.0338 19.0802 19.517 18.7899C20.0001 18.4996 20.5789 18.4131 21.1258 18.5494C21.6728 18.6858 22.1431 19.0339 22.4335 19.517C22.7238 20.0002 22.8103 20.5789 22.6739 21.1259C22.5375 21.6728 22.1895 22.1432 21.7063 22.4336C21.2231 22.7239 20.6444 22.8104 20.0974 22.674ZM18.3452 26.6093C18.5138 26.958 18.6859 27.2988 18.8624 27.6276C19.1726 27.4202 19.4841 27.2014 19.7971 26.9713C19.3106 26.8609 18.8265 26.7402 18.3452 26.6093ZM15.6452 25.7536C14.6168 25.3805 13.6101 24.9501 12.6298 24.4644C12.4067 24.9199 12.2118 25.3678 12.0478 25.803C11.244 27.9142 11.2785 29.3277 11.7531 29.7848C12.2273 30.2433 13.6404 30.2276 15.7234 29.3523C16.1526 29.1717 16.592 28.9614 17.0396 28.724C16.5197 27.7607 16.0542 26.769 15.6452 25.7536ZM25.8504 27.7606C24.8098 27.7348 23.7142 27.6427 22.5827 27.4833C21.745 28.1879 20.8684 28.8449 19.957 29.4514C20.2405 29.8725 20.5301 30.2631 20.8242 30.6241C22.2525 32.3748 23.4928 33.0521 24.1268 32.8699C24.7604 32.6891 25.4531 31.4569 25.7372 29.2161C25.7974 28.733 25.8356 28.2475 25.8518 27.761L25.8504 27.7606ZM27.9766 27.7256C27.8653 31.5516 26.7285 34.3363 24.7123 34.9143C22.6961 35.4922 20.2563 33.7332 18.1343 30.5478C14.7652 32.3641 11.7856 32.7705 10.2767 31.3136C8.76776 29.8568 9.07103 26.8657 10.7679 23.4335C7.50978 21.4252 5.66833 19.0472 6.17566 17.0124C6.68298 14.9776 9.42495 13.7439 13.2453 13.4975C13.358 9.67178 14.4947 6.88708 16.511 6.30915C18.5272 5.73121 20.9669 7.49023 23.089 10.6756C26.4581 8.85933 29.4377 8.45296 30.9466 9.90981C32.4555 11.3667 32.1522 14.3577 30.4553 17.7899C33.7135 19.7982 35.5549 22.1762 35.0476 24.211C34.5403 26.2458 31.7983 27.4795 27.978 27.726L27.9766 27.7256ZM21.2648 11.7717C20.9941 11.368 20.7052 10.9769 20.3991 10.5993C18.9708 8.84861 17.7304 8.17135 17.0965 8.35355C16.4629 8.53437 15.7702 9.76648 15.486 12.0073C15.4289 12.4706 15.3897 12.9559 15.3715 13.4624C16.4655 13.4939 17.5569 13.5866 18.6405 13.7401C19.5174 13.0052 20.3971 12.3468 21.2662 11.772L21.2648 11.7717ZM25.578 15.4698C26.6519 15.8602 27.6622 16.2947 28.5934 16.7591C28.8165 16.3036 29.0114 15.8557 29.1754 15.4205C29.9793 13.3092 29.9447 11.8958 29.4702 11.4387C28.996 10.9802 27.5829 10.9958 25.4998 11.8711C25.0518 12.0605 24.6126 12.2702 24.1836 12.4994C24.6812 13.415 25.1488 14.4092 25.578 15.4698ZM22.878 14.6141C22.7094 14.2654 22.5374 13.9246 22.3609 13.5958C22.0507 13.8033 21.7391 14.022 21.4262 14.2521C21.9127 14.3625 22.3967 14.4832 22.878 14.6141ZM14.6967 23.0857C14.5491 22.6094 14.4115 22.1301 14.2841 21.6481C14.0654 21.9688 13.8577 22.2865 13.6617 22.6042C13.9958 22.7693 14.3413 22.9299 14.6954 23.0853L14.6967 23.0857ZM17.2728 24.0697C18.7964 24.572 20.3551 24.9607 21.9363 25.2324C23.1332 24.1639 24.2492 23.0081 25.2751 21.7745C24.9484 20.2036 24.5057 18.6591 23.9505 17.1538C22.4269 16.6514 20.8681 16.2628 19.287 15.991C18.0901 17.0595 16.974 18.2153 15.9481 19.449C16.2748 21.0198 16.7176 22.5643 17.2728 24.0697ZM26.9391 19.5754C27.1578 19.2546 27.3655 18.9369 27.5616 18.6192C27.2206 18.4512 26.876 18.2907 26.5279 18.1381C26.6751 18.6142 26.8122 19.0934 26.9391 19.5754ZM13.2827 15.6257C12.7775 15.6604 12.2937 15.715 11.8339 15.7902C9.60449 16.1514 8.39733 16.8873 8.23794 17.5266C8.07854 18.1659 8.79756 19.382 10.5978 20.748C10.9685 21.0302 11.37 21.3056 11.7998 21.5733C12.3449 20.6871 12.9719 19.7832 13.6755 18.8823C13.4838 17.805 13.3527 16.7177 13.2827 15.6257ZM15.4092 15.5893C15.4349 15.9608 15.4688 16.3402 15.5117 16.7247C15.8503 16.3593 16.1967 16.0012 16.5506 15.6505C16.1636 15.6212 15.7831 15.6008 15.4106 15.5897L15.4092 15.5893ZM27.9406 25.5977C28.4457 25.563 28.9296 25.5084 29.3893 25.4332C31.6188 25.072 32.8259 24.3361 32.9853 23.6968C33.1447 23.0575 32.4257 21.8414 30.6254 20.4755C30.2374 20.1823 29.8364 19.9069 29.4235 19.6501C28.8783 20.5364 28.2513 21.4403 27.5478 22.3411C27.7461 23.4668 27.8756 24.5578 27.9406 25.5977ZM25.814 25.6341C25.7884 25.2626 25.7544 24.8832 25.7116 24.4987C25.3729 24.8641 25.0265 25.2223 24.6727 25.573C25.0597 25.6023 25.4401 25.6226 25.8126 25.6338L25.814 25.6341Z" fill="white"/>
</g>
<defs>
<clipPath id="clip0_115_603">
<rect width="34.0066" height="34.0066" fill="white" transform="translate(8.22656) rotate(14)"/>
</clipPath>
</defs>
</svg>
