<svg width="23" height="23" viewBox="0 0 23 23" fill="none" xmlns="http://www.w3.org/2000/svg">
<path d="M19.4336 11.4827H19.3038C18.7707 9.10012 16.6431 7.31085 14.1029 7.31085H12.4805V6.71751C13.287 6.43012 13.8711 5.66527 13.8711 4.76137C13.8711 3.61178 12.9347 2.67543 11.7852 2.67543C10.6356 2.67543 9.69922 3.61178 9.69922 4.76137C9.69922 5.66527 10.2833 6.43012 11.0898 6.71751V7.31085H9.46745C6.92724 7.31085 4.79958 9.10012 4.26651 11.4827H4.13672C3.37187 11.4827 2.74609 12.1085 2.74609 12.8733V14.264C2.74609 15.0288 3.37187 15.6546 4.13672 15.6546H4.39167C4.93865 17.3604 6.32 18.6862 8.05365 19.1682C7.92385 19.4417 7.84505 19.7384 7.84505 20.0582C7.84505 20.443 8.15562 20.7536 8.54036 20.7536H15.0299C15.4147 20.7536 15.7253 20.443 15.7253 20.0582C15.7253 19.7384 15.6465 19.4371 15.5167 19.1682C17.2503 18.6908 18.6317 17.3604 19.1786 15.6546H19.4336C20.1984 15.6546 20.8242 15.0288 20.8242 14.264V12.8733C20.8242 12.1085 20.1984 11.4827 19.4336 11.4827ZM11.7852 4.06606C12.1699 4.06606 12.4805 4.37663 12.4805 4.76137C12.4805 5.14611 12.1699 5.45668 11.7852 5.45668C11.4004 5.45668 11.0898 5.14611 11.0898 4.76137C11.0898 4.37663 11.4004 4.06606 11.7852 4.06606ZM14.1029 17.9723H9.46745C7.29344 17.9723 5.52734 16.2062 5.52734 14.0322V12.6416C5.52734 10.4676 7.29344 8.70147 9.46745 8.70147H14.1029C16.2769 8.70147 18.043 10.4676 18.043 12.6416V14.0322C18.043 16.2062 16.2769 17.9723 14.1029 17.9723Z" fill="#60B28A"/>
<path d="M9.23568 10.5556C8.47083 10.5556 7.84505 11.1814 7.84505 11.9463V13.3369C7.84505 14.1017 8.47083 14.7275 9.23568 14.7275C10.0005 14.7275 10.6263 14.1017 10.6263 13.3369V11.9463C10.6263 11.1814 10.0005 10.5556 9.23568 10.5556Z" fill="#60B28A"/>
<path d="M14.3346 10.5556C13.5698 10.5556 12.944 11.1814 12.944 11.9463V13.3369C12.944 14.1017 13.5698 14.7275 14.3346 14.7275C15.0995 14.7275 15.7253 14.1017 15.7253 13.3369V11.9463C15.7253 11.1814 15.0995 10.5556 14.3346 10.5556Z" fill="#60B28A"/>
<path d="M6.93187 4.02897L8.3225 4.49251C8.39667 4.51569 8.47083 4.5296 8.54036 4.5296C8.8324 4.5296 9.10125 4.34418 9.19859 4.05215C9.31911 3.68595 9.12443 3.29194 8.75823 3.17142L7.3676 2.70788C7.00604 2.58736 6.61203 2.78204 6.48687 3.14824C6.36172 3.51444 6.56104 3.90845 6.92724 4.02897H6.93187Z" fill="#60B28A"/>
<path d="M7.14974 6.84731C7.22391 6.84731 7.29807 6.83803 7.3676 6.81022L8.75823 6.34668C9.12443 6.22616 9.31911 5.83215 9.19859 5.46595C9.07807 5.09975 8.68406 4.90507 8.31786 5.02559L6.92724 5.48913C6.56104 5.60965 6.36635 6.00366 6.48687 6.36986C6.58422 6.66189 6.85307 6.84731 7.1451 6.84731H7.14974Z" fill="#60B28A"/>
<path d="M15.0299 4.5296C15.1041 4.5296 15.1783 4.52033 15.2478 4.49251L16.6384 4.02897C17.0046 3.90845 17.1993 3.51444 17.0788 3.14824C16.9583 2.78204 16.5643 2.58736 16.1981 2.70788L14.8074 3.17142C14.4412 3.29194 14.2466 3.68595 14.3671 4.05215C14.4644 4.34418 14.7333 4.5296 15.0253 4.5296H15.0299Z" fill="#60B28A"/>
<path d="M14.8121 6.34668L16.2027 6.81022C16.2769 6.8334 16.351 6.84731 16.4206 6.84731C16.7126 6.84731 16.9815 6.66189 17.0788 6.36986C17.1993 6.00366 17.0046 5.60965 16.6384 5.48913L15.2478 5.02559C14.8862 4.90507 14.4876 5.09975 14.3671 5.46595C14.2466 5.83215 14.4412 6.22616 14.8074 6.34668H14.8121Z" fill="#60B28A"/>
</svg>
