<svg width="199" height="258" viewBox="0 0 199 258" fill="none" xmlns="http://www.w3.org/2000/svg">
<path d="M189.55 60.3979C190.262 61.6313 190.955 62.8768 191.63 64.134C190.405 63.3327 189.586 61.962 189.55 60.3979Z" fill="white"/>
<path d="M189.55 60.3979C190.262 61.6313 190.955 62.8768 191.63 64.134C190.405 63.3327 189.586 61.962 189.55 60.3979Z" fill="url(#paint0_linear_140_134)"/>
<path d="M164.407 28.6956C166.546 30.7036 168.622 32.7792 170.63 34.919C169.853 36.3541 168.335 37.3289 166.589 37.3289C164.053 37.3289 161.997 35.273 161.997 32.7369C161.997 30.9907 162.971 29.4721 164.407 28.6956Z" fill="white"/>
<path d="M164.407 28.6956C166.546 30.7036 168.622 32.7792 170.63 34.919C169.853 36.3541 168.335 37.3289 166.589 37.3289C164.053 37.3289 161.997 35.273 161.997 32.7369C161.997 30.9907 162.971 29.4721 164.407 28.6956Z" fill="url(#paint1_linear_140_134)"/>
<path d="M135.192 7.69594C136.449 8.37044 137.694 9.06388 138.928 9.77589C137.364 9.73938 135.993 8.92076 135.192 7.69594Z" fill="white"/>
<path d="M135.192 7.69594C136.449 8.37044 137.694 9.06388 138.928 9.77589C137.364 9.73938 135.993 8.92076 135.192 7.69594Z" fill="url(#paint2_linear_140_134)"/>
<path d="M1.3876 9.77589C2.62106 9.06388 3.86658 8.37044 5.12378 7.69594C4.32245 8.92076 2.95175 9.73938 1.3876 9.77589Z" fill="white"/>
<path d="M1.3876 9.77589C2.62106 9.06388 3.86658 8.37044 5.12378 7.69594C4.32245 8.92076 2.95175 9.73938 1.3876 9.77589Z" fill="url(#paint3_linear_140_134)"/>
<path d="M-30.3147 34.919C-28.3066 32.7792 -26.231 30.7036 -24.0912 28.6956C-22.6561 29.4721 -21.6814 30.9907 -21.6814 32.7369C-21.6814 35.273 -23.7373 37.3289 -26.2733 37.3289C-28.0196 37.3289 -29.5382 36.3541 -30.3147 34.919Z" fill="white"/>
<path d="M-30.3147 34.919C-28.3066 32.7792 -26.231 30.7036 -24.0912 28.6956C-22.6561 29.4721 -21.6814 30.9907 -21.6814 32.7369C-21.6814 35.273 -23.7373 37.3289 -26.2733 37.3289C-28.0196 37.3289 -29.5382 36.3541 -30.3147 34.919Z" fill="url(#paint4_linear_140_134)"/>
<path d="M-51.3143 64.134C-50.6398 62.8768 -49.9464 61.6313 -49.2344 60.3979C-49.2709 61.962 -50.0895 63.3327 -51.3143 64.134Z" fill="white"/>
<path d="M-51.3143 64.134C-50.6398 62.8768 -49.9464 61.6313 -49.2344 60.3979C-49.2709 61.962 -50.0895 63.3327 -51.3143 64.134Z" fill="url(#paint5_linear_140_134)"/>
<path d="M191.63 194.202C190.955 195.459 190.262 196.705 189.55 197.938C189.586 196.374 190.405 195.003 191.63 194.202Z" fill="white"/>
<path d="M191.63 194.202C190.955 195.459 190.262 196.705 189.55 197.938C189.586 196.374 190.405 195.003 191.63 194.202Z" fill="url(#paint6_linear_140_134)"/>
<path d="M170.63 223.417C169.853 221.982 168.335 221.007 166.589 221.007C164.053 221.007 161.997 223.063 161.997 225.599C161.997 227.345 162.971 228.864 164.407 229.64C166.546 227.632 168.622 225.557 170.63 223.417Z" fill="white"/>
<path d="M170.63 223.417C169.853 221.982 168.335 221.007 166.589 221.007C164.053 221.007 161.997 223.063 161.997 225.599C161.997 227.345 162.971 228.864 164.407 229.64C166.546 227.632 168.622 225.557 170.63 223.417Z" fill="url(#paint7_linear_140_134)"/>
<path d="M138.928 248.56C137.364 248.596 135.993 249.415 135.192 250.64C136.449 249.965 137.694 249.272 138.928 248.56Z" fill="white"/>
<path d="M138.928 248.56C137.364 248.596 135.993 249.415 135.192 250.64C136.449 249.965 137.694 249.272 138.928 248.56Z" fill="url(#paint8_linear_140_134)"/>
<path d="M5.12378 250.64C4.32245 249.415 2.95174 248.596 1.3876 248.56C2.62106 249.272 3.86658 249.965 5.12378 250.64Z" fill="white"/>
<path d="M5.12378 250.64C4.32245 249.415 2.95174 248.596 1.3876 248.56C2.62106 249.272 3.86658 249.965 5.12378 250.64Z" fill="url(#paint9_linear_140_134)"/>
<path d="M-24.0912 229.64C-22.6561 228.864 -21.6814 227.345 -21.6814 225.599C-21.6814 223.063 -23.7373 221.007 -26.2733 221.007C-28.0196 221.007 -29.5382 221.982 -30.3147 223.417C-28.3066 225.557 -26.231 227.632 -24.0912 229.64Z" fill="white"/>
<path d="M-24.0912 229.64C-22.6561 228.864 -21.6814 227.345 -21.6814 225.599C-21.6814 223.063 -23.7373 221.007 -26.2733 221.007C-28.0196 221.007 -29.5382 221.982 -30.3147 223.417C-28.3066 225.557 -26.231 227.632 -24.0912 229.64Z" fill="url(#paint10_linear_140_134)"/>
<path d="M-49.2344 197.938C-49.2709 196.374 -50.0895 195.003 -51.3143 194.202C-50.6398 195.459 -49.9464 196.705 -49.2344 197.938Z" fill="white"/>
<path d="M-49.2344 197.938C-49.2709 196.374 -50.0895 195.003 -51.3143 194.202C-50.6398 195.459 -49.9464 196.705 -49.2344 197.938Z" fill="url(#paint11_linear_140_134)"/>
<path d="M33.422 5.18521C33.422 7.72128 31.3662 9.77717 28.8301 9.77717C26.294 9.77717 24.2381 7.72128 24.2381 5.18521C24.2381 2.64915 26.294 0.593262 28.8301 0.593262C31.3662 0.593262 33.422 2.64915 33.422 5.18521Z" fill="white"/>
<path d="M33.422 5.18521C33.422 7.72128 31.3662 9.77717 28.8301 9.77717C26.294 9.77717 24.2381 7.72128 24.2381 5.18521C24.2381 2.64915 26.294 0.593262 28.8301 0.593262C31.3662 0.593262 33.422 2.64915 33.422 5.18521Z" fill="url(#paint12_linear_140_134)"/>
<path d="M60.9738 5.18521C60.9738 7.72128 58.9179 9.77717 56.3818 9.77717C53.8457 9.77717 51.7899 7.72128 51.7899 5.18521C51.7899 2.64915 53.8457 0.593262 56.3818 0.593262C58.9179 0.593262 60.9738 2.64915 60.9738 5.18521Z" fill="white"/>
<path d="M60.9738 5.18521C60.9738 7.72128 58.9179 9.77717 56.3818 9.77717C53.8457 9.77717 51.7899 7.72128 51.7899 5.18521C51.7899 2.64915 53.8457 0.593262 56.3818 0.593262C58.9179 0.593262 60.9738 2.64915 60.9738 5.18521Z" fill="url(#paint13_linear_140_134)"/>
<path d="M88.5255 5.18521C88.5255 7.72128 86.4696 9.77717 83.9335 9.77717C81.3974 9.77717 79.3416 7.72128 79.3416 5.18521C79.3416 2.64915 81.3974 0.593262 83.9335 0.593262C86.4696 0.593262 88.5255 2.64915 88.5255 5.18521Z" fill="white"/>
<path d="M88.5255 5.18521C88.5255 7.72128 86.4696 9.77717 83.9335 9.77717C81.3974 9.77717 79.3416 7.72128 79.3416 5.18521C79.3416 2.64915 81.3974 0.593262 83.9335 0.593262C86.4696 0.593262 88.5255 2.64915 88.5255 5.18521Z" fill="url(#paint14_linear_140_134)"/>
<path d="M116.077 5.18521C116.077 7.72128 114.021 9.77717 111.485 9.77717C108.949 9.77717 106.893 7.72128 106.893 5.18521C106.893 2.64915 108.949 0.593262 111.485 0.593262C114.021 0.593262 116.077 2.64915 116.077 5.18521Z" fill="white"/>
<path d="M116.077 5.18521C116.077 7.72128 114.021 9.77717 111.485 9.77717C108.949 9.77717 106.893 7.72128 106.893 5.18521C106.893 2.64915 108.949 0.593262 111.485 0.593262C114.021 0.593262 116.077 2.64915 116.077 5.18521Z" fill="url(#paint15_linear_140_134)"/>
<path d="M5.87033 32.7369C5.87033 35.273 3.81445 37.3289 1.27838 37.3289C-1.25769 37.3289 -3.31357 35.273 -3.31357 32.7369C-3.31357 30.2009 -1.25769 28.145 1.27838 28.145C3.81445 28.145 5.87033 30.2009 5.87033 32.7369Z" fill="white"/>
<path d="M5.87033 32.7369C5.87033 35.273 3.81445 37.3289 1.27838 37.3289C-1.25769 37.3289 -3.31357 35.273 -3.31357 32.7369C-3.31357 30.2009 -1.25769 28.145 1.27838 28.145C3.81445 28.145 5.87033 30.2009 5.87033 32.7369Z" fill="url(#paint16_linear_140_134)"/>
<path d="M33.422 32.7369C33.422 35.273 31.3662 37.3289 28.8301 37.3289C26.294 37.3289 24.2381 35.273 24.2381 32.7369C24.2381 30.2009 26.294 28.145 28.8301 28.145C31.3662 28.145 33.422 30.2009 33.422 32.7369Z" fill="white"/>
<path d="M33.422 32.7369C33.422 35.273 31.3662 37.3289 28.8301 37.3289C26.294 37.3289 24.2381 35.273 24.2381 32.7369C24.2381 30.2009 26.294 28.145 28.8301 28.145C31.3662 28.145 33.422 30.2009 33.422 32.7369Z" fill="url(#paint17_linear_140_134)"/>
<path d="M60.9738 32.7369C60.9738 35.273 58.9179 37.3289 56.3818 37.3289C53.8457 37.3289 51.7899 35.273 51.7899 32.7369C51.7899 30.2009 53.8457 28.145 56.3818 28.145C58.9179 28.145 60.9738 30.2009 60.9738 32.7369Z" fill="white"/>
<path d="M60.9738 32.7369C60.9738 35.273 58.9179 37.3289 56.3818 37.3289C53.8457 37.3289 51.7899 35.273 51.7899 32.7369C51.7899 30.2009 53.8457 28.145 56.3818 28.145C58.9179 28.145 60.9738 30.2009 60.9738 32.7369Z" fill="url(#paint18_linear_140_134)"/>
<path d="M88.5255 32.7369C88.5255 35.273 86.4696 37.3289 83.9335 37.3289C81.3974 37.3289 79.3416 35.273 79.3416 32.7369C79.3416 30.2009 81.3974 28.145 83.9335 28.145C86.4696 28.145 88.5255 30.2009 88.5255 32.7369Z" fill="white"/>
<path d="M88.5255 32.7369C88.5255 35.273 86.4696 37.3289 83.9335 37.3289C81.3974 37.3289 79.3416 35.273 79.3416 32.7369C79.3416 30.2009 81.3974 28.145 83.9335 28.145C86.4696 28.145 88.5255 30.2009 88.5255 32.7369Z" fill="url(#paint19_linear_140_134)"/>
<path d="M116.077 32.7369C116.077 35.273 114.021 37.3289 111.485 37.3289C108.949 37.3289 106.893 35.273 106.893 32.7369C106.893 30.2009 108.949 28.145 111.485 28.145C114.021 28.145 116.077 30.2009 116.077 32.7369Z" fill="white"/>
<path d="M116.077 32.7369C116.077 35.273 114.021 37.3289 111.485 37.3289C108.949 37.3289 106.893 35.273 106.893 32.7369C106.893 30.2009 108.949 28.145 111.485 28.145C114.021 28.145 116.077 30.2009 116.077 32.7369Z" fill="url(#paint20_linear_140_134)"/>
<path d="M143.629 32.7369C143.629 35.273 141.573 37.3289 139.037 37.3289C136.501 37.3289 134.445 35.273 134.445 32.7369C134.445 30.2009 136.501 28.145 139.037 28.145C141.573 28.145 143.629 30.2009 143.629 32.7369Z" fill="white"/>
<path d="M143.629 32.7369C143.629 35.273 141.573 37.3289 139.037 37.3289C136.501 37.3289 134.445 35.273 134.445 32.7369C134.445 30.2009 136.501 28.145 139.037 28.145C141.573 28.145 143.629 30.2009 143.629 32.7369Z" fill="url(#paint21_linear_140_134)"/>
<path d="M-21.6814 60.2886C-21.6814 62.8247 -23.7373 64.8806 -26.2733 64.8806C-28.8094 64.8806 -30.8653 62.8247 -30.8653 60.2886C-30.8653 57.7526 -28.8094 55.6967 -26.2733 55.6967C-23.7373 55.6967 -21.6814 57.7526 -21.6814 60.2886Z" fill="white"/>
<path d="M-21.6814 60.2886C-21.6814 62.8247 -23.7373 64.8806 -26.2733 64.8806C-28.8094 64.8806 -30.8653 62.8247 -30.8653 60.2886C-30.8653 57.7526 -28.8094 55.6967 -26.2733 55.6967C-23.7373 55.6967 -21.6814 57.7526 -21.6814 60.2886Z" fill="url(#paint22_linear_140_134)"/>
<path d="M5.87033 60.2886C5.87033 62.8247 3.81445 64.8806 1.27838 64.8806C-1.25769 64.8806 -3.31357 62.8247 -3.31357 60.2886C-3.31357 57.7526 -1.25769 55.6967 1.27838 55.6967C3.81445 55.6967 5.87033 57.7526 5.87033 60.2886Z" fill="white"/>
<path d="M5.87033 60.2886C5.87033 62.8247 3.81445 64.8806 1.27838 64.8806C-1.25769 64.8806 -3.31357 62.8247 -3.31357 60.2886C-3.31357 57.7526 -1.25769 55.6967 1.27838 55.6967C3.81445 55.6967 5.87033 57.7526 5.87033 60.2886Z" fill="url(#paint23_linear_140_134)"/>
<path d="M33.422 60.2886C33.422 62.8247 31.3662 64.8806 28.8301 64.8806C26.294 64.8806 24.2381 62.8247 24.2381 60.2886C24.2381 57.7526 26.294 55.6967 28.8301 55.6967C31.3662 55.6967 33.422 57.7526 33.422 60.2886Z" fill="white"/>
<path d="M33.422 60.2886C33.422 62.8247 31.3662 64.8806 28.8301 64.8806C26.294 64.8806 24.2381 62.8247 24.2381 60.2886C24.2381 57.7526 26.294 55.6967 28.8301 55.6967C31.3662 55.6967 33.422 57.7526 33.422 60.2886Z" fill="url(#paint24_linear_140_134)"/>
<path d="M60.9738 60.2886C60.9738 62.8247 58.9179 64.8806 56.3818 64.8806C53.8457 64.8806 51.7899 62.8247 51.7899 60.2886C51.7899 57.7526 53.8457 55.6967 56.3818 55.6967C58.9179 55.6967 60.9738 57.7526 60.9738 60.2886Z" fill="white"/>
<path d="M60.9738 60.2886C60.9738 62.8247 58.9179 64.8806 56.3818 64.8806C53.8457 64.8806 51.7899 62.8247 51.7899 60.2886C51.7899 57.7526 53.8457 55.6967 56.3818 55.6967C58.9179 55.6967 60.9738 57.7526 60.9738 60.2886Z" fill="url(#paint25_linear_140_134)"/>
<path d="M88.5255 60.2886C88.5255 62.8247 86.4696 64.8806 83.9335 64.8806C81.3974 64.8806 79.3416 62.8247 79.3416 60.2886C79.3416 57.7526 81.3974 55.6967 83.9335 55.6967C86.4696 55.6967 88.5255 57.7526 88.5255 60.2886Z" fill="white"/>
<path d="M88.5255 60.2886C88.5255 62.8247 86.4696 64.8806 83.9335 64.8806C81.3974 64.8806 79.3416 62.8247 79.3416 60.2886C79.3416 57.7526 81.3974 55.6967 83.9335 55.6967C86.4696 55.6967 88.5255 57.7526 88.5255 60.2886Z" fill="url(#paint26_linear_140_134)"/>
<path d="M116.077 60.2886C116.077 62.8247 114.021 64.8806 111.485 64.8806C108.949 64.8806 106.893 62.8247 106.893 60.2886C106.893 57.7526 108.949 55.6967 111.485 55.6967C114.021 55.6967 116.077 57.7526 116.077 60.2886Z" fill="white"/>
<path d="M116.077 60.2886C116.077 62.8247 114.021 64.8806 111.485 64.8806C108.949 64.8806 106.893 62.8247 106.893 60.2886C106.893 57.7526 108.949 55.6967 111.485 55.6967C114.021 55.6967 116.077 57.7526 116.077 60.2886Z" fill="url(#paint27_linear_140_134)"/>
<path d="M143.629 60.2886C143.629 62.8247 141.573 64.8806 139.037 64.8806C136.501 64.8806 134.445 62.8247 134.445 60.2886C134.445 57.7526 136.501 55.6967 139.037 55.6967C141.573 55.6967 143.629 57.7526 143.629 60.2886Z" fill="white"/>
<path d="M143.629 60.2886C143.629 62.8247 141.573 64.8806 139.037 64.8806C136.501 64.8806 134.445 62.8247 134.445 60.2886C134.445 57.7526 136.501 55.6967 139.037 55.6967C141.573 55.6967 143.629 57.7526 143.629 60.2886Z" fill="url(#paint28_linear_140_134)"/>
<path d="M171.181 60.2886C171.181 62.8247 169.125 64.8806 166.589 64.8806C164.053 64.8806 161.997 62.8247 161.997 60.2886C161.997 57.7526 164.053 55.6967 166.589 55.6967C169.125 55.6967 171.181 57.7526 171.181 60.2886Z" fill="white"/>
<path d="M171.181 60.2886C171.181 62.8247 169.125 64.8806 166.589 64.8806C164.053 64.8806 161.997 62.8247 161.997 60.2886C161.997 57.7526 164.053 55.6967 166.589 55.6967C169.125 55.6967 171.181 57.7526 171.181 60.2886Z" fill="url(#paint29_linear_140_134)"/>
<path d="M-49.2331 87.8403C-49.2331 90.3764 -51.289 92.4323 -53.825 92.4323C-56.3611 92.4323 -58.417 90.3764 -58.417 87.8403C-58.417 85.3043 -56.3611 83.2484 -53.825 83.2484C-51.289 83.2484 -49.2331 85.3043 -49.2331 87.8403Z" fill="white"/>
<path d="M-49.2331 87.8403C-49.2331 90.3764 -51.289 92.4323 -53.825 92.4323C-56.3611 92.4323 -58.417 90.3764 -58.417 87.8403C-58.417 85.3043 -56.3611 83.2484 -53.825 83.2484C-51.289 83.2484 -49.2331 85.3043 -49.2331 87.8403Z" fill="url(#paint30_linear_140_134)"/>
<path d="M-21.6814 87.8403C-21.6814 90.3764 -23.7373 92.4323 -26.2733 92.4323C-28.8094 92.4323 -30.8653 90.3764 -30.8653 87.8403C-30.8653 85.3043 -28.8094 83.2484 -26.2733 83.2484C-23.7373 83.2484 -21.6814 85.3043 -21.6814 87.8403Z" fill="white"/>
<path d="M-21.6814 87.8403C-21.6814 90.3764 -23.7373 92.4323 -26.2733 92.4323C-28.8094 92.4323 -30.8653 90.3764 -30.8653 87.8403C-30.8653 85.3043 -28.8094 83.2484 -26.2733 83.2484C-23.7373 83.2484 -21.6814 85.3043 -21.6814 87.8403Z" fill="url(#paint31_linear_140_134)"/>
<path d="M5.87033 87.8403C5.87033 90.3764 3.81445 92.4323 1.27838 92.4323C-1.25769 92.4323 -3.31357 90.3764 -3.31357 87.8403C-3.31357 85.3043 -1.25769 83.2484 1.27838 83.2484C3.81445 83.2484 5.87033 85.3043 5.87033 87.8403Z" fill="white"/>
<path d="M5.87033 87.8403C5.87033 90.3764 3.81445 92.4323 1.27838 92.4323C-1.25769 92.4323 -3.31357 90.3764 -3.31357 87.8403C-3.31357 85.3043 -1.25769 83.2484 1.27838 83.2484C3.81445 83.2484 5.87033 85.3043 5.87033 87.8403Z" fill="url(#paint32_linear_140_134)"/>
<path d="M33.422 87.8403C33.422 90.3764 31.3662 92.4323 28.8301 92.4323C26.294 92.4323 24.2381 90.3764 24.2381 87.8403C24.2381 85.3043 26.294 83.2484 28.8301 83.2484C31.3662 83.2484 33.422 85.3043 33.422 87.8403Z" fill="white"/>
<path d="M33.422 87.8403C33.422 90.3764 31.3662 92.4323 28.8301 92.4323C26.294 92.4323 24.2381 90.3764 24.2381 87.8403C24.2381 85.3043 26.294 83.2484 28.8301 83.2484C31.3662 83.2484 33.422 85.3043 33.422 87.8403Z" fill="url(#paint33_linear_140_134)"/>
<path d="M60.9738 87.8403C60.9738 90.3764 58.9179 92.4323 56.3818 92.4323C53.8457 92.4323 51.7899 90.3764 51.7899 87.8403C51.7899 85.3043 53.8457 83.2484 56.3818 83.2484C58.9179 83.2484 60.9738 85.3043 60.9738 87.8403Z" fill="white"/>
<path d="M60.9738 87.8403C60.9738 90.3764 58.9179 92.4323 56.3818 92.4323C53.8457 92.4323 51.7899 90.3764 51.7899 87.8403C51.7899 85.3043 53.8457 83.2484 56.3818 83.2484C58.9179 83.2484 60.9738 85.3043 60.9738 87.8403Z" fill="url(#paint34_linear_140_134)"/>
<path d="M88.5255 87.8403C88.5255 90.3764 86.4696 92.4323 83.9335 92.4323C81.3974 92.4323 79.3416 90.3764 79.3416 87.8403C79.3416 85.3043 81.3974 83.2484 83.9335 83.2484C86.4696 83.2484 88.5255 85.3043 88.5255 87.8403Z" fill="white"/>
<path d="M88.5255 87.8403C88.5255 90.3764 86.4696 92.4323 83.9335 92.4323C81.3974 92.4323 79.3416 90.3764 79.3416 87.8403C79.3416 85.3043 81.3974 83.2484 83.9335 83.2484C86.4696 83.2484 88.5255 85.3043 88.5255 87.8403Z" fill="url(#paint35_linear_140_134)"/>
<path d="M116.077 87.8403C116.077 90.3764 114.021 92.4323 111.485 92.4323C108.949 92.4323 106.893 90.3764 106.893 87.8403C106.893 85.3043 108.949 83.2484 111.485 83.2484C114.021 83.2484 116.077 85.3043 116.077 87.8403Z" fill="white"/>
<path d="M116.077 87.8403C116.077 90.3764 114.021 92.4323 111.485 92.4323C108.949 92.4323 106.893 90.3764 106.893 87.8403C106.893 85.3043 108.949 83.2484 111.485 83.2484C114.021 83.2484 116.077 85.3043 116.077 87.8403Z" fill="url(#paint36_linear_140_134)"/>
<path d="M143.629 87.8403C143.629 90.3764 141.573 92.4323 139.037 92.4323C136.501 92.4323 134.445 90.3764 134.445 87.8403C134.445 85.3043 136.501 83.2484 139.037 83.2484C141.573 83.2484 143.629 85.3043 143.629 87.8403Z" fill="white"/>
<path d="M143.629 87.8403C143.629 90.3764 141.573 92.4323 139.037 92.4323C136.501 92.4323 134.445 90.3764 134.445 87.8403C134.445 85.3043 136.501 83.2484 139.037 83.2484C141.573 83.2484 143.629 85.3043 143.629 87.8403Z" fill="url(#paint37_linear_140_134)"/>
<path d="M171.181 87.8403C171.181 90.3764 169.125 92.4323 166.589 92.4323C164.053 92.4323 161.997 90.3764 161.997 87.8403C161.997 85.3043 164.053 83.2484 166.589 83.2484C169.125 83.2484 171.181 85.3043 171.181 87.8403Z" fill="white"/>
<path d="M171.181 87.8403C171.181 90.3764 169.125 92.4323 166.589 92.4323C164.053 92.4323 161.997 90.3764 161.997 87.8403C161.997 85.3043 164.053 83.2484 166.589 83.2484C169.125 83.2484 171.181 85.3043 171.181 87.8403Z" fill="url(#paint38_linear_140_134)"/>
<path d="M198.732 87.8403C198.732 90.3764 196.676 92.4323 194.14 92.4323C191.604 92.4323 189.548 90.3764 189.548 87.8403C189.548 85.3043 191.604 83.2484 194.14 83.2484C196.676 83.2484 198.732 85.3043 198.732 87.8403Z" fill="white"/>
<path d="M198.732 87.8403C198.732 90.3764 196.676 92.4323 194.14 92.4323C191.604 92.4323 189.548 90.3764 189.548 87.8403C189.548 85.3043 191.604 83.2484 194.14 83.2484C196.676 83.2484 198.732 85.3043 198.732 87.8403Z" fill="url(#paint39_linear_140_134)"/>
<path d="M-49.2331 115.392C-49.2331 117.928 -51.289 119.984 -53.825 119.984C-56.3611 119.984 -58.417 117.928 -58.417 115.392C-58.417 112.856 -56.3611 110.8 -53.825 110.8C-51.289 110.8 -49.2331 112.856 -49.2331 115.392Z" fill="white"/>
<path d="M-49.2331 115.392C-49.2331 117.928 -51.289 119.984 -53.825 119.984C-56.3611 119.984 -58.417 117.928 -58.417 115.392C-58.417 112.856 -56.3611 110.8 -53.825 110.8C-51.289 110.8 -49.2331 112.856 -49.2331 115.392Z" fill="url(#paint40_linear_140_134)"/>
<path d="M-21.6814 115.392C-21.6814 117.928 -23.7373 119.984 -26.2733 119.984C-28.8094 119.984 -30.8653 117.928 -30.8653 115.392C-30.8653 112.856 -28.8094 110.8 -26.2733 110.8C-23.7373 110.8 -21.6814 112.856 -21.6814 115.392Z" fill="white"/>
<path d="M-21.6814 115.392C-21.6814 117.928 -23.7373 119.984 -26.2733 119.984C-28.8094 119.984 -30.8653 117.928 -30.8653 115.392C-30.8653 112.856 -28.8094 110.8 -26.2733 110.8C-23.7373 110.8 -21.6814 112.856 -21.6814 115.392Z" fill="url(#paint41_linear_140_134)"/>
<path d="M5.87033 115.392C5.87033 117.928 3.81445 119.984 1.27838 119.984C-1.25769 119.984 -3.31357 117.928 -3.31357 115.392C-3.31357 112.856 -1.25769 110.8 1.27838 110.8C3.81445 110.8 5.87033 112.856 5.87033 115.392Z" fill="white"/>
<path d="M5.87033 115.392C5.87033 117.928 3.81445 119.984 1.27838 119.984C-1.25769 119.984 -3.31357 117.928 -3.31357 115.392C-3.31357 112.856 -1.25769 110.8 1.27838 110.8C3.81445 110.8 5.87033 112.856 5.87033 115.392Z" fill="url(#paint42_linear_140_134)"/>
<path d="M33.422 115.392C33.422 117.928 31.3662 119.984 28.8301 119.984C26.294 119.984 24.2381 117.928 24.2381 115.392C24.2381 112.856 26.294 110.8 28.8301 110.8C31.3662 110.8 33.422 112.856 33.422 115.392Z" fill="white"/>
<path d="M33.422 115.392C33.422 117.928 31.3662 119.984 28.8301 119.984C26.294 119.984 24.2381 117.928 24.2381 115.392C24.2381 112.856 26.294 110.8 28.8301 110.8C31.3662 110.8 33.422 112.856 33.422 115.392Z" fill="url(#paint43_linear_140_134)"/>
<path d="M60.9738 115.392C60.9738 117.928 58.9179 119.984 56.3818 119.984C53.8457 119.984 51.7899 117.928 51.7899 115.392C51.7899 112.856 53.8457 110.8 56.3818 110.8C58.9179 110.8 60.9738 112.856 60.9738 115.392Z" fill="white"/>
<path d="M60.9738 115.392C60.9738 117.928 58.9179 119.984 56.3818 119.984C53.8457 119.984 51.7899 117.928 51.7899 115.392C51.7899 112.856 53.8457 110.8 56.3818 110.8C58.9179 110.8 60.9738 112.856 60.9738 115.392Z" fill="url(#paint44_linear_140_134)"/>
<path d="M88.5255 115.392C88.5255 117.928 86.4696 119.984 83.9335 119.984C81.3974 119.984 79.3416 117.928 79.3416 115.392C79.3416 112.856 81.3974 110.8 83.9335 110.8C86.4696 110.8 88.5255 112.856 88.5255 115.392Z" fill="white"/>
<path d="M88.5255 115.392C88.5255 117.928 86.4696 119.984 83.9335 119.984C81.3974 119.984 79.3416 117.928 79.3416 115.392C79.3416 112.856 81.3974 110.8 83.9335 110.8C86.4696 110.8 88.5255 112.856 88.5255 115.392Z" fill="url(#paint45_linear_140_134)"/>
<path d="M116.077 115.392C116.077 117.928 114.021 119.984 111.485 119.984C108.949 119.984 106.893 117.928 106.893 115.392C106.893 112.856 108.949 110.8 111.485 110.8C114.021 110.8 116.077 112.856 116.077 115.392Z" fill="white"/>
<path d="M116.077 115.392C116.077 117.928 114.021 119.984 111.485 119.984C108.949 119.984 106.893 117.928 106.893 115.392C106.893 112.856 108.949 110.8 111.485 110.8C114.021 110.8 116.077 112.856 116.077 115.392Z" fill="url(#paint46_linear_140_134)"/>
<path d="M143.629 115.392C143.629 117.928 141.573 119.984 139.037 119.984C136.501 119.984 134.445 117.928 134.445 115.392C134.445 112.856 136.501 110.8 139.037 110.8C141.573 110.8 143.629 112.856 143.629 115.392Z" fill="white"/>
<path d="M143.629 115.392C143.629 117.928 141.573 119.984 139.037 119.984C136.501 119.984 134.445 117.928 134.445 115.392C134.445 112.856 136.501 110.8 139.037 110.8C141.573 110.8 143.629 112.856 143.629 115.392Z" fill="url(#paint47_linear_140_134)"/>
<path d="M171.181 115.392C171.181 117.928 169.125 119.984 166.589 119.984C164.053 119.984 161.997 117.928 161.997 115.392C161.997 112.856 164.053 110.8 166.589 110.8C169.125 110.8 171.181 112.856 171.181 115.392Z" fill="white"/>
<path d="M171.181 115.392C171.181 117.928 169.125 119.984 166.589 119.984C164.053 119.984 161.997 117.928 161.997 115.392C161.997 112.856 164.053 110.8 166.589 110.8C169.125 110.8 171.181 112.856 171.181 115.392Z" fill="url(#paint48_linear_140_134)"/>
<path d="M198.732 115.392C198.732 117.928 196.676 119.984 194.14 119.984C191.604 119.984 189.548 117.928 189.548 115.392C189.548 112.856 191.604 110.8 194.14 110.8C196.676 110.8 198.732 112.856 198.732 115.392Z" fill="white"/>
<path d="M198.732 115.392C198.732 117.928 196.676 119.984 194.14 119.984C191.604 119.984 189.548 117.928 189.548 115.392C189.548 112.856 191.604 110.8 194.14 110.8C196.676 110.8 198.732 112.856 198.732 115.392Z" fill="url(#paint49_linear_140_134)"/>
<path d="M-49.2331 142.944C-49.2331 145.48 -51.289 147.536 -53.825 147.536C-56.3611 147.536 -58.417 145.48 -58.417 142.944C-58.417 140.408 -56.3611 138.352 -53.825 138.352C-51.289 138.352 -49.2331 140.408 -49.2331 142.944Z" fill="white"/>
<path d="M-49.2331 142.944C-49.2331 145.48 -51.289 147.536 -53.825 147.536C-56.3611 147.536 -58.417 145.48 -58.417 142.944C-58.417 140.408 -56.3611 138.352 -53.825 138.352C-51.289 138.352 -49.2331 140.408 -49.2331 142.944Z" fill="url(#paint50_linear_140_134)"/>
<path d="M-21.6814 142.944C-21.6814 145.48 -23.7373 147.536 -26.2733 147.536C-28.8094 147.536 -30.8653 145.48 -30.8653 142.944C-30.8653 140.408 -28.8094 138.352 -26.2733 138.352C-23.7373 138.352 -21.6814 140.408 -21.6814 142.944Z" fill="white"/>
<path d="M-21.6814 142.944C-21.6814 145.48 -23.7373 147.536 -26.2733 147.536C-28.8094 147.536 -30.8653 145.48 -30.8653 142.944C-30.8653 140.408 -28.8094 138.352 -26.2733 138.352C-23.7373 138.352 -21.6814 140.408 -21.6814 142.944Z" fill="url(#paint51_linear_140_134)"/>
<path d="M5.87033 142.944C5.87033 145.48 3.81445 147.536 1.27838 147.536C-1.25769 147.536 -3.31357 145.48 -3.31357 142.944C-3.31357 140.408 -1.25769 138.352 1.27838 138.352C3.81445 138.352 5.87033 140.408 5.87033 142.944Z" fill="white"/>
<path d="M5.87033 142.944C5.87033 145.48 3.81445 147.536 1.27838 147.536C-1.25769 147.536 -3.31357 145.48 -3.31357 142.944C-3.31357 140.408 -1.25769 138.352 1.27838 138.352C3.81445 138.352 5.87033 140.408 5.87033 142.944Z" fill="url(#paint52_linear_140_134)"/>
<path d="M33.422 142.944C33.422 145.48 31.3662 147.536 28.8301 147.536C26.294 147.536 24.2381 145.48 24.2381 142.944C24.2381 140.408 26.294 138.352 28.8301 138.352C31.3662 138.352 33.422 140.408 33.422 142.944Z" fill="white"/>
<path d="M33.422 142.944C33.422 145.48 31.3662 147.536 28.8301 147.536C26.294 147.536 24.2381 145.48 24.2381 142.944C24.2381 140.408 26.294 138.352 28.8301 138.352C31.3662 138.352 33.422 140.408 33.422 142.944Z" fill="url(#paint53_linear_140_134)"/>
<path d="M60.9738 142.944C60.9738 145.48 58.9179 147.536 56.3818 147.536C53.8457 147.536 51.7899 145.48 51.7899 142.944C51.7899 140.408 53.8457 138.352 56.3818 138.352C58.9179 138.352 60.9738 140.408 60.9738 142.944Z" fill="white"/>
<path d="M60.9738 142.944C60.9738 145.48 58.9179 147.536 56.3818 147.536C53.8457 147.536 51.7899 145.48 51.7899 142.944C51.7899 140.408 53.8457 138.352 56.3818 138.352C58.9179 138.352 60.9738 140.408 60.9738 142.944Z" fill="url(#paint54_linear_140_134)"/>
<path d="M88.5255 142.944C88.5255 145.48 86.4696 147.536 83.9335 147.536C81.3974 147.536 79.3416 145.48 79.3416 142.944C79.3416 140.408 81.3974 138.352 83.9335 138.352C86.4696 138.352 88.5255 140.408 88.5255 142.944Z" fill="white"/>
<path d="M88.5255 142.944C88.5255 145.48 86.4696 147.536 83.9335 147.536C81.3974 147.536 79.3416 145.48 79.3416 142.944C79.3416 140.408 81.3974 138.352 83.9335 138.352C86.4696 138.352 88.5255 140.408 88.5255 142.944Z" fill="url(#paint55_linear_140_134)"/>
<path d="M116.077 142.944C116.077 145.48 114.021 147.536 111.485 147.536C108.949 147.536 106.893 145.48 106.893 142.944C106.893 140.408 108.949 138.352 111.485 138.352C114.021 138.352 116.077 140.408 116.077 142.944Z" fill="white"/>
<path d="M116.077 142.944C116.077 145.48 114.021 147.536 111.485 147.536C108.949 147.536 106.893 145.48 106.893 142.944C106.893 140.408 108.949 138.352 111.485 138.352C114.021 138.352 116.077 140.408 116.077 142.944Z" fill="url(#paint56_linear_140_134)"/>
<path d="M143.629 142.944C143.629 145.48 141.573 147.536 139.037 147.536C136.501 147.536 134.445 145.48 134.445 142.944C134.445 140.408 136.501 138.352 139.037 138.352C141.573 138.352 143.629 140.408 143.629 142.944Z" fill="white"/>
<path d="M143.629 142.944C143.629 145.48 141.573 147.536 139.037 147.536C136.501 147.536 134.445 145.48 134.445 142.944C134.445 140.408 136.501 138.352 139.037 138.352C141.573 138.352 143.629 140.408 143.629 142.944Z" fill="url(#paint57_linear_140_134)"/>
<path d="M171.181 142.944C171.181 145.48 169.125 147.536 166.589 147.536C164.053 147.536 161.997 145.48 161.997 142.944C161.997 140.408 164.053 138.352 166.589 138.352C169.125 138.352 171.181 140.408 171.181 142.944Z" fill="white"/>
<path d="M171.181 142.944C171.181 145.48 169.125 147.536 166.589 147.536C164.053 147.536 161.997 145.48 161.997 142.944C161.997 140.408 164.053 138.352 166.589 138.352C169.125 138.352 171.181 140.408 171.181 142.944Z" fill="url(#paint58_linear_140_134)"/>
<path d="M198.732 142.944C198.732 145.48 196.676 147.536 194.14 147.536C191.604 147.536 189.548 145.48 189.548 142.944C189.548 140.408 191.604 138.352 194.14 138.352C196.676 138.352 198.732 140.408 198.732 142.944Z" fill="white"/>
<path d="M198.732 142.944C198.732 145.48 196.676 147.536 194.14 147.536C191.604 147.536 189.548 145.48 189.548 142.944C189.548 140.408 191.604 138.352 194.14 138.352C196.676 138.352 198.732 140.408 198.732 142.944Z" fill="url(#paint59_linear_140_134)"/>
<path d="M-49.2331 170.495C-49.2331 173.032 -51.289 175.087 -53.825 175.087C-56.3611 175.087 -58.417 173.032 -58.417 170.495C-58.417 167.959 -56.3611 165.904 -53.825 165.904C-51.289 165.904 -49.2331 167.959 -49.2331 170.495Z" fill="white"/>
<path d="M-49.2331 170.495C-49.2331 173.032 -51.289 175.087 -53.825 175.087C-56.3611 175.087 -58.417 173.032 -58.417 170.495C-58.417 167.959 -56.3611 165.904 -53.825 165.904C-51.289 165.904 -49.2331 167.959 -49.2331 170.495Z" fill="url(#paint60_linear_140_134)"/>
<path d="M-21.6814 170.495C-21.6814 173.032 -23.7373 175.087 -26.2733 175.087C-28.8094 175.087 -30.8653 173.032 -30.8653 170.495C-30.8653 167.959 -28.8094 165.904 -26.2733 165.904C-23.7373 165.904 -21.6814 167.959 -21.6814 170.495Z" fill="white"/>
<path d="M-21.6814 170.495C-21.6814 173.032 -23.7373 175.087 -26.2733 175.087C-28.8094 175.087 -30.8653 173.032 -30.8653 170.495C-30.8653 167.959 -28.8094 165.904 -26.2733 165.904C-23.7373 165.904 -21.6814 167.959 -21.6814 170.495Z" fill="url(#paint61_linear_140_134)"/>
<path d="M5.87033 170.495C5.87033 173.032 3.81445 175.087 1.27838 175.087C-1.25769 175.087 -3.31357 173.032 -3.31357 170.495C-3.31357 167.959 -1.25769 165.904 1.27838 165.904C3.81445 165.904 5.87033 167.959 5.87033 170.495Z" fill="white"/>
<path d="M5.87033 170.495C5.87033 173.032 3.81445 175.087 1.27838 175.087C-1.25769 175.087 -3.31357 173.032 -3.31357 170.495C-3.31357 167.959 -1.25769 165.904 1.27838 165.904C3.81445 165.904 5.87033 167.959 5.87033 170.495Z" fill="url(#paint62_linear_140_134)"/>
<path d="M33.422 170.495C33.422 173.032 31.3662 175.087 28.8301 175.087C26.294 175.087 24.2381 173.032 24.2381 170.495C24.2381 167.959 26.294 165.904 28.8301 165.904C31.3662 165.904 33.422 167.959 33.422 170.495Z" fill="white"/>
<path d="M33.422 170.495C33.422 173.032 31.3662 175.087 28.8301 175.087C26.294 175.087 24.2381 173.032 24.2381 170.495C24.2381 167.959 26.294 165.904 28.8301 165.904C31.3662 165.904 33.422 167.959 33.422 170.495Z" fill="url(#paint63_linear_140_134)"/>
<path d="M60.9738 170.495C60.9738 173.032 58.9179 175.087 56.3818 175.087C53.8457 175.087 51.7899 173.032 51.7899 170.495C51.7899 167.959 53.8457 165.904 56.3818 165.904C58.9179 165.904 60.9738 167.959 60.9738 170.495Z" fill="white"/>
<path d="M60.9738 170.495C60.9738 173.032 58.9179 175.087 56.3818 175.087C53.8457 175.087 51.7899 173.032 51.7899 170.495C51.7899 167.959 53.8457 165.904 56.3818 165.904C58.9179 165.904 60.9738 167.959 60.9738 170.495Z" fill="url(#paint64_linear_140_134)"/>
<path d="M88.5255 170.495C88.5255 173.032 86.4696 175.087 83.9335 175.087C81.3974 175.087 79.3416 173.032 79.3416 170.495C79.3416 167.959 81.3974 165.904 83.9335 165.904C86.4696 165.904 88.5255 167.959 88.5255 170.495Z" fill="white"/>
<path d="M88.5255 170.495C88.5255 173.032 86.4696 175.087 83.9335 175.087C81.3974 175.087 79.3416 173.032 79.3416 170.495C79.3416 167.959 81.3974 165.904 83.9335 165.904C86.4696 165.904 88.5255 167.959 88.5255 170.495Z" fill="url(#paint65_linear_140_134)"/>
<path d="M116.077 170.495C116.077 173.032 114.021 175.087 111.485 175.087C108.949 175.087 106.893 173.032 106.893 170.495C106.893 167.959 108.949 165.904 111.485 165.904C114.021 165.904 116.077 167.959 116.077 170.495Z" fill="white"/>
<path d="M116.077 170.495C116.077 173.032 114.021 175.087 111.485 175.087C108.949 175.087 106.893 173.032 106.893 170.495C106.893 167.959 108.949 165.904 111.485 165.904C114.021 165.904 116.077 167.959 116.077 170.495Z" fill="url(#paint66_linear_140_134)"/>
<path d="M143.629 170.495C143.629 173.032 141.573 175.087 139.037 175.087C136.501 175.087 134.445 173.032 134.445 170.495C134.445 167.959 136.501 165.904 139.037 165.904C141.573 165.904 143.629 167.959 143.629 170.495Z" fill="white"/>
<path d="M143.629 170.495C143.629 173.032 141.573 175.087 139.037 175.087C136.501 175.087 134.445 173.032 134.445 170.495C134.445 167.959 136.501 165.904 139.037 165.904C141.573 165.904 143.629 167.959 143.629 170.495Z" fill="url(#paint67_linear_140_134)"/>
<path d="M171.181 170.495C171.181 173.032 169.125 175.087 166.589 175.087C164.053 175.087 161.997 173.032 161.997 170.495C161.997 167.959 164.053 165.904 166.589 165.904C169.125 165.904 171.181 167.959 171.181 170.495Z" fill="white"/>
<path d="M171.181 170.495C171.181 173.032 169.125 175.087 166.589 175.087C164.053 175.087 161.997 173.032 161.997 170.495C161.997 167.959 164.053 165.904 166.589 165.904C169.125 165.904 171.181 167.959 171.181 170.495Z" fill="url(#paint68_linear_140_134)"/>
<path d="M198.732 170.495C198.732 173.032 196.676 175.087 194.14 175.087C191.604 175.087 189.548 173.032 189.548 170.495C189.548 167.959 191.604 165.904 194.14 165.904C196.676 165.904 198.732 167.959 198.732 170.495Z" fill="white"/>
<path d="M198.732 170.495C198.732 173.032 196.676 175.087 194.14 175.087C191.604 175.087 189.548 173.032 189.548 170.495C189.548 167.959 191.604 165.904 194.14 165.904C196.676 165.904 198.732 167.959 198.732 170.495Z" fill="url(#paint69_linear_140_134)"/>
<path d="M-21.6814 198.047C-21.6814 200.583 -23.7373 202.639 -26.2733 202.639C-28.8094 202.639 -30.8653 200.583 -30.8653 198.047C-30.8653 195.511 -28.8094 193.455 -26.2733 193.455C-23.7373 193.455 -21.6814 195.511 -21.6814 198.047Z" fill="white"/>
<path d="M-21.6814 198.047C-21.6814 200.583 -23.7373 202.639 -26.2733 202.639C-28.8094 202.639 -30.8653 200.583 -30.8653 198.047C-30.8653 195.511 -28.8094 193.455 -26.2733 193.455C-23.7373 193.455 -21.6814 195.511 -21.6814 198.047Z" fill="url(#paint70_linear_140_134)"/>
<path d="M5.87033 198.047C5.87033 200.583 3.81445 202.639 1.27838 202.639C-1.25769 202.639 -3.31357 200.583 -3.31357 198.047C-3.31357 195.511 -1.25769 193.455 1.27838 193.455C3.81445 193.455 5.87033 195.511 5.87033 198.047Z" fill="white"/>
<path d="M5.87033 198.047C5.87033 200.583 3.81445 202.639 1.27838 202.639C-1.25769 202.639 -3.31357 200.583 -3.31357 198.047C-3.31357 195.511 -1.25769 193.455 1.27838 193.455C3.81445 193.455 5.87033 195.511 5.87033 198.047Z" fill="url(#paint71_linear_140_134)"/>
<path d="M33.422 198.047C33.422 200.583 31.3662 202.639 28.8301 202.639C26.294 202.639 24.2381 200.583 24.2381 198.047C24.2381 195.511 26.294 193.455 28.8301 193.455C31.3662 193.455 33.422 195.511 33.422 198.047Z" fill="white"/>
<path d="M33.422 198.047C33.422 200.583 31.3662 202.639 28.8301 202.639C26.294 202.639 24.2381 200.583 24.2381 198.047C24.2381 195.511 26.294 193.455 28.8301 193.455C31.3662 193.455 33.422 195.511 33.422 198.047Z" fill="url(#paint72_linear_140_134)"/>
<path d="M60.9738 198.047C60.9738 200.583 58.9179 202.639 56.3818 202.639C53.8457 202.639 51.7899 200.583 51.7899 198.047C51.7899 195.511 53.8457 193.455 56.3818 193.455C58.9179 193.455 60.9738 195.511 60.9738 198.047Z" fill="white"/>
<path d="M60.9738 198.047C60.9738 200.583 58.9179 202.639 56.3818 202.639C53.8457 202.639 51.7899 200.583 51.7899 198.047C51.7899 195.511 53.8457 193.455 56.3818 193.455C58.9179 193.455 60.9738 195.511 60.9738 198.047Z" fill="url(#paint73_linear_140_134)"/>
<path d="M88.5255 198.047C88.5255 200.583 86.4696 202.639 83.9335 202.639C81.3974 202.639 79.3416 200.583 79.3416 198.047C79.3416 195.511 81.3974 193.455 83.9335 193.455C86.4696 193.455 88.5255 195.511 88.5255 198.047Z" fill="white"/>
<path d="M88.5255 198.047C88.5255 200.583 86.4696 202.639 83.9335 202.639C81.3974 202.639 79.3416 200.583 79.3416 198.047C79.3416 195.511 81.3974 193.455 83.9335 193.455C86.4696 193.455 88.5255 195.511 88.5255 198.047Z" fill="url(#paint74_linear_140_134)"/>
<path d="M116.077 198.047C116.077 200.583 114.021 202.639 111.485 202.639C108.949 202.639 106.893 200.583 106.893 198.047C106.893 195.511 108.949 193.455 111.485 193.455C114.021 193.455 116.077 195.511 116.077 198.047Z" fill="white"/>
<path d="M116.077 198.047C116.077 200.583 114.021 202.639 111.485 202.639C108.949 202.639 106.893 200.583 106.893 198.047C106.893 195.511 108.949 193.455 111.485 193.455C114.021 193.455 116.077 195.511 116.077 198.047Z" fill="url(#paint75_linear_140_134)"/>
<path d="M143.629 198.047C143.629 200.583 141.573 202.639 139.037 202.639C136.501 202.639 134.445 200.583 134.445 198.047C134.445 195.511 136.501 193.455 139.037 193.455C141.573 193.455 143.629 195.511 143.629 198.047Z" fill="white"/>
<path d="M143.629 198.047C143.629 200.583 141.573 202.639 139.037 202.639C136.501 202.639 134.445 200.583 134.445 198.047C134.445 195.511 136.501 193.455 139.037 193.455C141.573 193.455 143.629 195.511 143.629 198.047Z" fill="url(#paint76_linear_140_134)"/>
<path d="M171.181 198.047C171.181 200.583 169.125 202.639 166.589 202.639C164.053 202.639 161.997 200.583 161.997 198.047C161.997 195.511 164.053 193.455 166.589 193.455C169.125 193.455 171.181 195.511 171.181 198.047Z" fill="white"/>
<path d="M171.181 198.047C171.181 200.583 169.125 202.639 166.589 202.639C164.053 202.639 161.997 200.583 161.997 198.047C161.997 195.511 164.053 193.455 166.589 193.455C169.125 193.455 171.181 195.511 171.181 198.047Z" fill="url(#paint77_linear_140_134)"/>
<path d="M5.87033 225.599C5.87033 228.135 3.81445 230.191 1.27838 230.191C-1.25769 230.191 -3.31357 228.135 -3.31357 225.599C-3.31357 223.063 -1.25769 221.007 1.27838 221.007C3.81445 221.007 5.87033 223.063 5.87033 225.599Z" fill="white"/>
<path d="M5.87033 225.599C5.87033 228.135 3.81445 230.191 1.27838 230.191C-1.25769 230.191 -3.31357 228.135 -3.31357 225.599C-3.31357 223.063 -1.25769 221.007 1.27838 221.007C3.81445 221.007 5.87033 223.063 5.87033 225.599Z" fill="url(#paint78_linear_140_134)"/>
<path d="M33.422 225.599C33.422 228.135 31.3662 230.191 28.8301 230.191C26.294 230.191 24.2381 228.135 24.2381 225.599C24.2381 223.063 26.294 221.007 28.8301 221.007C31.3662 221.007 33.422 223.063 33.422 225.599Z" fill="white"/>
<path d="M33.422 225.599C33.422 228.135 31.3662 230.191 28.8301 230.191C26.294 230.191 24.2381 228.135 24.2381 225.599C24.2381 223.063 26.294 221.007 28.8301 221.007C31.3662 221.007 33.422 223.063 33.422 225.599Z" fill="url(#paint79_linear_140_134)"/>
<path d="M60.9738 225.599C60.9738 228.135 58.9179 230.191 56.3818 230.191C53.8457 230.191 51.7899 228.135 51.7899 225.599C51.7899 223.063 53.8457 221.007 56.3818 221.007C58.9179 221.007 60.9738 223.063 60.9738 225.599Z" fill="white"/>
<path d="M60.9738 225.599C60.9738 228.135 58.9179 230.191 56.3818 230.191C53.8457 230.191 51.7899 228.135 51.7899 225.599C51.7899 223.063 53.8457 221.007 56.3818 221.007C58.9179 221.007 60.9738 223.063 60.9738 225.599Z" fill="url(#paint80_linear_140_134)"/>
<path d="M88.5255 225.599C88.5255 228.135 86.4696 230.191 83.9335 230.191C81.3974 230.191 79.3416 228.135 79.3416 225.599C79.3416 223.063 81.3974 221.007 83.9335 221.007C86.4696 221.007 88.5255 223.063 88.5255 225.599Z" fill="white"/>
<path d="M88.5255 225.599C88.5255 228.135 86.4696 230.191 83.9335 230.191C81.3974 230.191 79.3416 228.135 79.3416 225.599C79.3416 223.063 81.3974 221.007 83.9335 221.007C86.4696 221.007 88.5255 223.063 88.5255 225.599Z" fill="url(#paint81_linear_140_134)"/>
<path d="M116.077 225.599C116.077 228.135 114.021 230.191 111.485 230.191C108.949 230.191 106.893 228.135 106.893 225.599C106.893 223.063 108.949 221.007 111.485 221.007C114.021 221.007 116.077 223.063 116.077 225.599Z" fill="white"/>
<path d="M116.077 225.599C116.077 228.135 114.021 230.191 111.485 230.191C108.949 230.191 106.893 228.135 106.893 225.599C106.893 223.063 108.949 221.007 111.485 221.007C114.021 221.007 116.077 223.063 116.077 225.599Z" fill="url(#paint82_linear_140_134)"/>
<path d="M143.629 225.599C143.629 228.135 141.573 230.191 139.037 230.191C136.501 230.191 134.445 228.135 134.445 225.599C134.445 223.063 136.501 221.007 139.037 221.007C141.573 221.007 143.629 223.063 143.629 225.599Z" fill="white"/>
<path d="M143.629 225.599C143.629 228.135 141.573 230.191 139.037 230.191C136.501 230.191 134.445 228.135 134.445 225.599C134.445 223.063 136.501 221.007 139.037 221.007C141.573 221.007 143.629 223.063 143.629 225.599Z" fill="url(#paint83_linear_140_134)"/>
<path d="M33.422 253.151C33.422 255.687 31.3662 257.743 28.8301 257.743C26.294 257.743 24.2381 255.687 24.2381 253.151C24.2381 250.615 26.294 248.559 28.8301 248.559C31.3662 248.559 33.422 250.615 33.422 253.151Z" fill="white"/>
<path d="M33.422 253.151C33.422 255.687 31.3662 257.743 28.8301 257.743C26.294 257.743 24.2381 255.687 24.2381 253.151C24.2381 250.615 26.294 248.559 28.8301 248.559C31.3662 248.559 33.422 250.615 33.422 253.151Z" fill="url(#paint84_linear_140_134)"/>
<path d="M60.9738 253.151C60.9738 255.687 58.9179 257.743 56.3818 257.743C53.8457 257.743 51.7899 255.687 51.7899 253.151C51.7899 250.615 53.8457 248.559 56.3818 248.559C58.9179 248.559 60.9738 250.615 60.9738 253.151Z" fill="white"/>
<path d="M60.9738 253.151C60.9738 255.687 58.9179 257.743 56.3818 257.743C53.8457 257.743 51.7899 255.687 51.7899 253.151C51.7899 250.615 53.8457 248.559 56.3818 248.559C58.9179 248.559 60.9738 250.615 60.9738 253.151Z" fill="url(#paint85_linear_140_134)"/>
<path d="M88.5255 253.151C88.5255 255.687 86.4696 257.743 83.9335 257.743C81.3974 257.743 79.3416 255.687 79.3416 253.151C79.3416 250.615 81.3974 248.559 83.9335 248.559C86.4696 248.559 88.5255 250.615 88.5255 253.151Z" fill="white"/>
<path d="M88.5255 253.151C88.5255 255.687 86.4696 257.743 83.9335 257.743C81.3974 257.743 79.3416 255.687 79.3416 253.151C79.3416 250.615 81.3974 248.559 83.9335 248.559C86.4696 248.559 88.5255 250.615 88.5255 253.151Z" fill="url(#paint86_linear_140_134)"/>
<path d="M116.077 253.151C116.077 255.687 114.021 257.743 111.485 257.743C108.949 257.743 106.893 255.687 106.893 253.151C106.893 250.615 108.949 248.559 111.485 248.559C114.021 248.559 116.077 250.615 116.077 253.151Z" fill="white"/>
<path d="M116.077 253.151C116.077 255.687 114.021 257.743 111.485 257.743C108.949 257.743 106.893 255.687 106.893 253.151C106.893 250.615 108.949 248.559 111.485 248.559C114.021 248.559 116.077 250.615 116.077 253.151Z" fill="url(#paint87_linear_140_134)"/>
<defs>
<linearGradient id="paint0_linear_140_134" x1="-66.897" y1="0.593259" x2="268.164" y2="125.285" gradientUnits="userSpaceOnUse">
<stop stop-color="#4A89DB"/>
<stop offset="1" stop-color="#39C77B"/>
</linearGradient>
<linearGradient id="paint1_linear_140_134" x1="-66.897" y1="0.593259" x2="268.164" y2="125.285" gradientUnits="userSpaceOnUse">
<stop stop-color="#4A89DB"/>
<stop offset="1" stop-color="#39C77B"/>
</linearGradient>
<linearGradient id="paint2_linear_140_134" x1="-66.897" y1="0.593259" x2="268.164" y2="125.285" gradientUnits="userSpaceOnUse">
<stop stop-color="#4A89DB"/>
<stop offset="1" stop-color="#39C77B"/>
</linearGradient>
<linearGradient id="paint3_linear_140_134" x1="-66.897" y1="0.593259" x2="268.164" y2="125.285" gradientUnits="userSpaceOnUse">
<stop stop-color="#4A89DB"/>
<stop offset="1" stop-color="#39C77B"/>
</linearGradient>
<linearGradient id="paint4_linear_140_134" x1="-66.897" y1="0.593259" x2="268.164" y2="125.285" gradientUnits="userSpaceOnUse">
<stop stop-color="#4A89DB"/>
<stop offset="1" stop-color="#39C77B"/>
</linearGradient>
<linearGradient id="paint5_linear_140_134" x1="-66.897" y1="0.593259" x2="268.164" y2="125.285" gradientUnits="userSpaceOnUse">
<stop stop-color="#4A89DB"/>
<stop offset="1" stop-color="#39C77B"/>
</linearGradient>
<linearGradient id="paint6_linear_140_134" x1="-66.897" y1="0.593259" x2="268.164" y2="125.285" gradientUnits="userSpaceOnUse">
<stop stop-color="#4A89DB"/>
<stop offset="1" stop-color="#39C77B"/>
</linearGradient>
<linearGradient id="paint7_linear_140_134" x1="-66.897" y1="0.593259" x2="268.164" y2="125.285" gradientUnits="userSpaceOnUse">
<stop stop-color="#4A89DB"/>
<stop offset="1" stop-color="#39C77B"/>
</linearGradient>
<linearGradient id="paint8_linear_140_134" x1="-66.897" y1="0.593259" x2="268.164" y2="125.285" gradientUnits="userSpaceOnUse">
<stop stop-color="#4A89DB"/>
<stop offset="1" stop-color="#39C77B"/>
</linearGradient>
<linearGradient id="paint9_linear_140_134" x1="-66.897" y1="0.593259" x2="268.164" y2="125.285" gradientUnits="userSpaceOnUse">
<stop stop-color="#4A89DB"/>
<stop offset="1" stop-color="#39C77B"/>
</linearGradient>
<linearGradient id="paint10_linear_140_134" x1="-66.897" y1="0.593259" x2="268.164" y2="125.285" gradientUnits="userSpaceOnUse">
<stop stop-color="#4A89DB"/>
<stop offset="1" stop-color="#39C77B"/>
</linearGradient>
<linearGradient id="paint11_linear_140_134" x1="-66.897" y1="0.593259" x2="268.164" y2="125.285" gradientUnits="userSpaceOnUse">
<stop stop-color="#4A89DB"/>
<stop offset="1" stop-color="#39C77B"/>
</linearGradient>
<linearGradient id="paint12_linear_140_134" x1="-66.897" y1="0.593259" x2="268.164" y2="125.285" gradientUnits="userSpaceOnUse">
<stop stop-color="#4A89DB"/>
<stop offset="1" stop-color="#39C77B"/>
</linearGradient>
<linearGradient id="paint13_linear_140_134" x1="-66.897" y1="0.593259" x2="268.164" y2="125.285" gradientUnits="userSpaceOnUse">
<stop stop-color="#4A89DB"/>
<stop offset="1" stop-color="#39C77B"/>
</linearGradient>
<linearGradient id="paint14_linear_140_134" x1="-66.897" y1="0.593259" x2="268.164" y2="125.285" gradientUnits="userSpaceOnUse">
<stop stop-color="#4A89DB"/>
<stop offset="1" stop-color="#39C77B"/>
</linearGradient>
<linearGradient id="paint15_linear_140_134" x1="-66.897" y1="0.593259" x2="268.164" y2="125.285" gradientUnits="userSpaceOnUse">
<stop stop-color="#4A89DB"/>
<stop offset="1" stop-color="#39C77B"/>
</linearGradient>
<linearGradient id="paint16_linear_140_134" x1="-66.897" y1="0.593259" x2="268.164" y2="125.285" gradientUnits="userSpaceOnUse">
<stop stop-color="#4A89DB"/>
<stop offset="1" stop-color="#39C77B"/>
</linearGradient>
<linearGradient id="paint17_linear_140_134" x1="-66.897" y1="0.593259" x2="268.164" y2="125.285" gradientUnits="userSpaceOnUse">
<stop stop-color="#4A89DB"/>
<stop offset="1" stop-color="#39C77B"/>
</linearGradient>
<linearGradient id="paint18_linear_140_134" x1="-66.897" y1="0.593259" x2="268.164" y2="125.285" gradientUnits="userSpaceOnUse">
<stop stop-color="#4A89DB"/>
<stop offset="1" stop-color="#39C77B"/>
</linearGradient>
<linearGradient id="paint19_linear_140_134" x1="-66.897" y1="0.593259" x2="268.164" y2="125.285" gradientUnits="userSpaceOnUse">
<stop stop-color="#4A89DB"/>
<stop offset="1" stop-color="#39C77B"/>
</linearGradient>
<linearGradient id="paint20_linear_140_134" x1="-66.897" y1="0.593259" x2="268.164" y2="125.285" gradientUnits="userSpaceOnUse">
<stop stop-color="#4A89DB"/>
<stop offset="1" stop-color="#39C77B"/>
</linearGradient>
<linearGradient id="paint21_linear_140_134" x1="-66.897" y1="0.593259" x2="268.164" y2="125.285" gradientUnits="userSpaceOnUse">
<stop stop-color="#4A89DB"/>
<stop offset="1" stop-color="#39C77B"/>
</linearGradient>
<linearGradient id="paint22_linear_140_134" x1="-66.897" y1="0.593259" x2="268.164" y2="125.285" gradientUnits="userSpaceOnUse">
<stop stop-color="#4A89DB"/>
<stop offset="1" stop-color="#39C77B"/>
</linearGradient>
<linearGradient id="paint23_linear_140_134" x1="-66.897" y1="0.593259" x2="268.164" y2="125.285" gradientUnits="userSpaceOnUse">
<stop stop-color="#4A89DB"/>
<stop offset="1" stop-color="#39C77B"/>
</linearGradient>
<linearGradient id="paint24_linear_140_134" x1="-66.897" y1="0.593259" x2="268.164" y2="125.285" gradientUnits="userSpaceOnUse">
<stop stop-color="#4A89DB"/>
<stop offset="1" stop-color="#39C77B"/>
</linearGradient>
<linearGradient id="paint25_linear_140_134" x1="-66.897" y1="0.593259" x2="268.164" y2="125.285" gradientUnits="userSpaceOnUse">
<stop stop-color="#4A89DB"/>
<stop offset="1" stop-color="#39C77B"/>
</linearGradient>
<linearGradient id="paint26_linear_140_134" x1="-66.897" y1="0.593259" x2="268.164" y2="125.285" gradientUnits="userSpaceOnUse">
<stop stop-color="#4A89DB"/>
<stop offset="1" stop-color="#39C77B"/>
</linearGradient>
<linearGradient id="paint27_linear_140_134" x1="-66.897" y1="0.593259" x2="268.164" y2="125.285" gradientUnits="userSpaceOnUse">
<stop stop-color="#4A89DB"/>
<stop offset="1" stop-color="#39C77B"/>
</linearGradient>
<linearGradient id="paint28_linear_140_134" x1="-66.897" y1="0.593259" x2="268.164" y2="125.285" gradientUnits="userSpaceOnUse">
<stop stop-color="#4A89DB"/>
<stop offset="1" stop-color="#39C77B"/>
</linearGradient>
<linearGradient id="paint29_linear_140_134" x1="-66.897" y1="0.593259" x2="268.164" y2="125.285" gradientUnits="userSpaceOnUse">
<stop stop-color="#4A89DB"/>
<stop offset="1" stop-color="#39C77B"/>
</linearGradient>
<linearGradient id="paint30_linear_140_134" x1="-66.897" y1="0.593259" x2="268.164" y2="125.285" gradientUnits="userSpaceOnUse">
<stop stop-color="#4A89DB"/>
<stop offset="1" stop-color="#39C77B"/>
</linearGradient>
<linearGradient id="paint31_linear_140_134" x1="-66.897" y1="0.593259" x2="268.164" y2="125.285" gradientUnits="userSpaceOnUse">
<stop stop-color="#4A89DB"/>
<stop offset="1" stop-color="#39C77B"/>
</linearGradient>
<linearGradient id="paint32_linear_140_134" x1="-66.897" y1="0.593259" x2="268.164" y2="125.285" gradientUnits="userSpaceOnUse">
<stop stop-color="#4A89DB"/>
<stop offset="1" stop-color="#39C77B"/>
</linearGradient>
<linearGradient id="paint33_linear_140_134" x1="-66.897" y1="0.593259" x2="268.164" y2="125.285" gradientUnits="userSpaceOnUse">
<stop stop-color="#4A89DB"/>
<stop offset="1" stop-color="#39C77B"/>
</linearGradient>
<linearGradient id="paint34_linear_140_134" x1="-66.897" y1="0.593259" x2="268.164" y2="125.285" gradientUnits="userSpaceOnUse">
<stop stop-color="#4A89DB"/>
<stop offset="1" stop-color="#39C77B"/>
</linearGradient>
<linearGradient id="paint35_linear_140_134" x1="-66.897" y1="0.593259" x2="268.164" y2="125.285" gradientUnits="userSpaceOnUse">
<stop stop-color="#4A89DB"/>
<stop offset="1" stop-color="#39C77B"/>
</linearGradient>
<linearGradient id="paint36_linear_140_134" x1="-66.897" y1="0.593259" x2="268.164" y2="125.285" gradientUnits="userSpaceOnUse">
<stop stop-color="#4A89DB"/>
<stop offset="1" stop-color="#39C77B"/>
</linearGradient>
<linearGradient id="paint37_linear_140_134" x1="-66.897" y1="0.593259" x2="268.164" y2="125.285" gradientUnits="userSpaceOnUse">
<stop stop-color="#4A89DB"/>
<stop offset="1" stop-color="#39C77B"/>
</linearGradient>
<linearGradient id="paint38_linear_140_134" x1="-66.897" y1="0.593259" x2="268.164" y2="125.285" gradientUnits="userSpaceOnUse">
<stop stop-color="#4A89DB"/>
<stop offset="1" stop-color="#39C77B"/>
</linearGradient>
<linearGradient id="paint39_linear_140_134" x1="-66.897" y1="0.593259" x2="268.164" y2="125.285" gradientUnits="userSpaceOnUse">
<stop stop-color="#4A89DB"/>
<stop offset="1" stop-color="#39C77B"/>
</linearGradient>
<linearGradient id="paint40_linear_140_134" x1="-66.897" y1="0.593259" x2="268.164" y2="125.285" gradientUnits="userSpaceOnUse">
<stop stop-color="#4A89DB"/>
<stop offset="1" stop-color="#39C77B"/>
</linearGradient>
<linearGradient id="paint41_linear_140_134" x1="-66.897" y1="0.593259" x2="268.164" y2="125.285" gradientUnits="userSpaceOnUse">
<stop stop-color="#4A89DB"/>
<stop offset="1" stop-color="#39C77B"/>
</linearGradient>
<linearGradient id="paint42_linear_140_134" x1="-66.897" y1="0.593259" x2="268.164" y2="125.285" gradientUnits="userSpaceOnUse">
<stop stop-color="#4A89DB"/>
<stop offset="1" stop-color="#39C77B"/>
</linearGradient>
<linearGradient id="paint43_linear_140_134" x1="-66.897" y1="0.593259" x2="268.164" y2="125.285" gradientUnits="userSpaceOnUse">
<stop stop-color="#4A89DB"/>
<stop offset="1" stop-color="#39C77B"/>
</linearGradient>
<linearGradient id="paint44_linear_140_134" x1="-66.897" y1="0.593259" x2="268.164" y2="125.285" gradientUnits="userSpaceOnUse">
<stop stop-color="#4A89DB"/>
<stop offset="1" stop-color="#39C77B"/>
</linearGradient>
<linearGradient id="paint45_linear_140_134" x1="-66.897" y1="0.593259" x2="268.164" y2="125.285" gradientUnits="userSpaceOnUse">
<stop stop-color="#4A89DB"/>
<stop offset="1" stop-color="#39C77B"/>
</linearGradient>
<linearGradient id="paint46_linear_140_134" x1="-66.897" y1="0.593259" x2="268.164" y2="125.285" gradientUnits="userSpaceOnUse">
<stop stop-color="#4A89DB"/>
<stop offset="1" stop-color="#39C77B"/>
</linearGradient>
<linearGradient id="paint47_linear_140_134" x1="-66.897" y1="0.593259" x2="268.164" y2="125.285" gradientUnits="userSpaceOnUse">
<stop stop-color="#4A89DB"/>
<stop offset="1" stop-color="#39C77B"/>
</linearGradient>
<linearGradient id="paint48_linear_140_134" x1="-66.897" y1="0.593259" x2="268.164" y2="125.285" gradientUnits="userSpaceOnUse">
<stop stop-color="#4A89DB"/>
<stop offset="1" stop-color="#39C77B"/>
</linearGradient>
<linearGradient id="paint49_linear_140_134" x1="-66.897" y1="0.593259" x2="268.164" y2="125.285" gradientUnits="userSpaceOnUse">
<stop stop-color="#4A89DB"/>
<stop offset="1" stop-color="#39C77B"/>
</linearGradient>
<linearGradient id="paint50_linear_140_134" x1="-66.897" y1="0.593259" x2="268.164" y2="125.285" gradientUnits="userSpaceOnUse">
<stop stop-color="#4A89DB"/>
<stop offset="1" stop-color="#39C77B"/>
</linearGradient>
<linearGradient id="paint51_linear_140_134" x1="-66.897" y1="0.593259" x2="268.164" y2="125.285" gradientUnits="userSpaceOnUse">
<stop stop-color="#4A89DB"/>
<stop offset="1" stop-color="#39C77B"/>
</linearGradient>
<linearGradient id="paint52_linear_140_134" x1="-66.897" y1="0.593259" x2="268.164" y2="125.285" gradientUnits="userSpaceOnUse">
<stop stop-color="#4A89DB"/>
<stop offset="1" stop-color="#39C77B"/>
</linearGradient>
<linearGradient id="paint53_linear_140_134" x1="-66.897" y1="0.593259" x2="268.164" y2="125.285" gradientUnits="userSpaceOnUse">
<stop stop-color="#4A89DB"/>
<stop offset="1" stop-color="#39C77B"/>
</linearGradient>
<linearGradient id="paint54_linear_140_134" x1="-66.897" y1="0.593259" x2="268.164" y2="125.285" gradientUnits="userSpaceOnUse">
<stop stop-color="#4A89DB"/>
<stop offset="1" stop-color="#39C77B"/>
</linearGradient>
<linearGradient id="paint55_linear_140_134" x1="-66.897" y1="0.593259" x2="268.164" y2="125.285" gradientUnits="userSpaceOnUse">
<stop stop-color="#4A89DB"/>
<stop offset="1" stop-color="#39C77B"/>
</linearGradient>
<linearGradient id="paint56_linear_140_134" x1="-66.897" y1="0.593259" x2="268.164" y2="125.285" gradientUnits="userSpaceOnUse">
<stop stop-color="#4A89DB"/>
<stop offset="1" stop-color="#39C77B"/>
</linearGradient>
<linearGradient id="paint57_linear_140_134" x1="-66.897" y1="0.593259" x2="268.164" y2="125.285" gradientUnits="userSpaceOnUse">
<stop stop-color="#4A89DB"/>
<stop offset="1" stop-color="#39C77B"/>
</linearGradient>
<linearGradient id="paint58_linear_140_134" x1="-66.897" y1="0.593259" x2="268.164" y2="125.285" gradientUnits="userSpaceOnUse">
<stop stop-color="#4A89DB"/>
<stop offset="1" stop-color="#39C77B"/>
</linearGradient>
<linearGradient id="paint59_linear_140_134" x1="-66.897" y1="0.593259" x2="268.164" y2="125.285" gradientUnits="userSpaceOnUse">
<stop stop-color="#4A89DB"/>
<stop offset="1" stop-color="#39C77B"/>
</linearGradient>
<linearGradient id="paint60_linear_140_134" x1="-66.897" y1="0.593259" x2="268.164" y2="125.285" gradientUnits="userSpaceOnUse">
<stop stop-color="#4A89DB"/>
<stop offset="1" stop-color="#39C77B"/>
</linearGradient>
<linearGradient id="paint61_linear_140_134" x1="-66.897" y1="0.593259" x2="268.164" y2="125.285" gradientUnits="userSpaceOnUse">
<stop stop-color="#4A89DB"/>
<stop offset="1" stop-color="#39C77B"/>
</linearGradient>
<linearGradient id="paint62_linear_140_134" x1="-66.897" y1="0.593259" x2="268.164" y2="125.285" gradientUnits="userSpaceOnUse">
<stop stop-color="#4A89DB"/>
<stop offset="1" stop-color="#39C77B"/>
</linearGradient>
<linearGradient id="paint63_linear_140_134" x1="-66.897" y1="0.593259" x2="268.164" y2="125.285" gradientUnits="userSpaceOnUse">
<stop stop-color="#4A89DB"/>
<stop offset="1" stop-color="#39C77B"/>
</linearGradient>
<linearGradient id="paint64_linear_140_134" x1="-66.897" y1="0.593259" x2="268.164" y2="125.285" gradientUnits="userSpaceOnUse">
<stop stop-color="#4A89DB"/>
<stop offset="1" stop-color="#39C77B"/>
</linearGradient>
<linearGradient id="paint65_linear_140_134" x1="-66.897" y1="0.593259" x2="268.164" y2="125.285" gradientUnits="userSpaceOnUse">
<stop stop-color="#4A89DB"/>
<stop offset="1" stop-color="#39C77B"/>
</linearGradient>
<linearGradient id="paint66_linear_140_134" x1="-66.897" y1="0.593259" x2="268.164" y2="125.285" gradientUnits="userSpaceOnUse">
<stop stop-color="#4A89DB"/>
<stop offset="1" stop-color="#39C77B"/>
</linearGradient>
<linearGradient id="paint67_linear_140_134" x1="-66.897" y1="0.593259" x2="268.164" y2="125.285" gradientUnits="userSpaceOnUse">
<stop stop-color="#4A89DB"/>
<stop offset="1" stop-color="#39C77B"/>
</linearGradient>
<linearGradient id="paint68_linear_140_134" x1="-66.897" y1="0.593259" x2="268.164" y2="125.285" gradientUnits="userSpaceOnUse">
<stop stop-color="#4A89DB"/>
<stop offset="1" stop-color="#39C77B"/>
</linearGradient>
<linearGradient id="paint69_linear_140_134" x1="-66.897" y1="0.593259" x2="268.164" y2="125.285" gradientUnits="userSpaceOnUse">
<stop stop-color="#4A89DB"/>
<stop offset="1" stop-color="#39C77B"/>
</linearGradient>
<linearGradient id="paint70_linear_140_134" x1="-66.897" y1="0.593259" x2="268.164" y2="125.285" gradientUnits="userSpaceOnUse">
<stop stop-color="#4A89DB"/>
<stop offset="1" stop-color="#39C77B"/>
</linearGradient>
<linearGradient id="paint71_linear_140_134" x1="-66.897" y1="0.593259" x2="268.164" y2="125.285" gradientUnits="userSpaceOnUse">
<stop stop-color="#4A89DB"/>
<stop offset="1" stop-color="#39C77B"/>
</linearGradient>
<linearGradient id="paint72_linear_140_134" x1="-66.897" y1="0.593259" x2="268.164" y2="125.285" gradientUnits="userSpaceOnUse">
<stop stop-color="#4A89DB"/>
<stop offset="1" stop-color="#39C77B"/>
</linearGradient>
<linearGradient id="paint73_linear_140_134" x1="-66.897" y1="0.593259" x2="268.164" y2="125.285" gradientUnits="userSpaceOnUse">
<stop stop-color="#4A89DB"/>
<stop offset="1" stop-color="#39C77B"/>
</linearGradient>
<linearGradient id="paint74_linear_140_134" x1="-66.897" y1="0.593259" x2="268.164" y2="125.285" gradientUnits="userSpaceOnUse">
<stop stop-color="#4A89DB"/>
<stop offset="1" stop-color="#39C77B"/>
</linearGradient>
<linearGradient id="paint75_linear_140_134" x1="-66.897" y1="0.593259" x2="268.164" y2="125.285" gradientUnits="userSpaceOnUse">
<stop stop-color="#4A89DB"/>
<stop offset="1" stop-color="#39C77B"/>
</linearGradient>
<linearGradient id="paint76_linear_140_134" x1="-66.897" y1="0.593259" x2="268.164" y2="125.285" gradientUnits="userSpaceOnUse">
<stop stop-color="#4A89DB"/>
<stop offset="1" stop-color="#39C77B"/>
</linearGradient>
<linearGradient id="paint77_linear_140_134" x1="-66.897" y1="0.593259" x2="268.164" y2="125.285" gradientUnits="userSpaceOnUse">
<stop stop-color="#4A89DB"/>
<stop offset="1" stop-color="#39C77B"/>
</linearGradient>
<linearGradient id="paint78_linear_140_134" x1="-66.897" y1="0.593259" x2="268.164" y2="125.285" gradientUnits="userSpaceOnUse">
<stop stop-color="#4A89DB"/>
<stop offset="1" stop-color="#39C77B"/>
</linearGradient>
<linearGradient id="paint79_linear_140_134" x1="-66.897" y1="0.593259" x2="268.164" y2="125.285" gradientUnits="userSpaceOnUse">
<stop stop-color="#4A89DB"/>
<stop offset="1" stop-color="#39C77B"/>
</linearGradient>
<linearGradient id="paint80_linear_140_134" x1="-66.897" y1="0.593259" x2="268.164" y2="125.285" gradientUnits="userSpaceOnUse">
<stop stop-color="#4A89DB"/>
<stop offset="1" stop-color="#39C77B"/>
</linearGradient>
<linearGradient id="paint81_linear_140_134" x1="-66.897" y1="0.593259" x2="268.164" y2="125.285" gradientUnits="userSpaceOnUse">
<stop stop-color="#4A89DB"/>
<stop offset="1" stop-color="#39C77B"/>
</linearGradient>
<linearGradient id="paint82_linear_140_134" x1="-66.897" y1="0.593259" x2="268.164" y2="125.285" gradientUnits="userSpaceOnUse">
<stop stop-color="#4A89DB"/>
<stop offset="1" stop-color="#39C77B"/>
</linearGradient>
<linearGradient id="paint83_linear_140_134" x1="-66.897" y1="0.593259" x2="268.164" y2="125.285" gradientUnits="userSpaceOnUse">
<stop stop-color="#4A89DB"/>
<stop offset="1" stop-color="#39C77B"/>
</linearGradient>
<linearGradient id="paint84_linear_140_134" x1="-66.897" y1="0.593259" x2="268.164" y2="125.285" gradientUnits="userSpaceOnUse">
<stop stop-color="#4A89DB"/>
<stop offset="1" stop-color="#39C77B"/>
</linearGradient>
<linearGradient id="paint85_linear_140_134" x1="-66.897" y1="0.593259" x2="268.164" y2="125.285" gradientUnits="userSpaceOnUse">
<stop stop-color="#4A89DB"/>
<stop offset="1" stop-color="#39C77B"/>
</linearGradient>
<linearGradient id="paint86_linear_140_134" x1="-66.897" y1="0.593259" x2="268.164" y2="125.285" gradientUnits="userSpaceOnUse">
<stop stop-color="#4A89DB"/>
<stop offset="1" stop-color="#39C77B"/>
</linearGradient>
<linearGradient id="paint87_linear_140_134" x1="-66.897" y1="0.593259" x2="268.164" y2="125.285" gradientUnits="userSpaceOnUse">
<stop stop-color="#4A89DB"/>
<stop offset="1" stop-color="#39C77B"/>
</linearGradient>
</defs>
</svg>
