<svg width="263" height="285" viewBox="0 0 263 285" fill="none" xmlns="http://www.w3.org/2000/svg">
<path d="M350.808 85.1552C351.815 86.8986 352.795 88.659 353.748 90.436C352.017 89.3034 350.86 87.366 350.808 85.1552Z" fill="white"/>
<path d="M350.808 85.1552C351.815 86.8986 352.795 88.659 353.748 90.436C352.017 89.3034 350.86 87.366 350.808 85.1552Z" fill="url(#paint0_linear_140_130)"/>
<path d="M315.271 40.3469C318.295 43.1851 321.229 46.1188 324.067 49.1432C322.97 51.1716 320.823 52.5493 318.355 52.5493C314.77 52.5493 311.865 49.6435 311.865 46.059C311.865 43.5909 313.242 41.4445 315.271 40.3469Z" fill="white"/>
<path d="M315.271 40.3469C318.295 43.1851 321.229 46.1188 324.067 49.1432C322.97 51.1716 320.823 52.5493 318.355 52.5493C314.77 52.5493 311.865 49.6435 311.865 46.059C311.865 43.5909 313.242 41.4445 315.271 40.3469Z" fill="url(#paint1_linear_140_130)"/>
<path d="M273.978 10.6659C275.755 11.6192 277.515 12.5993 279.259 13.6057C277.048 13.5541 275.111 12.397 273.978 10.6659Z" fill="white"/>
<path d="M273.978 10.6659C275.755 11.6192 277.515 12.5993 279.259 13.6057C277.048 13.5541 275.111 12.397 273.978 10.6659Z" fill="url(#paint2_linear_140_130)"/>
<path d="M84.8584 13.6057C86.6018 12.5993 88.3622 11.6192 90.1392 10.6659C89.0065 12.397 87.0692 13.5541 84.8584 13.6057Z" fill="white"/>
<path d="M84.8584 13.6057C86.6018 12.5993 88.3622 11.6192 90.1392 10.6659C89.0065 12.397 87.0692 13.5541 84.8584 13.6057Z" fill="url(#paint3_linear_140_130)"/>
<path d="M40.0501 49.1432C42.8883 46.1188 45.822 43.1851 48.8464 40.3469C50.8748 41.4445 52.2525 43.5909 52.2525 46.059C52.2525 49.6435 49.3467 52.5493 45.7622 52.5493C43.294 52.5493 41.1477 51.1716 40.0501 49.1432Z" fill="white"/>
<path d="M40.0501 49.1432C42.8883 46.1188 45.822 43.1851 48.8464 40.3469C50.8748 41.4445 52.2525 43.5909 52.2525 46.059C52.2525 49.6435 49.3467 52.5493 45.7622 52.5493C43.294 52.5493 41.1477 51.1716 40.0501 49.1432Z" fill="url(#paint4_linear_140_130)"/>
<path d="M10.3691 90.436C11.3224 88.659 12.3025 86.8986 13.3089 85.1552C13.2573 87.366 12.1002 89.3034 10.3691 90.436Z" fill="white"/>
<path d="M10.3691 90.436C11.3224 88.659 12.3025 86.8986 13.3089 85.1552C13.2573 87.366 12.1002 89.3034 10.3691 90.436Z" fill="url(#paint5_linear_140_130)"/>
<path d="M353.748 274.275C352.795 276.052 351.815 277.812 350.808 279.556C350.86 277.345 352.017 275.407 353.748 274.275Z" fill="white"/>
<path d="M353.748 274.275C352.795 276.052 351.815 277.812 350.808 279.556C350.86 277.345 352.017 275.407 353.748 274.275Z" fill="url(#paint6_linear_140_130)"/>
<path d="M324.067 315.568C322.97 313.539 320.823 312.161 318.355 312.161C314.77 312.161 311.865 315.067 311.865 318.652C311.865 321.12 313.242 323.266 315.271 324.364C318.295 321.526 321.229 318.592 324.067 315.568Z" fill="white"/>
<path d="M324.067 315.568C322.97 313.539 320.823 312.161 318.355 312.161C314.77 312.161 311.865 315.067 311.865 318.652C311.865 321.12 313.242 323.266 315.271 324.364C318.295 321.526 321.229 318.592 324.067 315.568Z" fill="url(#paint7_linear_140_130)"/>
<path d="M279.259 351.105C277.048 351.157 275.111 352.314 273.978 354.045C275.755 353.092 277.515 352.111 279.259 351.105Z" fill="white"/>
<path d="M279.259 351.105C277.048 351.157 275.111 352.314 273.978 354.045C275.755 353.092 277.515 352.111 279.259 351.105Z" fill="url(#paint8_linear_140_130)"/>
<path d="M90.1392 354.045C89.0065 352.314 87.0692 351.157 84.8584 351.105C86.6018 352.111 88.3622 353.092 90.1392 354.045Z" fill="white"/>
<path d="M90.1392 354.045C89.0065 352.314 87.0692 351.157 84.8584 351.105C86.6018 352.111 88.3622 353.092 90.1392 354.045Z" fill="url(#paint9_linear_140_130)"/>
<path d="M48.8464 324.364C50.8748 323.266 52.2525 321.12 52.2525 318.652C52.2525 315.067 49.3467 312.161 45.7622 312.161C43.294 312.161 41.1477 313.539 40.0501 315.568C42.8883 318.592 45.822 321.526 48.8464 324.364Z" fill="white"/>
<path d="M48.8464 324.364C50.8748 323.266 52.2525 321.12 52.2525 318.652C52.2525 315.067 49.3467 312.161 45.7622 312.161C43.294 312.161 41.1477 313.539 40.0501 315.568C42.8883 318.592 45.822 321.526 48.8464 324.364Z" fill="url(#paint10_linear_140_130)"/>
<path d="M13.3089 279.556C13.2573 277.345 12.1002 275.407 10.3691 274.275C11.3224 276.052 12.3025 277.812 13.3089 279.556Z" fill="white"/>
<path d="M13.3089 279.556C13.2573 277.345 12.1002 275.407 10.3691 274.275C11.3224 276.052 12.3025 277.812 13.3089 279.556Z" fill="url(#paint11_linear_140_130)"/>
<path d="M130.136 7.1172C130.136 10.7017 127.23 13.6075 123.646 13.6075C120.061 13.6075 117.156 10.7017 117.156 7.1172C117.156 3.5327 120.061 0.626892 123.646 0.626892C127.23 0.626892 130.136 3.5327 130.136 7.1172Z" fill="white"/>
<path d="M130.136 7.1172C130.136 10.7017 127.23 13.6075 123.646 13.6075C120.061 13.6075 117.156 10.7017 117.156 7.1172C117.156 3.5327 120.061 0.626892 123.646 0.626892C127.23 0.626892 130.136 3.5327 130.136 7.1172Z" fill="url(#paint12_linear_140_130)"/>
<path d="M169.078 7.1172C169.078 10.7017 166.172 13.6075 162.588 13.6075C159.003 13.6075 156.097 10.7017 156.097 7.1172C156.097 3.5327 159.003 0.626892 162.588 0.626892C166.172 0.626892 169.078 3.5327 169.078 7.1172Z" fill="white"/>
<path d="M169.078 7.1172C169.078 10.7017 166.172 13.6075 162.588 13.6075C159.003 13.6075 156.097 10.7017 156.097 7.1172C156.097 3.5327 159.003 0.626892 162.588 0.626892C166.172 0.626892 169.078 3.5327 169.078 7.1172Z" fill="url(#paint13_linear_140_130)"/>
<path d="M208.02 7.1172C208.02 10.7017 205.114 13.6075 201.529 13.6075C197.945 13.6075 195.039 10.7017 195.039 7.1172C195.039 3.5327 197.945 0.626892 201.529 0.626892C205.114 0.626892 208.02 3.5327 208.02 7.1172Z" fill="white"/>
<path d="M208.02 7.1172C208.02 10.7017 205.114 13.6075 201.529 13.6075C197.945 13.6075 195.039 10.7017 195.039 7.1172C195.039 3.5327 197.945 0.626892 201.529 0.626892C205.114 0.626892 208.02 3.5327 208.02 7.1172Z" fill="url(#paint14_linear_140_130)"/>
<path d="M246.962 7.1172C246.962 10.7017 244.056 13.6075 240.471 13.6075C236.887 13.6075 233.981 10.7017 233.981 7.1172C233.981 3.5327 236.887 0.626892 240.471 0.626892C244.056 0.626892 246.962 3.5327 246.962 7.1172Z" fill="white"/>
<path d="M246.962 7.1172C246.962 10.7017 244.056 13.6075 240.471 13.6075C236.887 13.6075 233.981 10.7017 233.981 7.1172C233.981 3.5327 236.887 0.626892 240.471 0.626892C244.056 0.626892 246.962 3.5327 246.962 7.1172Z" fill="url(#paint15_linear_140_130)"/>
<path d="M91.1943 46.059C91.1943 49.6435 88.2885 52.5493 84.704 52.5493C81.1195 52.5493 78.2137 49.6435 78.2137 46.059C78.2137 42.4745 81.1195 39.5687 84.704 39.5687C88.2885 39.5687 91.1943 42.4745 91.1943 46.059Z" fill="white"/>
<path d="M91.1943 46.059C91.1943 49.6435 88.2885 52.5493 84.704 52.5493C81.1195 52.5493 78.2137 49.6435 78.2137 46.059C78.2137 42.4745 81.1195 39.5687 84.704 39.5687C88.2885 39.5687 91.1943 42.4745 91.1943 46.059Z" fill="url(#paint16_linear_140_130)"/>
<path d="M130.136 46.059C130.136 49.6435 127.23 52.5493 123.646 52.5493C120.061 52.5493 117.156 49.6435 117.156 46.059C117.156 42.4745 120.061 39.5687 123.646 39.5687C127.23 39.5687 130.136 42.4745 130.136 46.059Z" fill="white"/>
<path d="M130.136 46.059C130.136 49.6435 127.23 52.5493 123.646 52.5493C120.061 52.5493 117.156 49.6435 117.156 46.059C117.156 42.4745 120.061 39.5687 123.646 39.5687C127.23 39.5687 130.136 42.4745 130.136 46.059Z" fill="url(#paint17_linear_140_130)"/>
<path d="M169.078 46.059C169.078 49.6435 166.172 52.5493 162.588 52.5493C159.003 52.5493 156.097 49.6435 156.097 46.059C156.097 42.4745 159.003 39.5687 162.588 39.5687C166.172 39.5687 169.078 42.4745 169.078 46.059Z" fill="white"/>
<path d="M169.078 46.059C169.078 49.6435 166.172 52.5493 162.588 52.5493C159.003 52.5493 156.097 49.6435 156.097 46.059C156.097 42.4745 159.003 39.5687 162.588 39.5687C166.172 39.5687 169.078 42.4745 169.078 46.059Z" fill="url(#paint18_linear_140_130)"/>
<path d="M208.02 46.059C208.02 49.6435 205.114 52.5493 201.529 52.5493C197.945 52.5493 195.039 49.6435 195.039 46.059C195.039 42.4745 197.945 39.5687 201.529 39.5687C205.114 39.5687 208.02 42.4745 208.02 46.059Z" fill="white"/>
<path d="M208.02 46.059C208.02 49.6435 205.114 52.5493 201.529 52.5493C197.945 52.5493 195.039 49.6435 195.039 46.059C195.039 42.4745 197.945 39.5687 201.529 39.5687C205.114 39.5687 208.02 42.4745 208.02 46.059Z" fill="url(#paint19_linear_140_130)"/>
<path d="M246.962 46.059C246.962 49.6435 244.056 52.5493 240.471 52.5493C236.887 52.5493 233.981 49.6435 233.981 46.059C233.981 42.4745 236.887 39.5687 240.471 39.5687C244.056 39.5687 246.962 42.4745 246.962 46.059Z" fill="white"/>
<path d="M246.962 46.059C246.962 49.6435 244.056 52.5493 240.471 52.5493C236.887 52.5493 233.981 49.6435 233.981 46.059C233.981 42.4745 236.887 39.5687 240.471 39.5687C244.056 39.5687 246.962 42.4745 246.962 46.059Z" fill="url(#paint20_linear_140_130)"/>
<path d="M285.903 46.059C285.903 49.6435 282.998 52.5493 279.413 52.5493C275.829 52.5493 272.923 49.6435 272.923 46.059C272.923 42.4745 275.829 39.5687 279.413 39.5687C282.998 39.5687 285.903 42.4745 285.903 46.059Z" fill="white"/>
<path d="M285.903 46.059C285.903 49.6435 282.998 52.5493 279.413 52.5493C275.829 52.5493 272.923 49.6435 272.923 46.059C272.923 42.4745 275.829 39.5687 279.413 39.5687C282.998 39.5687 285.903 42.4745 285.903 46.059Z" fill="url(#paint21_linear_140_130)"/>
<path d="M52.2525 85.0008C52.2525 88.5853 49.3467 91.4911 45.7622 91.4911C42.1777 91.4911 39.2719 88.5853 39.2719 85.0008C39.2719 81.4163 42.1777 78.5105 45.7622 78.5105C49.3467 78.5105 52.2525 81.4163 52.2525 85.0008Z" fill="white"/>
<path d="M52.2525 85.0008C52.2525 88.5853 49.3467 91.4911 45.7622 91.4911C42.1777 91.4911 39.2719 88.5853 39.2719 85.0008C39.2719 81.4163 42.1777 78.5105 45.7622 78.5105C49.3467 78.5105 52.2525 81.4163 52.2525 85.0008Z" fill="url(#paint22_linear_140_130)"/>
<path d="M91.1943 85.0008C91.1943 88.5853 88.2885 91.4911 84.704 91.4911C81.1195 91.4911 78.2137 88.5853 78.2137 85.0008C78.2137 81.4163 81.1195 78.5105 84.704 78.5105C88.2885 78.5105 91.1943 81.4163 91.1943 85.0008Z" fill="white"/>
<path d="M91.1943 85.0008C91.1943 88.5853 88.2885 91.4911 84.704 91.4911C81.1195 91.4911 78.2137 88.5853 78.2137 85.0008C78.2137 81.4163 81.1195 78.5105 84.704 78.5105C88.2885 78.5105 91.1943 81.4163 91.1943 85.0008Z" fill="url(#paint23_linear_140_130)"/>
<path d="M130.136 85.0008C130.136 88.5853 127.23 91.4911 123.646 91.4911C120.061 91.4911 117.156 88.5853 117.156 85.0008C117.156 81.4163 120.061 78.5105 123.646 78.5105C127.23 78.5105 130.136 81.4163 130.136 85.0008Z" fill="white"/>
<path d="M130.136 85.0008C130.136 88.5853 127.23 91.4911 123.646 91.4911C120.061 91.4911 117.156 88.5853 117.156 85.0008C117.156 81.4163 120.061 78.5105 123.646 78.5105C127.23 78.5105 130.136 81.4163 130.136 85.0008Z" fill="url(#paint24_linear_140_130)"/>
<path d="M169.078 85.0008C169.078 88.5853 166.172 91.4911 162.588 91.4911C159.003 91.4911 156.097 88.5853 156.097 85.0008C156.097 81.4163 159.003 78.5105 162.588 78.5105C166.172 78.5105 169.078 81.4163 169.078 85.0008Z" fill="white"/>
<path d="M169.078 85.0008C169.078 88.5853 166.172 91.4911 162.588 91.4911C159.003 91.4911 156.097 88.5853 156.097 85.0008C156.097 81.4163 159.003 78.5105 162.588 78.5105C166.172 78.5105 169.078 81.4163 169.078 85.0008Z" fill="url(#paint25_linear_140_130)"/>
<path d="M208.02 85.0008C208.02 88.5853 205.114 91.4911 201.529 91.4911C197.945 91.4911 195.039 88.5853 195.039 85.0008C195.039 81.4163 197.945 78.5105 201.529 78.5105C205.114 78.5105 208.02 81.4163 208.02 85.0008Z" fill="white"/>
<path d="M208.02 85.0008C208.02 88.5853 205.114 91.4911 201.529 91.4911C197.945 91.4911 195.039 88.5853 195.039 85.0008C195.039 81.4163 197.945 78.5105 201.529 78.5105C205.114 78.5105 208.02 81.4163 208.02 85.0008Z" fill="url(#paint26_linear_140_130)"/>
<path d="M246.962 85.0008C246.962 88.5853 244.056 91.4911 240.471 91.4911C236.887 91.4911 233.981 88.5853 233.981 85.0008C233.981 81.4163 236.887 78.5105 240.471 78.5105C244.056 78.5105 246.962 81.4163 246.962 85.0008Z" fill="white"/>
<path d="M246.962 85.0008C246.962 88.5853 244.056 91.4911 240.471 91.4911C236.887 91.4911 233.981 88.5853 233.981 85.0008C233.981 81.4163 236.887 78.5105 240.471 78.5105C244.056 78.5105 246.962 81.4163 246.962 85.0008Z" fill="url(#paint27_linear_140_130)"/>
<path d="M285.903 85.0008C285.903 88.5853 282.998 91.4911 279.413 91.4911C275.829 91.4911 272.923 88.5853 272.923 85.0008C272.923 81.4163 275.829 78.5105 279.413 78.5105C282.998 78.5105 285.903 81.4163 285.903 85.0008Z" fill="white"/>
<path d="M285.903 85.0008C285.903 88.5853 282.998 91.4911 279.413 91.4911C275.829 91.4911 272.923 88.5853 272.923 85.0008C272.923 81.4163 275.829 78.5105 279.413 78.5105C282.998 78.5105 285.903 81.4163 285.903 85.0008Z" fill="url(#paint28_linear_140_130)"/>
<path d="M324.845 85.0008C324.845 88.5853 321.939 91.4911 318.355 91.4911C314.77 91.4911 311.865 88.5853 311.865 85.0008C311.865 81.4163 314.77 78.5105 318.355 78.5105C321.939 78.5105 324.845 81.4163 324.845 85.0008Z" fill="white"/>
<path d="M324.845 85.0008C324.845 88.5853 321.939 91.4911 318.355 91.4911C314.77 91.4911 311.865 88.5853 311.865 85.0008C311.865 81.4163 314.77 78.5105 318.355 78.5105C321.939 78.5105 324.845 81.4163 324.845 85.0008Z" fill="url(#paint29_linear_140_130)"/>
<path d="M13.3107 123.943C13.3107 127.527 10.4049 130.433 6.82038 130.433C3.23589 130.433 0.330078 127.527 0.330078 123.943C0.330078 120.358 3.23589 117.452 6.82038 117.452C10.4049 117.452 13.3107 120.358 13.3107 123.943Z" fill="white"/>
<path d="M13.3107 123.943C13.3107 127.527 10.4049 130.433 6.82038 130.433C3.23589 130.433 0.330078 127.527 0.330078 123.943C0.330078 120.358 3.23589 117.452 6.82038 117.452C10.4049 117.452 13.3107 120.358 13.3107 123.943Z" fill="url(#paint30_linear_140_130)"/>
<path d="M52.2525 123.943C52.2525 127.527 49.3467 130.433 45.7622 130.433C42.1777 130.433 39.2719 127.527 39.2719 123.943C39.2719 120.358 42.1777 117.452 45.7622 117.452C49.3467 117.452 52.2525 120.358 52.2525 123.943Z" fill="white"/>
<path d="M52.2525 123.943C52.2525 127.527 49.3467 130.433 45.7622 130.433C42.1777 130.433 39.2719 127.527 39.2719 123.943C39.2719 120.358 42.1777 117.452 45.7622 117.452C49.3467 117.452 52.2525 120.358 52.2525 123.943Z" fill="url(#paint31_linear_140_130)"/>
<path d="M91.1943 123.943C91.1943 127.527 88.2885 130.433 84.704 130.433C81.1195 130.433 78.2137 127.527 78.2137 123.943C78.2137 120.358 81.1195 117.452 84.704 117.452C88.2885 117.452 91.1943 120.358 91.1943 123.943Z" fill="white"/>
<path d="M91.1943 123.943C91.1943 127.527 88.2885 130.433 84.704 130.433C81.1195 130.433 78.2137 127.527 78.2137 123.943C78.2137 120.358 81.1195 117.452 84.704 117.452C88.2885 117.452 91.1943 120.358 91.1943 123.943Z" fill="url(#paint32_linear_140_130)"/>
<path d="M130.136 123.943C130.136 127.527 127.23 130.433 123.646 130.433C120.061 130.433 117.156 127.527 117.156 123.943C117.156 120.358 120.061 117.452 123.646 117.452C127.23 117.452 130.136 120.358 130.136 123.943Z" fill="white"/>
<path d="M130.136 123.943C130.136 127.527 127.23 130.433 123.646 130.433C120.061 130.433 117.156 127.527 117.156 123.943C117.156 120.358 120.061 117.452 123.646 117.452C127.23 117.452 130.136 120.358 130.136 123.943Z" fill="url(#paint33_linear_140_130)"/>
<path d="M169.078 123.943C169.078 127.527 166.172 130.433 162.588 130.433C159.003 130.433 156.097 127.527 156.097 123.943C156.097 120.358 159.003 117.452 162.588 117.452C166.172 117.452 169.078 120.358 169.078 123.943Z" fill="white"/>
<path d="M169.078 123.943C169.078 127.527 166.172 130.433 162.588 130.433C159.003 130.433 156.097 127.527 156.097 123.943C156.097 120.358 159.003 117.452 162.588 117.452C166.172 117.452 169.078 120.358 169.078 123.943Z" fill="url(#paint34_linear_140_130)"/>
<path d="M208.02 123.943C208.02 127.527 205.114 130.433 201.529 130.433C197.945 130.433 195.039 127.527 195.039 123.943C195.039 120.358 197.945 117.452 201.529 117.452C205.114 117.452 208.02 120.358 208.02 123.943Z" fill="white"/>
<path d="M208.02 123.943C208.02 127.527 205.114 130.433 201.529 130.433C197.945 130.433 195.039 127.527 195.039 123.943C195.039 120.358 197.945 117.452 201.529 117.452C205.114 117.452 208.02 120.358 208.02 123.943Z" fill="url(#paint35_linear_140_130)"/>
<path d="M246.962 123.943C246.962 127.527 244.056 130.433 240.471 130.433C236.887 130.433 233.981 127.527 233.981 123.943C233.981 120.358 236.887 117.452 240.471 117.452C244.056 117.452 246.962 120.358 246.962 123.943Z" fill="white"/>
<path d="M246.962 123.943C246.962 127.527 244.056 130.433 240.471 130.433C236.887 130.433 233.981 127.527 233.981 123.943C233.981 120.358 236.887 117.452 240.471 117.452C244.056 117.452 246.962 120.358 246.962 123.943Z" fill="url(#paint36_linear_140_130)"/>
<path d="M285.903 123.943C285.903 127.527 282.998 130.433 279.413 130.433C275.829 130.433 272.923 127.527 272.923 123.943C272.923 120.358 275.829 117.452 279.413 117.452C282.998 117.452 285.903 120.358 285.903 123.943Z" fill="white"/>
<path d="M285.903 123.943C285.903 127.527 282.998 130.433 279.413 130.433C275.829 130.433 272.923 127.527 272.923 123.943C272.923 120.358 275.829 117.452 279.413 117.452C282.998 117.452 285.903 120.358 285.903 123.943Z" fill="url(#paint37_linear_140_130)"/>
<path d="M324.845 123.943C324.845 127.527 321.939 130.433 318.355 130.433C314.77 130.433 311.865 127.527 311.865 123.943C311.865 120.358 314.77 117.452 318.355 117.452C321.939 117.452 324.845 120.358 324.845 123.943Z" fill="white"/>
<path d="M324.845 123.943C324.845 127.527 321.939 130.433 318.355 130.433C314.77 130.433 311.865 127.527 311.865 123.943C311.865 120.358 314.77 117.452 318.355 117.452C321.939 117.452 324.845 120.358 324.845 123.943Z" fill="url(#paint38_linear_140_130)"/>
<path d="M363.787 123.943C363.787 127.527 360.881 130.433 357.297 130.433C353.712 130.433 350.806 127.527 350.806 123.943C350.806 120.358 353.712 117.452 357.297 117.452C360.881 117.452 363.787 120.358 363.787 123.943Z" fill="white"/>
<path d="M363.787 123.943C363.787 127.527 360.881 130.433 357.297 130.433C353.712 130.433 350.806 127.527 350.806 123.943C350.806 120.358 353.712 117.452 357.297 117.452C360.881 117.452 363.787 120.358 363.787 123.943Z" fill="url(#paint39_linear_140_130)"/>
<path d="M13.3107 162.884C13.3107 166.469 10.4049 169.375 6.82038 169.375C3.23589 169.375 0.330078 166.469 0.330078 162.884C0.330078 159.3 3.23589 156.394 6.82038 156.394C10.4049 156.394 13.3107 159.3 13.3107 162.884Z" fill="white"/>
<path d="M13.3107 162.884C13.3107 166.469 10.4049 169.375 6.82038 169.375C3.23589 169.375 0.330078 166.469 0.330078 162.884C0.330078 159.3 3.23589 156.394 6.82038 156.394C10.4049 156.394 13.3107 159.3 13.3107 162.884Z" fill="url(#paint40_linear_140_130)"/>
<path d="M52.2525 162.884C52.2525 166.469 49.3467 169.375 45.7622 169.375C42.1777 169.375 39.2719 166.469 39.2719 162.884C39.2719 159.3 42.1777 156.394 45.7622 156.394C49.3467 156.394 52.2525 159.3 52.2525 162.884Z" fill="white"/>
<path d="M52.2525 162.884C52.2525 166.469 49.3467 169.375 45.7622 169.375C42.1777 169.375 39.2719 166.469 39.2719 162.884C39.2719 159.3 42.1777 156.394 45.7622 156.394C49.3467 156.394 52.2525 159.3 52.2525 162.884Z" fill="url(#paint41_linear_140_130)"/>
<path d="M91.1943 162.884C91.1943 166.469 88.2885 169.375 84.704 169.375C81.1195 169.375 78.2137 166.469 78.2137 162.884C78.2137 159.3 81.1195 156.394 84.704 156.394C88.2885 156.394 91.1943 159.3 91.1943 162.884Z" fill="white"/>
<path d="M91.1943 162.884C91.1943 166.469 88.2885 169.375 84.704 169.375C81.1195 169.375 78.2137 166.469 78.2137 162.884C78.2137 159.3 81.1195 156.394 84.704 156.394C88.2885 156.394 91.1943 159.3 91.1943 162.884Z" fill="url(#paint42_linear_140_130)"/>
<path d="M130.136 162.884C130.136 166.469 127.23 169.375 123.646 169.375C120.061 169.375 117.156 166.469 117.156 162.884C117.156 159.3 120.061 156.394 123.646 156.394C127.23 156.394 130.136 159.3 130.136 162.884Z" fill="white"/>
<path d="M130.136 162.884C130.136 166.469 127.23 169.375 123.646 169.375C120.061 169.375 117.156 166.469 117.156 162.884C117.156 159.3 120.061 156.394 123.646 156.394C127.23 156.394 130.136 159.3 130.136 162.884Z" fill="url(#paint43_linear_140_130)"/>
<path d="M169.078 162.884C169.078 166.469 166.172 169.375 162.588 169.375C159.003 169.375 156.097 166.469 156.097 162.884C156.097 159.3 159.003 156.394 162.588 156.394C166.172 156.394 169.078 159.3 169.078 162.884Z" fill="white"/>
<path d="M169.078 162.884C169.078 166.469 166.172 169.375 162.588 169.375C159.003 169.375 156.097 166.469 156.097 162.884C156.097 159.3 159.003 156.394 162.588 156.394C166.172 156.394 169.078 159.3 169.078 162.884Z" fill="url(#paint44_linear_140_130)"/>
<path d="M208.02 162.884C208.02 166.469 205.114 169.375 201.529 169.375C197.945 169.375 195.039 166.469 195.039 162.884C195.039 159.3 197.945 156.394 201.529 156.394C205.114 156.394 208.02 159.3 208.02 162.884Z" fill="white"/>
<path d="M208.02 162.884C208.02 166.469 205.114 169.375 201.529 169.375C197.945 169.375 195.039 166.469 195.039 162.884C195.039 159.3 197.945 156.394 201.529 156.394C205.114 156.394 208.02 159.3 208.02 162.884Z" fill="url(#paint45_linear_140_130)"/>
<path d="M246.962 162.884C246.962 166.469 244.056 169.375 240.471 169.375C236.887 169.375 233.981 166.469 233.981 162.884C233.981 159.3 236.887 156.394 240.471 156.394C244.056 156.394 246.962 159.3 246.962 162.884Z" fill="white"/>
<path d="M246.962 162.884C246.962 166.469 244.056 169.375 240.471 169.375C236.887 169.375 233.981 166.469 233.981 162.884C233.981 159.3 236.887 156.394 240.471 156.394C244.056 156.394 246.962 159.3 246.962 162.884Z" fill="url(#paint46_linear_140_130)"/>
<path d="M285.903 162.884C285.903 166.469 282.998 169.375 279.413 169.375C275.829 169.375 272.923 166.469 272.923 162.884C272.923 159.3 275.829 156.394 279.413 156.394C282.998 156.394 285.903 159.3 285.903 162.884Z" fill="white"/>
<path d="M285.903 162.884C285.903 166.469 282.998 169.375 279.413 169.375C275.829 169.375 272.923 166.469 272.923 162.884C272.923 159.3 275.829 156.394 279.413 156.394C282.998 156.394 285.903 159.3 285.903 162.884Z" fill="url(#paint47_linear_140_130)"/>
<path d="M324.845 162.884C324.845 166.469 321.939 169.375 318.355 169.375C314.77 169.375 311.865 166.469 311.865 162.884C311.865 159.3 314.77 156.394 318.355 156.394C321.939 156.394 324.845 159.3 324.845 162.884Z" fill="white"/>
<path d="M324.845 162.884C324.845 166.469 321.939 169.375 318.355 169.375C314.77 169.375 311.865 166.469 311.865 162.884C311.865 159.3 314.77 156.394 318.355 156.394C321.939 156.394 324.845 159.3 324.845 162.884Z" fill="url(#paint48_linear_140_130)"/>
<path d="M363.787 162.884C363.787 166.469 360.881 169.375 357.297 169.375C353.712 169.375 350.806 166.469 350.806 162.884C350.806 159.3 353.712 156.394 357.297 156.394C360.881 156.394 363.787 159.3 363.787 162.884Z" fill="white"/>
<path d="M363.787 162.884C363.787 166.469 360.881 169.375 357.297 169.375C353.712 169.375 350.806 166.469 350.806 162.884C350.806 159.3 353.712 156.394 357.297 156.394C360.881 156.394 363.787 159.3 363.787 162.884Z" fill="url(#paint49_linear_140_130)"/>
<path d="M13.3107 201.826C13.3107 205.411 10.4049 208.317 6.82038 208.317C3.23589 208.317 0.330078 205.411 0.330078 201.826C0.330078 198.242 3.23589 195.336 6.82038 195.336C10.4049 195.336 13.3107 198.242 13.3107 201.826Z" fill="white"/>
<path d="M13.3107 201.826C13.3107 205.411 10.4049 208.317 6.82038 208.317C3.23589 208.317 0.330078 205.411 0.330078 201.826C0.330078 198.242 3.23589 195.336 6.82038 195.336C10.4049 195.336 13.3107 198.242 13.3107 201.826Z" fill="url(#paint50_linear_140_130)"/>
<path d="M52.2525 201.826C52.2525 205.411 49.3467 208.317 45.7622 208.317C42.1777 208.317 39.2719 205.411 39.2719 201.826C39.2719 198.242 42.1777 195.336 45.7622 195.336C49.3467 195.336 52.2525 198.242 52.2525 201.826Z" fill="white"/>
<path d="M52.2525 201.826C52.2525 205.411 49.3467 208.317 45.7622 208.317C42.1777 208.317 39.2719 205.411 39.2719 201.826C39.2719 198.242 42.1777 195.336 45.7622 195.336C49.3467 195.336 52.2525 198.242 52.2525 201.826Z" fill="url(#paint51_linear_140_130)"/>
<path d="M91.1943 201.826C91.1943 205.411 88.2885 208.317 84.704 208.317C81.1195 208.317 78.2137 205.411 78.2137 201.826C78.2137 198.242 81.1195 195.336 84.704 195.336C88.2885 195.336 91.1943 198.242 91.1943 201.826Z" fill="white"/>
<path d="M91.1943 201.826C91.1943 205.411 88.2885 208.317 84.704 208.317C81.1195 208.317 78.2137 205.411 78.2137 201.826C78.2137 198.242 81.1195 195.336 84.704 195.336C88.2885 195.336 91.1943 198.242 91.1943 201.826Z" fill="url(#paint52_linear_140_130)"/>
<path d="M130.136 201.826C130.136 205.411 127.23 208.317 123.646 208.317C120.061 208.317 117.156 205.411 117.156 201.826C117.156 198.242 120.061 195.336 123.646 195.336C127.23 195.336 130.136 198.242 130.136 201.826Z" fill="white"/>
<path d="M130.136 201.826C130.136 205.411 127.23 208.317 123.646 208.317C120.061 208.317 117.156 205.411 117.156 201.826C117.156 198.242 120.061 195.336 123.646 195.336C127.23 195.336 130.136 198.242 130.136 201.826Z" fill="url(#paint53_linear_140_130)"/>
<path d="M169.078 201.826C169.078 205.411 166.172 208.317 162.588 208.317C159.003 208.317 156.097 205.411 156.097 201.826C156.097 198.242 159.003 195.336 162.588 195.336C166.172 195.336 169.078 198.242 169.078 201.826Z" fill="white"/>
<path d="M169.078 201.826C169.078 205.411 166.172 208.317 162.588 208.317C159.003 208.317 156.097 205.411 156.097 201.826C156.097 198.242 159.003 195.336 162.588 195.336C166.172 195.336 169.078 198.242 169.078 201.826Z" fill="url(#paint54_linear_140_130)"/>
<path d="M208.02 201.826C208.02 205.411 205.114 208.317 201.529 208.317C197.945 208.317 195.039 205.411 195.039 201.826C195.039 198.242 197.945 195.336 201.529 195.336C205.114 195.336 208.02 198.242 208.02 201.826Z" fill="white"/>
<path d="M208.02 201.826C208.02 205.411 205.114 208.317 201.529 208.317C197.945 208.317 195.039 205.411 195.039 201.826C195.039 198.242 197.945 195.336 201.529 195.336C205.114 195.336 208.02 198.242 208.02 201.826Z" fill="url(#paint55_linear_140_130)"/>
<path d="M246.962 201.826C246.962 205.411 244.056 208.317 240.471 208.317C236.887 208.317 233.981 205.411 233.981 201.826C233.981 198.242 236.887 195.336 240.471 195.336C244.056 195.336 246.962 198.242 246.962 201.826Z" fill="white"/>
<path d="M246.962 201.826C246.962 205.411 244.056 208.317 240.471 208.317C236.887 208.317 233.981 205.411 233.981 201.826C233.981 198.242 236.887 195.336 240.471 195.336C244.056 195.336 246.962 198.242 246.962 201.826Z" fill="url(#paint56_linear_140_130)"/>
<path d="M285.903 201.826C285.903 205.411 282.998 208.317 279.413 208.317C275.829 208.317 272.923 205.411 272.923 201.826C272.923 198.242 275.829 195.336 279.413 195.336C282.998 195.336 285.903 198.242 285.903 201.826Z" fill="white"/>
<path d="M285.903 201.826C285.903 205.411 282.998 208.317 279.413 208.317C275.829 208.317 272.923 205.411 272.923 201.826C272.923 198.242 275.829 195.336 279.413 195.336C282.998 195.336 285.903 198.242 285.903 201.826Z" fill="url(#paint57_linear_140_130)"/>
<path d="M324.845 201.826C324.845 205.411 321.939 208.317 318.355 208.317C314.77 208.317 311.865 205.411 311.865 201.826C311.865 198.242 314.77 195.336 318.355 195.336C321.939 195.336 324.845 198.242 324.845 201.826Z" fill="white"/>
<path d="M324.845 201.826C324.845 205.411 321.939 208.317 318.355 208.317C314.77 208.317 311.865 205.411 311.865 201.826C311.865 198.242 314.77 195.336 318.355 195.336C321.939 195.336 324.845 198.242 324.845 201.826Z" fill="url(#paint58_linear_140_130)"/>
<path d="M363.787 201.826C363.787 205.411 360.881 208.317 357.297 208.317C353.712 208.317 350.806 205.411 350.806 201.826C350.806 198.242 353.712 195.336 357.297 195.336C360.881 195.336 363.787 198.242 363.787 201.826Z" fill="white"/>
<path d="M363.787 201.826C363.787 205.411 360.881 208.317 357.297 208.317C353.712 208.317 350.806 205.411 350.806 201.826C350.806 198.242 353.712 195.336 357.297 195.336C360.881 195.336 363.787 198.242 363.787 201.826Z" fill="url(#paint59_linear_140_130)"/>
<path d="M13.3107 240.768C13.3107 244.353 10.4049 247.258 6.82038 247.258C3.23589 247.258 0.330078 244.353 0.330078 240.768C0.330078 237.184 3.23589 234.278 6.82038 234.278C10.4049 234.278 13.3107 237.184 13.3107 240.768Z" fill="white"/>
<path d="M13.3107 240.768C13.3107 244.353 10.4049 247.258 6.82038 247.258C3.23589 247.258 0.330078 244.353 0.330078 240.768C0.330078 237.184 3.23589 234.278 6.82038 234.278C10.4049 234.278 13.3107 237.184 13.3107 240.768Z" fill="url(#paint60_linear_140_130)"/>
<path d="M52.2525 240.768C52.2525 244.353 49.3467 247.258 45.7622 247.258C42.1777 247.258 39.2719 244.353 39.2719 240.768C39.2719 237.184 42.1777 234.278 45.7622 234.278C49.3467 234.278 52.2525 237.184 52.2525 240.768Z" fill="white"/>
<path d="M52.2525 240.768C52.2525 244.353 49.3467 247.258 45.7622 247.258C42.1777 247.258 39.2719 244.353 39.2719 240.768C39.2719 237.184 42.1777 234.278 45.7622 234.278C49.3467 234.278 52.2525 237.184 52.2525 240.768Z" fill="url(#paint61_linear_140_130)"/>
<path d="M91.1943 240.768C91.1943 244.353 88.2885 247.258 84.704 247.258C81.1195 247.258 78.2137 244.353 78.2137 240.768C78.2137 237.184 81.1195 234.278 84.704 234.278C88.2885 234.278 91.1943 237.184 91.1943 240.768Z" fill="white"/>
<path d="M91.1943 240.768C91.1943 244.353 88.2885 247.258 84.704 247.258C81.1195 247.258 78.2137 244.353 78.2137 240.768C78.2137 237.184 81.1195 234.278 84.704 234.278C88.2885 234.278 91.1943 237.184 91.1943 240.768Z" fill="url(#paint62_linear_140_130)"/>
<path d="M130.136 240.768C130.136 244.353 127.23 247.258 123.646 247.258C120.061 247.258 117.156 244.353 117.156 240.768C117.156 237.184 120.061 234.278 123.646 234.278C127.23 234.278 130.136 237.184 130.136 240.768Z" fill="white"/>
<path d="M130.136 240.768C130.136 244.353 127.23 247.258 123.646 247.258C120.061 247.258 117.156 244.353 117.156 240.768C117.156 237.184 120.061 234.278 123.646 234.278C127.23 234.278 130.136 237.184 130.136 240.768Z" fill="url(#paint63_linear_140_130)"/>
<path d="M169.078 240.768C169.078 244.353 166.172 247.258 162.588 247.258C159.003 247.258 156.097 244.353 156.097 240.768C156.097 237.184 159.003 234.278 162.588 234.278C166.172 234.278 169.078 237.184 169.078 240.768Z" fill="white"/>
<path d="M169.078 240.768C169.078 244.353 166.172 247.258 162.588 247.258C159.003 247.258 156.097 244.353 156.097 240.768C156.097 237.184 159.003 234.278 162.588 234.278C166.172 234.278 169.078 237.184 169.078 240.768Z" fill="url(#paint64_linear_140_130)"/>
<path d="M208.02 240.768C208.02 244.353 205.114 247.258 201.529 247.258C197.945 247.258 195.039 244.353 195.039 240.768C195.039 237.184 197.945 234.278 201.529 234.278C205.114 234.278 208.02 237.184 208.02 240.768Z" fill="white"/>
<path d="M208.02 240.768C208.02 244.353 205.114 247.258 201.529 247.258C197.945 247.258 195.039 244.353 195.039 240.768C195.039 237.184 197.945 234.278 201.529 234.278C205.114 234.278 208.02 237.184 208.02 240.768Z" fill="url(#paint65_linear_140_130)"/>
<path d="M246.962 240.768C246.962 244.353 244.056 247.258 240.471 247.258C236.887 247.258 233.981 244.353 233.981 240.768C233.981 237.184 236.887 234.278 240.471 234.278C244.056 234.278 246.962 237.184 246.962 240.768Z" fill="white"/>
<path d="M246.962 240.768C246.962 244.353 244.056 247.258 240.471 247.258C236.887 247.258 233.981 244.353 233.981 240.768C233.981 237.184 236.887 234.278 240.471 234.278C244.056 234.278 246.962 237.184 246.962 240.768Z" fill="url(#paint66_linear_140_130)"/>
<path d="M285.903 240.768C285.903 244.353 282.998 247.258 279.413 247.258C275.829 247.258 272.923 244.353 272.923 240.768C272.923 237.184 275.829 234.278 279.413 234.278C282.998 234.278 285.903 237.184 285.903 240.768Z" fill="white"/>
<path d="M285.903 240.768C285.903 244.353 282.998 247.258 279.413 247.258C275.829 247.258 272.923 244.353 272.923 240.768C272.923 237.184 275.829 234.278 279.413 234.278C282.998 234.278 285.903 237.184 285.903 240.768Z" fill="url(#paint67_linear_140_130)"/>
<path d="M324.845 240.768C324.845 244.353 321.939 247.258 318.355 247.258C314.77 247.258 311.865 244.353 311.865 240.768C311.865 237.184 314.77 234.278 318.355 234.278C321.939 234.278 324.845 237.184 324.845 240.768Z" fill="white"/>
<path d="M324.845 240.768C324.845 244.353 321.939 247.258 318.355 247.258C314.77 247.258 311.865 244.353 311.865 240.768C311.865 237.184 314.77 234.278 318.355 234.278C321.939 234.278 324.845 237.184 324.845 240.768Z" fill="url(#paint68_linear_140_130)"/>
<path d="M363.787 240.768C363.787 244.353 360.881 247.258 357.297 247.258C353.712 247.258 350.806 244.353 350.806 240.768C350.806 237.184 353.712 234.278 357.297 234.278C360.881 234.278 363.787 237.184 363.787 240.768Z" fill="white"/>
<path d="M363.787 240.768C363.787 244.353 360.881 247.258 357.297 247.258C353.712 247.258 350.806 244.353 350.806 240.768C350.806 237.184 353.712 234.278 357.297 234.278C360.881 234.278 363.787 237.184 363.787 240.768Z" fill="url(#paint69_linear_140_130)"/>
<path d="M52.2525 279.71C52.2525 283.294 49.3467 286.2 45.7622 286.2C42.1777 286.2 39.2719 283.294 39.2719 279.71C39.2719 276.125 42.1777 273.22 45.7622 273.22C49.3467 273.22 52.2525 276.125 52.2525 279.71Z" fill="white"/>
<path d="M52.2525 279.71C52.2525 283.294 49.3467 286.2 45.7622 286.2C42.1777 286.2 39.2719 283.294 39.2719 279.71C39.2719 276.125 42.1777 273.22 45.7622 273.22C49.3467 273.22 52.2525 276.125 52.2525 279.71Z" fill="url(#paint70_linear_140_130)"/>
<path d="M91.1943 279.71C91.1943 283.294 88.2885 286.2 84.704 286.2C81.1195 286.2 78.2137 283.294 78.2137 279.71C78.2137 276.125 81.1195 273.22 84.704 273.22C88.2885 273.22 91.1943 276.125 91.1943 279.71Z" fill="white"/>
<path d="M91.1943 279.71C91.1943 283.294 88.2885 286.2 84.704 286.2C81.1195 286.2 78.2137 283.294 78.2137 279.71C78.2137 276.125 81.1195 273.22 84.704 273.22C88.2885 273.22 91.1943 276.125 91.1943 279.71Z" fill="url(#paint71_linear_140_130)"/>
<path d="M130.136 279.71C130.136 283.294 127.23 286.2 123.646 286.2C120.061 286.2 117.156 283.294 117.156 279.71C117.156 276.125 120.061 273.22 123.646 273.22C127.23 273.22 130.136 276.125 130.136 279.71Z" fill="white"/>
<path d="M130.136 279.71C130.136 283.294 127.23 286.2 123.646 286.2C120.061 286.2 117.156 283.294 117.156 279.71C117.156 276.125 120.061 273.22 123.646 273.22C127.23 273.22 130.136 276.125 130.136 279.71Z" fill="url(#paint72_linear_140_130)"/>
<path d="M169.078 279.71C169.078 283.294 166.172 286.2 162.588 286.2C159.003 286.2 156.097 283.294 156.097 279.71C156.097 276.125 159.003 273.22 162.588 273.22C166.172 273.22 169.078 276.125 169.078 279.71Z" fill="white"/>
<path d="M169.078 279.71C169.078 283.294 166.172 286.2 162.588 286.2C159.003 286.2 156.097 283.294 156.097 279.71C156.097 276.125 159.003 273.22 162.588 273.22C166.172 273.22 169.078 276.125 169.078 279.71Z" fill="url(#paint73_linear_140_130)"/>
<path d="M208.02 279.71C208.02 283.294 205.114 286.2 201.529 286.2C197.945 286.2 195.039 283.294 195.039 279.71C195.039 276.125 197.945 273.22 201.529 273.22C205.114 273.22 208.02 276.125 208.02 279.71Z" fill="white"/>
<path d="M208.02 279.71C208.02 283.294 205.114 286.2 201.529 286.2C197.945 286.2 195.039 283.294 195.039 279.71C195.039 276.125 197.945 273.22 201.529 273.22C205.114 273.22 208.02 276.125 208.02 279.71Z" fill="url(#paint74_linear_140_130)"/>
<path d="M246.962 279.71C246.962 283.294 244.056 286.2 240.471 286.2C236.887 286.2 233.981 283.294 233.981 279.71C233.981 276.125 236.887 273.22 240.471 273.22C244.056 273.22 246.962 276.125 246.962 279.71Z" fill="white"/>
<path d="M246.962 279.71C246.962 283.294 244.056 286.2 240.471 286.2C236.887 286.2 233.981 283.294 233.981 279.71C233.981 276.125 236.887 273.22 240.471 273.22C244.056 273.22 246.962 276.125 246.962 279.71Z" fill="url(#paint75_linear_140_130)"/>
<path d="M285.903 279.71C285.903 283.294 282.998 286.2 279.413 286.2C275.829 286.2 272.923 283.294 272.923 279.71C272.923 276.125 275.829 273.22 279.413 273.22C282.998 273.22 285.903 276.125 285.903 279.71Z" fill="white"/>
<path d="M285.903 279.71C285.903 283.294 282.998 286.2 279.413 286.2C275.829 286.2 272.923 283.294 272.923 279.71C272.923 276.125 275.829 273.22 279.413 273.22C282.998 273.22 285.903 276.125 285.903 279.71Z" fill="url(#paint76_linear_140_130)"/>
<path d="M324.845 279.71C324.845 283.294 321.939 286.2 318.355 286.2C314.77 286.2 311.865 283.294 311.865 279.71C311.865 276.125 314.77 273.22 318.355 273.22C321.939 273.22 324.845 276.125 324.845 279.71Z" fill="white"/>
<path d="M324.845 279.71C324.845 283.294 321.939 286.2 318.355 286.2C314.77 286.2 311.865 283.294 311.865 279.71C311.865 276.125 314.77 273.22 318.355 273.22C321.939 273.22 324.845 276.125 324.845 279.71Z" fill="url(#paint77_linear_140_130)"/>
<path d="M91.1943 318.652C91.1943 322.236 88.2885 325.142 84.704 325.142C81.1195 325.142 78.2137 322.236 78.2137 318.652C78.2137 315.067 81.1195 312.161 84.704 312.161C88.2885 312.161 91.1943 315.067 91.1943 318.652Z" fill="white"/>
<path d="M91.1943 318.652C91.1943 322.236 88.2885 325.142 84.704 325.142C81.1195 325.142 78.2137 322.236 78.2137 318.652C78.2137 315.067 81.1195 312.161 84.704 312.161C88.2885 312.161 91.1943 315.067 91.1943 318.652Z" fill="url(#paint78_linear_140_130)"/>
<path d="M130.136 318.652C130.136 322.236 127.23 325.142 123.646 325.142C120.061 325.142 117.156 322.236 117.156 318.652C117.156 315.067 120.061 312.161 123.646 312.161C127.23 312.161 130.136 315.067 130.136 318.652Z" fill="white"/>
<path d="M130.136 318.652C130.136 322.236 127.23 325.142 123.646 325.142C120.061 325.142 117.156 322.236 117.156 318.652C117.156 315.067 120.061 312.161 123.646 312.161C127.23 312.161 130.136 315.067 130.136 318.652Z" fill="url(#paint79_linear_140_130)"/>
<path d="M169.078 318.652C169.078 322.236 166.172 325.142 162.588 325.142C159.003 325.142 156.097 322.236 156.097 318.652C156.097 315.067 159.003 312.161 162.588 312.161C166.172 312.161 169.078 315.067 169.078 318.652Z" fill="white"/>
<path d="M169.078 318.652C169.078 322.236 166.172 325.142 162.588 325.142C159.003 325.142 156.097 322.236 156.097 318.652C156.097 315.067 159.003 312.161 162.588 312.161C166.172 312.161 169.078 315.067 169.078 318.652Z" fill="url(#paint80_linear_140_130)"/>
<path d="M208.02 318.652C208.02 322.236 205.114 325.142 201.529 325.142C197.945 325.142 195.039 322.236 195.039 318.652C195.039 315.067 197.945 312.161 201.529 312.161C205.114 312.161 208.02 315.067 208.02 318.652Z" fill="white"/>
<path d="M208.02 318.652C208.02 322.236 205.114 325.142 201.529 325.142C197.945 325.142 195.039 322.236 195.039 318.652C195.039 315.067 197.945 312.161 201.529 312.161C205.114 312.161 208.02 315.067 208.02 318.652Z" fill="url(#paint81_linear_140_130)"/>
<path d="M246.962 318.652C246.962 322.236 244.056 325.142 240.471 325.142C236.887 325.142 233.981 322.236 233.981 318.652C233.981 315.067 236.887 312.161 240.471 312.161C244.056 312.161 246.962 315.067 246.962 318.652Z" fill="white"/>
<path d="M246.962 318.652C246.962 322.236 244.056 325.142 240.471 325.142C236.887 325.142 233.981 322.236 233.981 318.652C233.981 315.067 236.887 312.161 240.471 312.161C244.056 312.161 246.962 315.067 246.962 318.652Z" fill="url(#paint82_linear_140_130)"/>
<path d="M285.903 318.652C285.903 322.236 282.998 325.142 279.413 325.142C275.829 325.142 272.923 322.236 272.923 318.652C272.923 315.067 275.829 312.161 279.413 312.161C282.998 312.161 285.903 315.067 285.903 318.652Z" fill="white"/>
<path d="M285.903 318.652C285.903 322.236 282.998 325.142 279.413 325.142C275.829 325.142 272.923 322.236 272.923 318.652C272.923 315.067 275.829 312.161 279.413 312.161C282.998 312.161 285.903 315.067 285.903 318.652Z" fill="url(#paint83_linear_140_130)"/>
<path d="M130.136 357.594C130.136 361.178 127.23 364.084 123.646 364.084C120.061 364.084 117.156 361.178 117.156 357.594C117.156 354.009 120.061 351.103 123.646 351.103C127.23 351.103 130.136 354.009 130.136 357.594Z" fill="white"/>
<path d="M130.136 357.594C130.136 361.178 127.23 364.084 123.646 364.084C120.061 364.084 117.156 361.178 117.156 357.594C117.156 354.009 120.061 351.103 123.646 351.103C127.23 351.103 130.136 354.009 130.136 357.594Z" fill="url(#paint84_linear_140_130)"/>
<path d="M169.078 357.594C169.078 361.178 166.172 364.084 162.588 364.084C159.003 364.084 156.097 361.178 156.097 357.594C156.097 354.009 159.003 351.103 162.588 351.103C166.172 351.103 169.078 354.009 169.078 357.594Z" fill="white"/>
<path d="M169.078 357.594C169.078 361.178 166.172 364.084 162.588 364.084C159.003 364.084 156.097 361.178 156.097 357.594C156.097 354.009 159.003 351.103 162.588 351.103C166.172 351.103 169.078 354.009 169.078 357.594Z" fill="url(#paint85_linear_140_130)"/>
<path d="M208.02 357.594C208.02 361.178 205.114 364.084 201.529 364.084C197.945 364.084 195.039 361.178 195.039 357.594C195.039 354.009 197.945 351.103 201.529 351.103C205.114 351.103 208.02 354.009 208.02 357.594Z" fill="white"/>
<path d="M208.02 357.594C208.02 361.178 205.114 364.084 201.529 364.084C197.945 364.084 195.039 361.178 195.039 357.594C195.039 354.009 197.945 351.103 201.529 351.103C205.114 351.103 208.02 354.009 208.02 357.594Z" fill="url(#paint86_linear_140_130)"/>
<path d="M246.962 357.594C246.962 361.178 244.056 364.084 240.471 364.084C236.887 364.084 233.981 361.178 233.981 357.594C233.981 354.009 236.887 351.103 240.471 351.103C244.056 351.103 246.962 354.009 246.962 357.594Z" fill="white"/>
<path d="M246.962 357.594C246.962 361.178 244.056 364.084 240.471 364.084C236.887 364.084 233.981 361.178 233.981 357.594C233.981 354.009 236.887 351.103 240.471 351.103C244.056 351.103 246.962 354.009 246.962 357.594Z" fill="url(#paint87_linear_140_130)"/>
<defs>
<linearGradient id="paint0_linear_140_130" x1="-11.6556" y1="0.626889" x2="461.923" y2="176.868" gradientUnits="userSpaceOnUse">
<stop stop-color="#4A89DB"/>
<stop offset="1" stop-color="#39C77B"/>
</linearGradient>
<linearGradient id="paint1_linear_140_130" x1="-11.6556" y1="0.626889" x2="461.923" y2="176.868" gradientUnits="userSpaceOnUse">
<stop stop-color="#4A89DB"/>
<stop offset="1" stop-color="#39C77B"/>
</linearGradient>
<linearGradient id="paint2_linear_140_130" x1="-11.6556" y1="0.626889" x2="461.923" y2="176.868" gradientUnits="userSpaceOnUse">
<stop stop-color="#4A89DB"/>
<stop offset="1" stop-color="#39C77B"/>
</linearGradient>
<linearGradient id="paint3_linear_140_130" x1="-11.6556" y1="0.626889" x2="461.923" y2="176.868" gradientUnits="userSpaceOnUse">
<stop stop-color="#4A89DB"/>
<stop offset="1" stop-color="#39C77B"/>
</linearGradient>
<linearGradient id="paint4_linear_140_130" x1="-11.6556" y1="0.626889" x2="461.923" y2="176.868" gradientUnits="userSpaceOnUse">
<stop stop-color="#4A89DB"/>
<stop offset="1" stop-color="#39C77B"/>
</linearGradient>
<linearGradient id="paint5_linear_140_130" x1="-11.6556" y1="0.626889" x2="461.923" y2="176.868" gradientUnits="userSpaceOnUse">
<stop stop-color="#4A89DB"/>
<stop offset="1" stop-color="#39C77B"/>
</linearGradient>
<linearGradient id="paint6_linear_140_130" x1="-11.6556" y1="0.626889" x2="461.923" y2="176.868" gradientUnits="userSpaceOnUse">
<stop stop-color="#4A89DB"/>
<stop offset="1" stop-color="#39C77B"/>
</linearGradient>
<linearGradient id="paint7_linear_140_130" x1="-11.6556" y1="0.626889" x2="461.923" y2="176.868" gradientUnits="userSpaceOnUse">
<stop stop-color="#4A89DB"/>
<stop offset="1" stop-color="#39C77B"/>
</linearGradient>
<linearGradient id="paint8_linear_140_130" x1="-11.6556" y1="0.626889" x2="461.923" y2="176.868" gradientUnits="userSpaceOnUse">
<stop stop-color="#4A89DB"/>
<stop offset="1" stop-color="#39C77B"/>
</linearGradient>
<linearGradient id="paint9_linear_140_130" x1="-11.6556" y1="0.626889" x2="461.923" y2="176.868" gradientUnits="userSpaceOnUse">
<stop stop-color="#4A89DB"/>
<stop offset="1" stop-color="#39C77B"/>
</linearGradient>
<linearGradient id="paint10_linear_140_130" x1="-11.6556" y1="0.626889" x2="461.923" y2="176.868" gradientUnits="userSpaceOnUse">
<stop stop-color="#4A89DB"/>
<stop offset="1" stop-color="#39C77B"/>
</linearGradient>
<linearGradient id="paint11_linear_140_130" x1="-11.6556" y1="0.626889" x2="461.923" y2="176.868" gradientUnits="userSpaceOnUse">
<stop stop-color="#4A89DB"/>
<stop offset="1" stop-color="#39C77B"/>
</linearGradient>
<linearGradient id="paint12_linear_140_130" x1="-11.6556" y1="0.626889" x2="461.923" y2="176.868" gradientUnits="userSpaceOnUse">
<stop stop-color="#4A89DB"/>
<stop offset="1" stop-color="#39C77B"/>
</linearGradient>
<linearGradient id="paint13_linear_140_130" x1="-11.6556" y1="0.626889" x2="461.923" y2="176.868" gradientUnits="userSpaceOnUse">
<stop stop-color="#4A89DB"/>
<stop offset="1" stop-color="#39C77B"/>
</linearGradient>
<linearGradient id="paint14_linear_140_130" x1="-11.6556" y1="0.626889" x2="461.923" y2="176.868" gradientUnits="userSpaceOnUse">
<stop stop-color="#4A89DB"/>
<stop offset="1" stop-color="#39C77B"/>
</linearGradient>
<linearGradient id="paint15_linear_140_130" x1="-11.6556" y1="0.626889" x2="461.923" y2="176.868" gradientUnits="userSpaceOnUse">
<stop stop-color="#4A89DB"/>
<stop offset="1" stop-color="#39C77B"/>
</linearGradient>
<linearGradient id="paint16_linear_140_130" x1="-11.6556" y1="0.626889" x2="461.923" y2="176.868" gradientUnits="userSpaceOnUse">
<stop stop-color="#4A89DB"/>
<stop offset="1" stop-color="#39C77B"/>
</linearGradient>
<linearGradient id="paint17_linear_140_130" x1="-11.6556" y1="0.626889" x2="461.923" y2="176.868" gradientUnits="userSpaceOnUse">
<stop stop-color="#4A89DB"/>
<stop offset="1" stop-color="#39C77B"/>
</linearGradient>
<linearGradient id="paint18_linear_140_130" x1="-11.6556" y1="0.626889" x2="461.923" y2="176.868" gradientUnits="userSpaceOnUse">
<stop stop-color="#4A89DB"/>
<stop offset="1" stop-color="#39C77B"/>
</linearGradient>
<linearGradient id="paint19_linear_140_130" x1="-11.6556" y1="0.626889" x2="461.923" y2="176.868" gradientUnits="userSpaceOnUse">
<stop stop-color="#4A89DB"/>
<stop offset="1" stop-color="#39C77B"/>
</linearGradient>
<linearGradient id="paint20_linear_140_130" x1="-11.6556" y1="0.626889" x2="461.923" y2="176.868" gradientUnits="userSpaceOnUse">
<stop stop-color="#4A89DB"/>
<stop offset="1" stop-color="#39C77B"/>
</linearGradient>
<linearGradient id="paint21_linear_140_130" x1="-11.6556" y1="0.626889" x2="461.923" y2="176.868" gradientUnits="userSpaceOnUse">
<stop stop-color="#4A89DB"/>
<stop offset="1" stop-color="#39C77B"/>
</linearGradient>
<linearGradient id="paint22_linear_140_130" x1="-11.6556" y1="0.626889" x2="461.923" y2="176.868" gradientUnits="userSpaceOnUse">
<stop stop-color="#4A89DB"/>
<stop offset="1" stop-color="#39C77B"/>
</linearGradient>
<linearGradient id="paint23_linear_140_130" x1="-11.6556" y1="0.626889" x2="461.923" y2="176.868" gradientUnits="userSpaceOnUse">
<stop stop-color="#4A89DB"/>
<stop offset="1" stop-color="#39C77B"/>
</linearGradient>
<linearGradient id="paint24_linear_140_130" x1="-11.6556" y1="0.626889" x2="461.923" y2="176.868" gradientUnits="userSpaceOnUse">
<stop stop-color="#4A89DB"/>
<stop offset="1" stop-color="#39C77B"/>
</linearGradient>
<linearGradient id="paint25_linear_140_130" x1="-11.6556" y1="0.626889" x2="461.923" y2="176.868" gradientUnits="userSpaceOnUse">
<stop stop-color="#4A89DB"/>
<stop offset="1" stop-color="#39C77B"/>
</linearGradient>
<linearGradient id="paint26_linear_140_130" x1="-11.6556" y1="0.626889" x2="461.923" y2="176.868" gradientUnits="userSpaceOnUse">
<stop stop-color="#4A89DB"/>
<stop offset="1" stop-color="#39C77B"/>
</linearGradient>
<linearGradient id="paint27_linear_140_130" x1="-11.6556" y1="0.626889" x2="461.923" y2="176.868" gradientUnits="userSpaceOnUse">
<stop stop-color="#4A89DB"/>
<stop offset="1" stop-color="#39C77B"/>
</linearGradient>
<linearGradient id="paint28_linear_140_130" x1="-11.6556" y1="0.626889" x2="461.923" y2="176.868" gradientUnits="userSpaceOnUse">
<stop stop-color="#4A89DB"/>
<stop offset="1" stop-color="#39C77B"/>
</linearGradient>
<linearGradient id="paint29_linear_140_130" x1="-11.6556" y1="0.626889" x2="461.923" y2="176.868" gradientUnits="userSpaceOnUse">
<stop stop-color="#4A89DB"/>
<stop offset="1" stop-color="#39C77B"/>
</linearGradient>
<linearGradient id="paint30_linear_140_130" x1="-11.6556" y1="0.626889" x2="461.923" y2="176.868" gradientUnits="userSpaceOnUse">
<stop stop-color="#4A89DB"/>
<stop offset="1" stop-color="#39C77B"/>
</linearGradient>
<linearGradient id="paint31_linear_140_130" x1="-11.6556" y1="0.626889" x2="461.923" y2="176.868" gradientUnits="userSpaceOnUse">
<stop stop-color="#4A89DB"/>
<stop offset="1" stop-color="#39C77B"/>
</linearGradient>
<linearGradient id="paint32_linear_140_130" x1="-11.6556" y1="0.626889" x2="461.923" y2="176.868" gradientUnits="userSpaceOnUse">
<stop stop-color="#4A89DB"/>
<stop offset="1" stop-color="#39C77B"/>
</linearGradient>
<linearGradient id="paint33_linear_140_130" x1="-11.6556" y1="0.626889" x2="461.923" y2="176.868" gradientUnits="userSpaceOnUse">
<stop stop-color="#4A89DB"/>
<stop offset="1" stop-color="#39C77B"/>
</linearGradient>
<linearGradient id="paint34_linear_140_130" x1="-11.6556" y1="0.626889" x2="461.923" y2="176.868" gradientUnits="userSpaceOnUse">
<stop stop-color="#4A89DB"/>
<stop offset="1" stop-color="#39C77B"/>
</linearGradient>
<linearGradient id="paint35_linear_140_130" x1="-11.6556" y1="0.626889" x2="461.923" y2="176.868" gradientUnits="userSpaceOnUse">
<stop stop-color="#4A89DB"/>
<stop offset="1" stop-color="#39C77B"/>
</linearGradient>
<linearGradient id="paint36_linear_140_130" x1="-11.6556" y1="0.626889" x2="461.923" y2="176.868" gradientUnits="userSpaceOnUse">
<stop stop-color="#4A89DB"/>
<stop offset="1" stop-color="#39C77B"/>
</linearGradient>
<linearGradient id="paint37_linear_140_130" x1="-11.6556" y1="0.626889" x2="461.923" y2="176.868" gradientUnits="userSpaceOnUse">
<stop stop-color="#4A89DB"/>
<stop offset="1" stop-color="#39C77B"/>
</linearGradient>
<linearGradient id="paint38_linear_140_130" x1="-11.6556" y1="0.626889" x2="461.923" y2="176.868" gradientUnits="userSpaceOnUse">
<stop stop-color="#4A89DB"/>
<stop offset="1" stop-color="#39C77B"/>
</linearGradient>
<linearGradient id="paint39_linear_140_130" x1="-11.6556" y1="0.626889" x2="461.923" y2="176.868" gradientUnits="userSpaceOnUse">
<stop stop-color="#4A89DB"/>
<stop offset="1" stop-color="#39C77B"/>
</linearGradient>
<linearGradient id="paint40_linear_140_130" x1="-11.6556" y1="0.626889" x2="461.923" y2="176.868" gradientUnits="userSpaceOnUse">
<stop stop-color="#4A89DB"/>
<stop offset="1" stop-color="#39C77B"/>
</linearGradient>
<linearGradient id="paint41_linear_140_130" x1="-11.6556" y1="0.626889" x2="461.923" y2="176.868" gradientUnits="userSpaceOnUse">
<stop stop-color="#4A89DB"/>
<stop offset="1" stop-color="#39C77B"/>
</linearGradient>
<linearGradient id="paint42_linear_140_130" x1="-11.6556" y1="0.626889" x2="461.923" y2="176.868" gradientUnits="userSpaceOnUse">
<stop stop-color="#4A89DB"/>
<stop offset="1" stop-color="#39C77B"/>
</linearGradient>
<linearGradient id="paint43_linear_140_130" x1="-11.6556" y1="0.626889" x2="461.923" y2="176.868" gradientUnits="userSpaceOnUse">
<stop stop-color="#4A89DB"/>
<stop offset="1" stop-color="#39C77B"/>
</linearGradient>
<linearGradient id="paint44_linear_140_130" x1="-11.6556" y1="0.626889" x2="461.923" y2="176.868" gradientUnits="userSpaceOnUse">
<stop stop-color="#4A89DB"/>
<stop offset="1" stop-color="#39C77B"/>
</linearGradient>
<linearGradient id="paint45_linear_140_130" x1="-11.6556" y1="0.626889" x2="461.923" y2="176.868" gradientUnits="userSpaceOnUse">
<stop stop-color="#4A89DB"/>
<stop offset="1" stop-color="#39C77B"/>
</linearGradient>
<linearGradient id="paint46_linear_140_130" x1="-11.6556" y1="0.626889" x2="461.923" y2="176.868" gradientUnits="userSpaceOnUse">
<stop stop-color="#4A89DB"/>
<stop offset="1" stop-color="#39C77B"/>
</linearGradient>
<linearGradient id="paint47_linear_140_130" x1="-11.6556" y1="0.626889" x2="461.923" y2="176.868" gradientUnits="userSpaceOnUse">
<stop stop-color="#4A89DB"/>
<stop offset="1" stop-color="#39C77B"/>
</linearGradient>
<linearGradient id="paint48_linear_140_130" x1="-11.6556" y1="0.626889" x2="461.923" y2="176.868" gradientUnits="userSpaceOnUse">
<stop stop-color="#4A89DB"/>
<stop offset="1" stop-color="#39C77B"/>
</linearGradient>
<linearGradient id="paint49_linear_140_130" x1="-11.6556" y1="0.626889" x2="461.923" y2="176.868" gradientUnits="userSpaceOnUse">
<stop stop-color="#4A89DB"/>
<stop offset="1" stop-color="#39C77B"/>
</linearGradient>
<linearGradient id="paint50_linear_140_130" x1="-11.6556" y1="0.626889" x2="461.923" y2="176.868" gradientUnits="userSpaceOnUse">
<stop stop-color="#4A89DB"/>
<stop offset="1" stop-color="#39C77B"/>
</linearGradient>
<linearGradient id="paint51_linear_140_130" x1="-11.6556" y1="0.626889" x2="461.923" y2="176.868" gradientUnits="userSpaceOnUse">
<stop stop-color="#4A89DB"/>
<stop offset="1" stop-color="#39C77B"/>
</linearGradient>
<linearGradient id="paint52_linear_140_130" x1="-11.6556" y1="0.626889" x2="461.923" y2="176.868" gradientUnits="userSpaceOnUse">
<stop stop-color="#4A89DB"/>
<stop offset="1" stop-color="#39C77B"/>
</linearGradient>
<linearGradient id="paint53_linear_140_130" x1="-11.6556" y1="0.626889" x2="461.923" y2="176.868" gradientUnits="userSpaceOnUse">
<stop stop-color="#4A89DB"/>
<stop offset="1" stop-color="#39C77B"/>
</linearGradient>
<linearGradient id="paint54_linear_140_130" x1="-11.6556" y1="0.626889" x2="461.923" y2="176.868" gradientUnits="userSpaceOnUse">
<stop stop-color="#4A89DB"/>
<stop offset="1" stop-color="#39C77B"/>
</linearGradient>
<linearGradient id="paint55_linear_140_130" x1="-11.6556" y1="0.626889" x2="461.923" y2="176.868" gradientUnits="userSpaceOnUse">
<stop stop-color="#4A89DB"/>
<stop offset="1" stop-color="#39C77B"/>
</linearGradient>
<linearGradient id="paint56_linear_140_130" x1="-11.6556" y1="0.626889" x2="461.923" y2="176.868" gradientUnits="userSpaceOnUse">
<stop stop-color="#4A89DB"/>
<stop offset="1" stop-color="#39C77B"/>
</linearGradient>
<linearGradient id="paint57_linear_140_130" x1="-11.6556" y1="0.626889" x2="461.923" y2="176.868" gradientUnits="userSpaceOnUse">
<stop stop-color="#4A89DB"/>
<stop offset="1" stop-color="#39C77B"/>
</linearGradient>
<linearGradient id="paint58_linear_140_130" x1="-11.6556" y1="0.626889" x2="461.923" y2="176.868" gradientUnits="userSpaceOnUse">
<stop stop-color="#4A89DB"/>
<stop offset="1" stop-color="#39C77B"/>
</linearGradient>
<linearGradient id="paint59_linear_140_130" x1="-11.6556" y1="0.626889" x2="461.923" y2="176.868" gradientUnits="userSpaceOnUse">
<stop stop-color="#4A89DB"/>
<stop offset="1" stop-color="#39C77B"/>
</linearGradient>
<linearGradient id="paint60_linear_140_130" x1="-11.6556" y1="0.626889" x2="461.923" y2="176.868" gradientUnits="userSpaceOnUse">
<stop stop-color="#4A89DB"/>
<stop offset="1" stop-color="#39C77B"/>
</linearGradient>
<linearGradient id="paint61_linear_140_130" x1="-11.6556" y1="0.626889" x2="461.923" y2="176.868" gradientUnits="userSpaceOnUse">
<stop stop-color="#4A89DB"/>
<stop offset="1" stop-color="#39C77B"/>
</linearGradient>
<linearGradient id="paint62_linear_140_130" x1="-11.6556" y1="0.626889" x2="461.923" y2="176.868" gradientUnits="userSpaceOnUse">
<stop stop-color="#4A89DB"/>
<stop offset="1" stop-color="#39C77B"/>
</linearGradient>
<linearGradient id="paint63_linear_140_130" x1="-11.6556" y1="0.626889" x2="461.923" y2="176.868" gradientUnits="userSpaceOnUse">
<stop stop-color="#4A89DB"/>
<stop offset="1" stop-color="#39C77B"/>
</linearGradient>
<linearGradient id="paint64_linear_140_130" x1="-11.6556" y1="0.626889" x2="461.923" y2="176.868" gradientUnits="userSpaceOnUse">
<stop stop-color="#4A89DB"/>
<stop offset="1" stop-color="#39C77B"/>
</linearGradient>
<linearGradient id="paint65_linear_140_130" x1="-11.6556" y1="0.626889" x2="461.923" y2="176.868" gradientUnits="userSpaceOnUse">
<stop stop-color="#4A89DB"/>
<stop offset="1" stop-color="#39C77B"/>
</linearGradient>
<linearGradient id="paint66_linear_140_130" x1="-11.6556" y1="0.626889" x2="461.923" y2="176.868" gradientUnits="userSpaceOnUse">
<stop stop-color="#4A89DB"/>
<stop offset="1" stop-color="#39C77B"/>
</linearGradient>
<linearGradient id="paint67_linear_140_130" x1="-11.6556" y1="0.626889" x2="461.923" y2="176.868" gradientUnits="userSpaceOnUse">
<stop stop-color="#4A89DB"/>
<stop offset="1" stop-color="#39C77B"/>
</linearGradient>
<linearGradient id="paint68_linear_140_130" x1="-11.6556" y1="0.626889" x2="461.923" y2="176.868" gradientUnits="userSpaceOnUse">
<stop stop-color="#4A89DB"/>
<stop offset="1" stop-color="#39C77B"/>
</linearGradient>
<linearGradient id="paint69_linear_140_130" x1="-11.6556" y1="0.626889" x2="461.923" y2="176.868" gradientUnits="userSpaceOnUse">
<stop stop-color="#4A89DB"/>
<stop offset="1" stop-color="#39C77B"/>
</linearGradient>
<linearGradient id="paint70_linear_140_130" x1="-11.6556" y1="0.626889" x2="461.923" y2="176.868" gradientUnits="userSpaceOnUse">
<stop stop-color="#4A89DB"/>
<stop offset="1" stop-color="#39C77B"/>
</linearGradient>
<linearGradient id="paint71_linear_140_130" x1="-11.6556" y1="0.626889" x2="461.923" y2="176.868" gradientUnits="userSpaceOnUse">
<stop stop-color="#4A89DB"/>
<stop offset="1" stop-color="#39C77B"/>
</linearGradient>
<linearGradient id="paint72_linear_140_130" x1="-11.6556" y1="0.626889" x2="461.923" y2="176.868" gradientUnits="userSpaceOnUse">
<stop stop-color="#4A89DB"/>
<stop offset="1" stop-color="#39C77B"/>
</linearGradient>
<linearGradient id="paint73_linear_140_130" x1="-11.6556" y1="0.626889" x2="461.923" y2="176.868" gradientUnits="userSpaceOnUse">
<stop stop-color="#4A89DB"/>
<stop offset="1" stop-color="#39C77B"/>
</linearGradient>
<linearGradient id="paint74_linear_140_130" x1="-11.6556" y1="0.626889" x2="461.923" y2="176.868" gradientUnits="userSpaceOnUse">
<stop stop-color="#4A89DB"/>
<stop offset="1" stop-color="#39C77B"/>
</linearGradient>
<linearGradient id="paint75_linear_140_130" x1="-11.6556" y1="0.626889" x2="461.923" y2="176.868" gradientUnits="userSpaceOnUse">
<stop stop-color="#4A89DB"/>
<stop offset="1" stop-color="#39C77B"/>
</linearGradient>
<linearGradient id="paint76_linear_140_130" x1="-11.6556" y1="0.626889" x2="461.923" y2="176.868" gradientUnits="userSpaceOnUse">
<stop stop-color="#4A89DB"/>
<stop offset="1" stop-color="#39C77B"/>
</linearGradient>
<linearGradient id="paint77_linear_140_130" x1="-11.6556" y1="0.626889" x2="461.923" y2="176.868" gradientUnits="userSpaceOnUse">
<stop stop-color="#4A89DB"/>
<stop offset="1" stop-color="#39C77B"/>
</linearGradient>
<linearGradient id="paint78_linear_140_130" x1="-11.6556" y1="0.626889" x2="461.923" y2="176.868" gradientUnits="userSpaceOnUse">
<stop stop-color="#4A89DB"/>
<stop offset="1" stop-color="#39C77B"/>
</linearGradient>
<linearGradient id="paint79_linear_140_130" x1="-11.6556" y1="0.626889" x2="461.923" y2="176.868" gradientUnits="userSpaceOnUse">
<stop stop-color="#4A89DB"/>
<stop offset="1" stop-color="#39C77B"/>
</linearGradient>
<linearGradient id="paint80_linear_140_130" x1="-11.6556" y1="0.626889" x2="461.923" y2="176.868" gradientUnits="userSpaceOnUse">
<stop stop-color="#4A89DB"/>
<stop offset="1" stop-color="#39C77B"/>
</linearGradient>
<linearGradient id="paint81_linear_140_130" x1="-11.6556" y1="0.626889" x2="461.923" y2="176.868" gradientUnits="userSpaceOnUse">
<stop stop-color="#4A89DB"/>
<stop offset="1" stop-color="#39C77B"/>
</linearGradient>
<linearGradient id="paint82_linear_140_130" x1="-11.6556" y1="0.626889" x2="461.923" y2="176.868" gradientUnits="userSpaceOnUse">
<stop stop-color="#4A89DB"/>
<stop offset="1" stop-color="#39C77B"/>
</linearGradient>
<linearGradient id="paint83_linear_140_130" x1="-11.6556" y1="0.626889" x2="461.923" y2="176.868" gradientUnits="userSpaceOnUse">
<stop stop-color="#4A89DB"/>
<stop offset="1" stop-color="#39C77B"/>
</linearGradient>
<linearGradient id="paint84_linear_140_130" x1="-11.6556" y1="0.626889" x2="461.923" y2="176.868" gradientUnits="userSpaceOnUse">
<stop stop-color="#4A89DB"/>
<stop offset="1" stop-color="#39C77B"/>
</linearGradient>
<linearGradient id="paint85_linear_140_130" x1="-11.6556" y1="0.626889" x2="461.923" y2="176.868" gradientUnits="userSpaceOnUse">
<stop stop-color="#4A89DB"/>
<stop offset="1" stop-color="#39C77B"/>
</linearGradient>
<linearGradient id="paint86_linear_140_130" x1="-11.6556" y1="0.626889" x2="461.923" y2="176.868" gradientUnits="userSpaceOnUse">
<stop stop-color="#4A89DB"/>
<stop offset="1" stop-color="#39C77B"/>
</linearGradient>
<linearGradient id="paint87_linear_140_130" x1="-11.6556" y1="0.626889" x2="461.923" y2="176.868" gradientUnits="userSpaceOnUse">
<stop stop-color="#4A89DB"/>
<stop offset="1" stop-color="#39C77B"/>
</linearGradient>
</defs>
</svg>
