<!-- <svg width="36" height="36" viewBox="0 0 36 36" fill="none" xmlns="http://www.w3.org/2000/svg">
<path fill-rule="evenodd" clip-rule="evenodd" d="M17.9997 2.58331C13.8707 2.58331 10.4788 5.74518 10.1153 9.77885C10.0572 10.4231 9.51722 10.9166 8.87034 10.9166H8.83301C5.38123 10.9166 2.58301 13.7148 2.58301 17.1666C2.58301 20.6185 5.38123 23.4166 8.83301 23.4166H27.1663C30.6182 23.4166 33.4163 20.6185 33.4163 17.1666C33.4163 13.7148 30.6182 10.9166 27.1663 10.9166H27.129C26.4821 10.9166 25.9421 10.4231 25.8841 9.77885C25.5205 5.74518 22.1286 2.58331 17.9997 2.58331ZM7.779 8.47948C8.72024 3.69306 12.9378 0.083313 17.9997 0.083313C23.0615 0.083313 27.2791 3.69306 28.2204 8.47948C32.5559 8.99999 35.9163 12.6908 35.9163 17.1666C35.9163 21.9992 31.9989 25.9166 27.1663 25.9166H8.83301C4.00052 25.9166 0.0830078 21.9992 0.0830078 17.1666C0.0830078 12.6908 3.4435 9 7.779 8.47948Z" fill="#21606A"/>
<path fill-rule="evenodd" clip-rule="evenodd" d="M23.0502 16.2828C23.5384 16.7709 23.5384 17.5624 23.0502 18.0505L18.8836 22.2172C18.3954 22.7054 17.6039 22.7054 17.1158 22.2172C16.6276 21.729 16.6276 20.9376 17.1158 20.4494L21.2825 16.2828C21.7706 15.7946 22.5621 15.7946 23.0502 16.2828Z" fill="#21606A"/>
<path fill-rule="evenodd" clip-rule="evenodd" d="M12.1158 12.9494C12.6039 12.4613 13.3954 12.4613 13.8836 12.9494L18.8836 17.9494C19.3717 18.4376 19.3717 19.229 18.8836 19.7172C18.3954 20.2054 17.6039 20.2054 17.1158 19.7172L12.1158 14.7172C11.6276 14.229 11.6276 13.4376 12.1158 12.9494Z" fill="#21606A"/>
<path fill-rule="evenodd" clip-rule="evenodd" d="M17.9997 11.75C18.69 11.75 19.2497 12.3096 19.2497 13V34.6666C19.2497 35.357 18.69 35.9166 17.9997 35.9166C17.3093 35.9166 16.7497 35.357 16.7497 34.6666V13C16.7497 12.3096 17.3093 11.75 17.9997 11.75Z" fill="#21606A"/>
</svg>
 -->

<svg width="36" height="36" viewBox="0 0 36 36" fill="none" xmlns="http://www.w3.org/2000/svg">
  <circle cx="18" cy="18" r="16" stroke="#21606A" stroke-width="2" fill="none"/>
  <rect x="10" y="10" width="16" height="16" rx="4" fill="none" stroke="#21606A" stroke-width="2"/>
  <path d="M10 14H26" stroke="#21606A" stroke-width="2"/>
  <path d="M10 18H26" stroke="#21606A" stroke-width="2"/>
  <path d="M10 22H26" stroke="#21606A" stroke-width="2"/>
  <circle cx="13" cy="13" r="2" fill="#21606A"/>
  <circle cx="23" cy="13" r="2" fill="#21606A"/>
  <circle cx="13" cy="23" r="2" fill="#21606A"/>
  <circle cx="23" cy="23" r="2" fill="#21606A"/>
  <line x1="13" y1="13" x2="23" y2="13" stroke="#21606A" stroke-width="2"/>
  <line x1="13" y1="13" x2="13" y2="23" stroke="#21606A" stroke-width="2"/>
  <line x1="23" y1="13" x2="23" y2="23" stroke="#21606A" stroke-width="2"/>
  <line x1="13" y1="23" x2="23" y2="23" stroke="#21606A" stroke-width="2"/>
</svg>
