<!-- <svg width="36" height="36" viewBox="0 0 36 36" fill="none" xmlns="http://www.w3.org/2000/svg">
<path fill-rule="evenodd" clip-rule="evenodd" d="M16.7497 1.33334C16.7497 0.642988 17.3093 0.0833435 17.9997 0.0833435C23.2924 0.0833435 27.583 4.37394 27.583 9.66668C27.583 14.9594 23.2924 19.25 17.9997 19.25C17.3093 19.25 16.7497 18.6904 16.7497 18V1.33334ZM19.2497 2.69329V16.6401C22.5655 16.0497 25.083 13.1521 25.083 9.66668C25.083 6.18119 22.5655 3.28368 19.2497 2.69329Z" fill="#21606A"/>
<path fill-rule="evenodd" clip-rule="evenodd" d="M16.7497 18C16.7497 17.3097 17.3093 16.75 17.9997 16.75H34.6663C35.3567 16.75 35.9163 17.3097 35.9163 18C35.9163 23.2927 31.6257 27.5833 26.333 27.5833C21.0403 27.5833 16.7497 23.2927 16.7497 18ZM19.3596 19.25C19.95 22.5658 22.8476 25.0833 26.333 25.0833C29.8185 25.0833 32.716 22.5658 33.3064 19.25H19.3596Z" fill="#21606A"/>
<path fill-rule="evenodd" clip-rule="evenodd" d="M0.0830078 18C0.0830078 12.7073 4.37361 8.41668 9.66634 8.41668C14.959 8.41668 19.2497 12.7073 19.2497 18C19.2497 18.6904 18.69 19.25 17.9997 19.25H1.33301C0.642652 19.25 0.0830078 18.6904 0.0830078 18ZM2.69295 16.75H16.6397C16.0493 13.4342 13.1518 10.9167 9.66634 10.9167C6.18085 10.9167 3.28335 13.4342 2.69295 16.75Z" fill="#21606A"/>
<path fill-rule="evenodd" clip-rule="evenodd" d="M8.41634 26.3333C8.41634 21.0407 12.707 16.75 17.9997 16.75C18.69 16.75 19.2497 17.3097 19.2497 18V34.6667C19.2497 35.357 18.69 35.9167 17.9997 35.9167C12.707 35.9167 8.41634 31.626 8.41634 26.3333ZM16.7497 19.36C13.4339 19.9504 10.9163 22.8479 10.9163 26.3333C10.9163 29.8188 13.4339 32.7163 16.7497 33.3067V19.36Z" fill="#21606A"/>
</svg> -->


<svg width="36" height="36" viewBox="0 0 36 36" fill="none" xmlns="http://www.w3.org/2000/svg">
  <circle cx="18" cy="18" r="16" stroke="#21606A" stroke-width="2" fill="none"/>
  <path d="M12 14C12 12.8954 12.8954 12 14 12H22C23.1046 12 24 12.8954 24 14V16C24 17.1046 23.1046 18 22 18H14C12.8954 18 12 17.1046 12 16V14Z" fill="#21606A"/>
  <polygon points="18,20 22,24 14,24" fill="#21606A"/>
  <line x1="18" y1="22" x2="18" y2="34" stroke="#21606A" stroke-width="2"/>
  <line x1="14" y1="12" x2="14" y2="10" stroke="#21606A" stroke-width="2"/>
  <line x1="22" y1="12" x2="22" y2="10" stroke="#21606A" stroke-width="2"/>
</svg>