<svg width="30" height="36" viewBox="0 0 30 36" fill="none" xmlns="http://www.w3.org/2000/svg">
<path fill-rule="evenodd" clip-rule="evenodd" d="M15.0003 9.25001C8.32688 9.25001 2.91699 14.6599 2.91699 21.3333C2.91699 28.0068 8.32688 33.4167 15.0003 33.4167C21.6738 33.4167 27.0837 28.0068 27.0837 21.3333C27.0837 14.6599 21.6738 9.25001 15.0003 9.25001ZM0.416992 21.3333C0.416992 13.2792 6.94617 6.75001 15.0003 6.75001C23.0545 6.75001 29.5837 13.2792 29.5837 21.3333C29.5837 29.3875 23.0545 35.9167 15.0003 35.9167C6.94617 35.9167 0.416992 29.3875 0.416992 21.3333Z" fill="#21606A"/>
<path fill-rule="evenodd" clip-rule="evenodd" d="M10.417 1.33334C10.417 0.642988 10.9766 0.0833435 11.667 0.0833435H18.3337C19.024 0.0833435 19.5837 0.642988 19.5837 1.33334C19.5837 2.0237 19.024 2.58334 18.3337 2.58334H11.667C10.9766 2.58334 10.417 2.0237 10.417 1.33334Z" fill="#21606A"/>
<path fill-rule="evenodd" clip-rule="evenodd" d="M15.0003 0.0833435C15.6907 0.0833435 16.2503 0.642988 16.2503 1.33334V8.00001C16.2503 8.69037 15.6907 9.25001 15.0003 9.25001C14.31 9.25001 13.7503 8.69037 13.7503 8.00001V1.33334C13.7503 0.642988 14.31 0.0833435 15.0003 0.0833435Z" fill="#21606A"/>
<path fill-rule="evenodd" clip-rule="evenodd" d="M27.5509 7.94946C28.039 8.43762 28.039 9.22907 27.5509 9.71723L25.0509 12.2172C24.5627 12.7054 23.7713 12.7054 23.2831 12.2172C22.795 11.7291 22.795 10.9376 23.2831 10.4495L25.7831 7.94946C26.2713 7.4613 27.0627 7.4613 27.5509 7.94946Z" fill="#21606A"/>
<path fill-rule="evenodd" clip-rule="evenodd" d="M15.0003 15.0833C15.6907 15.0833 16.2503 15.643 16.2503 16.3333V21.3333C16.2503 22.0237 15.6907 22.5833 15.0003 22.5833C14.31 22.5833 13.7503 22.0237 13.7503 21.3333V16.3333C13.7503 15.643 14.31 15.0833 15.0003 15.0833Z" fill="#21606A"/>
<path fill-rule="evenodd" clip-rule="evenodd" d="M8.75033 21.3333C8.75033 20.643 9.30997 20.0833 10.0003 20.0833H15.0003C15.6907 20.0833 16.2503 20.643 16.2503 21.3333C16.2503 22.0237 15.6907 22.5833 15.0003 22.5833H10.0003C9.30997 22.5833 8.75033 22.0237 8.75033 21.3333Z" fill="#21606A"/>
</svg>
