<svg width="14" height="13" viewBox="0 0 14 13" fill="none" xmlns="http://www.w3.org/2000/svg">
<path fill-rule="evenodd" clip-rule="evenodd" d="M2 1C1.72386 1 1.5 1.22386 1.5 1.5V11.5C1.5 11.7761 1.72386 12 2 12H12C12.2761 12 12.5 11.7761 12.5 11.5V1.5C12.5 1.22386 12.2761 1 12 1H2ZM0.5 1.5C0.5 0.671573 1.17157 0 2 0H12C12.8284 0 13.5 0.671573 13.5 1.5V11.5C13.5 12.3284 12.8284 13 12 13H2C1.17157 13 0.5 12.3284 0.5 11.5V1.5Z" fill="#4BAEAE"/>
<path fill-rule="evenodd" clip-rule="evenodd" d="M0.5 3.83333C0.5 3.55719 0.723858 3.33333 1 3.33333H13C13.2761 3.33333 13.5 3.55719 13.5 3.83333C13.5 4.10948 13.2761 4.33333 13 4.33333H1C0.723858 4.33333 0.5 4.10948 0.5 3.83333Z" fill="#4BAEAE"/>
<path fill-rule="evenodd" clip-rule="evenodd" d="M1 2.33333C1.27614 2.33333 1.5 2.55719 1.5 2.83333V4.83333C1.5 5.10948 1.27614 5.33333 1 5.33333C0.723858 5.33333 0.5 5.10948 0.5 4.83333V2.83333C0.5 2.55719 0.723858 2.33333 1 2.33333Z" fill="#4BAEAE"/>
<path fill-rule="evenodd" clip-rule="evenodd" d="M13 2.66667C13.2761 2.66667 13.5 2.89052 13.5 3.16667V5.16667C13.5 5.44281 13.2761 5.66667 13 5.66667C12.7239 5.66667 12.5 5.44281 12.5 5.16667V3.16667C12.5 2.89052 12.7239 2.66667 13 2.66667Z" fill="#4BAEAE"/>
<path fill-rule="evenodd" clip-rule="evenodd" d="M9.66667 3.33333C9.94281 3.33333 10.1667 3.55719 10.1667 3.83333V12.5C10.1667 12.7761 9.94281 13 9.66667 13C9.39052 13 9.16667 12.7761 9.16667 12.5V3.83333C9.16667 3.55719 9.39052 3.33333 9.66667 3.33333Z" fill="#4BAEAE"/>
<path fill-rule="evenodd" clip-rule="evenodd" d="M8.16667 12.5C8.16667 12.2239 8.39052 12 8.66667 12H10.6667C10.9428 12 11.1667 12.2239 11.1667 12.5C11.1667 12.7761 10.9428 13 10.6667 13H8.66667C8.39052 13 8.16667 12.7761 8.16667 12.5Z" fill="#4BAEAE"/>
</svg>
