<svg width="16" height="17" viewBox="0 0 16 17" fill="none" xmlns="http://www.w3.org/2000/svg">
<path fill-rule="evenodd" clip-rule="evenodd" d="M7.58992 6.47883C7.70893 6.72801 7.60342 7.02649 7.35424 7.14551C6.84781 7.38739 6.49967 7.90354 6.49967 8.50003C6.49967 9.32846 7.17125 10 7.99967 10C8.59618 10 9.11235 9.65188 9.35424 9.14549C9.47326 8.89631 9.77174 8.7908 10.0209 8.90982C10.2701 9.02885 10.3756 9.32733 10.2566 9.5765C9.85493 10.4174 8.99583 11 7.99967 11C6.61897 11 5.49967 9.88074 5.49967 8.50003C5.49967 7.50386 6.08234 6.6448 6.92324 6.24315C7.17242 6.12414 7.4709 6.22965 7.58992 6.47883Z" fill="#6A75C0"/>
<path fill-rule="evenodd" clip-rule="evenodd" d="M3.16634 8.50004C3.16634 5.83067 5.3303 3.66671 7.99967 3.66671C8.55618 3.66671 9.09175 3.76097 9.59061 3.93478C9.85138 4.02563 9.98913 4.31068 9.89827 4.57145C9.80742 4.83221 9.52237 4.96996 9.2616 4.8791C8.86706 4.74164 8.44263 4.66671 7.99967 4.66671C5.88258 4.66671 4.16634 6.38295 4.16634 8.50004C4.16634 10.6171 5.88258 12.3334 7.99967 12.3334C10.1168 12.3334 11.833 10.6171 11.833 8.50004C11.833 8.05708 11.7581 7.63265 11.6206 7.23811C11.5298 6.97734 11.6675 6.6923 11.9283 6.60144C12.189 6.51059 12.4741 6.64833 12.5649 6.9091C12.7387 7.40796 12.833 7.94353 12.833 8.50004C12.833 11.1694 10.6691 13.3334 7.99967 13.3334C5.3303 13.3334 3.16634 11.1694 3.16634 8.50004Z" fill="#6A75C0"/>
<path fill-rule="evenodd" clip-rule="evenodd" d="M0.833008 8.50004C0.833008 4.542 4.04163 1.33337 7.99967 1.33337C9.24069 1.33337 10.4094 1.64923 11.4284 2.20533C11.6708 2.33762 11.76 2.64136 11.6277 2.88375C11.4954 3.12615 11.1917 3.2154 10.9493 3.08312C10.0736 2.60519 9.06913 2.33337 7.99967 2.33337C4.59392 2.33337 1.83301 5.09428 1.83301 8.50004C1.83301 11.9058 4.59392 14.6667 7.99967 14.6667C11.4054 14.6667 14.1663 11.9058 14.1663 8.50004C14.1663 7.43059 13.8945 6.42611 13.4166 5.5504C13.2843 5.308 13.3736 5.00426 13.616 4.87198C13.8584 4.73969 14.1621 4.82896 14.2944 5.07135C14.8505 6.0903 15.1663 7.25903 15.1663 8.50004C15.1663 12.4581 11.9577 15.6667 7.99967 15.6667C4.04163 15.6667 0.833008 12.4581 0.833008 8.50004Z" fill="#6A75C0"/>
<path fill-rule="evenodd" clip-rule="evenodd" d="M15.0199 1.47982C15.2152 1.67508 15.2152 1.99167 15.0199 2.18693L8.35323 8.85359C8.15797 9.04886 7.84138 9.04886 7.64612 8.85359C7.45086 8.65833 7.45086 8.34175 7.64612 8.14649L14.3128 1.47982C14.508 1.28456 14.8246 1.28456 15.0199 1.47982Z" fill="#6A75C0"/>
</svg>
