<svg width="14" height="13" viewBox="0 0 14 13" fill="none" xmlns="http://www.w3.org/2000/svg">
<path fill-rule="evenodd" clip-rule="evenodd" d="M1.66667 1C1.57462 1 1.5 1.07462 1.5 1.16667V4.5C1.5 4.59205 1.57462 4.66667 1.66667 4.66667H5C5.09205 4.66667 5.16667 4.59205 5.16667 4.5V1.16667C5.16667 1.07462 5.09205 1 5 1H1.66667ZM0.5 1.16667C0.5 0.522334 1.02233 0 1.66667 0H5C5.64433 0 6.16667 0.522334 6.16667 1.16667V4.5C6.16667 5.14433 5.64433 5.66667 5 5.66667H1.66667C1.02233 5.66667 0.5 5.14433 0.5 4.5V1.16667Z" fill="#88C65A"/>
<path fill-rule="evenodd" clip-rule="evenodd" d="M1.66667 8.33333C1.57462 8.33333 1.5 8.40795 1.5 8.5V11.8333C1.5 11.9254 1.57462 12 1.66667 12H5C5.09205 12 5.16667 11.9254 5.16667 11.8333V8.5C5.16667 8.40795 5.09205 8.33333 5 8.33333H1.66667ZM0.5 8.5C0.5 7.85567 1.02233 7.33333 1.66667 7.33333H5C5.64433 7.33333 6.16667 7.85567 6.16667 8.5V11.8333C6.16667 12.4777 5.64433 13 5 13H1.66667C1.02233 13 0.5 12.4777 0.5 11.8333V8.5Z" fill="#88C65A"/>
<path fill-rule="evenodd" clip-rule="evenodd" d="M7.83333 2.83333C7.83333 1.26853 9.10186 0 10.6667 0C12.2315 0 13.5 1.26853 13.5 2.83333C13.5 4.39814 12.2315 5.66667 10.6667 5.66667C9.10186 5.66667 7.83333 4.39814 7.83333 2.83333ZM10.6667 1C9.65414 1 8.83333 1.82081 8.83333 2.83333C8.83333 3.84586 9.65414 4.66667 10.6667 4.66667C11.6792 4.66667 12.5 3.84586 12.5 2.83333C12.5 1.82081 11.6792 1 10.6667 1Z" fill="#88C65A"/>
<path fill-rule="evenodd" clip-rule="evenodd" d="M9 8.33333C8.90795 8.33333 8.83333 8.40795 8.83333 8.5V11.8333C8.83333 11.9254 8.90795 12 9 12H12.3333C12.4254 12 12.5 11.9254 12.5 11.8333V8.5C12.5 8.40795 12.4254 8.33333 12.3333 8.33333H9ZM7.83333 8.5C7.83333 7.85567 8.35567 7.33333 9 7.33333H12.3333C12.9777 7.33333 13.5 7.85567 13.5 8.5V11.8333C13.5 12.4777 12.9777 13 12.3333 13H9C8.35567 13 7.83333 12.4777 7.83333 11.8333V8.5Z" fill="#88C65A"/>
</svg>
