<svg width="14" height="13" viewBox="0 0 14 13" fill="none" xmlns="http://www.w3.org/2000/svg">
<path fill-rule="evenodd" clip-rule="evenodd" d="M1.66667 4.66667C1.57461 4.66667 1.5 4.74128 1.5 4.83333V11.8333C1.5 11.9254 1.57461 12 1.66667 12H8.66667C8.75872 12 8.83333 11.9254 8.83333 11.8333V9.5C8.83333 9.40794 8.75872 9.33333 8.66667 9.33333H5.33333C4.68899 9.33333 4.16667 8.81101 4.16667 8.16667V4.83333C4.16667 4.74128 4.09206 4.66667 4 4.66667H1.66667ZM0.5 4.83333C0.5 4.18899 1.02234 3.66667 1.66667 3.66667H4C4.64434 3.66667 5.16667 4.18899 5.16667 4.83333V8.16667C5.16667 8.25872 5.24128 8.33333 5.33333 8.33333H8.66667C9.31101 8.33333 9.83333 8.85566 9.83333 9.5V11.8333C9.83333 12.4777 9.31101 13 8.66667 13H1.66667C1.02234 13 0.5 12.4777 0.5 11.8333V4.83333Z" fill="#6F93C9"/>
<path fill-rule="evenodd" clip-rule="evenodd" d="M5.33333 1C5.24128 1 5.16667 1.07461 5.16667 1.16667V3.5C5.16667 3.59206 5.24128 3.66667 5.33333 3.66667H8.66667C9.31101 3.66667 9.83333 4.18899 9.83333 4.83333V8.16667C9.83333 8.25872 9.90794 8.33333 10 8.33333H12.3333C12.4254 8.33333 12.5 8.25872 12.5 8.16667V1.16667C12.5 1.07461 12.4254 1 12.3333 1H5.33333ZM4.16667 1.16667C4.16667 0.522339 4.68899 0 5.33333 0H12.3333C12.9777 0 13.5 0.522339 13.5 1.16667V8.16667C13.5 8.81101 12.9777 9.33333 12.3333 9.33333H10C9.35566 9.33333 8.83333 8.81101 8.83333 8.16667V4.83333C8.83333 4.74128 8.75872 4.66667 8.66667 4.66667H5.33333C4.68899 4.66667 4.16667 4.14434 4.16667 3.5V1.16667Z" fill="#6F93C9"/>
</svg>
