<svg width="41" height="45" viewBox="0 0 41 45" fill="none" xmlns="http://www.w3.org/2000/svg">
<path d="M17.5887 21.715H13.8646V18.4956C15.3604 17.9661 16.4347 16.5363 16.4347 14.8615C16.4347 12.736 14.7059 11.0063 12.5796 11.0063C10.4541 11.0063 8.72443 12.736 8.72443 14.8615C8.72443 16.5363 9.79873 17.9661 11.2945 18.4956V21.715H7.57132C5.4193 21.715 3.66821 23.4661 3.66821 25.6173V31.3469C3.66821 33.4989 5.4193 35.25 7.57132 35.25H17.5887C19.7407 35.25 21.4918 33.4989 21.4918 31.3469V25.6173C21.4918 23.4661 19.7407 21.715 17.5887 21.715ZM12.5881 32.1025H12.5719C10.186 32.1025 8.24554 30.1612 8.24554 27.7762H10.8156C10.8156 28.7442 11.6038 29.5324 12.5719 29.5324H12.5881C13.5562 29.5324 14.3444 28.7442 14.3444 27.7762H16.9144C16.9144 30.1612 14.974 32.1025 12.5881 32.1025Z" fill="#5850EC"/>
<path d="M6.05103 37.8202H19.1096V44.5889H6.05103V37.8202Z" fill="#5850EC"/>
<path d="M0.333252 40.84V44.5889H3.48075V37.8202H3.35311C1.68769 37.8202 0.333252 39.1746 0.333252 40.84Z" fill="#5850EC"/>
<path d="M21.8068 37.8202H21.6792V44.5889H24.8267V40.84C24.8267 39.1746 23.4723 37.8202 21.8068 37.8202Z" fill="#5850EC"/>
<path d="M30.5243 0.726074C25.1151 0.726074 20.7151 5.12607 20.7151 10.5352C20.7151 12.5913 21.3705 14.6105 22.5681 16.2725V19.4714H26.4764C27.7503 20.0514 29.1107 20.3444 30.5243 20.3444C35.9334 20.3444 40.3334 15.9444 40.3334 10.5352C40.3334 5.12607 35.9334 0.726074 30.5243 0.726074ZM27.3116 11.8203H33.7369V14.3904H27.3116V11.8203ZM33.7369 9.2502H27.3116V6.68011H33.7369V9.2502Z" fill="#5850EC"/>
</svg>
