<svg width="40" height="41" viewBox="0 0 40 41" fill="none" xmlns="http://www.w3.org/2000/svg">
<path d="M0 36.4295C0 38.7986 1.92749 40.7261 4.29657 40.7261H35.7034C38.0725 40.7261 40 38.7986 40 36.4295V12.5229H0V36.4295ZM23.5156 32.4448H16.4844C15.1898 32.4448 14.1406 31.3953 14.1406 30.1011C14.1406 28.8065 15.1898 27.7573 16.4844 27.7573H23.5156C24.8102 27.7573 25.8594 28.8068 25.8594 30.1011C25.8594 31.3956 24.8102 32.4448 23.5156 32.4448ZM12.9688 17.2104H27.0312C27.6785 17.2104 28.2031 17.735 28.2031 18.3823C28.2031 19.0296 27.6785 19.5542 27.0312 19.5542H12.9688C12.3215 19.5542 11.7969 19.0296 11.7969 18.3823C11.7969 17.735 12.3215 17.2104 12.9688 17.2104ZM8.28125 21.8979H31.7188C32.366 21.8979 32.8906 22.4225 32.8906 23.0698C32.8906 23.7171 32.366 24.2417 31.7188 24.2417H8.28125C7.63397 24.2417 7.10938 23.7171 7.10938 23.0698C7.10938 22.4225 7.63397 21.8979 8.28125 21.8979Z" fill="#5850EC"/>
<path d="M35.7034 0.726074H4.29657C1.92749 0.726074 0 2.65356 0 5.02264V10.1792H40V5.02264C40 2.65356 38.0725 0.726074 35.7034 0.726074ZM24.6875 7.83545C24.0402 7.83545 23.5156 7.31085 23.5156 6.66357C23.5156 6.0163 24.0402 5.4917 24.6875 5.4917C25.3348 5.4917 25.8594 6.0163 25.8594 6.66357C25.8594 7.31085 25.3348 7.83545 24.6875 7.83545ZM29.375 7.83545C28.7277 7.83545 28.2031 7.31085 28.2031 6.66357C28.2031 6.0163 28.7277 5.4917 29.375 5.4917C30.0223 5.4917 30.5469 6.0163 30.5469 6.66357C30.5469 7.31085 30.0223 7.83545 29.375 7.83545ZM34.0625 7.83545C33.4152 7.83545 32.8906 7.31085 32.8906 6.66357C32.8906 6.0163 33.4152 5.4917 34.0625 5.4917C34.7098 5.4917 35.2344 6.0163 35.2344 6.66357C35.2344 7.31085 34.7098 7.83545 34.0625 7.83545Z" fill="#5850EC"/>
</svg>
