<svg width="198" height="101" viewBox="0 0 198 101" fill="none" xmlns="http://www.w3.org/2000/svg">
<path d="M190.464 -50.5794C191.009 -49.6344 191.54 -48.6803 192.057 -47.7172C191.119 -48.331 190.492 -49.3811 190.464 -50.5794Z" fill="white"/>
<path d="M190.464 -50.5794C191.009 -49.6344 191.54 -48.6803 192.057 -47.7172C191.119 -48.331 190.492 -49.3811 190.464 -50.5794Z" fill="url(#paint0_linear_158_84)"/>
<path d="M171.202 -74.8659C172.841 -73.3276 174.431 -71.7375 175.97 -70.0982C175.375 -68.9988 174.211 -68.2521 172.874 -68.2521C170.931 -68.2521 169.356 -69.8271 169.356 -71.7699C169.356 -73.1077 170.102 -74.271 171.202 -74.8659Z" fill="white"/>
<path d="M171.202 -74.8659C172.841 -73.3276 174.431 -71.7375 175.97 -70.0982C175.375 -68.9988 174.211 -68.2521 172.874 -68.2521C170.931 -68.2521 169.356 -69.8271 169.356 -71.7699C169.356 -73.1077 170.102 -74.271 171.202 -74.8659Z" fill="url(#paint1_linear_158_84)"/>
<path d="M148.821 -90.9533C149.784 -90.4366 150.738 -89.9054 151.683 -89.3599C150.485 -89.3879 149.435 -90.015 148.821 -90.9533Z" fill="white"/>
<path d="M148.821 -90.9533C149.784 -90.4366 150.738 -89.9054 151.683 -89.3599C150.485 -89.3879 149.435 -90.015 148.821 -90.9533Z" fill="url(#paint2_linear_158_84)"/>
<path d="M46.3161 -89.3599C47.2611 -89.9054 48.2152 -90.4366 49.1784 -90.9533C48.5645 -90.015 47.5144 -89.3879 46.3161 -89.3599Z" fill="white"/>
<path d="M46.3161 -89.3599C47.2611 -89.9054 48.2152 -90.4366 49.1784 -90.9533C48.5645 -90.015 47.5144 -89.3879 46.3161 -89.3599Z" fill="url(#paint3_linear_158_84)"/>
<path d="M22.0296 -70.0982C23.568 -71.7375 25.158 -73.3276 26.7973 -74.8659C27.8967 -74.271 28.6434 -73.1077 28.6434 -71.7699C28.6434 -69.8271 27.0685 -68.2521 25.1256 -68.2521C23.7879 -68.2521 22.6245 -68.9988 22.0296 -70.0982Z" fill="white"/>
<path d="M22.0296 -70.0982C23.568 -71.7375 25.158 -73.3276 26.7973 -74.8659C27.8967 -74.271 28.6434 -73.1077 28.6434 -71.7699C28.6434 -69.8271 27.0685 -68.2521 25.1256 -68.2521C23.7879 -68.2521 22.6245 -68.9988 22.0296 -70.0982Z" fill="url(#paint4_linear_158_84)"/>
<path d="M5.9422 -47.7172C6.45892 -48.6803 6.99016 -49.6344 7.53561 -50.5794C7.50764 -49.3811 6.88051 -48.331 5.9422 -47.7172Z" fill="white"/>
<path d="M5.9422 -47.7172C6.45892 -48.6803 6.99016 -49.6344 7.53561 -50.5794C7.50764 -49.3811 6.88051 -48.331 5.9422 -47.7172Z" fill="url(#paint5_linear_158_84)"/>
<path d="M192.057 51.9253C191.54 52.8884 191.009 53.8426 190.464 54.7875C190.492 53.5892 191.119 52.5392 192.057 51.9253Z" fill="white"/>
<path d="M192.057 51.9253C191.54 52.8884 191.009 53.8426 190.464 54.7875C190.492 53.5892 191.119 52.5392 192.057 51.9253Z" fill="url(#paint6_linear_158_84)"/>
<path d="M175.97 74.3063C175.375 73.2069 174.211 72.4602 172.874 72.4602C170.931 72.4602 169.356 74.0352 169.356 75.978C169.356 77.3158 170.102 78.4791 171.202 79.074C172.841 77.5357 174.431 75.9456 175.97 74.3063Z" fill="white"/>
<path d="M175.97 74.3063C175.375 73.2069 174.211 72.4602 172.874 72.4602C170.931 72.4602 169.356 74.0352 169.356 75.978C169.356 77.3158 170.102 78.4791 171.202 79.074C172.841 77.5357 174.431 75.9456 175.97 74.3063Z" fill="url(#paint7_linear_158_84)"/>
<path d="M151.683 93.568C150.485 93.596 149.435 94.2231 148.821 95.1614C149.784 94.6447 150.738 94.1135 151.683 93.568Z" fill="white"/>
<path d="M151.683 93.568C150.485 93.596 149.435 94.2231 148.821 95.1614C149.784 94.6447 150.738 94.1135 151.683 93.568Z" fill="url(#paint8_linear_158_84)"/>
<path d="M49.1784 95.1614C48.5645 94.2231 47.5144 93.596 46.3161 93.568C47.2611 94.1135 48.2152 94.6447 49.1784 95.1614Z" fill="white"/>
<path d="M49.1784 95.1614C48.5645 94.2231 47.5144 93.596 46.3161 93.568C47.2611 94.1135 48.2152 94.6447 49.1784 95.1614Z" fill="url(#paint9_linear_158_84)"/>
<path d="M26.7973 79.074C27.8967 78.4791 28.6434 77.3158 28.6434 75.978C28.6434 74.0352 27.0685 72.4602 25.1256 72.4602C23.7879 72.4602 22.6245 73.2069 22.0296 74.3063C23.568 75.9456 25.158 77.5357 26.7973 79.074Z" fill="white"/>
<path d="M26.7973 79.074C27.8967 78.4791 28.6434 77.3158 28.6434 75.978C28.6434 74.0352 27.0685 72.4602 25.1256 72.4602C23.7879 72.4602 22.6245 73.2069 22.0296 74.3063C23.568 75.9456 25.158 77.5357 26.7973 79.074Z" fill="url(#paint10_linear_158_84)"/>
<path d="M7.53561 54.7875C7.50764 53.5892 6.88051 52.5392 5.94221 51.9253C6.45892 52.8884 6.99016 53.8426 7.53561 54.7875Z" fill="white"/>
<path d="M7.53561 54.7875C7.50764 53.5892 6.88051 52.5392 5.94221 51.9253C6.45892 52.8884 6.99016 53.8426 7.53561 54.7875Z" fill="url(#paint11_linear_158_84)"/>
<path d="M70.8571 -92.8767C70.8571 -90.9339 69.2821 -89.3589 67.3393 -89.3589C65.3965 -89.3589 63.8215 -90.9339 63.8215 -92.8767C63.8215 -94.8196 65.3965 -96.3945 67.3393 -96.3945C69.2821 -96.3945 70.8571 -94.8196 70.8571 -92.8767Z" fill="white"/>
<path d="M70.8571 -92.8767C70.8571 -90.9339 69.2821 -89.3589 67.3393 -89.3589C65.3965 -89.3589 63.8215 -90.9339 63.8215 -92.8767C63.8215 -94.8196 65.3965 -96.3945 67.3393 -96.3945C69.2821 -96.3945 70.8571 -94.8196 70.8571 -92.8767Z" fill="url(#paint12_linear_158_84)"/>
<path d="M91.964 -92.8767C91.964 -90.9339 90.389 -89.3589 88.4462 -89.3589C86.5033 -89.3589 84.9283 -90.9339 84.9283 -92.8767C84.9283 -94.8196 86.5033 -96.3945 88.4462 -96.3945C90.389 -96.3945 91.964 -94.8196 91.964 -92.8767Z" fill="white"/>
<path d="M91.964 -92.8767C91.964 -90.9339 90.389 -89.3589 88.4462 -89.3589C86.5033 -89.3589 84.9283 -90.9339 84.9283 -92.8767C84.9283 -94.8196 86.5033 -96.3945 88.4462 -96.3945C90.389 -96.3945 91.964 -94.8196 91.964 -92.8767Z" fill="url(#paint13_linear_158_84)"/>
<path d="M113.071 -92.8767C113.071 -90.9339 111.496 -89.3589 109.553 -89.3589C107.61 -89.3589 106.035 -90.9339 106.035 -92.8767C106.035 -94.8196 107.61 -96.3945 109.553 -96.3945C111.496 -96.3945 113.071 -94.8196 113.071 -92.8767Z" fill="white"/>
<path d="M113.071 -92.8767C113.071 -90.9339 111.496 -89.3589 109.553 -89.3589C107.61 -89.3589 106.035 -90.9339 106.035 -92.8767C106.035 -94.8196 107.61 -96.3945 109.553 -96.3945C111.496 -96.3945 113.071 -94.8196 113.071 -92.8767Z" fill="url(#paint14_linear_158_84)"/>
<path d="M134.178 -92.8767C134.178 -90.9339 132.603 -89.3589 130.66 -89.3589C128.717 -89.3589 127.142 -90.9339 127.142 -92.8767C127.142 -94.8196 128.717 -96.3945 130.66 -96.3945C132.603 -96.3945 134.178 -94.8196 134.178 -92.8767Z" fill="white"/>
<path d="M134.178 -92.8767C134.178 -90.9339 132.603 -89.3589 130.66 -89.3589C128.717 -89.3589 127.142 -90.9339 127.142 -92.8767C127.142 -94.8196 128.717 -96.3945 130.66 -96.3945C132.603 -96.3945 134.178 -94.8196 134.178 -92.8767Z" fill="url(#paint15_linear_158_84)"/>
<path d="M49.7503 -71.7699C49.7503 -69.8271 48.1753 -68.2521 46.2325 -68.2521C44.2896 -68.2521 42.7147 -69.8271 42.7147 -71.7699C42.7147 -73.7127 44.2896 -75.2877 46.2325 -75.2877C48.1753 -75.2877 49.7503 -73.7127 49.7503 -71.7699Z" fill="white"/>
<path d="M49.7503 -71.7699C49.7503 -69.8271 48.1753 -68.2521 46.2325 -68.2521C44.2896 -68.2521 42.7147 -69.8271 42.7147 -71.7699C42.7147 -73.7127 44.2896 -75.2877 46.2325 -75.2877C48.1753 -75.2877 49.7503 -73.7127 49.7503 -71.7699Z" fill="url(#paint16_linear_158_84)"/>
<path d="M70.8571 -71.7699C70.8571 -69.8271 69.2821 -68.2521 67.3393 -68.2521C65.3965 -68.2521 63.8215 -69.8271 63.8215 -71.7699C63.8215 -73.7127 65.3965 -75.2877 67.3393 -75.2877C69.2821 -75.2877 70.8571 -73.7127 70.8571 -71.7699Z" fill="white"/>
<path d="M70.8571 -71.7699C70.8571 -69.8271 69.2821 -68.2521 67.3393 -68.2521C65.3965 -68.2521 63.8215 -69.8271 63.8215 -71.7699C63.8215 -73.7127 65.3965 -75.2877 67.3393 -75.2877C69.2821 -75.2877 70.8571 -73.7127 70.8571 -71.7699Z" fill="url(#paint17_linear_158_84)"/>
<path d="M91.964 -71.7699C91.964 -69.8271 90.389 -68.2521 88.4462 -68.2521C86.5033 -68.2521 84.9283 -69.8271 84.9283 -71.7699C84.9283 -73.7127 86.5033 -75.2877 88.4462 -75.2877C90.389 -75.2877 91.964 -73.7127 91.964 -71.7699Z" fill="white"/>
<path d="M91.964 -71.7699C91.964 -69.8271 90.389 -68.2521 88.4462 -68.2521C86.5033 -68.2521 84.9283 -69.8271 84.9283 -71.7699C84.9283 -73.7127 86.5033 -75.2877 88.4462 -75.2877C90.389 -75.2877 91.964 -73.7127 91.964 -71.7699Z" fill="url(#paint18_linear_158_84)"/>
<path d="M113.071 -71.7699C113.071 -69.8271 111.496 -68.2521 109.553 -68.2521C107.61 -68.2521 106.035 -69.8271 106.035 -71.7699C106.035 -73.7127 107.61 -75.2877 109.553 -75.2877C111.496 -75.2877 113.071 -73.7127 113.071 -71.7699Z" fill="white"/>
<path d="M113.071 -71.7699C113.071 -69.8271 111.496 -68.2521 109.553 -68.2521C107.61 -68.2521 106.035 -69.8271 106.035 -71.7699C106.035 -73.7127 107.61 -75.2877 109.553 -75.2877C111.496 -75.2877 113.071 -73.7127 113.071 -71.7699Z" fill="url(#paint19_linear_158_84)"/>
<path d="M134.178 -71.7699C134.178 -69.8271 132.603 -68.2521 130.66 -68.2521C128.717 -68.2521 127.142 -69.8271 127.142 -71.7699C127.142 -73.7127 128.717 -75.2877 130.66 -75.2877C132.603 -75.2877 134.178 -73.7127 134.178 -71.7699Z" fill="white"/>
<path d="M134.178 -71.7699C134.178 -69.8271 132.603 -68.2521 130.66 -68.2521C128.717 -68.2521 127.142 -69.8271 127.142 -71.7699C127.142 -73.7127 128.717 -75.2877 130.66 -75.2877C132.603 -75.2877 134.178 -73.7127 134.178 -71.7699Z" fill="url(#paint20_linear_158_84)"/>
<path d="M155.284 -71.7699C155.284 -69.8271 153.71 -68.2521 151.767 -68.2521C149.824 -68.2521 148.249 -69.8271 148.249 -71.7699C148.249 -73.7127 149.824 -75.2877 151.767 -75.2877C153.71 -75.2877 155.284 -73.7127 155.284 -71.7699Z" fill="white"/>
<path d="M155.284 -71.7699C155.284 -69.8271 153.71 -68.2521 151.767 -68.2521C149.824 -68.2521 148.249 -69.8271 148.249 -71.7699C148.249 -73.7127 149.824 -75.2877 151.767 -75.2877C153.71 -75.2877 155.284 -73.7127 155.284 -71.7699Z" fill="url(#paint21_linear_158_84)"/>
<path d="M28.6434 -50.663C28.6434 -48.7202 27.0685 -47.1452 25.1256 -47.1452C23.1828 -47.1452 21.6078 -48.7202 21.6078 -50.663C21.6078 -52.6059 23.1828 -54.1808 25.1256 -54.1808C27.0685 -54.1808 28.6434 -52.6059 28.6434 -50.663Z" fill="white"/>
<path d="M28.6434 -50.663C28.6434 -48.7202 27.0685 -47.1452 25.1256 -47.1452C23.1828 -47.1452 21.6078 -48.7202 21.6078 -50.663C21.6078 -52.6059 23.1828 -54.1808 25.1256 -54.1808C27.0685 -54.1808 28.6434 -52.6059 28.6434 -50.663Z" fill="url(#paint22_linear_158_84)"/>
<path d="M49.7503 -50.663C49.7503 -48.7202 48.1753 -47.1452 46.2325 -47.1452C44.2896 -47.1452 42.7147 -48.7202 42.7147 -50.663C42.7147 -52.6059 44.2896 -54.1808 46.2325 -54.1808C48.1753 -54.1808 49.7503 -52.6059 49.7503 -50.663Z" fill="white"/>
<path d="M49.7503 -50.663C49.7503 -48.7202 48.1753 -47.1452 46.2325 -47.1452C44.2896 -47.1452 42.7147 -48.7202 42.7147 -50.663C42.7147 -52.6059 44.2896 -54.1808 46.2325 -54.1808C48.1753 -54.1808 49.7503 -52.6059 49.7503 -50.663Z" fill="url(#paint23_linear_158_84)"/>
<path d="M70.8571 -50.663C70.8571 -48.7202 69.2821 -47.1452 67.3393 -47.1452C65.3965 -47.1452 63.8215 -48.7202 63.8215 -50.663C63.8215 -52.6059 65.3965 -54.1808 67.3393 -54.1808C69.2821 -54.1808 70.8571 -52.6059 70.8571 -50.663Z" fill="white"/>
<path d="M70.8571 -50.663C70.8571 -48.7202 69.2821 -47.1452 67.3393 -47.1452C65.3965 -47.1452 63.8215 -48.7202 63.8215 -50.663C63.8215 -52.6059 65.3965 -54.1808 67.3393 -54.1808C69.2821 -54.1808 70.8571 -52.6059 70.8571 -50.663Z" fill="url(#paint24_linear_158_84)"/>
<path d="M91.964 -50.663C91.964 -48.7202 90.389 -47.1452 88.4462 -47.1452C86.5033 -47.1452 84.9283 -48.7202 84.9283 -50.663C84.9283 -52.6059 86.5033 -54.1808 88.4462 -54.1808C90.389 -54.1808 91.964 -52.6059 91.964 -50.663Z" fill="white"/>
<path d="M91.964 -50.663C91.964 -48.7202 90.389 -47.1452 88.4462 -47.1452C86.5033 -47.1452 84.9283 -48.7202 84.9283 -50.663C84.9283 -52.6059 86.5033 -54.1808 88.4462 -54.1808C90.389 -54.1808 91.964 -52.6059 91.964 -50.663Z" fill="url(#paint25_linear_158_84)"/>
<path d="M113.071 -50.663C113.071 -48.7202 111.496 -47.1452 109.553 -47.1452C107.61 -47.1452 106.035 -48.7202 106.035 -50.663C106.035 -52.6059 107.61 -54.1808 109.553 -54.1808C111.496 -54.1808 113.071 -52.6059 113.071 -50.663Z" fill="white"/>
<path d="M113.071 -50.663C113.071 -48.7202 111.496 -47.1452 109.553 -47.1452C107.61 -47.1452 106.035 -48.7202 106.035 -50.663C106.035 -52.6059 107.61 -54.1808 109.553 -54.1808C111.496 -54.1808 113.071 -52.6059 113.071 -50.663Z" fill="url(#paint26_linear_158_84)"/>
<path d="M134.178 -50.663C134.178 -48.7202 132.603 -47.1452 130.66 -47.1452C128.717 -47.1452 127.142 -48.7202 127.142 -50.663C127.142 -52.6059 128.717 -54.1808 130.66 -54.1808C132.603 -54.1808 134.178 -52.6059 134.178 -50.663Z" fill="white"/>
<path d="M134.178 -50.663C134.178 -48.7202 132.603 -47.1452 130.66 -47.1452C128.717 -47.1452 127.142 -48.7202 127.142 -50.663C127.142 -52.6059 128.717 -54.1808 130.66 -54.1808C132.603 -54.1808 134.178 -52.6059 134.178 -50.663Z" fill="url(#paint27_linear_158_84)"/>
<path d="M155.284 -50.663C155.284 -48.7202 153.71 -47.1452 151.767 -47.1452C149.824 -47.1452 148.249 -48.7202 148.249 -50.663C148.249 -52.6059 149.824 -54.1808 151.767 -54.1808C153.71 -54.1808 155.284 -52.6059 155.284 -50.663Z" fill="white"/>
<path d="M155.284 -50.663C155.284 -48.7202 153.71 -47.1452 151.767 -47.1452C149.824 -47.1452 148.249 -48.7202 148.249 -50.663C148.249 -52.6059 149.824 -54.1808 151.767 -54.1808C153.71 -54.1808 155.284 -52.6059 155.284 -50.663Z" fill="url(#paint28_linear_158_84)"/>
<path d="M176.391 -50.663C176.391 -48.7202 174.816 -47.1452 172.874 -47.1452C170.931 -47.1452 169.356 -48.7202 169.356 -50.663C169.356 -52.6059 170.931 -54.1808 172.874 -54.1808C174.816 -54.1808 176.391 -52.6059 176.391 -50.663Z" fill="white"/>
<path d="M176.391 -50.663C176.391 -48.7202 174.816 -47.1452 172.874 -47.1452C170.931 -47.1452 169.356 -48.7202 169.356 -50.663C169.356 -52.6059 170.931 -54.1808 172.874 -54.1808C174.816 -54.1808 176.391 -52.6059 176.391 -50.663Z" fill="url(#paint29_linear_158_84)"/>
<path d="M7.53659 -29.5562C7.53659 -27.6134 5.96161 -26.0384 4.01878 -26.0384C2.07595 -26.0384 0.500977 -27.6134 0.500977 -29.5562C0.500977 -31.499 2.07595 -33.074 4.01878 -33.074C5.96161 -33.074 7.53659 -31.499 7.53659 -29.5562Z" fill="white"/>
<path d="M7.53659 -29.5562C7.53659 -27.6134 5.96161 -26.0384 4.01878 -26.0384C2.07595 -26.0384 0.500977 -27.6134 0.500977 -29.5562C0.500977 -31.499 2.07595 -33.074 4.01878 -33.074C5.96161 -33.074 7.53659 -31.499 7.53659 -29.5562Z" fill="url(#paint30_linear_158_84)"/>
<path d="M28.6434 -29.5562C28.6434 -27.6134 27.0685 -26.0384 25.1256 -26.0384C23.1828 -26.0384 21.6078 -27.6134 21.6078 -29.5562C21.6078 -31.499 23.1828 -33.074 25.1256 -33.074C27.0685 -33.074 28.6434 -31.499 28.6434 -29.5562Z" fill="white"/>
<path d="M28.6434 -29.5562C28.6434 -27.6134 27.0685 -26.0384 25.1256 -26.0384C23.1828 -26.0384 21.6078 -27.6134 21.6078 -29.5562C21.6078 -31.499 23.1828 -33.074 25.1256 -33.074C27.0685 -33.074 28.6434 -31.499 28.6434 -29.5562Z" fill="url(#paint31_linear_158_84)"/>
<path d="M49.7503 -29.5562C49.7503 -27.6134 48.1753 -26.0384 46.2325 -26.0384C44.2896 -26.0384 42.7147 -27.6134 42.7147 -29.5562C42.7147 -31.499 44.2896 -33.074 46.2325 -33.074C48.1753 -33.074 49.7503 -31.499 49.7503 -29.5562Z" fill="white"/>
<path d="M49.7503 -29.5562C49.7503 -27.6134 48.1753 -26.0384 46.2325 -26.0384C44.2896 -26.0384 42.7147 -27.6134 42.7147 -29.5562C42.7147 -31.499 44.2896 -33.074 46.2325 -33.074C48.1753 -33.074 49.7503 -31.499 49.7503 -29.5562Z" fill="url(#paint32_linear_158_84)"/>
<path d="M70.8571 -29.5562C70.8571 -27.6134 69.2821 -26.0384 67.3393 -26.0384C65.3965 -26.0384 63.8215 -27.6134 63.8215 -29.5562C63.8215 -31.499 65.3965 -33.074 67.3393 -33.074C69.2821 -33.074 70.8571 -31.499 70.8571 -29.5562Z" fill="white"/>
<path d="M70.8571 -29.5562C70.8571 -27.6134 69.2821 -26.0384 67.3393 -26.0384C65.3965 -26.0384 63.8215 -27.6134 63.8215 -29.5562C63.8215 -31.499 65.3965 -33.074 67.3393 -33.074C69.2821 -33.074 70.8571 -31.499 70.8571 -29.5562Z" fill="url(#paint33_linear_158_84)"/>
<path d="M91.964 -29.5562C91.964 -27.6134 90.389 -26.0384 88.4462 -26.0384C86.5033 -26.0384 84.9283 -27.6134 84.9283 -29.5562C84.9283 -31.499 86.5033 -33.074 88.4462 -33.074C90.389 -33.074 91.964 -31.499 91.964 -29.5562Z" fill="white"/>
<path d="M91.964 -29.5562C91.964 -27.6134 90.389 -26.0384 88.4462 -26.0384C86.5033 -26.0384 84.9283 -27.6134 84.9283 -29.5562C84.9283 -31.499 86.5033 -33.074 88.4462 -33.074C90.389 -33.074 91.964 -31.499 91.964 -29.5562Z" fill="url(#paint34_linear_158_84)"/>
<path d="M113.071 -29.5562C113.071 -27.6134 111.496 -26.0384 109.553 -26.0384C107.61 -26.0384 106.035 -27.6134 106.035 -29.5562C106.035 -31.499 107.61 -33.074 109.553 -33.074C111.496 -33.074 113.071 -31.499 113.071 -29.5562Z" fill="white"/>
<path d="M113.071 -29.5562C113.071 -27.6134 111.496 -26.0384 109.553 -26.0384C107.61 -26.0384 106.035 -27.6134 106.035 -29.5562C106.035 -31.499 107.61 -33.074 109.553 -33.074C111.496 -33.074 113.071 -31.499 113.071 -29.5562Z" fill="url(#paint35_linear_158_84)"/>
<path d="M134.178 -29.5562C134.178 -27.6134 132.603 -26.0384 130.66 -26.0384C128.717 -26.0384 127.142 -27.6134 127.142 -29.5562C127.142 -31.499 128.717 -33.074 130.66 -33.074C132.603 -33.074 134.178 -31.499 134.178 -29.5562Z" fill="white"/>
<path d="M134.178 -29.5562C134.178 -27.6134 132.603 -26.0384 130.66 -26.0384C128.717 -26.0384 127.142 -27.6134 127.142 -29.5562C127.142 -31.499 128.717 -33.074 130.66 -33.074C132.603 -33.074 134.178 -31.499 134.178 -29.5562Z" fill="url(#paint36_linear_158_84)"/>
<path d="M155.284 -29.5562C155.284 -27.6134 153.71 -26.0384 151.767 -26.0384C149.824 -26.0384 148.249 -27.6134 148.249 -29.5562C148.249 -31.499 149.824 -33.074 151.767 -33.074C153.71 -33.074 155.284 -31.499 155.284 -29.5562Z" fill="white"/>
<path d="M155.284 -29.5562C155.284 -27.6134 153.71 -26.0384 151.767 -26.0384C149.824 -26.0384 148.249 -27.6134 148.249 -29.5562C148.249 -31.499 149.824 -33.074 151.767 -33.074C153.71 -33.074 155.284 -31.499 155.284 -29.5562Z" fill="url(#paint37_linear_158_84)"/>
<path d="M176.391 -29.5562C176.391 -27.6134 174.816 -26.0384 172.874 -26.0384C170.931 -26.0384 169.356 -27.6134 169.356 -29.5562C169.356 -31.499 170.931 -33.074 172.874 -33.074C174.816 -33.074 176.391 -31.499 176.391 -29.5562Z" fill="white"/>
<path d="M176.391 -29.5562C176.391 -27.6134 174.816 -26.0384 172.874 -26.0384C170.931 -26.0384 169.356 -27.6134 169.356 -29.5562C169.356 -31.499 170.931 -33.074 172.874 -33.074C174.816 -33.074 176.391 -31.499 176.391 -29.5562Z" fill="url(#paint38_linear_158_84)"/>
<path d="M197.498 -29.5562C197.498 -27.6134 195.923 -26.0384 193.98 -26.0384C192.038 -26.0384 190.463 -27.6134 190.463 -29.5562C190.463 -31.499 192.038 -33.074 193.98 -33.074C195.923 -33.074 197.498 -31.499 197.498 -29.5562Z" fill="white"/>
<path d="M197.498 -29.5562C197.498 -27.6134 195.923 -26.0384 193.98 -26.0384C192.038 -26.0384 190.463 -27.6134 190.463 -29.5562C190.463 -31.499 192.038 -33.074 193.98 -33.074C195.923 -33.074 197.498 -31.499 197.498 -29.5562Z" fill="url(#paint39_linear_158_84)"/>
<path d="M7.53659 -8.44936C7.53659 -6.50652 5.96161 -4.93155 4.01878 -4.93155C2.07595 -4.93155 0.500977 -6.50652 0.500977 -8.44936C0.500977 -10.3922 2.07595 -11.9672 4.01878 -11.9672C5.96161 -11.9672 7.53659 -10.3922 7.53659 -8.44936Z" fill="white"/>
<path d="M7.53659 -8.44936C7.53659 -6.50652 5.96161 -4.93155 4.01878 -4.93155C2.07595 -4.93155 0.500977 -6.50652 0.500977 -8.44936C0.500977 -10.3922 2.07595 -11.9672 4.01878 -11.9672C5.96161 -11.9672 7.53659 -10.3922 7.53659 -8.44936Z" fill="url(#paint40_linear_158_84)"/>
<path d="M28.6434 -8.44936C28.6434 -6.50652 27.0685 -4.93155 25.1256 -4.93155C23.1828 -4.93155 21.6078 -6.50652 21.6078 -8.44936C21.6078 -10.3922 23.1828 -11.9672 25.1256 -11.9672C27.0685 -11.9672 28.6434 -10.3922 28.6434 -8.44936Z" fill="white"/>
<path d="M28.6434 -8.44936C28.6434 -6.50652 27.0685 -4.93155 25.1256 -4.93155C23.1828 -4.93155 21.6078 -6.50652 21.6078 -8.44936C21.6078 -10.3922 23.1828 -11.9672 25.1256 -11.9672C27.0685 -11.9672 28.6434 -10.3922 28.6434 -8.44936Z" fill="url(#paint41_linear_158_84)"/>
<path d="M49.7503 -8.44936C49.7503 -6.50652 48.1753 -4.93155 46.2325 -4.93155C44.2896 -4.93155 42.7147 -6.50652 42.7147 -8.44936C42.7147 -10.3922 44.2896 -11.9672 46.2325 -11.9672C48.1753 -11.9672 49.7503 -10.3922 49.7503 -8.44936Z" fill="white"/>
<path d="M49.7503 -8.44936C49.7503 -6.50652 48.1753 -4.93155 46.2325 -4.93155C44.2896 -4.93155 42.7147 -6.50652 42.7147 -8.44936C42.7147 -10.3922 44.2896 -11.9672 46.2325 -11.9672C48.1753 -11.9672 49.7503 -10.3922 49.7503 -8.44936Z" fill="url(#paint42_linear_158_84)"/>
<path d="M70.8571 -8.44936C70.8571 -6.50652 69.2821 -4.93155 67.3393 -4.93155C65.3965 -4.93155 63.8215 -6.50652 63.8215 -8.44936C63.8215 -10.3922 65.3965 -11.9672 67.3393 -11.9672C69.2821 -11.9672 70.8571 -10.3922 70.8571 -8.44936Z" fill="white"/>
<path d="M70.8571 -8.44936C70.8571 -6.50652 69.2821 -4.93155 67.3393 -4.93155C65.3965 -4.93155 63.8215 -6.50652 63.8215 -8.44936C63.8215 -10.3922 65.3965 -11.9672 67.3393 -11.9672C69.2821 -11.9672 70.8571 -10.3922 70.8571 -8.44936Z" fill="url(#paint43_linear_158_84)"/>
<path d="M91.964 -8.44936C91.964 -6.50652 90.389 -4.93155 88.4462 -4.93155C86.5033 -4.93155 84.9283 -6.50652 84.9283 -8.44936C84.9283 -10.3922 86.5033 -11.9672 88.4462 -11.9672C90.389 -11.9672 91.964 -10.3922 91.964 -8.44936Z" fill="white"/>
<path d="M91.964 -8.44936C91.964 -6.50652 90.389 -4.93155 88.4462 -4.93155C86.5033 -4.93155 84.9283 -6.50652 84.9283 -8.44936C84.9283 -10.3922 86.5033 -11.9672 88.4462 -11.9672C90.389 -11.9672 91.964 -10.3922 91.964 -8.44936Z" fill="url(#paint44_linear_158_84)"/>
<path d="M113.071 -8.44936C113.071 -6.50652 111.496 -4.93155 109.553 -4.93155C107.61 -4.93155 106.035 -6.50652 106.035 -8.44936C106.035 -10.3922 107.61 -11.9672 109.553 -11.9672C111.496 -11.9672 113.071 -10.3922 113.071 -8.44936Z" fill="white"/>
<path d="M113.071 -8.44936C113.071 -6.50652 111.496 -4.93155 109.553 -4.93155C107.61 -4.93155 106.035 -6.50652 106.035 -8.44936C106.035 -10.3922 107.61 -11.9672 109.553 -11.9672C111.496 -11.9672 113.071 -10.3922 113.071 -8.44936Z" fill="url(#paint45_linear_158_84)"/>
<path d="M134.178 -8.44936C134.178 -6.50652 132.603 -4.93155 130.66 -4.93155C128.717 -4.93155 127.142 -6.50652 127.142 -8.44936C127.142 -10.3922 128.717 -11.9672 130.66 -11.9672C132.603 -11.9672 134.178 -10.3922 134.178 -8.44936Z" fill="white"/>
<path d="M134.178 -8.44936C134.178 -6.50652 132.603 -4.93155 130.66 -4.93155C128.717 -4.93155 127.142 -6.50652 127.142 -8.44936C127.142 -10.3922 128.717 -11.9672 130.66 -11.9672C132.603 -11.9672 134.178 -10.3922 134.178 -8.44936Z" fill="url(#paint46_linear_158_84)"/>
<path d="M155.284 -8.44936C155.284 -6.50652 153.71 -4.93155 151.767 -4.93155C149.824 -4.93155 148.249 -6.50652 148.249 -8.44936C148.249 -10.3922 149.824 -11.9672 151.767 -11.9672C153.71 -11.9672 155.284 -10.3922 155.284 -8.44936Z" fill="white"/>
<path d="M155.284 -8.44936C155.284 -6.50652 153.71 -4.93155 151.767 -4.93155C149.824 -4.93155 148.249 -6.50652 148.249 -8.44936C148.249 -10.3922 149.824 -11.9672 151.767 -11.9672C153.71 -11.9672 155.284 -10.3922 155.284 -8.44936Z" fill="url(#paint47_linear_158_84)"/>
<path d="M176.391 -8.44936C176.391 -6.50652 174.816 -4.93155 172.874 -4.93155C170.931 -4.93155 169.356 -6.50652 169.356 -8.44936C169.356 -10.3922 170.931 -11.9672 172.874 -11.9672C174.816 -11.9672 176.391 -10.3922 176.391 -8.44936Z" fill="white"/>
<path d="M176.391 -8.44936C176.391 -6.50652 174.816 -4.93155 172.874 -4.93155C170.931 -4.93155 169.356 -6.50652 169.356 -8.44936C169.356 -10.3922 170.931 -11.9672 172.874 -11.9672C174.816 -11.9672 176.391 -10.3922 176.391 -8.44936Z" fill="url(#paint48_linear_158_84)"/>
<path d="M197.498 -8.44936C197.498 -6.50652 195.923 -4.93155 193.98 -4.93155C192.038 -4.93155 190.463 -6.50652 190.463 -8.44936C190.463 -10.3922 192.038 -11.9672 193.98 -11.9672C195.923 -11.9672 197.498 -10.3922 197.498 -8.44936Z" fill="white"/>
<path d="M197.498 -8.44936C197.498 -6.50652 195.923 -4.93155 193.98 -4.93155C192.038 -4.93155 190.463 -6.50652 190.463 -8.44936C190.463 -10.3922 192.038 -11.9672 193.98 -11.9672C195.923 -11.9672 197.498 -10.3922 197.498 -8.44936Z" fill="url(#paint49_linear_158_84)"/>
<path d="M7.53659 12.6575C7.53659 14.6003 5.96161 16.1753 4.01878 16.1753C2.07595 16.1753 0.500977 14.6003 0.500977 12.6575C0.500977 10.7147 2.07595 9.13968 4.01878 9.13968C5.96161 9.13968 7.53659 10.7147 7.53659 12.6575Z" fill="white"/>
<path d="M7.53659 12.6575C7.53659 14.6003 5.96161 16.1753 4.01878 16.1753C2.07595 16.1753 0.500977 14.6003 0.500977 12.6575C0.500977 10.7147 2.07595 9.13968 4.01878 9.13968C5.96161 9.13968 7.53659 10.7147 7.53659 12.6575Z" fill="url(#paint50_linear_158_84)"/>
<path d="M28.6434 12.6575C28.6434 14.6003 27.0685 16.1753 25.1256 16.1753C23.1828 16.1753 21.6078 14.6003 21.6078 12.6575C21.6078 10.7147 23.1828 9.13968 25.1256 9.13968C27.0685 9.13968 28.6434 10.7147 28.6434 12.6575Z" fill="white"/>
<path d="M28.6434 12.6575C28.6434 14.6003 27.0685 16.1753 25.1256 16.1753C23.1828 16.1753 21.6078 14.6003 21.6078 12.6575C21.6078 10.7147 23.1828 9.13968 25.1256 9.13968C27.0685 9.13968 28.6434 10.7147 28.6434 12.6575Z" fill="url(#paint51_linear_158_84)"/>
<path d="M49.7503 12.6575C49.7503 14.6003 48.1753 16.1753 46.2325 16.1753C44.2896 16.1753 42.7147 14.6003 42.7147 12.6575C42.7147 10.7147 44.2896 9.13968 46.2325 9.13968C48.1753 9.13968 49.7503 10.7147 49.7503 12.6575Z" fill="white"/>
<path d="M49.7503 12.6575C49.7503 14.6003 48.1753 16.1753 46.2325 16.1753C44.2896 16.1753 42.7147 14.6003 42.7147 12.6575C42.7147 10.7147 44.2896 9.13968 46.2325 9.13968C48.1753 9.13968 49.7503 10.7147 49.7503 12.6575Z" fill="url(#paint52_linear_158_84)"/>
<path d="M70.8571 12.6575C70.8571 14.6003 69.2821 16.1753 67.3393 16.1753C65.3965 16.1753 63.8215 14.6003 63.8215 12.6575C63.8215 10.7147 65.3965 9.13968 67.3393 9.13968C69.2821 9.13968 70.8571 10.7147 70.8571 12.6575Z" fill="white"/>
<path d="M70.8571 12.6575C70.8571 14.6003 69.2821 16.1753 67.3393 16.1753C65.3965 16.1753 63.8215 14.6003 63.8215 12.6575C63.8215 10.7147 65.3965 9.13968 67.3393 9.13968C69.2821 9.13968 70.8571 10.7147 70.8571 12.6575Z" fill="url(#paint53_linear_158_84)"/>
<path d="M91.964 12.6575C91.964 14.6003 90.389 16.1753 88.4462 16.1753C86.5033 16.1753 84.9283 14.6003 84.9283 12.6575C84.9283 10.7147 86.5033 9.13968 88.4462 9.13968C90.389 9.13968 91.964 10.7147 91.964 12.6575Z" fill="white"/>
<path d="M91.964 12.6575C91.964 14.6003 90.389 16.1753 88.4462 16.1753C86.5033 16.1753 84.9283 14.6003 84.9283 12.6575C84.9283 10.7147 86.5033 9.13968 88.4462 9.13968C90.389 9.13968 91.964 10.7147 91.964 12.6575Z" fill="url(#paint54_linear_158_84)"/>
<path d="M113.071 12.6575C113.071 14.6003 111.496 16.1753 109.553 16.1753C107.61 16.1753 106.035 14.6003 106.035 12.6575C106.035 10.7147 107.61 9.13968 109.553 9.13968C111.496 9.13968 113.071 10.7147 113.071 12.6575Z" fill="white"/>
<path d="M113.071 12.6575C113.071 14.6003 111.496 16.1753 109.553 16.1753C107.61 16.1753 106.035 14.6003 106.035 12.6575C106.035 10.7147 107.61 9.13968 109.553 9.13968C111.496 9.13968 113.071 10.7147 113.071 12.6575Z" fill="url(#paint55_linear_158_84)"/>
<path d="M134.178 12.6575C134.178 14.6003 132.603 16.1753 130.66 16.1753C128.717 16.1753 127.142 14.6003 127.142 12.6575C127.142 10.7147 128.717 9.13968 130.66 9.13968C132.603 9.13968 134.178 10.7147 134.178 12.6575Z" fill="white"/>
<path d="M134.178 12.6575C134.178 14.6003 132.603 16.1753 130.66 16.1753C128.717 16.1753 127.142 14.6003 127.142 12.6575C127.142 10.7147 128.717 9.13968 130.66 9.13968C132.603 9.13968 134.178 10.7147 134.178 12.6575Z" fill="url(#paint56_linear_158_84)"/>
<path d="M155.284 12.6575C155.284 14.6003 153.71 16.1753 151.767 16.1753C149.824 16.1753 148.249 14.6003 148.249 12.6575C148.249 10.7147 149.824 9.13968 151.767 9.13968C153.71 9.13968 155.284 10.7147 155.284 12.6575Z" fill="white"/>
<path d="M155.284 12.6575C155.284 14.6003 153.71 16.1753 151.767 16.1753C149.824 16.1753 148.249 14.6003 148.249 12.6575C148.249 10.7147 149.824 9.13968 151.767 9.13968C153.71 9.13968 155.284 10.7147 155.284 12.6575Z" fill="url(#paint57_linear_158_84)"/>
<path d="M176.391 12.6575C176.391 14.6003 174.816 16.1753 172.874 16.1753C170.931 16.1753 169.356 14.6003 169.356 12.6575C169.356 10.7147 170.931 9.13968 172.874 9.13968C174.816 9.13968 176.391 10.7147 176.391 12.6575Z" fill="white"/>
<path d="M176.391 12.6575C176.391 14.6003 174.816 16.1753 172.874 16.1753C170.931 16.1753 169.356 14.6003 169.356 12.6575C169.356 10.7147 170.931 9.13968 172.874 9.13968C174.816 9.13968 176.391 10.7147 176.391 12.6575Z" fill="url(#paint58_linear_158_84)"/>
<path d="M197.498 12.6575C197.498 14.6003 195.923 16.1753 193.98 16.1753C192.038 16.1753 190.463 14.6003 190.463 12.6575C190.463 10.7147 192.038 9.13968 193.98 9.13968C195.923 9.13968 197.498 10.7147 197.498 12.6575Z" fill="white"/>
<path d="M197.498 12.6575C197.498 14.6003 195.923 16.1753 193.98 16.1753C192.038 16.1753 190.463 14.6003 190.463 12.6575C190.463 10.7147 192.038 9.13968 193.98 9.13968C195.923 9.13968 197.498 10.7147 197.498 12.6575Z" fill="url(#paint59_linear_158_84)"/>
<path d="M7.53659 33.7643C7.53659 35.7072 5.96161 37.2821 4.01878 37.2821C2.07595 37.2821 0.500977 35.7072 0.500977 33.7643C0.500977 31.8215 2.07595 30.2465 4.01878 30.2465C5.96161 30.2465 7.53659 31.8215 7.53659 33.7643Z" fill="white"/>
<path d="M7.53659 33.7643C7.53659 35.7072 5.96161 37.2821 4.01878 37.2821C2.07595 37.2821 0.500977 35.7072 0.500977 33.7643C0.500977 31.8215 2.07595 30.2465 4.01878 30.2465C5.96161 30.2465 7.53659 31.8215 7.53659 33.7643Z" fill="url(#paint60_linear_158_84)"/>
<path d="M28.6434 33.7643C28.6434 35.7072 27.0685 37.2821 25.1256 37.2821C23.1828 37.2821 21.6078 35.7072 21.6078 33.7643C21.6078 31.8215 23.1828 30.2465 25.1256 30.2465C27.0685 30.2465 28.6434 31.8215 28.6434 33.7643Z" fill="white"/>
<path d="M28.6434 33.7643C28.6434 35.7072 27.0685 37.2821 25.1256 37.2821C23.1828 37.2821 21.6078 35.7072 21.6078 33.7643C21.6078 31.8215 23.1828 30.2465 25.1256 30.2465C27.0685 30.2465 28.6434 31.8215 28.6434 33.7643Z" fill="url(#paint61_linear_158_84)"/>
<path d="M49.7503 33.7643C49.7503 35.7072 48.1753 37.2821 46.2325 37.2821C44.2896 37.2821 42.7147 35.7072 42.7147 33.7643C42.7147 31.8215 44.2896 30.2465 46.2325 30.2465C48.1753 30.2465 49.7503 31.8215 49.7503 33.7643Z" fill="white"/>
<path d="M49.7503 33.7643C49.7503 35.7072 48.1753 37.2821 46.2325 37.2821C44.2896 37.2821 42.7147 35.7072 42.7147 33.7643C42.7147 31.8215 44.2896 30.2465 46.2325 30.2465C48.1753 30.2465 49.7503 31.8215 49.7503 33.7643Z" fill="url(#paint62_linear_158_84)"/>
<path d="M70.8571 33.7643C70.8571 35.7072 69.2821 37.2821 67.3393 37.2821C65.3965 37.2821 63.8215 35.7072 63.8215 33.7643C63.8215 31.8215 65.3965 30.2465 67.3393 30.2465C69.2821 30.2465 70.8571 31.8215 70.8571 33.7643Z" fill="white"/>
<path d="M70.8571 33.7643C70.8571 35.7072 69.2821 37.2821 67.3393 37.2821C65.3965 37.2821 63.8215 35.7072 63.8215 33.7643C63.8215 31.8215 65.3965 30.2465 67.3393 30.2465C69.2821 30.2465 70.8571 31.8215 70.8571 33.7643Z" fill="url(#paint63_linear_158_84)"/>
<path d="M91.964 33.7643C91.964 35.7072 90.389 37.2821 88.4462 37.2821C86.5033 37.2821 84.9283 35.7072 84.9283 33.7643C84.9283 31.8215 86.5033 30.2465 88.4462 30.2465C90.389 30.2465 91.964 31.8215 91.964 33.7643Z" fill="white"/>
<path d="M91.964 33.7643C91.964 35.7072 90.389 37.2821 88.4462 37.2821C86.5033 37.2821 84.9283 35.7072 84.9283 33.7643C84.9283 31.8215 86.5033 30.2465 88.4462 30.2465C90.389 30.2465 91.964 31.8215 91.964 33.7643Z" fill="url(#paint64_linear_158_84)"/>
<path d="M113.071 33.7643C113.071 35.7072 111.496 37.2821 109.553 37.2821C107.61 37.2821 106.035 35.7072 106.035 33.7643C106.035 31.8215 107.61 30.2465 109.553 30.2465C111.496 30.2465 113.071 31.8215 113.071 33.7643Z" fill="white"/>
<path d="M113.071 33.7643C113.071 35.7072 111.496 37.2821 109.553 37.2821C107.61 37.2821 106.035 35.7072 106.035 33.7643C106.035 31.8215 107.61 30.2465 109.553 30.2465C111.496 30.2465 113.071 31.8215 113.071 33.7643Z" fill="url(#paint65_linear_158_84)"/>
<path d="M134.178 33.7643C134.178 35.7072 132.603 37.2821 130.66 37.2821C128.717 37.2821 127.142 35.7072 127.142 33.7643C127.142 31.8215 128.717 30.2465 130.66 30.2465C132.603 30.2465 134.178 31.8215 134.178 33.7643Z" fill="white"/>
<path d="M134.178 33.7643C134.178 35.7072 132.603 37.2821 130.66 37.2821C128.717 37.2821 127.142 35.7072 127.142 33.7643C127.142 31.8215 128.717 30.2465 130.66 30.2465C132.603 30.2465 134.178 31.8215 134.178 33.7643Z" fill="url(#paint66_linear_158_84)"/>
<path d="M155.284 33.7643C155.284 35.7072 153.71 37.2821 151.767 37.2821C149.824 37.2821 148.249 35.7072 148.249 33.7643C148.249 31.8215 149.824 30.2465 151.767 30.2465C153.71 30.2465 155.284 31.8215 155.284 33.7643Z" fill="white"/>
<path d="M155.284 33.7643C155.284 35.7072 153.71 37.2821 151.767 37.2821C149.824 37.2821 148.249 35.7072 148.249 33.7643C148.249 31.8215 149.824 30.2465 151.767 30.2465C153.71 30.2465 155.284 31.8215 155.284 33.7643Z" fill="url(#paint67_linear_158_84)"/>
<path d="M176.391 33.7643C176.391 35.7072 174.816 37.2821 172.874 37.2821C170.931 37.2821 169.356 35.7072 169.356 33.7643C169.356 31.8215 170.931 30.2465 172.874 30.2465C174.816 30.2465 176.391 31.8215 176.391 33.7643Z" fill="white"/>
<path d="M176.391 33.7643C176.391 35.7072 174.816 37.2821 172.874 37.2821C170.931 37.2821 169.356 35.7072 169.356 33.7643C169.356 31.8215 170.931 30.2465 172.874 30.2465C174.816 30.2465 176.391 31.8215 176.391 33.7643Z" fill="url(#paint68_linear_158_84)"/>
<path d="M197.498 33.7643C197.498 35.7072 195.923 37.2821 193.98 37.2821C192.038 37.2821 190.463 35.7072 190.463 33.7643C190.463 31.8215 192.038 30.2465 193.98 30.2465C195.923 30.2465 197.498 31.8215 197.498 33.7643Z" fill="white"/>
<path d="M197.498 33.7643C197.498 35.7072 195.923 37.2821 193.98 37.2821C192.038 37.2821 190.463 35.7072 190.463 33.7643C190.463 31.8215 192.038 30.2465 193.98 30.2465C195.923 30.2465 197.498 31.8215 197.498 33.7643Z" fill="url(#paint69_linear_158_84)"/>
<path d="M28.6434 54.8712C28.6434 56.814 27.0685 58.389 25.1256 58.389C23.1828 58.389 21.6078 56.814 21.6078 54.8712C21.6078 52.9283 23.1828 51.3534 25.1256 51.3534C27.0685 51.3534 28.6434 52.9283 28.6434 54.8712Z" fill="white"/>
<path d="M28.6434 54.8712C28.6434 56.814 27.0685 58.389 25.1256 58.389C23.1828 58.389 21.6078 56.814 21.6078 54.8712C21.6078 52.9283 23.1828 51.3534 25.1256 51.3534C27.0685 51.3534 28.6434 52.9283 28.6434 54.8712Z" fill="url(#paint70_linear_158_84)"/>
<path d="M49.7503 54.8712C49.7503 56.814 48.1753 58.389 46.2325 58.389C44.2896 58.389 42.7147 56.814 42.7147 54.8712C42.7147 52.9283 44.2896 51.3534 46.2325 51.3534C48.1753 51.3534 49.7503 52.9283 49.7503 54.8712Z" fill="white"/>
<path d="M49.7503 54.8712C49.7503 56.814 48.1753 58.389 46.2325 58.389C44.2896 58.389 42.7147 56.814 42.7147 54.8712C42.7147 52.9283 44.2896 51.3534 46.2325 51.3534C48.1753 51.3534 49.7503 52.9283 49.7503 54.8712Z" fill="url(#paint71_linear_158_84)"/>
<path d="M70.8571 54.8712C70.8571 56.814 69.2821 58.389 67.3393 58.389C65.3965 58.389 63.8215 56.814 63.8215 54.8712C63.8215 52.9283 65.3965 51.3534 67.3393 51.3534C69.2821 51.3534 70.8571 52.9283 70.8571 54.8712Z" fill="white"/>
<path d="M70.8571 54.8712C70.8571 56.814 69.2821 58.389 67.3393 58.389C65.3965 58.389 63.8215 56.814 63.8215 54.8712C63.8215 52.9283 65.3965 51.3534 67.3393 51.3534C69.2821 51.3534 70.8571 52.9283 70.8571 54.8712Z" fill="url(#paint72_linear_158_84)"/>
<path d="M91.964 54.8712C91.964 56.814 90.389 58.389 88.4462 58.389C86.5033 58.389 84.9283 56.814 84.9283 54.8712C84.9283 52.9283 86.5033 51.3534 88.4462 51.3534C90.389 51.3534 91.964 52.9283 91.964 54.8712Z" fill="white"/>
<path d="M91.964 54.8712C91.964 56.814 90.389 58.389 88.4462 58.389C86.5033 58.389 84.9283 56.814 84.9283 54.8712C84.9283 52.9283 86.5033 51.3534 88.4462 51.3534C90.389 51.3534 91.964 52.9283 91.964 54.8712Z" fill="url(#paint73_linear_158_84)"/>
<path d="M113.071 54.8712C113.071 56.814 111.496 58.389 109.553 58.389C107.61 58.389 106.035 56.814 106.035 54.8712C106.035 52.9283 107.61 51.3534 109.553 51.3534C111.496 51.3534 113.071 52.9283 113.071 54.8712Z" fill="white"/>
<path d="M113.071 54.8712C113.071 56.814 111.496 58.389 109.553 58.389C107.61 58.389 106.035 56.814 106.035 54.8712C106.035 52.9283 107.61 51.3534 109.553 51.3534C111.496 51.3534 113.071 52.9283 113.071 54.8712Z" fill="url(#paint74_linear_158_84)"/>
<path d="M134.178 54.8712C134.178 56.814 132.603 58.389 130.66 58.389C128.717 58.389 127.142 56.814 127.142 54.8712C127.142 52.9283 128.717 51.3534 130.66 51.3534C132.603 51.3534 134.178 52.9283 134.178 54.8712Z" fill="white"/>
<path d="M134.178 54.8712C134.178 56.814 132.603 58.389 130.66 58.389C128.717 58.389 127.142 56.814 127.142 54.8712C127.142 52.9283 128.717 51.3534 130.66 51.3534C132.603 51.3534 134.178 52.9283 134.178 54.8712Z" fill="url(#paint75_linear_158_84)"/>
<path d="M155.284 54.8712C155.284 56.814 153.71 58.389 151.767 58.389C149.824 58.389 148.249 56.814 148.249 54.8712C148.249 52.9283 149.824 51.3534 151.767 51.3534C153.71 51.3534 155.284 52.9283 155.284 54.8712Z" fill="white"/>
<path d="M155.284 54.8712C155.284 56.814 153.71 58.389 151.767 58.389C149.824 58.389 148.249 56.814 148.249 54.8712C148.249 52.9283 149.824 51.3534 151.767 51.3534C153.71 51.3534 155.284 52.9283 155.284 54.8712Z" fill="url(#paint76_linear_158_84)"/>
<path d="M176.391 54.8712C176.391 56.814 174.816 58.389 172.874 58.389C170.931 58.389 169.356 56.814 169.356 54.8712C169.356 52.9283 170.931 51.3534 172.874 51.3534C174.816 51.3534 176.391 52.9283 176.391 54.8712Z" fill="white"/>
<path d="M176.391 54.8712C176.391 56.814 174.816 58.389 172.874 58.389C170.931 58.389 169.356 56.814 169.356 54.8712C169.356 52.9283 170.931 51.3534 172.874 51.3534C174.816 51.3534 176.391 52.9283 176.391 54.8712Z" fill="url(#paint77_linear_158_84)"/>
<path d="M49.7503 75.978C49.7503 77.9208 48.1753 79.4958 46.2325 79.4958C44.2896 79.4958 42.7147 77.9208 42.7147 75.978C42.7147 74.0352 44.2896 72.4602 46.2325 72.4602C48.1753 72.4602 49.7503 74.0352 49.7503 75.978Z" fill="white"/>
<path d="M49.7503 75.978C49.7503 77.9208 48.1753 79.4958 46.2325 79.4958C44.2896 79.4958 42.7147 77.9208 42.7147 75.978C42.7147 74.0352 44.2896 72.4602 46.2325 72.4602C48.1753 72.4602 49.7503 74.0352 49.7503 75.978Z" fill="url(#paint78_linear_158_84)"/>
<path d="M70.8571 75.978C70.8571 77.9208 69.2821 79.4958 67.3393 79.4958C65.3965 79.4958 63.8215 77.9208 63.8215 75.978C63.8215 74.0352 65.3965 72.4602 67.3393 72.4602C69.2821 72.4602 70.8571 74.0352 70.8571 75.978Z" fill="white"/>
<path d="M70.8571 75.978C70.8571 77.9208 69.2821 79.4958 67.3393 79.4958C65.3965 79.4958 63.8215 77.9208 63.8215 75.978C63.8215 74.0352 65.3965 72.4602 67.3393 72.4602C69.2821 72.4602 70.8571 74.0352 70.8571 75.978Z" fill="url(#paint79_linear_158_84)"/>
<path d="M91.964 75.978C91.964 77.9208 90.389 79.4958 88.4462 79.4958C86.5033 79.4958 84.9283 77.9208 84.9283 75.978C84.9283 74.0352 86.5033 72.4602 88.4462 72.4602C90.389 72.4602 91.964 74.0352 91.964 75.978Z" fill="white"/>
<path d="M91.964 75.978C91.964 77.9208 90.389 79.4958 88.4462 79.4958C86.5033 79.4958 84.9283 77.9208 84.9283 75.978C84.9283 74.0352 86.5033 72.4602 88.4462 72.4602C90.389 72.4602 91.964 74.0352 91.964 75.978Z" fill="url(#paint80_linear_158_84)"/>
<path d="M113.071 75.978C113.071 77.9208 111.496 79.4958 109.553 79.4958C107.61 79.4958 106.035 77.9208 106.035 75.978C106.035 74.0352 107.61 72.4602 109.553 72.4602C111.496 72.4602 113.071 74.0352 113.071 75.978Z" fill="white"/>
<path d="M113.071 75.978C113.071 77.9208 111.496 79.4958 109.553 79.4958C107.61 79.4958 106.035 77.9208 106.035 75.978C106.035 74.0352 107.61 72.4602 109.553 72.4602C111.496 72.4602 113.071 74.0352 113.071 75.978Z" fill="url(#paint81_linear_158_84)"/>
<path d="M134.178 75.978C134.178 77.9208 132.603 79.4958 130.66 79.4958C128.717 79.4958 127.142 77.9208 127.142 75.978C127.142 74.0352 128.717 72.4602 130.66 72.4602C132.603 72.4602 134.178 74.0352 134.178 75.978Z" fill="white"/>
<path d="M134.178 75.978C134.178 77.9208 132.603 79.4958 130.66 79.4958C128.717 79.4958 127.142 77.9208 127.142 75.978C127.142 74.0352 128.717 72.4602 130.66 72.4602C132.603 72.4602 134.178 74.0352 134.178 75.978Z" fill="url(#paint82_linear_158_84)"/>
<path d="M155.284 75.978C155.284 77.9208 153.71 79.4958 151.767 79.4958C149.824 79.4958 148.249 77.9208 148.249 75.978C148.249 74.0352 149.824 72.4602 151.767 72.4602C153.71 72.4602 155.284 74.0352 155.284 75.978Z" fill="white"/>
<path d="M155.284 75.978C155.284 77.9208 153.71 79.4958 151.767 79.4958C149.824 79.4958 148.249 77.9208 148.249 75.978C148.249 74.0352 149.824 72.4602 151.767 72.4602C153.71 72.4602 155.284 74.0352 155.284 75.978Z" fill="url(#paint83_linear_158_84)"/>
<path d="M70.8571 97.0849C70.8571 99.0277 69.2821 100.603 67.3393 100.603C65.3965 100.603 63.8215 99.0277 63.8215 97.0849C63.8215 95.142 65.3965 93.567 67.3393 93.567C69.2821 93.567 70.8571 95.142 70.8571 97.0849Z" fill="white"/>
<path d="M70.8571 97.0849C70.8571 99.0277 69.2821 100.603 67.3393 100.603C65.3965 100.603 63.8215 99.0277 63.8215 97.0849C63.8215 95.142 65.3965 93.567 67.3393 93.567C69.2821 93.567 70.8571 95.142 70.8571 97.0849Z" fill="url(#paint84_linear_158_84)"/>
<path d="M91.964 97.0849C91.964 99.0277 90.389 100.603 88.4462 100.603C86.5033 100.603 84.9283 99.0277 84.9283 97.0849C84.9283 95.142 86.5033 93.567 88.4462 93.567C90.389 93.567 91.964 95.142 91.964 97.0849Z" fill="white"/>
<path d="M91.964 97.0849C91.964 99.0277 90.389 100.603 88.4462 100.603C86.5033 100.603 84.9283 99.0277 84.9283 97.0849C84.9283 95.142 86.5033 93.567 88.4462 93.567C90.389 93.567 91.964 95.142 91.964 97.0849Z" fill="url(#paint85_linear_158_84)"/>
<path d="M113.071 97.0849C113.071 99.0277 111.496 100.603 109.553 100.603C107.61 100.603 106.035 99.0277 106.035 97.0849C106.035 95.142 107.61 93.567 109.553 93.567C111.496 93.567 113.071 95.142 113.071 97.0849Z" fill="white"/>
<path d="M113.071 97.0849C113.071 99.0277 111.496 100.603 109.553 100.603C107.61 100.603 106.035 99.0277 106.035 97.0849C106.035 95.142 107.61 93.567 109.553 93.567C111.496 93.567 113.071 95.142 113.071 97.0849Z" fill="url(#paint86_linear_158_84)"/>
<path d="M134.178 97.0849C134.178 99.0277 132.603 100.603 130.66 100.603C128.717 100.603 127.142 99.0277 127.142 97.0849C127.142 95.142 128.717 93.567 130.66 93.567C132.603 93.567 134.178 95.142 134.178 97.0849Z" fill="white"/>
<path d="M134.178 97.0849C134.178 99.0277 132.603 100.603 130.66 100.603C128.717 100.603 127.142 99.0277 127.142 97.0849C127.142 95.142 128.717 93.567 130.66 93.567C132.603 93.567 134.178 95.142 134.178 97.0849Z" fill="url(#paint87_linear_158_84)"/>
<defs>
<linearGradient id="paint0_linear_158_84" x1="-5.99539" y1="-96.3945" x2="250.689" y2="-0.870309" gradientUnits="userSpaceOnUse">
<stop stop-color="#4A89DB"/>
<stop offset="1" stop-color="#39C77B"/>
</linearGradient>
<linearGradient id="paint1_linear_158_84" x1="-5.99539" y1="-96.3945" x2="250.689" y2="-0.870309" gradientUnits="userSpaceOnUse">
<stop stop-color="#4A89DB"/>
<stop offset="1" stop-color="#39C77B"/>
</linearGradient>
<linearGradient id="paint2_linear_158_84" x1="-5.99539" y1="-96.3945" x2="250.689" y2="-0.870309" gradientUnits="userSpaceOnUse">
<stop stop-color="#4A89DB"/>
<stop offset="1" stop-color="#39C77B"/>
</linearGradient>
<linearGradient id="paint3_linear_158_84" x1="-5.99539" y1="-96.3945" x2="250.689" y2="-0.870309" gradientUnits="userSpaceOnUse">
<stop stop-color="#4A89DB"/>
<stop offset="1" stop-color="#39C77B"/>
</linearGradient>
<linearGradient id="paint4_linear_158_84" x1="-5.99539" y1="-96.3945" x2="250.689" y2="-0.870309" gradientUnits="userSpaceOnUse">
<stop stop-color="#4A89DB"/>
<stop offset="1" stop-color="#39C77B"/>
</linearGradient>
<linearGradient id="paint5_linear_158_84" x1="-5.99539" y1="-96.3945" x2="250.689" y2="-0.870309" gradientUnits="userSpaceOnUse">
<stop stop-color="#4A89DB"/>
<stop offset="1" stop-color="#39C77B"/>
</linearGradient>
<linearGradient id="paint6_linear_158_84" x1="-5.99539" y1="-96.3945" x2="250.689" y2="-0.870309" gradientUnits="userSpaceOnUse">
<stop stop-color="#4A89DB"/>
<stop offset="1" stop-color="#39C77B"/>
</linearGradient>
<linearGradient id="paint7_linear_158_84" x1="-5.99539" y1="-96.3945" x2="250.689" y2="-0.870309" gradientUnits="userSpaceOnUse">
<stop stop-color="#4A89DB"/>
<stop offset="1" stop-color="#39C77B"/>
</linearGradient>
<linearGradient id="paint8_linear_158_84" x1="-5.99539" y1="-96.3945" x2="250.689" y2="-0.870309" gradientUnits="userSpaceOnUse">
<stop stop-color="#4A89DB"/>
<stop offset="1" stop-color="#39C77B"/>
</linearGradient>
<linearGradient id="paint9_linear_158_84" x1="-5.99539" y1="-96.3945" x2="250.689" y2="-0.870309" gradientUnits="userSpaceOnUse">
<stop stop-color="#4A89DB"/>
<stop offset="1" stop-color="#39C77B"/>
</linearGradient>
<linearGradient id="paint10_linear_158_84" x1="-5.99539" y1="-96.3945" x2="250.689" y2="-0.870309" gradientUnits="userSpaceOnUse">
<stop stop-color="#4A89DB"/>
<stop offset="1" stop-color="#39C77B"/>
</linearGradient>
<linearGradient id="paint11_linear_158_84" x1="-5.99539" y1="-96.3945" x2="250.689" y2="-0.870309" gradientUnits="userSpaceOnUse">
<stop stop-color="#4A89DB"/>
<stop offset="1" stop-color="#39C77B"/>
</linearGradient>
<linearGradient id="paint12_linear_158_84" x1="-5.99539" y1="-96.3945" x2="250.689" y2="-0.870309" gradientUnits="userSpaceOnUse">
<stop stop-color="#4A89DB"/>
<stop offset="1" stop-color="#39C77B"/>
</linearGradient>
<linearGradient id="paint13_linear_158_84" x1="-5.99539" y1="-96.3945" x2="250.689" y2="-0.870309" gradientUnits="userSpaceOnUse">
<stop stop-color="#4A89DB"/>
<stop offset="1" stop-color="#39C77B"/>
</linearGradient>
<linearGradient id="paint14_linear_158_84" x1="-5.99539" y1="-96.3945" x2="250.689" y2="-0.870309" gradientUnits="userSpaceOnUse">
<stop stop-color="#4A89DB"/>
<stop offset="1" stop-color="#39C77B"/>
</linearGradient>
<linearGradient id="paint15_linear_158_84" x1="-5.99539" y1="-96.3945" x2="250.689" y2="-0.870309" gradientUnits="userSpaceOnUse">
<stop stop-color="#4A89DB"/>
<stop offset="1" stop-color="#39C77B"/>
</linearGradient>
<linearGradient id="paint16_linear_158_84" x1="-5.99539" y1="-96.3945" x2="250.689" y2="-0.870309" gradientUnits="userSpaceOnUse">
<stop stop-color="#4A89DB"/>
<stop offset="1" stop-color="#39C77B"/>
</linearGradient>
<linearGradient id="paint17_linear_158_84" x1="-5.99539" y1="-96.3945" x2="250.689" y2="-0.870309" gradientUnits="userSpaceOnUse">
<stop stop-color="#4A89DB"/>
<stop offset="1" stop-color="#39C77B"/>
</linearGradient>
<linearGradient id="paint18_linear_158_84" x1="-5.99539" y1="-96.3945" x2="250.689" y2="-0.870309" gradientUnits="userSpaceOnUse">
<stop stop-color="#4A89DB"/>
<stop offset="1" stop-color="#39C77B"/>
</linearGradient>
<linearGradient id="paint19_linear_158_84" x1="-5.99539" y1="-96.3945" x2="250.689" y2="-0.870309" gradientUnits="userSpaceOnUse">
<stop stop-color="#4A89DB"/>
<stop offset="1" stop-color="#39C77B"/>
</linearGradient>
<linearGradient id="paint20_linear_158_84" x1="-5.99539" y1="-96.3945" x2="250.689" y2="-0.870309" gradientUnits="userSpaceOnUse">
<stop stop-color="#4A89DB"/>
<stop offset="1" stop-color="#39C77B"/>
</linearGradient>
<linearGradient id="paint21_linear_158_84" x1="-5.99539" y1="-96.3945" x2="250.689" y2="-0.870309" gradientUnits="userSpaceOnUse">
<stop stop-color="#4A89DB"/>
<stop offset="1" stop-color="#39C77B"/>
</linearGradient>
<linearGradient id="paint22_linear_158_84" x1="-5.99539" y1="-96.3945" x2="250.689" y2="-0.870309" gradientUnits="userSpaceOnUse">
<stop stop-color="#4A89DB"/>
<stop offset="1" stop-color="#39C77B"/>
</linearGradient>
<linearGradient id="paint23_linear_158_84" x1="-5.99539" y1="-96.3945" x2="250.689" y2="-0.870309" gradientUnits="userSpaceOnUse">
<stop stop-color="#4A89DB"/>
<stop offset="1" stop-color="#39C77B"/>
</linearGradient>
<linearGradient id="paint24_linear_158_84" x1="-5.99539" y1="-96.3945" x2="250.689" y2="-0.870309" gradientUnits="userSpaceOnUse">
<stop stop-color="#4A89DB"/>
<stop offset="1" stop-color="#39C77B"/>
</linearGradient>
<linearGradient id="paint25_linear_158_84" x1="-5.99539" y1="-96.3945" x2="250.689" y2="-0.870309" gradientUnits="userSpaceOnUse">
<stop stop-color="#4A89DB"/>
<stop offset="1" stop-color="#39C77B"/>
</linearGradient>
<linearGradient id="paint26_linear_158_84" x1="-5.99539" y1="-96.3945" x2="250.689" y2="-0.870309" gradientUnits="userSpaceOnUse">
<stop stop-color="#4A89DB"/>
<stop offset="1" stop-color="#39C77B"/>
</linearGradient>
<linearGradient id="paint27_linear_158_84" x1="-5.99539" y1="-96.3945" x2="250.689" y2="-0.870309" gradientUnits="userSpaceOnUse">
<stop stop-color="#4A89DB"/>
<stop offset="1" stop-color="#39C77B"/>
</linearGradient>
<linearGradient id="paint28_linear_158_84" x1="-5.99539" y1="-96.3945" x2="250.689" y2="-0.870309" gradientUnits="userSpaceOnUse">
<stop stop-color="#4A89DB"/>
<stop offset="1" stop-color="#39C77B"/>
</linearGradient>
<linearGradient id="paint29_linear_158_84" x1="-5.99539" y1="-96.3945" x2="250.689" y2="-0.870309" gradientUnits="userSpaceOnUse">
<stop stop-color="#4A89DB"/>
<stop offset="1" stop-color="#39C77B"/>
</linearGradient>
<linearGradient id="paint30_linear_158_84" x1="-5.99539" y1="-96.3945" x2="250.689" y2="-0.870309" gradientUnits="userSpaceOnUse">
<stop stop-color="#4A89DB"/>
<stop offset="1" stop-color="#39C77B"/>
</linearGradient>
<linearGradient id="paint31_linear_158_84" x1="-5.99539" y1="-96.3945" x2="250.689" y2="-0.870309" gradientUnits="userSpaceOnUse">
<stop stop-color="#4A89DB"/>
<stop offset="1" stop-color="#39C77B"/>
</linearGradient>
<linearGradient id="paint32_linear_158_84" x1="-5.99539" y1="-96.3945" x2="250.689" y2="-0.870309" gradientUnits="userSpaceOnUse">
<stop stop-color="#4A89DB"/>
<stop offset="1" stop-color="#39C77B"/>
</linearGradient>
<linearGradient id="paint33_linear_158_84" x1="-5.99539" y1="-96.3945" x2="250.689" y2="-0.870309" gradientUnits="userSpaceOnUse">
<stop stop-color="#4A89DB"/>
<stop offset="1" stop-color="#39C77B"/>
</linearGradient>
<linearGradient id="paint34_linear_158_84" x1="-5.99539" y1="-96.3945" x2="250.689" y2="-0.870309" gradientUnits="userSpaceOnUse">
<stop stop-color="#4A89DB"/>
<stop offset="1" stop-color="#39C77B"/>
</linearGradient>
<linearGradient id="paint35_linear_158_84" x1="-5.99539" y1="-96.3945" x2="250.689" y2="-0.870309" gradientUnits="userSpaceOnUse">
<stop stop-color="#4A89DB"/>
<stop offset="1" stop-color="#39C77B"/>
</linearGradient>
<linearGradient id="paint36_linear_158_84" x1="-5.99539" y1="-96.3945" x2="250.689" y2="-0.870309" gradientUnits="userSpaceOnUse">
<stop stop-color="#4A89DB"/>
<stop offset="1" stop-color="#39C77B"/>
</linearGradient>
<linearGradient id="paint37_linear_158_84" x1="-5.99539" y1="-96.3945" x2="250.689" y2="-0.870309" gradientUnits="userSpaceOnUse">
<stop stop-color="#4A89DB"/>
<stop offset="1" stop-color="#39C77B"/>
</linearGradient>
<linearGradient id="paint38_linear_158_84" x1="-5.99539" y1="-96.3945" x2="250.689" y2="-0.870309" gradientUnits="userSpaceOnUse">
<stop stop-color="#4A89DB"/>
<stop offset="1" stop-color="#39C77B"/>
</linearGradient>
<linearGradient id="paint39_linear_158_84" x1="-5.99539" y1="-96.3945" x2="250.689" y2="-0.870309" gradientUnits="userSpaceOnUse">
<stop stop-color="#4A89DB"/>
<stop offset="1" stop-color="#39C77B"/>
</linearGradient>
<linearGradient id="paint40_linear_158_84" x1="-5.99539" y1="-96.3945" x2="250.689" y2="-0.870309" gradientUnits="userSpaceOnUse">
<stop stop-color="#4A89DB"/>
<stop offset="1" stop-color="#39C77B"/>
</linearGradient>
<linearGradient id="paint41_linear_158_84" x1="-5.99539" y1="-96.3945" x2="250.689" y2="-0.870309" gradientUnits="userSpaceOnUse">
<stop stop-color="#4A89DB"/>
<stop offset="1" stop-color="#39C77B"/>
</linearGradient>
<linearGradient id="paint42_linear_158_84" x1="-5.99539" y1="-96.3945" x2="250.689" y2="-0.870309" gradientUnits="userSpaceOnUse">
<stop stop-color="#4A89DB"/>
<stop offset="1" stop-color="#39C77B"/>
</linearGradient>
<linearGradient id="paint43_linear_158_84" x1="-5.99539" y1="-96.3945" x2="250.689" y2="-0.870309" gradientUnits="userSpaceOnUse">
<stop stop-color="#4A89DB"/>
<stop offset="1" stop-color="#39C77B"/>
</linearGradient>
<linearGradient id="paint44_linear_158_84" x1="-5.99539" y1="-96.3945" x2="250.689" y2="-0.870309" gradientUnits="userSpaceOnUse">
<stop stop-color="#4A89DB"/>
<stop offset="1" stop-color="#39C77B"/>
</linearGradient>
<linearGradient id="paint45_linear_158_84" x1="-5.99539" y1="-96.3945" x2="250.689" y2="-0.870309" gradientUnits="userSpaceOnUse">
<stop stop-color="#4A89DB"/>
<stop offset="1" stop-color="#39C77B"/>
</linearGradient>
<linearGradient id="paint46_linear_158_84" x1="-5.99539" y1="-96.3945" x2="250.689" y2="-0.870309" gradientUnits="userSpaceOnUse">
<stop stop-color="#4A89DB"/>
<stop offset="1" stop-color="#39C77B"/>
</linearGradient>
<linearGradient id="paint47_linear_158_84" x1="-5.99539" y1="-96.3945" x2="250.689" y2="-0.870309" gradientUnits="userSpaceOnUse">
<stop stop-color="#4A89DB"/>
<stop offset="1" stop-color="#39C77B"/>
</linearGradient>
<linearGradient id="paint48_linear_158_84" x1="-5.99539" y1="-96.3945" x2="250.689" y2="-0.870309" gradientUnits="userSpaceOnUse">
<stop stop-color="#4A89DB"/>
<stop offset="1" stop-color="#39C77B"/>
</linearGradient>
<linearGradient id="paint49_linear_158_84" x1="-5.99539" y1="-96.3945" x2="250.689" y2="-0.870309" gradientUnits="userSpaceOnUse">
<stop stop-color="#4A89DB"/>
<stop offset="1" stop-color="#39C77B"/>
</linearGradient>
<linearGradient id="paint50_linear_158_84" x1="-5.99539" y1="-96.3945" x2="250.689" y2="-0.870309" gradientUnits="userSpaceOnUse">
<stop stop-color="#4A89DB"/>
<stop offset="1" stop-color="#39C77B"/>
</linearGradient>
<linearGradient id="paint51_linear_158_84" x1="-5.99539" y1="-96.3945" x2="250.689" y2="-0.870309" gradientUnits="userSpaceOnUse">
<stop stop-color="#4A89DB"/>
<stop offset="1" stop-color="#39C77B"/>
</linearGradient>
<linearGradient id="paint52_linear_158_84" x1="-5.99539" y1="-96.3945" x2="250.689" y2="-0.870309" gradientUnits="userSpaceOnUse">
<stop stop-color="#4A89DB"/>
<stop offset="1" stop-color="#39C77B"/>
</linearGradient>
<linearGradient id="paint53_linear_158_84" x1="-5.99539" y1="-96.3945" x2="250.689" y2="-0.870309" gradientUnits="userSpaceOnUse">
<stop stop-color="#4A89DB"/>
<stop offset="1" stop-color="#39C77B"/>
</linearGradient>
<linearGradient id="paint54_linear_158_84" x1="-5.99539" y1="-96.3945" x2="250.689" y2="-0.870309" gradientUnits="userSpaceOnUse">
<stop stop-color="#4A89DB"/>
<stop offset="1" stop-color="#39C77B"/>
</linearGradient>
<linearGradient id="paint55_linear_158_84" x1="-5.99539" y1="-96.3945" x2="250.689" y2="-0.870309" gradientUnits="userSpaceOnUse">
<stop stop-color="#4A89DB"/>
<stop offset="1" stop-color="#39C77B"/>
</linearGradient>
<linearGradient id="paint56_linear_158_84" x1="-5.99539" y1="-96.3945" x2="250.689" y2="-0.870309" gradientUnits="userSpaceOnUse">
<stop stop-color="#4A89DB"/>
<stop offset="1" stop-color="#39C77B"/>
</linearGradient>
<linearGradient id="paint57_linear_158_84" x1="-5.99539" y1="-96.3945" x2="250.689" y2="-0.870309" gradientUnits="userSpaceOnUse">
<stop stop-color="#4A89DB"/>
<stop offset="1" stop-color="#39C77B"/>
</linearGradient>
<linearGradient id="paint58_linear_158_84" x1="-5.99539" y1="-96.3945" x2="250.689" y2="-0.870309" gradientUnits="userSpaceOnUse">
<stop stop-color="#4A89DB"/>
<stop offset="1" stop-color="#39C77B"/>
</linearGradient>
<linearGradient id="paint59_linear_158_84" x1="-5.99539" y1="-96.3945" x2="250.689" y2="-0.870309" gradientUnits="userSpaceOnUse">
<stop stop-color="#4A89DB"/>
<stop offset="1" stop-color="#39C77B"/>
</linearGradient>
<linearGradient id="paint60_linear_158_84" x1="-5.99539" y1="-96.3945" x2="250.689" y2="-0.870309" gradientUnits="userSpaceOnUse">
<stop stop-color="#4A89DB"/>
<stop offset="1" stop-color="#39C77B"/>
</linearGradient>
<linearGradient id="paint61_linear_158_84" x1="-5.99539" y1="-96.3945" x2="250.689" y2="-0.870309" gradientUnits="userSpaceOnUse">
<stop stop-color="#4A89DB"/>
<stop offset="1" stop-color="#39C77B"/>
</linearGradient>
<linearGradient id="paint62_linear_158_84" x1="-5.99539" y1="-96.3945" x2="250.689" y2="-0.870309" gradientUnits="userSpaceOnUse">
<stop stop-color="#4A89DB"/>
<stop offset="1" stop-color="#39C77B"/>
</linearGradient>
<linearGradient id="paint63_linear_158_84" x1="-5.99539" y1="-96.3945" x2="250.689" y2="-0.870309" gradientUnits="userSpaceOnUse">
<stop stop-color="#4A89DB"/>
<stop offset="1" stop-color="#39C77B"/>
</linearGradient>
<linearGradient id="paint64_linear_158_84" x1="-5.99539" y1="-96.3945" x2="250.689" y2="-0.870309" gradientUnits="userSpaceOnUse">
<stop stop-color="#4A89DB"/>
<stop offset="1" stop-color="#39C77B"/>
</linearGradient>
<linearGradient id="paint65_linear_158_84" x1="-5.99539" y1="-96.3945" x2="250.689" y2="-0.870309" gradientUnits="userSpaceOnUse">
<stop stop-color="#4A89DB"/>
<stop offset="1" stop-color="#39C77B"/>
</linearGradient>
<linearGradient id="paint66_linear_158_84" x1="-5.99539" y1="-96.3945" x2="250.689" y2="-0.870309" gradientUnits="userSpaceOnUse">
<stop stop-color="#4A89DB"/>
<stop offset="1" stop-color="#39C77B"/>
</linearGradient>
<linearGradient id="paint67_linear_158_84" x1="-5.99539" y1="-96.3945" x2="250.689" y2="-0.870309" gradientUnits="userSpaceOnUse">
<stop stop-color="#4A89DB"/>
<stop offset="1" stop-color="#39C77B"/>
</linearGradient>
<linearGradient id="paint68_linear_158_84" x1="-5.99539" y1="-96.3945" x2="250.689" y2="-0.870309" gradientUnits="userSpaceOnUse">
<stop stop-color="#4A89DB"/>
<stop offset="1" stop-color="#39C77B"/>
</linearGradient>
<linearGradient id="paint69_linear_158_84" x1="-5.99539" y1="-96.3945" x2="250.689" y2="-0.870309" gradientUnits="userSpaceOnUse">
<stop stop-color="#4A89DB"/>
<stop offset="1" stop-color="#39C77B"/>
</linearGradient>
<linearGradient id="paint70_linear_158_84" x1="-5.99539" y1="-96.3945" x2="250.689" y2="-0.870309" gradientUnits="userSpaceOnUse">
<stop stop-color="#4A89DB"/>
<stop offset="1" stop-color="#39C77B"/>
</linearGradient>
<linearGradient id="paint71_linear_158_84" x1="-5.99539" y1="-96.3945" x2="250.689" y2="-0.870309" gradientUnits="userSpaceOnUse">
<stop stop-color="#4A89DB"/>
<stop offset="1" stop-color="#39C77B"/>
</linearGradient>
<linearGradient id="paint72_linear_158_84" x1="-5.99539" y1="-96.3945" x2="250.689" y2="-0.870309" gradientUnits="userSpaceOnUse">
<stop stop-color="#4A89DB"/>
<stop offset="1" stop-color="#39C77B"/>
</linearGradient>
<linearGradient id="paint73_linear_158_84" x1="-5.99539" y1="-96.3945" x2="250.689" y2="-0.870309" gradientUnits="userSpaceOnUse">
<stop stop-color="#4A89DB"/>
<stop offset="1" stop-color="#39C77B"/>
</linearGradient>
<linearGradient id="paint74_linear_158_84" x1="-5.99539" y1="-96.3945" x2="250.689" y2="-0.870309" gradientUnits="userSpaceOnUse">
<stop stop-color="#4A89DB"/>
<stop offset="1" stop-color="#39C77B"/>
</linearGradient>
<linearGradient id="paint75_linear_158_84" x1="-5.99539" y1="-96.3945" x2="250.689" y2="-0.870309" gradientUnits="userSpaceOnUse">
<stop stop-color="#4A89DB"/>
<stop offset="1" stop-color="#39C77B"/>
</linearGradient>
<linearGradient id="paint76_linear_158_84" x1="-5.99539" y1="-96.3945" x2="250.689" y2="-0.870309" gradientUnits="userSpaceOnUse">
<stop stop-color="#4A89DB"/>
<stop offset="1" stop-color="#39C77B"/>
</linearGradient>
<linearGradient id="paint77_linear_158_84" x1="-5.99539" y1="-96.3945" x2="250.689" y2="-0.870309" gradientUnits="userSpaceOnUse">
<stop stop-color="#4A89DB"/>
<stop offset="1" stop-color="#39C77B"/>
</linearGradient>
<linearGradient id="paint78_linear_158_84" x1="-5.99539" y1="-96.3945" x2="250.689" y2="-0.870309" gradientUnits="userSpaceOnUse">
<stop stop-color="#4A89DB"/>
<stop offset="1" stop-color="#39C77B"/>
</linearGradient>
<linearGradient id="paint79_linear_158_84" x1="-5.99539" y1="-96.3945" x2="250.689" y2="-0.870309" gradientUnits="userSpaceOnUse">
<stop stop-color="#4A89DB"/>
<stop offset="1" stop-color="#39C77B"/>
</linearGradient>
<linearGradient id="paint80_linear_158_84" x1="-5.99539" y1="-96.3945" x2="250.689" y2="-0.870309" gradientUnits="userSpaceOnUse">
<stop stop-color="#4A89DB"/>
<stop offset="1" stop-color="#39C77B"/>
</linearGradient>
<linearGradient id="paint81_linear_158_84" x1="-5.99539" y1="-96.3945" x2="250.689" y2="-0.870309" gradientUnits="userSpaceOnUse">
<stop stop-color="#4A89DB"/>
<stop offset="1" stop-color="#39C77B"/>
</linearGradient>
<linearGradient id="paint82_linear_158_84" x1="-5.99539" y1="-96.3945" x2="250.689" y2="-0.870309" gradientUnits="userSpaceOnUse">
<stop stop-color="#4A89DB"/>
<stop offset="1" stop-color="#39C77B"/>
</linearGradient>
<linearGradient id="paint83_linear_158_84" x1="-5.99539" y1="-96.3945" x2="250.689" y2="-0.870309" gradientUnits="userSpaceOnUse">
<stop stop-color="#4A89DB"/>
<stop offset="1" stop-color="#39C77B"/>
</linearGradient>
<linearGradient id="paint84_linear_158_84" x1="-5.99539" y1="-96.3945" x2="250.689" y2="-0.870309" gradientUnits="userSpaceOnUse">
<stop stop-color="#4A89DB"/>
<stop offset="1" stop-color="#39C77B"/>
</linearGradient>
<linearGradient id="paint85_linear_158_84" x1="-5.99539" y1="-96.3945" x2="250.689" y2="-0.870309" gradientUnits="userSpaceOnUse">
<stop stop-color="#4A89DB"/>
<stop offset="1" stop-color="#39C77B"/>
</linearGradient>
<linearGradient id="paint86_linear_158_84" x1="-5.99539" y1="-96.3945" x2="250.689" y2="-0.870309" gradientUnits="userSpaceOnUse">
<stop stop-color="#4A89DB"/>
<stop offset="1" stop-color="#39C77B"/>
</linearGradient>
<linearGradient id="paint87_linear_158_84" x1="-5.99539" y1="-96.3945" x2="250.689" y2="-0.870309" gradientUnits="userSpaceOnUse">
<stop stop-color="#4A89DB"/>
<stop offset="1" stop-color="#39C77B"/>
</linearGradient>
</defs>
</svg>
