<svg version="1.1" id="Layer_1" xmlns="http://www.w3.org/2000/svg" xmlns:xlink="http://www.w3.org/1999/xlink" x="0px" y="0px"
	 width="100%" viewBox="0 0 324 306" enable-background="new 0 0 324 306" xml:space="preserve">
<path fill="#FFFFFF" opacity="1.000000" stroke="none" 
	d="
M289.000000,307.000000 
	C193.034958,307.000000 97.069916,307.000000 1.052434,307.000000 
	C1.052434,205.072113 1.052434,103.144203 1.052434,1.108145 
	C108.888481,1.108145 216.777115,1.108145 325.000000,1.108145 
	C325.000000,94.687294 325.000000,188.374985 324.637146,282.568604 
	C323.169922,284.594055 321.643433,285.962555 321.036011,287.659943 
	C318.701508,294.183380 320.195679,300.622589 322.000000,307.000000 
	C319.629425,307.000000 317.258881,307.000000 314.404327,306.633057 
	C308.569855,300.984558 302.044067,301.221283 295.534546,302.853455 
	C293.159149,303.449066 291.166992,305.573181 289.000000,307.000000 
M44.027065,247.720612 
	C47.447540,252.238037 50.868015,256.755463 54.665119,261.866119 
	C65.213615,272.475281 78.263039,276.822998 92.911087,276.858582 
	C123.712265,276.933411 154.513779,276.903473 185.315109,276.872498 
	C202.128128,276.855591 218.958694,277.204102 235.748962,276.552856 
	C252.206726,275.914520 265.708435,268.826263 276.030853,254.947525 
	C282.687805,246.442093 286.049530,236.783112 286.310730,225.213058 
	C286.267548,223.917633 286.224335,222.622223 286.549988,220.550629 
	C286.606995,213.115952 286.754181,205.680603 286.698944,198.246765 
	C286.624176,188.182571 286.394043,178.119537 286.581116,167.164307 
	C286.470367,159.129059 286.359589,151.093826 286.599701,142.165512 
	C286.490662,134.112854 286.381653,126.060188 286.596771,117.128113 
	C286.541595,108.131142 286.486389,99.134163 286.747223,89.222008 
	C285.900696,82.134651 285.054169,75.047302 284.079071,67.151833 
	C281.667236,55.097317 275.132935,45.852699 264.627228,38.493317 
	C255.911621,31.793539 245.898758,28.212421 235.068085,28.159559 
	C186.755264,27.923767 138.440704,28.015375 90.126884,28.076084 
	C86.664658,28.080437 82.938034,28.098404 79.797729,29.310528 
	C73.586128,31.708138 67.698936,34.946159 61.011948,37.922813 
	C51.314735,43.853340 45.471363,52.845997 40.813023,63.706928 
	C37.412819,72.225853 37.760521,81.129921 38.037811,90.964531 
	C38.078896,100.313103 38.119984,109.661674 38.045830,119.940041 
	C38.084686,127.963387 38.123543,135.986740 38.045010,144.939606 
	C38.085804,152.296555 38.126602,159.653488 38.047428,167.939194 
	C38.087795,174.961914 38.128159,181.984619 38.044220,189.936279 
	C38.082630,196.625534 38.121040,203.314804 38.033566,210.932983 
	C38.278614,217.286179 38.523666,223.639389 38.472752,230.725250 
	C40.294209,236.150208 42.115665,241.575150 44.027065,247.720612 
z"/>
<path fill="#F1F1F1" opacity="1.000000" stroke="none" 
	d="
M322.500000,307.000000 
	C320.195679,300.622589 318.701508,294.183380 321.036011,287.659943 
	C321.643433,285.962555 323.169922,284.594055 324.637146,283.037231 
	C325.000000,290.333344 325.052490,297.667664 324.912933,304.998352 
	C324.899994,305.677460 323.666656,306.333344 322.500000,307.000000 
z"/>
<path fill="#F1F1F1" opacity="1.000000" stroke="none" 
	d="
M289.468628,307.000000 
	C291.166992,305.573181 293.159149,303.449066 295.534546,302.853455 
	C302.044067,301.221283 308.569855,300.984558 313.960175,306.633057 
	C305.979095,307.000000 297.958191,307.000000 289.468628,307.000000 
z"/>
<path fill="#735DDA" opacity="1.000000" stroke="none" 
	d="
M275.451294,255.217682 
	C265.708435,268.826263 252.206726,275.914520 235.748962,276.552856 
	C218.958694,277.204102 202.128128,276.855591 185.315109,276.872498 
	C154.513779,276.903473 123.712265,276.933411 92.911087,276.858582 
	C78.263039,276.822998 65.213615,272.475281 54.925510,261.477753 
	C57.524960,260.233856 59.864017,259.378326 62.507988,258.701904 
	C71.771385,266.390015 82.383316,268.953217 93.746269,268.965942 
	C138.399384,269.015869 183.053452,268.828888 227.705307,269.071045 
	C243.489594,269.156647 257.111694,264.766205 268.274475,253.315063 
	C270.843140,254.132797 273.147217,254.675247 275.451294,255.217682 
z"/>
<path fill="#97C4D1" opacity="1.000000" stroke="none" 
	d="
M61.677624,37.836731 
	C67.698936,34.946159 73.586128,31.708138 79.797729,29.310528 
	C82.938034,28.098404 86.664658,28.080437 90.126884,28.076084 
	C138.440704,28.015375 186.755264,27.923767 235.068085,28.159559 
	C245.898758,28.212421 255.911621,31.793539 264.606262,39.115860 
	C262.029907,40.568481 259.474518,41.398560 256.568176,42.126610 
	C247.649628,37.492546 238.556335,35.800751 228.843796,35.847706 
	C188.535156,36.042603 148.224945,35.976059 107.915512,35.901894 
	C95.441216,35.878944 82.940941,35.294193 70.790337,39.820221 
	C67.586716,38.955921 64.632172,38.396324 61.677624,37.836731 
z"/>
<path fill="#95BCD2" opacity="1.000000" stroke="none" 
	d="
M256.919098,42.228638 
	C259.474518,41.398560 262.029907,40.568481 264.769470,39.415489 
	C275.132935,45.852699 281.667236,55.097317 283.679657,67.571953 
	C281.145142,68.008614 279.010010,68.025162 276.654236,67.776978 
	C273.042725,56.680939 265.787109,48.832535 256.919098,42.228638 
z"/>
<path fill="#95BDD1" opacity="1.000000" stroke="none" 
	d="
M61.344788,37.879772 
	C64.632172,38.396324 67.586716,38.955921 70.623886,40.107590 
	C60.878979,46.057827 53.869915,54.045956 48.554131,64.002113 
	C45.790714,63.669998 43.439186,63.334229 41.087662,62.998463 
	C45.471363,52.845997 51.314735,43.853340 61.344788,37.879772 
z"/>
<path fill="#7869D9" opacity="1.000000" stroke="none" 
	d="
M275.741089,255.082611 
	C273.147217,254.675247 270.843140,254.132797 268.372986,252.983765 
	C269.427643,250.598251 271.063995,248.974075 271.794098,247.012558 
	C274.376770,240.073914 276.649475,233.019882 279.481720,226.006195 
	C282.005310,225.998169 284.086853,225.993530 286.168396,225.988892 
	C286.049530,236.783112 282.687805,246.442093 275.741089,255.082611 
z"/>
<path fill="#7D80D5" opacity="1.000000" stroke="none" 
	d="
M286.230530,168.056000 
	C286.394043,178.119537 286.624176,188.182571 286.698944,198.246765 
	C286.754181,205.680603 286.606995,213.115952 286.297607,220.443512 
	C286.045258,211.674072 286.045258,203.011749 286.045258,194.011444 
	C283.101349,194.011444 281.134735,194.011444 279.098877,193.546280 
	C279.075012,184.723663 279.120422,176.366226 279.573364,168.006042 
	C282.064117,168.020874 284.147308,168.038437 286.230530,168.056000 
z"/>
<path fill="#88A1D2" opacity="1.000000" stroke="none" 
	d="
M38.161068,119.010246 
	C38.119984,109.661674 38.078896,100.313103 38.484268,90.480354 
	C41.122715,90.009644 43.314701,90.023102 45.590435,90.497498 
	C45.611420,100.309357 45.548660,109.660294 45.080910,119.009300 
	C42.504307,119.008324 40.332687,119.009285 38.161068,119.010246 
z"/>
<path fill="#7973D6" opacity="1.000000" stroke="none" 
	d="
M279.168152,194.011444 
	C281.134735,194.011444 283.101349,194.011444 286.045258,194.011444 
	C286.045258,203.011749 286.045258,211.674072 286.113190,220.831589 
	C286.224335,222.622223 286.267548,223.917633 286.239563,225.600983 
	C284.086853,225.993530 282.005310,225.998169 279.412720,225.540909 
	C278.990479,214.723160 279.079315,204.367294 279.168152,194.011444 
z"/>
<path fill="#88A1D2" opacity="1.000000" stroke="none" 
	d="
M286.431183,90.137192 
	C286.486389,99.134163 286.541595,108.131142 286.063904,117.567841 
	C283.407928,118.008514 281.284821,118.009476 279.096924,117.544670 
	C279.056396,108.063667 279.080719,99.048416 279.525208,90.014526 
	C282.107361,90.042984 284.269257,90.090088 286.431183,90.137192 
z"/>
<path fill="#A1B7DA" opacity="1.000000" stroke="none" 
	d="
M45.506691,90.036568 
	C43.314701,90.023102 41.122715,90.009644 38.519142,90.015053 
	C37.760521,81.129921 37.412819,72.225853 40.950340,63.352695 
	C43.439186,63.334229 45.790714,63.669998 48.531345,64.395645 
	C47.782532,73.202538 46.644611,81.619553 45.506691,90.036568 
z"/>
<path fill="#7D80D5" opacity="1.000000" stroke="none" 
	d="
M38.168526,189.007339 
	C38.128159,181.984619 38.087795,174.961914 38.514595,167.471588 
	C41.148758,167.005997 43.315750,167.008026 45.549759,167.473068 
	C45.572117,184.294174 45.527466,200.652267 45.324749,216.660446 
	C45.069267,214.213013 44.971848,212.115463 44.913483,209.548843 
	C44.952541,202.293671 44.952541,195.507568 44.952541,188.570984 
	C42.382870,188.736267 40.275696,188.871811 38.168526,189.007339 
z"/>
<path fill="#8496D3" opacity="1.000000" stroke="none" 
	d="
M38.103447,119.475143 
	C40.332687,119.009285 42.504307,119.008324 45.161125,119.470642 
	C45.592228,127.959618 45.538136,135.985321 45.079407,144.009338 
	C42.503975,144.008469 40.333187,144.009277 38.162399,144.010086 
	C38.123543,135.986740 38.084686,127.963387 38.103447,119.475143 
z"/>
<path fill="#808AD4" opacity="1.000000" stroke="none" 
	d="
M286.405823,167.610153 
	C284.147308,168.038437 282.064117,168.020874 279.506287,167.540802 
	C279.075623,159.055634 279.119598,151.032974 279.572571,143.007080 
	C282.070679,143.022095 284.159760,143.040329 286.248810,143.058578 
	C286.359589,151.093826 286.470367,159.129059 286.405823,167.610153 
z"/>
<path fill="#8496D3" opacity="1.000000" stroke="none" 
	d="
M286.424255,142.612045 
	C284.159760,143.040329 282.070679,143.022095 279.506348,142.541550 
	C279.074646,134.056305 279.118195,126.033363 279.161743,118.010429 
	C281.284821,118.009476 283.407928,118.008514 285.901825,118.007545 
	C286.381653,126.060188 286.490662,134.112854 286.424255,142.612045 
z"/>
<path fill="#808AD4" opacity="1.000000" stroke="none" 
	d="
M38.103703,144.474854 
	C40.333187,144.009277 42.503975,144.008469 45.152576,144.471588 
	C45.581173,152.293686 45.531960,159.651871 45.482746,167.010040 
	C43.315750,167.008026 41.148758,167.005997 38.574577,167.007202 
	C38.126602,159.653488 38.085804,152.296555 38.103703,144.474854 
z"/>
<path fill="#A3B7DB" opacity="1.000000" stroke="none" 
	d="
M286.589203,89.679604 
	C284.269257,90.090088 282.107361,90.042984 279.463318,89.561539 
	C278.279114,82.098709 277.576996,75.070206 276.874878,68.041702 
	C279.010010,68.025162 281.145142,68.008614 283.743958,67.976013 
	C285.054169,75.047302 285.900696,82.134651 286.589203,89.679604 
z"/>
<path fill="#7973D6" opacity="1.000000" stroke="none" 
	d="
M44.874424,210.017929 
	C44.971848,212.115463 45.069267,214.213013 45.392876,217.118286 
	C45.734867,221.953094 45.850670,225.980148 45.552124,230.004364 
	C43.014763,229.998535 40.891739,229.995560 38.768719,229.992584 
	C38.523666,223.639389 38.278614,217.286179 38.517307,210.467041 
	C40.958839,210.006714 42.916634,210.012314 44.874424,210.017929 
z"/>
<path fill="#7A77D5" opacity="1.000000" stroke="none" 
	d="
M44.913483,209.548843 
	C42.916634,210.012314 40.958839,210.006714 38.580250,210.002579 
	C38.121040,203.314804 38.082630,196.625534 38.106373,189.471802 
	C40.275696,188.871811 42.382870,188.736267 44.952541,188.570984 
	C44.952541,195.507568 44.952541,202.293671 44.913483,209.548843 
z"/>
<path fill="#7664D9" opacity="1.000000" stroke="none" 
	d="
M62.203075,258.522797 
	C59.864017,259.378326 57.524960,260.233856 54.737198,261.181152 
	C50.868015,256.755463 47.447540,252.238037 44.390289,247.359787 
	C46.830959,246.348892 48.908405,245.698807 51.236259,245.276672 
	C55.058804,249.844009 58.630939,254.183395 62.203075,258.522797 
z"/>
<path fill="#7869D9" opacity="1.000000" stroke="none" 
	d="
M50.985847,245.048737 
	C48.908405,245.698807 46.830959,246.348892 44.345318,246.999542 
	C42.115665,241.575150 40.294209,236.150208 38.620735,230.358917 
	C40.891739,229.995560 43.014763,229.998535 45.724838,230.346863 
	C47.869873,235.477707 49.427860,240.263229 50.985847,245.048737 
z"/>
<path fill="#FFFFFF" opacity="1.000000" stroke="none" 
	d="
M51.236259,245.276672 
	C49.427860,240.263229 47.869873,235.477707 46.139179,230.349701 
	C45.850670,225.980148 45.734867,221.953094 45.550938,217.468201 
	C45.527466,200.652267 45.572117,184.294174 45.549759,167.473083 
	C45.531960,159.651871 45.581173,152.293686 45.557213,144.473267 
	C45.538136,135.985321 45.592228,127.959618 45.566109,119.472572 
	C45.548660,109.660294 45.611420,100.309357 45.590435,90.497498 
	C46.644611,81.619553 47.782532,73.202538 48.943237,64.391991 
	C53.869915,54.045956 60.878979,46.057827 70.872971,40.412292 
	C82.940941,35.294193 95.441216,35.878944 107.915512,35.901894 
	C148.224945,35.976059 188.535156,36.042603 228.843796,35.847706 
	C238.556335,35.800751 247.649628,37.492546 256.568176,42.126610 
	C265.787109,48.832535 273.042725,56.680939 276.654236,67.776978 
	C277.576996,75.070206 278.279114,82.098709 279.043121,89.580185 
	C279.080719,99.048416 279.056396,108.063667 279.096924,117.544670 
	C279.118195,126.033363 279.074646,134.056305 279.097321,142.544769 
	C279.119598,151.032974 279.075623,159.055634 279.098724,167.543533 
	C279.120422,176.366226 279.075012,184.723663 279.098877,193.546280 
	C279.079315,204.367294 278.990479,214.723160 278.970642,225.544296 
	C276.649475,233.019882 274.376770,240.073914 271.794098,247.012558 
	C271.063995,248.974075 269.427643,250.598251 268.108398,252.708450 
	C257.111694,264.766205 243.489594,269.156647 227.705307,269.071045 
	C183.053452,268.828888 138.399384,269.015869 93.746269,268.965942 
	C82.383316,268.953217 71.771385,266.390015 62.507988,258.701904 
	C58.630939,254.183395 55.058804,249.844009 51.236259,245.276672 
M230.533676,160.248245 
	C230.000626,152.047592 228.405365,144.137192 224.036209,136.226944 
	C219.050705,128.102417 214.065201,119.977898 208.943420,111.179840 
	C204.354401,103.671410 199.765381,96.162979 195.096313,87.969887 
	C186.835648,73.141907 173.553864,68.562775 157.602203,70.003311 
	C143.770676,71.252380 133.692612,78.229660 127.254608,91.358627 
	C123.202820,98.250923 119.151024,105.143227 114.563599,112.442284 
	C109.585678,120.895515 104.607750,129.348740 99.151100,138.299164 
	C97.479218,146.201492 95.807335,154.103836 94.024544,162.827606 
	C94.358696,170.882736 94.692848,178.937866 94.921616,187.874420 
	C96.348099,195.251373 97.774590,202.628342 99.280380,210.743591 
	C102.387390,216.507401 104.730507,222.885300 108.764824,227.903641 
	C116.503021,237.529266 129.108582,237.671082 138.091110,229.302872 
	C144.371964,223.451584 147.880112,216.122391 150.553314,207.466110 
	C151.656891,201.310699 152.760468,195.155289 154.019714,188.291428 
	C154.591278,187.742706 155.149475,186.735229 155.736542,186.718124 
	C160.272598,186.585892 164.814209,186.645264 169.367004,186.645264 
	C170.007294,188.318985 170.520828,189.661316 170.920334,191.871323 
	C172.677277,198.912842 174.434219,205.954346 176.291489,213.711258 
	C179.504471,218.837036 181.981445,224.668579 186.081177,228.944046 
	C195.060211,238.307892 209.970947,237.261169 217.161011,226.610977 
	C221.116074,220.752594 223.111633,213.571350 226.498047,206.457428 
	C227.654419,197.971466 228.810791,189.485504 230.268661,180.227997 
	C230.271744,173.830109 230.274811,167.432236 230.533676,160.248245 
z"/>
<path fill="#8184D6" opacity="1.000000" stroke="none" 
	d="
M171.034363,191.003662 
	C170.520828,189.661316 170.007294,188.318985 169.367004,186.645264 
	C164.814209,186.645264 160.272598,186.585892 155.736542,186.718124 
	C155.149475,186.735229 154.591278,187.742706 153.547028,188.645721 
	C151.058517,189.330292 149.042679,189.660568 146.632843,190.035294 
	C137.582352,192.263229 130.171066,186.765564 130.023438,177.893860 
	C129.918839,171.608658 130.070923,165.319199 130.509766,159.010712 
	C132.729370,159.037567 134.547638,159.085327 136.480270,159.576660 
	C136.641571,165.639481 136.695099,171.258682 136.733154,176.877991 
	C136.757996,180.546112 137.890198,183.465332 142.008499,183.998657 
	C146.381882,184.565033 148.269745,181.920517 149.109970,178.108063 
	C149.465332,176.495743 149.686005,174.830978 150.245529,173.290909 
	C151.622971,169.499527 153.309525,165.901794 158.228851,164.987579 
	C161.402740,165.038879 164.179855,165.028442 167.301880,165.058258 
	C172.801895,167.705658 174.297882,172.413620 175.220627,177.659515 
	C175.855682,181.269806 177.650528,184.429749 182.052856,184.018829 
	C186.510803,183.602692 188.049194,180.587372 188.016968,176.383850 
	C187.975143,170.929169 188.094467,165.473251 188.539307,160.010406 
	C190.716797,160.027878 192.499390,160.052795 194.423767,160.516876 
	C194.481750,167.083878 194.796799,173.249878 194.214600,179.329971 
	C193.464676,187.161835 187.597748,191.351379 179.655640,190.661926 
	C178.802994,190.587891 177.861984,191.531647 176.578552,192.001038 
	C174.474884,191.667084 172.754623,191.335373 171.034363,191.003662 
M164.073303,170.882111 
	C163.416733,170.827911 162.755753,170.695511 162.104279,170.732147 
	C157.731049,170.978058 155.633606,173.849442 156.283493,177.629715 
	C156.524673,179.032669 160.004395,180.422501 162.181519,180.792358 
	C164.255905,181.144730 166.557404,180.160294 170.057266,179.529648 
	C167.968414,176.185684 166.401749,173.677658 164.073303,170.882111 
z"/>
<path fill="#91AFD3" opacity="1.000000" stroke="none" 
	d="
M127.747749,90.920631 
	C133.692612,78.229660 143.770676,71.252380 157.602203,70.003311 
	C173.553864,68.562775 186.835648,73.141907 194.927094,88.633720 
	C193.124512,89.875275 191.491119,90.452995 189.583710,90.847321 
	C188.018692,89.049461 186.727707,87.434982 185.199615,85.523979 
	C183.870499,87.366913 182.923523,88.679985 181.593536,89.949570 
	C179.424896,89.600311 177.639236,89.294533 175.889587,88.617554 
	C176.440659,87.219994 177.236618,86.238014 177.407349,85.157257 
	C177.688538,83.377205 178.333267,80.589096 177.472153,79.888535 
	C174.579330,77.535080 174.107391,80.895325 173.110992,82.526802 
	C167.913589,91.036926 156.098663,91.166275 151.535187,82.304443 
	C149.400681,78.159401 147.864685,78.629005 145.131042,80.818428 
	C146.865585,84.755211 148.460327,88.374710 149.651749,91.995285 
	C147.454071,92.352226 145.659729,92.708099 143.612915,92.839386 
	C142.132462,90.233917 140.904495,87.853043 139.513611,85.156326 
	C137.419434,87.744545 135.699371,89.870392 133.620926,91.836838 
	C131.424271,91.425171 129.586014,91.172897 127.747749,90.920631 
M161.605911,75.996490 
	C159.889847,76.099937 158.173782,76.203384 156.457718,76.306831 
	C156.207901,76.929352 155.958069,77.551872 155.708237,78.174385 
	C157.960632,79.486153 160.087570,81.507515 162.496567,81.933380 
	C165.638474,82.488815 167.438019,80.212852 168.078964,76.456886 
	C165.939087,76.277985 164.205154,76.133018 161.605911,75.996490 
z"/>
<path fill="#7C74D8" opacity="1.000000" stroke="none" 
	d="
M225.990662,206.986542 
	C223.111633,213.571350 221.116074,220.752594 217.161011,226.610977 
	C209.970947,237.261169 195.060211,238.307892 186.081177,228.944046 
	C181.981445,224.668579 179.504471,218.837036 176.613831,213.299866 
	C178.677948,212.576614 180.419724,212.264755 182.420502,212.178040 
	C185.135834,216.479523 187.592117,220.555893 190.048401,224.632263 
	C190.605179,224.502350 191.161957,224.372437 191.718735,224.242523 
	C194.818054,218.163895 197.917374,212.085266 201.418732,206.002548 
	C203.543060,206.326477 205.265335,206.654495 206.950516,207.352493 
	C203.844360,214.396530 200.775299,221.070602 197.720627,227.713394 
	C203.166763,229.590652 209.218384,227.606232 212.782654,221.497192 
	C215.812454,216.304276 217.853806,210.534668 220.673370,205.072571 
	C222.673065,205.745453 224.331863,206.365997 225.990662,206.986542 
z"/>
<path fill="#7C73D8" opacity="1.000000" stroke="none" 
	d="
M150.077194,208.014359 
	C147.880112,216.122391 144.371964,223.451584 138.091110,229.302872 
	C129.108582,237.671082 116.503021,237.529266 108.764824,227.903641 
	C104.730507,222.885300 102.387390,216.507401 99.638672,210.373169 
	C101.688263,209.609619 103.379562,209.216492 105.334274,209.078339 
	C107.650948,215.886139 110.527573,221.944000 116.294952,226.091583 
	C119.444359,228.356461 122.907997,229.352615 126.914238,228.044281 
	C123.894287,221.442841 121.049026,215.223267 118.587067,209.003204 
	C120.694275,208.644196 122.418198,208.285690 124.400299,208.152588 
	C127.327843,213.626480 129.997208,218.874969 132.781021,224.348495 
	C139.263489,220.160843 140.834869,213.733170 143.915619,208.012878 
	C146.240692,208.010269 148.158936,208.012314 150.077194,208.014359 
z"/>
<path fill="#8A9CD4" opacity="1.000000" stroke="none" 
	d="
M99.629822,137.801971 
	C104.607750,129.348740 109.585678,120.895515 115.281235,112.227219 
	C120.222343,112.346832 124.445816,112.681519 128.744598,113.477371 
	C128.865753,119.293663 128.911575,124.648766 128.539017,130.002029 
	C126.448334,130.002777 124.776024,130.005386 123.015991,129.580994 
	C122.507507,124.576065 122.086761,119.998131 121.666016,115.420204 
	C121.249832,115.320854 120.833641,115.221512 120.417450,115.122169 
	C115.604218,123.080208 110.790993,131.038254 105.569794,138.996307 
	C103.317825,138.598190 101.473824,138.200073 99.629822,137.801971 
z"/>
<path fill="#8BA4D3" opacity="1.000000" stroke="none" 
	d="
M189.857727,91.030701 
	C191.491119,90.452995 193.124512,89.875275 194.967133,88.976059 
	C199.765381,96.162979 204.354401,103.671410 208.831787,111.859848 
	C206.796173,113.033028 204.872192,113.526207 202.733887,114.040276 
	C202.519547,114.061172 202.094849,114.135345 201.837784,113.831635 
	C199.732529,113.352707 197.884323,113.177498 195.956512,112.605774 
	C193.870514,105.149750 191.864120,98.090225 189.857727,91.030701 
z"/>
<path fill="#8FA6D4" opacity="1.000000" stroke="none" 
	d="
M128.669281,113.016197 
	C124.445816,112.681519 120.222343,112.346832 115.549057,112.023834 
	C119.151024,105.143227 123.202820,98.250923 127.501175,91.139633 
	C129.586014,91.172897 131.424271,91.425171 133.496857,92.184219 
	C132.043884,99.466064 130.356583,106.241127 128.669281,113.016197 
z"/>
<path fill="#8A9CD4" opacity="1.000000" stroke="none" 
	d="
M202.948212,114.019379 
	C204.872192,113.526207 206.796173,113.033028 208.899933,112.196609 
	C214.065201,119.977898 219.050705,128.102417 223.654541,136.603271 
	C221.725082,137.519104 220.177277,138.058594 218.409775,138.313507 
	C213.109467,130.025742 208.028839,122.022552 202.948212,114.019379 
z"/>
<path fill="#8489D6" opacity="1.000000" stroke="none" 
	d="
M95.026993,186.992996 
	C94.692848,178.937866 94.358696,170.882736 94.477234,162.413971 
	C96.781364,162.002670 98.632805,162.005020 100.564888,162.418365 
	C100.753769,170.887589 100.861992,178.945770 100.545677,187.000946 
	C98.423088,186.996277 96.725044,186.994644 95.026993,186.992996 
z"/>
<path fill="#8281D8" opacity="1.000000" stroke="none" 
	d="
M226.244354,206.721985 
	C224.331863,206.365997 222.673065,205.745453 220.674591,204.679565 
	C221.568787,196.489532 222.802689,188.744843 224.460358,181.000366 
	C226.578476,181.000229 228.272827,180.999878 229.967163,180.999542 
	C228.810791,189.485504 227.654419,197.971466 226.244354,206.721985 
z"/>
<path fill="#8994D6" opacity="1.000000" stroke="none" 
	d="
M218.629456,138.598083 
	C220.177277,138.058594 221.725082,137.519104 223.720062,136.964264 
	C228.405365,144.137192 230.000626,152.047592 230.040588,160.631439 
	C227.747620,161.015686 225.947723,161.016739 224.061707,160.606049 
	C222.193542,152.995575 220.411499,145.796829 218.629456,138.598083 
z"/>
<path fill="#8691D6" opacity="1.000000" stroke="none" 
	d="
M100.484238,162.007355 
	C98.632805,162.005020 96.781364,162.002670 94.532692,162.003235 
	C95.807335,154.103836 97.479218,146.201492 99.390457,138.050568 
	C101.473824,138.200073 103.317825,138.598190 105.521912,139.363831 
	C104.082748,147.156693 102.283493,154.582016 100.484238,162.007355 
z"/>
<path fill="#7C79D6" opacity="1.000000" stroke="none" 
	d="
M94.974304,187.433716 
	C96.725044,186.994644 98.423088,186.996277 100.607483,187.417328 
	C102.419510,194.832291 103.745186,201.827820 105.070862,208.823364 
	C103.379562,209.216492 101.688263,209.609619 99.599014,210.004028 
	C97.774590,202.628342 96.348099,195.251373 94.974304,187.433716 
z"/>
<path fill="#7E83D4" opacity="1.000000" stroke="none" 
	d="
M224.147842,161.017807 
	C225.947723,161.016739 227.747620,161.015686 229.912689,161.024475 
	C230.274811,167.432236 230.271744,173.830109 230.117920,180.613770 
	C228.272827,180.999878 226.578476,181.000229 224.425140,180.533020 
	C224.026718,173.716232 224.087280,167.367020 224.147842,161.017807 
z"/>
<path fill="#7C79D6" opacity="1.000000" stroke="none" 
	d="
M182.161484,211.952911 
	C180.419724,212.264755 178.677948,212.576614 176.563690,212.942169 
	C174.434219,205.954346 172.677277,198.912842 170.977341,191.437500 
	C172.754623,191.335373 174.474884,191.667084 176.723114,192.375458 
	C178.887863,199.152390 180.524673,205.552643 182.161484,211.952911 
z"/>
<path fill="#8281D8" opacity="1.000000" stroke="none" 
	d="
M150.315247,207.740234 
	C148.158936,208.012314 146.240692,208.010269 143.958771,207.657913 
	C144.739029,201.535339 145.882935,195.763077 147.026840,189.990845 
	C149.042679,189.660568 151.058517,189.330292 153.469208,188.999939 
	C152.760468,195.155289 151.656891,201.310699 150.315247,207.740234 
z"/>
<path fill="#FDFDFE" opacity="1.000000" stroke="none" 
	d="
M182.420502,212.178040 
	C180.524673,205.552643 178.887863,199.152390 177.106506,192.377701 
	C177.861984,191.531647 178.802994,190.587891 179.655640,190.661926 
	C187.597748,191.351379 193.464676,187.161835 194.214600,179.329971 
	C194.796799,173.249878 194.481750,167.083878 194.592712,160.103424 
	C195.313980,156.228394 195.929413,153.185242 196.720200,150.188354 
	C197.972107,145.443970 199.341431,140.730545 200.817719,135.606232 
	C201.347855,128.184067 201.721344,121.159706 202.094849,114.135345 
	C202.094849,114.135345 202.519547,114.061172 202.733887,114.040276 
	C208.028839,122.022552 213.109467,130.025742 218.409760,138.313507 
	C220.411499,145.796829 222.193542,152.995575 224.061707,160.606049 
	C224.087280,167.367020 224.026718,173.716232 224.001373,180.532806 
	C222.802689,188.744843 221.568787,196.489532 220.333694,204.627213 
	C217.853806,210.534668 215.812454,216.304276 212.782654,221.497192 
	C209.218384,227.606232 203.166763,229.590652 197.720627,227.713394 
	C200.775299,221.070602 203.844360,214.396530 207.208344,207.101898 
	C209.061691,198.316437 210.620132,190.151535 212.233582,181.521973 
	C212.144775,175.909882 212.305283,170.725525 211.687439,165.635651 
	C211.479141,163.919815 209.295624,162.443741 208.014862,160.858093 
	C207.045364,162.620590 205.280518,164.372040 205.255859,166.147644 
	C205.182526,171.428970 205.793442,176.719803 206.060028,182.419266 
	C204.327637,190.556625 202.672180,198.281631 201.016693,206.006638 
	C197.917374,212.085266 194.818054,218.163895 191.718735,224.242523 
	C191.161957,224.372437 190.605179,224.502350 190.048401,224.632263 
	C187.592117,220.555893 185.135834,216.479523 182.420502,212.178040 
z"/>
<path fill="#FDFDFF" opacity="1.000000" stroke="none" 
	d="
M146.632843,190.035278 
	C145.882935,195.763077 144.739029,201.535339 143.551971,207.662567 
	C140.834869,213.733170 139.263489,220.160843 132.781021,224.348495 
	C129.997208,218.874969 127.327843,213.626480 124.370590,207.768738 
	C122.269493,199.784729 120.456291,192.409943 118.735268,184.572235 
	C119.051987,177.969086 119.450951,171.826920 119.382996,165.689957 
	C119.365158,164.079895 117.899414,162.485886 117.098595,160.884506 
	C115.709557,162.144333 113.235924,163.308502 113.114967,164.680145 
	C112.519318,171.434952 112.547630,178.244766 112.283569,185.432159 
	C114.208885,193.553986 116.206329,201.278824 118.203773,209.003677 
	C121.049026,215.223267 123.894287,221.442841 126.914238,228.044281 
	C122.907997,229.352615 119.444359,228.356461 116.294952,226.091583 
	C110.527573,221.944000 107.650948,215.886139 105.334274,209.078339 
	C103.745186,201.827820 102.419510,194.832291 101.032021,187.420349 
	C100.861992,178.945770 100.753769,170.887589 100.564888,162.418365 
	C102.283493,154.582016 104.082748,147.156693 105.929886,139.363831 
	C110.790993,131.038254 115.604218,123.080208 120.417450,115.122169 
	C120.833641,115.221512 121.249832,115.320854 121.666016,115.420204 
	C122.086761,119.998131 122.507507,124.576065 122.982559,129.999512 
	C125.387589,139.223969 127.738304,147.602875 130.032074,156.361237 
	C130.019547,157.504333 130.063980,158.267990 130.108429,159.031631 
	C130.070923,165.319199 129.918839,171.608658 130.023438,177.893860 
	C130.171066,186.765564 137.582352,192.263229 146.632843,190.035278 
z"/>
<path fill="#FEFEFF" opacity="1.000000" stroke="none" 
	d="
M150.055084,91.994217 
	C148.460327,88.374710 146.865585,84.755211 145.131042,80.818428 
	C147.864685,78.629005 149.400681,78.159401 151.535187,82.304443 
	C156.098663,91.166275 167.913589,91.036926 173.110992,82.526802 
	C174.107391,80.895325 174.579330,77.535080 177.472153,79.888535 
	C178.333267,80.589096 177.688538,83.377205 177.407349,85.157257 
	C177.236618,86.238014 176.440659,87.219994 175.736023,88.922699 
	C172.014450,96.302170 169.650040,103.289162 170.256287,111.433456 
	C170.305969,121.260483 173.569839,129.359161 180.419373,136.306396 
	C185.962158,143.473114 188.218887,151.366562 188.144424,160.017868 
	C188.094467,165.473251 187.975143,170.929169 188.016968,176.383850 
	C188.049194,180.587372 186.510803,183.602692 182.052856,184.018829 
	C177.650528,184.429749 175.855682,181.269806 175.220627,177.659515 
	C174.297882,172.413620 172.801895,167.705658 167.088989,164.730408 
	C165.189163,161.654205 165.494904,159.795761 168.200638,157.677826 
	C170.612000,155.790314 172.013519,152.612717 173.944336,149.580917 
	C174.314621,141.701035 172.041077,138.700485 165.162277,138.144547 
	C162.397583,137.921112 159.470520,138.081131 156.791534,138.757050 
	C150.986084,140.221741 149.152603,143.999283 150.849609,150.412567 
	C152.491730,153.090942 153.639984,156.182388 155.849655,157.518753 
	C159.389145,159.659393 159.957367,161.700119 157.832092,164.925842 
	C153.309525,165.901794 151.622971,169.499527 150.245529,173.290909 
	C149.686005,174.830978 149.465332,176.495743 149.109970,178.108063 
	C148.269745,181.920517 146.381882,184.565033 142.008499,183.998657 
	C137.890198,183.465332 136.757996,180.546112 136.733154,176.877991 
	C136.695099,171.258682 136.641571,165.639481 136.641571,159.192230 
	C136.593826,157.556198 136.499146,156.748169 136.560211,155.540710 
	C137.376022,148.652054 139.311890,142.802383 143.391342,137.440475 
	C146.996231,132.702316 149.593628,127.197632 152.858551,121.686478 
	C155.534348,111.202156 154.495834,101.422775 150.055084,91.994217 
z"/>
<path fill="#8994D6" opacity="1.000000" stroke="none" 
	d="
M188.539307,160.010406 
	C188.218887,151.366562 185.962158,143.473114 180.793365,136.295212 
	C183.085144,135.632889 185.118393,135.285767 187.400803,135.166550 
	C189.088318,137.567368 190.526642,139.740295 192.245499,142.337021 
	C193.160416,139.344437 193.820465,137.185516 194.832306,135.017883 
	C197.009766,135.340790 198.835403,135.672409 200.661057,136.004028 
	C199.341431,140.730545 197.972107,145.443970 196.720200,150.188354 
	C195.929413,153.185242 195.313980,156.228394 194.450943,159.664246 
	C192.499390,160.052795 190.716797,160.027878 188.539307,160.010406 
z"/>
<path fill="#858ED6" opacity="1.000000" stroke="none" 
	d="
M158.228851,164.987579 
	C159.957367,161.700119 159.389145,159.659393 155.849655,157.518753 
	C153.639984,156.182388 152.491730,153.090942 151.230042,150.368622 
	C153.313843,149.637039 155.034744,149.323929 156.860825,149.364563 
	C161.165634,154.233994 163.606140,154.074036 168.347885,148.997620 
	C170.441116,149.333389 172.150909,149.668930 173.860687,150.004456 
	C172.013519,152.612717 170.612000,155.790314 168.200638,157.677826 
	C165.494904,159.795761 165.189163,161.654205 166.744080,164.690155 
	C164.179855,165.028442 161.402740,165.038879 158.228851,164.987579 
z"/>
<path fill="#F6F7FC" opacity="1.000000" stroke="none" 
	d="
M164.454193,171.025879 
	C166.401749,173.677658 167.968414,176.185684 170.057266,179.529648 
	C166.557404,180.160294 164.255905,181.144730 162.181519,180.792358 
	C160.004395,180.422501 156.524673,179.032669 156.283493,177.629715 
	C155.633606,173.849442 157.731049,170.978058 162.104279,170.732147 
	C162.755753,170.695511 163.416733,170.827911 164.454193,171.025879 
z"/>
<path fill="#999FDC" opacity="1.000000" stroke="none" 
	d="
M136.404480,155.940155 
	C136.499146,156.748169 136.593826,157.556198 136.527222,158.748657 
	C134.547638,159.085327 132.729370,159.037567 130.509766,159.010712 
	C130.063980,158.267990 130.019547,157.504333 130.436676,156.376709 
	C132.733658,155.988525 134.569061,155.964340 136.404480,155.940155 
z"/>
<path fill="#FCFDFE" opacity="1.000000" stroke="none" 
	d="
M128.744598,113.477371 
	C130.356583,106.241127 132.043884,99.466064 133.855255,92.343613 
	C135.699371,89.870392 137.419434,87.744545 139.513611,85.156326 
	C140.904495,87.853043 142.132462,90.233917 143.687714,93.205505 
	C144.737244,95.951218 145.459503,98.106232 146.134766,100.121071 
	C143.546143,101.826118 141.103012,103.020920 139.267685,104.831757 
	C138.440140,105.648239 138.194305,108.142349 138.841721,109.048775 
	C139.446030,109.894814 141.648819,110.018951 143.027344,109.776077 
	C144.453949,109.524734 145.735413,108.449623 148.603668,106.925247 
	C147.593201,113.017563 146.847137,117.515701 145.985718,122.338211 
	C141.374634,129.296722 136.878891,135.930847 131.745819,143.505447 
	C130.711456,138.497055 129.834427,134.250458 128.957397,130.003876 
	C128.911575,124.648766 128.865753,119.293663 128.744598,113.477371 
z"/>
<path fill="#FDFDFE" opacity="1.000000" stroke="none" 
	d="
M194.480499,135.026611 
	C193.820465,137.185516 193.160416,139.344437 192.245499,142.337021 
	C190.526642,139.740295 189.088318,137.567368 187.264496,134.851929 
	C181.503067,127.409966 175.700409,120.697762 176.748688,110.652191 
	C177.366196,106.042305 179.405350,109.233673 180.938828,109.361633 
	C182.645157,109.504021 184.388275,109.205650 186.115372,109.099152 
	C185.624161,107.438835 185.603867,105.315895 184.532608,104.225395 
	C182.877991,102.541107 180.504486,101.563057 178.270905,100.183594 
	C179.494202,96.819496 180.735367,93.406273 181.976532,89.993057 
	C182.923523,88.679985 183.870499,87.366913 185.199615,85.523979 
	C186.727707,87.434982 188.018692,89.049461 189.583710,90.847321 
	C191.864120,98.090225 193.870514,105.149750 195.908630,113.067947 
	C195.453720,120.959953 194.967102,127.993279 194.480499,135.026611 
z"/>
<path fill="#8DA4D4" opacity="1.000000" stroke="none" 
	d="
M146.101074,122.013847 
	C146.847137,117.515701 147.593201,113.017563 148.603668,106.925247 
	C145.735413,108.449623 144.453949,109.524734 143.027344,109.776077 
	C141.648819,110.018951 139.446030,109.894814 138.841721,109.048775 
	C138.194305,108.142349 138.440140,105.648239 139.267685,104.831757 
	C141.103012,103.020920 143.546143,101.826118 146.134766,100.121071 
	C145.459503,98.106232 144.737244,95.951218 143.940186,93.430092 
	C145.659729,92.708099 147.454071,92.352226 149.651749,91.995285 
	C154.495834,101.422775 155.534348,111.202156 152.457260,121.678429 
	C149.922531,122.014801 148.011810,122.014320 146.101074,122.013847 
z"/>
<path fill="#8FA6D4" opacity="1.000000" stroke="none" 
	d="
M181.593536,89.949570 
	C180.735367,93.406273 179.494202,96.819496 178.270905,100.183594 
	C180.504486,101.563057 182.877991,102.541107 184.532608,104.225395 
	C185.603867,105.315895 185.624161,107.438835 186.115372,109.099152 
	C184.388275,109.205650 182.645157,109.504021 180.938828,109.361633 
	C179.405350,109.233673 177.366196,106.042305 176.356125,110.647354 
	C174.029221,111.012131 172.184113,111.015305 170.339005,111.018478 
	C169.650040,103.289162 172.014450,96.302170 175.700027,89.293900 
	C177.639236,89.294533 179.424896,89.600311 181.593536,89.949570 
z"/>
<path fill="#F6F7FC" opacity="1.000000" stroke="none" 
	d="
M162.038574,75.992271 
	C164.205154,76.133018 165.939087,76.277985 168.078964,76.456886 
	C167.438019,80.212852 165.638474,82.488815 162.496567,81.933380 
	C160.087570,81.507515 157.960632,79.486153 155.708237,78.174385 
	C155.958069,77.551872 156.207901,76.929352 156.457718,76.306831 
	C158.173782,76.203384 159.889847,76.099937 162.038574,75.992271 
z"/>
<path fill="#8281D8" opacity="1.000000" stroke="none" 
	d="
M212.178574,181.986633 
	C210.620132,190.151535 209.061691,198.316437 207.245422,206.731934 
	C205.265335,206.654495 203.543060,206.326477 201.418747,206.002548 
	C202.672180,198.281631 204.327637,190.556625 206.486908,182.415909 
	C208.720016,181.995682 210.449295,181.991150 212.178574,181.986633 
z"/>
<path fill="#7D7BD7" opacity="1.000000" stroke="none" 
	d="
M118.643082,185.035156 
	C120.456291,192.409943 122.269493,199.784729 124.112404,207.543350 
	C122.418198,208.285690 120.694275,208.644196 118.587067,209.003204 
	C116.206329,201.278824 114.208885,193.553986 112.675110,185.422363 
	C114.973549,185.022110 116.808311,185.028625 118.643082,185.035156 
z"/>
<path fill="#8493D4" opacity="1.000000" stroke="none" 
	d="
M145.985718,122.338211 
	C148.011810,122.014320 149.922531,122.014801 152.234558,122.023331 
	C149.593628,127.197632 146.996231,132.702316 143.391342,137.440475 
	C139.311890,142.802383 137.376022,148.652054 136.560211,155.540710 
	C134.569061,155.964340 132.733658,155.988525 130.493637,155.997253 
	C127.738304,147.602875 125.387589,139.223969 123.070297,130.426514 
	C124.776024,130.005386 126.448334,130.002777 128.539017,130.002029 
	C129.834427,134.250458 130.711456,138.497055 131.745819,143.505447 
	C136.878891,135.930847 141.374634,129.296722 145.985718,122.338211 
z"/>
<path fill="#8A9CD4" opacity="1.000000" stroke="none" 
	d="
M194.832306,135.017883 
	C194.967102,127.993279 195.453720,120.959953 195.988235,113.464447 
	C197.884323,113.177498 199.732529,113.352707 201.837769,113.831635 
	C201.721344,121.159706 201.347855,128.184067 200.817719,135.606232 
	C198.835403,135.672409 197.009766,135.340790 194.832306,135.017883 
z"/>
<path fill="#8489D6" opacity="1.000000" stroke="none" 
	d="
M212.233582,181.521957 
	C210.449295,181.991150 208.720016,181.995682 206.563843,182.003555 
	C205.793442,176.719803 205.182526,171.428970 205.255859,166.147644 
	C205.280518,164.372040 207.045364,162.620590 208.014862,160.858093 
	C209.295624,162.443741 211.479141,163.919815 211.687439,165.635651 
	C212.305283,170.725525 212.144775,175.909882 212.233582,181.521957 
z"/>
<path fill="#8489D6" opacity="1.000000" stroke="none" 
	d="
M118.735268,184.572235 
	C116.808311,185.028625 114.973549,185.022110 112.747238,185.025375 
	C112.547630,178.244766 112.519318,171.434952 113.114967,164.680145 
	C113.235924,163.308502 115.709557,162.144333 117.098595,160.884506 
	C117.899414,162.485886 119.365158,164.079895 119.382996,165.689957 
	C119.450951,171.826920 119.051987,177.969086 118.735268,184.572235 
z"/>
<path fill="#8895D5" opacity="1.000000" stroke="none" 
	d="
M173.944351,149.580933 
	C172.150909,149.668930 170.441116,149.333389 168.340698,148.601303 
	C168.113449,143.649277 164.536682,144.422455 161.995193,144.347366 
	C159.086288,144.261398 156.197311,144.883011 156.755661,149.010834 
	C155.034744,149.323929 153.313843,149.637039 151.212494,149.994095 
	C149.152603,143.999283 150.986084,140.221741 156.791534,138.757050 
	C159.470520,138.081131 162.397583,137.921112 165.162277,138.144547 
	C172.041077,138.700485 174.314621,141.701035 173.944351,149.580933 
z"/>
<path fill="#8A9CD4" opacity="1.000000" stroke="none" 
	d="
M170.256287,111.433456 
	C172.184113,111.015305 174.029221,111.012131 176.266907,111.013794 
	C175.700409,120.697762 181.503067,127.409966 187.015320,134.624023 
	C185.118393,135.285767 183.085144,135.632889 180.677917,135.991211 
	C173.569839,129.359161 170.305969,121.260483 170.256287,111.433456 
z"/>
<path fill="#F6F7FC" opacity="1.000000" stroke="none" 
	d="
M156.860825,149.364563 
	C156.197311,144.883011 159.086288,144.261398 161.995193,144.347366 
	C164.536682,144.422455 168.113449,143.649277 167.957260,148.601074 
	C163.606140,154.074036 161.165634,154.233994 156.860825,149.364563 
z"/>
</svg>