<svg width="41" height="54" viewBox="0 0 41 54" fill="none" xmlns="http://www.w3.org/2000/svg">
<path d="M0.666504 2.26454V42.4697C0.666504 43.32 1.35461 44.0081 2.20497 44.0081H29.8973C30.7476 44.0081 31.4357 43.32 31.4357 42.4697V2.26454C31.4357 1.41418 30.7476 0.726074 29.8973 0.726074H2.20497C1.35461 0.726074 0.666504 1.41418 0.666504 2.26454ZM25.2819 36.2133H19.128C18.2777 36.2133 17.5896 35.5252 17.5896 34.6748C17.5896 33.8244 18.2777 33.1363 19.128 33.1363H25.2819C26.1322 33.1363 26.8203 33.8244 26.8203 34.6748C26.8203 35.5252 26.1322 36.2133 25.2819 36.2133ZM6.82035 8.52095H16.0511C16.9015 8.52095 17.5896 9.20905 17.5896 10.0594C17.5896 10.9098 16.9015 11.5979 16.0511 11.5979H6.82035C5.96999 11.5979 5.28189 10.9098 5.28189 10.0594C5.28189 9.20905 5.96999 8.52095 6.82035 8.52095ZM6.82035 14.6748H25.2819C26.1322 14.6748 26.8203 15.3629 26.8203 16.2133C26.8203 17.0636 26.1322 17.7517 25.2819 17.7517H6.82035C5.96999 17.7517 5.28189 17.0636 5.28189 16.2133C5.28189 15.3629 5.96999 14.6748 6.82035 14.6748ZM6.82035 20.8286H25.2819C26.1322 20.8286 26.8203 21.5167 26.8203 22.3671C26.8203 23.2175 26.1322 23.9056 25.2819 23.9056H6.82035C5.96999 23.9056 5.28189 23.2175 5.28189 22.3671C5.28189 21.5167 5.96999 20.8286 6.82035 20.8286ZM6.82035 26.9825H25.2819C26.1322 26.9825 26.8203 27.6706 26.8203 28.5209C26.8203 29.3713 26.1322 30.0594 25.2819 30.0594H6.82035C5.96999 30.0594 5.28189 29.3713 5.28189 28.5209C5.28189 27.6706 5.96999 26.9825 6.82035 26.9825Z" fill="#5850EC"/>
<path d="M11.4362 53.2389H39.1285C39.9788 53.2389 40.6669 52.5508 40.6669 51.7005V11.5979C40.6669 10.7476 39.9788 10.0594 39.1285 10.0594H34.5131V42.4697C34.5131 45.0147 32.4427 47.0851 29.8977 47.0851H9.89771V51.7005C9.89771 52.5508 10.5858 53.2389 11.4362 53.2389Z" fill="#5850EC"/>
</svg>
