<svg width="25" height="25" viewBox="0 0 25 25" fill="none" xmlns="http://www.w3.org/2000/svg">
<path d="M18.5701 10.9835C18.3801 10.9835 18.1901 10.9135 18.0401 10.7635L12.5001 5.22352L6.96012 10.7635C6.67012 11.0535 6.19012 11.0535 5.90012 10.7635C5.61012 10.4735 5.61012 9.99352 5.90012 9.70352L11.9701 3.63352C12.2601 3.34352 12.7401 3.34352 13.0301 3.63352L19.1001 9.70352C19.3901 9.99352 19.3901 10.4735 19.1001 10.7635C18.9601 10.9135 18.7601 10.9835 18.5701 10.9835Z" fill="#292D32"/>
<path d="M18.5701 10.9835C18.3801 10.9835 18.1901 10.9135 18.0401 10.7635L12.5001 5.22352L6.96012 10.7635C6.67012 11.0535 6.19012 11.0535 5.90012 10.7635C5.61012 10.4735 5.61012 9.99352 5.90012 9.70352L11.9701 3.63352C12.2601 3.34352 12.7401 3.34352 13.0301 3.63352L19.1001 9.70352C19.3901 9.99352 19.3901 10.4735 19.1001 10.7635C18.9601 10.9135 18.7601 10.9835 18.5701 10.9835Z" fill="url(#paint0_linear_109_1741)"/>
<path d="M12.5 21.9136C12.09 21.9136 11.75 21.5736 11.75 21.1636V4.33362C11.75 3.92362 12.09 3.58362 12.5 3.58362C12.91 3.58362 13.25 3.92362 13.25 4.33362V21.1636C13.25 21.5736 12.91 21.9136 12.5 21.9136Z" fill="#292D32"/>
<path d="M12.5 21.9136C12.09 21.9136 11.75 21.5736 11.75 21.1636V4.33362C11.75 3.92362 12.09 3.58362 12.5 3.58362C12.91 3.58362 13.25 3.92362 13.25 4.33362V21.1636C13.25 21.5736 12.91 21.9136 12.5 21.9136Z" fill="url(#paint1_linear_109_1741)"/>
<defs>
<linearGradient id="paint0_linear_109_1741" x1="5.23298" y1="3.41602" x2="19.1862" y2="12.772" gradientUnits="userSpaceOnUse">
<stop stop-color="#4A89DB"/>
<stop offset="1" stop-color="#39C77B"/>
</linearGradient>
<linearGradient id="paint1_linear_109_1741" x1="11.7005" y1="3.58362" x2="13.9236" y2="3.65132" gradientUnits="userSpaceOnUse">
<stop stop-color="#4A89DB"/>
<stop offset="1" stop-color="#39C77B"/>
</linearGradient>
</defs>
</svg>