<svg width="25" height="25" viewBox="0 0 25 25" fill="none" xmlns="http://www.w3.org/2000/svg">
<path d="M12.5001 21.9136C12.3101 21.9136 12.1201 21.8436 11.9701 21.6936L5.90012 15.6236C5.61012 15.3336 5.61012 14.8536 5.90012 14.5636C6.19012 14.2736 6.67012 14.2736 6.96012 14.5636L12.5001 20.1036L18.0401 14.5636C18.3301 14.2736 18.8101 14.2736 19.1001 14.5636C19.3901 14.8536 19.3901 15.3336 19.1001 15.6236L13.0301 21.6936C12.8801 21.8436 12.6901 21.9136 12.5001 21.9136Z" fill="#292D32"/>
<path d="M12.5 21.7436C12.09 21.7436 11.75 21.4036 11.75 20.9936V4.16357C11.75 3.75357 12.09 3.41357 12.5 3.41357C12.91 3.41357 13.25 3.75357 13.25 4.16357V20.9936C13.25 21.4036 12.91 21.7436 12.5 21.7436Z" fill="#292D32"/>
</svg>
