<svg width="36" height="36" viewBox="0 0 36 36" fill="none" xmlns="http://www.w3.org/2000/svg">
<path d="M17.9997 21.3333C19.8406 21.3333 21.333 19.8409 21.333 18C21.333 16.1591 19.8406 14.6666 17.9997 14.6666C16.1588 14.6666 14.6663 16.1591 14.6663 18C14.6663 19.8409 16.1588 21.3333 17.9997 21.3333Z" fill="#21606A"/>
<path d="M12.47 9.66665C11.9098 10.0391 11.3893 10.4665 10.9163 10.9412C10.4198 11.4395 9.97542 11.9898 9.59226 12.5833" fill="#21606A"/>
<path d="M8.16426 19.8166C8.05617 19.2275 7.99967 18.6203 7.99967 18C7.99967 17.3796 8.05617 16.7725 8.16426 16.1834" fill="#21606A"/>
<path d="M12.47 26.3333C11.9098 25.9609 11.3893 25.5335 10.9163 25.0587C10.4198 24.5605 9.97542 24.0101 9.59226 23.4166" fill="#21606A"/>
<path d="M19.9662 27.8067C19.3303 27.9335 18.6728 28 17.9997 28C17.3265 28 16.6689 27.9335 16.0331 27.8067" fill="#21606A"/>
<path d="M23.5293 26.3333C24.0895 25.9609 24.61 25.5335 25.083 25.0587C25.5796 24.5605 26.0239 24.0101 26.4071 23.4166" fill="#21606A"/>
<path d="M27.8351 19.8166C27.9432 19.2275 27.9997 18.6203 27.9997 18C27.9997 17.3796 27.9432 16.7725 27.8351 16.1834" fill="#21606A"/>
<path d="M23.5293 9.66665C24.0895 10.0391 24.61 10.4665 25.083 10.9412C25.5796 11.4395 26.0239 11.9898 26.4071 12.5833" fill="#21606A"/>
<path d="M16.0331 8.19331C16.6689 8.06648 17.3265 7.99998 17.9996 7.99998C18.6728 7.99998 19.3303 8.06648 19.9662 8.19331" fill="#21606A"/>
<path d="M34.6663 18C34.6663 17.4375 34.6385 16.8815 34.584 16.3333C34.528 15.769 34.4438 15.213 34.3329 14.6666L34.6663 18ZM1.33301 18C1.33301 17.4375 1.36087 16.8815 1.4153 16.3333C1.47132 15.769 1.5555 15.213 1.6664 14.6666L1.33301 18ZM30.2047 29.3498C29.8303 29.7522 29.4362 30.1361 29.0239 30.5C28.655 30.8256 28.2715 31.1352 27.8745 31.4276L30.2047 29.3498ZM5.7947 29.3498C6.16911 29.7522 6.56317 30.1361 6.97542 30.5C7.34434 30.8256 7.72792 31.1352 8.12484 31.4276L5.7947 29.3498ZM11.0933 2.8271C10.5471 3.07616 10.0166 3.35385 9.50384 3.65826C9.02842 3.9405 8.56826 4.2457 8.12484 4.57234L11.0933 2.8271ZM24.906 2.8271C25.4523 3.07616 25.9828 3.35385 26.4955 3.65826C26.9709 3.9405 27.4311 4.2457 27.8745 4.57234L24.906 2.8271ZM19.8718 1.43729C19.2573 1.36859 18.6326 1.33331 17.9997 1.33331C17.3668 1.33331 16.7421 1.36859 16.1276 1.43729H19.8718ZM19.8718 34.5626C20.4988 34.4926 21.1154 34.3877 21.7195 34.25C22.2971 34.1183 22.8633 33.9566 23.4163 33.7666L19.8718 34.5626ZM16.1276 34.5626C15.5005 34.4926 14.8839 34.3877 14.2798 34.25C13.7023 34.1183 13.136 33.9566 12.583 33.7666L16.1276 34.5626ZM4.79547 7.82873C4.47989 8.23781 4.18291 8.66198 3.90577 9.0999C3.65603 9.49456 3.42242 9.9004 3.20584 10.3166L4.79547 7.82873ZM31.2039 7.82873C31.5194 8.23781 31.8164 8.66198 32.0936 9.0999C32.3433 9.49456 32.5769 9.9004 32.7935 10.3166L31.2039 7.82873ZM3.20584 25.6834C2.96365 25.2181 2.74277 24.7398 2.5445 24.25C2.36259 23.8006 2.19972 23.3415 2.05687 22.8736L3.20584 25.6834ZM32.7935 25.6834C33.0357 25.2181 33.2566 24.7398 33.4548 24.25C33.6368 23.8006 33.7997 23.3415 33.9425 22.8736" fill="#21606A"/>
<path d="M12.47 9.66665C11.9098 10.0391 11.3893 10.4665 10.9163 10.9412C10.4198 11.4395 9.97542 11.9898 9.59226 12.5833M8.16426 19.8166C8.05617 19.2275 7.99967 18.6203 7.99967 18C7.99967 17.3796 8.05617 16.7725 8.16426 16.1834M12.47 26.3333C11.9098 25.9609 11.3893 25.5335 10.9163 25.0587C10.4198 24.5605 9.97542 24.0101 9.59226 23.4166M19.9662 27.8067C19.3303 27.9335 18.6728 28 17.9997 28C17.3265 28 16.6689 27.9335 16.0331 27.8067M23.5293 26.3333C24.0895 25.9609 24.61 25.5335 25.083 25.0587C25.5796 24.5605 26.0239 24.0101 26.4071 23.4166M27.8351 19.8166C27.9432 19.2275 27.9997 18.6203 27.9997 18C27.9997 17.3796 27.9432 16.7725 27.8351 16.1834M23.5293 9.66665C24.0895 10.0391 24.61 10.4665 25.083 10.9412C25.5796 11.4395 26.0239 11.9898 26.4071 12.5833M16.0331 8.19331C16.6689 8.06648 17.3265 7.99998 17.9996 7.99998C18.6728 7.99998 19.3303 8.06648 19.9662 8.19331M32.7935 25.6834C33.0357 25.2181 33.2566 24.7398 33.4548 24.25C33.6368 23.8006 33.7997 23.3415 33.9425 22.8736M17.9997 21.3333C19.8406 21.3333 21.333 19.8409 21.333 18C21.333 16.1591 19.8406 14.6666 17.9997 14.6666C16.1588 14.6666 14.6663 16.1591 14.6663 18C14.6663 19.8409 16.1588 21.3333 17.9997 21.3333ZM34.6663 18C34.6663 17.4375 34.6385 16.8815 34.584 16.3333C34.528 15.769 34.4438 15.213 34.3329 14.6666L34.6663 18ZM1.33301 18C1.33301 17.4375 1.36087 16.8815 1.4153 16.3333C1.47132 15.769 1.5555 15.213 1.6664 14.6666L1.33301 18ZM30.2047 29.3498C29.8303 29.7522 29.4362 30.1361 29.0239 30.5C28.655 30.8256 28.2715 31.1352 27.8745 31.4276L30.2047 29.3498ZM5.7947 29.3498C6.16911 29.7522 6.56317 30.1361 6.97542 30.5C7.34434 30.8256 7.72792 31.1352 8.12484 31.4276L5.7947 29.3498ZM11.0933 2.8271C10.5471 3.07616 10.0166 3.35385 9.50384 3.65826C9.02842 3.9405 8.56826 4.2457 8.12484 4.57234L11.0933 2.8271ZM24.906 2.8271C25.4523 3.07616 25.9828 3.35385 26.4955 3.65826C26.9709 3.9405 27.4311 4.2457 27.8745 4.57234L24.906 2.8271ZM19.8718 1.43729C19.2573 1.36859 18.6326 1.33331 17.9997 1.33331C17.3668 1.33331 16.7421 1.36859 16.1276 1.43729H19.8718ZM19.8718 34.5626C20.4988 34.4926 21.1154 34.3877 21.7195 34.25C22.2971 34.1183 22.8633 33.9566 23.4163 33.7666L19.8718 34.5626ZM16.1276 34.5626C15.5005 34.4926 14.8839 34.3877 14.2798 34.25C13.7023 34.1183 13.136 33.9566 12.583 33.7666L16.1276 34.5626ZM4.79547 7.82873C4.47989 8.23781 4.18291 8.66198 3.90577 9.0999C3.65603 9.49456 3.42242 9.9004 3.20584 10.3166L4.79547 7.82873ZM31.2039 7.82873C31.5194 8.23781 31.8164 8.66198 32.0936 9.0999C32.3433 9.49456 32.5769 9.9004 32.7935 10.3166L31.2039 7.82873ZM3.20584 25.6834C2.96365 25.2181 2.74277 24.7398 2.5445 24.25C2.36259 23.8006 2.19972 23.3415 2.05687 22.8736L3.20584 25.6834Z" stroke="#21606A" stroke-width="2.5" stroke-linecap="round" stroke-linejoin="round"/>
</svg>
