<svg width="32" height="32" viewBox="0 0 32 32" fill="none" xmlns="http://www.w3.org/2000/svg">
<path fill-rule="evenodd" clip-rule="evenodd" d="M0.416992 5.33333C0.416992 4.64298 0.976636 4.08333 1.66699 4.08333H16.667C17.3573 4.08333 17.917 4.64298 17.917 5.33333C17.917 6.02369 17.3573 6.58333 16.667 6.58333H2.91699V29.0833H25.417V15.3333C25.417 14.643 25.9766 14.0833 26.667 14.0833C27.3573 14.0833 27.917 14.643 27.917 15.3333V30.3333C27.917 31.0237 27.3573 31.5833 26.667 31.5833H1.66699C0.976636 31.5833 0.416992 31.0237 0.416992 30.3333V5.33333Z" fill="#21606A"/>
<path fill-rule="evenodd" clip-rule="evenodd" d="M26.667 3.25C25.5164 3.25 24.5837 4.18274 24.5837 5.33333C24.5837 6.48393 25.5164 7.41667 26.667 7.41667C27.8176 7.41667 28.7503 6.48393 28.7503 5.33333C28.7503 4.18274 27.8176 3.25 26.667 3.25ZM22.0837 5.33333C22.0837 2.80203 24.1357 0.75 26.667 0.75C29.1983 0.75 31.2503 2.80203 31.2503 5.33333C31.2503 7.86464 29.1983 9.91667 26.667 9.91667C24.1357 9.91667 22.0837 7.86464 22.0837 5.33333Z" fill="#21606A"/>
</svg>
