<svg width="36" height="36" viewBox="0 0 36 36" fill="none" xmlns="http://www.w3.org/2000/svg">
<path fill-rule="evenodd" clip-rule="evenodd" d="M13.8337 2.58337C8.08068 2.58337 3.41699 7.24706 3.41699 13C3.41699 18.753 8.08068 23.4167 13.8337 23.4167V25.9167C6.69997 25.9167 0.916992 20.1337 0.916992 13C0.916992 5.86635 6.69997 0.083374 13.8337 0.083374C20.9673 0.083374 26.7503 5.86635 26.7503 13H24.2503C24.2503 7.24706 19.5866 2.58337 13.8337 2.58337Z" fill="#21606A"/>
<path fill-rule="evenodd" clip-rule="evenodd" d="M11.7503 13C11.7503 12.3097 12.31 11.75 13.0003 11.75H34.667C35.3573 11.75 35.917 12.3097 35.917 13V34.6667C35.917 35.3571 35.3573 35.9167 34.667 35.9167H13.0003C12.31 35.9167 11.7503 35.3571 11.7503 34.6667V13ZM14.2503 14.25V33.4167H33.417V14.25H14.2503Z" fill="#21606A"/>
</svg>
