<svg width="36" height="32" viewBox="0 0 36 32" fill="none" xmlns="http://www.w3.org/2000/svg">
<path d="M12.1671 0.583374C12.6137 0.583374 13.0263 0.821623 13.2496 1.20838L18.0004 9.43703L22.7512 1.20838C22.9745 0.821624 23.3872 0.583375 23.8337 0.583374C24.2803 0.583374 24.693 0.821622 24.9163 1.20837L35.7416 19.9584C35.9649 20.3451 35.9649 20.8216 35.7416 21.2084C35.5183 21.5951 35.1057 21.8334 34.6591 21.8334H25.1687L29.9055 29.9535C30.131 30.3401 30.1326 30.8178 29.9097 31.2059C29.6867 31.5941 29.2733 31.8334 28.8257 31.8334H7.17515C6.72757 31.8334 6.31415 31.5941 6.09123 31.2059C5.8683 30.8178 5.86991 30.3401 6.09543 29.9535L10.8322 21.8334H1.3418C0.895215 21.8334 0.482557 21.5951 0.259266 21.2084C0.0359745 20.8216 0.0359739 20.3451 0.259264 19.9584L11.0845 1.20838C11.3078 0.821624 11.7205 0.583374 12.1671 0.583374ZM13.7265 21.8334L9.35145 29.3334H26.6494L22.2744 21.8334H13.7265ZM23.7141 19.3334H32.494L23.8337 4.33338L19.4438 11.937L23.7141 19.3334ZM16.557 11.937L12.1671 4.33338L3.50686 19.3334H12.2868L16.557 11.937ZM18.0004 14.437L15.1735 19.3334H20.8273L18.0004 14.437Z" fill="#21606A"/>
</svg>
