<svg width="36" height="36" viewBox="0 0 36 36" fill="none" xmlns="http://www.w3.org/2000/svg">
<path fill-rule="evenodd" clip-rule="evenodd" d="M29.8597 19.4733C30.3478 19.9614 30.3478 20.7529 29.8597 21.241L21.2403 29.8604C20.7522 30.3485 19.9607 30.3485 19.4726 29.8604C18.9844 29.3722 18.9844 28.5808 19.4726 28.0926L28.0919 19.4733C28.58 18.9851 29.3715 18.9851 29.8597 19.4733Z" fill="#21606A"/>
<path fill-rule="evenodd" clip-rule="evenodd" d="M16.5263 19.4733C17.0145 19.9614 17.0145 20.7529 16.5263 21.241L7.907 29.8604C7.41884 30.3485 6.62738 30.3485 6.13923 29.8604C5.65107 29.3722 5.65107 28.5808 6.13923 28.0926L14.7586 19.4733C15.2467 18.9851 16.0382 18.9851 16.5263 19.4733Z" fill="#21606A"/>
<path fill-rule="evenodd" clip-rule="evenodd" d="M29.8597 6.13994C30.3478 6.6281 30.3478 7.41955 29.8597 7.90771L21.2403 16.527C20.7522 17.0152 19.9607 17.0152 19.4726 16.527C18.9844 16.0389 18.9844 15.2474 19.4726 14.7593L28.0919 6.13994C28.58 5.65179 29.3715 5.65178 29.8597 6.13994Z" fill="#21606A"/>
<path fill-rule="evenodd" clip-rule="evenodd" d="M16.5263 6.13994C17.0145 6.6281 17.0145 7.41955 16.5263 7.90771L7.907 16.527C7.41884 17.0152 6.62738 17.0152 6.13923 16.527C5.65107 16.0389 5.65107 15.2474 6.13923 14.7593L14.7586 6.13994C15.2467 5.65178 16.0382 5.65178 16.5263 6.13994Z" fill="#21606A"/>
<path fill-rule="evenodd" clip-rule="evenodd" d="M4.66634 2.58331C3.51575 2.58331 2.58301 3.51605 2.58301 4.66665C2.58301 5.81721 3.51576 6.74998 4.66634 6.74998C5.8169 6.74998 6.74967 5.81721 6.74967 4.66665C6.74967 3.51606 5.81691 2.58331 4.66634 2.58331ZM0.0830078 4.66665C0.0830078 2.13534 2.13504 0.083313 4.66634 0.083313C7.19761 0.083313 9.24967 2.13533 9.24967 4.66665C9.24967 7.19792 7.19761 9.24998 4.66634 9.24998C2.13503 9.24998 0.0830078 7.19791 0.0830078 4.66665Z" fill="#21606A"/>
<path fill-rule="evenodd" clip-rule="evenodd" d="M17.9997 2.58331C16.8491 2.58331 15.9163 3.51606 15.9163 4.66665C15.9163 5.81721 16.8491 6.74998 17.9997 6.74998C19.1502 6.74998 20.083 5.81721 20.083 4.66665C20.083 3.51606 19.1502 2.58331 17.9997 2.58331ZM13.4163 4.66665C13.4163 2.13533 15.4684 0.083313 17.9997 0.083313C20.5309 0.083313 22.583 2.13533 22.583 4.66665C22.583 7.19792 20.5309 9.24998 17.9997 9.24998C15.4684 9.24998 13.4163 7.19792 13.4163 4.66665Z" fill="#21606A"/>
<path fill-rule="evenodd" clip-rule="evenodd" d="M31.333 2.58331C30.1824 2.58331 29.2497 3.51606 29.2497 4.66665C29.2497 5.81721 30.1824 6.74998 31.333 6.74998C32.4836 6.74998 33.4163 5.81721 33.4163 4.66665C33.4163 3.51606 32.4836 2.58331 31.333 2.58331ZM26.7497 4.66665C26.7497 2.13533 28.8017 0.083313 31.333 0.083313C33.8643 0.083313 35.9163 2.13533 35.9163 4.66665C35.9163 7.19792 33.8643 9.24998 31.333 9.24998C28.8017 9.24998 26.7497 7.19792 26.7497 4.66665Z" fill="#21606A"/>
<path fill-rule="evenodd" clip-rule="evenodd" d="M31.333 15.9166C30.1824 15.9166 29.2497 16.8494 29.2497 18C29.2497 19.1505 30.1824 20.0833 31.333 20.0833C32.4836 20.0833 33.4163 19.1505 33.4163 18C33.4163 16.8494 32.4836 15.9166 31.333 15.9166ZM26.7497 18C26.7497 15.4687 28.8017 13.4166 31.333 13.4166C33.8643 13.4166 35.9163 15.4687 35.9163 18C35.9163 20.5313 33.8643 22.5833 31.333 22.5833C28.8017 22.5833 26.7497 20.5313 26.7497 18Z" fill="#21606A"/>
<path fill-rule="evenodd" clip-rule="evenodd" d="M31.333 29.25C30.1824 29.25 29.2497 30.1828 29.2497 31.3333C29.2497 32.4839 30.1824 33.4166 31.333 33.4166C32.4836 33.4166 33.4163 32.4839 33.4163 31.3333C33.4163 30.1828 32.4836 29.25 31.333 29.25ZM26.7497 31.3333C26.7497 28.802 28.8017 26.75 31.333 26.75C33.8643 26.75 35.9163 28.802 35.9163 31.3333C35.9163 33.8646 33.8643 35.9166 31.333 35.9166C28.8017 35.9166 26.7497 33.8646 26.7497 31.3333Z" fill="#21606A"/>
<path fill-rule="evenodd" clip-rule="evenodd" d="M17.9997 29.25C16.8491 29.25 15.9163 30.1828 15.9163 31.3333C15.9163 32.4839 16.8491 33.4166 17.9997 33.4166C19.1502 33.4166 20.083 32.4839 20.083 31.3333C20.083 30.1828 19.1502 29.25 17.9997 29.25ZM13.4163 31.3333C13.4163 28.802 15.4684 26.75 17.9997 26.75C20.5309 26.75 22.583 28.802 22.583 31.3333C22.583 33.8646 20.5309 35.9166 17.9997 35.9166C15.4684 35.9166 13.4163 33.8646 13.4163 31.3333Z" fill="#21606A"/>
<path fill-rule="evenodd" clip-rule="evenodd" d="M4.66634 29.25C3.51576 29.25 2.58301 30.1827 2.58301 31.3333C2.58301 32.4839 3.51576 33.4166 4.66634 33.4166C5.8169 33.4166 6.74967 32.4839 6.74967 31.3333C6.74967 30.1828 5.8169 29.25 4.66634 29.25ZM0.0830078 31.3333C0.0830078 28.802 2.13503 26.75 4.66634 26.75C7.19761 26.75 9.24967 28.802 9.24967 31.3333C9.24967 33.8646 7.19761 35.9166 4.66634 35.9166C2.13503 35.9166 0.0830078 33.8646 0.0830078 31.3333Z" fill="#21606A"/>
<path fill-rule="evenodd" clip-rule="evenodd" d="M4.66634 15.9166C3.51576 15.9166 2.58301 16.8494 2.58301 18C2.58301 19.1505 3.51576 20.0833 4.66634 20.0833C5.8169 20.0833 6.74967 19.1505 6.74967 18C6.74967 16.8494 5.8169 15.9166 4.66634 15.9166ZM0.0830078 18C0.0830078 15.4687 2.13503 13.4166 4.66634 13.4166C7.19761 13.4166 9.24967 15.4687 9.24967 18C9.24967 20.5313 7.19761 22.5833 4.66634 22.5833C2.13503 22.5833 0.0830078 20.5312 0.0830078 18Z" fill="#21606A"/>
<path fill-rule="evenodd" clip-rule="evenodd" d="M17.9997 15.9166C16.8491 15.9166 15.9163 16.8494 15.9163 18C15.9163 19.1505 16.8491 20.0833 17.9997 20.0833C19.1502 20.0833 20.083 19.1505 20.083 18C20.083 16.8494 19.1502 15.9166 17.9997 15.9166ZM13.4163 18C13.4163 15.4687 15.4684 13.4166 17.9997 13.4166C20.5309 13.4166 22.583 15.4687 22.583 18C22.583 20.5313 20.5309 22.5833 17.9997 22.5833C15.4684 22.5833 13.4163 20.5313 13.4163 18Z" fill="#21606A"/>
</svg>
