<svg width="34" height="37" viewBox="0 0 34 37" fill="none" xmlns="http://www.w3.org/2000/svg">
<path fill-rule="evenodd" clip-rule="evenodd" d="M32.808 0.379548C33.0883 0.617052 33.25 0.965882 33.25 1.33332V7.16666C33.25 7.7777 32.8082 8.29919 32.2055 8.39965L2.2055 13.3996C1.84306 13.4601 1.4724 13.3579 1.19203 13.1204C0.911667 12.8829 0.75 12.5341 0.75 12.1667V6.33332C0.75 5.72227 1.19177 5.20079 1.7945 5.10033L31.7945 0.10033C32.1569 0.0399232 32.5276 0.142043 32.808 0.379548ZM3.25 7.39223V10.6911L30.75 6.10775V2.8089L3.25 7.39223Z" fill="#21606A"/>
<path fill-rule="evenodd" clip-rule="evenodd" d="M32.808 12.0462C33.0883 12.2837 33.25 12.6325 33.25 13V18.8333C33.25 19.4444 32.8082 19.9659 32.2055 20.0663L2.2055 25.0663C1.84306 25.1267 1.4724 25.0246 1.19203 24.7871C0.911667 24.5496 0.75 24.2008 0.75 23.8333V18C0.75 17.3889 1.19177 16.8675 1.7945 16.767L31.7945 11.767C32.1569 11.7066 32.5276 11.8087 32.808 12.0462ZM3.25 19.0589V22.3577L30.75 17.7744V14.4756L3.25 19.0589Z" fill="#21606A"/>
<path fill-rule="evenodd" clip-rule="evenodd" d="M32.808 23.7129C33.0883 23.9504 33.25 24.2992 33.25 24.6667V30.5C33.25 31.111 32.8082 31.6325 32.2055 31.733L2.2055 36.733C1.84306 36.7934 1.4724 36.6913 1.19203 36.4538C0.911667 36.2163 0.75 35.8674 0.75 35.5V29.6667C0.75 29.0556 1.19177 28.5341 1.7945 28.4337L31.7945 23.4337C32.1569 23.3733 32.5276 23.4754 32.808 23.7129ZM3.25 30.7256V34.0244L30.75 29.4411V26.1422L3.25 30.7256Z" fill="#21606A"/>
</svg>
