<svg width="79" height="114" viewBox="0 0 79 114" fill="none" xmlns="http://www.w3.org/2000/svg">
<path d="M7.36087 3.62331C7.36087 5.6244 5.73866 7.24661 3.73756 7.24661C1.73647 7.24661 0.114258 5.6244 0.114258 3.62331C0.114258 1.62221 1.73647 0 3.73756 0C5.73866 0 7.36087 1.62221 7.36087 3.62331Z" fill="#010914"/>
<path d="M42.7142 3.62331C42.7142 5.6244 41.092 7.24661 39.0909 7.24661C37.0898 7.24661 35.4676 5.6244 35.4676 3.62331C35.4676 1.62221 37.0898 0 39.0909 0C41.092 0 42.7142 1.62221 42.7142 3.62331Z" fill="#010914"/>
<path d="M78.0641 3.62331C78.0641 5.6244 76.4418 7.24661 74.4408 7.24661C72.4397 7.24661 70.8174 5.6244 70.8174 3.62331C70.8174 1.62221 72.4397 0 74.4408 0C76.4418 0 78.0641 1.62221 78.0641 3.62331Z" fill="#010914"/>
<path d="M7.36087 38.9749C7.36087 40.976 5.73866 42.5982 3.73756 42.5982C1.73647 42.5982 0.114258 40.976 0.114258 38.9749C0.114258 36.9738 1.73647 35.3516 3.73756 35.3516C5.73866 35.3516 7.36087 36.9738 7.36087 38.9749Z" fill="#010914"/>
<path d="M42.7142 38.9749C42.7142 40.976 41.092 42.5982 39.0909 42.5982C37.0898 42.5982 35.4676 40.976 35.4676 38.9749C35.4676 36.9738 37.0898 35.3516 39.0909 35.3516C41.092 35.3516 42.7142 36.9738 42.7142 38.9749Z" fill="#010914"/>
<path d="M78.0641 38.9749C78.0641 40.976 76.4418 42.5982 74.4408 42.5982C72.4397 42.5982 70.8174 40.976 70.8174 38.9749C70.8174 36.9738 72.4397 35.3516 74.4408 35.3516C76.4418 35.3516 78.0641 36.9738 78.0641 38.9749Z" fill="#010914"/>
<path d="M7.36087 74.3248C7.36087 76.3259 5.73866 77.9481 3.73756 77.9481C1.73647 77.9481 0.114258 76.3259 0.114258 74.3248C0.114258 72.3237 1.73647 70.7015 3.73756 70.7015C5.73866 70.7015 7.36087 72.3237 7.36087 74.3248Z" fill="#469AC1"/>
<path d="M42.7142 74.3248C42.7142 76.3259 41.092 77.9481 39.0909 77.9481C37.0898 77.9481 35.4676 76.3259 35.4676 74.3248C35.4676 72.3237 37.0898 70.7015 39.0909 70.7015C41.092 70.7015 42.7142 72.3237 42.7142 74.3248Z" fill="#469AC1"/>
<path d="M78.0641 74.3248C78.0641 76.3259 76.4418 77.9481 74.4408 77.9481C72.4397 77.9481 70.8174 76.3259 70.8174 74.3248C70.8174 72.3237 72.4397 70.7015 74.4408 70.7015C76.4418 70.7015 78.0641 72.3237 78.0641 74.3248Z" fill="#469AC1"/>
<path d="M7.36087 109.676C7.36087 111.677 5.73866 113.3 3.73756 113.3C1.73647 113.3 0.114258 111.677 0.114258 109.676C0.114258 107.675 1.73647 106.053 3.73756 106.053C5.73866 106.053 7.36087 107.675 7.36087 109.676Z" fill="#469AC1"/>
<path d="M42.7142 109.676C42.7142 111.677 41.092 113.3 39.0909 113.3C37.0898 113.3 35.4676 111.677 35.4676 109.676C35.4676 107.675 37.0898 106.053 39.0909 106.053C41.092 106.053 42.7142 107.675 42.7142 109.676Z" fill="#469AC1"/>
<path d="M78.0641 109.676C78.0641 111.677 76.4418 113.3 74.4408 113.3C72.4397 113.3 70.8174 111.677 70.8174 109.676C70.8174 107.675 72.4397 106.053 74.4408 106.053C76.4418 106.053 78.0641 107.675 78.0641 109.676Z" fill="#469AC1"/>
</svg>
