<svg width="258" height="258" viewBox="0 0 258 258" fill="none" xmlns="http://www.w3.org/2000/svg">
<path d="M248.642 60.6626C249.354 61.896 250.048 63.1415 250.722 64.3987C249.498 63.5974 248.679 62.2267 248.642 60.6626Z" fill="white"/>
<path d="M248.642 60.6626C249.354 61.896 250.048 63.1415 250.722 64.3987C249.498 63.5974 248.679 62.2267 248.642 60.6626Z" fill="url(#paint0_linear_140_135)"/>
<path d="M223.499 28.9603C225.639 30.9683 227.715 33.044 229.723 35.1837C228.946 36.6188 227.428 37.5936 225.681 37.5936C223.145 37.5936 221.089 35.5377 221.089 33.0016C221.089 31.2554 222.064 29.7368 223.499 28.9603Z" fill="white"/>
<path d="M223.499 28.9603C225.639 30.9683 227.715 33.044 229.723 35.1837C228.946 36.6188 227.428 37.5936 225.681 37.5936C223.145 37.5936 221.089 35.5377 221.089 33.0016C221.089 31.2554 222.064 29.7368 223.499 28.9603Z" fill="url(#paint1_linear_140_135)"/>
<path d="M194.284 7.96065C195.542 8.63515 196.787 9.32859 198.02 10.0406C196.456 10.0041 195.086 9.18547 194.284 7.96065Z" fill="white"/>
<path d="M194.284 7.96065C195.542 8.63515 196.787 9.32859 198.02 10.0406C196.456 10.0041 195.086 9.18547 194.284 7.96065Z" fill="url(#paint2_linear_140_135)"/>
<path d="M60.4804 10.0406C61.7138 9.32859 62.9594 8.63515 64.2166 7.96065C63.4152 9.18547 62.0445 10.0041 60.4804 10.0406Z" fill="white"/>
<path d="M60.4804 10.0406C61.7138 9.32859 62.9594 8.63515 64.2166 7.96065C63.4152 9.18547 62.0445 10.0041 60.4804 10.0406Z" fill="url(#paint3_linear_140_135)"/>
<path d="M28.7781 35.1837C30.7861 33.044 32.8618 30.9683 35.0016 28.9603C36.4366 29.7368 37.4114 31.2554 37.4114 33.0016C37.4114 35.5377 35.3555 37.5936 32.8194 37.5936C31.0732 37.5936 29.5546 36.6188 28.7781 35.1837Z" fill="white"/>
<path d="M28.7781 35.1837C30.7861 33.044 32.8618 30.9683 35.0016 28.9603C36.4366 29.7368 37.4114 31.2554 37.4114 33.0016C37.4114 35.5377 35.3555 37.5936 32.8194 37.5936C31.0732 37.5936 29.5546 36.6188 28.7781 35.1837Z" fill="url(#paint4_linear_140_135)"/>
<path d="M7.77846 64.3987C8.45296 63.1415 9.1464 61.896 9.85841 60.6626C9.8219 62.2267 9.00328 63.5974 7.77846 64.3987Z" fill="white"/>
<path d="M7.77846 64.3987C8.45296 63.1415 9.1464 61.896 9.85841 60.6626C9.8219 62.2267 9.00328 63.5974 7.77846 64.3987Z" fill="url(#paint5_linear_140_135)"/>
<path d="M250.722 194.467C250.048 195.724 249.354 196.969 248.642 198.203C248.679 196.639 249.498 195.268 250.722 194.467Z" fill="white"/>
<path d="M250.722 194.467C250.048 195.724 249.354 196.969 248.642 198.203C248.679 196.639 249.498 195.268 250.722 194.467Z" fill="url(#paint6_linear_140_135)"/>
<path d="M229.723 223.681C228.946 222.246 227.428 221.272 225.681 221.272C223.145 221.272 221.089 223.328 221.089 225.864C221.089 227.61 222.064 229.128 223.499 229.905C225.639 227.897 227.715 225.821 229.723 223.681Z" fill="white"/>
<path d="M229.723 223.681C228.946 222.246 227.428 221.272 225.681 221.272C223.145 221.272 221.089 223.328 221.089 225.864C221.089 227.61 222.064 229.128 223.499 229.905C225.639 227.897 227.715 225.821 229.723 223.681Z" fill="url(#paint7_linear_140_135)"/>
<path d="M198.02 248.825C196.456 248.861 195.086 249.68 194.284 250.905C195.542 250.23 196.787 249.537 198.02 248.825Z" fill="white"/>
<path d="M198.02 248.825C196.456 248.861 195.086 249.68 194.284 250.905C195.542 250.23 196.787 249.537 198.02 248.825Z" fill="url(#paint8_linear_140_135)"/>
<path d="M64.2166 250.905C63.4152 249.68 62.0445 248.861 60.4804 248.825C61.7138 249.537 62.9594 250.23 64.2166 250.905Z" fill="white"/>
<path d="M64.2166 250.905C63.4152 249.68 62.0445 248.861 60.4804 248.825C61.7138 249.537 62.9594 250.23 64.2166 250.905Z" fill="url(#paint9_linear_140_135)"/>
<path d="M35.0016 229.905C36.4366 229.128 37.4114 227.61 37.4114 225.864C37.4114 223.328 35.3555 221.272 32.8194 221.272C31.0732 221.272 29.5546 222.246 28.7781 223.681C30.7861 225.821 32.8618 227.897 35.0016 229.905Z" fill="white"/>
<path d="M35.0016 229.905C36.4366 229.128 37.4114 227.61 37.4114 225.864C37.4114 223.328 35.3555 221.272 32.8194 221.272C31.0732 221.272 29.5546 222.246 28.7781 223.681C30.7861 225.821 32.8618 227.897 35.0016 229.905Z" fill="url(#paint10_linear_140_135)"/>
<path d="M9.85841 198.203C9.8219 196.639 9.00328 195.268 7.77846 194.467C8.45296 195.724 9.1464 196.969 9.85841 198.203Z" fill="white"/>
<path d="M9.85841 198.203C9.8219 196.639 9.00328 195.268 7.77846 194.467C8.45296 195.724 9.1464 196.969 9.85841 198.203Z" fill="url(#paint11_linear_140_135)"/>
<path d="M92.5148 5.44992C92.5148 7.98599 90.4589 10.0419 87.9229 10.0419C85.3868 10.0419 83.3309 7.98599 83.3309 5.44992C83.3309 2.91386 85.3868 0.857971 87.9229 0.857971C90.4589 0.857971 92.5148 2.91386 92.5148 5.44992Z" fill="white"/>
<path d="M92.5148 5.44992C92.5148 7.98599 90.4589 10.0419 87.9229 10.0419C85.3868 10.0419 83.3309 7.98599 83.3309 5.44992C83.3309 2.91386 85.3868 0.857971 87.9229 0.857971C90.4589 0.857971 92.5148 2.91386 92.5148 5.44992Z" fill="url(#paint12_linear_140_135)"/>
<path d="M120.067 5.44992C120.067 7.98599 118.011 10.0419 115.475 10.0419C112.939 10.0419 110.883 7.98599 110.883 5.44992C110.883 2.91386 112.939 0.857971 115.475 0.857971C118.011 0.857971 120.067 2.91386 120.067 5.44992Z" fill="white"/>
<path d="M120.067 5.44992C120.067 7.98599 118.011 10.0419 115.475 10.0419C112.939 10.0419 110.883 7.98599 110.883 5.44992C110.883 2.91386 112.939 0.857971 115.475 0.857971C118.011 0.857971 120.067 2.91386 120.067 5.44992Z" fill="url(#paint13_linear_140_135)"/>
<path d="M147.618 5.44992C147.618 7.98599 145.562 10.0419 143.026 10.0419C140.49 10.0419 138.434 7.98599 138.434 5.44992C138.434 2.91386 140.49 0.857971 143.026 0.857971C145.562 0.857971 147.618 2.91386 147.618 5.44992Z" fill="white"/>
<path d="M147.618 5.44992C147.618 7.98599 145.562 10.0419 143.026 10.0419C140.49 10.0419 138.434 7.98599 138.434 5.44992C138.434 2.91386 140.49 0.857971 143.026 0.857971C145.562 0.857971 147.618 2.91386 147.618 5.44992Z" fill="url(#paint14_linear_140_135)"/>
<path d="M175.17 5.44992C175.17 7.98599 173.114 10.0419 170.578 10.0419C168.042 10.0419 165.986 7.98599 165.986 5.44992C165.986 2.91386 168.042 0.857971 170.578 0.857971C173.114 0.857971 175.17 2.91386 175.17 5.44992Z" fill="white"/>
<path d="M175.17 5.44992C175.17 7.98599 173.114 10.0419 170.578 10.0419C168.042 10.0419 165.986 7.98599 165.986 5.44992C165.986 2.91386 168.042 0.857971 170.578 0.857971C173.114 0.857971 175.17 2.91386 175.17 5.44992Z" fill="url(#paint15_linear_140_135)"/>
<path d="M64.9631 33.0016C64.9631 35.5377 62.9072 37.5936 60.3712 37.5936C57.8351 37.5936 55.7792 35.5377 55.7792 33.0016C55.7792 30.4656 57.8351 28.4097 60.3712 28.4097C62.9072 28.4097 64.9631 30.4656 64.9631 33.0016Z" fill="white"/>
<path d="M64.9631 33.0016C64.9631 35.5377 62.9072 37.5936 60.3712 37.5936C57.8351 37.5936 55.7792 35.5377 55.7792 33.0016C55.7792 30.4656 57.8351 28.4097 60.3712 28.4097C62.9072 28.4097 64.9631 30.4656 64.9631 33.0016Z" fill="url(#paint16_linear_140_135)"/>
<path d="M92.5148 33.0016C92.5148 35.5377 90.4589 37.5936 87.9229 37.5936C85.3868 37.5936 83.3309 35.5377 83.3309 33.0016C83.3309 30.4656 85.3868 28.4097 87.9229 28.4097C90.4589 28.4097 92.5148 30.4656 92.5148 33.0016Z" fill="white"/>
<path d="M92.5148 33.0016C92.5148 35.5377 90.4589 37.5936 87.9229 37.5936C85.3868 37.5936 83.3309 35.5377 83.3309 33.0016C83.3309 30.4656 85.3868 28.4097 87.9229 28.4097C90.4589 28.4097 92.5148 30.4656 92.5148 33.0016Z" fill="url(#paint17_linear_140_135)"/>
<path d="M120.067 33.0016C120.067 35.5377 118.011 37.5936 115.475 37.5936C112.939 37.5936 110.883 35.5377 110.883 33.0016C110.883 30.4656 112.939 28.4097 115.475 28.4097C118.011 28.4097 120.067 30.4656 120.067 33.0016Z" fill="white"/>
<path d="M120.067 33.0016C120.067 35.5377 118.011 37.5936 115.475 37.5936C112.939 37.5936 110.883 35.5377 110.883 33.0016C110.883 30.4656 112.939 28.4097 115.475 28.4097C118.011 28.4097 120.067 30.4656 120.067 33.0016Z" fill="url(#paint18_linear_140_135)"/>
<path d="M147.618 33.0016C147.618 35.5377 145.562 37.5936 143.026 37.5936C140.49 37.5936 138.434 35.5377 138.434 33.0016C138.434 30.4656 140.49 28.4097 143.026 28.4097C145.562 28.4097 147.618 30.4656 147.618 33.0016Z" fill="white"/>
<path d="M147.618 33.0016C147.618 35.5377 145.562 37.5936 143.026 37.5936C140.49 37.5936 138.434 35.5377 138.434 33.0016C138.434 30.4656 140.49 28.4097 143.026 28.4097C145.562 28.4097 147.618 30.4656 147.618 33.0016Z" fill="url(#paint19_linear_140_135)"/>
<path d="M175.17 33.0016C175.17 35.5377 173.114 37.5936 170.578 37.5936C168.042 37.5936 165.986 35.5377 165.986 33.0016C165.986 30.4656 168.042 28.4097 170.578 28.4097C173.114 28.4097 175.17 30.4656 175.17 33.0016Z" fill="white"/>
<path d="M175.17 33.0016C175.17 35.5377 173.114 37.5936 170.578 37.5936C168.042 37.5936 165.986 35.5377 165.986 33.0016C165.986 30.4656 168.042 28.4097 170.578 28.4097C173.114 28.4097 175.17 30.4656 175.17 33.0016Z" fill="url(#paint20_linear_140_135)"/>
<path d="M202.722 33.0016C202.722 35.5377 200.666 37.5936 198.13 37.5936C195.594 37.5936 193.538 35.5377 193.538 33.0016C193.538 30.4656 195.594 28.4097 198.13 28.4097C200.666 28.4097 202.722 30.4656 202.722 33.0016Z" fill="white"/>
<path d="M202.722 33.0016C202.722 35.5377 200.666 37.5936 198.13 37.5936C195.594 37.5936 193.538 35.5377 193.538 33.0016C193.538 30.4656 195.594 28.4097 198.13 28.4097C200.666 28.4097 202.722 30.4656 202.722 33.0016Z" fill="url(#paint21_linear_140_135)"/>
<path d="M37.4114 60.5533C37.4114 63.0894 35.3555 65.1453 32.8194 65.1453C30.2834 65.1453 28.2275 63.0894 28.2275 60.5533C28.2275 58.0173 30.2834 55.9614 32.8194 55.9614C35.3555 55.9614 37.4114 58.0173 37.4114 60.5533Z" fill="white"/>
<path d="M37.4114 60.5533C37.4114 63.0894 35.3555 65.1453 32.8194 65.1453C30.2834 65.1453 28.2275 63.0894 28.2275 60.5533C28.2275 58.0173 30.2834 55.9614 32.8194 55.9614C35.3555 55.9614 37.4114 58.0173 37.4114 60.5533Z" fill="url(#paint22_linear_140_135)"/>
<path d="M64.9631 60.5533C64.9631 63.0894 62.9072 65.1453 60.3712 65.1453C57.8351 65.1453 55.7792 63.0894 55.7792 60.5533C55.7792 58.0173 57.8351 55.9614 60.3712 55.9614C62.9072 55.9614 64.9631 58.0173 64.9631 60.5533Z" fill="white"/>
<path d="M64.9631 60.5533C64.9631 63.0894 62.9072 65.1453 60.3712 65.1453C57.8351 65.1453 55.7792 63.0894 55.7792 60.5533C55.7792 58.0173 57.8351 55.9614 60.3712 55.9614C62.9072 55.9614 64.9631 58.0173 64.9631 60.5533Z" fill="url(#paint23_linear_140_135)"/>
<path d="M92.5148 60.5533C92.5148 63.0894 90.4589 65.1453 87.9229 65.1453C85.3868 65.1453 83.3309 63.0894 83.3309 60.5533C83.3309 58.0173 85.3868 55.9614 87.9229 55.9614C90.4589 55.9614 92.5148 58.0173 92.5148 60.5533Z" fill="white"/>
<path d="M92.5148 60.5533C92.5148 63.0894 90.4589 65.1453 87.9229 65.1453C85.3868 65.1453 83.3309 63.0894 83.3309 60.5533C83.3309 58.0173 85.3868 55.9614 87.9229 55.9614C90.4589 55.9614 92.5148 58.0173 92.5148 60.5533Z" fill="url(#paint24_linear_140_135)"/>
<path d="M120.067 60.5533C120.067 63.0894 118.011 65.1453 115.475 65.1453C112.939 65.1453 110.883 63.0894 110.883 60.5533C110.883 58.0173 112.939 55.9614 115.475 55.9614C118.011 55.9614 120.067 58.0173 120.067 60.5533Z" fill="white"/>
<path d="M120.067 60.5533C120.067 63.0894 118.011 65.1453 115.475 65.1453C112.939 65.1453 110.883 63.0894 110.883 60.5533C110.883 58.0173 112.939 55.9614 115.475 55.9614C118.011 55.9614 120.067 58.0173 120.067 60.5533Z" fill="url(#paint25_linear_140_135)"/>
<path d="M147.618 60.5533C147.618 63.0894 145.562 65.1453 143.026 65.1453C140.49 65.1453 138.434 63.0894 138.434 60.5533C138.434 58.0173 140.49 55.9614 143.026 55.9614C145.562 55.9614 147.618 58.0173 147.618 60.5533Z" fill="white"/>
<path d="M147.618 60.5533C147.618 63.0894 145.562 65.1453 143.026 65.1453C140.49 65.1453 138.434 63.0894 138.434 60.5533C138.434 58.0173 140.49 55.9614 143.026 55.9614C145.562 55.9614 147.618 58.0173 147.618 60.5533Z" fill="url(#paint26_linear_140_135)"/>
<path d="M175.17 60.5533C175.17 63.0894 173.114 65.1453 170.578 65.1453C168.042 65.1453 165.986 63.0894 165.986 60.5533C165.986 58.0173 168.042 55.9614 170.578 55.9614C173.114 55.9614 175.17 58.0173 175.17 60.5533Z" fill="white"/>
<path d="M175.17 60.5533C175.17 63.0894 173.114 65.1453 170.578 65.1453C168.042 65.1453 165.986 63.0894 165.986 60.5533C165.986 58.0173 168.042 55.9614 170.578 55.9614C173.114 55.9614 175.17 58.0173 175.17 60.5533Z" fill="url(#paint27_linear_140_135)"/>
<path d="M202.722 60.5533C202.722 63.0894 200.666 65.1453 198.13 65.1453C195.594 65.1453 193.538 63.0894 193.538 60.5533C193.538 58.0173 195.594 55.9614 198.13 55.9614C200.666 55.9614 202.722 58.0173 202.722 60.5533Z" fill="white"/>
<path d="M202.722 60.5533C202.722 63.0894 200.666 65.1453 198.13 65.1453C195.594 65.1453 193.538 63.0894 193.538 60.5533C193.538 58.0173 195.594 55.9614 198.13 55.9614C200.666 55.9614 202.722 58.0173 202.722 60.5533Z" fill="url(#paint28_linear_140_135)"/>
<path d="M230.273 60.5533C230.273 63.0894 228.217 65.1453 225.681 65.1453C223.145 65.1453 221.089 63.0894 221.089 60.5533C221.089 58.0173 223.145 55.9614 225.681 55.9614C228.217 55.9614 230.273 58.0173 230.273 60.5533Z" fill="white"/>
<path d="M230.273 60.5533C230.273 63.0894 228.217 65.1453 225.681 65.1453C223.145 65.1453 221.089 63.0894 221.089 60.5533C221.089 58.0173 223.145 55.9614 225.681 55.9614C228.217 55.9614 230.273 58.0173 230.273 60.5533Z" fill="url(#paint29_linear_140_135)"/>
<path d="M9.85968 88.1051C9.85968 90.6411 7.8038 92.697 5.26773 92.697C2.73167 92.697 0.675781 90.6411 0.675781 88.1051C0.675781 85.569 2.73167 83.5131 5.26773 83.5131C7.8038 83.5131 9.85968 85.569 9.85968 88.1051Z" fill="white"/>
<path d="M9.85968 88.1051C9.85968 90.6411 7.8038 92.697 5.26773 92.697C2.73167 92.697 0.675781 90.6411 0.675781 88.1051C0.675781 85.569 2.73167 83.5131 5.26773 83.5131C7.8038 83.5131 9.85968 85.569 9.85968 88.1051Z" fill="url(#paint30_linear_140_135)"/>
<path d="M37.4114 88.1051C37.4114 90.6411 35.3555 92.697 32.8194 92.697C30.2834 92.697 28.2275 90.6411 28.2275 88.1051C28.2275 85.569 30.2834 83.5131 32.8194 83.5131C35.3555 83.5131 37.4114 85.569 37.4114 88.1051Z" fill="white"/>
<path d="M37.4114 88.1051C37.4114 90.6411 35.3555 92.697 32.8194 92.697C30.2834 92.697 28.2275 90.6411 28.2275 88.1051C28.2275 85.569 30.2834 83.5131 32.8194 83.5131C35.3555 83.5131 37.4114 85.569 37.4114 88.1051Z" fill="url(#paint31_linear_140_135)"/>
<path d="M64.9631 88.1051C64.9631 90.6411 62.9072 92.697 60.3712 92.697C57.8351 92.697 55.7792 90.6411 55.7792 88.1051C55.7792 85.569 57.8351 83.5131 60.3712 83.5131C62.9072 83.5131 64.9631 85.569 64.9631 88.1051Z" fill="white"/>
<path d="M64.9631 88.1051C64.9631 90.6411 62.9072 92.697 60.3712 92.697C57.8351 92.697 55.7792 90.6411 55.7792 88.1051C55.7792 85.569 57.8351 83.5131 60.3712 83.5131C62.9072 83.5131 64.9631 85.569 64.9631 88.1051Z" fill="url(#paint32_linear_140_135)"/>
<path d="M92.5148 88.1051C92.5148 90.6411 90.4589 92.697 87.9229 92.697C85.3868 92.697 83.3309 90.6411 83.3309 88.1051C83.3309 85.569 85.3868 83.5131 87.9229 83.5131C90.4589 83.5131 92.5148 85.569 92.5148 88.1051Z" fill="white"/>
<path d="M92.5148 88.1051C92.5148 90.6411 90.4589 92.697 87.9229 92.697C85.3868 92.697 83.3309 90.6411 83.3309 88.1051C83.3309 85.569 85.3868 83.5131 87.9229 83.5131C90.4589 83.5131 92.5148 85.569 92.5148 88.1051Z" fill="url(#paint33_linear_140_135)"/>
<path d="M120.067 88.1051C120.067 90.6411 118.011 92.697 115.475 92.697C112.939 92.697 110.883 90.6411 110.883 88.1051C110.883 85.569 112.939 83.5131 115.475 83.5131C118.011 83.5131 120.067 85.569 120.067 88.1051Z" fill="white"/>
<path d="M120.067 88.1051C120.067 90.6411 118.011 92.697 115.475 92.697C112.939 92.697 110.883 90.6411 110.883 88.1051C110.883 85.569 112.939 83.5131 115.475 83.5131C118.011 83.5131 120.067 85.569 120.067 88.1051Z" fill="url(#paint34_linear_140_135)"/>
<path d="M147.618 88.1051C147.618 90.6411 145.562 92.697 143.026 92.697C140.49 92.697 138.434 90.6411 138.434 88.1051C138.434 85.569 140.49 83.5131 143.026 83.5131C145.562 83.5131 147.618 85.569 147.618 88.1051Z" fill="white"/>
<path d="M147.618 88.1051C147.618 90.6411 145.562 92.697 143.026 92.697C140.49 92.697 138.434 90.6411 138.434 88.1051C138.434 85.569 140.49 83.5131 143.026 83.5131C145.562 83.5131 147.618 85.569 147.618 88.1051Z" fill="url(#paint35_linear_140_135)"/>
<path d="M175.17 88.1051C175.17 90.6411 173.114 92.697 170.578 92.697C168.042 92.697 165.986 90.6411 165.986 88.1051C165.986 85.569 168.042 83.5131 170.578 83.5131C173.114 83.5131 175.17 85.569 175.17 88.1051Z" fill="white"/>
<path d="M175.17 88.1051C175.17 90.6411 173.114 92.697 170.578 92.697C168.042 92.697 165.986 90.6411 165.986 88.1051C165.986 85.569 168.042 83.5131 170.578 83.5131C173.114 83.5131 175.17 85.569 175.17 88.1051Z" fill="url(#paint36_linear_140_135)"/>
<path d="M202.722 88.1051C202.722 90.6411 200.666 92.697 198.13 92.697C195.594 92.697 193.538 90.6411 193.538 88.1051C193.538 85.569 195.594 83.5131 198.13 83.5131C200.666 83.5131 202.722 85.569 202.722 88.1051Z" fill="white"/>
<path d="M202.722 88.1051C202.722 90.6411 200.666 92.697 198.13 92.697C195.594 92.697 193.538 90.6411 193.538 88.1051C193.538 85.569 195.594 83.5131 198.13 83.5131C200.666 83.5131 202.722 85.569 202.722 88.1051Z" fill="url(#paint37_linear_140_135)"/>
<path d="M230.273 88.1051C230.273 90.6411 228.217 92.697 225.681 92.697C223.145 92.697 221.089 90.6411 221.089 88.1051C221.089 85.569 223.145 83.5131 225.681 83.5131C228.217 83.5131 230.273 85.569 230.273 88.1051Z" fill="white"/>
<path d="M230.273 88.1051C230.273 90.6411 228.217 92.697 225.681 92.697C223.145 92.697 221.089 90.6411 221.089 88.1051C221.089 85.569 223.145 83.5131 225.681 83.5131C228.217 83.5131 230.273 85.569 230.273 88.1051Z" fill="url(#paint38_linear_140_135)"/>
<path d="M257.825 88.1051C257.825 90.6411 255.769 92.697 253.233 92.697C250.697 92.697 248.641 90.6411 248.641 88.1051C248.641 85.569 250.697 83.5131 253.233 83.5131C255.769 83.5131 257.825 85.569 257.825 88.1051Z" fill="white"/>
<path d="M257.825 88.1051C257.825 90.6411 255.769 92.697 253.233 92.697C250.697 92.697 248.641 90.6411 248.641 88.1051C248.641 85.569 250.697 83.5131 253.233 83.5131C255.769 83.5131 257.825 85.569 257.825 88.1051Z" fill="url(#paint39_linear_140_135)"/>
<path d="M9.85968 115.657C9.85968 118.193 7.8038 120.249 5.26773 120.249C2.73167 120.249 0.675781 118.193 0.675781 115.657C0.675781 113.121 2.73167 111.065 5.26773 111.065C7.8038 111.065 9.85968 113.121 9.85968 115.657Z" fill="white"/>
<path d="M9.85968 115.657C9.85968 118.193 7.8038 120.249 5.26773 120.249C2.73167 120.249 0.675781 118.193 0.675781 115.657C0.675781 113.121 2.73167 111.065 5.26773 111.065C7.8038 111.065 9.85968 113.121 9.85968 115.657Z" fill="url(#paint40_linear_140_135)"/>
<path d="M37.4114 115.657C37.4114 118.193 35.3555 120.249 32.8194 120.249C30.2834 120.249 28.2275 118.193 28.2275 115.657C28.2275 113.121 30.2834 111.065 32.8194 111.065C35.3555 111.065 37.4114 113.121 37.4114 115.657Z" fill="white"/>
<path d="M37.4114 115.657C37.4114 118.193 35.3555 120.249 32.8194 120.249C30.2834 120.249 28.2275 118.193 28.2275 115.657C28.2275 113.121 30.2834 111.065 32.8194 111.065C35.3555 111.065 37.4114 113.121 37.4114 115.657Z" fill="url(#paint41_linear_140_135)"/>
<path d="M64.9631 115.657C64.9631 118.193 62.9072 120.249 60.3712 120.249C57.8351 120.249 55.7792 118.193 55.7792 115.657C55.7792 113.121 57.8351 111.065 60.3712 111.065C62.9072 111.065 64.9631 113.121 64.9631 115.657Z" fill="white"/>
<path d="M64.9631 115.657C64.9631 118.193 62.9072 120.249 60.3712 120.249C57.8351 120.249 55.7792 118.193 55.7792 115.657C55.7792 113.121 57.8351 111.065 60.3712 111.065C62.9072 111.065 64.9631 113.121 64.9631 115.657Z" fill="url(#paint42_linear_140_135)"/>
<path d="M92.5148 115.657C92.5148 118.193 90.4589 120.249 87.9229 120.249C85.3868 120.249 83.3309 118.193 83.3309 115.657C83.3309 113.121 85.3868 111.065 87.9229 111.065C90.4589 111.065 92.5148 113.121 92.5148 115.657Z" fill="white"/>
<path d="M92.5148 115.657C92.5148 118.193 90.4589 120.249 87.9229 120.249C85.3868 120.249 83.3309 118.193 83.3309 115.657C83.3309 113.121 85.3868 111.065 87.9229 111.065C90.4589 111.065 92.5148 113.121 92.5148 115.657Z" fill="url(#paint43_linear_140_135)"/>
<path d="M120.067 115.657C120.067 118.193 118.011 120.249 115.475 120.249C112.939 120.249 110.883 118.193 110.883 115.657C110.883 113.121 112.939 111.065 115.475 111.065C118.011 111.065 120.067 113.121 120.067 115.657Z" fill="white"/>
<path d="M120.067 115.657C120.067 118.193 118.011 120.249 115.475 120.249C112.939 120.249 110.883 118.193 110.883 115.657C110.883 113.121 112.939 111.065 115.475 111.065C118.011 111.065 120.067 113.121 120.067 115.657Z" fill="url(#paint44_linear_140_135)"/>
<path d="M147.618 115.657C147.618 118.193 145.562 120.249 143.026 120.249C140.49 120.249 138.434 118.193 138.434 115.657C138.434 113.121 140.49 111.065 143.026 111.065C145.562 111.065 147.618 113.121 147.618 115.657Z" fill="white"/>
<path d="M147.618 115.657C147.618 118.193 145.562 120.249 143.026 120.249C140.49 120.249 138.434 118.193 138.434 115.657C138.434 113.121 140.49 111.065 143.026 111.065C145.562 111.065 147.618 113.121 147.618 115.657Z" fill="url(#paint45_linear_140_135)"/>
<path d="M175.17 115.657C175.17 118.193 173.114 120.249 170.578 120.249C168.042 120.249 165.986 118.193 165.986 115.657C165.986 113.121 168.042 111.065 170.578 111.065C173.114 111.065 175.17 113.121 175.17 115.657Z" fill="white"/>
<path d="M175.17 115.657C175.17 118.193 173.114 120.249 170.578 120.249C168.042 120.249 165.986 118.193 165.986 115.657C165.986 113.121 168.042 111.065 170.578 111.065C173.114 111.065 175.17 113.121 175.17 115.657Z" fill="url(#paint46_linear_140_135)"/>
<path d="M202.722 115.657C202.722 118.193 200.666 120.249 198.13 120.249C195.594 120.249 193.538 118.193 193.538 115.657C193.538 113.121 195.594 111.065 198.13 111.065C200.666 111.065 202.722 113.121 202.722 115.657Z" fill="white"/>
<path d="M202.722 115.657C202.722 118.193 200.666 120.249 198.13 120.249C195.594 120.249 193.538 118.193 193.538 115.657C193.538 113.121 195.594 111.065 198.13 111.065C200.666 111.065 202.722 113.121 202.722 115.657Z" fill="url(#paint47_linear_140_135)"/>
<path d="M230.273 115.657C230.273 118.193 228.217 120.249 225.681 120.249C223.145 120.249 221.089 118.193 221.089 115.657C221.089 113.121 223.145 111.065 225.681 111.065C228.217 111.065 230.273 113.121 230.273 115.657Z" fill="white"/>
<path d="M230.273 115.657C230.273 118.193 228.217 120.249 225.681 120.249C223.145 120.249 221.089 118.193 221.089 115.657C221.089 113.121 223.145 111.065 225.681 111.065C228.217 111.065 230.273 113.121 230.273 115.657Z" fill="url(#paint48_linear_140_135)"/>
<path d="M257.825 115.657C257.825 118.193 255.769 120.249 253.233 120.249C250.697 120.249 248.641 118.193 248.641 115.657C248.641 113.121 250.697 111.065 253.233 111.065C255.769 111.065 257.825 113.121 257.825 115.657Z" fill="white"/>
<path d="M257.825 115.657C257.825 118.193 255.769 120.249 253.233 120.249C250.697 120.249 248.641 118.193 248.641 115.657C248.641 113.121 250.697 111.065 253.233 111.065C255.769 111.065 257.825 113.121 257.825 115.657Z" fill="url(#paint49_linear_140_135)"/>
<path d="M9.85968 143.208C9.85968 145.745 7.8038 147.8 5.26773 147.8C2.73167 147.8 0.675781 145.745 0.675781 143.208C0.675781 140.672 2.73167 138.617 5.26773 138.617C7.8038 138.617 9.85968 140.672 9.85968 143.208Z" fill="white"/>
<path d="M9.85968 143.208C9.85968 145.745 7.8038 147.8 5.26773 147.8C2.73167 147.8 0.675781 145.745 0.675781 143.208C0.675781 140.672 2.73167 138.617 5.26773 138.617C7.8038 138.617 9.85968 140.672 9.85968 143.208Z" fill="url(#paint50_linear_140_135)"/>
<path d="M37.4114 143.208C37.4114 145.745 35.3555 147.8 32.8194 147.8C30.2834 147.8 28.2275 145.745 28.2275 143.208C28.2275 140.672 30.2834 138.617 32.8194 138.617C35.3555 138.617 37.4114 140.672 37.4114 143.208Z" fill="white"/>
<path d="M37.4114 143.208C37.4114 145.745 35.3555 147.8 32.8194 147.8C30.2834 147.8 28.2275 145.745 28.2275 143.208C28.2275 140.672 30.2834 138.617 32.8194 138.617C35.3555 138.617 37.4114 140.672 37.4114 143.208Z" fill="url(#paint51_linear_140_135)"/>
<path d="M64.9631 143.208C64.9631 145.745 62.9072 147.8 60.3712 147.8C57.8351 147.8 55.7792 145.745 55.7792 143.208C55.7792 140.672 57.8351 138.617 60.3712 138.617C62.9072 138.617 64.9631 140.672 64.9631 143.208Z" fill="white"/>
<path d="M64.9631 143.208C64.9631 145.745 62.9072 147.8 60.3712 147.8C57.8351 147.8 55.7792 145.745 55.7792 143.208C55.7792 140.672 57.8351 138.617 60.3712 138.617C62.9072 138.617 64.9631 140.672 64.9631 143.208Z" fill="url(#paint52_linear_140_135)"/>
<path d="M92.5148 143.208C92.5148 145.745 90.4589 147.8 87.9229 147.8C85.3868 147.8 83.3309 145.745 83.3309 143.208C83.3309 140.672 85.3868 138.617 87.9229 138.617C90.4589 138.617 92.5148 140.672 92.5148 143.208Z" fill="white"/>
<path d="M92.5148 143.208C92.5148 145.745 90.4589 147.8 87.9229 147.8C85.3868 147.8 83.3309 145.745 83.3309 143.208C83.3309 140.672 85.3868 138.617 87.9229 138.617C90.4589 138.617 92.5148 140.672 92.5148 143.208Z" fill="url(#paint53_linear_140_135)"/>
<path d="M120.067 143.208C120.067 145.745 118.011 147.8 115.475 147.8C112.939 147.8 110.883 145.745 110.883 143.208C110.883 140.672 112.939 138.617 115.475 138.617C118.011 138.617 120.067 140.672 120.067 143.208Z" fill="white"/>
<path d="M120.067 143.208C120.067 145.745 118.011 147.8 115.475 147.8C112.939 147.8 110.883 145.745 110.883 143.208C110.883 140.672 112.939 138.617 115.475 138.617C118.011 138.617 120.067 140.672 120.067 143.208Z" fill="url(#paint54_linear_140_135)"/>
<path d="M147.618 143.208C147.618 145.745 145.562 147.8 143.026 147.8C140.49 147.8 138.434 145.745 138.434 143.208C138.434 140.672 140.49 138.617 143.026 138.617C145.562 138.617 147.618 140.672 147.618 143.208Z" fill="white"/>
<path d="M147.618 143.208C147.618 145.745 145.562 147.8 143.026 147.8C140.49 147.8 138.434 145.745 138.434 143.208C138.434 140.672 140.49 138.617 143.026 138.617C145.562 138.617 147.618 140.672 147.618 143.208Z" fill="url(#paint55_linear_140_135)"/>
<path d="M175.17 143.208C175.17 145.745 173.114 147.8 170.578 147.8C168.042 147.8 165.986 145.745 165.986 143.208C165.986 140.672 168.042 138.617 170.578 138.617C173.114 138.617 175.17 140.672 175.17 143.208Z" fill="white"/>
<path d="M175.17 143.208C175.17 145.745 173.114 147.8 170.578 147.8C168.042 147.8 165.986 145.745 165.986 143.208C165.986 140.672 168.042 138.617 170.578 138.617C173.114 138.617 175.17 140.672 175.17 143.208Z" fill="url(#paint56_linear_140_135)"/>
<path d="M202.722 143.208C202.722 145.745 200.666 147.8 198.13 147.8C195.594 147.8 193.538 145.745 193.538 143.208C193.538 140.672 195.594 138.617 198.13 138.617C200.666 138.617 202.722 140.672 202.722 143.208Z" fill="white"/>
<path d="M202.722 143.208C202.722 145.745 200.666 147.8 198.13 147.8C195.594 147.8 193.538 145.745 193.538 143.208C193.538 140.672 195.594 138.617 198.13 138.617C200.666 138.617 202.722 140.672 202.722 143.208Z" fill="url(#paint57_linear_140_135)"/>
<path d="M230.273 143.208C230.273 145.745 228.217 147.8 225.681 147.8C223.145 147.8 221.089 145.745 221.089 143.208C221.089 140.672 223.145 138.617 225.681 138.617C228.217 138.617 230.273 140.672 230.273 143.208Z" fill="white"/>
<path d="M230.273 143.208C230.273 145.745 228.217 147.8 225.681 147.8C223.145 147.8 221.089 145.745 221.089 143.208C221.089 140.672 223.145 138.617 225.681 138.617C228.217 138.617 230.273 140.672 230.273 143.208Z" fill="url(#paint58_linear_140_135)"/>
<path d="M257.825 143.208C257.825 145.745 255.769 147.8 253.233 147.8C250.697 147.8 248.641 145.745 248.641 143.208C248.641 140.672 250.697 138.617 253.233 138.617C255.769 138.617 257.825 140.672 257.825 143.208Z" fill="white"/>
<path d="M257.825 143.208C257.825 145.745 255.769 147.8 253.233 147.8C250.697 147.8 248.641 145.745 248.641 143.208C248.641 140.672 250.697 138.617 253.233 138.617C255.769 138.617 257.825 140.672 257.825 143.208Z" fill="url(#paint59_linear_140_135)"/>
<path d="M9.85968 170.76C9.85968 173.296 7.8038 175.352 5.26773 175.352C2.73167 175.352 0.675781 173.296 0.675781 170.76C0.675781 168.224 2.73167 166.168 5.26773 166.168C7.8038 166.168 9.85968 168.224 9.85968 170.76Z" fill="white"/>
<path d="M9.85968 170.76C9.85968 173.296 7.8038 175.352 5.26773 175.352C2.73167 175.352 0.675781 173.296 0.675781 170.76C0.675781 168.224 2.73167 166.168 5.26773 166.168C7.8038 166.168 9.85968 168.224 9.85968 170.76Z" fill="url(#paint60_linear_140_135)"/>
<path d="M37.4114 170.76C37.4114 173.296 35.3555 175.352 32.8194 175.352C30.2834 175.352 28.2275 173.296 28.2275 170.76C28.2275 168.224 30.2834 166.168 32.8194 166.168C35.3555 166.168 37.4114 168.224 37.4114 170.76Z" fill="white"/>
<path d="M37.4114 170.76C37.4114 173.296 35.3555 175.352 32.8194 175.352C30.2834 175.352 28.2275 173.296 28.2275 170.76C28.2275 168.224 30.2834 166.168 32.8194 166.168C35.3555 166.168 37.4114 168.224 37.4114 170.76Z" fill="url(#paint61_linear_140_135)"/>
<path d="M64.9631 170.76C64.9631 173.296 62.9072 175.352 60.3712 175.352C57.8351 175.352 55.7792 173.296 55.7792 170.76C55.7792 168.224 57.8351 166.168 60.3712 166.168C62.9072 166.168 64.9631 168.224 64.9631 170.76Z" fill="white"/>
<path d="M64.9631 170.76C64.9631 173.296 62.9072 175.352 60.3712 175.352C57.8351 175.352 55.7792 173.296 55.7792 170.76C55.7792 168.224 57.8351 166.168 60.3712 166.168C62.9072 166.168 64.9631 168.224 64.9631 170.76Z" fill="url(#paint62_linear_140_135)"/>
<path d="M92.5148 170.76C92.5148 173.296 90.4589 175.352 87.9229 175.352C85.3868 175.352 83.3309 173.296 83.3309 170.76C83.3309 168.224 85.3868 166.168 87.9229 166.168C90.4589 166.168 92.5148 168.224 92.5148 170.76Z" fill="white"/>
<path d="M92.5148 170.76C92.5148 173.296 90.4589 175.352 87.9229 175.352C85.3868 175.352 83.3309 173.296 83.3309 170.76C83.3309 168.224 85.3868 166.168 87.9229 166.168C90.4589 166.168 92.5148 168.224 92.5148 170.76Z" fill="url(#paint63_linear_140_135)"/>
<path d="M120.067 170.76C120.067 173.296 118.011 175.352 115.475 175.352C112.939 175.352 110.883 173.296 110.883 170.76C110.883 168.224 112.939 166.168 115.475 166.168C118.011 166.168 120.067 168.224 120.067 170.76Z" fill="white"/>
<path d="M120.067 170.76C120.067 173.296 118.011 175.352 115.475 175.352C112.939 175.352 110.883 173.296 110.883 170.76C110.883 168.224 112.939 166.168 115.475 166.168C118.011 166.168 120.067 168.224 120.067 170.76Z" fill="url(#paint64_linear_140_135)"/>
<path d="M147.618 170.76C147.618 173.296 145.562 175.352 143.026 175.352C140.49 175.352 138.434 173.296 138.434 170.76C138.434 168.224 140.49 166.168 143.026 166.168C145.562 166.168 147.618 168.224 147.618 170.76Z" fill="white"/>
<path d="M147.618 170.76C147.618 173.296 145.562 175.352 143.026 175.352C140.49 175.352 138.434 173.296 138.434 170.76C138.434 168.224 140.49 166.168 143.026 166.168C145.562 166.168 147.618 168.224 147.618 170.76Z" fill="url(#paint65_linear_140_135)"/>
<path d="M175.17 170.76C175.17 173.296 173.114 175.352 170.578 175.352C168.042 175.352 165.986 173.296 165.986 170.76C165.986 168.224 168.042 166.168 170.578 166.168C173.114 166.168 175.17 168.224 175.17 170.76Z" fill="white"/>
<path d="M175.17 170.76C175.17 173.296 173.114 175.352 170.578 175.352C168.042 175.352 165.986 173.296 165.986 170.76C165.986 168.224 168.042 166.168 170.578 166.168C173.114 166.168 175.17 168.224 175.17 170.76Z" fill="url(#paint66_linear_140_135)"/>
<path d="M202.722 170.76C202.722 173.296 200.666 175.352 198.13 175.352C195.594 175.352 193.538 173.296 193.538 170.76C193.538 168.224 195.594 166.168 198.13 166.168C200.666 166.168 202.722 168.224 202.722 170.76Z" fill="white"/>
<path d="M202.722 170.76C202.722 173.296 200.666 175.352 198.13 175.352C195.594 175.352 193.538 173.296 193.538 170.76C193.538 168.224 195.594 166.168 198.13 166.168C200.666 166.168 202.722 168.224 202.722 170.76Z" fill="url(#paint67_linear_140_135)"/>
<path d="M230.273 170.76C230.273 173.296 228.217 175.352 225.681 175.352C223.145 175.352 221.089 173.296 221.089 170.76C221.089 168.224 223.145 166.168 225.681 166.168C228.217 166.168 230.273 168.224 230.273 170.76Z" fill="white"/>
<path d="M230.273 170.76C230.273 173.296 228.217 175.352 225.681 175.352C223.145 175.352 221.089 173.296 221.089 170.76C221.089 168.224 223.145 166.168 225.681 166.168C228.217 166.168 230.273 168.224 230.273 170.76Z" fill="url(#paint68_linear_140_135)"/>
<path d="M257.825 170.76C257.825 173.296 255.769 175.352 253.233 175.352C250.697 175.352 248.641 173.296 248.641 170.76C248.641 168.224 250.697 166.168 253.233 166.168C255.769 166.168 257.825 168.224 257.825 170.76Z" fill="white"/>
<path d="M257.825 170.76C257.825 173.296 255.769 175.352 253.233 175.352C250.697 175.352 248.641 173.296 248.641 170.76C248.641 168.224 250.697 166.168 253.233 166.168C255.769 166.168 257.825 168.224 257.825 170.76Z" fill="url(#paint69_linear_140_135)"/>
<path d="M37.4114 198.312C37.4114 200.848 35.3555 202.904 32.8194 202.904C30.2834 202.904 28.2275 200.848 28.2275 198.312C28.2275 195.776 30.2834 193.72 32.8194 193.72C35.3555 193.72 37.4114 195.776 37.4114 198.312Z" fill="white"/>
<path d="M37.4114 198.312C37.4114 200.848 35.3555 202.904 32.8194 202.904C30.2834 202.904 28.2275 200.848 28.2275 198.312C28.2275 195.776 30.2834 193.72 32.8194 193.72C35.3555 193.72 37.4114 195.776 37.4114 198.312Z" fill="url(#paint70_linear_140_135)"/>
<path d="M64.9631 198.312C64.9631 200.848 62.9072 202.904 60.3712 202.904C57.8351 202.904 55.7792 200.848 55.7792 198.312C55.7792 195.776 57.8351 193.72 60.3712 193.72C62.9072 193.72 64.9631 195.776 64.9631 198.312Z" fill="white"/>
<path d="M64.9631 198.312C64.9631 200.848 62.9072 202.904 60.3712 202.904C57.8351 202.904 55.7792 200.848 55.7792 198.312C55.7792 195.776 57.8351 193.72 60.3712 193.72C62.9072 193.72 64.9631 195.776 64.9631 198.312Z" fill="url(#paint71_linear_140_135)"/>
<path d="M92.5148 198.312C92.5148 200.848 90.4589 202.904 87.9229 202.904C85.3868 202.904 83.3309 200.848 83.3309 198.312C83.3309 195.776 85.3868 193.72 87.9229 193.72C90.4589 193.72 92.5148 195.776 92.5148 198.312Z" fill="white"/>
<path d="M92.5148 198.312C92.5148 200.848 90.4589 202.904 87.9229 202.904C85.3868 202.904 83.3309 200.848 83.3309 198.312C83.3309 195.776 85.3868 193.72 87.9229 193.72C90.4589 193.72 92.5148 195.776 92.5148 198.312Z" fill="url(#paint72_linear_140_135)"/>
<path d="M120.067 198.312C120.067 200.848 118.011 202.904 115.475 202.904C112.939 202.904 110.883 200.848 110.883 198.312C110.883 195.776 112.939 193.72 115.475 193.72C118.011 193.72 120.067 195.776 120.067 198.312Z" fill="white"/>
<path d="M120.067 198.312C120.067 200.848 118.011 202.904 115.475 202.904C112.939 202.904 110.883 200.848 110.883 198.312C110.883 195.776 112.939 193.72 115.475 193.72C118.011 193.72 120.067 195.776 120.067 198.312Z" fill="url(#paint73_linear_140_135)"/>
<path d="M147.618 198.312C147.618 200.848 145.562 202.904 143.026 202.904C140.49 202.904 138.434 200.848 138.434 198.312C138.434 195.776 140.49 193.72 143.026 193.72C145.562 193.72 147.618 195.776 147.618 198.312Z" fill="white"/>
<path d="M147.618 198.312C147.618 200.848 145.562 202.904 143.026 202.904C140.49 202.904 138.434 200.848 138.434 198.312C138.434 195.776 140.49 193.72 143.026 193.72C145.562 193.72 147.618 195.776 147.618 198.312Z" fill="url(#paint74_linear_140_135)"/>
<path d="M175.17 198.312C175.17 200.848 173.114 202.904 170.578 202.904C168.042 202.904 165.986 200.848 165.986 198.312C165.986 195.776 168.042 193.72 170.578 193.72C173.114 193.72 175.17 195.776 175.17 198.312Z" fill="white"/>
<path d="M175.17 198.312C175.17 200.848 173.114 202.904 170.578 202.904C168.042 202.904 165.986 200.848 165.986 198.312C165.986 195.776 168.042 193.72 170.578 193.72C173.114 193.72 175.17 195.776 175.17 198.312Z" fill="url(#paint75_linear_140_135)"/>
<path d="M202.722 198.312C202.722 200.848 200.666 202.904 198.13 202.904C195.594 202.904 193.538 200.848 193.538 198.312C193.538 195.776 195.594 193.72 198.13 193.72C200.666 193.72 202.722 195.776 202.722 198.312Z" fill="white"/>
<path d="M202.722 198.312C202.722 200.848 200.666 202.904 198.13 202.904C195.594 202.904 193.538 200.848 193.538 198.312C193.538 195.776 195.594 193.72 198.13 193.72C200.666 193.72 202.722 195.776 202.722 198.312Z" fill="url(#paint76_linear_140_135)"/>
<path d="M230.273 198.312C230.273 200.848 228.217 202.904 225.681 202.904C223.145 202.904 221.089 200.848 221.089 198.312C221.089 195.776 223.145 193.72 225.681 193.72C228.217 193.72 230.273 195.776 230.273 198.312Z" fill="white"/>
<path d="M230.273 198.312C230.273 200.848 228.217 202.904 225.681 202.904C223.145 202.904 221.089 200.848 221.089 198.312C221.089 195.776 223.145 193.72 225.681 193.72C228.217 193.72 230.273 195.776 230.273 198.312Z" fill="url(#paint77_linear_140_135)"/>
<path d="M64.9631 225.864C64.9631 228.4 62.9072 230.456 60.3712 230.456C57.8351 230.456 55.7792 228.4 55.7792 225.864C55.7792 223.328 57.8351 221.272 60.3712 221.272C62.9072 221.272 64.9631 223.328 64.9631 225.864Z" fill="white"/>
<path d="M64.9631 225.864C64.9631 228.4 62.9072 230.456 60.3712 230.456C57.8351 230.456 55.7792 228.4 55.7792 225.864C55.7792 223.328 57.8351 221.272 60.3712 221.272C62.9072 221.272 64.9631 223.328 64.9631 225.864Z" fill="url(#paint78_linear_140_135)"/>
<path d="M92.5148 225.864C92.5148 228.4 90.4589 230.456 87.9229 230.456C85.3868 230.456 83.3309 228.4 83.3309 225.864C83.3309 223.328 85.3868 221.272 87.9229 221.272C90.4589 221.272 92.5148 223.328 92.5148 225.864Z" fill="white"/>
<path d="M92.5148 225.864C92.5148 228.4 90.4589 230.456 87.9229 230.456C85.3868 230.456 83.3309 228.4 83.3309 225.864C83.3309 223.328 85.3868 221.272 87.9229 221.272C90.4589 221.272 92.5148 223.328 92.5148 225.864Z" fill="url(#paint79_linear_140_135)"/>
<path d="M120.067 225.864C120.067 228.4 118.011 230.456 115.475 230.456C112.939 230.456 110.883 228.4 110.883 225.864C110.883 223.328 112.939 221.272 115.475 221.272C118.011 221.272 120.067 223.328 120.067 225.864Z" fill="white"/>
<path d="M120.067 225.864C120.067 228.4 118.011 230.456 115.475 230.456C112.939 230.456 110.883 228.4 110.883 225.864C110.883 223.328 112.939 221.272 115.475 221.272C118.011 221.272 120.067 223.328 120.067 225.864Z" fill="url(#paint80_linear_140_135)"/>
<path d="M147.618 225.864C147.618 228.4 145.562 230.456 143.026 230.456C140.49 230.456 138.434 228.4 138.434 225.864C138.434 223.328 140.49 221.272 143.026 221.272C145.562 221.272 147.618 223.328 147.618 225.864Z" fill="white"/>
<path d="M147.618 225.864C147.618 228.4 145.562 230.456 143.026 230.456C140.49 230.456 138.434 228.4 138.434 225.864C138.434 223.328 140.49 221.272 143.026 221.272C145.562 221.272 147.618 223.328 147.618 225.864Z" fill="url(#paint81_linear_140_135)"/>
<path d="M175.17 225.864C175.17 228.4 173.114 230.456 170.578 230.456C168.042 230.456 165.986 228.4 165.986 225.864C165.986 223.328 168.042 221.272 170.578 221.272C173.114 221.272 175.17 223.328 175.17 225.864Z" fill="white"/>
<path d="M175.17 225.864C175.17 228.4 173.114 230.456 170.578 230.456C168.042 230.456 165.986 228.4 165.986 225.864C165.986 223.328 168.042 221.272 170.578 221.272C173.114 221.272 175.17 223.328 175.17 225.864Z" fill="url(#paint82_linear_140_135)"/>
<path d="M202.722 225.864C202.722 228.4 200.666 230.456 198.13 230.456C195.594 230.456 193.538 228.4 193.538 225.864C193.538 223.328 195.594 221.272 198.13 221.272C200.666 221.272 202.722 223.328 202.722 225.864Z" fill="white"/>
<path d="M202.722 225.864C202.722 228.4 200.666 230.456 198.13 230.456C195.594 230.456 193.538 228.4 193.538 225.864C193.538 223.328 195.594 221.272 198.13 221.272C200.666 221.272 202.722 223.328 202.722 225.864Z" fill="url(#paint83_linear_140_135)"/>
<path d="M92.5148 253.415C92.5148 255.951 90.4589 258.007 87.9229 258.007C85.3868 258.007 83.3309 255.951 83.3309 253.415C83.3309 250.879 85.3868 248.823 87.9229 248.823C90.4589 248.823 92.5148 250.879 92.5148 253.415Z" fill="white"/>
<path d="M92.5148 253.415C92.5148 255.951 90.4589 258.007 87.9229 258.007C85.3868 258.007 83.3309 255.951 83.3309 253.415C83.3309 250.879 85.3868 248.823 87.9229 248.823C90.4589 248.823 92.5148 250.879 92.5148 253.415Z" fill="url(#paint84_linear_140_135)"/>
<path d="M120.067 253.415C120.067 255.951 118.011 258.007 115.475 258.007C112.939 258.007 110.883 255.951 110.883 253.415C110.883 250.879 112.939 248.823 115.475 248.823C118.011 248.823 120.067 250.879 120.067 253.415Z" fill="white"/>
<path d="M120.067 253.415C120.067 255.951 118.011 258.007 115.475 258.007C112.939 258.007 110.883 255.951 110.883 253.415C110.883 250.879 112.939 248.823 115.475 248.823C118.011 248.823 120.067 250.879 120.067 253.415Z" fill="url(#paint85_linear_140_135)"/>
<path d="M147.618 253.415C147.618 255.951 145.562 258.007 143.026 258.007C140.49 258.007 138.434 255.951 138.434 253.415C138.434 250.879 140.49 248.823 143.026 248.823C145.562 248.823 147.618 250.879 147.618 253.415Z" fill="white"/>
<path d="M147.618 253.415C147.618 255.951 145.562 258.007 143.026 258.007C140.49 258.007 138.434 255.951 138.434 253.415C138.434 250.879 140.49 248.823 143.026 248.823C145.562 248.823 147.618 250.879 147.618 253.415Z" fill="url(#paint86_linear_140_135)"/>
<path d="M175.17 253.415C175.17 255.951 173.114 258.007 170.578 258.007C168.042 258.007 165.986 255.951 165.986 253.415C165.986 250.879 168.042 248.823 170.578 248.823C173.114 248.823 175.17 250.879 175.17 253.415Z" fill="white"/>
<path d="M175.17 253.415C175.17 255.951 173.114 258.007 170.578 258.007C168.042 258.007 165.986 255.951 165.986 253.415C165.986 250.879 168.042 248.823 170.578 248.823C173.114 248.823 175.17 250.879 175.17 253.415Z" fill="url(#paint87_linear_140_135)"/>
<defs>
<linearGradient id="paint0_linear_140_135" x1="-7.80421" y1="0.857969" x2="327.257" y2="125.55" gradientUnits="userSpaceOnUse">
<stop stop-color="#4A89DB"/>
<stop offset="1" stop-color="#39C77B"/>
</linearGradient>
<linearGradient id="paint1_linear_140_135" x1="-7.80421" y1="0.857969" x2="327.257" y2="125.55" gradientUnits="userSpaceOnUse">
<stop stop-color="#4A89DB"/>
<stop offset="1" stop-color="#39C77B"/>
</linearGradient>
<linearGradient id="paint2_linear_140_135" x1="-7.80421" y1="0.857969" x2="327.257" y2="125.55" gradientUnits="userSpaceOnUse">
<stop stop-color="#4A89DB"/>
<stop offset="1" stop-color="#39C77B"/>
</linearGradient>
<linearGradient id="paint3_linear_140_135" x1="-7.80421" y1="0.857969" x2="327.257" y2="125.55" gradientUnits="userSpaceOnUse">
<stop stop-color="#4A89DB"/>
<stop offset="1" stop-color="#39C77B"/>
</linearGradient>
<linearGradient id="paint4_linear_140_135" x1="-7.80421" y1="0.857969" x2="327.257" y2="125.55" gradientUnits="userSpaceOnUse">
<stop stop-color="#4A89DB"/>
<stop offset="1" stop-color="#39C77B"/>
</linearGradient>
<linearGradient id="paint5_linear_140_135" x1="-7.80421" y1="0.857969" x2="327.257" y2="125.55" gradientUnits="userSpaceOnUse">
<stop stop-color="#4A89DB"/>
<stop offset="1" stop-color="#39C77B"/>
</linearGradient>
<linearGradient id="paint6_linear_140_135" x1="-7.80421" y1="0.857969" x2="327.257" y2="125.55" gradientUnits="userSpaceOnUse">
<stop stop-color="#4A89DB"/>
<stop offset="1" stop-color="#39C77B"/>
</linearGradient>
<linearGradient id="paint7_linear_140_135" x1="-7.80421" y1="0.857969" x2="327.257" y2="125.55" gradientUnits="userSpaceOnUse">
<stop stop-color="#4A89DB"/>
<stop offset="1" stop-color="#39C77B"/>
</linearGradient>
<linearGradient id="paint8_linear_140_135" x1="-7.80421" y1="0.857969" x2="327.257" y2="125.55" gradientUnits="userSpaceOnUse">
<stop stop-color="#4A89DB"/>
<stop offset="1" stop-color="#39C77B"/>
</linearGradient>
<linearGradient id="paint9_linear_140_135" x1="-7.80421" y1="0.857969" x2="327.257" y2="125.55" gradientUnits="userSpaceOnUse">
<stop stop-color="#4A89DB"/>
<stop offset="1" stop-color="#39C77B"/>
</linearGradient>
<linearGradient id="paint10_linear_140_135" x1="-7.80421" y1="0.857969" x2="327.257" y2="125.55" gradientUnits="userSpaceOnUse">
<stop stop-color="#4A89DB"/>
<stop offset="1" stop-color="#39C77B"/>
</linearGradient>
<linearGradient id="paint11_linear_140_135" x1="-7.80421" y1="0.857969" x2="327.257" y2="125.55" gradientUnits="userSpaceOnUse">
<stop stop-color="#4A89DB"/>
<stop offset="1" stop-color="#39C77B"/>
</linearGradient>
<linearGradient id="paint12_linear_140_135" x1="-7.80421" y1="0.857969" x2="327.257" y2="125.55" gradientUnits="userSpaceOnUse">
<stop stop-color="#4A89DB"/>
<stop offset="1" stop-color="#39C77B"/>
</linearGradient>
<linearGradient id="paint13_linear_140_135" x1="-7.80421" y1="0.857969" x2="327.257" y2="125.55" gradientUnits="userSpaceOnUse">
<stop stop-color="#4A89DB"/>
<stop offset="1" stop-color="#39C77B"/>
</linearGradient>
<linearGradient id="paint14_linear_140_135" x1="-7.80421" y1="0.857969" x2="327.257" y2="125.55" gradientUnits="userSpaceOnUse">
<stop stop-color="#4A89DB"/>
<stop offset="1" stop-color="#39C77B"/>
</linearGradient>
<linearGradient id="paint15_linear_140_135" x1="-7.80421" y1="0.857969" x2="327.257" y2="125.55" gradientUnits="userSpaceOnUse">
<stop stop-color="#4A89DB"/>
<stop offset="1" stop-color="#39C77B"/>
</linearGradient>
<linearGradient id="paint16_linear_140_135" x1="-7.80421" y1="0.857969" x2="327.257" y2="125.55" gradientUnits="userSpaceOnUse">
<stop stop-color="#4A89DB"/>
<stop offset="1" stop-color="#39C77B"/>
</linearGradient>
<linearGradient id="paint17_linear_140_135" x1="-7.80421" y1="0.857969" x2="327.257" y2="125.55" gradientUnits="userSpaceOnUse">
<stop stop-color="#4A89DB"/>
<stop offset="1" stop-color="#39C77B"/>
</linearGradient>
<linearGradient id="paint18_linear_140_135" x1="-7.80421" y1="0.857969" x2="327.257" y2="125.55" gradientUnits="userSpaceOnUse">
<stop stop-color="#4A89DB"/>
<stop offset="1" stop-color="#39C77B"/>
</linearGradient>
<linearGradient id="paint19_linear_140_135" x1="-7.80421" y1="0.857969" x2="327.257" y2="125.55" gradientUnits="userSpaceOnUse">
<stop stop-color="#4A89DB"/>
<stop offset="1" stop-color="#39C77B"/>
</linearGradient>
<linearGradient id="paint20_linear_140_135" x1="-7.80421" y1="0.857969" x2="327.257" y2="125.55" gradientUnits="userSpaceOnUse">
<stop stop-color="#4A89DB"/>
<stop offset="1" stop-color="#39C77B"/>
</linearGradient>
<linearGradient id="paint21_linear_140_135" x1="-7.80421" y1="0.857969" x2="327.257" y2="125.55" gradientUnits="userSpaceOnUse">
<stop stop-color="#4A89DB"/>
<stop offset="1" stop-color="#39C77B"/>
</linearGradient>
<linearGradient id="paint22_linear_140_135" x1="-7.80421" y1="0.857969" x2="327.257" y2="125.55" gradientUnits="userSpaceOnUse">
<stop stop-color="#4A89DB"/>
<stop offset="1" stop-color="#39C77B"/>
</linearGradient>
<linearGradient id="paint23_linear_140_135" x1="-7.80421" y1="0.857969" x2="327.257" y2="125.55" gradientUnits="userSpaceOnUse">
<stop stop-color="#4A89DB"/>
<stop offset="1" stop-color="#39C77B"/>
</linearGradient>
<linearGradient id="paint24_linear_140_135" x1="-7.80421" y1="0.857969" x2="327.257" y2="125.55" gradientUnits="userSpaceOnUse">
<stop stop-color="#4A89DB"/>
<stop offset="1" stop-color="#39C77B"/>
</linearGradient>
<linearGradient id="paint25_linear_140_135" x1="-7.80421" y1="0.857969" x2="327.257" y2="125.55" gradientUnits="userSpaceOnUse">
<stop stop-color="#4A89DB"/>
<stop offset="1" stop-color="#39C77B"/>
</linearGradient>
<linearGradient id="paint26_linear_140_135" x1="-7.80421" y1="0.857969" x2="327.257" y2="125.55" gradientUnits="userSpaceOnUse">
<stop stop-color="#4A89DB"/>
<stop offset="1" stop-color="#39C77B"/>
</linearGradient>
<linearGradient id="paint27_linear_140_135" x1="-7.80421" y1="0.857969" x2="327.257" y2="125.55" gradientUnits="userSpaceOnUse">
<stop stop-color="#4A89DB"/>
<stop offset="1" stop-color="#39C77B"/>
</linearGradient>
<linearGradient id="paint28_linear_140_135" x1="-7.80421" y1="0.857969" x2="327.257" y2="125.55" gradientUnits="userSpaceOnUse">
<stop stop-color="#4A89DB"/>
<stop offset="1" stop-color="#39C77B"/>
</linearGradient>
<linearGradient id="paint29_linear_140_135" x1="-7.80421" y1="0.857969" x2="327.257" y2="125.55" gradientUnits="userSpaceOnUse">
<stop stop-color="#4A89DB"/>
<stop offset="1" stop-color="#39C77B"/>
</linearGradient>
<linearGradient id="paint30_linear_140_135" x1="-7.80421" y1="0.857969" x2="327.257" y2="125.55" gradientUnits="userSpaceOnUse">
<stop stop-color="#4A89DB"/>
<stop offset="1" stop-color="#39C77B"/>
</linearGradient>
<linearGradient id="paint31_linear_140_135" x1="-7.80421" y1="0.857969" x2="327.257" y2="125.55" gradientUnits="userSpaceOnUse">
<stop stop-color="#4A89DB"/>
<stop offset="1" stop-color="#39C77B"/>
</linearGradient>
<linearGradient id="paint32_linear_140_135" x1="-7.80421" y1="0.857969" x2="327.257" y2="125.55" gradientUnits="userSpaceOnUse">
<stop stop-color="#4A89DB"/>
<stop offset="1" stop-color="#39C77B"/>
</linearGradient>
<linearGradient id="paint33_linear_140_135" x1="-7.80421" y1="0.857969" x2="327.257" y2="125.55" gradientUnits="userSpaceOnUse">
<stop stop-color="#4A89DB"/>
<stop offset="1" stop-color="#39C77B"/>
</linearGradient>
<linearGradient id="paint34_linear_140_135" x1="-7.80421" y1="0.857969" x2="327.257" y2="125.55" gradientUnits="userSpaceOnUse">
<stop stop-color="#4A89DB"/>
<stop offset="1" stop-color="#39C77B"/>
</linearGradient>
<linearGradient id="paint35_linear_140_135" x1="-7.80421" y1="0.857969" x2="327.257" y2="125.55" gradientUnits="userSpaceOnUse">
<stop stop-color="#4A89DB"/>
<stop offset="1" stop-color="#39C77B"/>
</linearGradient>
<linearGradient id="paint36_linear_140_135" x1="-7.80421" y1="0.857969" x2="327.257" y2="125.55" gradientUnits="userSpaceOnUse">
<stop stop-color="#4A89DB"/>
<stop offset="1" stop-color="#39C77B"/>
</linearGradient>
<linearGradient id="paint37_linear_140_135" x1="-7.80421" y1="0.857969" x2="327.257" y2="125.55" gradientUnits="userSpaceOnUse">
<stop stop-color="#4A89DB"/>
<stop offset="1" stop-color="#39C77B"/>
</linearGradient>
<linearGradient id="paint38_linear_140_135" x1="-7.80421" y1="0.857969" x2="327.257" y2="125.55" gradientUnits="userSpaceOnUse">
<stop stop-color="#4A89DB"/>
<stop offset="1" stop-color="#39C77B"/>
</linearGradient>
<linearGradient id="paint39_linear_140_135" x1="-7.80421" y1="0.857969" x2="327.257" y2="125.55" gradientUnits="userSpaceOnUse">
<stop stop-color="#4A89DB"/>
<stop offset="1" stop-color="#39C77B"/>
</linearGradient>
<linearGradient id="paint40_linear_140_135" x1="-7.80421" y1="0.857969" x2="327.257" y2="125.55" gradientUnits="userSpaceOnUse">
<stop stop-color="#4A89DB"/>
<stop offset="1" stop-color="#39C77B"/>
</linearGradient>
<linearGradient id="paint41_linear_140_135" x1="-7.80421" y1="0.857969" x2="327.257" y2="125.55" gradientUnits="userSpaceOnUse">
<stop stop-color="#4A89DB"/>
<stop offset="1" stop-color="#39C77B"/>
</linearGradient>
<linearGradient id="paint42_linear_140_135" x1="-7.80421" y1="0.857969" x2="327.257" y2="125.55" gradientUnits="userSpaceOnUse">
<stop stop-color="#4A89DB"/>
<stop offset="1" stop-color="#39C77B"/>
</linearGradient>
<linearGradient id="paint43_linear_140_135" x1="-7.80421" y1="0.857969" x2="327.257" y2="125.55" gradientUnits="userSpaceOnUse">
<stop stop-color="#4A89DB"/>
<stop offset="1" stop-color="#39C77B"/>
</linearGradient>
<linearGradient id="paint44_linear_140_135" x1="-7.80421" y1="0.857969" x2="327.257" y2="125.55" gradientUnits="userSpaceOnUse">
<stop stop-color="#4A89DB"/>
<stop offset="1" stop-color="#39C77B"/>
</linearGradient>
<linearGradient id="paint45_linear_140_135" x1="-7.80421" y1="0.857969" x2="327.257" y2="125.55" gradientUnits="userSpaceOnUse">
<stop stop-color="#4A89DB"/>
<stop offset="1" stop-color="#39C77B"/>
</linearGradient>
<linearGradient id="paint46_linear_140_135" x1="-7.80421" y1="0.857969" x2="327.257" y2="125.55" gradientUnits="userSpaceOnUse">
<stop stop-color="#4A89DB"/>
<stop offset="1" stop-color="#39C77B"/>
</linearGradient>
<linearGradient id="paint47_linear_140_135" x1="-7.80421" y1="0.857969" x2="327.257" y2="125.55" gradientUnits="userSpaceOnUse">
<stop stop-color="#4A89DB"/>
<stop offset="1" stop-color="#39C77B"/>
</linearGradient>
<linearGradient id="paint48_linear_140_135" x1="-7.80421" y1="0.857969" x2="327.257" y2="125.55" gradientUnits="userSpaceOnUse">
<stop stop-color="#4A89DB"/>
<stop offset="1" stop-color="#39C77B"/>
</linearGradient>
<linearGradient id="paint49_linear_140_135" x1="-7.80421" y1="0.857969" x2="327.257" y2="125.55" gradientUnits="userSpaceOnUse">
<stop stop-color="#4A89DB"/>
<stop offset="1" stop-color="#39C77B"/>
</linearGradient>
<linearGradient id="paint50_linear_140_135" x1="-7.80421" y1="0.857969" x2="327.257" y2="125.55" gradientUnits="userSpaceOnUse">
<stop stop-color="#4A89DB"/>
<stop offset="1" stop-color="#39C77B"/>
</linearGradient>
<linearGradient id="paint51_linear_140_135" x1="-7.80421" y1="0.857969" x2="327.257" y2="125.55" gradientUnits="userSpaceOnUse">
<stop stop-color="#4A89DB"/>
<stop offset="1" stop-color="#39C77B"/>
</linearGradient>
<linearGradient id="paint52_linear_140_135" x1="-7.80421" y1="0.857969" x2="327.257" y2="125.55" gradientUnits="userSpaceOnUse">
<stop stop-color="#4A89DB"/>
<stop offset="1" stop-color="#39C77B"/>
</linearGradient>
<linearGradient id="paint53_linear_140_135" x1="-7.80421" y1="0.857969" x2="327.257" y2="125.55" gradientUnits="userSpaceOnUse">
<stop stop-color="#4A89DB"/>
<stop offset="1" stop-color="#39C77B"/>
</linearGradient>
<linearGradient id="paint54_linear_140_135" x1="-7.80421" y1="0.857969" x2="327.257" y2="125.55" gradientUnits="userSpaceOnUse">
<stop stop-color="#4A89DB"/>
<stop offset="1" stop-color="#39C77B"/>
</linearGradient>
<linearGradient id="paint55_linear_140_135" x1="-7.80421" y1="0.857969" x2="327.257" y2="125.55" gradientUnits="userSpaceOnUse">
<stop stop-color="#4A89DB"/>
<stop offset="1" stop-color="#39C77B"/>
</linearGradient>
<linearGradient id="paint56_linear_140_135" x1="-7.80421" y1="0.857969" x2="327.257" y2="125.55" gradientUnits="userSpaceOnUse">
<stop stop-color="#4A89DB"/>
<stop offset="1" stop-color="#39C77B"/>
</linearGradient>
<linearGradient id="paint57_linear_140_135" x1="-7.80421" y1="0.857969" x2="327.257" y2="125.55" gradientUnits="userSpaceOnUse">
<stop stop-color="#4A89DB"/>
<stop offset="1" stop-color="#39C77B"/>
</linearGradient>
<linearGradient id="paint58_linear_140_135" x1="-7.80421" y1="0.857969" x2="327.257" y2="125.55" gradientUnits="userSpaceOnUse">
<stop stop-color="#4A89DB"/>
<stop offset="1" stop-color="#39C77B"/>
</linearGradient>
<linearGradient id="paint59_linear_140_135" x1="-7.80421" y1="0.857969" x2="327.257" y2="125.55" gradientUnits="userSpaceOnUse">
<stop stop-color="#4A89DB"/>
<stop offset="1" stop-color="#39C77B"/>
</linearGradient>
<linearGradient id="paint60_linear_140_135" x1="-7.80421" y1="0.857969" x2="327.257" y2="125.55" gradientUnits="userSpaceOnUse">
<stop stop-color="#4A89DB"/>
<stop offset="1" stop-color="#39C77B"/>
</linearGradient>
<linearGradient id="paint61_linear_140_135" x1="-7.80421" y1="0.857969" x2="327.257" y2="125.55" gradientUnits="userSpaceOnUse">
<stop stop-color="#4A89DB"/>
<stop offset="1" stop-color="#39C77B"/>
</linearGradient>
<linearGradient id="paint62_linear_140_135" x1="-7.80421" y1="0.857969" x2="327.257" y2="125.55" gradientUnits="userSpaceOnUse">
<stop stop-color="#4A89DB"/>
<stop offset="1" stop-color="#39C77B"/>
</linearGradient>
<linearGradient id="paint63_linear_140_135" x1="-7.80421" y1="0.857969" x2="327.257" y2="125.55" gradientUnits="userSpaceOnUse">
<stop stop-color="#4A89DB"/>
<stop offset="1" stop-color="#39C77B"/>
</linearGradient>
<linearGradient id="paint64_linear_140_135" x1="-7.80421" y1="0.857969" x2="327.257" y2="125.55" gradientUnits="userSpaceOnUse">
<stop stop-color="#4A89DB"/>
<stop offset="1" stop-color="#39C77B"/>
</linearGradient>
<linearGradient id="paint65_linear_140_135" x1="-7.80421" y1="0.857969" x2="327.257" y2="125.55" gradientUnits="userSpaceOnUse">
<stop stop-color="#4A89DB"/>
<stop offset="1" stop-color="#39C77B"/>
</linearGradient>
<linearGradient id="paint66_linear_140_135" x1="-7.80421" y1="0.857969" x2="327.257" y2="125.55" gradientUnits="userSpaceOnUse">
<stop stop-color="#4A89DB"/>
<stop offset="1" stop-color="#39C77B"/>
</linearGradient>
<linearGradient id="paint67_linear_140_135" x1="-7.80421" y1="0.857969" x2="327.257" y2="125.55" gradientUnits="userSpaceOnUse">
<stop stop-color="#4A89DB"/>
<stop offset="1" stop-color="#39C77B"/>
</linearGradient>
<linearGradient id="paint68_linear_140_135" x1="-7.80421" y1="0.857969" x2="327.257" y2="125.55" gradientUnits="userSpaceOnUse">
<stop stop-color="#4A89DB"/>
<stop offset="1" stop-color="#39C77B"/>
</linearGradient>
<linearGradient id="paint69_linear_140_135" x1="-7.80421" y1="0.857969" x2="327.257" y2="125.55" gradientUnits="userSpaceOnUse">
<stop stop-color="#4A89DB"/>
<stop offset="1" stop-color="#39C77B"/>
</linearGradient>
<linearGradient id="paint70_linear_140_135" x1="-7.80421" y1="0.857969" x2="327.257" y2="125.55" gradientUnits="userSpaceOnUse">
<stop stop-color="#4A89DB"/>
<stop offset="1" stop-color="#39C77B"/>
</linearGradient>
<linearGradient id="paint71_linear_140_135" x1="-7.80421" y1="0.857969" x2="327.257" y2="125.55" gradientUnits="userSpaceOnUse">
<stop stop-color="#4A89DB"/>
<stop offset="1" stop-color="#39C77B"/>
</linearGradient>
<linearGradient id="paint72_linear_140_135" x1="-7.80421" y1="0.857969" x2="327.257" y2="125.55" gradientUnits="userSpaceOnUse">
<stop stop-color="#4A89DB"/>
<stop offset="1" stop-color="#39C77B"/>
</linearGradient>
<linearGradient id="paint73_linear_140_135" x1="-7.80421" y1="0.857969" x2="327.257" y2="125.55" gradientUnits="userSpaceOnUse">
<stop stop-color="#4A89DB"/>
<stop offset="1" stop-color="#39C77B"/>
</linearGradient>
<linearGradient id="paint74_linear_140_135" x1="-7.80421" y1="0.857969" x2="327.257" y2="125.55" gradientUnits="userSpaceOnUse">
<stop stop-color="#4A89DB"/>
<stop offset="1" stop-color="#39C77B"/>
</linearGradient>
<linearGradient id="paint75_linear_140_135" x1="-7.80421" y1="0.857969" x2="327.257" y2="125.55" gradientUnits="userSpaceOnUse">
<stop stop-color="#4A89DB"/>
<stop offset="1" stop-color="#39C77B"/>
</linearGradient>
<linearGradient id="paint76_linear_140_135" x1="-7.80421" y1="0.857969" x2="327.257" y2="125.55" gradientUnits="userSpaceOnUse">
<stop stop-color="#4A89DB"/>
<stop offset="1" stop-color="#39C77B"/>
</linearGradient>
<linearGradient id="paint77_linear_140_135" x1="-7.80421" y1="0.857969" x2="327.257" y2="125.55" gradientUnits="userSpaceOnUse">
<stop stop-color="#4A89DB"/>
<stop offset="1" stop-color="#39C77B"/>
</linearGradient>
<linearGradient id="paint78_linear_140_135" x1="-7.80421" y1="0.857969" x2="327.257" y2="125.55" gradientUnits="userSpaceOnUse">
<stop stop-color="#4A89DB"/>
<stop offset="1" stop-color="#39C77B"/>
</linearGradient>
<linearGradient id="paint79_linear_140_135" x1="-7.80421" y1="0.857969" x2="327.257" y2="125.55" gradientUnits="userSpaceOnUse">
<stop stop-color="#4A89DB"/>
<stop offset="1" stop-color="#39C77B"/>
</linearGradient>
<linearGradient id="paint80_linear_140_135" x1="-7.80421" y1="0.857969" x2="327.257" y2="125.55" gradientUnits="userSpaceOnUse">
<stop stop-color="#4A89DB"/>
<stop offset="1" stop-color="#39C77B"/>
</linearGradient>
<linearGradient id="paint81_linear_140_135" x1="-7.80421" y1="0.857969" x2="327.257" y2="125.55" gradientUnits="userSpaceOnUse">
<stop stop-color="#4A89DB"/>
<stop offset="1" stop-color="#39C77B"/>
</linearGradient>
<linearGradient id="paint82_linear_140_135" x1="-7.80421" y1="0.857969" x2="327.257" y2="125.55" gradientUnits="userSpaceOnUse">
<stop stop-color="#4A89DB"/>
<stop offset="1" stop-color="#39C77B"/>
</linearGradient>
<linearGradient id="paint83_linear_140_135" x1="-7.80421" y1="0.857969" x2="327.257" y2="125.55" gradientUnits="userSpaceOnUse">
<stop stop-color="#4A89DB"/>
<stop offset="1" stop-color="#39C77B"/>
</linearGradient>
<linearGradient id="paint84_linear_140_135" x1="-7.80421" y1="0.857969" x2="327.257" y2="125.55" gradientUnits="userSpaceOnUse">
<stop stop-color="#4A89DB"/>
<stop offset="1" stop-color="#39C77B"/>
</linearGradient>
<linearGradient id="paint85_linear_140_135" x1="-7.80421" y1="0.857969" x2="327.257" y2="125.55" gradientUnits="userSpaceOnUse">
<stop stop-color="#4A89DB"/>
<stop offset="1" stop-color="#39C77B"/>
</linearGradient>
<linearGradient id="paint86_linear_140_135" x1="-7.80421" y1="0.857969" x2="327.257" y2="125.55" gradientUnits="userSpaceOnUse">
<stop stop-color="#4A89DB"/>
<stop offset="1" stop-color="#39C77B"/>
</linearGradient>
<linearGradient id="paint87_linear_140_135" x1="-7.80421" y1="0.857969" x2="327.257" y2="125.55" gradientUnits="userSpaceOnUse">
<stop stop-color="#4A89DB"/>
<stop offset="1" stop-color="#39C77B"/>
</linearGradient>
</defs>
</svg>
