<svg width="78" height="185" viewBox="0 0 78 185" fill="none" xmlns="http://www.w3.org/2000/svg">
<path d="M7.29641 3.79152C7.29641 5.79261 5.67421 7.41482 3.67311 7.41482C1.67201 7.41482 0.0498047 5.79261 0.0498047 3.79152C0.0498047 1.79042 1.67201 0.168213 3.67311 0.168213C5.67421 0.168213 7.29641 1.79042 7.29641 3.79152Z" fill="#010914"/>
<path d="M42.6497 3.79152C42.6497 5.79261 41.0275 7.41482 39.0264 7.41482C37.0253 7.41482 35.4031 5.79261 35.4031 3.79152C35.4031 1.79042 37.0253 0.168213 39.0264 0.168213C41.0275 0.168213 42.6497 1.79042 42.6497 3.79152Z" fill="#010914"/>
<path d="M77.9996 3.79152C77.9996 5.79261 76.3774 7.41482 74.3763 7.41482C72.3752 7.41482 70.753 5.79261 70.753 3.79152C70.753 1.79042 72.3752 0.168213 74.3763 0.168213C76.3774 0.168213 77.9996 1.79042 77.9996 3.79152Z" fill="#010914"/>
<path d="M7.29641 39.1414C7.29641 41.1425 5.67421 42.7647 3.67311 42.7647C1.67201 42.7647 0.0498047 41.1425 0.0498047 39.1414C0.0498047 37.1403 1.67201 35.5181 3.67311 35.5181C5.67421 35.5181 7.29641 37.1403 7.29641 39.1414Z" fill="#010914"/>
<path d="M42.6497 39.1414C42.6497 41.1425 41.0275 42.7647 39.0264 42.7647C37.0253 42.7647 35.4031 41.1425 35.4031 39.1414C35.4031 37.1403 37.0253 35.5181 39.0264 35.5181C41.0275 35.5181 42.6497 37.1403 42.6497 39.1414Z" fill="#010914"/>
<path d="M77.9996 39.1414C77.9996 41.1425 76.3774 42.7647 74.3763 42.7647C72.3752 42.7647 70.753 41.1425 70.753 39.1414C70.753 37.1403 72.3752 35.5181 74.3763 35.5181C76.3774 35.5181 77.9996 37.1403 77.9996 39.1414Z" fill="#010914"/>
<path d="M7.29641 74.493C7.29641 76.4941 5.67421 78.1163 3.67311 78.1163C1.67201 78.1163 0.0498047 76.4941 0.0498047 74.493C0.0498047 72.4919 1.67201 70.8697 3.67311 70.8697C5.67421 70.8697 7.29641 72.4919 7.29641 74.493Z" fill="#010914"/>
<path d="M42.6497 74.493C42.6497 76.4941 41.0275 78.1163 39.0264 78.1163C37.0253 78.1163 35.4031 76.4941 35.4031 74.493C35.4031 72.4919 37.0253 70.8697 39.0264 70.8697C41.0275 70.8697 42.6497 72.4919 42.6497 74.493Z" fill="#010914"/>
<path d="M77.9996 74.493C77.9996 76.4941 76.3774 78.1163 74.3763 78.1163C72.3752 78.1163 70.753 76.4941 70.753 74.493C70.753 72.4919 72.3752 70.8697 74.3763 70.8697C76.3774 70.8697 77.9996 72.4919 77.9996 74.493Z" fill="#010914"/>
<path d="M7.29641 109.843C7.29641 111.844 5.67421 113.466 3.67311 113.466C1.67201 113.466 0.0498047 111.844 0.0498047 109.843C0.0498047 107.842 1.67201 106.22 3.67311 106.22C5.67421 106.22 7.29641 107.842 7.29641 109.843Z" fill="#469AC1"/>
<path d="M42.6497 109.843C42.6497 111.844 41.0275 113.466 39.0264 113.466C37.0253 113.466 35.4031 111.844 35.4031 109.843C35.4031 107.842 37.0253 106.22 39.0264 106.22C41.0275 106.22 42.6497 107.842 42.6497 109.843Z" fill="#469AC1"/>
<path d="M77.9996 109.843C77.9996 111.844 76.3774 113.466 74.3763 113.466C72.3752 113.466 70.753 111.844 70.753 109.843C70.753 107.842 72.3752 106.22 74.3763 106.22C76.3774 106.22 77.9996 107.842 77.9996 109.843Z" fill="#469AC1"/>
<path d="M7.29641 145.194C7.29641 147.196 5.67421 148.818 3.67311 148.818C1.67201 148.818 0.0498047 147.196 0.0498047 145.194C0.0498047 143.193 1.67201 141.571 3.67311 141.571C5.67421 141.571 7.29641 143.193 7.29641 145.194Z" fill="#469AC1"/>
<path d="M42.6497 145.194C42.6497 147.196 41.0275 148.818 39.0264 148.818C37.0253 148.818 35.4031 147.196 35.4031 145.194C35.4031 143.193 37.0253 141.571 39.0264 141.571C41.0275 141.571 42.6497 143.193 42.6497 145.194Z" fill="#469AC1"/>
<path d="M77.9996 145.194C77.9996 147.196 76.3774 148.818 74.3763 148.818C72.3752 148.818 70.753 147.196 70.753 145.194C70.753 143.193 72.3752 141.571 74.3763 141.571C76.3774 141.571 77.9996 143.193 77.9996 145.194Z" fill="#469AC1"/>
<path d="M7.29641 180.544C7.29641 182.545 5.67421 184.168 3.67311 184.168C1.67201 184.168 0.0498047 182.545 0.0498047 180.544C0.0498047 178.543 1.67201 176.921 3.67311 176.921C5.67421 176.921 7.29641 178.543 7.29641 180.544Z" fill="#469AC1"/>
<path d="M42.6497 180.544C42.6497 182.545 41.0275 184.168 39.0264 184.168C37.0253 184.168 35.4031 182.545 35.4031 180.544C35.4031 178.543 37.0253 176.921 39.0264 176.921C41.0275 176.921 42.6497 178.543 42.6497 180.544Z" fill="#469AC1"/>
<path d="M77.9996 180.544C77.9996 182.545 76.3774 184.168 74.3763 184.168C72.3752 184.168 70.753 182.545 70.753 180.544C70.753 178.543 72.3752 176.921 74.3763 176.921C76.3774 176.921 77.9996 178.543 77.9996 180.544Z" fill="#469AC1"/>
</svg>
