<svg width="230" height="226" viewBox="0 0 230 226" fill="none" xmlns="http://www.w3.org/2000/svg">
<g clip-path="url(#clip0_115_144)">
<path d="M128.987 87.0255C129.426 87.0336 129.857 86.9113 130.226 86.6742C130.596 86.437 130.886 86.0957 131.062 85.6933C131.237 85.2909 131.289 84.8456 131.211 84.4137C131.133 83.9818 130.929 83.5827 130.624 83.267C130.32 82.9512 129.928 82.733 129.499 82.6399C129.07 82.5468 128.623 82.5831 128.215 82.744C127.806 82.905 127.455 83.1834 127.205 83.5442C126.955 83.9049 126.817 84.3317 126.81 84.7705C126.8 85.3581 127.024 85.9255 127.432 86.3483C127.84 86.7711 128.399 87.0147 128.987 87.0255Z" fill="#1BA677"/>
<path d="M133.685 96.6431C134.123 96.6505 134.553 96.5278 134.921 96.2905C135.289 96.0532 135.579 95.712 135.753 95.3101C135.927 94.9082 135.979 94.4636 135.9 94.0327C135.821 93.6019 135.617 93.204 135.312 92.8895C135.007 92.5751 134.616 92.3581 134.187 92.2662C133.759 92.1743 133.313 92.2115 132.906 92.3731C132.499 92.5348 132.149 92.8136 131.9 93.1742C131.651 93.5349 131.515 93.9612 131.509 94.3991C131.502 94.9846 131.727 95.5491 132.134 95.9694C132.542 96.3898 133.099 96.632 133.685 96.6431Z" fill="#1BA677"/>
<path d="M148.604 107.385C149.043 107.393 149.474 107.271 149.844 107.034C150.213 106.796 150.504 106.455 150.679 106.053C150.854 105.65 150.906 105.205 150.828 104.773C150.751 104.341 150.546 103.942 150.241 103.626C149.937 103.311 149.545 103.092 149.116 102.999C148.687 102.906 148.24 102.942 147.832 103.103C147.424 103.264 147.072 103.543 146.822 103.904C146.572 104.264 146.435 104.691 146.427 105.13C146.417 105.717 146.641 106.285 147.049 106.708C147.457 107.13 148.016 107.374 148.604 107.385Z" fill="#1BA677"/>
<path d="M137.944 106.916C138.383 106.923 138.814 106.8 139.183 106.563C139.552 106.325 139.842 105.983 140.016 105.58C140.191 105.178 140.242 104.732 140.164 104.301C140.085 103.869 139.88 103.47 139.575 103.155C139.27 102.84 138.878 102.622 138.449 102.53C138.02 102.437 137.573 102.474 137.165 102.636C136.757 102.797 136.406 103.076 136.156 103.437C135.907 103.798 135.77 104.225 135.763 104.664C135.754 105.252 135.978 105.819 136.387 106.241C136.796 106.664 137.356 106.906 137.944 106.916Z" fill="#1BA677"/>
<path d="M127.237 106.299C127.676 106.307 128.107 106.185 128.476 105.948C128.846 105.71 129.136 105.369 129.312 104.967C129.487 104.564 129.539 104.119 129.461 103.687C129.383 103.255 129.179 102.856 128.874 102.54C128.57 102.225 128.178 102.006 127.749 101.913C127.32 101.82 126.873 101.857 126.465 102.017C126.056 102.178 125.705 102.457 125.455 102.818C125.205 103.178 125.067 103.605 125.06 104.044C125.051 104.631 125.275 105.198 125.683 105.62C126.091 106.043 126.65 106.287 127.237 106.299Z" fill="#1BA677"/>
<path d="M131.635 116.69C132.074 116.698 132.505 116.575 132.875 116.338C133.244 116.101 133.535 115.76 133.71 115.357C133.886 114.955 133.938 114.51 133.86 114.078C133.782 113.646 133.578 113.247 133.273 112.931C132.968 112.615 132.576 112.397 132.147 112.304C131.719 112.211 131.272 112.247 130.863 112.408C130.455 112.569 130.103 112.848 129.853 113.208C129.603 113.569 129.466 113.996 129.458 114.435C129.448 115.022 129.672 115.59 130.08 116.012C130.488 116.435 131.048 116.679 131.635 116.69Z" fill="#1BA677"/>
<path d="M142.26 117.311C142.699 117.319 143.13 117.196 143.5 116.959C143.869 116.722 144.16 116.381 144.335 115.978C144.511 115.576 144.563 115.131 144.485 114.699C144.407 114.267 144.203 113.868 143.898 113.552C143.593 113.236 143.201 113.018 142.772 112.925C142.344 112.832 141.897 112.868 141.488 113.029C141.08 113.19 140.728 113.469 140.478 113.829C140.228 114.19 140.091 114.617 140.083 115.056C140.075 115.643 140.299 116.21 140.707 116.632C141.115 117.055 141.673 117.299 142.26 117.311Z" fill="#1BA677"/>
<path d="M153.196 113.286C152.758 113.279 152.327 113.402 151.958 113.64C151.589 113.877 151.299 114.219 151.124 114.622C150.949 115.024 150.898 115.47 150.977 115.902C151.055 116.333 151.26 116.732 151.565 117.047C151.871 117.362 152.263 117.58 152.692 117.672C153.121 117.765 153.567 117.728 153.975 117.567C154.383 117.405 154.734 117.126 154.984 116.765C155.234 116.404 155.37 115.977 155.377 115.538C155.383 115.247 155.33 114.958 155.223 114.687C155.117 114.416 154.957 114.169 154.755 113.959C154.552 113.75 154.31 113.583 154.043 113.467C153.775 113.352 153.488 113.29 153.196 113.286Z" fill="#1BA677"/>
<path d="M146.518 127.58C146.957 127.588 147.388 127.466 147.758 127.229C148.127 126.992 148.418 126.65 148.593 126.248C148.768 125.846 148.82 125.4 148.742 124.968C148.665 124.536 148.46 124.137 148.156 123.822C147.851 123.506 147.459 123.288 147.03 123.195C146.601 123.102 146.154 123.138 145.746 123.299C145.338 123.46 144.986 123.738 144.736 124.099C144.486 124.46 144.349 124.886 144.341 125.325C144.331 125.913 144.555 126.48 144.963 126.903C145.371 127.326 145.93 127.569 146.518 127.58Z" fill="#1BA677"/>
<path d="M135.854 127.162C136.293 127.17 136.724 127.048 137.094 126.811C137.463 126.574 137.754 126.232 137.929 125.83C138.104 125.428 138.156 124.982 138.078 124.55C138.001 124.119 137.796 123.719 137.491 123.404C137.187 123.088 136.795 122.87 136.366 122.777C135.937 122.684 135.49 122.72 135.082 122.881C134.674 123.042 134.322 123.32 134.072 123.681C133.822 124.042 133.685 124.468 133.677 124.907C133.667 125.495 133.891 126.062 134.299 126.485C134.707 126.908 135.266 127.151 135.854 127.162Z" fill="#1BA677"/>
<path d="M114.624 125.043C115.126 125.036 115.609 124.853 115.99 124.527C116.371 124.2 116.625 123.75 116.708 123.255L117.441 131.775C117.231 131.976 117.064 132.216 116.948 132.482C116.832 132.748 116.769 133.034 116.764 133.325C116.768 133.67 116.858 134.01 117.026 134.312C117.194 134.614 117.435 134.87 117.727 135.056L119.976 161.236C119.624 161.414 119.333 161.693 119.14 162.037C118.948 162.382 118.863 162.775 118.896 163.168C118.93 163.561 119.08 163.935 119.328 164.242C119.575 164.549 119.909 164.775 120.286 164.89L121.076 174.086C121.14 174.808 121.392 175.501 121.808 176.095C122.223 176.69 122.786 177.165 123.442 177.474C124.092 177.806 124.823 177.949 125.55 177.886C126.278 177.823 126.973 177.556 127.556 177.117L142.253 166.863L144.657 165.185L213.815 116.909C214.41 116.495 214.885 115.931 215.193 115.274C215.501 114.618 215.63 113.892 215.568 113.17C215.506 112.447 215.254 111.754 214.839 111.16C214.424 110.566 213.859 110.092 213.202 109.785L165.968 87.6661L163.618 86.5671L117.94 65.1793C117.304 64.8817 116.602 64.7512 115.901 64.8002C115.201 64.8492 114.524 65.0761 113.935 65.4594L113.823 65.5322C113.229 65.9463 112.754 66.5096 112.446 67.1655C112.139 67.8213 112.009 68.5466 112.071 69.2684L114.867 101.855C114.63 102.05 114.437 102.294 114.303 102.57C114.168 102.846 114.094 103.148 114.087 103.455C114.094 103.818 114.197 104.173 114.385 104.484C114.573 104.795 114.84 105.051 115.158 105.227L116.614 122.196C116.506 121.762 116.261 121.373 115.916 121.087C115.571 120.802 115.143 120.635 114.696 120.61C114.4 120.596 114.104 120.643 113.826 120.745C113.548 120.848 113.293 121.006 113.077 121.209C112.862 121.412 112.689 121.657 112.569 121.928C112.449 122.199 112.385 122.492 112.381 122.788C112.377 123.085 112.432 123.379 112.543 123.653C112.655 123.928 112.82 124.177 113.03 124.387C113.239 124.596 113.489 124.762 113.764 124.873C114.039 124.984 114.333 125.039 114.629 125.034L114.624 125.043ZM125.292 126.23C125.594 126.252 125.897 126.212 126.182 126.113C126.468 126.014 126.731 125.858 126.954 125.653C127.177 125.449 127.356 125.201 127.48 124.926C127.604 124.65 127.67 124.351 127.674 124.049C127.679 123.746 127.621 123.446 127.505 123.167C127.389 122.888 127.217 122.635 127 122.425C126.783 122.214 126.525 122.05 126.242 121.943C125.959 121.836 125.658 121.788 125.356 121.801C125.171 121.798 125.052 121.952 124.885 121.984L122.686 96.3248C123.219 96.286 123.719 96.0522 124.09 95.6679C124.461 95.2837 124.677 94.7761 124.697 94.2425C124.707 93.6541 124.483 93.0859 124.074 92.6624C123.666 92.2389 123.106 91.9947 122.517 91.9833C122.442 91.9853 122.397 92.0615 122.318 92.0662L120.911 75.6958L138.925 84.1296L142.64 85.8663L163.022 95.4279L166.723 97.144L179.877 103.314L183.406 104.965L203.223 114.229L158.36 145.533C158.343 144.993 158.121 144.481 157.739 144.1C157.357 143.719 156.844 143.498 156.305 143.482C155.734 143.474 155.184 143.692 154.774 144.088C154.364 144.485 154.127 145.027 154.116 145.598C154.128 146.024 154.273 146.436 154.531 146.775C154.789 147.115 155.147 147.365 155.555 147.49L140.496 158.003C140.942 157.713 141.269 157.273 141.417 156.762C141.566 156.252 141.526 155.705 141.305 155.222C141.085 154.738 140.698 154.35 140.215 154.128C139.732 153.906 139.186 153.864 138.675 154.011C138.164 154.158 137.723 154.483 137.431 154.928C137.14 155.373 137.018 155.907 137.088 156.434C137.157 156.961 137.414 157.445 137.811 157.799C138.207 158.152 138.718 158.352 139.249 158.361C139.691 158.368 140.125 158.243 140.496 158.003L132.419 163.636C131.92 163.752 131.484 164.055 131.202 164.482L128.676 166.246L127.848 156.827C127.931 156.838 127.975 156.915 128.06 156.919C128.362 156.941 128.665 156.901 128.951 156.802C129.237 156.703 129.499 156.547 129.722 156.342C129.945 156.138 130.124 155.89 130.248 155.615C130.372 155.339 130.438 155.04 130.443 154.738C130.447 154.435 130.389 154.135 130.274 153.856C130.158 153.577 129.986 153.324 129.769 153.113C129.552 152.903 129.294 152.739 129.011 152.632C128.728 152.525 128.426 152.477 128.124 152.49C127.879 152.485 127.715 152.668 127.49 152.739L125.243 126.191C125.243 126.191 125.278 126.227 125.292 126.23Z" fill="#1BA677"/>
<path d="M110.096 114.76C110.535 114.768 110.966 114.646 111.336 114.409C111.705 114.171 111.996 113.83 112.171 113.428C112.346 113.025 112.398 112.58 112.321 112.148C112.243 111.716 112.038 111.317 111.734 111.001C111.429 110.686 111.037 110.467 110.608 110.374C110.179 110.281 109.733 110.317 109.324 110.478C108.916 110.639 108.564 110.918 108.314 111.279C108.064 111.639 107.927 112.066 107.919 112.505C107.909 113.092 108.133 113.66 108.541 114.083C108.949 114.505 109.509 114.749 110.096 114.76Z" fill="#1BA677"/>
<path d="M111.323 95.9596C111.76 95.9659 112.19 95.8424 112.557 95.6048C112.925 95.3672 113.213 95.0261 113.387 94.6245C113.56 94.223 113.611 93.7791 113.533 93.3488C113.454 92.9185 113.25 92.5211 112.946 92.2069C112.641 91.8927 112.251 91.6757 111.823 91.5833C111.396 91.4909 110.95 91.5272 110.543 91.6878C110.136 91.8483 109.786 92.1259 109.537 92.4853C109.287 92.8447 109.15 93.27 109.142 93.7073C109.133 94.2952 109.357 94.8626 109.766 95.2849C110.175 95.7072 110.735 95.9499 111.323 95.9596Z" fill="#1BA677"/>
<path d="M106.261 86.5143C106.698 86.5206 107.127 86.3971 107.495 86.1595C107.862 85.9219 108.151 85.5808 108.324 85.1792C108.498 84.7777 108.549 84.3338 108.47 83.9035C108.392 83.4732 108.187 83.0758 107.883 82.7616C107.579 82.4473 107.188 82.2303 106.761 82.1379C106.333 82.0456 105.888 82.0819 105.481 82.2425C105.074 82.403 104.723 82.6805 104.474 83.04C104.225 83.3994 104.087 83.8247 104.08 84.262C104.07 84.8498 104.295 85.4172 104.704 85.8396C105.113 86.2619 105.673 86.5046 106.261 86.5143Z" fill="#1BA677"/>
<path d="M100.19 95.1739C100.629 95.182 101.06 95.0597 101.43 94.8226C101.799 94.5855 102.09 94.2441 102.265 93.8417C102.44 93.4393 102.492 92.994 102.414 92.5621C102.336 92.1302 102.132 91.7312 101.827 91.4154C101.523 91.0997 101.131 90.8814 100.702 90.7884C100.273 90.6953 99.8263 90.7315 99.4179 90.8925C99.0096 91.0534 98.6581 91.3319 98.4081 91.6926C98.158 92.0533 98.0205 92.4801 98.0131 92.9189C98.0032 93.5065 98.2268 94.074 98.6349 94.4968C99.043 94.9195 99.6023 95.1631 100.19 95.1739Z" fill="#1BA677"/>
<path d="M94.0833 103.709C94.5219 103.717 94.9528 103.594 95.3217 103.357C95.6907 103.119 95.981 102.778 96.156 102.376C96.331 101.974 96.3828 101.529 96.3049 101.097C96.2271 100.665 96.023 100.267 95.7185 99.951C95.414 99.6354 95.0228 99.4172 94.5942 99.3238C94.1657 99.2305 93.719 99.2663 93.3108 99.4267C92.9025 99.5872 92.551 99.865 92.3005 100.225C92.0501 100.585 91.9121 101.011 91.9038 101.45C91.8983 101.742 91.9504 102.031 92.057 102.303C92.1636 102.574 92.3227 102.822 92.5251 103.031C92.7275 103.241 92.9693 103.409 93.2367 103.525C93.5041 103.642 93.7918 103.704 94.0833 103.709Z" fill="#1BA677"/>
<path d="M87.8383 112.119C88.2772 112.127 88.7086 112.005 89.0779 111.768C89.4473 111.531 89.738 111.189 89.9134 110.787C90.0887 110.385 90.1407 109.939 90.0628 109.507C89.9849 109.076 89.7807 108.676 89.4759 108.361C89.1711 108.045 88.7794 107.827 88.3505 107.734C87.9216 107.641 87.4747 107.677 87.0664 107.838C86.658 107.999 86.3066 108.277 86.0565 108.638C85.8064 108.999 85.669 109.425 85.6616 109.864C85.656 110.155 85.7079 110.445 85.8143 110.716C85.9208 110.987 86.0797 111.234 86.2819 111.444C86.4841 111.653 86.7257 111.82 86.9928 111.936C87.2598 112.052 87.5472 112.115 87.8383 112.119Z" fill="#1BA677"/>
<path d="M74.2436 108.371C74.2372 108.808 74.3606 109.238 74.5982 109.605C74.8357 109.972 75.1768 110.261 75.5784 110.435C75.9799 110.608 76.4239 110.659 76.8542 110.58C77.2846 110.501 77.682 110.297 77.9963 109.993C78.3106 109.688 78.5277 109.298 78.6202 108.87C78.7127 108.443 78.6764 107.997 78.5159 107.591C78.3554 107.184 78.0779 106.833 77.7185 106.584C77.3591 106.335 76.9338 106.198 76.4964 106.19C75.9086 106.181 75.3411 106.405 74.9186 106.814C74.4962 107.223 74.2534 107.783 74.2436 108.371Z" fill="#1BA677"/>
<path d="M82.8839 98.0088C82.4451 98.0015 82.014 98.1245 81.6451 98.3623C81.2762 98.6 80.9861 98.9419 80.8115 99.3445C80.6369 99.7471 80.5856 100.192 80.6642 100.624C80.7428 101.056 80.9476 101.455 81.2529 101.77C81.5581 102.085 81.95 102.303 82.379 102.395C82.808 102.488 83.2548 102.451 83.6629 102.289C84.071 102.128 84.422 101.849 84.6715 101.488C84.9211 101.127 85.058 100.7 85.0649 100.261C85.0701 99.9698 85.0178 99.6804 84.9109 99.4095C84.804 99.1385 84.6447 98.8913 84.4421 98.6821C84.2395 98.4728 83.9975 98.3057 83.7302 98.1901C83.4628 98.0746 83.1752 98.013 82.8839 98.0088Z" fill="#1BA677"/>
<path d="M88.8424 94.0998C89.2812 94.107 89.7123 93.984 90.0812 93.7463C90.4501 93.5085 90.7402 93.1667 90.9149 92.7641C91.0895 92.3614 91.1407 91.9161 91.0622 91.4844C90.9836 91.0527 90.7787 90.654 90.4735 90.3387C90.1682 90.0235 89.7763 89.8059 89.3473 89.7134C88.9184 89.621 88.4716 89.6579 88.0635 89.8194C87.6554 89.9809 87.3044 90.2598 87.0548 90.6208C86.8053 90.9818 86.6684 91.4087 86.6615 91.8475C86.6563 92.1387 86.7086 92.4281 86.8155 92.6991C86.9223 92.97 87.0817 93.2172 87.2843 93.4264C87.4869 93.6357 87.7288 93.8029 87.9962 93.9184C88.2636 94.034 88.5512 94.0956 88.8424 94.0998Z" fill="#1BA677"/>
<path d="M95.0377 85.674C95.4765 85.6813 95.9077 85.5582 96.2766 85.3205C96.6455 85.0827 96.9356 84.7409 97.1102 84.3383C97.2848 83.9356 97.336 83.4903 97.2575 83.0586C97.1789 82.6269 96.974 82.2282 96.6688 81.9129C96.3636 81.5977 95.9716 81.3801 95.5427 81.2877C95.1137 81.1952 94.6669 81.2321 94.2588 81.3936C93.8507 81.5551 93.4997 81.834 93.2501 82.195C93.0006 82.556 92.8637 82.9829 92.8568 83.4217C92.8476 84.0095 93.0721 84.5769 93.481 84.9992C93.89 85.4215 94.4499 85.6642 95.0377 85.674Z" fill="#1BA677"/>
<path d="M83.0883 84.7599C83.5272 84.7679 83.9586 84.6457 84.3279 84.4085C84.6973 84.1714 84.988 83.83 85.1634 83.4277C85.3387 83.0253 85.3907 82.58 85.3128 82.1481C85.2349 81.7162 85.0307 81.3171 84.7259 81.0014C84.4211 80.6856 84.0295 80.4674 83.6005 80.3743C83.1716 80.2812 82.7247 80.3174 82.3164 80.4784C81.908 80.6394 81.5566 80.9178 81.3065 81.2785C81.0564 81.6393 80.919 82.0661 80.9116 82.5049C80.906 82.796 80.9579 83.0853 81.0643 83.3563C81.1708 83.6273 81.3297 83.8747 81.5319 84.0841C81.7341 84.2936 81.9757 84.4611 82.2428 84.5771C82.5098 84.693 82.7972 84.7551 83.0883 84.7599Z" fill="#1BA677"/>
<path d="M75.1694 90.6926C75.1613 91.1314 75.2835 91.5627 75.5206 91.932C75.7576 92.3013 76.099 92.5919 76.5014 92.7672C76.9037 92.9424 77.3491 92.9943 77.781 92.9164C78.213 92.8384 78.6121 92.6341 78.9279 92.3293C79.2438 92.0245 79.4621 91.6328 79.5552 91.2039C79.6484 90.775 79.6123 90.3282 79.4514 89.9199C79.2905 89.5116 79.012 89.1602 78.6513 88.9102C78.2906 88.6603 77.8638 88.5229 77.425 88.5155C76.8378 88.507 76.2709 88.7311 75.8483 89.139C75.4257 89.5469 75.1817 90.1054 75.1694 90.6926Z" fill="#1BA677"/>
<path d="M70.2253 84.5959C70.664 84.6031 71.0952 84.4801 71.4641 84.2424C71.833 84.0046 72.1231 83.6628 72.2977 83.2602C72.4723 82.8575 72.5235 82.4122 72.445 81.9805C72.3664 81.5488 72.1615 81.1501 71.8563 80.8348C71.5511 80.5196 71.1591 80.302 70.7302 80.2095C70.3012 80.1171 69.8544 80.154 69.4463 80.3155C69.0382 80.477 68.6872 80.7559 68.4376 81.1169C68.1881 81.4779 68.0512 81.9048 68.0443 82.3436C68.0364 82.931 68.2614 83.4977 68.67 83.9197C69.0787 84.3417 69.6378 84.5848 70.2253 84.5959Z" fill="#1BA677"/>
<path d="M63.7241 90.1027C63.716 90.5415 63.8381 90.9729 64.0752 91.3422C64.3123 91.7114 64.6537 92.0021 65.056 92.1773C65.4584 92.3526 65.9038 92.4045 66.3357 92.3265C66.7677 92.2486 67.1668 92.0443 67.4826 91.7394C67.7984 91.4346 68.0168 91.043 68.1099 90.6141C68.2031 90.1852 68.167 89.7383 68.0061 89.33C67.8451 88.9217 67.5667 88.5704 67.206 88.3204C66.8453 88.0704 66.4185 87.933 65.9797 87.9257C65.392 87.9158 64.8245 88.1396 64.4016 88.5477C63.9787 88.9559 63.735 89.5152 63.7241 90.1027Z" fill="#1BA677"/>
<path d="M31.479 84.9005C31.9178 84.9086 32.3492 84.7863 32.7186 84.5492C33.0879 84.312 33.3787 83.9707 33.554 83.5683C33.7293 83.1659 33.7813 82.7206 33.7034 82.2887C33.6256 81.8568 33.4213 81.4577 33.1165 81.142C32.8117 80.8262 32.4201 80.608 31.9912 80.5149C31.5623 80.4218 31.1153 80.4581 30.707 80.619C30.2986 80.78 29.9472 81.0584 29.6971 81.4192C29.4471 81.7799 29.3096 82.2067 29.3022 82.6455C29.2922 83.2331 29.5159 83.8005 29.924 84.2233C30.3321 84.6461 30.8914 84.8896 31.479 84.9005Z" fill="#1BA677"/>
<path d="M19.3852 84.9942C19.8241 85.0023 20.2555 84.8801 20.6248 84.6429C20.9942 84.4058 21.2849 84.0644 21.4602 83.662C21.6355 83.2597 21.6875 82.8143 21.6097 82.3824C21.5318 81.9505 21.3275 81.5515 21.0227 81.2357C20.718 80.92 20.3263 80.7018 19.8974 80.6087C19.4685 80.5156 19.0216 80.5518 18.6132 80.7128C18.2049 80.8737 17.8534 81.1522 17.6034 81.5129C17.3533 81.8736 17.2159 82.3004 17.2084 82.7392C17.2029 83.0304 17.2548 83.3197 17.3612 83.5907C17.4677 83.8617 17.6265 84.109 17.8288 84.3185C18.031 84.528 18.2725 84.6955 18.5396 84.8114C18.8067 84.9274 19.0941 84.9895 19.3852 84.9942Z" fill="#1BA677"/>
<path d="M15.3843 95.4419C15.8174 95.4506 16.2434 95.3305 16.6084 95.0969C16.9733 94.8633 17.2607 94.5267 17.4341 94.1296C17.6076 93.7326 17.6593 93.293 17.5827 92.8666C17.5062 92.4402 17.3048 92.0462 17.004 91.7344C16.7033 91.4226 16.3167 91.207 15.8933 91.1151C15.47 91.0232 15.0288 91.0589 14.6257 91.2179C14.2227 91.3768 13.8758 91.6519 13.6291 92.0081C13.3824 92.3643 13.247 92.7856 13.24 93.2188C13.2306 93.7976 13.451 94.3566 13.8529 94.7732C14.2548 95.1899 14.8054 95.4303 15.3843 95.4419Z" fill="#1BA677"/>
<path d="M34.9633 111.311C35.4022 111.319 35.8336 111.196 36.2029 110.959C36.5723 110.722 36.863 110.381 37.0384 109.978C37.2137 109.576 37.2657 109.131 37.1878 108.699C37.1099 108.267 36.9057 107.868 36.6009 107.552C36.2961 107.236 35.9045 107.018 35.4755 106.925C35.0466 106.832 34.5997 106.868 34.1914 107.029C33.783 107.19 33.4316 107.469 33.1815 107.829C32.9314 108.19 32.794 108.617 32.7865 109.056C32.7766 109.643 33.0002 110.211 33.4084 110.633C33.8165 111.056 34.3757 111.3 34.9633 111.311Z" fill="#1BA677"/>
<path d="M27.5725 117.894C28.0094 117.901 28.4389 117.779 28.8064 117.543C29.174 117.306 29.4632 116.966 29.6374 116.566C29.8116 116.165 29.8631 115.721 29.7852 115.291C29.7073 114.862 29.5035 114.464 29.1998 114.15C28.8961 113.836 28.5059 113.619 28.0788 113.527C27.6517 113.435 27.2068 113.471 26.8004 113.632C26.394 113.793 26.0443 114.07 25.7957 114.43C25.5471 114.789 25.4107 115.214 25.4038 115.651C25.3945 116.236 25.6177 116.8 26.0243 117.221C26.4309 117.641 26.9877 117.883 27.5725 117.894Z" fill="#1BA677"/>
<path d="M33.1338 129.385C33.5618 129.393 33.9825 129.274 34.3428 129.043C34.703 128.811 34.9865 128.478 35.1575 128.086C35.3285 127.693 35.3792 127.259 35.3033 126.838C35.2274 126.417 35.0282 126.027 34.731 125.719C34.4338 125.411 34.0518 125.198 33.6335 125.107C33.2152 125.017 32.7793 125.052 32.381 125.209C31.9827 125.365 31.6398 125.637 31.3957 125.989C31.1516 126.34 31.0174 126.756 31.0099 127.184C31.0011 127.758 31.2196 128.311 31.6176 128.723C32.0156 129.136 32.5607 129.374 33.1338 129.385Z" fill="#1BA677"/>
<path d="M39.1899 121.303C39.6287 121.311 40.0601 121.189 40.4295 120.952C40.7989 120.714 41.0896 120.373 41.2649 119.971C41.4402 119.568 41.4922 119.123 41.4144 118.691C41.3365 118.259 41.1322 117.86 40.8274 117.544C40.5226 117.229 40.131 117.01 39.7021 116.917C39.2732 116.824 38.8263 116.86 38.4179 117.021C38.0096 117.182 37.6581 117.461 37.4081 117.822C37.158 118.182 37.0206 118.609 37.0131 119.048C37.0075 119.339 37.0595 119.628 37.1659 119.899C37.2724 120.17 37.4312 120.418 37.6334 120.627C37.8357 120.837 38.0772 121.004 38.3443 121.12C38.6114 121.236 38.8988 121.298 39.1899 121.303Z" fill="#1BA677"/>
<path d="M42.8005 98.8307C42.2803 98.8424 41.7814 99.0399 41.394 99.3874L41.2326 99.4926C40.875 99.8538 40.6533 100.328 40.605 100.833C40.5567 101.339 40.6848 101.846 40.9675 102.269C41.2503 102.691 41.6703 103.002 42.1565 103.15C42.6427 103.298 43.1652 103.274 43.6354 103.081C44.1055 102.888 44.4945 102.538 44.7365 102.091C44.9784 101.644 45.0584 101.127 44.9628 100.628C44.8673 100.129 44.6022 99.6781 44.2123 99.3521C43.8225 99.0261 43.3319 98.8449 42.8237 98.8392L42.8005 98.8307Z" fill="#1BA677"/>
<path d="M46.2446 113.682C46.6834 113.69 47.1148 113.568 47.4842 113.33C47.8536 113.093 48.1443 112.752 48.3196 112.35C48.4949 111.947 48.5469 111.502 48.4691 111.07C48.3912 110.638 48.1869 110.239 47.8821 109.923C47.5773 109.607 47.1857 109.389 46.7568 109.296C46.3279 109.203 45.881 109.239 45.4726 109.4C45.0643 109.561 44.7128 109.84 44.4628 110.2C44.2127 110.561 44.0752 110.988 44.0678 111.427C44.0579 112.014 44.2815 112.582 44.6896 113.005C45.0977 113.427 45.657 113.671 46.2446 113.682Z" fill="#1BA677"/>
<path d="M57.9555 115.971C58.3944 115.979 58.8258 115.857 59.1951 115.619C59.5645 115.382 59.8552 115.041 60.0305 114.639C60.2058 114.236 60.2579 113.791 60.18 113.359C60.1021 112.927 59.8978 112.528 59.5931 112.212C59.2883 111.897 58.8966 111.678 58.4677 111.585C58.0388 111.492 57.5919 111.528 57.1836 111.689C56.7752 111.85 56.4238 112.129 56.1737 112.489C55.9236 112.85 55.7862 113.277 55.7787 113.716C55.7732 114.007 55.8251 114.296 55.9315 114.567C56.038 114.838 56.1969 115.086 56.3991 115.295C56.6013 115.505 56.8429 115.672 57.1099 115.788C57.377 115.904 57.6644 115.966 57.9555 115.971Z" fill="#1BA677"/>
<path d="M53.195 106.1C53.6341 106.108 54.0659 105.986 54.4357 105.749C54.8055 105.512 55.0967 105.171 55.2723 104.768C55.4479 104.366 55.5001 103.92 55.4222 103.488C55.3443 103.056 55.1399 102.657 54.8348 102.341C54.5297 102.025 54.1377 101.807 53.7084 101.714C53.2792 101.621 52.832 101.658 52.4235 101.819C52.0151 101.981 51.6637 102.26 51.414 102.621C51.1643 102.982 51.0275 103.41 51.0209 103.849C51.012 104.435 51.2358 105.001 51.6432 105.423C52.0506 105.845 52.6086 106.088 53.195 106.1Z" fill="#1BA677"/>
<path d="M59.3852 98.5841C59.8241 98.5922 60.2555 98.4699 60.6248 98.2328C60.9942 97.9956 61.2849 97.6543 61.4602 97.2519C61.6355 96.8495 61.6875 96.4042 61.6097 95.9723C61.5318 95.5404 61.3275 95.1413 61.0227 94.8256C60.718 94.5098 60.3263 94.2916 59.8974 94.1985C59.4685 94.1054 59.0216 94.1417 58.6132 94.3026C58.2049 94.4636 57.8534 94.742 57.6034 95.1028C57.3533 95.4635 57.2159 95.8903 57.2084 96.3291C57.1998 96.9163 57.4239 97.483 57.8317 97.9055C58.2395 98.328 58.798 98.572 59.3852 98.5841Z" fill="#1BA677"/>
<path d="M73.6788 99.0573C73.6852 98.6199 73.5618 98.1905 73.3242 97.8232C73.0866 97.456 72.7455 97.1674 72.344 96.9939C71.9425 96.8203 71.4985 96.7697 71.0682 96.8483C70.6378 96.927 70.2404 97.1313 69.9261 97.4356C69.6118 97.7399 69.3947 98.1305 69.3022 98.5581C69.2097 98.9856 69.246 99.431 69.4065 99.8379C69.567 100.245 69.8445 100.595 70.2039 100.844C70.5633 101.094 70.9886 101.231 71.426 101.238C72.0138 101.248 72.5813 101.023 73.0037 100.614C73.4262 100.205 73.669 99.6451 73.6788 99.0573Z" fill="#1BA677"/>
<path d="M64.604 108.389C65.0428 108.397 65.4742 108.275 65.8436 108.037C66.2129 107.8 66.5037 107.459 66.679 107.057C66.8543 106.654 66.9063 106.209 66.8284 105.777C66.7505 105.345 66.5463 104.946 66.2415 104.63C65.9367 104.315 65.5451 104.096 65.1162 104.003C64.6873 103.91 64.2404 103.946 63.832 104.107C63.4236 104.268 63.0722 104.547 62.8221 104.907C62.5721 105.268 62.4346 105.695 62.4272 106.134C62.4172 106.721 62.6409 107.289 63.049 107.712C63.4571 108.134 64.0164 108.378 64.604 108.389Z" fill="#1BA677"/>
<path d="M69.7249 113.642C69.2875 113.636 68.858 113.759 68.4907 113.997C68.1233 114.234 67.8347 114.575 67.6611 114.977C67.4875 115.379 67.4367 115.822 67.5153 116.253C67.5938 116.683 67.7982 117.08 68.1024 117.395C68.4067 117.709 68.7973 117.926 69.2248 118.018C69.6524 118.111 70.0978 118.074 70.5048 117.914C70.9117 117.753 71.262 117.476 71.5113 117.116C71.7607 116.757 71.898 116.332 71.9058 115.894C71.915 115.306 71.6905 114.739 71.2816 114.317C70.8727 113.894 70.3127 113.652 69.7249 113.642Z" fill="#1BA677"/>
<path d="M62.9949 125.553C63.4323 125.56 63.8618 125.436 64.2291 125.199C64.5965 124.961 64.8852 124.62 65.0588 124.218C65.2324 123.817 65.2831 123.373 65.2045 122.943C65.126 122.512 64.9217 122.115 64.6174 121.801C64.3131 121.486 63.9225 121.269 63.495 121.177C63.0674 121.085 62.622 121.121 62.2151 121.282C61.8081 121.442 61.4578 121.72 61.2085 122.079C60.9591 122.438 60.8218 122.864 60.814 123.301C60.8048 123.889 61.0293 124.456 61.4382 124.879C61.8472 125.301 62.4071 125.544 62.9949 125.553Z" fill="#1BA677"/>
<path d="M56.3893 132.951C56.8281 132.959 57.2592 132.836 57.6281 132.598C57.997 132.36 58.2871 132.018 58.4617 131.616C58.6363 131.213 58.6876 130.768 58.609 130.336C58.5305 129.904 58.3256 129.506 58.0204 129.19C57.7151 128.875 57.3232 128.657 56.8942 128.565C56.4652 128.473 56.0184 128.509 55.6104 128.671C55.2023 128.832 54.8513 129.111 54.6017 129.472C54.3522 129.833 54.2153 130.26 54.2084 130.699C54.2032 130.99 54.2555 131.28 54.3624 131.551C54.4692 131.822 54.6285 132.069 54.8312 132.278C55.0338 132.487 55.2757 132.654 55.5431 132.77C55.8105 132.886 56.0981 132.947 56.3893 132.951Z" fill="#1BA677"/>
<path d="M51.1118 123.311C51.5506 123.319 51.982 123.196 52.3514 122.959C52.7207 122.722 53.0115 122.381 53.1868 121.978C53.3621 121.576 53.4141 121.131 53.3362 120.699C53.2584 120.267 53.0541 119.868 52.7493 119.552C52.4445 119.236 52.0529 119.018 51.624 118.925C51.1951 118.832 50.7482 118.868 50.3398 119.029C49.9315 119.19 49.58 119.469 49.3299 119.829C49.0799 120.19 48.9424 120.617 48.935 121.056C48.925 121.643 49.1487 122.211 49.5568 122.633C49.9649 123.056 50.5242 123.3 51.1118 123.311Z" fill="#1BA677"/>
<path d="M44.763 131.014C45.2015 131.021 45.6325 130.899 46.0014 130.661C46.3703 130.424 46.6606 130.083 46.8356 129.681C47.0106 129.278 47.0625 128.833 46.9846 128.402C46.9068 127.97 46.7027 127.571 46.3982 127.256C46.0937 126.94 45.7024 126.722 45.2739 126.629C44.8453 126.535 44.3987 126.571 43.9905 126.731C43.5822 126.892 43.2306 127.17 42.9802 127.53C42.7298 127.89 42.5917 128.316 42.5835 128.755C42.5738 129.343 42.7977 129.911 43.2062 130.335C43.6148 130.758 44.1746 131.002 44.763 131.014Z" fill="#1BA677"/>
<path d="M39.698 139.651C40.1355 139.657 40.5649 139.534 40.9323 139.296C41.2996 139.059 41.5883 138.717 41.7619 138.316C41.9355 137.914 41.9862 137.47 41.9077 137.04C41.8291 136.61 41.6248 136.213 41.3205 135.898C41.0163 135.584 40.6257 135.367 40.1981 135.275C39.7705 135.182 39.3251 135.219 38.9182 135.379C38.5112 135.54 38.161 135.817 37.9116 136.177C37.6622 136.536 37.525 136.961 37.5171 137.399C37.5079 137.987 37.7324 138.554 38.1414 138.976C38.5503 139.399 39.1102 139.641 39.698 139.651Z" fill="#1BA677"/>
<path d="M50.6512 140.96C51.0886 140.966 51.5181 140.842 51.8854 140.605C52.2527 140.367 52.5414 140.026 52.715 139.625C52.8886 139.223 52.9393 138.779 52.8608 138.349C52.7822 137.918 52.5779 137.521 52.2736 137.207C51.9694 136.893 51.5788 136.676 51.1512 136.583C50.7236 136.491 50.2783 136.527 49.8713 136.688C49.4643 136.848 49.1141 137.126 48.8647 137.485C48.6154 137.845 48.4781 138.27 48.4702 138.707C48.461 139.295 48.6855 139.863 49.0945 140.285C49.5034 140.707 50.0633 140.95 50.6512 140.96Z" fill="#1BA677"/>
<path d="M45.5428 149.627C45.9805 149.635 46.4107 149.513 46.7789 149.276C47.1472 149.039 47.4369 148.698 47.6115 148.297C47.7861 147.895 47.8378 147.451 47.7599 147.02C47.682 146.59 47.4781 146.192 47.174 145.877C46.8699 145.562 46.4792 145.344 46.0514 145.252C45.6235 145.159 45.1778 145.195 44.7704 145.355C44.3631 145.516 44.0125 145.794 43.763 146.154C43.5135 146.513 43.3762 146.939 43.3687 147.377C43.3585 147.963 43.5818 148.53 43.9895 148.952C44.3972 149.374 44.9559 149.617 45.5428 149.627Z" fill="#1BA677"/>
<path d="M50.5584 160.045C50.9961 160.053 51.4263 159.931 51.7946 159.694C52.1628 159.457 52.4525 159.116 52.6272 158.715C52.8018 158.313 52.8534 157.869 52.7755 157.438C52.6976 157.008 52.4937 156.61 52.1896 156.295C51.8855 155.98 51.4948 155.762 51.067 155.67C50.6391 155.577 50.1934 155.613 49.786 155.773C49.3787 155.934 49.0281 156.212 48.7786 156.571C48.5291 156.931 48.3919 157.357 48.3843 157.795C48.3754 158.381 48.5992 158.947 49.0066 159.369C49.414 159.791 49.972 160.034 50.5584 160.045Z" fill="#1BA677"/>
<path d="M55.9349 146.81C55.4961 146.802 55.0647 146.924 54.6953 147.161C54.3259 147.398 54.0352 147.739 53.8599 148.142C53.6846 148.544 53.6326 148.99 53.7105 149.421C53.7883 149.853 53.9926 150.252 54.2974 150.568C54.6022 150.884 54.9938 151.102 55.4227 151.195C55.8516 151.288 56.2985 151.252 56.7069 151.091C57.1152 150.93 57.4667 150.652 57.7168 150.291C57.9668 149.93 58.1043 149.503 58.1117 149.065C58.1173 148.773 58.0654 148.484 57.9589 148.213C57.8525 147.942 57.6936 147.695 57.4914 147.485C57.2891 147.276 57.0476 147.108 56.7805 146.992C56.5134 146.876 56.2261 146.814 55.9349 146.81Z" fill="#1BA677"/>
<path d="M60.9599 157.008C60.5211 157 60.0897 157.122 59.7203 157.359C59.351 157.596 59.0602 157.938 58.8849 158.34C58.7096 158.742 58.6576 159.188 58.7355 159.62C58.8134 160.051 59.0176 160.451 59.3224 160.766C59.6272 161.082 60.0188 161.3 60.4477 161.393C60.8766 161.486 61.3236 161.45 61.7319 161.289C62.1403 161.128 62.4917 160.85 62.7418 160.489C62.9919 160.128 63.1293 159.702 63.1367 159.263C63.1467 158.675 62.923 158.108 62.5149 157.685C62.1068 157.262 61.5475 157.019 60.9599 157.008Z" fill="#1BA677"/>
<path d="M56.239 170.428C56.6771 170.437 57.108 170.316 57.4771 170.08C57.8463 169.844 58.1371 169.504 58.3127 169.102C58.4884 168.701 58.5409 168.256 58.4637 167.825C58.3865 167.394 58.183 166.995 57.8791 166.68C57.5751 166.364 57.1843 166.146 56.7562 166.053C56.3281 165.96 55.8819 165.995 55.4742 166.156C55.0665 166.317 54.7156 166.594 54.4659 166.955C54.2163 167.315 54.0791 167.741 54.0718 168.179C54.062 168.764 54.2845 169.329 54.6907 169.751C55.0969 170.173 55.6536 170.416 56.239 170.428Z" fill="#1BA677"/>
<path d="M69.1693 160.328C69.1625 160.767 69.2858 161.197 69.5237 161.566C69.7616 161.934 70.1033 162.224 70.5058 162.398C70.9082 162.572 71.3533 162.623 71.7848 162.545C72.2162 162.466 72.6147 162.261 72.9299 161.956C73.2451 161.651 73.4629 161.26 73.5556 160.831C73.6484 160.403 73.612 159.956 73.4511 159.548C73.2902 159.14 73.012 158.789 72.6516 158.539C72.2912 158.289 71.8648 158.152 71.4263 158.144C70.8377 158.136 70.2695 158.36 69.8464 158.77C69.4232 159.179 69.1798 159.74 69.1693 160.328Z" fill="#1BA677"/>
<path d="M75.4584 153.637C75.4508 154.075 75.5734 154.506 75.8106 154.875C76.0479 155.244 76.3892 155.534 76.7914 155.709C77.1936 155.884 77.6386 155.936 78.0703 155.858C78.5019 155.78 78.9008 155.576 79.2165 155.271C79.5322 154.967 79.7506 154.575 79.844 154.147C79.9374 153.718 79.9017 153.272 79.7413 152.863C79.5809 152.455 79.3031 152.104 78.943 151.853C78.5829 151.603 78.1567 151.465 77.7181 151.457C77.4266 151.452 77.1368 151.504 76.8654 151.61C76.594 151.717 76.3463 151.876 76.1364 152.079C75.9266 152.281 75.7587 152.523 75.6423 152.79C75.526 153.058 75.4635 153.345 75.4584 153.637Z" fill="#1BA677"/>
<path d="M81.8647 146.126C81.8573 146.565 81.9803 146.996 82.218 147.365C82.4557 147.734 82.7975 148.024 83.2001 148.198C83.6027 148.373 84.0481 148.424 84.4799 148.345C84.9116 148.267 85.3104 148.062 85.6257 147.757C85.941 147.451 86.1587 147.059 86.2513 146.63C86.3438 146.201 86.307 145.755 86.1455 145.347C85.9841 144.939 85.7052 144.588 85.3442 144.338C84.9832 144.089 84.5563 143.952 84.1175 143.945C83.8263 143.94 83.5369 143.992 83.2659 144.099C82.9949 144.206 82.7476 144.366 82.5383 144.568C82.329 144.771 82.1618 145.013 82.0462 145.28C81.9306 145.548 81.8689 145.835 81.8647 146.126Z" fill="#1BA677"/>
<path d="M77.3257 135.595C77.3175 136.034 77.4397 136.465 77.6768 136.834C77.9139 137.204 78.2552 137.494 78.6576 137.67C79.06 137.845 79.5053 137.897 79.9373 137.819C80.3692 137.741 80.7684 137.536 81.0842 137.232C81.4 136.927 81.6183 136.535 81.7115 136.106C81.8047 135.677 81.7685 135.231 81.6076 134.822C81.4467 134.414 81.1683 134.063 80.8076 133.813C80.4469 133.563 80.0201 133.425 79.5812 133.418C78.9936 133.408 78.4261 133.632 78.0032 134.04C77.5803 134.448 77.3366 135.007 77.3257 135.595Z" fill="#1BA677"/>
<path d="M75.2101 143.206C75.2164 142.768 75.093 142.339 74.8555 141.972C74.6179 141.604 74.2768 141.316 73.8753 141.142C73.4737 140.969 73.0298 140.918 72.5994 140.997C72.1691 141.075 71.7716 141.28 71.4573 141.584C71.143 141.888 70.9259 142.279 70.8334 142.707C70.741 143.134 70.7773 143.579 70.9378 143.986C71.0982 144.393 71.3757 144.743 71.7351 144.993C72.0946 145.242 72.5198 145.379 72.9572 145.387C73.5451 145.396 74.1126 145.171 74.535 144.762C74.9574 144.353 75.2002 143.794 75.2101 143.206Z" fill="#1BA677"/>
<path d="M66.6146 148.47C66.1757 148.462 65.7444 148.584 65.375 148.821C65.0056 149.058 64.7149 149.4 64.5396 149.802C64.3643 150.204 64.3123 150.65 64.3901 151.082C64.468 151.513 64.6723 151.913 64.9771 152.228C65.2819 152.544 65.6735 152.762 66.1024 152.855C66.5313 152.948 66.9782 152.912 67.3866 152.751C67.7949 152.59 68.1464 152.312 68.3964 151.951C68.6465 151.59 68.7839 151.164 68.7914 150.725C68.797 150.434 68.745 150.144 68.6386 149.873C68.5321 149.602 68.3733 149.355 68.171 149.146C67.9688 148.936 67.7273 148.769 67.4602 148.653C67.1931 148.537 66.9057 148.474 66.6146 148.47Z" fill="#1BA677"/>
<path d="M61.6315 142.873C62.0703 142.88 62.5014 142.757 62.8703 142.52C63.2392 142.282 63.5293 141.94 63.7039 141.537C63.8785 141.135 63.9298 140.69 63.8512 140.258C63.7727 139.826 63.5678 139.427 63.2625 139.112C62.9573 138.797 62.5654 138.579 62.1364 138.487C61.7074 138.394 61.2606 138.431 60.8525 138.593C60.4445 138.754 60.0934 139.033 59.8439 139.394C59.5943 139.755 59.4575 140.182 59.4506 140.621C59.4413 141.209 59.6659 141.776 60.0748 142.198C60.4837 142.621 61.0436 142.863 61.6315 142.873Z" fill="#1BA677"/>
<path d="M68.1162 130.918C67.6773 130.91 67.246 131.032 66.8766 131.269C66.5072 131.506 66.2165 131.848 66.0412 132.25C65.8659 132.653 65.8139 133.098 65.8917 133.53C65.9696 133.962 66.1739 134.361 66.4787 134.676C66.7835 134.992 67.1751 135.21 67.604 135.304C68.0329 135.397 68.4798 135.36 68.8882 135.199C69.2965 135.038 69.648 134.76 69.898 134.399C70.1481 134.039 70.2855 133.612 70.293 133.173C70.3029 132.585 70.0793 132.018 69.6712 131.595C69.263 131.172 68.7038 130.929 68.1162 130.918Z" fill="#1BA677"/>
<path d="M72.4898 125.591C72.4816 126.03 72.6038 126.461 72.8409 126.83C73.078 127.2 73.4193 127.49 73.8217 127.666C74.2241 127.841 74.6694 127.893 75.1013 127.815C75.5333 127.737 75.9324 127.533 76.2482 127.228C76.5641 126.923 76.7824 126.531 76.8756 126.102C76.9687 125.673 76.9326 125.227 76.7717 124.818C76.6108 124.41 76.3324 124.059 75.9717 123.809C75.6109 123.559 75.1842 123.421 74.7453 123.414C74.1577 123.404 73.5901 123.628 73.1672 124.036C72.7443 124.444 72.5007 125.003 72.4898 125.591Z" fill="#1BA677"/>
<path d="M79.1889 118.02C79.1825 118.457 79.3059 118.886 79.5435 119.254C79.7811 119.621 80.1222 119.909 80.5237 120.083C80.9252 120.256 81.3692 120.307 81.7996 120.228C82.2299 120.15 82.6273 119.946 82.9416 119.641C83.2559 119.337 83.473 118.946 83.5655 118.519C83.658 118.091 83.6217 117.646 83.4612 117.239C83.3007 116.832 83.0232 116.482 82.6638 116.233C82.3044 115.983 81.8791 115.846 81.4417 115.838C80.8539 115.829 80.2864 116.054 79.864 116.463C79.4415 116.872 79.1987 117.432 79.1889 118.02Z" fill="#1BA677"/>
<path d="M86.1587 130.15C86.5975 130.159 87.0289 130.036 87.3983 129.799C87.7676 129.562 88.0584 129.221 88.2337 128.818C88.409 128.416 88.461 127.971 88.3831 127.539C88.3052 127.107 88.101 126.708 87.7962 126.392C87.4914 126.076 87.0998 125.858 86.6709 125.765C86.2419 125.672 85.795 125.708 85.3867 125.869C84.9783 126.03 84.6269 126.308 84.3768 126.669C84.1267 127.03 83.9893 127.457 83.9819 127.895C83.9732 128.483 84.1973 129.049 84.6051 129.472C85.013 129.894 85.5715 130.138 86.1587 130.15Z" fill="#1BA677"/>
<path d="M92.6902 122.01C93.1276 122.017 93.5571 121.893 93.9245 121.656C94.2918 121.418 94.5805 121.077 94.7541 120.675C94.9277 120.274 94.9784 119.83 94.8998 119.4C94.8213 118.969 94.617 118.572 94.3127 118.258C94.0084 117.943 93.6179 117.726 93.1903 117.634C92.7627 117.542 92.3173 117.578 91.9104 117.739C91.5034 117.899 91.1531 118.177 90.9038 118.536C90.6544 118.896 90.5171 119.321 90.5093 119.758C90.5001 120.346 90.7246 120.913 91.1335 121.336C91.5425 121.758 92.1024 122.001 92.6902 122.01Z" fill="#1BA677"/>
<path d="M99.0221 113.584C99.4609 113.591 99.892 113.468 100.261 113.231C100.63 112.993 100.92 112.651 101.095 112.248C101.269 111.846 101.32 111.4 101.242 110.969C101.163 110.537 100.958 110.138 100.653 109.823C100.348 109.508 99.956 109.29 99.527 109.198C99.098 109.105 98.6513 109.142 98.2432 109.304C97.8351 109.465 97.4841 109.744 97.2345 110.105C96.985 110.466 96.8481 110.893 96.8412 111.332C96.832 111.92 97.0565 112.487 97.4654 112.909C97.8744 113.332 98.4343 113.574 99.0221 113.584Z" fill="#1BA677"/>
<path d="M105.276 104.917C105.714 104.923 106.143 104.799 106.51 104.562C106.878 104.324 107.166 103.983 107.34 103.582C107.514 103.18 107.564 102.736 107.486 102.306C107.407 101.875 107.203 101.478 106.899 101.164C106.594 100.85 106.204 100.633 105.776 100.54C105.349 100.448 104.903 100.484 104.496 100.645C104.089 100.805 103.739 101.083 103.49 101.442C103.24 101.802 103.103 102.227 103.095 102.664C103.089 102.956 103.141 103.245 103.248 103.517C103.354 103.788 103.514 104.035 103.717 104.245C103.919 104.454 104.161 104.621 104.429 104.737C104.697 104.852 104.985 104.913 105.276 104.917Z" fill="#1BA677"/>
<path d="M103.776 123.628C104.214 123.634 104.643 123.51 105.01 123.273C105.378 123.035 105.666 122.694 105.84 122.293C106.014 121.891 106.064 121.447 105.986 121.017C105.907 120.586 105.703 120.189 105.399 119.875C105.094 119.561 104.704 119.344 104.276 119.251C103.849 119.159 103.403 119.195 102.996 119.356C102.589 119.516 102.239 119.794 101.99 120.153C101.74 120.513 101.603 120.938 101.595 121.375C101.586 121.963 101.811 122.531 102.219 122.953C102.628 123.375 103.188 123.618 103.776 123.628Z" fill="#1BA677"/>
<path d="M97.2253 132.135C97.664 132.142 98.0952 132.019 98.4641 131.781C98.833 131.544 99.1231 131.202 99.2977 130.799C99.4723 130.397 99.5235 129.951 99.445 129.52C99.3664 129.088 99.1615 128.689 98.8563 128.374C98.5511 128.059 98.1591 127.841 97.7302 127.749C97.3012 127.656 96.8544 127.693 96.4463 127.855C96.0382 128.016 95.6872 128.295 95.4376 128.656C95.1881 129.017 95.0512 129.444 95.0443 129.883C95.0391 130.174 95.0914 130.463 95.1983 130.734C95.3052 131.005 95.4645 131.252 95.6671 131.462C95.8697 131.671 96.1116 131.838 96.379 131.954C96.6464 132.069 96.934 132.131 97.2253 132.135Z" fill="#1BA677"/>
<path d="M90.6904 136.027C90.253 136.021 89.8235 136.144 89.4562 136.382C89.0889 136.619 88.8002 136.96 88.6266 137.362C88.453 137.763 88.4023 138.207 88.4808 138.638C88.5594 139.068 88.7637 139.465 89.0679 139.78C89.3722 140.094 89.7628 140.311 90.1904 140.403C90.6179 140.496 91.0633 140.459 91.4703 140.299C91.8772 140.138 92.2275 139.861 92.4769 139.501C92.7262 139.142 92.8635 138.716 92.8713 138.279C92.8772 137.988 92.8254 137.698 92.7187 137.427C92.6121 137.156 92.4528 136.908 92.2501 136.699C92.0473 136.489 91.8051 136.322 91.5375 136.207C91.2698 136.092 90.9819 136.03 90.6904 136.027Z" fill="#1BA677"/>
<path d="M92.1615 149.146C92.1542 149.585 92.2772 150.016 92.5149 150.385C92.7526 150.753 93.0944 151.043 93.497 151.218C93.8996 151.392 94.345 151.444 94.7768 151.365C95.2085 151.286 95.6073 151.081 95.9226 150.776C96.2379 150.471 96.4556 150.079 96.5481 149.65C96.6407 149.221 96.6039 148.774 96.4424 148.366C96.281 147.958 96.0021 147.607 95.6411 147.358C95.2801 147.108 94.8532 146.972 94.4144 146.965C93.8265 146.956 93.2591 147.18 92.8366 147.589C92.4142 147.998 92.1714 148.558 92.1615 149.146Z" fill="#1BA677"/>
<path d="M95.9663 159.599C95.9581 160.038 96.0803 160.469 96.3174 160.838C96.5545 161.208 96.8958 161.498 97.2982 161.673C97.7006 161.849 98.146 161.901 98.5779 161.823C99.0098 161.745 99.409 161.54 99.7248 161.236C100.041 160.931 100.259 160.539 100.352 160.11C100.445 159.681 100.409 159.234 100.248 158.826C100.087 158.418 99.8089 158.066 99.4482 157.816C99.0875 157.567 98.6607 157.429 98.2219 157.422C97.9307 157.416 97.6414 157.468 97.3703 157.575C97.0993 157.681 96.8519 157.84 96.6424 158.042C96.4328 158.245 96.2653 158.486 96.1493 158.753C96.0333 159.02 95.9711 159.308 95.9663 159.599Z" fill="#1BA677"/>
<path d="M104.371 169.989C104.379 169.55 104.257 169.119 104.02 168.75C103.783 168.38 103.441 168.09 103.039 167.915C102.637 167.739 102.191 167.687 101.759 167.765C101.328 167.843 100.928 168.048 100.613 168.352C100.297 168.657 100.078 169.049 99.9852 169.478C99.8921 169.907 99.9282 170.354 100.089 170.762C100.25 171.17 100.528 171.521 100.889 171.771C101.25 172.021 101.677 172.159 102.115 172.166C102.703 172.176 103.271 171.952 103.694 171.544C104.116 171.136 104.36 170.577 104.371 169.989Z" fill="#1BA677"/>
<path d="M92.996 168.532C93.0042 168.093 92.882 167.662 92.6449 167.293C92.4078 166.923 92.0665 166.633 91.6641 166.457C91.2617 166.282 90.8164 166.23 90.3844 166.308C89.9525 166.386 89.5534 166.591 89.2375 166.895C88.9217 167.2 88.7034 167.592 88.6102 168.021C88.5171 168.45 88.5532 168.896 88.7141 169.305C88.875 169.713 89.1534 170.064 89.5141 170.314C89.8749 170.564 90.3016 170.702 90.7405 170.709C91.3281 170.719 91.8957 170.495 92.3186 170.087C92.7415 169.679 92.9851 169.12 92.996 168.532Z" fill="#1BA677"/>
<path d="M87.0999 155.794C86.6625 155.788 86.233 155.911 85.8657 156.149C85.4983 156.387 85.2097 156.728 85.0361 157.129C84.8625 157.531 84.8117 157.975 84.8903 158.405C84.9688 158.835 85.1732 159.233 85.4774 159.547C85.7817 159.861 86.1723 160.078 86.5999 160.171C87.0274 160.263 87.4728 160.227 87.8798 160.066C88.2867 159.906 88.637 159.628 88.8864 159.269C89.1357 158.909 89.273 158.484 89.2808 158.047C89.29 157.459 89.0655 156.891 88.6566 156.469C88.2477 156.047 87.6878 155.804 87.0999 155.794Z" fill="#1BA677"/>
<path d="M81.7159 167.123C81.7233 166.685 81.6003 166.254 81.3626 165.885C81.1249 165.516 80.7831 165.226 80.3804 165.051C79.9778 164.877 79.5325 164.826 79.1007 164.904C78.6689 164.983 78.2702 165.188 77.9549 165.493C77.6395 165.798 77.4219 166.19 77.3293 166.619C77.2368 167.048 77.2736 167.495 77.435 167.903C77.5965 168.311 77.8754 168.662 78.2363 168.911C78.5973 169.161 79.0242 169.298 79.463 169.305C80.0505 169.312 80.6173 169.087 81.0394 168.679C81.4615 168.27 81.7047 167.711 81.7159 167.123Z" fill="#1BA677"/>
<path d="M73.5218 175.493C73.0844 175.487 72.6549 175.611 72.2875 175.848C71.9202 176.086 71.6315 176.427 71.4579 176.829C71.2843 177.23 71.2336 177.674 71.3122 178.104C71.3907 178.535 71.595 178.932 71.8993 179.246C72.2036 179.56 72.5942 179.777 73.0217 179.87C73.4493 179.962 73.8947 179.926 74.3016 179.765C74.7086 179.605 75.0589 179.327 75.3082 178.968C75.5576 178.608 75.6949 178.183 75.7027 177.746C75.7119 177.158 75.4874 176.591 75.0785 176.168C74.6695 175.746 74.1096 175.503 73.5218 175.493Z" fill="#1BA677"/>
<path d="M67.5089 166.751C67.0701 166.744 66.639 166.867 66.2701 167.104C65.9012 167.342 65.6111 167.684 65.4365 168.087C65.2619 168.489 65.2106 168.935 65.2892 169.366C65.3678 169.798 65.5726 170.197 65.8779 170.512C66.1831 170.827 66.575 171.045 67.004 171.137C67.433 171.23 67.8798 171.193 68.2879 171.031C68.696 170.87 69.047 170.591 69.2965 170.23C69.5461 169.869 69.683 169.442 69.6899 169.003C69.6951 168.712 69.6427 168.423 69.5359 168.152C69.429 167.881 69.2697 167.634 69.0671 167.424C68.8645 167.215 68.6225 167.048 68.3552 166.932C68.0878 166.817 67.8002 166.755 67.5089 166.751Z" fill="#1BA677"/>
<path d="M62.3006 180.065C62.7383 180.073 63.1685 179.95 63.5367 179.713C63.905 179.477 64.1947 179.136 64.3693 178.734C64.544 178.333 64.5956 177.889 64.5177 177.458C64.4398 177.027 64.2359 176.629 63.9318 176.314C63.6277 175.999 63.237 175.782 62.8092 175.689C62.3813 175.596 61.9356 175.632 61.5282 175.793C61.1209 175.954 60.7703 176.231 60.5208 176.591C60.2713 176.951 60.1341 177.376 60.1265 177.814C60.1176 178.401 60.3414 178.967 60.7488 179.388C61.1562 179.81 61.7142 180.053 62.3006 180.065Z" fill="#1BA677"/>
<path d="M67.5987 189.854C68.0354 189.862 68.4644 189.739 68.8315 189.503C69.1986 189.266 69.4874 188.926 69.6613 188.526C69.8352 188.125 69.8864 187.682 69.8086 187.252C69.7307 186.823 69.5271 186.426 69.2237 186.112C68.9203 185.798 68.5305 185.581 68.1037 185.488C67.677 185.396 67.2323 185.432 66.826 185.592C66.4197 185.752 66.07 186.029 65.821 186.388C65.5721 186.747 65.435 187.171 65.4273 187.608C65.4215 187.898 65.4732 188.187 65.5793 188.457C65.6854 188.727 65.844 188.974 66.0458 189.183C66.2475 189.391 66.4886 189.558 66.7551 189.674C67.0217 189.789 67.3083 189.85 67.5987 189.854Z" fill="#1BA677"/>
<path d="M75.8491 188.189C75.841 188.627 75.9632 189.059 76.2002 189.428C76.4373 189.797 76.7787 190.088 77.1811 190.263C77.5834 190.438 78.0288 190.49 78.4607 190.412C78.8927 190.335 79.2918 190.13 79.6076 189.825C79.9234 189.521 80.1418 189.129 80.2349 188.7C80.3281 188.271 80.292 187.824 80.131 187.416C79.9701 187.008 79.6917 186.656 79.331 186.406C78.9703 186.156 78.5435 186.019 78.1047 186.012C77.5174 186.003 76.9506 186.227 76.528 186.635C76.1054 187.043 75.8614 187.602 75.8491 188.189Z" fill="#1BA677"/>
<path d="M86.2944 188.224C86.2863 188.663 86.4085 189.094 86.6456 189.463C86.8826 189.833 87.224 190.123 87.6264 190.298C88.0287 190.474 88.4741 190.526 88.906 190.448C89.338 190.37 89.7371 190.165 90.0529 189.861C90.3688 189.556 90.5871 189.164 90.6802 188.735C90.7734 188.306 90.7373 187.859 90.5764 187.451C90.4155 187.043 90.137 186.691 89.7763 186.441C89.4156 186.192 88.9888 186.054 88.55 186.047C87.9627 186.038 87.3959 186.262 86.9733 186.67C86.5507 187.078 86.3067 187.637 86.2944 188.224Z" fill="#1BA677"/>
<path d="M85.5575 199.304C85.5657 198.865 85.4435 198.434 85.2064 198.065C84.9693 197.695 84.628 197.405 84.2256 197.229C83.8232 197.054 83.3779 197.002 82.9459 197.08C82.514 197.158 82.1148 197.362 81.799 197.667C81.4832 197.972 81.2649 198.364 81.1717 198.793C81.0785 199.221 81.1147 199.668 81.2756 200.077C81.4365 200.485 81.7149 200.836 82.0756 201.086C82.4363 201.336 82.8631 201.474 83.3019 201.481C83.5931 201.486 83.8824 201.435 84.1535 201.328C84.4245 201.222 84.6719 201.063 84.8814 200.86C85.091 200.658 85.2585 200.417 85.3746 200.149C85.4906 199.882 85.5527 199.595 85.5575 199.304Z" fill="#1BA677"/>
<path d="M73.1599 200.807C73.5977 200.815 74.0279 200.692 74.3961 200.456C74.7644 200.219 75.0541 199.878 75.2287 199.477C75.4033 199.075 75.455 198.631 75.3771 198.2C75.2992 197.769 75.0953 197.371 74.7912 197.057C74.4871 196.742 74.0964 196.524 73.6685 196.431C73.2407 196.338 72.7949 196.375 72.3876 196.535C71.9803 196.696 71.6297 196.973 71.3802 197.333C71.1307 197.693 70.9934 198.119 70.9858 198.556C70.9757 199.143 71.199 199.71 71.6067 200.132C72.0144 200.554 72.5731 200.797 73.1599 200.807Z" fill="#1BA677"/>
<path d="M80.3774 211.983C80.8162 211.991 81.2476 211.868 81.617 211.631C81.9864 211.394 82.2771 211.053 82.4524 210.65C82.6277 210.248 82.6797 209.803 82.6019 209.371C82.524 208.939 82.3197 208.54 82.0149 208.224C81.7101 207.908 81.3185 207.69 80.8896 207.597C80.4607 207.504 80.0138 207.54 79.6054 207.701C79.1971 207.862 78.8456 208.14 78.5956 208.501C78.3455 208.862 78.2081 209.289 78.2006 209.728C78.1907 210.315 78.4143 210.883 78.8224 211.305C79.2305 211.728 79.7898 211.972 80.3774 211.983Z" fill="#1BA677"/>
<path d="M86.5612 222.631C87 222.638 87.4311 222.515 87.8 222.278C88.1689 222.04 88.459 221.698 88.6336 221.295C88.8082 220.893 88.8595 220.447 88.7809 220.016C88.7023 219.584 88.4975 219.185 88.1922 218.87C87.887 218.555 87.4951 218.337 87.0661 218.245C86.6371 218.152 86.1903 218.189 85.7822 218.351C85.3741 218.512 85.0231 218.791 84.7736 219.152C84.524 219.513 84.3871 219.94 84.3803 220.379C84.371 220.967 84.5956 221.534 85.0045 221.956C85.4134 222.379 85.9733 222.621 86.5612 222.631Z" fill="#1BA677"/>
<path d="M92.4949 207.703C92.0561 207.696 91.625 207.819 91.2561 208.057C90.8872 208.294 90.5971 208.636 90.4225 209.039C90.2479 209.441 90.1966 209.887 90.2752 210.318C90.3538 210.75 90.5586 211.149 90.8639 211.464C91.1691 211.779 91.561 211.997 91.99 212.089C92.419 212.182 92.8658 212.145 93.2739 211.983C93.6819 211.822 94.033 211.543 94.2825 211.182C94.5321 210.821 94.6689 210.394 94.6758 209.955C94.6851 209.368 94.4605 208.8 94.0516 208.378C93.6427 207.955 93.0828 207.713 92.4949 207.703Z" fill="#1BA677"/>
<path d="M104.64 210.039C104.201 210.031 103.769 210.153 103.4 210.39C103.031 210.627 102.74 210.969 102.565 211.371C102.389 211.774 102.337 212.219 102.415 212.651C102.493 213.083 102.697 213.482 103.002 213.798C103.307 214.113 103.699 214.332 104.127 214.425C104.556 214.518 105.003 214.481 105.412 214.32C105.82 214.16 106.171 213.881 106.421 213.52C106.672 213.16 106.809 212.733 106.816 212.294C106.826 211.706 106.603 211.139 106.195 210.716C105.786 210.293 105.227 210.05 104.64 210.039Z" fill="#1BA677"/>
<path d="M112.584 200.138C112.147 200.132 111.717 200.255 111.35 200.493C110.983 200.73 110.694 201.072 110.52 201.473C110.347 201.875 110.296 202.319 110.375 202.749C110.453 203.179 110.658 203.576 110.962 203.891C111.266 204.205 111.657 204.422 112.084 204.514C112.512 204.607 112.957 204.57 113.364 204.41C113.771 204.249 114.121 203.972 114.371 203.612C114.62 203.253 114.757 202.828 114.765 202.39C114.774 201.802 114.55 201.235 114.141 200.813C113.732 200.39 113.172 200.148 112.584 200.138Z" fill="#1BA677"/>
<path d="M102.256 199.181C101.817 199.17 101.384 199.289 101.013 199.524C100.642 199.758 100.349 200.098 100.171 200.499C99.9925 200.901 99.9375 201.346 100.013 201.778C100.088 202.211 100.29 202.612 100.593 202.929C100.896 203.247 101.286 203.468 101.715 203.563C102.143 203.659 102.591 203.625 103 203.467C103.409 203.308 103.763 203.031 104.015 202.672C104.267 202.312 104.407 201.886 104.416 201.447C104.423 201.156 104.373 200.867 104.268 200.596C104.163 200.325 104.006 200.077 103.806 199.866C103.605 199.656 103.365 199.487 103.099 199.37C102.833 199.252 102.547 199.188 102.256 199.181Z" fill="#1BA677"/>
<path d="M95.0888 198.565C95.0962 198.127 94.9732 197.696 94.7355 197.327C94.4978 196.958 94.156 196.668 93.7534 196.493C93.3507 196.319 92.9054 196.268 92.4736 196.346C92.0418 196.425 91.6431 196.63 91.3278 196.935C91.0125 197.241 90.7948 197.632 90.7022 198.061C90.6097 198.49 90.6465 198.937 90.808 199.345C90.9694 199.753 91.2483 200.104 91.6093 200.354C91.9703 200.603 92.3972 200.74 92.836 200.747C93.1272 200.752 93.4166 200.699 93.6876 200.593C93.9586 200.486 94.2059 200.326 94.4152 200.124C94.6245 199.921 94.7917 199.679 94.9073 199.412C95.0229 199.144 95.0846 198.857 95.0888 198.565Z" fill="#1BA677"/>
<path d="M99.3818 187.379C98.943 187.371 98.5116 187.493 98.1422 187.73C97.7728 187.967 97.4821 188.309 97.3068 188.711C97.1315 189.113 97.0795 189.559 97.1574 189.991C97.2352 190.423 97.4395 190.822 97.7443 191.137C98.0491 191.453 98.4407 191.671 98.8696 191.764C99.2985 191.858 99.7454 191.821 100.154 191.66C100.562 191.499 100.914 191.221 101.164 190.86C101.414 190.499 101.551 190.073 101.559 189.634C101.569 189.046 101.345 188.479 100.937 188.056C100.529 187.633 99.9694 187.39 99.3818 187.379Z" fill="#1BA677"/>
<path d="M84.1224 175.478C83.6836 175.47 83.2522 175.592 82.8828 175.829C82.5134 176.066 82.2227 176.407 82.0474 176.81C81.8721 177.212 81.8201 177.657 81.8979 178.089C81.9758 178.521 82.1801 178.92 82.4849 179.236C82.7897 179.552 83.1813 179.77 83.6102 179.863C84.0391 179.956 84.486 179.92 84.8944 179.759C85.3027 179.598 85.6542 179.32 85.9042 178.959C86.1543 178.598 86.2918 178.171 86.2992 177.733C86.3048 177.441 86.2528 177.152 86.1464 176.881C86.04 176.61 85.8811 176.363 85.6789 176.153C85.4766 175.944 85.2351 175.776 84.968 175.66C84.7009 175.544 84.4136 175.482 84.1224 175.478Z" fill="#1BA677"/>
<path d="M95.1261 176.7C94.6873 176.693 94.2562 176.816 93.8873 177.054C93.5184 177.291 93.2283 177.633 93.0537 178.036C92.8791 178.439 92.8278 178.884 92.9064 179.316C92.985 179.747 93.1898 180.146 93.4951 180.461C93.8003 180.776 94.1922 180.994 94.6212 181.086C95.0502 181.179 95.497 181.142 95.9051 180.981C96.3132 180.819 96.6642 180.54 96.9137 180.179C97.1633 179.818 97.3002 179.391 97.307 178.952C97.3123 178.661 97.2599 178.372 97.1531 178.101C97.0462 177.83 96.8869 177.583 96.6843 177.374C96.4817 177.164 96.2397 176.997 95.9724 176.882C95.705 176.766 95.4174 176.704 95.1261 176.7Z" fill="#1BA677"/>
<path d="M106.169 178.216C105.73 178.208 105.299 178.33 104.93 178.567C104.56 178.804 104.27 179.146 104.094 179.548C103.919 179.95 103.867 180.396 103.945 180.828C104.023 181.26 104.227 181.659 104.532 181.974C104.837 182.29 105.228 182.508 105.657 182.601C106.086 182.695 106.533 182.658 106.941 182.497C107.35 182.336 107.701 182.058 107.951 181.697C108.201 181.336 108.339 180.91 108.346 180.471C108.352 180.18 108.3 179.89 108.193 179.619C108.087 179.348 107.928 179.101 107.726 178.892C107.524 178.682 107.282 178.515 107.015 178.399C106.748 178.283 106.46 178.221 106.169 178.216Z" fill="#1BA677"/>
<path d="M109.673 189.321C109.234 189.314 108.803 189.437 108.434 189.675C108.065 189.913 107.775 190.254 107.601 190.657C107.426 191.06 107.375 191.505 107.453 191.937C107.532 192.368 107.737 192.767 108.042 193.082C108.347 193.398 108.739 193.615 109.168 193.708C109.597 193.8 110.044 193.763 110.452 193.602C110.86 193.44 111.211 193.161 111.461 192.8C111.71 192.439 111.847 192.012 111.854 191.574C111.859 191.282 111.807 190.993 111.7 190.722C111.593 190.451 111.434 190.204 111.231 189.995C111.029 189.785 110.787 189.618 110.519 189.503C110.252 189.387 109.964 189.325 109.673 189.321Z" fill="#1BA677"/>
<path d="M120.385 189.927C119.947 189.921 119.517 190.045 119.15 190.282C118.782 190.52 118.493 190.861 118.319 191.263C118.145 191.665 118.094 192.109 118.171 192.539C118.249 192.97 118.453 193.368 118.756 193.683C119.06 193.999 119.45 194.217 119.878 194.311C120.305 194.405 120.751 194.371 121.159 194.212C121.567 194.053 121.919 193.777 122.17 193.419C122.422 193.06 122.562 192.636 122.572 192.198C122.58 191.905 122.529 191.613 122.423 191.339C122.317 191.066 122.158 190.816 121.954 190.604C121.751 190.393 121.507 190.224 121.238 190.108C120.968 189.992 120.678 189.93 120.385 189.927Z" fill="#1BA677"/>
<path d="M131.256 190.005C130.915 189.998 130.579 190.093 130.291 190.277C130.003 190.46 129.776 190.726 129.64 191.039C129.503 191.352 129.462 191.698 129.522 192.034C129.583 192.37 129.742 192.681 129.979 192.927C130.216 193.172 130.521 193.342 130.854 193.414C131.188 193.487 131.536 193.458 131.854 193.332C132.171 193.207 132.444 192.99 132.638 192.709C132.832 192.428 132.939 192.095 132.944 191.754C132.95 191.299 132.776 190.859 132.46 190.532C132.144 190.204 131.711 190.015 131.256 190.005Z" fill="#1BA677"/>
<path d="M128.24 180.624C127.801 180.616 127.371 180.739 127.002 180.976C126.633 181.214 126.342 181.555 126.167 181.957C125.992 182.359 125.941 182.804 126.018 183.236C126.096 183.668 126.3 184.066 126.605 184.382C126.909 184.698 127.301 184.916 127.729 185.009C128.158 185.102 128.604 185.067 129.013 184.906C129.421 184.746 129.772 184.468 130.023 184.108C130.273 183.748 130.411 183.322 130.42 182.883C130.429 182.295 130.205 181.726 129.797 181.303C129.388 180.88 128.828 180.635 128.24 180.624Z" fill="#1BA677"/>
<path d="M116.997 179.63C116.559 179.622 116.127 179.744 115.758 179.981C115.388 180.218 115.098 180.56 114.922 180.962C114.747 181.365 114.695 181.81 114.773 182.242C114.851 182.674 115.055 183.073 115.36 183.388C115.665 183.704 116.056 183.922 116.485 184.015C116.914 184.109 117.361 184.072 117.769 183.911C118.178 183.75 118.529 183.472 118.779 183.111C119.029 182.751 119.167 182.324 119.174 181.885C119.18 181.594 119.128 181.304 119.021 181.033C118.915 180.762 118.756 180.515 118.554 180.306C118.352 180.096 118.11 179.929 117.843 179.813C117.576 179.697 117.289 179.635 116.997 179.63Z" fill="#1BA677"/>
<path d="M137.078 174.87C136.645 174.862 136.219 174.983 135.855 175.218C135.49 175.452 135.203 175.789 135.031 176.186C134.858 176.583 134.807 177.023 134.884 177.449C134.961 177.875 135.163 178.269 135.465 178.58C135.766 178.892 136.153 179.107 136.576 179.198C137 179.289 137.441 179.253 137.843 179.093C138.246 178.934 138.593 178.658 138.839 178.302C139.085 177.945 139.22 177.524 139.226 177.091C139.235 176.512 139.014 175.953 138.611 175.537C138.208 175.12 137.657 174.881 137.078 174.87Z" fill="#1BA677"/>
<path d="M142.248 166.853C142.242 166.898 142.194 166.923 142.197 166.974C142.181 167.245 142.219 167.517 142.311 167.772C142.402 168.028 142.544 168.263 142.729 168.462C142.913 168.661 143.136 168.821 143.384 168.932C143.632 169.042 143.9 169.102 144.171 169.106C144.443 169.111 144.712 169.06 144.964 168.957C145.215 168.855 145.443 168.702 145.634 168.509C145.825 168.316 145.975 168.086 146.075 167.834C146.175 167.581 146.222 167.311 146.214 167.04C146.208 166.596 146.049 166.169 145.765 165.829C145.48 165.489 145.087 165.258 144.652 165.175L142.248 166.853Z" fill="#1BA677"/>
<path d="M113.552 169.239C113.113 169.231 112.682 169.353 112.312 169.591C111.943 169.828 111.652 170.169 111.477 170.572C111.302 170.974 111.25 171.419 111.328 171.851C111.406 172.283 111.61 172.682 111.915 172.998C112.219 173.314 112.611 173.532 113.04 173.625C113.469 173.718 113.916 173.682 114.324 173.521C114.732 173.36 115.084 173.081 115.334 172.721C115.584 172.36 115.721 171.933 115.729 171.494C115.734 171.203 115.683 170.914 115.576 170.643C115.47 170.372 115.311 170.125 115.109 169.915C114.906 169.706 114.665 169.538 114.398 169.422C114.131 169.306 113.843 169.244 113.552 169.239Z" fill="#1BA677"/>
<path d="M107.306 161.141C107.3 161.578 107.423 162.007 107.661 162.375C107.898 162.742 108.239 163.031 108.641 163.204C109.042 163.378 109.486 163.428 109.917 163.35C110.347 163.271 110.745 163.067 111.059 162.762C111.373 162.458 111.59 162.067 111.683 161.64C111.775 161.212 111.739 160.767 111.578 160.36C111.418 159.953 111.14 159.603 110.781 159.354C110.422 159.104 109.996 158.967 109.559 158.959C108.971 158.95 108.404 159.175 107.981 159.584C107.559 159.993 107.316 160.553 107.306 161.141Z" fill="#1BA677"/>
<path d="M103.204 150.879C103.198 151.316 103.322 151.746 103.559 152.113C103.797 152.48 104.138 152.769 104.539 152.942C104.941 153.116 105.385 153.166 105.815 153.088C106.246 153.009 106.643 152.805 106.957 152.501C107.272 152.196 107.489 151.806 107.581 151.378C107.674 150.951 107.637 150.505 107.477 150.098C107.316 149.691 107.039 149.341 106.679 149.092C106.32 148.843 105.895 148.706 105.457 148.698C104.869 148.689 104.302 148.913 103.88 149.322C103.457 149.731 103.214 150.291 103.204 150.879Z" fill="#1BA677"/>
<path d="M110.193 142.216C110.185 142.655 110.307 143.086 110.544 143.455C110.781 143.825 111.122 144.115 111.525 144.291C111.927 144.466 112.373 144.518 112.804 144.44C113.236 144.362 113.636 144.158 113.951 143.853C114.267 143.548 114.486 143.156 114.579 142.727C114.672 142.298 114.636 141.852 114.475 141.443C114.314 141.035 114.035 140.684 113.675 140.434C113.314 140.184 112.887 140.046 112.448 140.039C111.861 140.03 111.294 140.255 110.872 140.662C110.449 141.07 110.205 141.629 110.193 142.216Z" fill="#1BA677"/>
<path d="M99.1811 140.441C99.1747 140.879 99.2981 141.308 99.5357 141.675C99.7733 142.043 100.114 142.331 100.516 142.505C100.917 142.678 101.361 142.729 101.792 142.65C102.222 142.572 102.619 142.367 102.934 142.063C103.248 141.759 103.465 141.368 103.558 140.941C103.65 140.513 103.614 140.068 103.453 139.661C103.293 139.254 103.015 138.904 102.656 138.654C102.297 138.405 101.871 138.268 101.434 138.26C100.846 138.251 100.279 138.476 99.8562 138.885C99.4337 139.294 99.1909 139.854 99.1811 140.441Z" fill="#1BA677"/>
<path d="M108.088 133.99C108.527 133.998 108.959 133.876 109.328 133.639C109.697 133.402 109.988 133.06 110.163 132.658C110.339 132.256 110.391 131.81 110.313 131.378C110.235 130.946 110.031 130.547 109.726 130.232C109.421 129.916 109.029 129.698 108.601 129.605C108.172 129.511 107.725 129.548 107.316 129.709C106.908 129.87 106.557 130.148 106.307 130.509C106.056 130.869 105.919 131.296 105.912 131.735C105.902 132.323 106.125 132.89 106.533 133.313C106.941 133.736 107.501 133.979 108.088 133.99Z" fill="#1BA677"/>
<path d="M129.69 136.854C130.128 136.86 130.557 136.737 130.924 136.499C131.292 136.262 131.58 135.921 131.754 135.519C131.928 135.118 131.978 134.674 131.9 134.243C131.821 133.813 131.617 133.416 131.313 133.101C131.008 132.787 130.618 132.57 130.19 132.478C129.763 132.385 129.317 132.422 128.91 132.582C128.503 132.743 128.153 133.02 127.904 133.38C127.654 133.739 127.517 134.165 127.509 134.602C127.5 135.19 127.725 135.757 128.134 136.179C128.542 136.602 129.102 136.844 129.69 136.854Z" fill="#1BA677"/>
<path d="M114.498 152.65C114.489 153.088 114.612 153.52 114.849 153.889C115.086 154.258 115.427 154.549 115.829 154.724C116.232 154.899 116.677 154.951 117.109 154.873C117.541 154.795 117.94 154.591 118.256 154.286C118.572 153.981 118.79 153.59 118.883 153.161C118.977 152.732 118.94 152.285 118.779 151.877C118.619 151.469 118.34 151.117 117.979 150.867C117.619 150.617 117.192 150.48 116.753 150.473C116.462 150.467 116.173 150.519 115.902 150.626C115.631 150.732 115.383 150.891 115.174 151.093C114.964 151.295 114.797 151.537 114.681 151.804C114.564 152.071 114.502 152.358 114.498 152.65Z" fill="#1BA677"/>
<path d="M134.331 147.572C134.769 147.58 135.201 147.458 135.57 147.221C135.939 146.984 136.23 146.643 136.406 146.24C136.581 145.838 136.633 145.392 136.555 144.961C136.477 144.529 136.273 144.13 135.968 143.814C135.663 143.498 135.272 143.28 134.843 143.187C134.414 143.094 133.967 143.13 133.559 143.291C133.15 143.452 132.799 143.73 132.549 144.091C132.299 144.452 132.161 144.879 132.154 145.317C132.144 145.905 132.367 146.472 132.776 146.895C133.184 147.318 133.743 147.562 134.331 147.572Z" fill="#1BA677"/>
<path d="M140.346 137.69C140.785 137.698 141.216 137.575 141.586 137.338C141.955 137.101 142.246 136.76 142.421 136.357C142.596 135.955 142.648 135.51 142.571 135.078C142.493 134.646 142.288 134.247 141.984 133.931C141.679 133.615 141.287 133.397 140.858 133.304C140.429 133.211 139.983 133.247 139.574 133.408C139.166 133.569 138.814 133.848 138.564 134.208C138.314 134.569 138.177 134.996 138.169 135.435C138.159 136.022 138.383 136.59 138.791 137.012C139.199 137.435 139.759 137.679 140.346 137.69Z" fill="#1BA677"/>
<path d="M151.247 133.329C150.809 133.321 150.377 133.443 150.008 133.68C149.638 133.918 149.348 134.259 149.172 134.661C148.997 135.064 148.945 135.509 149.023 135.941C149.101 136.373 149.305 136.772 149.61 137.088C149.915 137.403 150.306 137.622 150.735 137.715C151.164 137.808 151.611 137.772 152.019 137.611C152.428 137.45 152.779 137.171 153.029 136.81C153.279 136.45 153.417 136.023 153.424 135.584C153.43 135.293 153.378 135.004 153.271 134.733C153.165 134.462 153.006 134.214 152.804 134.005C152.602 133.795 152.36 133.628 152.093 133.512C151.826 133.396 151.539 133.334 151.247 133.329Z" fill="#1BA677"/>
<path d="M145.233 148.1C145.672 148.107 146.103 147.984 146.472 147.746C146.841 147.508 147.131 147.167 147.305 146.764C147.48 146.361 147.531 145.916 147.453 145.484C147.374 145.053 147.169 144.654 146.864 144.339C146.559 144.023 146.167 143.806 145.738 143.713C145.309 143.621 144.862 143.658 144.454 143.819C144.046 143.981 143.695 144.26 143.445 144.621C143.196 144.982 143.059 145.409 143.052 145.847C143.047 146.139 143.099 146.428 143.206 146.699C143.313 146.97 143.472 147.217 143.675 147.426C143.878 147.636 144.119 147.803 144.387 147.918C144.654 148.034 144.942 148.096 145.233 148.1Z" fill="#1BA677"/>
<path d="M162.368 133.315C161.933 133.307 161.506 133.428 161.14 133.663C160.774 133.899 160.486 134.237 160.313 134.636C160.139 135.034 160.088 135.476 160.165 135.903C160.242 136.331 160.445 136.727 160.747 137.039C161.049 137.352 161.437 137.569 161.862 137.661C162.286 137.753 162.729 137.718 163.134 137.558C163.538 137.399 163.887 137.123 164.135 136.766C164.383 136.409 164.519 135.986 164.527 135.552C164.532 135.263 164.481 134.976 164.375 134.707C164.269 134.439 164.111 134.194 163.911 133.986C163.71 133.778 163.471 133.612 163.206 133.497C162.941 133.382 162.657 133.32 162.368 133.315Z" fill="#1BA677"/>
<path d="M157.622 123.239C157.184 123.231 156.752 123.353 156.383 123.591C156.013 123.828 155.723 124.169 155.547 124.572C155.372 124.974 155.32 125.419 155.398 125.851C155.476 126.283 155.68 126.682 155.985 126.998C156.29 127.314 156.681 127.532 157.11 127.625C157.539 127.718 157.986 127.682 158.394 127.521C158.803 127.36 159.154 127.081 159.404 126.721C159.654 126.36 159.792 125.933 159.799 125.494C159.805 125.203 159.753 124.914 159.646 124.643C159.54 124.372 159.381 124.125 159.179 123.915C158.977 123.706 158.735 123.538 158.468 123.422C158.201 123.306 157.914 123.244 157.622 123.239Z" fill="#1BA677"/>
<path d="M50.2751 94.9127C50.8342 94.8798 51.3603 94.6366 51.7477 94.232C52.135 93.8273 52.355 93.2912 52.3634 92.7312C52.3718 92.1711 52.168 91.6287 51.7929 91.2128C51.4179 90.7968 50.8994 90.5382 50.3414 90.4887C49.8204 90.4964 49.3197 90.6927 48.9323 91.0413L48.7708 91.1464C48.4577 91.4509 48.2421 91.8414 48.1514 92.2686C48.0607 92.6957 48.0989 93.1401 48.2613 93.5454C48.4236 93.9507 48.7027 94.2986 49.0632 94.545C49.4236 94.7914 49.8492 94.9251 50.2859 94.9292L50.2751 94.9127Z" fill="#1BA677"/>
<path d="M56.8561 84.5393C57.1578 84.5617 57.4608 84.5221 57.7466 84.423C58.0324 84.3239 58.2949 84.1674 58.518 83.9632C58.7411 83.759 58.9201 83.5113 59.044 83.2353C59.1679 82.9594 59.234 82.6611 59.2384 82.3587C59.2427 82.0563 59.1852 81.7562 59.0693 81.4768C58.9534 81.1975 58.7816 80.9448 58.5644 80.7343C58.3473 80.5238 58.0893 80.36 57.8065 80.2529C57.5237 80.1457 57.2219 80.0975 56.9198 80.1113C56.3992 80.1212 55.8997 80.3189 55.5133 80.6679L55.3519 80.7731C55.0388 81.0776 54.8232 81.4681 54.7325 81.8952C54.6418 82.3224 54.68 82.7668 54.8423 83.1721C55.0047 83.5774 55.2838 83.9253 55.6442 84.1717C56.0047 84.4181 56.4303 84.5518 56.8669 84.5559L56.8561 84.5393Z" fill="#1BA677"/>
<path d="M43.7282 84.858C44.2874 84.8251 44.8134 84.5819 45.2008 84.1773C45.5881 83.7726 45.8081 83.2365 45.8165 82.6765C45.8249 82.1164 45.6211 81.574 45.2461 81.1581C44.871 80.7421 44.3525 80.4835 43.7945 80.434C43.2735 80.4417 42.7728 80.638 42.3854 80.9866L42.2239 81.0917C41.9108 81.3962 41.6953 81.7867 41.6045 82.2139C41.5138 82.641 41.5521 83.0854 41.7144 83.4907C41.8767 83.896 42.1558 84.2439 42.5163 84.4903C42.8768 84.7367 43.3023 84.8704 43.739 84.8745L43.7282 84.858Z" fill="#1BA677"/>
<path d="M36.1139 94.7229C36.4156 94.7453 36.7186 94.7056 37.0044 94.6066C37.2902 94.5075 37.5527 94.351 37.7758 94.1468C37.9989 93.9426 38.1779 93.6949 38.3018 93.4189C38.4257 93.143 38.4919 92.8447 38.4962 92.5423C38.5005 92.2399 38.443 91.9398 38.3271 91.6604C38.2112 91.3811 38.0394 91.1284 37.8222 90.9179C37.6051 90.7074 37.3472 90.5436 37.0643 90.4364C36.7815 90.3293 36.4797 90.2811 36.1776 90.2949C35.657 90.3048 35.1575 90.5025 34.7711 90.8515L34.6097 90.9567C34.2966 91.2611 34.081 91.6517 33.9903 92.0788C33.8996 92.506 33.9378 92.9504 34.1002 93.3557C34.2625 93.761 34.5416 94.1089 34.9021 94.3553C35.2625 94.6017 35.6881 94.7354 36.1247 94.7395L36.1139 94.7229Z" fill="#1BA677"/>
<path d="M29.4957 102.363C30.0606 102.338 30.5943 102.097 30.9879 101.691C31.3815 101.285 31.6052 100.744 31.6134 100.179C31.6215 99.6136 31.4134 99.0666 31.0317 98.6495C30.6499 98.2325 30.1232 97.9771 29.5593 97.9353C29.0389 97.9461 28.5397 98.1437 28.1529 98.492L27.9914 98.5972C27.7853 98.796 27.6204 99.0336 27.5061 99.2962C27.3919 99.5588 27.3305 99.8413 27.3255 100.128C27.3207 100.711 27.5457 101.272 27.9518 101.691C28.358 102.109 28.9126 102.351 29.4957 102.363Z" fill="#1BA677"/>
<path d="M22.8652 107.155C23.2294 107.176 23.5934 107.108 23.9249 106.955C24.2563 106.802 24.545 106.57 24.7653 106.279C24.9856 105.988 25.1307 105.648 25.1878 105.287C25.245 104.927 25.2123 104.558 25.0927 104.213C24.9731 103.869 24.7704 103.559 24.5024 103.311C24.2344 103.063 23.9094 102.886 23.5563 102.794C23.2032 102.702 22.8328 102.698 22.4781 102.784C22.1233 102.869 21.795 103.041 21.5224 103.283L21.3609 103.389C21.0495 103.694 20.8354 104.084 20.7453 104.51C20.6553 104.937 20.6935 105.38 20.855 105.785C21.0166 106.19 21.2943 106.537 21.6531 106.785C22.012 107.032 22.436 107.167 22.8718 107.174L22.8652 107.155Z" fill="#1BA677"/>
<path d="M24.0191 93.9532C24.584 93.9275 25.1178 93.6871 25.5114 93.2811C25.905 92.8751 26.1287 92.3342 26.1368 91.7688C26.1449 91.2035 25.9369 90.6564 25.5551 90.2394C25.1733 89.8224 24.6467 89.5669 24.0828 89.5252C23.5624 89.536 23.0632 89.7336 22.6763 90.0819L22.5149 90.187C22.3087 90.3859 22.1438 90.6234 22.0296 90.886C21.9153 91.1486 21.8539 91.4312 21.849 91.7175C21.8441 92.3006 22.0691 92.8622 22.4753 93.2806C22.8814 93.6991 23.4361 93.9407 24.0191 93.9532Z" fill="#1BA677"/>
</g>
<defs>
<clipPath id="clip0_115_144">
<rect width="169.313" height="159.415" fill="white" transform="translate(229.441 133.568) rotate(146.916)"/>
</clipPath>
</defs>
</svg>
