<svg width="21" height="21" viewBox="0 0 21 21" fill="none" xmlns="http://www.w3.org/2000/svg">
<path d="M1 12.7261H0V13.7261H1V12.7261ZM20.7071 13.4332C21.0976 13.0427 21.0976 12.4095 20.7071 12.019L14.3431 5.65501C13.9526 5.26448 13.3195 5.26448 12.9289 5.65501C12.5384 6.04553 12.5384 6.6787 12.9289 7.06922L18.5858 12.7261L12.9289 18.3829C12.5384 18.7735 12.5384 19.4066 12.9289 19.7971C13.3195 20.1877 13.9526 20.1877 14.3431 19.7971L20.7071 13.4332ZM0 0.726074V12.7261H2V0.726074H0ZM1 13.7261H20V11.7261H1V13.7261Z" fill="#5850EC"/>
</svg>
