<svg width="21" height="21" viewBox="0 0 21 21" fill="none" xmlns="http://www.w3.org/2000/svg">
<path d="M1 12.7263H0V13.7263H1V12.7263ZM20.7071 13.4334C21.0976 13.0429 21.0976 12.4097 20.7071 12.0192L14.3431 5.65525C13.9526 5.26473 13.3195 5.26473 12.9289 5.65525C12.5384 6.04577 12.5384 6.67894 12.9289 7.06946L18.5858 12.7263L12.9289 18.3832C12.5384 18.7737 12.5384 19.4069 12.9289 19.7974C13.3195 20.1879 13.9526 20.1879 14.3431 19.7974L20.7071 13.4334ZM0 0.726318V12.7263H2V0.726318H0ZM1 13.7263H20V11.7263H1V13.7263Z" fill="white"/>
</svg>
