<svg width="41" height="47" viewBox="0 0 41 47" fill="none" xmlns="http://www.w3.org/2000/svg">
<path d="M35.6347 7.32022L37.07 5.88485C37.5934 5.36157 37.5934 4.51299 37.07 3.98963C36.5468 3.46635 35.6982 3.46635 35.1748 3.98963L33.7394 5.425C33.2161 5.94828 33.2161 6.79686 33.7394 7.32022C34.2627 7.84341 35.1111 7.84368 35.6347 7.32022Z" fill="#5850EC"/>
<path d="M26.074 4.84172C26.8141 4.84172 27.4142 4.2417 27.4142 3.50159V2.06621C27.4142 1.3261 26.8141 0.726074 26.074 0.726074C25.3339 0.726074 24.7339 1.3261 24.7339 2.06621V3.50159C24.7339 4.24179 25.3339 4.84172 26.074 4.84172Z" fill="#5850EC"/>
<path d="M38.9933 13.645H37.5579C36.8178 13.645 36.2178 14.245 36.2178 14.9852C36.2178 15.7253 36.8178 16.3253 37.5579 16.3253H38.9933C39.7334 16.3253 40.3334 15.7253 40.3334 14.9852C40.3334 14.245 39.7334 13.645 38.9933 13.645Z" fill="#5850EC"/>
<path d="M25.0093 7.69978L33.2531 15.9437C33.6554 13.7325 33.0051 11.3659 31.2994 9.66013C31.2963 9.65701 31.2932 9.65388 31.2901 9.65084C29.5895 7.95512 27.2251 7.29479 25.0093 7.69978Z" fill="#5850EC"/>
<path d="M16.0728 2.55387C15.6332 2.11421 14.9492 2.0347 14.4207 2.36151C13.8919 2.68824 13.6573 3.33561 13.8538 3.92527C14.9959 7.35173 15.161 11.0208 14.3312 14.5358C13.5015 18.0507 11.713 21.2586 9.15947 23.8125C9.09005 23.8819 9.02224 23.9496 8.95532 24.0165L16.9409 32.0011L17.1443 31.7978C19.698 29.244 22.9059 27.4556 26.421 26.6258C29.9364 25.796 33.6054 25.9611 37.0317 27.1033C37.6213 27.2994 38.2687 27.0652 38.5955 26.5364C38.9222 26.0078 38.8426 25.3238 38.4031 24.8843L16.0728 2.55387Z" fill="#5850EC"/>
<path d="M16.9414 35.7916L12.8812 39.8519C12.5535 40.1797 12.1789 40.4435 11.7727 40.638L17.211 46.0764C17.8775 46.7427 18.7466 46.4362 19.1062 46.0764L22.2187 42.9638C22.7421 42.4404 22.7421 41.5919 22.2187 41.0686L16.9414 35.7916Z" fill="#5850EC"/>
<path d="M7.06018 25.9116L3.00081 29.9718C2.47753 30.4951 2.47762 31.3436 3.0009 31.8669L9.09075 37.9568C9.61358 38.4797 10.4627 38.4801 10.986 37.9568L15.0461 33.8966L7.06018 25.9116Z" fill="#5850EC"/>
<path d="M1.10557 33.762C0.925013 33.5814 0.766162 33.3873 0.627235 33.1836C-0.0249653 35.1327 0.399501 37.385 1.98578 38.9726C3.55543 40.5409 5.8099 40.992 7.77561 40.3327C7.56986 40.192 7.37536 40.0318 7.19533 39.8517L1.10557 33.762Z" fill="#5850EC"/>
</svg>
