<svg width="41" height="42" viewBox="0 0 41 42" fill="none" xmlns="http://www.w3.org/2000/svg">
<path d="M23.8868 0.726074C14.62 0.726074 7.10701 8.23902 7.10701 17.5058C7.10701 21.2718 8.3633 24.7372 10.4586 27.5372L0.666504 37.3293L4.79286 41.4556L14.706 31.5424C17.3456 33.2715 20.4958 34.2856 23.8868 34.2856C33.1536 34.2856 40.6665 26.7726 40.6665 17.5058C40.6665 8.23902 33.1536 0.726074 23.8868 0.726074ZM23.8868 29.9082C17.0479 29.9082 11.4843 24.3447 11.4843 17.5058C11.4843 10.667 17.0479 5.1034 23.8868 5.1034C30.7256 5.1034 36.2892 10.667 36.2892 17.5058C36.2892 24.3447 30.7256 29.9082 23.8868 29.9082Z" fill="#5850EC"/>
<path d="M20.2391 14.5878H15.8618V24.8015H20.2391V14.5878Z" fill="#5850EC"/>
<path d="M26.0758 8.7511H21.6985V24.8013H26.0758V8.7511Z" fill="#5850EC"/>
<path d="M31.912 11.6694H27.5347V24.8014H31.912V11.6694Z" fill="#5850EC"/>
</svg>
