<svg width="40" height="41" viewBox="0 0 40 41" fill="none" xmlns="http://www.w3.org/2000/svg">
<path d="M25.8031 4.94452C25.667 4.51666 25.2974 4.20416 24.8522 4.1413L22.2188 3.76715L21.046 1.31842C20.6474 0.528625 19.3523 0.528625 18.954 1.31842L17.7809 3.76715L15.1476 4.1413C14.7023 4.20416 14.3327 4.51666 14.1966 4.94452C14.0593 5.37268 14.1792 5.84082 14.5043 6.15088L16.3927 7.94745L15.9474 10.4789C15.8708 10.9171 16.0481 11.3611 16.4064 11.6245C16.7699 11.8931 17.2484 11.9239 17.6378 11.724L19.9999 10.5109L22.3631 11.724C22.758 11.9288 23.2363 11.8879 23.5933 11.6245C23.9516 11.3602 24.1289 10.9162 24.0523 10.4789L23.607 7.94745L25.4955 6.15088C25.8205 5.84082 25.9404 5.37268 25.8031 4.94452Z" fill="#5850EC"/>
<path d="M39.9437 9.63191C39.8076 9.20406 39.438 8.89156 38.9928 8.82869L36.2813 8.45454L35.1082 6.1346C34.7099 5.34511 33.4145 5.34511 33.0162 6.1346L31.8434 8.45454L29.2101 8.82869C28.7648 8.89156 28.3952 9.20406 28.2591 9.63191C28.1218 10.0601 28.2417 10.5282 28.5668 10.8383L30.4552 12.6348L30.0099 15.1663C29.9333 15.6045 30.1106 16.0485 30.4689 16.3119C30.8324 16.5805 31.3106 16.6113 31.7003 16.4114L34.0624 15.1983L36.4256 16.4114C36.8205 16.6174 37.2963 16.5762 37.6558 16.3119C38.0141 16.0476 38.1914 15.6036 38.1148 15.1663L37.6695 12.6348L39.6361 10.8383C39.9611 10.5282 40.081 10.0601 39.9437 9.63191Z" fill="#5850EC"/>
<path d="M11.7406 9.63191C11.6045 9.20406 11.2349 8.89156 10.7897 8.82869L8.1563 8.45454L6.98351 6.1346C6.58495 5.34511 5.28978 5.34511 4.89153 6.1346L3.71843 8.45454L1.00694 8.82869C0.561692 8.89156 0.192124 9.20406 0.0560153 9.63191C-0.0813137 10.0601 0.0386203 10.5282 0.363633 10.8383L2.33019 12.6348L1.88493 15.1663C1.80833 15.6045 1.98564 16.0485 2.34392 16.3119C2.70738 16.5805 3.1859 16.6113 3.5753 16.4114L5.93736 15.1983L8.30064 16.4114C8.69768 16.6174 9.17131 16.5762 9.53081 16.3119C9.88908 16.0476 10.0664 15.6036 9.98979 15.1663L9.54454 12.6348L11.433 10.8383C11.758 10.5282 11.8779 10.0601 11.7406 9.63191Z" fill="#5850EC"/>
<path d="M25.8594 20.7261C25.8594 23.9622 23.2361 26.5854 20 26.5854C16.7639 26.5854 14.1406 23.9622 14.1406 20.7261C14.1406 17.49 16.7639 14.8667 20 14.8667C23.2361 14.8667 25.8594 17.49 25.8594 20.7261Z" fill="#5850EC"/>
<path d="M9.45312 25.4136C9.45312 27.3551 7.87903 28.9292 5.9375 28.9292C3.99597 28.9292 2.42188 27.3551 2.42188 25.4136C2.42188 23.4717 3.99597 21.8979 5.9375 21.8979C7.87903 21.8979 9.45312 23.4717 9.45312 25.4136Z" fill="#5850EC"/>
<path d="M37.5781 25.4136C37.5781 27.3551 36.004 28.9292 34.0625 28.9292C32.121 28.9292 30.5469 27.3551 30.5469 25.4136C30.5469 23.4717 32.121 21.8979 34.0625 21.8979C36.004 21.8979 37.5781 23.4717 37.5781 25.4136Z" fill="#5850EC"/>
<path d="M11.7969 40.7261H28.2031V37.1323C28.2031 32.6017 24.5303 28.9292 20 28.9292C15.4697 28.9292 11.7969 32.6017 11.7969 37.1323V40.7261Z" fill="#5850EC"/>
<path d="M35.1606 31.3743C33.0162 30.9797 31.0588 31.7698 29.7627 33.1788C30.2598 34.402 30.5467 35.7328 30.5467 37.1324V40.7261H38.8279C39.4752 40.7261 39.9998 40.2015 39.9998 39.5542V37.3808C39.9998 34.5173 37.9765 31.8922 35.1606 31.3743Z" fill="#5850EC"/>
<path d="M1.17188 40.7261H9.45312V37.1324C9.45312 35.7328 9.73999 34.402 10.2371 33.1788C8.94104 31.7698 6.98364 30.9797 4.83917 31.3743C2.02332 31.8922 0 34.5173 0 37.3808V39.5542C0 40.2015 0.524597 40.7261 1.17188 40.7261Z" fill="#5850EC"/>
</svg>
