<svg width="20" height="36" viewBox="0 0 20 36" fill="none" xmlns="http://www.w3.org/2000/svg">
<path d="M18.167 35H2.16711C1.89092 35 1.66704 34.7812 1.6671 34.5051C1.66747 32.5797 1.66867 25.3562 1.66699 18.5C1.66507 10.6412 7.35393 3.10651 18.0836 1.10266C18.387 1.04599 18.667 1.28073 18.667 1.58943V6.0812C18.667 6.32352 18.4901 6.53111 18.252 6.57631C11.4443 7.86877 8.99472 10.3959 7.30978 17.3889C7.23465 17.7007 7.4723 18 7.79306 18H18.167C18.4431 18 18.667 18.2239 18.667 18.5V34.5C18.667 34.7761 18.4431 35 18.167 35Z" fill="#21606A" stroke="#21606A" stroke-width="2"/>
</svg>
