<svg width="42" height="42" viewBox="0 0 42 42" fill="none" xmlns="http://www.w3.org/2000/svg">
<g clip-path="url(#clip0_109_1688)">
<path d="M16.6763 8.52391L15.9554 6.21758C20.3758 4.82422 25.2286 5.0884 29.4806 6.89015C29.1683 3.31066 26.1653 0.5 22.4898 0.5H21.4088C15.0425 0.5 9.49308 4.82422 7.95574 11.0223L7.57129 12.5117H12.328C14.7542 12.5117 17.1807 13.0883 19.3428 14.1693C20.3277 14.6498 21.4088 14.9141 22.4898 14.9141C25.8291 14.9141 28.6398 12.5839 29.3364 9.46066C25.4447 7.56289 20.8322 7.1786 16.6763 8.52391Z" fill="white"/>
<path d="M34.1165 9.60478L32.6032 11.4787C31.5941 10.6618 30.4891 9.98924 29.3359 9.46064C29.5726 8.46671 29.5562 7.23215 29.4801 6.89014C31.1376 7.56287 32.6992 8.47576 34.1165 9.60478Z" fill="white"/>
<path d="M37.3869 18.1252L36.2819 17.0442L33.9034 21.1761C32.6783 23.2662 30.9726 25.092 28.9546 26.4373C28.0417 27.0138 27.273 27.8307 26.7204 28.7676C25.0873 31.615 25.6179 35.2907 28.0657 37.4401C30.2038 35.9988 31.9815 34.0767 33.2789 31.8425C34.3839 29.9448 35.0806 27.8788 35.4169 25.7166L37.7952 26.0529C37.4349 28.5272 36.618 30.8816 35.369 33.0436C34.0476 35.3259 32.2939 37.2959 30.2038 38.8574C33.3207 40.3337 37.3149 39.2585 39.2126 35.9986L39.7651 35.0617C42.9363 29.5123 41.9754 22.5695 37.3869 18.1252Z" fill="white"/>
<path d="M30.2037 38.8575C28.7862 39.9625 27.2008 40.8514 25.5191 41.5L24.6543 39.2658C25.8555 38.7854 27.0085 38.1848 28.0655 37.4401C28.6017 37.9761 29.7284 38.699 30.2037 38.8575Z" fill="white"/>
<path d="M15.5196 28.7676C14.967 27.8307 14.1984 27.0138 13.2855 26.4373C11.2674 25.092 9.56175 23.2662 8.33664 21.1761L5.95824 17.0442L4.85324 18.1252C0.264681 22.5695 -0.696176 29.5124 2.47492 35.0618L3.02738 35.9747C4.92475 39.2827 8.93898 40.3245 12.0362 38.8575C9.94613 37.2959 8.1925 35.3259 6.87105 33.0437C5.62191 30.8817 4.80503 28.5273 4.44484 26.053L6.82316 25.7166C7.15941 27.8788 7.85617 29.9448 8.96117 31.8426C10.2585 34.0768 12.0362 35.9988 14.1743 37.4402C16.6214 35.2914 17.1533 31.6159 15.5196 28.7676Z" fill="white"/>
<path d="M17.5855 39.2658L16.7207 41.5C15.0391 40.8513 13.4535 39.9625 12.0361 38.8575C12.6062 38.6673 13.7149 37.8994 14.1742 37.4401C15.2313 38.1848 16.3844 38.7854 17.5855 39.2658Z" fill="white"/>
<path d="M19.9188 31.0267V26.4672L14.2871 23.652L22.3211 15.6179V20.1774L27.9528 22.9926L19.9188 31.0267Z" fill="white"/>
</g>
<defs>
<clipPath id="clip0_109_1688">
<rect width="41" height="41" fill="white" transform="translate(0.620117 0.5)"/>
</clipPath>
</defs>
</svg>
