<svg width="37" height="36" viewBox="0 0 37 36" fill="none" xmlns="http://www.w3.org/2000/svg">
<path d="M36.2091 31.3605L24.9651 20.3468C26.2806 18.2693 26.9751 15.8708 26.9751 13.4003C26.9751 6.22654 21.1378 0.38855 13.9641 0.38855C6.79037 0.38855 0.953125 6.22579 0.953125 13.4003C0.953125 20.574 6.79037 26.4098 13.9641 26.4098C16.7046 26.4098 19.3274 25.56 21.5593 23.949L32.7403 34.9028C33.2061 35.3595 33.8211 35.6115 34.4751 35.6115C35.1471 35.6115 35.7771 35.346 36.2473 34.866C37.2028 33.8895 37.1863 32.3175 36.2091 31.3605ZM13.9641 22.8135C8.77411 22.8135 4.55162 18.5903 4.55162 13.4003C4.55162 8.21029 8.77411 3.98779 13.9641 3.98779C19.1541 3.98779 23.3758 8.21029 23.3758 13.4003C23.3758 15.8445 22.4443 18.1605 20.7508 19.9223C18.9584 21.7868 16.5479 22.8135 13.9641 22.8135Z" fill="white"/>
</svg>
