<svg width="43" height="42" viewBox="0 0 43 42" fill="none" xmlns="http://www.w3.org/2000/svg">
<g clip-path="url(#clip0_109_1676)">
<path d="M4.35547 7.71094C6.48479 7.71094 8.21094 5.98479 8.21094 3.85547C8.21094 1.72615 6.48479 0 4.35547 0C2.22615 0 0.5 1.72615 0.5 3.85547C0.5 5.98479 2.22615 7.71094 4.35547 7.71094Z" fill="white"/>
<path d="M27.257 23.3789C28.8346 23.3789 30.1135 22.1 30.1135 20.5223C30.1135 18.9447 28.8346 17.6658 27.257 17.6658C25.6793 17.6658 24.4004 18.9447 24.4004 20.5223C24.4004 22.1 25.6793 23.3789 27.257 23.3789Z" fill="white"/>
<path d="M39.2173 21.8075C40.8661 19.7951 41.7617 17.2891 41.7617 14.6284C41.7617 8.42338 36.7938 3.37518 30.6875 3.37518C28.1687 3.37518 25.7226 4.25947 23.7726 5.8412C22.3168 3.89845 20.0195 2.70703 17.5625 2.70703C13.4514 2.70703 10.0736 5.9558 9.78897 10.0576C9.75509 10.0573 9.72138 10.057 9.6875 10.057C4.6215 10.057 0.5 14.2059 0.5 19.3056C0.5 21.1809 1.06839 22.9934 2.14382 24.5472C2.9351 25.6905 3.95499 26.6332 5.13477 27.3198C4.73019 28.3808 4.51953 29.5173 4.51953 30.6647C4.51953 35.7644 8.6042 39.9133 13.625 39.9133C16.4648 39.9133 19.0817 38.5828 20.7808 36.389C22.9154 39.8185 26.6571 42 30.6875 42C33.825 42 36.788 40.7426 39.0308 38.4594C41.268 36.1821 42.5 33.1766 42.5 29.9966C42.5 26.9656 41.3166 24.0434 39.2173 21.8075ZM20.5735 24.1983C20.4324 24.3666 20.2789 24.5249 20.1173 24.6688C19.2922 25.4037 18.2336 25.792 17.0558 25.792C14.1237 25.792 11.7383 23.4065 11.7383 20.4745C11.7383 17.5425 14.1237 15.157 17.0558 15.157C18.1213 15.157 19.1496 15.4713 20.0298 16.0659C20.5929 16.4464 20.7409 17.2112 20.3605 17.7744C19.98 18.3374 19.215 18.4854 18.652 18.1051C18.1804 17.7864 17.6284 17.618 17.0558 17.618C15.4807 17.618 14.1992 18.8995 14.1992 20.4746C14.1992 22.0497 15.4807 23.3312 17.0558 23.3312C17.6287 23.3312 18.1081 23.163 18.4805 22.8313C18.5533 22.7665 18.623 22.6945 18.6876 22.6173C19.1243 22.0966 19.9004 22.0284 20.4211 22.465C20.9419 22.9014 21.01 23.6776 20.5735 24.1983ZM21.9392 20.5223C21.9392 17.5903 24.3247 15.2048 27.2567 15.2048C30.1887 15.2048 32.5742 17.5903 32.5742 20.5223C32.5742 23.4544 30.1887 25.8398 27.2567 25.8398C24.3247 25.8398 21.9392 23.4544 21.9392 20.5223ZM34.6404 34.6238C33.71 34.6356 33.0319 34.6409 32.5329 34.6409C31.2564 34.6409 31.1509 34.6057 30.9863 34.5508C30.5961 34.4208 30.2919 34.1114 30.1724 33.723C29.9724 33.0726 30.2991 32.6447 30.7128 32.1031C31.0343 31.682 31.633 30.8982 32.6371 29.4636C32.9366 29.0355 33.0611 28.7397 33.1119 28.5563L33.1208 28.486C33.0952 28.2892 32.9265 28.1367 32.7229 28.1367C32.5059 28.1367 32.3605 28.2988 32.3291 28.4589C32.1981 29.1258 31.5515 29.5602 30.8845 29.4292C30.2177 29.2982 29.7834 28.6515 29.9143 27.9846C30.1771 26.6468 31.3583 25.6758 32.7229 25.6758C34.3012 25.6758 35.5852 26.9597 35.5852 28.538C35.5852 28.5902 35.5818 28.6423 35.5753 28.694L35.5438 28.9406C35.5385 28.9816 35.5312 29.0223 35.5219 29.0626C35.3886 29.6372 35.1045 30.23 34.6532 30.8747C34.2983 31.3819 33.9923 31.8103 33.73 32.1721C34.0222 32.1697 34.3205 32.1666 34.6096 32.163C34.6148 32.163 34.6201 32.1629 34.6253 32.1629C35.2977 32.1629 35.8469 32.7036 35.8554 33.3779C35.8639 34.0575 35.32 34.6152 34.6404 34.6238Z" fill="white"/>
</g>
<defs>
<clipPath id="clip0_109_1676">
<rect width="42" height="42" fill="white" transform="translate(0.5)"/>
</clipPath>
</defs>
</svg>
