<svg width="37" height="36" viewBox="0 0 37 36" fill="none" xmlns="http://www.w3.org/2000/svg">
<path d="M28.06 8.35461H8.51206C5.96412 8.35461 3.89941 10.4573 3.89941 13.0512V26.3782C3.89941 28.9721 5.96412 31.0749 8.51206 31.0749H12.0321V35.9619C12.0321 35.9927 12.0662 36.0107 12.0908 35.9927L19.2972 31.1285L21.1045 31.0942H26.1754L28.06 31.0749C30.6075 31.0749 32.6727 28.9721 32.6727 26.3782V13.0512C32.6727 10.4573 30.6075 8.35461 28.06 8.35461ZM11.3623 15.4147C11.3623 14.1167 12.3957 13.064 13.671 13.064C14.9458 13.064 15.9793 14.1167 15.9793 15.4147C15.9793 16.7132 14.9458 17.7655 13.671 17.7655C12.3957 17.7655 11.3623 16.7132 11.3623 15.4147ZM18.1796 27.1614C15.2529 27.1614 12.8354 25.0732 12.4657 22.3684H23.8939C23.5238 25.0732 21.1067 27.1614 18.1796 27.1614ZM22.93 17.7655C21.6552 17.7655 20.6213 16.7132 20.6213 15.4147C20.6213 14.1167 21.6552 13.064 22.93 13.064C24.2053 13.064 25.2387 14.1167 25.2387 15.4147C25.2387 16.7132 24.2053 17.7655 22.93 17.7655Z" fill="white"/>
<path d="M33.626 24.0439V15.6312H34.7695C35.6069 15.6312 36.2858 16.3225 36.2858 17.1751V22.5005C36.2858 23.3531 35.6069 24.0444 34.7695 24.0444H33.626V24.0439Z" fill="white"/>
<path d="M0.286133 22.5005V17.1751C0.286133 16.3225 0.96501 15.6312 1.80238 15.6312H2.94593V24.0444H1.80238C0.96501 24.0439 0.286133 23.3527 0.286133 22.5005Z" fill="white"/>
<path d="M20.4246 2.28358C20.4246 3.31384 19.7513 4.18668 18.8293 4.4703V6.4442H17.5338V4.4703C16.6117 4.18668 15.9385 3.31384 15.9385 2.28358C15.9385 1.02467 16.9447 0.00012207 18.1815 0.00012207C19.4184 0.00012207 20.4246 1.02467 20.4246 2.28358Z" fill="white"/>
</svg>
