<svg width="37" height="32" viewBox="0 0 37 32" fill="none" xmlns="http://www.w3.org/2000/svg">
<path d="M18.2871 26.204C23.9141 26.204 28.4918 21.6262 28.4918 15.9992C28.4918 10.3722 23.914 5.79444 18.2871 5.79444C12.6591 5.79444 8.08035 10.3723 8.08035 15.9992C8.08035 21.6261 12.6592 26.204 18.2871 26.204ZM17.1981 10.2724V9.74464C17.1981 9.4558 17.3128 9.17878 17.517 8.97454C17.7213 8.7703 17.9983 8.65555 18.2871 8.65555C18.576 8.65555 18.853 8.7703 19.0573 8.97454C19.2615 9.17878 19.3762 9.4558 19.3762 9.74464V10.2747C20.394 10.5566 21.2606 11.2234 21.7241 12.1291C21.8557 12.3862 21.8797 12.6851 21.7909 12.96C21.7021 13.2348 21.5078 13.4632 21.2507 13.5948C20.9935 13.7263 20.6947 13.7504 20.4198 13.6616C20.1449 13.5728 19.9166 13.3785 19.785 13.1213C19.5309 12.6251 18.9421 12.3044 18.2847 12.3044C17.4085 12.3044 16.6683 12.9011 16.6683 13.6074C16.6683 14.4152 16.9266 14.6013 18.5108 14.9346C19.2756 15.0955 20.0664 15.2618 20.7465 15.7101C21.6322 16.2942 22.0818 17.1962 22.0818 18.3912C22.0818 19.9629 20.9394 21.294 19.3762 21.725V22.2538C19.3762 22.5427 19.2615 22.8197 19.0573 23.024C18.853 23.2282 18.576 23.3429 18.2871 23.3429C17.9983 23.3429 17.7213 23.2282 17.517 23.024C17.3128 22.8197 17.1981 22.5427 17.1981 22.2538V21.7249C16.1795 21.4436 15.3119 20.7762 14.8479 19.8694C14.717 19.6123 14.6935 19.3139 14.7825 19.0395C14.8714 18.7651 15.0656 18.5372 15.3224 18.4058C15.5792 18.2744 15.8776 18.2503 16.1522 18.3386C16.4267 18.427 16.655 18.6207 16.787 18.8772C17.0411 19.3735 17.6288 19.6941 18.2847 19.6941C19.1774 19.6941 19.9038 19.1096 19.9038 18.3912C19.9038 17.5849 19.6458 17.3991 18.0627 17.0661C17.2976 16.9051 16.5064 16.7387 15.8264 16.2901C14.9401 15.7057 14.4904 14.803 14.4904 13.6074C14.4903 12.0342 15.6339 10.7022 17.1982 10.2724H17.1981ZM32.2963 22.8198C30.7616 25.9731 28.2078 28.5164 25.0482 30.0382C21.8886 31.56 18.308 31.9713 14.8856 31.2055C11.4633 30.4398 8.39936 28.5417 6.18959 25.8185C3.97983 23.0953 2.75346 19.7062 2.70889 16.1995L2.13901 16.7693C1.9342 16.9708 1.65807 17.0832 1.37076 17.0821C1.08346 17.0809 0.808254 16.9662 0.605101 16.7631C0.401949 16.5599 0.287305 16.2847 0.286142 15.9974C0.284979 15.7101 0.397391 15.434 0.598892 15.2291L3.02538 12.8025C3.22963 12.5983 3.50664 12.4835 3.79548 12.4835C4.08432 12.4835 4.36133 12.5983 4.56557 12.8025L6.99221 15.2291C7.19497 15.4337 7.30846 15.7102 7.30783 15.9983C7.3072 16.2863 7.1925 16.5623 6.98884 16.766C6.78518 16.9696 6.50914 17.0843 6.22112 17.085C5.93311 17.0856 5.65657 16.9721 5.45202 16.7693L4.88722 16.2045C4.99743 23.5003 10.9643 29.4017 18.285 29.4017C23.4531 29.4017 28.0717 26.5139 30.3385 21.8652C30.4008 21.736 30.488 21.6203 30.5951 21.5249C30.7021 21.4295 30.827 21.3561 30.9626 21.3091C31.0981 21.2621 31.2415 21.2423 31.3847 21.2509C31.5279 21.2595 31.668 21.2962 31.7969 21.3591C31.9258 21.422 32.0411 21.5097 32.136 21.6172C32.231 21.7247 32.3037 21.85 32.3501 21.9857C32.3965 22.1214 32.4157 22.265 32.4064 22.4081C32.3972 22.5513 32.3598 22.6912 32.2963 22.8198ZM35.9734 16.7693L33.5468 19.1959C33.3426 19.4001 33.0656 19.5149 32.7767 19.5149C32.4879 19.5149 32.2109 19.4001 32.0066 19.1959L29.58 16.7693C29.4781 16.6684 29.3972 16.5483 29.3419 16.416C29.2866 16.2836 29.2579 16.1417 29.2576 15.9983C29.2573 15.8548 29.2853 15.7128 29.3401 15.5802C29.3948 15.4476 29.4752 15.3272 29.5766 15.2258C29.678 15.1244 29.7985 15.044 29.931 14.9892C30.0636 14.9345 30.2057 14.9065 30.3491 14.9068C30.4925 14.9071 30.6345 14.9357 30.7668 14.9911C30.8991 15.0464 31.0192 15.1273 31.1202 15.2291L31.685 15.794C31.5748 8.4993 25.6066 2.59877 18.285 2.59877C13.1177 2.59877 8.49987 5.4858 6.23369 10.1332C6.1063 10.3915 5.88179 10.5888 5.6093 10.682C5.3368 10.7751 5.0385 10.7566 4.77965 10.6304C4.5208 10.5041 4.32248 10.2805 4.22807 10.0085C4.13366 9.73641 4.15085 9.43803 4.27587 9.17861C5.81097 6.02572 8.3648 3.48289 11.5243 1.96143C14.6838 0.439964 18.2642 0.0288458 21.6863 0.794572C25.1084 1.5603 28.1721 3.45809 30.3819 6.18097C32.5917 8.90385 33.8183 12.2926 33.8633 15.799L34.4333 15.2291C34.6381 15.0277 34.9142 14.9153 35.2015 14.9164C35.4888 14.9176 35.764 15.0323 35.9672 15.2354C36.1703 15.4386 36.285 15.7138 36.2861 16.0011C36.2873 16.2884 36.1749 16.5645 35.9734 16.7693Z" fill="white"/>
</svg>
