<svg width="37" height="36" viewBox="0 0 37 36" fill="none" xmlns="http://www.w3.org/2000/svg">
<g clip-path="url(#clip0_109_1659)">
<path d="M25.8083 17.758C25.7238 17.4016 25.4622 17.1152 25.1151 16.9999L19.9406 15.2747L23.6155 7.9249C23.8462 7.46246 23.7082 6.9001 23.289 6.59726C22.8678 6.29548 22.291 6.34083 21.9263 6.70744L11.3795 17.2543C11.1209 17.5129 11.0148 17.8867 11.0983 18.2421C11.1827 18.5984 11.4444 18.8848 11.7914 19.0001L16.966 20.7253L13.291 28.0751C13.0604 28.5376 13.1984 29.0999 13.6176 29.4028C14.0374 29.7036 14.6131 29.6596 14.9802 29.2926L25.5271 18.7457C25.7856 18.4872 25.8918 18.1133 25.8083 17.758Z" fill="white"/>
<path d="M18.4531 0C13.1002 0 8.04413 2.48948 4.67188 6.50595V5.34375C4.67188 4.76079 4.20015 4.28906 3.61719 4.28906C3.03423 4.28906 2.5625 4.76079 2.5625 5.34375V9.82413C2.5625 10.8307 3.86258 10.9747 3.61719 10.8788C3.63884 10.8788 3.66043 10.8778 3.68209 10.8768L7.90084 10.6151C8.48274 10.5791 8.92466 10.0785 8.88859 9.4976C8.85252 8.91668 8.34479 8.47898 7.77104 8.50985L5.63396 8.64274C8.59412 4.61609 13.3836 2.10938 18.4531 2.10938C27.1769 2.10938 34.3438 9.27619 34.3438 18C34.3438 18.583 34.8155 19.0547 35.3984 19.0547C35.9814 19.0547 36.4531 18.583 36.4531 18C36.4531 8.11336 28.3398 0 18.4531 0Z" fill="white"/>
<path d="M33.2242 25.1232L29.0054 25.3849C28.4235 25.4209 27.9816 25.9215 28.0177 26.5024C28.0537 27.0833 28.5729 27.5262 29.1352 27.4901L31.2723 27.3573C28.3121 31.3839 23.5227 33.8906 18.4531 33.8906C9.72931 33.8906 2.5625 26.7238 2.5625 18C2.5625 17.417 2.09077 16.9453 1.50781 16.9453C0.924852 16.9453 0.453125 17.417 0.453125 18C0.453125 27.8866 8.56648 36 18.4531 36C23.806 36 28.8621 33.5105 32.2344 29.4941V30.6562C32.2344 31.2392 32.7061 31.7109 33.2891 31.7109C33.872 31.7109 34.3438 31.2392 34.3438 30.6562V26.1759C34.3438 25.5965 33.7882 25.0914 33.2242 25.1232Z" fill="white"/>
</g>
<defs>
<clipPath id="clip0_109_1659">
<rect width="36" height="36" fill="white" transform="translate(0.453125)"/>
</clipPath>
</defs>
</svg>
