<svg width="40" height="40" viewBox="0 0 40 40" fill="none" xmlns="http://www.w3.org/2000/svg">
<g clip-path="url(#clip0_1521_717)">
<path d="M27.1387 19.6795L27.1395 19.6798C27.2498 19.7164 27.3337 19.8071 27.3613 19.9226C27.3878 20.0366 27.3536 20.1566 27.2707 20.2395L15.5521 31.9581C15.5521 31.9581 15.552 31.9582 15.552 31.9582C15.4352 32.0748 15.2515 32.0911 15.1139 31.9935C14.9802 31.8959 14.936 31.7152 15.0101 31.5667L19.093 23.4009L19.5227 22.5416L18.6112 22.2377L12.8617 20.3208L12.8609 20.3205C12.7505 20.2839 12.6667 20.1932 12.639 20.0778C12.6125 19.9637 12.6468 19.8437 12.7296 19.7609L24.4484 8.0421L24.45 8.04051C24.5633 7.92658 24.747 7.90794 24.8865 8.0069C25.0201 8.10437 25.0643 8.28479 24.9905 8.43314C24.9904 8.43329 24.9904 8.43344 24.9903 8.43358L20.9074 16.5994L20.4777 17.4587L21.3891 17.7626L27.1387 19.6795Z" stroke="#21606A" stroke-width="1.66667"/>
<path d="M20 0C14.0523 0 8.43445 2.76609 4.6875 7.22883V5.9375C4.6875 5.28977 4.16336 4.76562 3.51562 4.76562C2.86789 4.76562 2.34375 5.28977 2.34375 5.9375V10.9157C2.34375 12.0341 3.78828 12.1941 3.51562 12.0876C3.53969 12.0876 3.56367 12.0864 3.58773 12.0853L8.27523 11.7946C8.9218 11.7545 9.41281 11.1984 9.37273 10.5529C9.33266 9.90742 8.76852 9.42109 8.13102 9.45539L5.75648 9.60305C9.04555 5.12898 14.3672 2.34375 20 2.34375C29.6931 2.34375 37.6562 10.3069 37.6562 20C37.6562 20.6477 38.1804 21.1719 38.8281 21.1719C39.4759 21.1719 40 20.6477 40 20C40 9.01484 30.9852 0 20 0Z" fill="#21606A"/>
<path d="M36.4123 27.9147L31.7248 28.2054C31.0782 28.2455 30.5872 28.8016 30.6273 29.4471C30.6673 30.0926 31.2441 30.5847 31.869 30.5446L34.2435 30.397C30.9545 34.871 25.6328 37.6562 20 37.6562C10.3069 37.6562 2.34375 29.6931 2.34375 20C2.34375 19.3523 1.81961 18.8281 1.17188 18.8281C0.524141 18.8281 0 19.3523 0 20C0 30.9852 9.01484 40 20 40C25.9477 40 31.5655 37.2339 35.3125 32.7712V34.0625C35.3125 34.7102 35.8366 35.2344 36.4844 35.2344C37.1321 35.2344 37.6562 34.7102 37.6562 34.0625V29.0843C37.6562 28.4405 37.039 27.8794 36.4123 27.9147Z" fill="#21606A"/>
</g>
<defs>
<clipPath id="clip0_1521_717">
<rect width="40" height="40" fill="white"/>
</clipPath>
</defs>
</svg>
