<svg width="41" height="40" viewBox="0 0 41 40" fill="none" xmlns="http://www.w3.org/2000/svg">
<path d="M5.33268 25.8213C7.52595 26.7008 9.10485 26.7008 10.0693 25.8213C11.5159 24.502 10.2676 20.4981 12.2937 19.3939C14.3197 18.2896 17.4065 23.1845 20.2917 21.5739C23.1768 19.9632 20.0198 15.6685 22.022 13.9275C24.0242 12.1864 26.6277 14.15 27.0828 11.2387C27.5378 8.3275 24.9594 9.59013 24.4647 6.83907C24.1348 5.00505 24.1348 4.04066 24.4647 3.94589M24.5168 36.1254C22.9551 34.527 22.3928 33.0414 22.8302 31.6682C23.4862 29.6085 24.5683 29.7303 25.0401 28.4568C25.5118 27.1832 24.1791 25.3694 27.1363 23.8188C29.1078 22.785 31.8186 23.9828 35.2684 27.412M20.3327 36.6668C29.5374 36.6668 36.9993 29.2049 36.9993 20.0001C36.9993 10.7954 29.5374 3.3335 20.3327 3.3335C11.1279 3.3335 3.66602 10.7954 3.66602 20.0001C3.66602 29.2049 11.1279 36.6668 20.3327 36.6668Z" stroke="#21606A" stroke-width="2.22222" stroke-linecap="round"/>
</svg>
