<svg width="36" height="36" viewBox="0 0 36 36" fill="none" xmlns="http://www.w3.org/2000/svg">
<path d="M11.8164 28.8928C12.291 28.2982 12.1982 27.4255 11.6037 26.951C11.3201 26.7219 11.0146 26.6128 10.6982 26.6128C10.6437 26.6128 10.5892 26.6182 10.5346 26.6237C10.1637 26.6673 9.83643 26.8528 9.61279 27.1473L7.78552 29.5092C7.57825 29.771 7.47461 30.0655 7.47461 30.371C7.47461 30.791 7.66552 31.1837 7.99279 31.451C8.58188 31.9255 9.45461 31.8273 9.93461 31.2382L11.8164 28.8928Z" fill="white"/>
<path d="M6.98926 28.7454L8.82744 26.3782C9.03472 26.1054 9.14926 25.7836 9.14926 25.4454C9.14926 24.9764 8.93654 24.54 8.56563 24.2454C8.30381 24.0382 7.98199 23.9291 7.64926 23.9291C7.58381 23.9291 7.51835 23.9345 7.4529 23.94C7.04926 23.9891 6.69472 24.1963 6.44926 24.5127L4.61108 26.88C4.10381 27.54 4.21835 28.4891 4.8729 28.9964C5.19472 29.2473 5.58745 29.3564 5.98563 29.3073C6.38926 29.2636 6.74381 29.0618 6.98926 28.7454Z" fill="white"/>
<path d="M3.4931 21.4964L5.13492 19.271L5.72946 18.4637C5.73492 18.4582 5.73492 18.4582 5.74037 18.4528L9.30764 13.6146L9.32401 13.5982L9.40583 13.4892C9.47674 13.3964 9.46037 13.2437 9.35674 13.1673L6.77128 11.1273C6.71674 11.0837 6.66219 11.0782 6.62401 11.0782C6.6131 11.0782 6.60219 11.0782 6.59128 11.0782C6.5531 11.0837 6.48219 11.1001 6.42764 11.171L0.214917 19.6037C0.133099 19.7128 0.154917 19.8601 0.258554 19.9473L2.82219 21.971C2.87674 22.0146 2.94219 22.031 3.0131 22.0201C3.05674 22.0146 3.12219 21.9928 3.17674 21.9219L3.48764 21.5019C3.48764 21.5019 3.48764 21.4964 3.4931 21.4964Z" fill="white"/>
<path d="M14.3476 31.3418L14.3694 31.3091C14.3748 31.3036 14.3803 31.2982 14.3803 31.2927C14.3858 31.2818 14.3967 31.2654 14.4021 31.2545C14.5385 31.0582 14.6094 30.8236 14.6094 30.5836C14.6094 30.2018 14.4348 29.8527 14.1348 29.6291C13.9221 29.4709 13.6767 29.3945 13.4258 29.3945C13.0767 29.3945 12.7276 29.5473 12.4985 29.8364L11.1076 31.56C10.9003 31.8163 10.813 32.1382 10.8567 32.4654C10.9003 32.7873 11.0639 33.0654 11.3258 33.2618L11.4239 33.3436C11.6421 33.5073 11.9585 33.5836 12.2748 33.54C12.5912 33.4964 12.8639 33.3273 13.0548 33.0763L14.3476 31.3418Z" fill="white"/>
<path d="M17.6208 10.4727C20.2826 10.4727 22.4481 8.30729 22.4481 5.64547C22.4481 2.98365 20.2826 0.812744 17.6208 0.812744C14.959 0.812744 12.7881 2.9782 12.7881 5.64547C12.7881 8.30729 14.959 10.4727 17.6208 10.4727ZM15.2154 5.52547C15.4281 5.31274 15.7717 5.31274 15.9844 5.52547L16.7644 6.30547L19.2517 3.8182C19.4645 3.60547 19.8081 3.60547 20.0208 3.8182C20.2335 4.03093 20.2335 4.37456 20.0208 4.58729L17.1517 7.45638C17.0481 7.56002 16.9117 7.61456 16.7644 7.61456C16.6172 7.61456 16.4808 7.55456 16.3772 7.45638L15.2099 6.28911C15.0026 6.08183 15.0026 5.7382 15.2154 5.52547Z" fill="white"/>
<path d="M27.4659 17.04L26.2768 14.1054L25.5732 14.4982C25.0823 14.7763 24.4877 14.8909 23.9095 14.8091L17.7568 13.8982C17.0041 13.7891 16.2241 14.04 15.6786 14.5636L15.095 15.1254C15.095 15.1254 15.095 15.1254 15.0895 15.1309L12.8314 17.2963C12.6841 17.4382 12.6514 17.6018 12.6514 17.7163C12.6514 17.8963 12.7386 18.1363 12.9841 18.2509C14.0968 18.7854 15.4059 18.7582 16.4968 18.1854L17.0914 17.8745C17.4732 17.6727 17.8932 17.5745 18.3132 17.5745C18.9023 17.5745 19.4859 17.7709 19.9605 18.1582L20.255 18.3927L25.7477 22.7945C26.015 23.0018 26.2932 23.1763 26.5768 23.2963C26.6695 23.3345 26.7786 23.3782 26.8823 23.4163C26.9532 23.4436 27.0295 23.4709 27.1059 23.4872C27.2095 23.52 27.2859 23.5363 27.3623 23.5472C27.4823 23.5691 27.5914 23.5909 27.7005 23.5963C27.8314 23.6127 27.9241 23.6182 28.0168 23.6182C28.2514 23.6236 28.4532 23.6182 28.6386 23.5909L30.035 23.3945L27.4659 17.04Z" fill="white"/>
<path d="M30.7769 11.2528C30.7442 11.171 30.6897 11.1328 30.646 11.1164C30.6133 11.1001 30.5369 11.0837 30.4551 11.1219L27.1115 12.6055C26.986 12.6601 26.926 12.8019 26.9751 12.9219L27.2097 13.5001L27.7006 14.7055L31.2624 23.4983C31.3442 23.6401 31.4751 23.6728 31.5787 23.6237L34.9278 22.1455C35.0478 22.091 35.1024 21.9546 35.0533 21.8292L30.7769 11.2528Z" fill="white"/>
<path d="M27.6025 24.6709C27.4879 24.6655 27.3406 24.6382 27.1934 24.6109C27.0843 24.5946 26.9534 24.5673 26.8225 24.5237C26.7352 24.5018 26.6261 24.4637 26.5225 24.4309C26.4025 24.3873 26.277 24.3382 26.1515 24.2837C25.7806 24.12 25.4261 23.9018 25.0825 23.6346L19.2897 18.9982C18.8097 18.6109 18.1497 18.5455 17.6043 18.8291L17.0097 19.14C15.6243 19.8709 13.9443 19.9037 12.5261 19.2273C11.937 18.9491 11.5661 18.3655 11.5661 17.7109C11.5661 17.2528 11.7461 16.8273 12.0788 16.5055L13.3497 15.2891H11.097C10.6879 15.2891 10.2952 15.1418 9.99518 14.8746L9.837 14.7273L6.61336 19.1073C6.597 19.1237 6.58609 19.1455 6.56972 19.1618L6.28063 19.5546L5.38609 20.7709L4.69336 21.7091L5.02609 21.96C5.50063 22.3037 5.78972 22.8764 5.78972 23.4873V23.6455C6.19881 23.22 6.73336 22.9418 7.3279 22.8655C8.02063 22.7782 8.70245 22.9637 9.2479 23.3891C9.88609 23.8909 10.2461 24.6382 10.2461 25.4455C10.2461 25.4891 10.2352 25.5327 10.2352 25.5764C10.2952 25.5655 10.3552 25.5437 10.4152 25.5382C11.0806 25.4618 11.7352 25.6473 12.2588 26.0727C12.9625 26.6455 13.2788 27.4964 13.1915 28.3146C13.7424 28.2546 14.3152 28.3964 14.7952 28.7564C15.3734 29.1873 15.7115 29.8527 15.7115 30.5837C15.7115 30.6 15.7061 30.6164 15.7061 30.6382C16.2625 30.5509 16.8461 30.66 17.3315 30.9709C17.997 31.4018 18.3952 32.1327 18.3952 32.9291C18.3952 33.3873 18.2643 33.8237 18.0243 34.1946L18.0406 34.2055C18.537 34.5818 19.2952 34.5382 19.737 34.0909C20.0043 33.8237 20.1406 33.4637 20.1134 33.0873C20.0915 32.7164 19.9061 32.3727 19.6061 32.1437L16.3606 29.6128C16.1261 29.4273 16.0825 29.0837 16.2679 28.8491C16.4534 28.6146 16.797 28.5709 17.0315 28.7564L20.7406 31.6473C21.2043 32.0018 21.8588 31.9582 22.2734 31.5437C22.5188 31.2982 22.6388 30.9655 22.6115 30.6218C22.5843 30.2782 22.4097 29.9673 22.1261 29.7709C21.8425 29.5746 22.1261 29.7709 22.1206 29.7709L18.3625 27.0818C18.117 26.9073 18.0625 26.5637 18.237 26.3182C18.4115 26.0728 18.7497 26.0182 19.0006 26.1927L22.9334 29.0073C23.5334 29.4327 24.3679 29.3291 24.8425 28.7673C25.0988 28.4618 25.2134 28.0746 25.1643 27.6818C25.1152 27.2891 24.9134 26.94 24.5915 26.7055L22.7043 25.3037L20.4625 23.64C20.2225 23.46 20.1679 23.1218 20.3479 22.8764C20.3915 22.8164 20.4461 22.7727 20.5006 22.74L20.5061 22.7346C20.6915 22.6255 20.9261 22.6309 21.1115 22.7618L25.6715 26.1327C26.1679 26.4982 26.8988 26.4437 27.3515 26.0018C27.6952 25.6582 27.8097 25.1455 27.6625 24.6873C27.6406 24.6764 27.6188 24.6764 27.6025 24.6709Z" fill="white"/>
<path d="M16.8463 33.9983L17.1027 33.6001C17.2336 33.4037 17.299 33.1692 17.299 32.9237C17.299 32.4983 17.0863 32.1055 16.7372 31.8819C16.339 31.6255 15.8208 31.6255 15.4117 31.871C15.3681 31.8928 15.3517 31.9146 15.3245 31.9364C15.319 31.9419 15.3081 31.9473 15.3027 31.9528C15.2972 31.9528 15.2972 31.9583 15.2917 31.9637C15.2699 31.9801 15.2427 32.0128 15.2208 32.0346C15.0681 32.2255 14.6808 32.7273 14.3372 33.1801C14.1408 33.4583 14.0645 33.791 14.1245 34.1237C14.1899 34.4619 14.3808 34.7455 14.6699 34.931L14.7463 34.9801C15.0136 35.1546 15.3463 35.2201 15.6627 35.1492C15.9899 35.0783 16.2681 34.8873 16.4481 34.6092L16.8463 33.9983C16.8408 34.0037 16.8408 34.0037 16.8463 33.9983Z" fill="white"/>
</svg>

