<svg width="37" height="36" viewBox="0 0 37 36" fill="none" xmlns="http://www.w3.org/2000/svg">
<g clip-path="url(#clip0_115_332)">
<path d="M18.9531 6.69624C19.5356 6.69624 20.0078 6.22402 20.0078 5.64155V2.1582C20.0078 1.57573 19.5356 1.10352 18.9531 1.10352C18.3707 1.10352 17.8984 1.57573 17.8984 2.1582V5.64155C17.8984 6.22402 18.3707 6.69624 18.9531 6.69624Z" fill="white"/>
<path d="M23.875 8.48631C24.145 8.48631 24.4149 8.3833 24.6208 8.17736L27.4333 5.36486C27.8452 4.95304 27.8452 4.28521 27.4333 3.87332C27.0214 3.4615 26.3536 3.4615 25.9417 3.87332L23.1292 6.68582C22.7173 7.09764 22.7173 7.76547 23.1292 8.17736C23.3352 8.3833 23.6051 8.48631 23.875 8.48631Z" fill="white"/>
<path d="M13.2856 8.17736C13.4915 8.3833 13.7614 8.48631 14.0313 8.48631C14.3011 8.48631 14.5711 8.3833 14.777 8.17736C15.1889 7.76554 15.1889 7.09771 14.777 6.68582L11.9645 3.87332C11.5527 3.4615 10.8849 3.4615 10.473 3.87332C10.0611 4.28514 10.0611 4.95297 10.473 5.36486L13.2856 8.17736Z" fill="white"/>
<path d="M28.4263 16.0115L24.3322 11.9173C23.5409 11.1261 22.4679 10.6816 21.349 10.6816H14.945C13.3485 10.6816 11.8477 11.3033 10.7189 12.4321L10.3818 12.7691L10.36 12.7909H2.00781C1.42534 12.7909 0.953125 13.2632 0.953125 13.8456V25.0956C0.953125 25.6781 1.42534 26.1503 2.00781 26.1503H7.26627L9.76989 28.6539C9.96768 28.8517 10.2359 28.9628 10.5156 28.9628H11.4706C11.1171 28.4157 10.8896 27.8046 10.8005 27.1648C10.012 26.9083 9.30252 26.4347 8.75605 25.7834C7.16741 23.89 7.41527 21.0572 9.30857 19.4685L13.3172 16.1048H21.3212C21.6009 16.1048 21.8692 16.2159 22.067 16.4138L25.0117 19.3586C25.9576 20.3044 27.5257 20.3246 28.4553 19.3628C29.3583 18.4285 29.3486 16.9338 28.4263 16.0115Z" fill="white"/>
<path d="M36.9527 16.0254C36.9527 15.4428 36.4804 14.9706 35.898 14.9707H30.3105C31.659 16.7335 31.5288 19.2724 29.9175 20.8839C29.0682 21.7331 27.9381 22.2008 26.7355 22.2008C25.5328 22.2008 24.4027 21.7331 23.5535 20.8839L20.884 18.2143H13.8871L13.0586 18.9095L10.3829 21.1547C9.3789 21.9971 9.24798 23.4939 10.0904 24.4979C10.9328 25.5019 12.4296 25.6328 13.4336 24.7904C12.4296 25.6328 12.2987 27.1296 13.1411 28.1336C13.9835 29.1376 15.4803 29.2685 16.4843 28.4261C15.4803 29.2685 15.3494 30.7654 16.1918 31.7693C17.0342 32.7733 18.5311 32.9043 19.535 32.0618L21.4029 30.4945L21.151 30.7059C20.147 31.5484 20.0161 33.0452 20.8585 34.0492C21.7009 35.0532 23.1977 35.1841 24.2017 34.3417L31.3661 28.3299H35.8981C36.4806 28.3299 36.9528 27.8577 36.9527 27.2753L36.9527 16.0254Z" fill="white"/>
</g>
<defs>
<clipPath id="clip0_115_332">
<rect width="36" height="36" fill="white" transform="translate(0.953125)"/>
</clipPath>
</defs>
</svg>
