<svg width="19" height="36" viewBox="0 0 19 36" fill="none" xmlns="http://www.w3.org/2000/svg">
<path d="M18.2791 1.1839C18.1016 0.865515 17.77 0.669189 17.4102 0.669189H5.42759C4.96926 0.669189 4.57044 0.98656 4.45926 1.43872L0.465053 17.7541C0.389962 18.0575 0.457264 18.3788 0.646457 18.6247C0.835649 18.8716 1.12623 19.0154 1.43338 19.0154H5.98345L0.498272 33.9583C0.322726 34.4343 0.520706 34.9688 0.960468 35.2098C1.40223 35.4505 1.94877 35.3217 2.24081 34.9122L18.2177 12.504C18.439 12.1956 18.4702 11.787 18.3005 11.4459C18.1299 11.1058 17.7857 10.8916 17.4102 10.8916H13.1829L18.2664 2.20723C18.4517 1.89291 18.4566 1.50222 18.2791 1.1839Z" fill="white"/>
</svg>
