<svg width="43" height="40" viewBox="0 0 43 40" fill="none" xmlns="http://www.w3.org/2000/svg">
<circle cx="5.00033" cy="7.1429" r="3.33333" stroke="#21606A" stroke-width="2.22222"/>
<path d="M19.9968 24.2889C18.7064 24.2889 17.6472 23.8748 16.819 23.0467C15.9909 22.2185 15.5768 21.14 15.5768 19.8111C15.5768 18.9637 15.7694 18.2126 16.1546 17.5578C16.5398 16.903 17.0598 16.3926 17.7146 16.0267C18.3887 15.6607 19.1494 15.4778 19.9968 15.4778C21.1524 15.4778 22.1346 15.7474 22.9435 16.2867C23.2131 16.46 23.3479 16.7007 23.3479 17.0089C23.3479 17.317 23.2516 17.5578 23.059 17.7311C22.8664 17.9044 22.6449 17.9911 22.3946 17.9911C22.2212 17.9911 22.0672 17.9526 21.9324 17.8756C21.2198 17.3941 20.5553 17.1822 19.939 17.24C19.1879 17.317 18.6005 17.577 18.1768 18.02C17.7531 18.4437 17.5412 19.0504 17.5412 19.84C17.5412 20.6681 17.7627 21.323 18.2057 21.8044C18.6679 22.2667 19.3131 22.4978 20.1412 22.4978C20.8731 22.4978 21.6049 22.2185 22.3368 21.66C22.4909 21.5252 22.6931 21.4578 22.9435 21.4578C23.2324 21.4578 23.4442 21.5733 23.579 21.8044C23.7331 22.0163 23.8101 22.2185 23.8101 22.4111C23.8101 22.6807 23.6849 22.9311 23.4346 23.1622C22.9531 23.5859 22.4235 23.8748 21.8457 24.0289C21.2679 24.2022 20.6516 24.2889 19.9968 24.2889ZM29.3081 24.2889C28.4606 24.2889 27.6903 24.0963 26.9969 23.7111C26.3229 23.3259 25.7932 22.7963 25.4081 22.1222C25.0229 21.4289 24.8303 20.6585 24.8303 19.8111C24.8303 18.983 25.0229 18.2415 25.4081 17.5867C25.7932 16.9319 26.3229 16.4215 26.9969 16.0556C27.6903 15.6704 28.4606 15.4778 29.3081 15.4778C30.1555 15.4778 30.9162 15.6704 31.5903 16.0556C32.2643 16.4215 32.794 16.9319 33.1792 17.5867C33.5836 18.2415 33.7858 18.983 33.7858 19.8111C33.7858 20.6585 33.5836 21.4289 33.1792 22.1222C32.794 22.7963 32.2643 23.3259 31.5903 23.7111C30.9162 24.0963 30.1555 24.2889 29.3081 24.2889ZM29.3081 22.4978C30.0592 22.4978 30.6658 22.257 31.1281 21.7756C31.5903 21.2748 31.8214 20.62 31.8214 19.8111C31.8214 19.0407 31.5903 18.4244 31.1281 17.9622C30.6658 17.5 30.0592 17.2689 29.3081 17.2689C28.5377 17.2689 27.9214 17.5 27.4592 17.9622C27.0162 18.4244 26.7947 19.0407 26.7947 19.8111C26.7947 20.62 27.0162 21.2748 27.4592 21.7756C27.9214 22.257 28.5377 22.4978 29.3081 22.4978Z" fill="#21606A"/>
<path d="M32.4815 29.9999C32.2845 29.9999 32.1134 29.9325 31.9682 29.7977C31.8334 29.6629 31.766 29.497 31.766 29.2999C31.766 29.0614 31.8697 28.8436 32.0771 28.6466L33.306 27.511C33.7623 27.0859 34.0786 26.7384 34.2549 26.4688C34.4312 26.1888 34.5193 25.9088 34.5193 25.6288C34.5193 25.3903 34.4467 25.1984 34.3015 25.0533C34.1667 24.9081 33.9801 24.8355 33.7415 24.8355C33.5134 24.8355 33.3267 24.9029 33.1815 25.0377C33.0364 25.1725 32.9378 25.354 32.886 25.5822C32.8549 25.7377 32.7771 25.8673 32.6527 25.971C32.5386 26.0644 32.3934 26.111 32.2171 26.111C32.0304 26.111 31.8749 26.0488 31.7504 25.9244C31.626 25.7999 31.5689 25.6496 31.5793 25.4733C31.6001 24.9236 31.8178 24.4777 32.2327 24.1355C32.6578 23.7829 33.1867 23.6066 33.8193 23.6066C34.4623 23.6066 34.9704 23.7933 35.3438 24.1666C35.7275 24.5296 35.9193 25.0014 35.9193 25.5822C35.9193 25.9451 35.826 26.2925 35.6393 26.6244C35.463 26.9459 35.1934 27.2881 34.8304 27.651L33.9593 28.5222C33.7934 28.6881 33.8297 28.771 34.0682 28.771L35.4838 28.7399C35.6912 28.7296 35.8571 28.7866 35.9815 28.911C36.106 29.0251 36.1682 29.1807 36.1682 29.3777C36.1682 29.5644 36.1112 29.7147 35.9971 29.8288C35.883 29.9429 35.7327 29.9999 35.546 29.9999H32.4815Z" fill="#21606A"/>
<path d="M41.0629 14.4934C41.0629 16.6654 40.3318 18.7112 38.9858 20.354C40.6996 22.1791 41.6656 24.5646 41.6656 27.0389C41.6656 29.6348 40.6599 32.0883 38.8336 33.9474C37.0027 35.8112 34.5839 36.8376 32.0227 36.8376C28.7326 36.8376 25.6782 35.0568 23.9357 32.2572C22.5486 34.0481 20.4124 35.1342 18.0942 35.1342C13.9956 35.1342 10.6611 31.7473 10.6611 27.5843C10.6611 26.6477 10.8331 25.7199 11.1634 24.8538C10.2003 24.2933 9.36772 23.5238 8.72178 22.5904C7.84388 21.3221 7.37988 19.8424 7.37988 18.3116C7.37988 14.1486 10.7444 10.7617 14.8799 10.7617C14.9075 10.7617 14.9351 10.7619 14.9627 10.7622C15.1951 7.41377 17.9525 4.76172 21.3085 4.76172C23.3142 4.76172 25.1895 5.73431 26.3779 7.32022C27.9698 6.02902 29.9666 5.30714 32.0227 5.30714C37.0075 5.30714 41.0629 9.42813 41.0629 14.4934Z" stroke="#21606A" stroke-width="2.22222"/>
</svg>

