<svg width="24" height="24" viewBox="0 0 24 24" fill="none" xmlns="http://www.w3.org/2000/svg">
<g clip-path="url(#clip0_109_2106)">
<path d="M12 -0.295166C7.78289 -0.295166 4.26562 3.10187 4.26562 7.43921C4.26562 9.0893 4.76147 10.5607 5.71308 11.9395L11.4081 20.8261C11.6844 21.2581 12.3162 21.2572 12.5919 20.8261L18.3116 11.9093C19.2428 10.593 19.7344 9.04735 19.7344 7.43921C19.7344 3.17447 16.2647 -0.295166 12 -0.295166ZM12 10.9548C10.0616 10.9548 8.48438 9.37763 8.48438 7.43921C8.48438 5.50079 10.0616 3.92358 12 3.92358C13.9384 3.92358 15.5156 5.50079 15.5156 7.43921C15.5156 9.37763 13.9384 10.9548 12 10.9548Z" fill="url(#paint0_linear_109_2106)"/>
<path d="M17.4967 15.8623L13.9562 21.3976C13.0398 22.8265 10.9551 22.8218 10.0431 21.399L6.49678 15.8638C3.37659 16.5852 1.45312 17.9067 1.45312 19.486C1.45312 22.2264 6.88725 23.7047 12 23.7047C17.1128 23.7047 22.5469 22.2264 22.5469 19.486C22.5469 17.9056 20.6207 16.5833 17.4967 15.8623Z" fill="url(#paint1_linear_109_2106)"/>
</g>
<defs>
<linearGradient id="paint0_linear_109_2106" x1="3.75551" y1="-0.295166" x2="25.1601" y2="5.45065" gradientUnits="userSpaceOnUse">
<stop stop-color="#4A89DB"/>
<stop offset="1" stop-color="#39C77B"/>
</linearGradient>
<linearGradient id="paint1_linear_109_2106" x1="0.757518" y1="15.8623" x2="16.3881" y2="31.5079" gradientUnits="userSpaceOnUse">
<stop stop-color="#4A89DB"/>
<stop offset="1" stop-color="#39C77B"/>
</linearGradient>
<clipPath id="clip0_109_2106">
<rect width="24" height="24" fill="white"/>
</clipPath>
</defs>
</svg>
