<svg width="18" height="19" viewBox="0 0 18 19" fill="none" xmlns="http://www.w3.org/2000/svg">
<path d="M17.8296 17.9964L13.1822 13.4233C14.3992 12.101 15.1469 10.3524 15.1469 8.42811C15.1464 4.3118 11.7559 0.975342 7.57318 0.975342C3.39048 0.975342 0 4.3118 0 8.42811C0 12.5444 3.39048 15.8809 7.57318 15.8809C9.38039 15.8809 11.0379 15.2558 12.3399 14.2166L17.0053 18.8077C17.2327 19.0317 17.6017 19.0317 17.829 18.8077C18.0569 18.5838 18.0569 18.2204 17.8296 17.9964ZM7.57318 14.7342C4.03416 14.7342 1.16524 11.9109 1.16524 8.42811C1.16524 4.94533 4.03416 2.12199 7.57318 2.12199C11.1122 2.12199 13.9811 4.94533 13.9811 8.42811C13.9811 11.9109 11.1122 14.7342 7.57318 14.7342Z" fill="white"/>
</svg>
