<svg width="24" height="24" viewBox="0 0 24 24" fill="none" xmlns="http://www.w3.org/2000/svg">
<path d="M17.2333 15.0328C17.0671 13.9033 16.5015 12.8708 15.6392 12.1227C14.7769 11.3745 13.675 10.9601 12.5333 10.9548H11.4693C10.3277 10.9601 9.22576 11.3745 8.36344 12.1227C7.50113 12.8708 6.93556 13.9033 6.76933 15.0328L6.25933 18.5988C6.24304 18.7141 6.25381 18.8316 6.29078 18.942C6.32775 19.0524 6.38991 19.1526 6.47233 19.2348C6.67233 19.4348 7.89933 20.4548 12.0023 20.4548C16.1053 20.4548 17.3293 19.4388 17.5323 19.2348C17.6148 19.1526 17.6769 19.0524 17.7139 18.942C17.7509 18.8316 17.7616 18.7141 17.7453 18.5988L17.2333 15.0328Z" fill="url(#paint0_linear_109_2091)"/>
<path d="M7.55985 11.5047C6.59338 12.3957 5.96455 13.5933 5.77985 14.8947L5.40985 17.4547C2.43985 17.4347 1.53985 16.3547 1.38985 16.1347C1.33187 16.0548 1.29049 15.9641 1.26817 15.8679C1.24584 15.7717 1.24301 15.672 1.25985 15.5747L1.47985 14.3347C1.59448 13.6867 1.86367 13.0758 2.26463 12.5539C2.66558 12.0321 3.18646 11.6146 3.7831 11.3369C4.37974 11.0592 5.03456 10.9294 5.69202 10.9586C6.34948 10.9878 6.9902 11.1752 7.55985 11.5047Z" fill="url(#paint1_linear_109_2091)"/>
<path d="M22.7395 15.5747C22.7563 15.672 22.7535 15.7717 22.7311 15.8679C22.7088 15.9641 22.6674 16.0548 22.6095 16.1347C22.4595 16.3547 21.5595 17.4347 18.5895 17.4547L18.2195 14.8947C18.0348 13.5933 17.4059 12.3957 16.4395 11.5047C17.0091 11.1752 17.6498 10.9878 18.3073 10.9586C18.9647 10.9294 19.6196 11.0592 20.2162 11.3369C20.8128 11.6146 21.3337 12.0321 21.7347 12.5539C22.1356 13.0758 22.4048 13.6867 22.5195 14.3347L22.7395 15.5747Z" fill="url(#paint2_linear_109_2091)"/>
<path d="M7.73 9.30483C7.47828 9.66183 7.14411 9.95279 6.75587 10.153C6.36764 10.3532 5.93681 10.4568 5.5 10.4548C5.06426 10.4548 4.63475 10.3513 4.24688 10.1527C3.85901 9.95417 3.52387 9.66628 3.26908 9.31279C3.0143 8.95929 2.84717 8.55032 2.78145 8.11956C2.71574 7.6888 2.75333 7.24859 2.89112 6.83521C3.02892 6.42183 3.26297 6.04711 3.574 5.74193C3.88502 5.43675 4.26412 5.20985 4.68004 5.07992C5.09596 4.95 5.5368 4.92077 5.96624 4.99465C6.39567 5.06852 6.80141 5.24339 7.15 5.50483C7.04974 5.89693 6.99934 6.30012 7 6.70483C7.00076 7.62198 7.25327 8.52132 7.73 9.30483Z" fill="url(#paint3_linear_109_2091)"/>
<path d="M21.2495 7.70484C21.2498 8.06604 21.1788 8.42376 21.0407 8.75753C20.9026 9.09129 20.7001 9.39455 20.4447 9.64997C20.1892 9.90538 19.886 10.1079 19.5522 10.246C19.2185 10.3841 18.8607 10.4551 18.4995 10.4548C18.0627 10.4568 17.6319 10.3532 17.2437 10.153C16.8554 9.95279 16.5213 9.66183 16.2695 9.30484C16.7463 8.52132 16.9988 7.62198 16.9995 6.70484C17.0002 6.30012 16.9498 5.89694 16.8495 5.50484C17.2581 5.19841 17.7439 5.01181 18.2526 4.96595C18.7612 4.92008 19.2726 5.01677 19.7294 5.24516C20.1862 5.47356 20.5703 5.82464 20.8388 6.25907C21.1073 6.69351 21.2495 7.19413 21.2495 7.70484Z" fill="url(#paint4_linear_109_2091)"/>
<path d="M12 10.4548C14.0711 10.4548 15.75 8.7759 15.75 6.70483C15.75 4.63377 14.0711 2.95483 12 2.95483C9.92893 2.95483 8.25 4.63377 8.25 6.70483C8.25 8.7759 9.92893 10.4548 12 10.4548Z" fill="url(#paint5_linear_109_2091)"/>
<defs>
<linearGradient id="paint0_linear_109_2091" x1="5.87269" y1="10.9548" x2="20.0548" y2="17.3442" gradientUnits="userSpaceOnUse">
<stop stop-color="#4A89DB"/>
<stop offset="1" stop-color="#39C77B"/>
</linearGradient>
<linearGradient id="paint1_linear_109_2091" x1="1.04091" y1="10.9546" x2="9.32164" y2="13.9465" gradientUnits="userSpaceOnUse">
<stop stop-color="#4A89DB"/>
<stop offset="1" stop-color="#39C77B"/>
</linearGradient>
<linearGradient id="paint2_linear_109_2091" x1="16.2313" y1="10.9546" x2="24.5121" y2="13.9465" gradientUnits="userSpaceOnUse">
<stop stop-color="#4A89DB"/>
<stop offset="1" stop-color="#39C77B"/>
</linearGradient>
<linearGradient id="paint3_linear_109_2091" x1="2.58577" y1="4.95483" x2="9.22003" y2="7.19032" gradientUnits="userSpaceOnUse">
<stop stop-color="#4A89DB"/>
<stop offset="1" stop-color="#39C77B"/>
</linearGradient>
<linearGradient id="paint4_linear_109_2091" x1="16.1053" y1="4.95483" x2="22.7396" y2="7.19032" gradientUnits="userSpaceOnUse">
<stop stop-color="#4A89DB"/>
<stop offset="1" stop-color="#39C77B"/>
</linearGradient>
<linearGradient id="paint5_linear_109_2091" x1="8.00267" y1="2.95483" x2="17.7751" y2="6.59159" gradientUnits="userSpaceOnUse">
<stop stop-color="#4A89DB"/>
<stop offset="1" stop-color="#39C77B"/>
</linearGradient>
</defs>
</svg>
