<svg width="24" height="24" viewBox="0 0 24 24" fill="none" xmlns="http://www.w3.org/2000/svg">
<path d="M16.755 8.60718C17.1638 8.60718 17.5638 8.64271 17.9551 8.70494V7.65606C17.9551 6.45608 16.9861 5.48717 15.7951 5.48717H13.5182V4.036C13.5182 2.96395 12.6458 2.09155 11.5738 2.09155H8.1658C7.09375 2.09155 6.22135 2.96395 6.22135 4.036V5.48717H3.94618C2.75499 5.48717 1.77734 6.45608 1.77734 7.65606V15.4961C1.77734 16.6872 2.75499 17.665 3.94618 17.665H9.74175C9.59071 17.0872 9.51063 16.4827 9.51063 15.8516C9.51063 11.8605 12.7639 8.60718 16.755 8.60718ZM7.99913 4.036C7.99913 3.94398 8.07378 3.86933 8.1658 3.86933H11.5738C11.6658 3.86933 11.7405 3.94398 11.7405 4.036V5.48522H7.99913V4.036Z" fill="url(#paint0_linear_109_2100)"/>
<path d="M16.7547 10.385C13.7414 10.385 11.2881 12.8295 11.2881 15.8517C11.2881 18.8739 13.7414 21.3183 16.7547 21.3183C19.777 21.3183 22.2215 18.8739 22.2215 15.8517C22.2215 12.8295 19.777 10.385 16.7547 10.385ZM18.6125 17.8872C18.2794 18.2205 17.7123 18.2401 17.359 17.8872L16.1325 16.6606C15.9637 16.4917 15.8658 16.2695 15.8658 16.0294V13.1405C15.8658 12.6428 16.2657 12.2517 16.7547 12.2517C17.2525 12.2517 17.6436 12.6428 17.6436 13.1405V15.665L18.6125 16.625C18.9591 16.9717 18.9591 17.5406 18.6125 17.8872Z" fill="url(#paint1_linear_109_2100)"/>
<defs>
<linearGradient id="paint0_linear_109_2100" x1="1.24385" y1="2.09155" x2="22.1222" y2="10.1629" gradientUnits="userSpaceOnUse">
<stop stop-color="#4A89DB"/>
<stop offset="1" stop-color="#39C77B"/>
</linearGradient>
<linearGradient id="paint1_linear_109_2100" x1="10.9275" y1="10.385" x2="25.1735" y2="15.6866" gradientUnits="userSpaceOnUse">
<stop stop-color="#4A89DB"/>
<stop offset="1" stop-color="#39C77B"/>
</linearGradient>
</defs>
</svg>
