<svg width="32" height="32" viewBox="0 0 32 32" fill="none" xmlns="http://www.w3.org/2000/svg">
    <path d="M3.73079 28.7561C3.10722 28.7561 2.61524 28.5556 2.25485 28.1548C1.92219 27.7847 1.74307 27.2991 1.71749 26.6979L1.71429 26.5452V5.06805C1.71429 4.38777 1.89447 3.84922 2.25485 3.45239C2.58751 3.08609 3.03231 2.88885 3.58922 2.86067L3.73079 2.85715H19.0491C19.6645 2.85715 20.1525 3.05556 20.5129 3.45239C20.8455 3.81869 21.0246 4.30576 21.0502 4.91358L21.0534 5.06805L21.0531 8.83372L28.2813 8.83384C28.8494 8.83384 29.3089 9.00462 29.6597 9.3462L29.7451 9.43515C30.0778 9.80519 30.2569 10.2908 30.2825 10.892L30.2857 11.0447V26.5452C30.2857 27.2174 30.1055 27.7539 29.7451 28.1548C29.4124 28.5248 28.9711 28.7241 28.421 28.7525L28.2813 28.7561H3.73079ZM21.0534 26.5452C21.0534 26.6326 21.0504 26.7178 21.0443 26.8006L27.6374 26.8003C27.8722 26.8003 28.0464 26.7436 28.1598 26.6302C28.2571 26.533 28.3127 26.3883 28.3265 26.1959L28.33 26.0957V11.4942C28.33 11.2512 28.2733 11.0731 28.1598 10.9597C28.0626 10.8625 27.9208 10.807 27.7343 10.7931L27.6374 10.7896L21.0531 10.7891L21.0534 26.5452ZM18.4052 4.81295H4.37462C4.13167 4.81295 3.95351 4.86964 3.84013 4.98302C3.74295 5.0802 3.68742 5.22498 3.67353 5.41735L3.67006 5.51751V26.0957C3.67006 26.3387 3.72675 26.5168 3.84013 26.6302C3.93731 26.7274 4.08209 26.7829 4.27447 26.7968L4.37462 26.8003L7.156 26.8L7.15646 23.2167C7.15646 22.7382 7.25518 22.3751 7.45262 22.1274L7.51481 22.0566C7.73199 21.8321 8.05459 21.7096 8.4826 21.6892L8.61417 21.6861H14.1535C14.6556 21.6861 15.0241 21.8096 15.259 22.0566C15.4725 22.2812 15.5889 22.6212 15.6083 23.0766L15.6112 23.2167L15.6109 26.8L18.4052 26.8003C18.6401 26.8003 18.8142 26.7436 18.9276 26.6302C19.0248 26.533 19.0803 26.3883 19.0942 26.1959L19.0976 26.0957V5.51751C19.0976 5.27456 19.041 5.0964 18.9276 4.98302C18.8142 4.86964 18.6401 4.81295 18.4052 4.81295ZM13.6312 23.2775H9.13654C8.90095 23.2775 8.77244 23.3845 8.75103 23.5987L8.74781 23.6662L8.74743 26.8H14.0194L14.0199 23.6662C14.0199 23.4306 13.9128 23.3021 13.6987 23.2807L13.6312 23.2775ZM25.6695 22.0748C25.9219 22.0748 26.0586 22.1905 26.0796 22.4219L26.0825 22.4879V24.3829C26.0825 24.6353 25.9668 24.772 25.7355 24.7931L25.6695 24.7959H23.7138C23.4688 24.7959 23.3361 24.6802 23.3157 24.4489L23.3129 24.3829V22.4879C23.3129 22.2354 23.4252 22.0987 23.6498 22.0777L23.7138 22.0748H25.6695ZM25.6695 17.4344C25.9219 17.4344 26.0586 17.5501 26.0796 17.7815L26.0825 17.8474V19.7425C26.0825 19.9949 25.9668 20.1316 25.7355 20.1526L25.6695 20.1555H23.7138C23.4688 20.1555 23.3361 20.0398 23.3157 19.8084L23.3129 19.7425V17.8474C23.3129 17.595 23.4252 17.4583 23.6498 17.4373L23.7138 17.4344H25.6695ZM9.71962 16.4504C10.0261 16.4504 10.1912 16.5919 10.2147 16.8748L10.2177 16.9485V19.2444C10.2177 19.5509 10.0762 19.7159 9.7933 19.7395L9.71962 19.7425H7.35081C7.05927 19.7425 6.90228 19.601 6.87985 19.3181L6.87705 19.2444V16.9485C6.87705 16.642 7.01161 16.477 7.28073 16.4534L7.35081 16.4504H9.71962ZM15.4048 16.4504C15.7112 16.4504 15.8763 16.5919 15.8999 16.8748L15.9028 16.9485V19.2444C15.9028 19.5509 15.7613 19.7159 15.4784 19.7395L15.4048 19.7425H13.0481C12.7491 19.7425 12.5881 19.601 12.5651 19.3181L12.5622 19.2444V16.9485C12.5622 16.642 12.7002 16.477 12.9762 16.4534L13.0481 16.4504H15.4048ZM25.6695 12.794C25.9219 12.794 26.0586 12.9097 26.0796 13.141L26.0825 13.207V15.1021C26.0825 15.3544 25.9668 15.4912 25.7355 15.5122L25.6695 15.5151H23.7138C23.4688 15.5151 23.3361 15.3994 23.3157 15.168L23.3129 15.1021V13.207C23.3129 12.9546 23.4252 12.8179 23.6498 12.7968L23.7138 12.794H25.6695ZM9.71962 11.64C10.0261 11.64 10.1912 11.7814 10.2147 12.0643L10.2177 12.138V14.4339C10.2177 14.7404 10.0762 14.9055 9.7933 14.929L9.71962 14.932H7.35081C7.05927 14.932 6.90228 14.7905 6.87985 14.5076L6.87705 14.4339V12.138C6.87705 11.8315 7.01161 11.6665 7.28073 11.6429L7.35081 11.64H9.71962ZM15.4048 11.64C15.7112 11.64 15.8763 11.7814 15.8999 12.0643L15.9028 12.138V14.4339C15.9028 14.7404 15.7613 14.9055 15.4784 14.929L15.4048 14.932H13.0481C12.7491 14.932 12.5881 14.7905 12.5651 14.5076L12.5622 14.4339V12.138C12.5622 11.8315 12.7002 11.6665 12.9762 11.6429L13.0481 11.64H15.4048ZM9.71962 6.82945C10.0261 6.82945 10.1912 6.97091 10.2147 7.25384L10.2177 7.32752V9.62343C10.2177 9.92993 10.0762 10.095 9.7933 10.1186L9.71962 10.1215H7.35081C7.05927 10.1215 6.90228 9.98003 6.87985 9.69711L6.87705 9.62343V7.32752C6.87705 7.02101 7.01161 6.85597 7.28073 6.8324L7.35081 6.82945H9.71962ZM15.4048 6.82945C15.7112 6.82945 15.8763 6.97091 15.8999 7.25384L15.9028 7.32752V9.62343C15.9028 9.92993 15.7613 10.095 15.4784 10.1186L15.4048 10.1215H13.0481C12.7491 10.1215 12.5881 9.98003 12.5651 9.69711L12.5622 9.62343V7.32752C12.5622 7.02101 12.7002 6.85597 12.9762 6.8324L13.0481 6.82945H15.4048Z" fill="white"/>
</svg>