<svg width="32" height="32" viewBox="0 0 32 32" fill="none" xmlns="http://www.w3.org/2000/svg">
<path d="M31.7847 0.310101C31.5799 0.071499 31.2681 -0.025175 30.9767 0.0581205L5.37863 7.38185C5.09759 7.46223 4.87806 7.69735 4.80257 7.99865C4.72718 8.29984 4.80734 8.62127 5.01288 8.84184L5.78646 9.67177L2.62066 13.0673C2.30296 13.4082 2.30296 13.9606 2.62066 14.3013C2.77956 14.4716 2.98782 14.5568 3.19596 14.5568C3.40411 14.5568 3.61236 14.4716 3.77127 14.3013L6.93697 10.906L8.57036 12.6583L4.24494 17.2975C3.92724 17.6384 3.92724 18.1907 4.24494 18.5315C4.40384 18.7018 4.6121 18.7869 4.82025 18.7869C5.02839 18.7869 5.23665 18.7018 5.39555 18.5315L9.72076 13.8925L9.89463 14.079V17.2101L2.39277 25.2562C2.07507 25.597 2.07507 26.1494 2.39277 26.4901C2.55167 26.6605 2.75993 26.7456 2.96807 26.7456C3.17622 26.7456 3.38448 26.6605 3.54338 26.4901L9.89474 19.6781V23.1861L5.33145 28.07C5.01342 28.4104 5.01288 28.9627 5.33025 29.3038C5.48916 29.4746 5.69763 29.56 5.9061 29.56C6.11403 29.56 6.32196 29.4749 6.48076 29.3051L10.1709 25.3557C10.3199 25.4966 10.5115 25.5754 10.7089 25.5754C10.8311 25.5754 10.9553 25.5456 11.0721 25.483L15.5647 23.0732L11.0421 27.9239C10.7244 28.2647 10.7244 28.8171 11.0421 29.1578C11.201 29.3281 11.4093 29.4133 11.6174 29.4133C11.8255 29.4133 12.0338 29.328 12.1927 29.1578L18.0721 22.8519L19.7055 24.6042L16.3582 28.1943C16.0405 28.5352 16.0405 29.0875 16.3582 29.4283C16.5171 29.5986 16.7254 29.6838 16.9336 29.6838C17.1417 29.6838 17.35 29.5985 17.5089 29.4283L20.8559 25.8384L22.0788 27.1503C22.233 27.3159 22.4406 27.4059 22.6541 27.4059C22.7135 27.4059 22.7734 27.3989 22.8326 27.3846C23.1047 27.319 23.3264 27.1085 23.4203 26.8267L31.9531 1.19424C32.054 0.889331 31.9895 0.548703 31.7847 0.310101ZM25.5548 3.41554L10.8397 12.6249L7.16084 8.67805L25.5548 3.41554ZM14.3437 18.8524L16.1609 20.8022L12.5267 22.7516L14.3437 18.8524ZM13.5765 16.7308C13.5009 16.8039 13.4387 16.8916 13.3932 16.9892L11.5214 21.0058V14.2185L24.7572 5.93499L13.5765 16.7308ZM22.3197 24.9415L15.3022 17.4126L29.3374 3.86063L22.3197 24.9415Z" fill="white"/>
<path d="M2.96655 20.2315C2.96655 20.0022 2.87978 19.7766 2.72792 19.6148C2.57715 19.452 2.36792 19.3589 2.15305 19.3589C1.93937 19.3589 1.72895 19.452 1.57818 19.6148C1.42633 19.7766 1.33955 20.0022 1.33955 20.2315C1.33955 20.4617 1.42633 20.6862 1.57818 20.848C1.72895 21.0108 1.93937 21.104 2.15305 21.104C2.36792 21.104 2.57715 21.0108 2.72792 20.848C2.87978 20.6862 2.96655 20.4617 2.96655 20.2315Z" fill="white"/>
<path d="M9.79777 30.1628C9.58289 30.1628 9.37366 30.256 9.22289 30.4176C9.07104 30.5805 8.98427 30.8062 8.98427 31.0353C8.98427 31.2646 9.07104 31.489 9.22289 31.652C9.37366 31.8148 9.58289 31.9078 9.79777 31.9078C10.0114 31.9078 10.2219 31.8148 10.3726 31.652C10.5245 31.4892 10.6113 31.2646 10.6113 31.0353C10.6113 30.8062 10.5245 30.5806 10.3726 30.4176C10.2219 30.256 10.0125 30.1628 9.79777 30.1628Z" fill="white"/>
<path d="M15.2732 29.7185C15.0595 29.7185 14.8502 29.8116 14.6983 29.9745C14.5465 30.1372 14.4597 30.3619 14.4597 30.5911C14.4597 30.8213 14.5465 31.0459 14.6983 31.2088C14.849 31.3706 15.0595 31.4636 15.2732 31.4636C15.488 31.4636 15.6973 31.3705 15.8492 31.2088C16 31.046 16.0867 30.8214 16.0867 30.5911C16.0867 30.3619 15.9999 30.1373 15.8492 29.9745C15.6973 29.8115 15.4879 29.7185 15.2732 29.7185Z" fill="white"/>
<path d="M20.602 28.5458C20.3883 28.5458 20.178 28.64 20.0271 28.8017C19.8753 28.9645 19.7885 29.1891 19.7885 29.4183C19.7885 29.6486 19.8754 29.8732 20.0271 30.036C20.179 30.1989 20.3883 30.292 20.602 30.292C20.8158 30.292 21.025 30.1989 21.177 30.036C21.3288 29.8733 21.4155 29.6486 21.4155 29.4183C21.4155 29.1891 21.3287 28.9646 21.177 28.8017C21.0262 28.64 20.8158 28.5458 20.602 28.5458Z" fill="white"/>
<path d="M3.60424 30.2838C3.39056 30.2838 3.18024 30.377 3.02937 30.5386C2.87762 30.7003 2.79074 30.926 2.79074 31.1552C2.79074 31.3855 2.87762 31.61 3.02937 31.7729C3.18024 31.9346 3.39056 32.0287 3.60424 32.0287C3.819 32.0287 4.02834 31.9345 4.1803 31.7729C4.33107 31.61 4.41774 31.3855 4.41774 31.1552C4.41774 30.926 4.33096 30.7003 4.1803 30.5386C4.02845 30.377 3.81911 30.2838 3.60424 30.2838Z" fill="white"/>
<path d="M1.627 16.3062C1.627 16.077 1.54022 15.8525 1.38837 15.6896C1.2376 15.5268 1.02826 15.4337 0.813498 15.4337C0.598626 15.4337 0.389394 15.5268 0.238626 15.6896C0.0867731 15.8513 0 16.0758 0 16.3062C0 16.5366 0.0867731 16.7611 0.238626 16.9228C0.389394 17.0857 0.599819 17.1787 0.813498 17.1787C1.02718 17.1787 1.23641 17.0857 1.38837 16.9228C1.54022 16.7612 1.627 16.5354 1.627 16.3062Z" fill="white"/>
<path d="M2.96873 10.3732C3.1824 10.3732 3.39164 10.2801 3.5436 10.1172C3.69436 9.95551 3.78222 9.72982 3.78222 9.50064C3.78222 9.27147 3.69426 9.04578 3.5436 8.88407C3.39174 8.7212 3.1824 8.62814 2.96873 8.62814C2.75396 8.62814 2.54462 8.7212 2.39266 8.88407C2.24189 9.04578 2.15523 9.27147 2.15523 9.50064C2.15523 9.72982 2.242 9.95551 2.39266 10.1172C2.54462 10.2802 2.75396 10.3732 2.96873 10.3732Z" fill="white"/>
</svg>