<svg width="32" height="32" viewBox="0 0 32 32" fill="none" xmlns="http://www.w3.org/2000/svg">
<path d="M12.5279 0.91735L12.4204 1.01749L11.1276 2.45196L12.263 3.69424L13.2499 2.60006L14.1603 2.81022L14.4886 1.08485L13.1523 0.775597L12.5279 0.91735ZM15.7267 3.17166L18.8585 3.89559L19.1865 2.16951L16.0547 1.44663L15.7267 3.17166ZM20.4243 4.25702L23.5561 4.9799L23.8841 3.25487L20.7523 2.53094L20.4243 4.25702ZM7.74459 6.2042L8.87963 7.44648L11.1356 4.94499L10.0003 3.7027L7.74459 6.2042ZM4.3622 9.95679L5.49724 11.1994L7.75227 8.69793L6.61724 7.4553L4.3622 9.95679ZM0.979163 13.7097L2.11484 14.952L4.36988 12.4498L3.23484 11.2075L0.979163 13.7097ZM23.6915 15.1297L24.9427 16.2282L26.0435 14.6812L25.686 12.3715L23.6915 15.1297ZM0.792923 16.1827L2.59036 19.1002L3.9142 18.1097L2.11676 15.1925L0.792923 16.1827ZM20.7001 19.266L21.9519 20.3651L23.9462 17.6076L22.695 16.5088L20.7001 19.266ZM3.48956 20.559L5.28764 23.4759L6.61084 22.4854L4.81308 19.5689L3.48956 20.559ZM17.7094 23.4036L18.9606 24.5021L20.9551 21.7446L19.7039 20.6454L17.7094 23.4036ZM6.1862 24.9347L7.98395 27.852L9.30747 26.8618L7.51003 23.9442L6.1862 24.9347ZM14.718 27.5399L15.9692 28.6386L17.9638 25.8812L16.7126 24.7824L14.718 27.5399ZM8.88251 29.3107L10.6799 32.228L12.0038 31.2371L10.2064 28.3202L8.88251 29.3107ZM11.727 31.6765L12.9782 32.7756L14.9724 30.0174L13.7212 28.919L11.727 31.6765Z" fill="white"/>
<path d="M7.74459 6.20385C7.59569 6.20285 7.44811 6.23459 7.31047 6.29719C7.17283 6.3598 7.04791 6.45202 6.943 6.56846L0.325405 13.9093C0.142156 14.1126 0.028784 14.3797 0.00472925 14.665C-0.0193255 14.9503 0.0474358 15.2359 0.193565 15.4728L6.24988 25.3004C6.34847 25.4604 6.47981 25.5926 6.63331 25.6864C6.7868 25.7802 6.95815 25.8329 7.13353 25.8403C7.30891 25.8478 7.48342 25.8096 7.64298 25.7291C7.80254 25.6485 7.94269 25.5278 8.05211 25.3766L18.7705 10.5531C18.8895 10.3884 18.9683 10.1929 18.9993 9.98514C19.0304 9.77742 19.0128 9.5644 18.948 9.36632C18.8833 9.16824 18.7737 8.9917 18.6296 8.85348C18.4855 8.71526 18.3117 8.61996 18.1247 8.57664L7.96731 6.2303C7.89405 6.21342 7.81944 6.20433 7.74459 6.20385ZM8.10363 8.78398L15.886 10.5816L7.2486 22.5274L2.56476 14.9273L8.10363 8.78398Z" fill="white"/>
<path fillRule="evenodd" clipRule="evenodd" d="M25.1948 1.84827L26.03 5.86674L20.2236 7.33153L21.0892 11.4981L26.8959 10.0333L27.7308 14.0518L31.9999 6.5533L25.1948 1.84827Z" fill="white"/>
</svg>